%TF.GenerationSoftware,KiCad,Pcbnew,(5.1.7-0-10_14)*%
%TF.CreationDate,2020-11-01T22:18:58+09:00*%
%TF.ProjectId,esp32-dev,65737033-322d-4646-9576-2e6b69636164,rev?*%
%TF.SameCoordinates,Original*%
%TF.FileFunction,Copper,L3,Inr*%
%TF.FilePolarity,Positive*%
%FSLAX46Y46*%
G04 Gerber Fmt 4.6, Leading zero omitted, Abs format (unit mm)*
G04 Created by KiCad (PCBNEW (5.1.7-0-10_14)) date 2020-11-01 22:18:58*
%MOMM*%
%LPD*%
G01*
G04 APERTURE LIST*
%TA.AperFunction,ComponentPad*%
%ADD10C,1.200000*%
%TD*%
%TA.AperFunction,ComponentPad*%
%ADD11C,2.640000*%
%TD*%
%TA.AperFunction,ComponentPad*%
%ADD12O,1.700000X1.700000*%
%TD*%
%TA.AperFunction,ComponentPad*%
%ADD13R,1.700000X1.700000*%
%TD*%
%TA.AperFunction,ViaPad*%
%ADD14C,0.800000*%
%TD*%
%TA.AperFunction,Conductor*%
%ADD15C,0.254000*%
%TD*%
%TA.AperFunction,Conductor*%
%ADD16C,0.100000*%
%TD*%
G04 APERTURE END LIST*
D10*
%TO.N,N/C*%
%TO.C,J2*%
X135575000Y-114020000D03*
X140425000Y-114020000D03*
D11*
X134375000Y-116700000D03*
X141625000Y-116700000D03*
%TD*%
D12*
%TO.N,VBUS*%
%TO.C,J5*%
X121000000Y-112240000D03*
%TO.N,VDD*%
X121000000Y-109700000D03*
%TO.N,Net-(J5-Pad16)*%
X121000000Y-107160000D03*
%TO.N,GND*%
X121000000Y-104620000D03*
%TO.N,+BATT*%
X121000000Y-102080000D03*
%TO.N,EN*%
X121000000Y-99540000D03*
%TO.N,Net-(J5-Pad12)*%
X121000000Y-97000000D03*
%TO.N,Net-(J5-Pad11)*%
X121000000Y-94460000D03*
%TO.N,IO2*%
X121000000Y-91920000D03*
%TO.N,IO5*%
X121000000Y-89380000D03*
%TO.N,IO13*%
X121000000Y-86840000D03*
%TO.N,IO33*%
X121000000Y-84300000D03*
%TO.N,IO32*%
X121000000Y-81760000D03*
%TO.N,IO27*%
X121000000Y-79220000D03*
%TO.N,IO26_DAC2*%
X121000000Y-76680000D03*
%TO.N,IO25_DAC1*%
X121000000Y-74140000D03*
%TO.N,TXD0*%
X121000000Y-71600000D03*
D13*
%TO.N,RXD0*%
X121000000Y-69060000D03*
%TD*%
%TO.N,I36*%
%TO.C,J6*%
X146400000Y-69060000D03*
D12*
%TO.N,I39*%
X146400000Y-71600000D03*
%TO.N,I34*%
X146400000Y-74140000D03*
%TO.N,I35*%
X146400000Y-76680000D03*
%TO.N,IO15*%
X146400000Y-79220000D03*
%TO.N,Net-(J6-Pad6)*%
X146400000Y-81760000D03*
%TO.N,GPIO0*%
X146400000Y-84300000D03*
%TO.N,IO18*%
X146400000Y-86840000D03*
%TO.N,IO23*%
X146400000Y-89380000D03*
%TO.N,IO19*%
X146400000Y-91920000D03*
%TO.N,IO21*%
X146400000Y-94460000D03*
%TO.N,IO22*%
X146400000Y-97000000D03*
%TO.N,IO14*%
X146400000Y-99540000D03*
%TO.N,IO12*%
X146400000Y-102080000D03*
%TO.N,IO4*%
X146400000Y-104620000D03*
%TO.N,IO16*%
X146400000Y-107160000D03*
%TO.N,IO17*%
X146400000Y-109700000D03*
%TO.N,RESET*%
X146400000Y-112240000D03*
%TD*%
D14*
%TO.N,GND*%
X132700000Y-78500000D03*
X132700000Y-77100000D03*
X132700000Y-75700000D03*
X131000000Y-75700000D03*
X131000000Y-77100000D03*
X131000000Y-78500000D03*
X134400000Y-78500000D03*
X134400000Y-77100000D03*
X134400000Y-75700000D03*
X131800000Y-96400000D03*
X135100000Y-99200000D03*
X139300000Y-99300000D03*
X129000000Y-106900000D03*
X126000000Y-106900000D03*
X123700000Y-106800000D03*
X123600000Y-103100000D03*
X126200000Y-103100000D03*
X136300000Y-90600000D03*
X125500000Y-89100000D03*
X124900000Y-90000000D03*
X123500000Y-90100000D03*
X128000000Y-85400000D03*
X126500000Y-69200000D03*
X140900000Y-69300000D03*
X127000000Y-117600000D03*
X139300000Y-115100000D03*
X138000000Y-93000000D03*
X136900000Y-93000000D03*
X132800000Y-111600000D03*
X134300000Y-107500000D03*
X135600000Y-111000000D03*
X123800000Y-96500000D03*
X124900000Y-95100000D03*
%TO.N,I35*%
X123800000Y-97500000D03*
%TO.N,+BATT*%
X128400000Y-105000000D03*
X128900000Y-111600000D03*
%TO.N,VDD*%
X141900000Y-101600000D03*
X126500000Y-70500000D03*
%TO.N,Net-(C2-Pad1)*%
X131500000Y-105850000D03*
X131500000Y-99500000D03*
%TO.N,VDD*%
X123900000Y-70500000D03*
X127500000Y-89000000D03*
X130100000Y-93400000D03*
X141000000Y-94281998D03*
X136961108Y-105238892D03*
%TO.N,+BATT*%
X127400000Y-100100000D03*
%TO.N,RESET*%
X141700000Y-88000000D03*
X140600000Y-86400000D03*
X141800000Y-98600000D03*
%TO.N,VBUS*%
X130500000Y-112200000D03*
X125400000Y-112200000D03*
%TO.N,IO21*%
X140900000Y-75600000D03*
%TO.N,IO17*%
X141350000Y-82000000D03*
X144200000Y-99213680D03*
X141000000Y-103500000D03*
%TO.N,IO16*%
X141350000Y-83200000D03*
X143450000Y-100000000D03*
X141000000Y-102300000D03*
%TO.N,DTR*%
X140472295Y-90383365D03*
X137800000Y-90400000D03*
%TO.N,RTS*%
X141830331Y-97569669D03*
X139900000Y-105300000D03*
%TO.N,CH340GND*%
X135300000Y-90600000D03*
X135800000Y-95500000D03*
%TO.N,TXD0*%
X137100000Y-98000000D03*
X135800000Y-83500000D03*
X138462170Y-77937830D03*
X138500000Y-75800000D03*
%TO.N,RXD0*%
X139252831Y-70347169D03*
X139292169Y-72507831D03*
X135900000Y-97900000D03*
X135092892Y-82792892D03*
X137500000Y-77200000D03*
%TO.N,I35*%
X126197887Y-96669036D03*
X128099989Y-91300000D03*
X130500000Y-89324999D03*
X130400000Y-81900000D03*
X143800000Y-78200000D03*
X136600000Y-79100000D03*
%TO.N,I36*%
X138300000Y-68200000D03*
X133000000Y-72535000D03*
%TO.N,I39*%
X143900000Y-68950000D03*
X133912170Y-73387830D03*
%TO.N,I34*%
X143900000Y-70300000D03*
X129599998Y-74537829D03*
%TO.N,IO32*%
X123007168Y-82892832D03*
X128000000Y-82900000D03*
%TO.N,IO33*%
X123000000Y-83900000D03*
X127200000Y-83900000D03*
%TO.N,IO14*%
X126800000Y-86400000D03*
X140800000Y-106300000D03*
%TO.N,IO12*%
X126700000Y-87500000D03*
X141500000Y-107500000D03*
%TO.N,IO13*%
X124900000Y-87000000D03*
X129200000Y-85200000D03*
%TO.N,IO15*%
X138100000Y-85400000D03*
X143800002Y-81536331D03*
%TO.N,IO4*%
X141350000Y-84500000D03*
%TO.N,IO5*%
X123300000Y-87590000D03*
X129100000Y-82000000D03*
X139700000Y-80700000D03*
X143400000Y-80600000D03*
%TO.N,IO18*%
X143558955Y-79501707D03*
%TO.N,IO19*%
X140900000Y-78100000D03*
%TO.N,IO22*%
X143800000Y-71800000D03*
%TO.N,IO23*%
X140405375Y-71050000D03*
%TD*%
D15*
%TO.N,VDD*%
X144339017Y-62441637D02*
X144041637Y-62739017D01*
X143807988Y-63088698D01*
X143647047Y-63477244D01*
X143565000Y-63889721D01*
X143565000Y-64310279D01*
X143647047Y-64722756D01*
X143807988Y-65111302D01*
X144041637Y-65460983D01*
X144339017Y-65758363D01*
X144688698Y-65992012D01*
X145077244Y-66152953D01*
X145489721Y-66235000D01*
X145910279Y-66235000D01*
X146322756Y-66152953D01*
X146711302Y-65992012D01*
X147060983Y-65758363D01*
X147358363Y-65460983D01*
X147540001Y-65189142D01*
X147540001Y-67644990D01*
X147494180Y-67620498D01*
X147374482Y-67584188D01*
X147250000Y-67571928D01*
X145550000Y-67571928D01*
X145425518Y-67584188D01*
X145305820Y-67620498D01*
X145195506Y-67679463D01*
X145098815Y-67758815D01*
X145019463Y-67855506D01*
X144960498Y-67965820D01*
X144924188Y-68085518D01*
X144911928Y-68210000D01*
X144911928Y-68732069D01*
X144895226Y-68648102D01*
X144817205Y-68459744D01*
X144703937Y-68290226D01*
X144559774Y-68146063D01*
X144390256Y-68032795D01*
X144201898Y-67954774D01*
X144001939Y-67915000D01*
X143798061Y-67915000D01*
X143598102Y-67954774D01*
X143409744Y-68032795D01*
X143240226Y-68146063D01*
X143096063Y-68290226D01*
X142982795Y-68459744D01*
X142904774Y-68648102D01*
X142865000Y-68848061D01*
X142865000Y-69051939D01*
X142904774Y-69251898D01*
X142982795Y-69440256D01*
X143096063Y-69609774D01*
X143111289Y-69625000D01*
X143096063Y-69640226D01*
X142982795Y-69809744D01*
X142904774Y-69998102D01*
X142865000Y-70198061D01*
X142865000Y-70401939D01*
X142904774Y-70601898D01*
X142982795Y-70790256D01*
X143096063Y-70959774D01*
X143136289Y-71000000D01*
X142996063Y-71140226D01*
X142882795Y-71309744D01*
X142804774Y-71498102D01*
X142765000Y-71698061D01*
X142765000Y-71901939D01*
X142804774Y-72101898D01*
X142882795Y-72290256D01*
X142996063Y-72459774D01*
X143140226Y-72603937D01*
X143309744Y-72717205D01*
X143498102Y-72795226D01*
X143698061Y-72835000D01*
X143901939Y-72835000D01*
X144101898Y-72795226D01*
X144290256Y-72717205D01*
X144459774Y-72603937D01*
X144603937Y-72459774D01*
X144717205Y-72290256D01*
X144795226Y-72101898D01*
X144835000Y-71901939D01*
X144835000Y-71698061D01*
X144795226Y-71498102D01*
X144717205Y-71309744D01*
X144603937Y-71140226D01*
X144563711Y-71100000D01*
X144703937Y-70959774D01*
X144817205Y-70790256D01*
X144895226Y-70601898D01*
X144935000Y-70401939D01*
X144935000Y-70198061D01*
X144895226Y-69998102D01*
X144817205Y-69809744D01*
X144703937Y-69640226D01*
X144688711Y-69625000D01*
X144703937Y-69609774D01*
X144817205Y-69440256D01*
X144895226Y-69251898D01*
X144911928Y-69167931D01*
X144911928Y-69910000D01*
X144924188Y-70034482D01*
X144960498Y-70154180D01*
X145019463Y-70264494D01*
X145098815Y-70361185D01*
X145195506Y-70440537D01*
X145305820Y-70499502D01*
X145378380Y-70521513D01*
X145246525Y-70653368D01*
X145084010Y-70896589D01*
X144972068Y-71166842D01*
X144915000Y-71453740D01*
X144915000Y-71746260D01*
X144972068Y-72033158D01*
X145084010Y-72303411D01*
X145246525Y-72546632D01*
X145453368Y-72753475D01*
X145627760Y-72870000D01*
X145453368Y-72986525D01*
X145246525Y-73193368D01*
X145084010Y-73436589D01*
X144972068Y-73706842D01*
X144915000Y-73993740D01*
X144915000Y-74286260D01*
X144972068Y-74573158D01*
X145084010Y-74843411D01*
X145246525Y-75086632D01*
X145453368Y-75293475D01*
X145627760Y-75410000D01*
X145453368Y-75526525D01*
X145246525Y-75733368D01*
X145084010Y-75976589D01*
X144972068Y-76246842D01*
X144915000Y-76533740D01*
X144915000Y-76826260D01*
X144972068Y-77113158D01*
X145084010Y-77383411D01*
X145246525Y-77626632D01*
X145453368Y-77833475D01*
X145627760Y-77950000D01*
X145453368Y-78066525D01*
X145246525Y-78273368D01*
X145084010Y-78516589D01*
X144972068Y-78786842D01*
X144915000Y-79073740D01*
X144915000Y-79366260D01*
X144972068Y-79653158D01*
X145084010Y-79923411D01*
X145246525Y-80166632D01*
X145453368Y-80373475D01*
X145627760Y-80490000D01*
X145453368Y-80606525D01*
X145246525Y-80813368D01*
X145084010Y-81056589D01*
X144972068Y-81326842D01*
X144915000Y-81613740D01*
X144915000Y-81906260D01*
X144972068Y-82193158D01*
X145084010Y-82463411D01*
X145246525Y-82706632D01*
X145453368Y-82913475D01*
X145627760Y-83030000D01*
X145453368Y-83146525D01*
X145246525Y-83353368D01*
X145084010Y-83596589D01*
X144972068Y-83866842D01*
X144915000Y-84153740D01*
X144915000Y-84446260D01*
X144972068Y-84733158D01*
X145084010Y-85003411D01*
X145246525Y-85246632D01*
X145453368Y-85453475D01*
X145627760Y-85570000D01*
X145453368Y-85686525D01*
X145246525Y-85893368D01*
X145084010Y-86136589D01*
X144972068Y-86406842D01*
X144915000Y-86693740D01*
X144915000Y-86986260D01*
X144972068Y-87273158D01*
X145084010Y-87543411D01*
X145246525Y-87786632D01*
X145453368Y-87993475D01*
X145627760Y-88110000D01*
X145453368Y-88226525D01*
X145246525Y-88433368D01*
X145084010Y-88676589D01*
X144972068Y-88946842D01*
X144915000Y-89233740D01*
X144915000Y-89526260D01*
X144972068Y-89813158D01*
X145084010Y-90083411D01*
X145246525Y-90326632D01*
X145453368Y-90533475D01*
X145627760Y-90650000D01*
X145453368Y-90766525D01*
X145246525Y-90973368D01*
X145084010Y-91216589D01*
X144972068Y-91486842D01*
X144915000Y-91773740D01*
X144915000Y-92066260D01*
X144972068Y-92353158D01*
X145084010Y-92623411D01*
X145246525Y-92866632D01*
X145453368Y-93073475D01*
X145627760Y-93190000D01*
X145453368Y-93306525D01*
X145246525Y-93513368D01*
X145084010Y-93756589D01*
X144972068Y-94026842D01*
X144915000Y-94313740D01*
X144915000Y-94606260D01*
X144972068Y-94893158D01*
X145084010Y-95163411D01*
X145246525Y-95406632D01*
X145453368Y-95613475D01*
X145627760Y-95730000D01*
X145453368Y-95846525D01*
X145246525Y-96053368D01*
X145084010Y-96296589D01*
X144972068Y-96566842D01*
X144915000Y-96853740D01*
X144915000Y-97146260D01*
X144972068Y-97433158D01*
X145084010Y-97703411D01*
X145246525Y-97946632D01*
X145453368Y-98153475D01*
X145627760Y-98270000D01*
X145453368Y-98386525D01*
X145246525Y-98593368D01*
X145133438Y-98762614D01*
X145117205Y-98723424D01*
X145003937Y-98553906D01*
X144859774Y-98409743D01*
X144690256Y-98296475D01*
X144501898Y-98218454D01*
X144301939Y-98178680D01*
X144098061Y-98178680D01*
X143898102Y-98218454D01*
X143709744Y-98296475D01*
X143540226Y-98409743D01*
X143396063Y-98553906D01*
X143282795Y-98723424D01*
X143204774Y-98911782D01*
X143187850Y-98996868D01*
X143148102Y-99004774D01*
X142959744Y-99082795D01*
X142790226Y-99196063D01*
X142646063Y-99340226D01*
X142532795Y-99509744D01*
X142454774Y-99698102D01*
X142415000Y-99898061D01*
X142415000Y-100101939D01*
X142454774Y-100301898D01*
X142532795Y-100490256D01*
X142646063Y-100659774D01*
X142790226Y-100803937D01*
X142959744Y-100917205D01*
X143148102Y-100995226D01*
X143348061Y-101035000D01*
X143551939Y-101035000D01*
X143751898Y-100995226D01*
X143940256Y-100917205D01*
X144109774Y-100803937D01*
X144253937Y-100659774D01*
X144367205Y-100490256D01*
X144445226Y-100301898D01*
X144462150Y-100216812D01*
X144501898Y-100208906D01*
X144690256Y-100130885D01*
X144859774Y-100017617D01*
X144960813Y-99916578D01*
X144972068Y-99973158D01*
X145084010Y-100243411D01*
X145246525Y-100486632D01*
X145453368Y-100693475D01*
X145627760Y-100810000D01*
X145453368Y-100926525D01*
X145246525Y-101133368D01*
X145084010Y-101376589D01*
X144972068Y-101646842D01*
X144915000Y-101933740D01*
X144915000Y-102226260D01*
X144972068Y-102513158D01*
X145084010Y-102783411D01*
X145246525Y-103026632D01*
X145453368Y-103233475D01*
X145627760Y-103350000D01*
X145453368Y-103466525D01*
X145246525Y-103673368D01*
X145084010Y-103916589D01*
X144972068Y-104186842D01*
X144915000Y-104473740D01*
X144915000Y-104766260D01*
X144972068Y-105053158D01*
X145084010Y-105323411D01*
X145246525Y-105566632D01*
X145453368Y-105773475D01*
X145627760Y-105890000D01*
X145453368Y-106006525D01*
X145246525Y-106213368D01*
X145084010Y-106456589D01*
X144972068Y-106726842D01*
X144915000Y-107013740D01*
X144915000Y-107306260D01*
X144972068Y-107593158D01*
X145084010Y-107863411D01*
X145246525Y-108106632D01*
X145453368Y-108313475D01*
X145627760Y-108430000D01*
X145453368Y-108546525D01*
X145246525Y-108753368D01*
X145084010Y-108996589D01*
X144972068Y-109266842D01*
X144915000Y-109553740D01*
X144915000Y-109846260D01*
X144972068Y-110133158D01*
X145084010Y-110403411D01*
X145246525Y-110646632D01*
X145453368Y-110853475D01*
X145627760Y-110970000D01*
X145453368Y-111086525D01*
X145246525Y-111293368D01*
X145084010Y-111536589D01*
X144972068Y-111806842D01*
X144915000Y-112093740D01*
X144915000Y-112386260D01*
X144972068Y-112673158D01*
X145084010Y-112943411D01*
X145246525Y-113186632D01*
X145453368Y-113393475D01*
X145696589Y-113555990D01*
X145966842Y-113667932D01*
X146253740Y-113725000D01*
X146546260Y-113725000D01*
X146833158Y-113667932D01*
X147103411Y-113555990D01*
X147346632Y-113393475D01*
X147540000Y-113200107D01*
X147540000Y-116010856D01*
X147358363Y-115739017D01*
X147060983Y-115441637D01*
X146711302Y-115207988D01*
X146322756Y-115047047D01*
X145910279Y-114965000D01*
X145489721Y-114965000D01*
X145077244Y-115047047D01*
X144688698Y-115207988D01*
X144339017Y-115441637D01*
X144041637Y-115739017D01*
X143807988Y-116088698D01*
X143647047Y-116477244D01*
X143580000Y-116814311D01*
X143580000Y-116507449D01*
X143504870Y-116129748D01*
X143357498Y-115773960D01*
X143143547Y-115453760D01*
X142871240Y-115181453D01*
X142551040Y-114967502D01*
X142195252Y-114820130D01*
X141817551Y-114745000D01*
X141432449Y-114745000D01*
X141424888Y-114746504D01*
X141519443Y-114604992D01*
X141612540Y-114380236D01*
X141660000Y-114141637D01*
X141660000Y-113898363D01*
X141612540Y-113659764D01*
X141519443Y-113435008D01*
X141384287Y-113232733D01*
X141212267Y-113060713D01*
X141009992Y-112925557D01*
X140785236Y-112832460D01*
X140546637Y-112785000D01*
X140303363Y-112785000D01*
X140064764Y-112832460D01*
X139840008Y-112925557D01*
X139637733Y-113060713D01*
X139465713Y-113232733D01*
X139330557Y-113435008D01*
X139237460Y-113659764D01*
X139190000Y-113898363D01*
X139190000Y-114066603D01*
X138998102Y-114104774D01*
X138809744Y-114182795D01*
X138640226Y-114296063D01*
X138496063Y-114440226D01*
X138382795Y-114609744D01*
X138304774Y-114798102D01*
X138265000Y-114998061D01*
X138265000Y-115201939D01*
X138304774Y-115401898D01*
X138382795Y-115590256D01*
X138496063Y-115759774D01*
X138640226Y-115903937D01*
X138809744Y-116017205D01*
X138998102Y-116095226D01*
X139198061Y-116135000D01*
X139401939Y-116135000D01*
X139601898Y-116095226D01*
X139790256Y-116017205D01*
X139792317Y-116015828D01*
X139745130Y-116129748D01*
X139670000Y-116507449D01*
X139670000Y-116892551D01*
X139745130Y-117270252D01*
X139892502Y-117626040D01*
X140106453Y-117946240D01*
X140378760Y-118218547D01*
X140698960Y-118432498D01*
X141054748Y-118579870D01*
X141432449Y-118655000D01*
X141817551Y-118655000D01*
X142195252Y-118579870D01*
X142551040Y-118432498D01*
X142871240Y-118218547D01*
X143143547Y-117946240D01*
X143357498Y-117626040D01*
X143504870Y-117270252D01*
X143565000Y-116967960D01*
X143565000Y-117310279D01*
X143647047Y-117722756D01*
X143807988Y-118111302D01*
X144041637Y-118460983D01*
X144339017Y-118758363D01*
X144610856Y-118940000D01*
X122789144Y-118940000D01*
X123060983Y-118758363D01*
X123358363Y-118460983D01*
X123592012Y-118111302D01*
X123752953Y-117722756D01*
X123797647Y-117498061D01*
X125965000Y-117498061D01*
X125965000Y-117701939D01*
X126004774Y-117901898D01*
X126082795Y-118090256D01*
X126196063Y-118259774D01*
X126340226Y-118403937D01*
X126509744Y-118517205D01*
X126698102Y-118595226D01*
X126898061Y-118635000D01*
X127101939Y-118635000D01*
X127301898Y-118595226D01*
X127490256Y-118517205D01*
X127659774Y-118403937D01*
X127803937Y-118259774D01*
X127917205Y-118090256D01*
X127995226Y-117901898D01*
X128035000Y-117701939D01*
X128035000Y-117498061D01*
X127995226Y-117298102D01*
X127917205Y-117109744D01*
X127803937Y-116940226D01*
X127659774Y-116796063D01*
X127490256Y-116682795D01*
X127301898Y-116604774D01*
X127101939Y-116565000D01*
X126898061Y-116565000D01*
X126698102Y-116604774D01*
X126509744Y-116682795D01*
X126340226Y-116796063D01*
X126196063Y-116940226D01*
X126082795Y-117109744D01*
X126004774Y-117298102D01*
X125965000Y-117498061D01*
X123797647Y-117498061D01*
X123835000Y-117310279D01*
X123835000Y-116889721D01*
X123758962Y-116507449D01*
X132420000Y-116507449D01*
X132420000Y-116892551D01*
X132495130Y-117270252D01*
X132642502Y-117626040D01*
X132856453Y-117946240D01*
X133128760Y-118218547D01*
X133448960Y-118432498D01*
X133804748Y-118579870D01*
X134182449Y-118655000D01*
X134567551Y-118655000D01*
X134945252Y-118579870D01*
X135301040Y-118432498D01*
X135621240Y-118218547D01*
X135893547Y-117946240D01*
X136107498Y-117626040D01*
X136254870Y-117270252D01*
X136330000Y-116892551D01*
X136330000Y-116507449D01*
X136254870Y-116129748D01*
X136107498Y-115773960D01*
X135893547Y-115453760D01*
X135694787Y-115255000D01*
X135696637Y-115255000D01*
X135935236Y-115207540D01*
X136159992Y-115114443D01*
X136362267Y-114979287D01*
X136534287Y-114807267D01*
X136669443Y-114604992D01*
X136762540Y-114380236D01*
X136810000Y-114141637D01*
X136810000Y-113898363D01*
X136762540Y-113659764D01*
X136669443Y-113435008D01*
X136534287Y-113232733D01*
X136362267Y-113060713D01*
X136159992Y-112925557D01*
X135935236Y-112832460D01*
X135696637Y-112785000D01*
X135453363Y-112785000D01*
X135214764Y-112832460D01*
X134990008Y-112925557D01*
X134787733Y-113060713D01*
X134615713Y-113232733D01*
X134480557Y-113435008D01*
X134387460Y-113659764D01*
X134340000Y-113898363D01*
X134340000Y-114141637D01*
X134387460Y-114380236D01*
X134480557Y-114604992D01*
X134575112Y-114746504D01*
X134567551Y-114745000D01*
X134182449Y-114745000D01*
X133804748Y-114820130D01*
X133448960Y-114967502D01*
X133128760Y-115181453D01*
X132856453Y-115453760D01*
X132642502Y-115773960D01*
X132495130Y-116129748D01*
X132420000Y-116507449D01*
X123758962Y-116507449D01*
X123752953Y-116477244D01*
X123592012Y-116088698D01*
X123358363Y-115739017D01*
X123060983Y-115441637D01*
X122711302Y-115207988D01*
X122322756Y-115047047D01*
X121910279Y-114965000D01*
X121489721Y-114965000D01*
X121077244Y-115047047D01*
X120688698Y-115207988D01*
X120339017Y-115441637D01*
X120041637Y-115739017D01*
X119860000Y-116010856D01*
X119860000Y-113200107D01*
X120053368Y-113393475D01*
X120296589Y-113555990D01*
X120566842Y-113667932D01*
X120853740Y-113725000D01*
X121146260Y-113725000D01*
X121433158Y-113667932D01*
X121703411Y-113555990D01*
X121946632Y-113393475D01*
X122153475Y-113186632D01*
X122315990Y-112943411D01*
X122427932Y-112673158D01*
X122485000Y-112386260D01*
X122485000Y-112098061D01*
X124365000Y-112098061D01*
X124365000Y-112301939D01*
X124404774Y-112501898D01*
X124482795Y-112690256D01*
X124596063Y-112859774D01*
X124740226Y-113003937D01*
X124909744Y-113117205D01*
X125098102Y-113195226D01*
X125298061Y-113235000D01*
X125501939Y-113235000D01*
X125701898Y-113195226D01*
X125890256Y-113117205D01*
X126059774Y-113003937D01*
X126203937Y-112859774D01*
X126317205Y-112690256D01*
X126395226Y-112501898D01*
X126435000Y-112301939D01*
X126435000Y-112098061D01*
X126395226Y-111898102D01*
X126317205Y-111709744D01*
X126203937Y-111540226D01*
X126161772Y-111498061D01*
X127865000Y-111498061D01*
X127865000Y-111701939D01*
X127904774Y-111901898D01*
X127982795Y-112090256D01*
X128096063Y-112259774D01*
X128240226Y-112403937D01*
X128409744Y-112517205D01*
X128598102Y-112595226D01*
X128798061Y-112635000D01*
X129001939Y-112635000D01*
X129201898Y-112595226D01*
X129390256Y-112517205D01*
X129494027Y-112447868D01*
X129504774Y-112501898D01*
X129582795Y-112690256D01*
X129696063Y-112859774D01*
X129840226Y-113003937D01*
X130009744Y-113117205D01*
X130198102Y-113195226D01*
X130398061Y-113235000D01*
X130601939Y-113235000D01*
X130801898Y-113195226D01*
X130990256Y-113117205D01*
X131159774Y-113003937D01*
X131303937Y-112859774D01*
X131417205Y-112690256D01*
X131495226Y-112501898D01*
X131535000Y-112301939D01*
X131535000Y-112098061D01*
X131495226Y-111898102D01*
X131417205Y-111709744D01*
X131303937Y-111540226D01*
X131261772Y-111498061D01*
X131765000Y-111498061D01*
X131765000Y-111701939D01*
X131804774Y-111901898D01*
X131882795Y-112090256D01*
X131996063Y-112259774D01*
X132140226Y-112403937D01*
X132309744Y-112517205D01*
X132498102Y-112595226D01*
X132698061Y-112635000D01*
X132901939Y-112635000D01*
X133101898Y-112595226D01*
X133290256Y-112517205D01*
X133459774Y-112403937D01*
X133603937Y-112259774D01*
X133717205Y-112090256D01*
X133795226Y-111901898D01*
X133835000Y-111701939D01*
X133835000Y-111498061D01*
X133795226Y-111298102D01*
X133717205Y-111109744D01*
X133603937Y-110940226D01*
X133561772Y-110898061D01*
X134565000Y-110898061D01*
X134565000Y-111101939D01*
X134604774Y-111301898D01*
X134682795Y-111490256D01*
X134796063Y-111659774D01*
X134940226Y-111803937D01*
X135109744Y-111917205D01*
X135298102Y-111995226D01*
X135498061Y-112035000D01*
X135701939Y-112035000D01*
X135901898Y-111995226D01*
X136090256Y-111917205D01*
X136259774Y-111803937D01*
X136403937Y-111659774D01*
X136517205Y-111490256D01*
X136595226Y-111301898D01*
X136635000Y-111101939D01*
X136635000Y-110898061D01*
X136595226Y-110698102D01*
X136517205Y-110509744D01*
X136403937Y-110340226D01*
X136259774Y-110196063D01*
X136090256Y-110082795D01*
X135901898Y-110004774D01*
X135701939Y-109965000D01*
X135498061Y-109965000D01*
X135298102Y-110004774D01*
X135109744Y-110082795D01*
X134940226Y-110196063D01*
X134796063Y-110340226D01*
X134682795Y-110509744D01*
X134604774Y-110698102D01*
X134565000Y-110898061D01*
X133561772Y-110898061D01*
X133459774Y-110796063D01*
X133290256Y-110682795D01*
X133101898Y-110604774D01*
X132901939Y-110565000D01*
X132698061Y-110565000D01*
X132498102Y-110604774D01*
X132309744Y-110682795D01*
X132140226Y-110796063D01*
X131996063Y-110940226D01*
X131882795Y-111109744D01*
X131804774Y-111298102D01*
X131765000Y-111498061D01*
X131261772Y-111498061D01*
X131159774Y-111396063D01*
X130990256Y-111282795D01*
X130801898Y-111204774D01*
X130601939Y-111165000D01*
X130398061Y-111165000D01*
X130198102Y-111204774D01*
X130009744Y-111282795D01*
X129905973Y-111352132D01*
X129895226Y-111298102D01*
X129817205Y-111109744D01*
X129703937Y-110940226D01*
X129559774Y-110796063D01*
X129390256Y-110682795D01*
X129201898Y-110604774D01*
X129001939Y-110565000D01*
X128798061Y-110565000D01*
X128598102Y-110604774D01*
X128409744Y-110682795D01*
X128240226Y-110796063D01*
X128096063Y-110940226D01*
X127982795Y-111109744D01*
X127904774Y-111298102D01*
X127865000Y-111498061D01*
X126161772Y-111498061D01*
X126059774Y-111396063D01*
X125890256Y-111282795D01*
X125701898Y-111204774D01*
X125501939Y-111165000D01*
X125298061Y-111165000D01*
X125098102Y-111204774D01*
X124909744Y-111282795D01*
X124740226Y-111396063D01*
X124596063Y-111540226D01*
X124482795Y-111709744D01*
X124404774Y-111898102D01*
X124365000Y-112098061D01*
X122485000Y-112098061D01*
X122485000Y-112093740D01*
X122427932Y-111806842D01*
X122315990Y-111536589D01*
X122153475Y-111293368D01*
X121946632Y-111086525D01*
X121764466Y-110964805D01*
X121881355Y-110895178D01*
X122097588Y-110700269D01*
X122271641Y-110466920D01*
X122396825Y-110204099D01*
X122441476Y-110056890D01*
X122320155Y-109827000D01*
X121127000Y-109827000D01*
X121127000Y-109847000D01*
X120873000Y-109847000D01*
X120873000Y-109827000D01*
X120853000Y-109827000D01*
X120853000Y-109573000D01*
X120873000Y-109573000D01*
X120873000Y-109553000D01*
X121127000Y-109553000D01*
X121127000Y-109573000D01*
X122320155Y-109573000D01*
X122441476Y-109343110D01*
X122396825Y-109195901D01*
X122271641Y-108933080D01*
X122097588Y-108699731D01*
X121881355Y-108504822D01*
X121764466Y-108435195D01*
X121946632Y-108313475D01*
X122153475Y-108106632D01*
X122315990Y-107863411D01*
X122427932Y-107593158D01*
X122485000Y-107306260D01*
X122485000Y-107013740D01*
X122427932Y-106726842D01*
X122416011Y-106698061D01*
X122665000Y-106698061D01*
X122665000Y-106901939D01*
X122704774Y-107101898D01*
X122782795Y-107290256D01*
X122896063Y-107459774D01*
X123040226Y-107603937D01*
X123209744Y-107717205D01*
X123398102Y-107795226D01*
X123598061Y-107835000D01*
X123801939Y-107835000D01*
X124001898Y-107795226D01*
X124190256Y-107717205D01*
X124359774Y-107603937D01*
X124503937Y-107459774D01*
X124617205Y-107290256D01*
X124695226Y-107101898D01*
X124735000Y-106901939D01*
X124735000Y-106798061D01*
X124965000Y-106798061D01*
X124965000Y-107001939D01*
X125004774Y-107201898D01*
X125082795Y-107390256D01*
X125196063Y-107559774D01*
X125340226Y-107703937D01*
X125509744Y-107817205D01*
X125698102Y-107895226D01*
X125898061Y-107935000D01*
X126101939Y-107935000D01*
X126301898Y-107895226D01*
X126490256Y-107817205D01*
X126659774Y-107703937D01*
X126803937Y-107559774D01*
X126917205Y-107390256D01*
X126995226Y-107201898D01*
X127035000Y-107001939D01*
X127035000Y-106798061D01*
X126995226Y-106598102D01*
X126917205Y-106409744D01*
X126803937Y-106240226D01*
X126659774Y-106096063D01*
X126490256Y-105982795D01*
X126301898Y-105904774D01*
X126101939Y-105865000D01*
X125898061Y-105865000D01*
X125698102Y-105904774D01*
X125509744Y-105982795D01*
X125340226Y-106096063D01*
X125196063Y-106240226D01*
X125082795Y-106409744D01*
X125004774Y-106598102D01*
X124965000Y-106798061D01*
X124735000Y-106798061D01*
X124735000Y-106698061D01*
X124695226Y-106498102D01*
X124617205Y-106309744D01*
X124503937Y-106140226D01*
X124359774Y-105996063D01*
X124190256Y-105882795D01*
X124001898Y-105804774D01*
X123801939Y-105765000D01*
X123598061Y-105765000D01*
X123398102Y-105804774D01*
X123209744Y-105882795D01*
X123040226Y-105996063D01*
X122896063Y-106140226D01*
X122782795Y-106309744D01*
X122704774Y-106498102D01*
X122665000Y-106698061D01*
X122416011Y-106698061D01*
X122315990Y-106456589D01*
X122153475Y-106213368D01*
X121946632Y-106006525D01*
X121772240Y-105890000D01*
X121946632Y-105773475D01*
X122153475Y-105566632D01*
X122315990Y-105323411D01*
X122427932Y-105053158D01*
X122458782Y-104898061D01*
X127365000Y-104898061D01*
X127365000Y-105101939D01*
X127404774Y-105301898D01*
X127482795Y-105490256D01*
X127596063Y-105659774D01*
X127740226Y-105803937D01*
X127909744Y-105917205D01*
X128098102Y-105995226D01*
X128298061Y-106035000D01*
X128431613Y-106035000D01*
X128340226Y-106096063D01*
X128196063Y-106240226D01*
X128082795Y-106409744D01*
X128004774Y-106598102D01*
X127965000Y-106798061D01*
X127965000Y-107001939D01*
X128004774Y-107201898D01*
X128082795Y-107390256D01*
X128196063Y-107559774D01*
X128340226Y-107703937D01*
X128509744Y-107817205D01*
X128698102Y-107895226D01*
X128898061Y-107935000D01*
X129101939Y-107935000D01*
X129301898Y-107895226D01*
X129490256Y-107817205D01*
X129659774Y-107703937D01*
X129803937Y-107559774D01*
X129911989Y-107398061D01*
X133265000Y-107398061D01*
X133265000Y-107601939D01*
X133304774Y-107801898D01*
X133382795Y-107990256D01*
X133496063Y-108159774D01*
X133640226Y-108303937D01*
X133809744Y-108417205D01*
X133998102Y-108495226D01*
X134198061Y-108535000D01*
X134401939Y-108535000D01*
X134601898Y-108495226D01*
X134790256Y-108417205D01*
X134959774Y-108303937D01*
X135103937Y-108159774D01*
X135217205Y-107990256D01*
X135295226Y-107801898D01*
X135335000Y-107601939D01*
X135335000Y-107398061D01*
X135295226Y-107198102D01*
X135217205Y-107009744D01*
X135103937Y-106840226D01*
X134959774Y-106696063D01*
X134790256Y-106582795D01*
X134601898Y-106504774D01*
X134401939Y-106465000D01*
X134198061Y-106465000D01*
X133998102Y-106504774D01*
X133809744Y-106582795D01*
X133640226Y-106696063D01*
X133496063Y-106840226D01*
X133382795Y-107009744D01*
X133304774Y-107198102D01*
X133265000Y-107398061D01*
X129911989Y-107398061D01*
X129917205Y-107390256D01*
X129995226Y-107201898D01*
X130035000Y-107001939D01*
X130035000Y-106798061D01*
X129995226Y-106598102D01*
X129917205Y-106409744D01*
X129803937Y-106240226D01*
X129659774Y-106096063D01*
X129490256Y-105982795D01*
X129301898Y-105904774D01*
X129101939Y-105865000D01*
X128968387Y-105865000D01*
X129059774Y-105803937D01*
X129115650Y-105748061D01*
X130465000Y-105748061D01*
X130465000Y-105951939D01*
X130504774Y-106151898D01*
X130582795Y-106340256D01*
X130696063Y-106509774D01*
X130840226Y-106653937D01*
X131009744Y-106767205D01*
X131198102Y-106845226D01*
X131398061Y-106885000D01*
X131601939Y-106885000D01*
X131801898Y-106845226D01*
X131990256Y-106767205D01*
X132159774Y-106653937D01*
X132303937Y-106509774D01*
X132417205Y-106340256D01*
X132495226Y-106151898D01*
X132535000Y-105951939D01*
X132535000Y-105748061D01*
X132495226Y-105548102D01*
X132417205Y-105359744D01*
X132309173Y-105198061D01*
X138865000Y-105198061D01*
X138865000Y-105401939D01*
X138904774Y-105601898D01*
X138982795Y-105790256D01*
X139096063Y-105959774D01*
X139240226Y-106103937D01*
X139409744Y-106217205D01*
X139598102Y-106295226D01*
X139765000Y-106328424D01*
X139765000Y-106401939D01*
X139804774Y-106601898D01*
X139882795Y-106790256D01*
X139996063Y-106959774D01*
X140140226Y-107103937D01*
X140309744Y-107217205D01*
X140486418Y-107290386D01*
X140465000Y-107398061D01*
X140465000Y-107601939D01*
X140504774Y-107801898D01*
X140582795Y-107990256D01*
X140696063Y-108159774D01*
X140840226Y-108303937D01*
X141009744Y-108417205D01*
X141198102Y-108495226D01*
X141398061Y-108535000D01*
X141601939Y-108535000D01*
X141801898Y-108495226D01*
X141990256Y-108417205D01*
X142159774Y-108303937D01*
X142303937Y-108159774D01*
X142417205Y-107990256D01*
X142495226Y-107801898D01*
X142535000Y-107601939D01*
X142535000Y-107398061D01*
X142495226Y-107198102D01*
X142417205Y-107009744D01*
X142303937Y-106840226D01*
X142159774Y-106696063D01*
X141990256Y-106582795D01*
X141813582Y-106509614D01*
X141835000Y-106401939D01*
X141835000Y-106198061D01*
X141795226Y-105998102D01*
X141717205Y-105809744D01*
X141603937Y-105640226D01*
X141459774Y-105496063D01*
X141290256Y-105382795D01*
X141101898Y-105304774D01*
X140935000Y-105271576D01*
X140935000Y-105198061D01*
X140895226Y-104998102D01*
X140817205Y-104809744D01*
X140703937Y-104640226D01*
X140559774Y-104496063D01*
X140390256Y-104382795D01*
X140201898Y-104304774D01*
X140001939Y-104265000D01*
X139798061Y-104265000D01*
X139598102Y-104304774D01*
X139409744Y-104382795D01*
X139240226Y-104496063D01*
X139096063Y-104640226D01*
X138982795Y-104809744D01*
X138904774Y-104998102D01*
X138865000Y-105198061D01*
X132309173Y-105198061D01*
X132303937Y-105190226D01*
X132159774Y-105046063D01*
X131990256Y-104932795D01*
X131801898Y-104854774D01*
X131601939Y-104815000D01*
X131398061Y-104815000D01*
X131198102Y-104854774D01*
X131009744Y-104932795D01*
X130840226Y-105046063D01*
X130696063Y-105190226D01*
X130582795Y-105359744D01*
X130504774Y-105548102D01*
X130465000Y-105748061D01*
X129115650Y-105748061D01*
X129203937Y-105659774D01*
X129317205Y-105490256D01*
X129395226Y-105301898D01*
X129435000Y-105101939D01*
X129435000Y-104898061D01*
X129395226Y-104698102D01*
X129317205Y-104509744D01*
X129203937Y-104340226D01*
X129059774Y-104196063D01*
X128890256Y-104082795D01*
X128701898Y-104004774D01*
X128501939Y-103965000D01*
X128298061Y-103965000D01*
X128098102Y-104004774D01*
X127909744Y-104082795D01*
X127740226Y-104196063D01*
X127596063Y-104340226D01*
X127482795Y-104509744D01*
X127404774Y-104698102D01*
X127365000Y-104898061D01*
X122458782Y-104898061D01*
X122485000Y-104766260D01*
X122485000Y-104473740D01*
X122427932Y-104186842D01*
X122315990Y-103916589D01*
X122153475Y-103673368D01*
X121946632Y-103466525D01*
X121772240Y-103350000D01*
X121946632Y-103233475D01*
X122153475Y-103026632D01*
X122172565Y-102998061D01*
X122565000Y-102998061D01*
X122565000Y-103201939D01*
X122604774Y-103401898D01*
X122682795Y-103590256D01*
X122796063Y-103759774D01*
X122940226Y-103903937D01*
X123109744Y-104017205D01*
X123298102Y-104095226D01*
X123498061Y-104135000D01*
X123701939Y-104135000D01*
X123901898Y-104095226D01*
X124090256Y-104017205D01*
X124259774Y-103903937D01*
X124403937Y-103759774D01*
X124517205Y-103590256D01*
X124595226Y-103401898D01*
X124635000Y-103201939D01*
X124635000Y-102998061D01*
X125165000Y-102998061D01*
X125165000Y-103201939D01*
X125204774Y-103401898D01*
X125282795Y-103590256D01*
X125396063Y-103759774D01*
X125540226Y-103903937D01*
X125709744Y-104017205D01*
X125898102Y-104095226D01*
X126098061Y-104135000D01*
X126301939Y-104135000D01*
X126501898Y-104095226D01*
X126690256Y-104017205D01*
X126859774Y-103903937D01*
X127003937Y-103759774D01*
X127117205Y-103590256D01*
X127195226Y-103401898D01*
X127235000Y-103201939D01*
X127235000Y-102998061D01*
X127195226Y-102798102D01*
X127117205Y-102609744D01*
X127003937Y-102440226D01*
X126859774Y-102296063D01*
X126713104Y-102198061D01*
X139965000Y-102198061D01*
X139965000Y-102401939D01*
X140004774Y-102601898D01*
X140082795Y-102790256D01*
X140156123Y-102900000D01*
X140082795Y-103009744D01*
X140004774Y-103198102D01*
X139965000Y-103398061D01*
X139965000Y-103601939D01*
X140004774Y-103801898D01*
X140082795Y-103990256D01*
X140196063Y-104159774D01*
X140340226Y-104303937D01*
X140509744Y-104417205D01*
X140698102Y-104495226D01*
X140898061Y-104535000D01*
X141101939Y-104535000D01*
X141301898Y-104495226D01*
X141490256Y-104417205D01*
X141659774Y-104303937D01*
X141803937Y-104159774D01*
X141917205Y-103990256D01*
X141995226Y-103801898D01*
X142035000Y-103601939D01*
X142035000Y-103398061D01*
X141995226Y-103198102D01*
X141917205Y-103009744D01*
X141843877Y-102900000D01*
X141917205Y-102790256D01*
X141995226Y-102601898D01*
X142035000Y-102401939D01*
X142035000Y-102198061D01*
X141995226Y-101998102D01*
X141917205Y-101809744D01*
X141803937Y-101640226D01*
X141659774Y-101496063D01*
X141490256Y-101382795D01*
X141301898Y-101304774D01*
X141101939Y-101265000D01*
X140898061Y-101265000D01*
X140698102Y-101304774D01*
X140509744Y-101382795D01*
X140340226Y-101496063D01*
X140196063Y-101640226D01*
X140082795Y-101809744D01*
X140004774Y-101998102D01*
X139965000Y-102198061D01*
X126713104Y-102198061D01*
X126690256Y-102182795D01*
X126501898Y-102104774D01*
X126301939Y-102065000D01*
X126098061Y-102065000D01*
X125898102Y-102104774D01*
X125709744Y-102182795D01*
X125540226Y-102296063D01*
X125396063Y-102440226D01*
X125282795Y-102609744D01*
X125204774Y-102798102D01*
X125165000Y-102998061D01*
X124635000Y-102998061D01*
X124595226Y-102798102D01*
X124517205Y-102609744D01*
X124403937Y-102440226D01*
X124259774Y-102296063D01*
X124090256Y-102182795D01*
X123901898Y-102104774D01*
X123701939Y-102065000D01*
X123498061Y-102065000D01*
X123298102Y-102104774D01*
X123109744Y-102182795D01*
X122940226Y-102296063D01*
X122796063Y-102440226D01*
X122682795Y-102609744D01*
X122604774Y-102798102D01*
X122565000Y-102998061D01*
X122172565Y-102998061D01*
X122315990Y-102783411D01*
X122427932Y-102513158D01*
X122485000Y-102226260D01*
X122485000Y-101933740D01*
X122427932Y-101646842D01*
X122315990Y-101376589D01*
X122153475Y-101133368D01*
X121946632Y-100926525D01*
X121772240Y-100810000D01*
X121946632Y-100693475D01*
X122153475Y-100486632D01*
X122315990Y-100243411D01*
X122417616Y-99998061D01*
X126365000Y-99998061D01*
X126365000Y-100201939D01*
X126404774Y-100401898D01*
X126482795Y-100590256D01*
X126596063Y-100759774D01*
X126740226Y-100903937D01*
X126909744Y-101017205D01*
X127098102Y-101095226D01*
X127298061Y-101135000D01*
X127501939Y-101135000D01*
X127701898Y-101095226D01*
X127890256Y-101017205D01*
X128059774Y-100903937D01*
X128203937Y-100759774D01*
X128317205Y-100590256D01*
X128395226Y-100401898D01*
X128435000Y-100201939D01*
X128435000Y-99998061D01*
X128395226Y-99798102D01*
X128317205Y-99609744D01*
X128203937Y-99440226D01*
X128161772Y-99398061D01*
X130465000Y-99398061D01*
X130465000Y-99601939D01*
X130504774Y-99801898D01*
X130582795Y-99990256D01*
X130696063Y-100159774D01*
X130840226Y-100303937D01*
X131009744Y-100417205D01*
X131198102Y-100495226D01*
X131398061Y-100535000D01*
X131601939Y-100535000D01*
X131801898Y-100495226D01*
X131990256Y-100417205D01*
X132159774Y-100303937D01*
X132303937Y-100159774D01*
X132417205Y-99990256D01*
X132495226Y-99801898D01*
X132535000Y-99601939D01*
X132535000Y-99398061D01*
X132495226Y-99198102D01*
X132453788Y-99098061D01*
X134065000Y-99098061D01*
X134065000Y-99301939D01*
X134104774Y-99501898D01*
X134182795Y-99690256D01*
X134296063Y-99859774D01*
X134440226Y-100003937D01*
X134609744Y-100117205D01*
X134798102Y-100195226D01*
X134998061Y-100235000D01*
X135201939Y-100235000D01*
X135401898Y-100195226D01*
X135590256Y-100117205D01*
X135759774Y-100003937D01*
X135903937Y-99859774D01*
X136017205Y-99690256D01*
X136095226Y-99501898D01*
X136135000Y-99301939D01*
X136135000Y-99198061D01*
X138265000Y-99198061D01*
X138265000Y-99401939D01*
X138304774Y-99601898D01*
X138382795Y-99790256D01*
X138496063Y-99959774D01*
X138640226Y-100103937D01*
X138809744Y-100217205D01*
X138998102Y-100295226D01*
X139198061Y-100335000D01*
X139401939Y-100335000D01*
X139601898Y-100295226D01*
X139790256Y-100217205D01*
X139959774Y-100103937D01*
X140103937Y-99959774D01*
X140217205Y-99790256D01*
X140295226Y-99601898D01*
X140335000Y-99401939D01*
X140335000Y-99198061D01*
X140295226Y-98998102D01*
X140217205Y-98809744D01*
X140103937Y-98640226D01*
X139961772Y-98498061D01*
X140765000Y-98498061D01*
X140765000Y-98701939D01*
X140804774Y-98901898D01*
X140882795Y-99090256D01*
X140996063Y-99259774D01*
X141140226Y-99403937D01*
X141309744Y-99517205D01*
X141498102Y-99595226D01*
X141698061Y-99635000D01*
X141901939Y-99635000D01*
X142101898Y-99595226D01*
X142290256Y-99517205D01*
X142459774Y-99403937D01*
X142603937Y-99259774D01*
X142717205Y-99090256D01*
X142795226Y-98901898D01*
X142835000Y-98701939D01*
X142835000Y-98498061D01*
X142795226Y-98298102D01*
X142717205Y-98109744D01*
X142715727Y-98107531D01*
X142747536Y-98059925D01*
X142825557Y-97871567D01*
X142865331Y-97671608D01*
X142865331Y-97467730D01*
X142825557Y-97267771D01*
X142747536Y-97079413D01*
X142634268Y-96909895D01*
X142490105Y-96765732D01*
X142320587Y-96652464D01*
X142132229Y-96574443D01*
X141932270Y-96534669D01*
X141728392Y-96534669D01*
X141528433Y-96574443D01*
X141340075Y-96652464D01*
X141170557Y-96765732D01*
X141026394Y-96909895D01*
X140913126Y-97079413D01*
X140835105Y-97267771D01*
X140795331Y-97467730D01*
X140795331Y-97671608D01*
X140835105Y-97871567D01*
X140913126Y-98059925D01*
X140914604Y-98062138D01*
X140882795Y-98109744D01*
X140804774Y-98298102D01*
X140765000Y-98498061D01*
X139961772Y-98498061D01*
X139959774Y-98496063D01*
X139790256Y-98382795D01*
X139601898Y-98304774D01*
X139401939Y-98265000D01*
X139198061Y-98265000D01*
X138998102Y-98304774D01*
X138809744Y-98382795D01*
X138640226Y-98496063D01*
X138496063Y-98640226D01*
X138382795Y-98809744D01*
X138304774Y-98998102D01*
X138265000Y-99198061D01*
X136135000Y-99198061D01*
X136135000Y-99098061D01*
X136098736Y-98915746D01*
X136201898Y-98895226D01*
X136390256Y-98817205D01*
X136428164Y-98791875D01*
X136440226Y-98803937D01*
X136609744Y-98917205D01*
X136798102Y-98995226D01*
X136998061Y-99035000D01*
X137201939Y-99035000D01*
X137401898Y-98995226D01*
X137590256Y-98917205D01*
X137759774Y-98803937D01*
X137903937Y-98659774D01*
X138017205Y-98490256D01*
X138095226Y-98301898D01*
X138135000Y-98101939D01*
X138135000Y-97898061D01*
X138095226Y-97698102D01*
X138017205Y-97509744D01*
X137903937Y-97340226D01*
X137759774Y-97196063D01*
X137590256Y-97082795D01*
X137401898Y-97004774D01*
X137201939Y-96965000D01*
X136998061Y-96965000D01*
X136798102Y-97004774D01*
X136609744Y-97082795D01*
X136571836Y-97108125D01*
X136559774Y-97096063D01*
X136390256Y-96982795D01*
X136201898Y-96904774D01*
X136001939Y-96865000D01*
X135798061Y-96865000D01*
X135598102Y-96904774D01*
X135409744Y-96982795D01*
X135240226Y-97096063D01*
X135096063Y-97240226D01*
X134982795Y-97409744D01*
X134904774Y-97598102D01*
X134865000Y-97798061D01*
X134865000Y-98001939D01*
X134901264Y-98184254D01*
X134798102Y-98204774D01*
X134609744Y-98282795D01*
X134440226Y-98396063D01*
X134296063Y-98540226D01*
X134182795Y-98709744D01*
X134104774Y-98898102D01*
X134065000Y-99098061D01*
X132453788Y-99098061D01*
X132417205Y-99009744D01*
X132303937Y-98840226D01*
X132159774Y-98696063D01*
X131990256Y-98582795D01*
X131801898Y-98504774D01*
X131601939Y-98465000D01*
X131398061Y-98465000D01*
X131198102Y-98504774D01*
X131009744Y-98582795D01*
X130840226Y-98696063D01*
X130696063Y-98840226D01*
X130582795Y-99009744D01*
X130504774Y-99198102D01*
X130465000Y-99398061D01*
X128161772Y-99398061D01*
X128059774Y-99296063D01*
X127890256Y-99182795D01*
X127701898Y-99104774D01*
X127501939Y-99065000D01*
X127298061Y-99065000D01*
X127098102Y-99104774D01*
X126909744Y-99182795D01*
X126740226Y-99296063D01*
X126596063Y-99440226D01*
X126482795Y-99609744D01*
X126404774Y-99798102D01*
X126365000Y-99998061D01*
X122417616Y-99998061D01*
X122427932Y-99973158D01*
X122485000Y-99686260D01*
X122485000Y-99393740D01*
X122427932Y-99106842D01*
X122315990Y-98836589D01*
X122153475Y-98593368D01*
X121946632Y-98386525D01*
X121772240Y-98270000D01*
X121946632Y-98153475D01*
X122153475Y-97946632D01*
X122315990Y-97703411D01*
X122427932Y-97433158D01*
X122485000Y-97146260D01*
X122485000Y-96853740D01*
X122427932Y-96566842D01*
X122358021Y-96398061D01*
X122765000Y-96398061D01*
X122765000Y-96601939D01*
X122804774Y-96801898D01*
X122882795Y-96990256D01*
X122889306Y-97000000D01*
X122882795Y-97009744D01*
X122804774Y-97198102D01*
X122765000Y-97398061D01*
X122765000Y-97601939D01*
X122804774Y-97801898D01*
X122882795Y-97990256D01*
X122996063Y-98159774D01*
X123140226Y-98303937D01*
X123309744Y-98417205D01*
X123498102Y-98495226D01*
X123698061Y-98535000D01*
X123901939Y-98535000D01*
X124101898Y-98495226D01*
X124290256Y-98417205D01*
X124459774Y-98303937D01*
X124603937Y-98159774D01*
X124717205Y-97990256D01*
X124795226Y-97801898D01*
X124835000Y-97601939D01*
X124835000Y-97398061D01*
X124795226Y-97198102D01*
X124717205Y-97009744D01*
X124710694Y-97000000D01*
X124717205Y-96990256D01*
X124795226Y-96801898D01*
X124835000Y-96601939D01*
X124835000Y-96398061D01*
X124795226Y-96198102D01*
X124766487Y-96128720D01*
X124798061Y-96135000D01*
X125001939Y-96135000D01*
X125201898Y-96095226D01*
X125388025Y-96018129D01*
X125280682Y-96178780D01*
X125202661Y-96367138D01*
X125162887Y-96567097D01*
X125162887Y-96770975D01*
X125202661Y-96970934D01*
X125280682Y-97159292D01*
X125393950Y-97328810D01*
X125538113Y-97472973D01*
X125707631Y-97586241D01*
X125895989Y-97664262D01*
X126095948Y-97704036D01*
X126299826Y-97704036D01*
X126499785Y-97664262D01*
X126688143Y-97586241D01*
X126857661Y-97472973D01*
X127001824Y-97328810D01*
X127115092Y-97159292D01*
X127193113Y-96970934D01*
X127232887Y-96770975D01*
X127232887Y-96567097D01*
X127193113Y-96367138D01*
X127164501Y-96298061D01*
X130765000Y-96298061D01*
X130765000Y-96501939D01*
X130804774Y-96701898D01*
X130882795Y-96890256D01*
X130996063Y-97059774D01*
X131140226Y-97203937D01*
X131309744Y-97317205D01*
X131498102Y-97395226D01*
X131698061Y-97435000D01*
X131901939Y-97435000D01*
X132101898Y-97395226D01*
X132290256Y-97317205D01*
X132459774Y-97203937D01*
X132603937Y-97059774D01*
X132717205Y-96890256D01*
X132795226Y-96701898D01*
X132835000Y-96501939D01*
X132835000Y-96298061D01*
X132795226Y-96098102D01*
X132717205Y-95909744D01*
X132603937Y-95740226D01*
X132459774Y-95596063D01*
X132290256Y-95482795D01*
X132101898Y-95404774D01*
X132068150Y-95398061D01*
X134765000Y-95398061D01*
X134765000Y-95601939D01*
X134804774Y-95801898D01*
X134882795Y-95990256D01*
X134996063Y-96159774D01*
X135140226Y-96303937D01*
X135309744Y-96417205D01*
X135498102Y-96495226D01*
X135698061Y-96535000D01*
X135901939Y-96535000D01*
X136101898Y-96495226D01*
X136290256Y-96417205D01*
X136459774Y-96303937D01*
X136603937Y-96159774D01*
X136717205Y-95990256D01*
X136795226Y-95801898D01*
X136835000Y-95601939D01*
X136835000Y-95398061D01*
X136795226Y-95198102D01*
X136717205Y-95009744D01*
X136603937Y-94840226D01*
X136459774Y-94696063D01*
X136290256Y-94582795D01*
X136101898Y-94504774D01*
X135901939Y-94465000D01*
X135698061Y-94465000D01*
X135498102Y-94504774D01*
X135309744Y-94582795D01*
X135140226Y-94696063D01*
X134996063Y-94840226D01*
X134882795Y-95009744D01*
X134804774Y-95198102D01*
X134765000Y-95398061D01*
X132068150Y-95398061D01*
X131901939Y-95365000D01*
X131698061Y-95365000D01*
X131498102Y-95404774D01*
X131309744Y-95482795D01*
X131140226Y-95596063D01*
X130996063Y-95740226D01*
X130882795Y-95909744D01*
X130804774Y-96098102D01*
X130765000Y-96298061D01*
X127164501Y-96298061D01*
X127115092Y-96178780D01*
X127001824Y-96009262D01*
X126857661Y-95865099D01*
X126688143Y-95751831D01*
X126499785Y-95673810D01*
X126299826Y-95634036D01*
X126095948Y-95634036D01*
X125895989Y-95673810D01*
X125709862Y-95750907D01*
X125817205Y-95590256D01*
X125895226Y-95401898D01*
X125935000Y-95201939D01*
X125935000Y-94998061D01*
X125895226Y-94798102D01*
X125817205Y-94609744D01*
X125703937Y-94440226D01*
X125559774Y-94296063D01*
X125390256Y-94182795D01*
X125201898Y-94104774D01*
X125001939Y-94065000D01*
X124798061Y-94065000D01*
X124598102Y-94104774D01*
X124409744Y-94182795D01*
X124240226Y-94296063D01*
X124096063Y-94440226D01*
X123982795Y-94609744D01*
X123904774Y-94798102D01*
X123865000Y-94998061D01*
X123865000Y-95201939D01*
X123904774Y-95401898D01*
X123933513Y-95471280D01*
X123901939Y-95465000D01*
X123698061Y-95465000D01*
X123498102Y-95504774D01*
X123309744Y-95582795D01*
X123140226Y-95696063D01*
X122996063Y-95840226D01*
X122882795Y-96009744D01*
X122804774Y-96198102D01*
X122765000Y-96398061D01*
X122358021Y-96398061D01*
X122315990Y-96296589D01*
X122153475Y-96053368D01*
X121946632Y-95846525D01*
X121772240Y-95730000D01*
X121946632Y-95613475D01*
X122153475Y-95406632D01*
X122315990Y-95163411D01*
X122427932Y-94893158D01*
X122485000Y-94606260D01*
X122485000Y-94313740D01*
X122427932Y-94026842D01*
X122315990Y-93756589D01*
X122153475Y-93513368D01*
X121946632Y-93306525D01*
X121772240Y-93190000D01*
X121946632Y-93073475D01*
X122122046Y-92898061D01*
X135865000Y-92898061D01*
X135865000Y-93101939D01*
X135904774Y-93301898D01*
X135982795Y-93490256D01*
X136096063Y-93659774D01*
X136240226Y-93803937D01*
X136409744Y-93917205D01*
X136598102Y-93995226D01*
X136798061Y-94035000D01*
X137001939Y-94035000D01*
X137201898Y-93995226D01*
X137390256Y-93917205D01*
X137450000Y-93877285D01*
X137509744Y-93917205D01*
X137698102Y-93995226D01*
X137898061Y-94035000D01*
X138101939Y-94035000D01*
X138301898Y-93995226D01*
X138490256Y-93917205D01*
X138659774Y-93803937D01*
X138803937Y-93659774D01*
X138917205Y-93490256D01*
X138995226Y-93301898D01*
X139035000Y-93101939D01*
X139035000Y-92898061D01*
X138995226Y-92698102D01*
X138917205Y-92509744D01*
X138803937Y-92340226D01*
X138659774Y-92196063D01*
X138490256Y-92082795D01*
X138301898Y-92004774D01*
X138101939Y-91965000D01*
X137898061Y-91965000D01*
X137698102Y-92004774D01*
X137509744Y-92082795D01*
X137450000Y-92122715D01*
X137390256Y-92082795D01*
X137201898Y-92004774D01*
X137001939Y-91965000D01*
X136798061Y-91965000D01*
X136598102Y-92004774D01*
X136409744Y-92082795D01*
X136240226Y-92196063D01*
X136096063Y-92340226D01*
X135982795Y-92509744D01*
X135904774Y-92698102D01*
X135865000Y-92898061D01*
X122122046Y-92898061D01*
X122153475Y-92866632D01*
X122315990Y-92623411D01*
X122427932Y-92353158D01*
X122485000Y-92066260D01*
X122485000Y-91773740D01*
X122427932Y-91486842D01*
X122315990Y-91216589D01*
X122303610Y-91198061D01*
X127064989Y-91198061D01*
X127064989Y-91401939D01*
X127104763Y-91601898D01*
X127182784Y-91790256D01*
X127296052Y-91959774D01*
X127440215Y-92103937D01*
X127609733Y-92217205D01*
X127798091Y-92295226D01*
X127998050Y-92335000D01*
X128201928Y-92335000D01*
X128401887Y-92295226D01*
X128590245Y-92217205D01*
X128759763Y-92103937D01*
X128903926Y-91959774D01*
X129017194Y-91790256D01*
X129095215Y-91601898D01*
X129134989Y-91401939D01*
X129134989Y-91198061D01*
X129095215Y-90998102D01*
X129017194Y-90809744D01*
X128903926Y-90640226D01*
X128761761Y-90498061D01*
X134265000Y-90498061D01*
X134265000Y-90701939D01*
X134304774Y-90901898D01*
X134382795Y-91090256D01*
X134496063Y-91259774D01*
X134640226Y-91403937D01*
X134809744Y-91517205D01*
X134998102Y-91595226D01*
X135198061Y-91635000D01*
X135401939Y-91635000D01*
X135601898Y-91595226D01*
X135790256Y-91517205D01*
X135800000Y-91510694D01*
X135809744Y-91517205D01*
X135998102Y-91595226D01*
X136198061Y-91635000D01*
X136401939Y-91635000D01*
X136601898Y-91595226D01*
X136790256Y-91517205D01*
X136959774Y-91403937D01*
X137103937Y-91259774D01*
X137140931Y-91204408D01*
X137309744Y-91317205D01*
X137498102Y-91395226D01*
X137698061Y-91435000D01*
X137901939Y-91435000D01*
X138101898Y-91395226D01*
X138290256Y-91317205D01*
X138459774Y-91203937D01*
X138603937Y-91059774D01*
X138717205Y-90890256D01*
X138795226Y-90701898D01*
X138835000Y-90501939D01*
X138835000Y-90298061D01*
X138831692Y-90281426D01*
X139437295Y-90281426D01*
X139437295Y-90485304D01*
X139477069Y-90685263D01*
X139555090Y-90873621D01*
X139668358Y-91043139D01*
X139812521Y-91187302D01*
X139982039Y-91300570D01*
X140170397Y-91378591D01*
X140370356Y-91418365D01*
X140574234Y-91418365D01*
X140774193Y-91378591D01*
X140962551Y-91300570D01*
X141132069Y-91187302D01*
X141276232Y-91043139D01*
X141389500Y-90873621D01*
X141467521Y-90685263D01*
X141507295Y-90485304D01*
X141507295Y-90281426D01*
X141467521Y-90081467D01*
X141389500Y-89893109D01*
X141276232Y-89723591D01*
X141132069Y-89579428D01*
X140962551Y-89466160D01*
X140774193Y-89388139D01*
X140574234Y-89348365D01*
X140370356Y-89348365D01*
X140170397Y-89388139D01*
X139982039Y-89466160D01*
X139812521Y-89579428D01*
X139668358Y-89723591D01*
X139555090Y-89893109D01*
X139477069Y-90081467D01*
X139437295Y-90281426D01*
X138831692Y-90281426D01*
X138795226Y-90098102D01*
X138717205Y-89909744D01*
X138603937Y-89740226D01*
X138459774Y-89596063D01*
X138290256Y-89482795D01*
X138101898Y-89404774D01*
X137901939Y-89365000D01*
X137698061Y-89365000D01*
X137498102Y-89404774D01*
X137309744Y-89482795D01*
X137140226Y-89596063D01*
X136996063Y-89740226D01*
X136959069Y-89795592D01*
X136790256Y-89682795D01*
X136601898Y-89604774D01*
X136401939Y-89565000D01*
X136198061Y-89565000D01*
X135998102Y-89604774D01*
X135809744Y-89682795D01*
X135800000Y-89689306D01*
X135790256Y-89682795D01*
X135601898Y-89604774D01*
X135401939Y-89565000D01*
X135198061Y-89565000D01*
X134998102Y-89604774D01*
X134809744Y-89682795D01*
X134640226Y-89796063D01*
X134496063Y-89940226D01*
X134382795Y-90109744D01*
X134304774Y-90298102D01*
X134265000Y-90498061D01*
X128761761Y-90498061D01*
X128759763Y-90496063D01*
X128590245Y-90382795D01*
X128401887Y-90304774D01*
X128201928Y-90265000D01*
X127998050Y-90265000D01*
X127798091Y-90304774D01*
X127609733Y-90382795D01*
X127440215Y-90496063D01*
X127296052Y-90640226D01*
X127182784Y-90809744D01*
X127104763Y-90998102D01*
X127064989Y-91198061D01*
X122303610Y-91198061D01*
X122153475Y-90973368D01*
X121946632Y-90766525D01*
X121772240Y-90650000D01*
X121946632Y-90533475D01*
X122153475Y-90326632D01*
X122315990Y-90083411D01*
X122427932Y-89813158D01*
X122485000Y-89526260D01*
X122485000Y-89233740D01*
X122427932Y-88946842D01*
X122315990Y-88676589D01*
X122153475Y-88433368D01*
X121946632Y-88226525D01*
X121772240Y-88110000D01*
X121946632Y-87993475D01*
X122153475Y-87786632D01*
X122265000Y-87619723D01*
X122265000Y-87691939D01*
X122304774Y-87891898D01*
X122382795Y-88080256D01*
X122496063Y-88249774D01*
X122640226Y-88393937D01*
X122809744Y-88507205D01*
X122998102Y-88585226D01*
X123198061Y-88625000D01*
X123401939Y-88625000D01*
X123601898Y-88585226D01*
X123790256Y-88507205D01*
X123959774Y-88393937D01*
X124103937Y-88249774D01*
X124217205Y-88080256D01*
X124295226Y-87891898D01*
X124304217Y-87846695D01*
X124409744Y-87917205D01*
X124598102Y-87995226D01*
X124798061Y-88035000D01*
X125001939Y-88035000D01*
X125201898Y-87995226D01*
X125390256Y-87917205D01*
X125559774Y-87803937D01*
X125681055Y-87682656D01*
X125704774Y-87801898D01*
X125782795Y-87990256D01*
X125881285Y-88137658D01*
X125801898Y-88104774D01*
X125601939Y-88065000D01*
X125398061Y-88065000D01*
X125198102Y-88104774D01*
X125009744Y-88182795D01*
X124840226Y-88296063D01*
X124696063Y-88440226D01*
X124582795Y-88609744D01*
X124504774Y-88798102D01*
X124465000Y-88998061D01*
X124465000Y-89059907D01*
X124409744Y-89082795D01*
X124240226Y-89196063D01*
X124148056Y-89288233D01*
X123990256Y-89182795D01*
X123801898Y-89104774D01*
X123601939Y-89065000D01*
X123398061Y-89065000D01*
X123198102Y-89104774D01*
X123009744Y-89182795D01*
X122840226Y-89296063D01*
X122696063Y-89440226D01*
X122582795Y-89609744D01*
X122504774Y-89798102D01*
X122465000Y-89998061D01*
X122465000Y-90201939D01*
X122504774Y-90401898D01*
X122582795Y-90590256D01*
X122696063Y-90759774D01*
X122840226Y-90903937D01*
X123009744Y-91017205D01*
X123198102Y-91095226D01*
X123398061Y-91135000D01*
X123601939Y-91135000D01*
X123801898Y-91095226D01*
X123990256Y-91017205D01*
X124159774Y-90903937D01*
X124251944Y-90811767D01*
X124409744Y-90917205D01*
X124598102Y-90995226D01*
X124798061Y-91035000D01*
X125001939Y-91035000D01*
X125201898Y-90995226D01*
X125390256Y-90917205D01*
X125559774Y-90803937D01*
X125703937Y-90659774D01*
X125817205Y-90490256D01*
X125895226Y-90301898D01*
X125935000Y-90101939D01*
X125935000Y-90040093D01*
X125990256Y-90017205D01*
X126159774Y-89903937D01*
X126303937Y-89759774D01*
X126417205Y-89590256D01*
X126495226Y-89401898D01*
X126530798Y-89223060D01*
X129465000Y-89223060D01*
X129465000Y-89426938D01*
X129504774Y-89626897D01*
X129582795Y-89815255D01*
X129696063Y-89984773D01*
X129840226Y-90128936D01*
X130009744Y-90242204D01*
X130198102Y-90320225D01*
X130398061Y-90359999D01*
X130601939Y-90359999D01*
X130801898Y-90320225D01*
X130990256Y-90242204D01*
X131159774Y-90128936D01*
X131303937Y-89984773D01*
X131417205Y-89815255D01*
X131495226Y-89626897D01*
X131535000Y-89426938D01*
X131535000Y-89223060D01*
X131495226Y-89023101D01*
X131417205Y-88834743D01*
X131303937Y-88665225D01*
X131159774Y-88521062D01*
X130990256Y-88407794D01*
X130801898Y-88329773D01*
X130601939Y-88289999D01*
X130398061Y-88289999D01*
X130198102Y-88329773D01*
X130009744Y-88407794D01*
X129840226Y-88521062D01*
X129696063Y-88665225D01*
X129582795Y-88834743D01*
X129504774Y-89023101D01*
X129465000Y-89223060D01*
X126530798Y-89223060D01*
X126535000Y-89201939D01*
X126535000Y-88998061D01*
X126495226Y-88798102D01*
X126417205Y-88609744D01*
X126318715Y-88462342D01*
X126398102Y-88495226D01*
X126598061Y-88535000D01*
X126801939Y-88535000D01*
X127001898Y-88495226D01*
X127190256Y-88417205D01*
X127359774Y-88303937D01*
X127503937Y-88159774D01*
X127617205Y-87990256D01*
X127695226Y-87801898D01*
X127735000Y-87601939D01*
X127735000Y-87398061D01*
X127695226Y-87198102D01*
X127624920Y-87028370D01*
X127717205Y-86890256D01*
X127795226Y-86701898D01*
X127835000Y-86501939D01*
X127835000Y-86422456D01*
X127898061Y-86435000D01*
X128101939Y-86435000D01*
X128301898Y-86395226D01*
X128490256Y-86317205D01*
X128659774Y-86203937D01*
X128735739Y-86127972D01*
X128898102Y-86195226D01*
X129098061Y-86235000D01*
X129301939Y-86235000D01*
X129501898Y-86195226D01*
X129690256Y-86117205D01*
X129859774Y-86003937D01*
X130003937Y-85859774D01*
X130117205Y-85690256D01*
X130195226Y-85501898D01*
X130235000Y-85301939D01*
X130235000Y-85298061D01*
X137065000Y-85298061D01*
X137065000Y-85501939D01*
X137104774Y-85701898D01*
X137182795Y-85890256D01*
X137296063Y-86059774D01*
X137440226Y-86203937D01*
X137609744Y-86317205D01*
X137798102Y-86395226D01*
X137998061Y-86435000D01*
X138201939Y-86435000D01*
X138401898Y-86395226D01*
X138590256Y-86317205D01*
X138618907Y-86298061D01*
X139565000Y-86298061D01*
X139565000Y-86501939D01*
X139604774Y-86701898D01*
X139682795Y-86890256D01*
X139796063Y-87059774D01*
X139940226Y-87203937D01*
X140109744Y-87317205D01*
X140298102Y-87395226D01*
X140498061Y-87435000D01*
X140701939Y-87435000D01*
X140852786Y-87404995D01*
X140782795Y-87509744D01*
X140704774Y-87698102D01*
X140665000Y-87898061D01*
X140665000Y-88101939D01*
X140704774Y-88301898D01*
X140782795Y-88490256D01*
X140896063Y-88659774D01*
X141040226Y-88803937D01*
X141209744Y-88917205D01*
X141398102Y-88995226D01*
X141598061Y-89035000D01*
X141801939Y-89035000D01*
X142001898Y-88995226D01*
X142190256Y-88917205D01*
X142359774Y-88803937D01*
X142503937Y-88659774D01*
X142617205Y-88490256D01*
X142695226Y-88301898D01*
X142735000Y-88101939D01*
X142735000Y-87898061D01*
X142695226Y-87698102D01*
X142617205Y-87509744D01*
X142503937Y-87340226D01*
X142359774Y-87196063D01*
X142190256Y-87082795D01*
X142001898Y-87004774D01*
X141801939Y-86965000D01*
X141598061Y-86965000D01*
X141447214Y-86995005D01*
X141517205Y-86890256D01*
X141595226Y-86701898D01*
X141635000Y-86501939D01*
X141635000Y-86298061D01*
X141595226Y-86098102D01*
X141517205Y-85909744D01*
X141403937Y-85740226D01*
X141259774Y-85596063D01*
X141134614Y-85512434D01*
X141248061Y-85535000D01*
X141451939Y-85535000D01*
X141651898Y-85495226D01*
X141840256Y-85417205D01*
X142009774Y-85303937D01*
X142153937Y-85159774D01*
X142267205Y-84990256D01*
X142345226Y-84801898D01*
X142385000Y-84601939D01*
X142385000Y-84398061D01*
X142345226Y-84198102D01*
X142267205Y-84009744D01*
X142160468Y-83850000D01*
X142267205Y-83690256D01*
X142345226Y-83501898D01*
X142385000Y-83301939D01*
X142385000Y-83098061D01*
X142345226Y-82898102D01*
X142267205Y-82709744D01*
X142193877Y-82600000D01*
X142267205Y-82490256D01*
X142345226Y-82301898D01*
X142385000Y-82101939D01*
X142385000Y-81898061D01*
X142345226Y-81698102D01*
X142267205Y-81509744D01*
X142153937Y-81340226D01*
X142009774Y-81196063D01*
X141840256Y-81082795D01*
X141651898Y-81004774D01*
X141451939Y-80965000D01*
X141248061Y-80965000D01*
X141048102Y-81004774D01*
X140859744Y-81082795D01*
X140690226Y-81196063D01*
X140546063Y-81340226D01*
X140432795Y-81509744D01*
X140354774Y-81698102D01*
X140315000Y-81898061D01*
X140315000Y-82101939D01*
X140354774Y-82301898D01*
X140432795Y-82490256D01*
X140506123Y-82600000D01*
X140432795Y-82709744D01*
X140354774Y-82898102D01*
X140315000Y-83098061D01*
X140315000Y-83301939D01*
X140354774Y-83501898D01*
X140432795Y-83690256D01*
X140539532Y-83850000D01*
X140432795Y-84009744D01*
X140354774Y-84198102D01*
X140315000Y-84398061D01*
X140315000Y-84601939D01*
X140354774Y-84801898D01*
X140432795Y-84990256D01*
X140546063Y-85159774D01*
X140690226Y-85303937D01*
X140815386Y-85387566D01*
X140701939Y-85365000D01*
X140498061Y-85365000D01*
X140298102Y-85404774D01*
X140109744Y-85482795D01*
X139940226Y-85596063D01*
X139796063Y-85740226D01*
X139682795Y-85909744D01*
X139604774Y-86098102D01*
X139565000Y-86298061D01*
X138618907Y-86298061D01*
X138759774Y-86203937D01*
X138903937Y-86059774D01*
X139017205Y-85890256D01*
X139095226Y-85701898D01*
X139135000Y-85501939D01*
X139135000Y-85298061D01*
X139095226Y-85098102D01*
X139017205Y-84909744D01*
X138903937Y-84740226D01*
X138759774Y-84596063D01*
X138590256Y-84482795D01*
X138401898Y-84404774D01*
X138201939Y-84365000D01*
X137998061Y-84365000D01*
X137798102Y-84404774D01*
X137609744Y-84482795D01*
X137440226Y-84596063D01*
X137296063Y-84740226D01*
X137182795Y-84909744D01*
X137104774Y-85098102D01*
X137065000Y-85298061D01*
X130235000Y-85298061D01*
X130235000Y-85098061D01*
X130195226Y-84898102D01*
X130117205Y-84709744D01*
X130003937Y-84540226D01*
X129859774Y-84396063D01*
X129690256Y-84282795D01*
X129501898Y-84204774D01*
X129301939Y-84165000D01*
X129098061Y-84165000D01*
X128898102Y-84204774D01*
X128709744Y-84282795D01*
X128540226Y-84396063D01*
X128464261Y-84472028D01*
X128301898Y-84404774D01*
X128125708Y-84369728D01*
X128195226Y-84201898D01*
X128235000Y-84001939D01*
X128235000Y-83908533D01*
X128301898Y-83895226D01*
X128490256Y-83817205D01*
X128659774Y-83703937D01*
X128803937Y-83559774D01*
X128917205Y-83390256D01*
X128995226Y-83201898D01*
X129028424Y-83035000D01*
X129201939Y-83035000D01*
X129401898Y-82995226D01*
X129590256Y-82917205D01*
X129759774Y-82803937D01*
X129811890Y-82751821D01*
X129909744Y-82817205D01*
X130098102Y-82895226D01*
X130298061Y-82935000D01*
X130501939Y-82935000D01*
X130701898Y-82895226D01*
X130890256Y-82817205D01*
X131059774Y-82703937D01*
X131072758Y-82690953D01*
X134057892Y-82690953D01*
X134057892Y-82894831D01*
X134097666Y-83094790D01*
X134175687Y-83283148D01*
X134288955Y-83452666D01*
X134433118Y-83596829D01*
X134602636Y-83710097D01*
X134790994Y-83788118D01*
X134802488Y-83790404D01*
X134804774Y-83801898D01*
X134882795Y-83990256D01*
X134996063Y-84159774D01*
X135140226Y-84303937D01*
X135309744Y-84417205D01*
X135498102Y-84495226D01*
X135698061Y-84535000D01*
X135901939Y-84535000D01*
X136101898Y-84495226D01*
X136290256Y-84417205D01*
X136459774Y-84303937D01*
X136603937Y-84159774D01*
X136717205Y-83990256D01*
X136795226Y-83801898D01*
X136835000Y-83601939D01*
X136835000Y-83398061D01*
X136795226Y-83198102D01*
X136717205Y-83009744D01*
X136603937Y-82840226D01*
X136459774Y-82696063D01*
X136290256Y-82582795D01*
X136101898Y-82504774D01*
X136090404Y-82502488D01*
X136088118Y-82490994D01*
X136010097Y-82302636D01*
X135896829Y-82133118D01*
X135752666Y-81988955D01*
X135583148Y-81875687D01*
X135394790Y-81797666D01*
X135194831Y-81757892D01*
X134990953Y-81757892D01*
X134790994Y-81797666D01*
X134602636Y-81875687D01*
X134433118Y-81988955D01*
X134288955Y-82133118D01*
X134175687Y-82302636D01*
X134097666Y-82490994D01*
X134057892Y-82690953D01*
X131072758Y-82690953D01*
X131203937Y-82559774D01*
X131317205Y-82390256D01*
X131395226Y-82201898D01*
X131435000Y-82001939D01*
X131435000Y-81798061D01*
X131395226Y-81598102D01*
X131317205Y-81409744D01*
X131203937Y-81240226D01*
X131059774Y-81096063D01*
X130890256Y-80982795D01*
X130701898Y-80904774D01*
X130501939Y-80865000D01*
X130298061Y-80865000D01*
X130098102Y-80904774D01*
X129909744Y-80982795D01*
X129740226Y-81096063D01*
X129688110Y-81148179D01*
X129590256Y-81082795D01*
X129401898Y-81004774D01*
X129201939Y-80965000D01*
X128998061Y-80965000D01*
X128798102Y-81004774D01*
X128609744Y-81082795D01*
X128440226Y-81196063D01*
X128296063Y-81340226D01*
X128182795Y-81509744D01*
X128104774Y-81698102D01*
X128071576Y-81865000D01*
X127898061Y-81865000D01*
X127698102Y-81904774D01*
X127509744Y-81982795D01*
X127340226Y-82096063D01*
X127196063Y-82240226D01*
X127082795Y-82409744D01*
X127004774Y-82598102D01*
X126965000Y-82798061D01*
X126965000Y-82891467D01*
X126898102Y-82904774D01*
X126709744Y-82982795D01*
X126540226Y-83096063D01*
X126396063Y-83240226D01*
X126282795Y-83409744D01*
X126204774Y-83598102D01*
X126165000Y-83798061D01*
X126165000Y-84001939D01*
X126204774Y-84201898D01*
X126282795Y-84390256D01*
X126396063Y-84559774D01*
X126540226Y-84703937D01*
X126709744Y-84817205D01*
X126898102Y-84895226D01*
X127074292Y-84930272D01*
X127004774Y-85098102D01*
X126965000Y-85298061D01*
X126965000Y-85377544D01*
X126901939Y-85365000D01*
X126698061Y-85365000D01*
X126498102Y-85404774D01*
X126309744Y-85482795D01*
X126140226Y-85596063D01*
X125996063Y-85740226D01*
X125882795Y-85909744D01*
X125804774Y-86098102D01*
X125765000Y-86298061D01*
X125765000Y-86431613D01*
X125703937Y-86340226D01*
X125559774Y-86196063D01*
X125390256Y-86082795D01*
X125201898Y-86004774D01*
X125001939Y-85965000D01*
X124798061Y-85965000D01*
X124598102Y-86004774D01*
X124409744Y-86082795D01*
X124240226Y-86196063D01*
X124096063Y-86340226D01*
X123982795Y-86509744D01*
X123904774Y-86698102D01*
X123895783Y-86743305D01*
X123790256Y-86672795D01*
X123601898Y-86594774D01*
X123401939Y-86555000D01*
X123198061Y-86555000D01*
X122998102Y-86594774D01*
X122809744Y-86672795D01*
X122640226Y-86786063D01*
X122496063Y-86930226D01*
X122485000Y-86946783D01*
X122485000Y-86693740D01*
X122427932Y-86406842D01*
X122315990Y-86136589D01*
X122153475Y-85893368D01*
X121946632Y-85686525D01*
X121772240Y-85570000D01*
X121946632Y-85453475D01*
X122153475Y-85246632D01*
X122315990Y-85003411D01*
X122418400Y-84756171D01*
X122509744Y-84817205D01*
X122698102Y-84895226D01*
X122898061Y-84935000D01*
X123101939Y-84935000D01*
X123301898Y-84895226D01*
X123490256Y-84817205D01*
X123659774Y-84703937D01*
X123803937Y-84559774D01*
X123917205Y-84390256D01*
X123995226Y-84201898D01*
X124035000Y-84001939D01*
X124035000Y-83798061D01*
X123995226Y-83598102D01*
X123917205Y-83409744D01*
X123911884Y-83401780D01*
X123924373Y-83383088D01*
X124002394Y-83194730D01*
X124042168Y-82994771D01*
X124042168Y-82790893D01*
X124002394Y-82590934D01*
X123924373Y-82402576D01*
X123811105Y-82233058D01*
X123666942Y-82088895D01*
X123497424Y-81975627D01*
X123309066Y-81897606D01*
X123109107Y-81857832D01*
X122905229Y-81857832D01*
X122705270Y-81897606D01*
X122516912Y-81975627D01*
X122464195Y-82010851D01*
X122485000Y-81906260D01*
X122485000Y-81613740D01*
X122427932Y-81326842D01*
X122315990Y-81056589D01*
X122153475Y-80813368D01*
X121946632Y-80606525D01*
X121933965Y-80598061D01*
X138665000Y-80598061D01*
X138665000Y-80801939D01*
X138704774Y-81001898D01*
X138782795Y-81190256D01*
X138896063Y-81359774D01*
X139040226Y-81503937D01*
X139209744Y-81617205D01*
X139398102Y-81695226D01*
X139598061Y-81735000D01*
X139801939Y-81735000D01*
X140001898Y-81695226D01*
X140190256Y-81617205D01*
X140359774Y-81503937D01*
X140503937Y-81359774D01*
X140617205Y-81190256D01*
X140695226Y-81001898D01*
X140735000Y-80801939D01*
X140735000Y-80598061D01*
X140715109Y-80498061D01*
X142365000Y-80498061D01*
X142365000Y-80701939D01*
X142404774Y-80901898D01*
X142482795Y-81090256D01*
X142596063Y-81259774D01*
X142740226Y-81403937D01*
X142767443Y-81422122D01*
X142765002Y-81434392D01*
X142765002Y-81638270D01*
X142804776Y-81838229D01*
X142882797Y-82026587D01*
X142996065Y-82196105D01*
X143140228Y-82340268D01*
X143309746Y-82453536D01*
X143498104Y-82531557D01*
X143698063Y-82571331D01*
X143901941Y-82571331D01*
X144101900Y-82531557D01*
X144290258Y-82453536D01*
X144459776Y-82340268D01*
X144603939Y-82196105D01*
X144717207Y-82026587D01*
X144795228Y-81838229D01*
X144835002Y-81638270D01*
X144835002Y-81434392D01*
X144795228Y-81234433D01*
X144717207Y-81046075D01*
X144603939Y-80876557D01*
X144459776Y-80732394D01*
X144432559Y-80714209D01*
X144435000Y-80701939D01*
X144435000Y-80498061D01*
X144395226Y-80298102D01*
X144345740Y-80178633D01*
X144362892Y-80161481D01*
X144476160Y-79991963D01*
X144554181Y-79803605D01*
X144593955Y-79603646D01*
X144593955Y-79399768D01*
X144554181Y-79199809D01*
X144476160Y-79011451D01*
X144466587Y-78997124D01*
X144603937Y-78859774D01*
X144717205Y-78690256D01*
X144795226Y-78501898D01*
X144835000Y-78301939D01*
X144835000Y-78098061D01*
X144795226Y-77898102D01*
X144717205Y-77709744D01*
X144603937Y-77540226D01*
X144459774Y-77396063D01*
X144290256Y-77282795D01*
X144101898Y-77204774D01*
X143901939Y-77165000D01*
X143698061Y-77165000D01*
X143498102Y-77204774D01*
X143309744Y-77282795D01*
X143140226Y-77396063D01*
X142996063Y-77540226D01*
X142882795Y-77709744D01*
X142804774Y-77898102D01*
X142765000Y-78098061D01*
X142765000Y-78301939D01*
X142804774Y-78501898D01*
X142882795Y-78690256D01*
X142892368Y-78704583D01*
X142755018Y-78841933D01*
X142641750Y-79011451D01*
X142563729Y-79199809D01*
X142523955Y-79399768D01*
X142523955Y-79603646D01*
X142563729Y-79803605D01*
X142613215Y-79923074D01*
X142596063Y-79940226D01*
X142482795Y-80109744D01*
X142404774Y-80298102D01*
X142365000Y-80498061D01*
X140715109Y-80498061D01*
X140695226Y-80398102D01*
X140617205Y-80209744D01*
X140503937Y-80040226D01*
X140359774Y-79896063D01*
X140190256Y-79782795D01*
X140001898Y-79704774D01*
X139801939Y-79665000D01*
X139598061Y-79665000D01*
X139398102Y-79704774D01*
X139209744Y-79782795D01*
X139040226Y-79896063D01*
X138896063Y-80040226D01*
X138782795Y-80209744D01*
X138704774Y-80398102D01*
X138665000Y-80598061D01*
X121933965Y-80598061D01*
X121772240Y-80490000D01*
X121946632Y-80373475D01*
X122153475Y-80166632D01*
X122315990Y-79923411D01*
X122427932Y-79653158D01*
X122485000Y-79366260D01*
X122485000Y-79073740D01*
X122427932Y-78786842D01*
X122315990Y-78516589D01*
X122153475Y-78273368D01*
X121946632Y-78066525D01*
X121772240Y-77950000D01*
X121946632Y-77833475D01*
X122153475Y-77626632D01*
X122315990Y-77383411D01*
X122427932Y-77113158D01*
X122485000Y-76826260D01*
X122485000Y-76533740D01*
X122427932Y-76246842D01*
X122315990Y-75976589D01*
X122153475Y-75733368D01*
X121946632Y-75526525D01*
X121772240Y-75410000D01*
X121946632Y-75293475D01*
X122153475Y-75086632D01*
X122315990Y-74843411D01*
X122427932Y-74573158D01*
X122455236Y-74435890D01*
X128564998Y-74435890D01*
X128564998Y-74639768D01*
X128604772Y-74839727D01*
X128682793Y-75028085D01*
X128796061Y-75197603D01*
X128940224Y-75341766D01*
X129109742Y-75455034D01*
X129298100Y-75533055D01*
X129498059Y-75572829D01*
X129701937Y-75572829D01*
X129901896Y-75533055D01*
X129984758Y-75498732D01*
X129965000Y-75598061D01*
X129965000Y-75801939D01*
X130004774Y-76001898D01*
X130082795Y-76190256D01*
X130196063Y-76359774D01*
X130236289Y-76400000D01*
X130196063Y-76440226D01*
X130082795Y-76609744D01*
X130004774Y-76798102D01*
X129965000Y-76998061D01*
X129965000Y-77201939D01*
X130004774Y-77401898D01*
X130082795Y-77590256D01*
X130196063Y-77759774D01*
X130236289Y-77800000D01*
X130196063Y-77840226D01*
X130082795Y-78009744D01*
X130004774Y-78198102D01*
X129965000Y-78398061D01*
X129965000Y-78601939D01*
X130004774Y-78801898D01*
X130082795Y-78990256D01*
X130196063Y-79159774D01*
X130340226Y-79303937D01*
X130509744Y-79417205D01*
X130698102Y-79495226D01*
X130898061Y-79535000D01*
X131101939Y-79535000D01*
X131301898Y-79495226D01*
X131490256Y-79417205D01*
X131659774Y-79303937D01*
X131803937Y-79159774D01*
X131850000Y-79090836D01*
X131896063Y-79159774D01*
X132040226Y-79303937D01*
X132209744Y-79417205D01*
X132398102Y-79495226D01*
X132598061Y-79535000D01*
X132801939Y-79535000D01*
X133001898Y-79495226D01*
X133190256Y-79417205D01*
X133359774Y-79303937D01*
X133503937Y-79159774D01*
X133550000Y-79090836D01*
X133596063Y-79159774D01*
X133740226Y-79303937D01*
X133909744Y-79417205D01*
X134098102Y-79495226D01*
X134298061Y-79535000D01*
X134501939Y-79535000D01*
X134701898Y-79495226D01*
X134890256Y-79417205D01*
X135059774Y-79303937D01*
X135203937Y-79159774D01*
X135311989Y-78998061D01*
X135565000Y-78998061D01*
X135565000Y-79201939D01*
X135604774Y-79401898D01*
X135682795Y-79590256D01*
X135796063Y-79759774D01*
X135940226Y-79903937D01*
X136109744Y-80017205D01*
X136298102Y-80095226D01*
X136498061Y-80135000D01*
X136701939Y-80135000D01*
X136901898Y-80095226D01*
X137090256Y-80017205D01*
X137259774Y-79903937D01*
X137403937Y-79759774D01*
X137517205Y-79590256D01*
X137595226Y-79401898D01*
X137635000Y-79201939D01*
X137635000Y-78998061D01*
X137595226Y-78798102D01*
X137517205Y-78609744D01*
X137403937Y-78440226D01*
X137259774Y-78296063D01*
X137090256Y-78182795D01*
X136901898Y-78104774D01*
X136701939Y-78065000D01*
X136498061Y-78065000D01*
X136298102Y-78104774D01*
X136109744Y-78182795D01*
X135940226Y-78296063D01*
X135796063Y-78440226D01*
X135682795Y-78609744D01*
X135604774Y-78798102D01*
X135565000Y-78998061D01*
X135311989Y-78998061D01*
X135317205Y-78990256D01*
X135395226Y-78801898D01*
X135435000Y-78601939D01*
X135435000Y-78398061D01*
X135395226Y-78198102D01*
X135317205Y-78009744D01*
X135203937Y-77840226D01*
X135163711Y-77800000D01*
X135203937Y-77759774D01*
X135317205Y-77590256D01*
X135395226Y-77401898D01*
X135435000Y-77201939D01*
X135435000Y-77098061D01*
X136465000Y-77098061D01*
X136465000Y-77301939D01*
X136504774Y-77501898D01*
X136582795Y-77690256D01*
X136696063Y-77859774D01*
X136840226Y-78003937D01*
X137009744Y-78117205D01*
X137198102Y-78195226D01*
X137398061Y-78235000D01*
X137466004Y-78235000D01*
X137466944Y-78239728D01*
X137544965Y-78428086D01*
X137658233Y-78597604D01*
X137802396Y-78741767D01*
X137971914Y-78855035D01*
X138160272Y-78933056D01*
X138360231Y-78972830D01*
X138564109Y-78972830D01*
X138764068Y-78933056D01*
X138952426Y-78855035D01*
X139121944Y-78741767D01*
X139266107Y-78597604D01*
X139379375Y-78428086D01*
X139457396Y-78239728D01*
X139497170Y-78039769D01*
X139497170Y-77998061D01*
X139865000Y-77998061D01*
X139865000Y-78201939D01*
X139904774Y-78401898D01*
X139982795Y-78590256D01*
X140096063Y-78759774D01*
X140240226Y-78903937D01*
X140409744Y-79017205D01*
X140598102Y-79095226D01*
X140798061Y-79135000D01*
X141001939Y-79135000D01*
X141201898Y-79095226D01*
X141390256Y-79017205D01*
X141559774Y-78903937D01*
X141703937Y-78759774D01*
X141817205Y-78590256D01*
X141895226Y-78401898D01*
X141935000Y-78201939D01*
X141935000Y-77998061D01*
X141895226Y-77798102D01*
X141817205Y-77609744D01*
X141703937Y-77440226D01*
X141559774Y-77296063D01*
X141390256Y-77182795D01*
X141201898Y-77104774D01*
X141001939Y-77065000D01*
X140798061Y-77065000D01*
X140598102Y-77104774D01*
X140409744Y-77182795D01*
X140240226Y-77296063D01*
X140096063Y-77440226D01*
X139982795Y-77609744D01*
X139904774Y-77798102D01*
X139865000Y-77998061D01*
X139497170Y-77998061D01*
X139497170Y-77835891D01*
X139457396Y-77635932D01*
X139379375Y-77447574D01*
X139266107Y-77278056D01*
X139121944Y-77133893D01*
X138952426Y-77020625D01*
X138764068Y-76942604D01*
X138564109Y-76902830D01*
X138496166Y-76902830D01*
X138495226Y-76898102D01*
X138469088Y-76835000D01*
X138601939Y-76835000D01*
X138801898Y-76795226D01*
X138990256Y-76717205D01*
X139159774Y-76603937D01*
X139303937Y-76459774D01*
X139417205Y-76290256D01*
X139495226Y-76101898D01*
X139535000Y-75901939D01*
X139535000Y-75698061D01*
X139495226Y-75498102D01*
X139495210Y-75498061D01*
X139865000Y-75498061D01*
X139865000Y-75701939D01*
X139904774Y-75901898D01*
X139982795Y-76090256D01*
X140096063Y-76259774D01*
X140240226Y-76403937D01*
X140409744Y-76517205D01*
X140598102Y-76595226D01*
X140798061Y-76635000D01*
X141001939Y-76635000D01*
X141201898Y-76595226D01*
X141390256Y-76517205D01*
X141559774Y-76403937D01*
X141703937Y-76259774D01*
X141817205Y-76090256D01*
X141895226Y-75901898D01*
X141935000Y-75701939D01*
X141935000Y-75498061D01*
X141895226Y-75298102D01*
X141817205Y-75109744D01*
X141703937Y-74940226D01*
X141559774Y-74796063D01*
X141390256Y-74682795D01*
X141201898Y-74604774D01*
X141001939Y-74565000D01*
X140798061Y-74565000D01*
X140598102Y-74604774D01*
X140409744Y-74682795D01*
X140240226Y-74796063D01*
X140096063Y-74940226D01*
X139982795Y-75109744D01*
X139904774Y-75298102D01*
X139865000Y-75498061D01*
X139495210Y-75498061D01*
X139417205Y-75309744D01*
X139303937Y-75140226D01*
X139159774Y-74996063D01*
X138990256Y-74882795D01*
X138801898Y-74804774D01*
X138601939Y-74765000D01*
X138398061Y-74765000D01*
X138198102Y-74804774D01*
X138009744Y-74882795D01*
X137840226Y-74996063D01*
X137696063Y-75140226D01*
X137582795Y-75309744D01*
X137504774Y-75498102D01*
X137465000Y-75698061D01*
X137465000Y-75901939D01*
X137504774Y-76101898D01*
X137530912Y-76165000D01*
X137398061Y-76165000D01*
X137198102Y-76204774D01*
X137009744Y-76282795D01*
X136840226Y-76396063D01*
X136696063Y-76540226D01*
X136582795Y-76709744D01*
X136504774Y-76898102D01*
X136465000Y-77098061D01*
X135435000Y-77098061D01*
X135435000Y-76998061D01*
X135395226Y-76798102D01*
X135317205Y-76609744D01*
X135203937Y-76440226D01*
X135163711Y-76400000D01*
X135203937Y-76359774D01*
X135317205Y-76190256D01*
X135395226Y-76001898D01*
X135435000Y-75801939D01*
X135435000Y-75598061D01*
X135395226Y-75398102D01*
X135317205Y-75209744D01*
X135203937Y-75040226D01*
X135059774Y-74896063D01*
X134890256Y-74782795D01*
X134701898Y-74704774D01*
X134501939Y-74665000D01*
X134298061Y-74665000D01*
X134098102Y-74704774D01*
X133909744Y-74782795D01*
X133740226Y-74896063D01*
X133596063Y-75040226D01*
X133550000Y-75109164D01*
X133503937Y-75040226D01*
X133359774Y-74896063D01*
X133190256Y-74782795D01*
X133001898Y-74704774D01*
X132801939Y-74665000D01*
X132598061Y-74665000D01*
X132398102Y-74704774D01*
X132209744Y-74782795D01*
X132040226Y-74896063D01*
X131896063Y-75040226D01*
X131850000Y-75109164D01*
X131803937Y-75040226D01*
X131659774Y-74896063D01*
X131490256Y-74782795D01*
X131301898Y-74704774D01*
X131101939Y-74665000D01*
X130898061Y-74665000D01*
X130698102Y-74704774D01*
X130615240Y-74739097D01*
X130634998Y-74639768D01*
X130634998Y-74435890D01*
X130595224Y-74235931D01*
X130517203Y-74047573D01*
X130403935Y-73878055D01*
X130259772Y-73733892D01*
X130090254Y-73620624D01*
X129901896Y-73542603D01*
X129701937Y-73502829D01*
X129498059Y-73502829D01*
X129298100Y-73542603D01*
X129109742Y-73620624D01*
X128940224Y-73733892D01*
X128796061Y-73878055D01*
X128682793Y-74047573D01*
X128604772Y-74235931D01*
X128564998Y-74435890D01*
X122455236Y-74435890D01*
X122485000Y-74286260D01*
X122485000Y-73993740D01*
X122427932Y-73706842D01*
X122315990Y-73436589D01*
X122153475Y-73193368D01*
X121946632Y-72986525D01*
X121772240Y-72870000D01*
X121946632Y-72753475D01*
X122153475Y-72546632D01*
X122229360Y-72433061D01*
X131965000Y-72433061D01*
X131965000Y-72636939D01*
X132004774Y-72836898D01*
X132082795Y-73025256D01*
X132196063Y-73194774D01*
X132340226Y-73338937D01*
X132509744Y-73452205D01*
X132698102Y-73530226D01*
X132892926Y-73568979D01*
X132916944Y-73689728D01*
X132994965Y-73878086D01*
X133108233Y-74047604D01*
X133252396Y-74191767D01*
X133421914Y-74305035D01*
X133610272Y-74383056D01*
X133810231Y-74422830D01*
X134014109Y-74422830D01*
X134214068Y-74383056D01*
X134402426Y-74305035D01*
X134571944Y-74191767D01*
X134716107Y-74047604D01*
X134829375Y-73878086D01*
X134907396Y-73689728D01*
X134947170Y-73489769D01*
X134947170Y-73285891D01*
X134907396Y-73085932D01*
X134829375Y-72897574D01*
X134716107Y-72728056D01*
X134571944Y-72583893D01*
X134402426Y-72470625D01*
X134214068Y-72392604D01*
X134019244Y-72353851D01*
X133995226Y-72233102D01*
X133917205Y-72044744D01*
X133803937Y-71875226D01*
X133659774Y-71731063D01*
X133490256Y-71617795D01*
X133301898Y-71539774D01*
X133101939Y-71500000D01*
X132898061Y-71500000D01*
X132698102Y-71539774D01*
X132509744Y-71617795D01*
X132340226Y-71731063D01*
X132196063Y-71875226D01*
X132082795Y-72044744D01*
X132004774Y-72233102D01*
X131965000Y-72433061D01*
X122229360Y-72433061D01*
X122315990Y-72303411D01*
X122427932Y-72033158D01*
X122485000Y-71746260D01*
X122485000Y-71453740D01*
X122427932Y-71166842D01*
X122315990Y-70896589D01*
X122153475Y-70653368D01*
X122021620Y-70521513D01*
X122094180Y-70499502D01*
X122204494Y-70440537D01*
X122301185Y-70361185D01*
X122380537Y-70264494D01*
X122390833Y-70245230D01*
X138217831Y-70245230D01*
X138217831Y-70449108D01*
X138257605Y-70649067D01*
X138335626Y-70837425D01*
X138448894Y-71006943D01*
X138593057Y-71151106D01*
X138762575Y-71264374D01*
X138950933Y-71342395D01*
X139150892Y-71382169D01*
X139354770Y-71382169D01*
X139417518Y-71369688D01*
X139466180Y-71487167D01*
X139394108Y-71472831D01*
X139190230Y-71472831D01*
X138990271Y-71512605D01*
X138801913Y-71590626D01*
X138632395Y-71703894D01*
X138488232Y-71848057D01*
X138374964Y-72017575D01*
X138296943Y-72205933D01*
X138257169Y-72405892D01*
X138257169Y-72609770D01*
X138296943Y-72809729D01*
X138374964Y-72998087D01*
X138488232Y-73167605D01*
X138632395Y-73311768D01*
X138801913Y-73425036D01*
X138990271Y-73503057D01*
X139190230Y-73542831D01*
X139394108Y-73542831D01*
X139594067Y-73503057D01*
X139782425Y-73425036D01*
X139951943Y-73311768D01*
X140096106Y-73167605D01*
X140209374Y-72998087D01*
X140287395Y-72809729D01*
X140327169Y-72609770D01*
X140327169Y-72405892D01*
X140287395Y-72205933D01*
X140231364Y-72070664D01*
X140303436Y-72085000D01*
X140507314Y-72085000D01*
X140707273Y-72045226D01*
X140895631Y-71967205D01*
X141065149Y-71853937D01*
X141209312Y-71709774D01*
X141322580Y-71540256D01*
X141400601Y-71351898D01*
X141440375Y-71151939D01*
X141440375Y-70948061D01*
X141400601Y-70748102D01*
X141322580Y-70559744D01*
X141209312Y-70390226D01*
X141128843Y-70309757D01*
X141201898Y-70295226D01*
X141390256Y-70217205D01*
X141559774Y-70103937D01*
X141703937Y-69959774D01*
X141817205Y-69790256D01*
X141895226Y-69601898D01*
X141935000Y-69401939D01*
X141935000Y-69198061D01*
X141895226Y-68998102D01*
X141817205Y-68809744D01*
X141703937Y-68640226D01*
X141559774Y-68496063D01*
X141390256Y-68382795D01*
X141201898Y-68304774D01*
X141001939Y-68265000D01*
X140798061Y-68265000D01*
X140598102Y-68304774D01*
X140409744Y-68382795D01*
X140240226Y-68496063D01*
X140096063Y-68640226D01*
X139982795Y-68809744D01*
X139904774Y-68998102D01*
X139865000Y-69198061D01*
X139865000Y-69401939D01*
X139890116Y-69528205D01*
X139743087Y-69429964D01*
X139554729Y-69351943D01*
X139354770Y-69312169D01*
X139150892Y-69312169D01*
X138950933Y-69351943D01*
X138762575Y-69429964D01*
X138593057Y-69543232D01*
X138448894Y-69687395D01*
X138335626Y-69856913D01*
X138257605Y-70045271D01*
X138217831Y-70245230D01*
X122390833Y-70245230D01*
X122439502Y-70154180D01*
X122475812Y-70034482D01*
X122488072Y-69910000D01*
X122488072Y-69098061D01*
X125465000Y-69098061D01*
X125465000Y-69301939D01*
X125504774Y-69501898D01*
X125582795Y-69690256D01*
X125696063Y-69859774D01*
X125840226Y-70003937D01*
X126009744Y-70117205D01*
X126198102Y-70195226D01*
X126398061Y-70235000D01*
X126601939Y-70235000D01*
X126801898Y-70195226D01*
X126990256Y-70117205D01*
X127159774Y-70003937D01*
X127303937Y-69859774D01*
X127417205Y-69690256D01*
X127495226Y-69501898D01*
X127535000Y-69301939D01*
X127535000Y-69098061D01*
X127495226Y-68898102D01*
X127417205Y-68709744D01*
X127303937Y-68540226D01*
X127159774Y-68396063D01*
X126990256Y-68282795D01*
X126801898Y-68204774D01*
X126601939Y-68165000D01*
X126398061Y-68165000D01*
X126198102Y-68204774D01*
X126009744Y-68282795D01*
X125840226Y-68396063D01*
X125696063Y-68540226D01*
X125582795Y-68709744D01*
X125504774Y-68898102D01*
X125465000Y-69098061D01*
X122488072Y-69098061D01*
X122488072Y-68210000D01*
X122477048Y-68098061D01*
X137265000Y-68098061D01*
X137265000Y-68301939D01*
X137304774Y-68501898D01*
X137382795Y-68690256D01*
X137496063Y-68859774D01*
X137640226Y-69003937D01*
X137809744Y-69117205D01*
X137998102Y-69195226D01*
X138198061Y-69235000D01*
X138401939Y-69235000D01*
X138601898Y-69195226D01*
X138790256Y-69117205D01*
X138959774Y-69003937D01*
X139103937Y-68859774D01*
X139217205Y-68690256D01*
X139295226Y-68501898D01*
X139335000Y-68301939D01*
X139335000Y-68098061D01*
X139295226Y-67898102D01*
X139217205Y-67709744D01*
X139103937Y-67540226D01*
X138959774Y-67396063D01*
X138790256Y-67282795D01*
X138601898Y-67204774D01*
X138401939Y-67165000D01*
X138198061Y-67165000D01*
X137998102Y-67204774D01*
X137809744Y-67282795D01*
X137640226Y-67396063D01*
X137496063Y-67540226D01*
X137382795Y-67709744D01*
X137304774Y-67898102D01*
X137265000Y-68098061D01*
X122477048Y-68098061D01*
X122475812Y-68085518D01*
X122439502Y-67965820D01*
X122380537Y-67855506D01*
X122301185Y-67758815D01*
X122204494Y-67679463D01*
X122094180Y-67620498D01*
X121974482Y-67584188D01*
X121850000Y-67571928D01*
X120150000Y-67571928D01*
X120025518Y-67584188D01*
X119905820Y-67620498D01*
X119860000Y-67644990D01*
X119860000Y-65189144D01*
X120041637Y-65460983D01*
X120339017Y-65758363D01*
X120688698Y-65992012D01*
X121077244Y-66152953D01*
X121489721Y-66235000D01*
X121910279Y-66235000D01*
X122322756Y-66152953D01*
X122711302Y-65992012D01*
X123060983Y-65758363D01*
X123358363Y-65460983D01*
X123592012Y-65111302D01*
X123752953Y-64722756D01*
X123835000Y-64310279D01*
X123835000Y-63889721D01*
X123752953Y-63477244D01*
X123592012Y-63088698D01*
X123358363Y-62739017D01*
X123060983Y-62441637D01*
X122789144Y-62260000D01*
X144610856Y-62260000D01*
X144339017Y-62441637D01*
%TA.AperFunction,Conductor*%
D16*
G36*
X144339017Y-62441637D02*
G01*
X144041637Y-62739017D01*
X143807988Y-63088698D01*
X143647047Y-63477244D01*
X143565000Y-63889721D01*
X143565000Y-64310279D01*
X143647047Y-64722756D01*
X143807988Y-65111302D01*
X144041637Y-65460983D01*
X144339017Y-65758363D01*
X144688698Y-65992012D01*
X145077244Y-66152953D01*
X145489721Y-66235000D01*
X145910279Y-66235000D01*
X146322756Y-66152953D01*
X146711302Y-65992012D01*
X147060983Y-65758363D01*
X147358363Y-65460983D01*
X147540001Y-65189142D01*
X147540001Y-67644990D01*
X147494180Y-67620498D01*
X147374482Y-67584188D01*
X147250000Y-67571928D01*
X145550000Y-67571928D01*
X145425518Y-67584188D01*
X145305820Y-67620498D01*
X145195506Y-67679463D01*
X145098815Y-67758815D01*
X145019463Y-67855506D01*
X144960498Y-67965820D01*
X144924188Y-68085518D01*
X144911928Y-68210000D01*
X144911928Y-68732069D01*
X144895226Y-68648102D01*
X144817205Y-68459744D01*
X144703937Y-68290226D01*
X144559774Y-68146063D01*
X144390256Y-68032795D01*
X144201898Y-67954774D01*
X144001939Y-67915000D01*
X143798061Y-67915000D01*
X143598102Y-67954774D01*
X143409744Y-68032795D01*
X143240226Y-68146063D01*
X143096063Y-68290226D01*
X142982795Y-68459744D01*
X142904774Y-68648102D01*
X142865000Y-68848061D01*
X142865000Y-69051939D01*
X142904774Y-69251898D01*
X142982795Y-69440256D01*
X143096063Y-69609774D01*
X143111289Y-69625000D01*
X143096063Y-69640226D01*
X142982795Y-69809744D01*
X142904774Y-69998102D01*
X142865000Y-70198061D01*
X142865000Y-70401939D01*
X142904774Y-70601898D01*
X142982795Y-70790256D01*
X143096063Y-70959774D01*
X143136289Y-71000000D01*
X142996063Y-71140226D01*
X142882795Y-71309744D01*
X142804774Y-71498102D01*
X142765000Y-71698061D01*
X142765000Y-71901939D01*
X142804774Y-72101898D01*
X142882795Y-72290256D01*
X142996063Y-72459774D01*
X143140226Y-72603937D01*
X143309744Y-72717205D01*
X143498102Y-72795226D01*
X143698061Y-72835000D01*
X143901939Y-72835000D01*
X144101898Y-72795226D01*
X144290256Y-72717205D01*
X144459774Y-72603937D01*
X144603937Y-72459774D01*
X144717205Y-72290256D01*
X144795226Y-72101898D01*
X144835000Y-71901939D01*
X144835000Y-71698061D01*
X144795226Y-71498102D01*
X144717205Y-71309744D01*
X144603937Y-71140226D01*
X144563711Y-71100000D01*
X144703937Y-70959774D01*
X144817205Y-70790256D01*
X144895226Y-70601898D01*
X144935000Y-70401939D01*
X144935000Y-70198061D01*
X144895226Y-69998102D01*
X144817205Y-69809744D01*
X144703937Y-69640226D01*
X144688711Y-69625000D01*
X144703937Y-69609774D01*
X144817205Y-69440256D01*
X144895226Y-69251898D01*
X144911928Y-69167931D01*
X144911928Y-69910000D01*
X144924188Y-70034482D01*
X144960498Y-70154180D01*
X145019463Y-70264494D01*
X145098815Y-70361185D01*
X145195506Y-70440537D01*
X145305820Y-70499502D01*
X145378380Y-70521513D01*
X145246525Y-70653368D01*
X145084010Y-70896589D01*
X144972068Y-71166842D01*
X144915000Y-71453740D01*
X144915000Y-71746260D01*
X144972068Y-72033158D01*
X145084010Y-72303411D01*
X145246525Y-72546632D01*
X145453368Y-72753475D01*
X145627760Y-72870000D01*
X145453368Y-72986525D01*
X145246525Y-73193368D01*
X145084010Y-73436589D01*
X144972068Y-73706842D01*
X144915000Y-73993740D01*
X144915000Y-74286260D01*
X144972068Y-74573158D01*
X145084010Y-74843411D01*
X145246525Y-75086632D01*
X145453368Y-75293475D01*
X145627760Y-75410000D01*
X145453368Y-75526525D01*
X145246525Y-75733368D01*
X145084010Y-75976589D01*
X144972068Y-76246842D01*
X144915000Y-76533740D01*
X144915000Y-76826260D01*
X144972068Y-77113158D01*
X145084010Y-77383411D01*
X145246525Y-77626632D01*
X145453368Y-77833475D01*
X145627760Y-77950000D01*
X145453368Y-78066525D01*
X145246525Y-78273368D01*
X145084010Y-78516589D01*
X144972068Y-78786842D01*
X144915000Y-79073740D01*
X144915000Y-79366260D01*
X144972068Y-79653158D01*
X145084010Y-79923411D01*
X145246525Y-80166632D01*
X145453368Y-80373475D01*
X145627760Y-80490000D01*
X145453368Y-80606525D01*
X145246525Y-80813368D01*
X145084010Y-81056589D01*
X144972068Y-81326842D01*
X144915000Y-81613740D01*
X144915000Y-81906260D01*
X144972068Y-82193158D01*
X145084010Y-82463411D01*
X145246525Y-82706632D01*
X145453368Y-82913475D01*
X145627760Y-83030000D01*
X145453368Y-83146525D01*
X145246525Y-83353368D01*
X145084010Y-83596589D01*
X144972068Y-83866842D01*
X144915000Y-84153740D01*
X144915000Y-84446260D01*
X144972068Y-84733158D01*
X145084010Y-85003411D01*
X145246525Y-85246632D01*
X145453368Y-85453475D01*
X145627760Y-85570000D01*
X145453368Y-85686525D01*
X145246525Y-85893368D01*
X145084010Y-86136589D01*
X144972068Y-86406842D01*
X144915000Y-86693740D01*
X144915000Y-86986260D01*
X144972068Y-87273158D01*
X145084010Y-87543411D01*
X145246525Y-87786632D01*
X145453368Y-87993475D01*
X145627760Y-88110000D01*
X145453368Y-88226525D01*
X145246525Y-88433368D01*
X145084010Y-88676589D01*
X144972068Y-88946842D01*
X144915000Y-89233740D01*
X144915000Y-89526260D01*
X144972068Y-89813158D01*
X145084010Y-90083411D01*
X145246525Y-90326632D01*
X145453368Y-90533475D01*
X145627760Y-90650000D01*
X145453368Y-90766525D01*
X145246525Y-90973368D01*
X145084010Y-91216589D01*
X144972068Y-91486842D01*
X144915000Y-91773740D01*
X144915000Y-92066260D01*
X144972068Y-92353158D01*
X145084010Y-92623411D01*
X145246525Y-92866632D01*
X145453368Y-93073475D01*
X145627760Y-93190000D01*
X145453368Y-93306525D01*
X145246525Y-93513368D01*
X145084010Y-93756589D01*
X144972068Y-94026842D01*
X144915000Y-94313740D01*
X144915000Y-94606260D01*
X144972068Y-94893158D01*
X145084010Y-95163411D01*
X145246525Y-95406632D01*
X145453368Y-95613475D01*
X145627760Y-95730000D01*
X145453368Y-95846525D01*
X145246525Y-96053368D01*
X145084010Y-96296589D01*
X144972068Y-96566842D01*
X144915000Y-96853740D01*
X144915000Y-97146260D01*
X144972068Y-97433158D01*
X145084010Y-97703411D01*
X145246525Y-97946632D01*
X145453368Y-98153475D01*
X145627760Y-98270000D01*
X145453368Y-98386525D01*
X145246525Y-98593368D01*
X145133438Y-98762614D01*
X145117205Y-98723424D01*
X145003937Y-98553906D01*
X144859774Y-98409743D01*
X144690256Y-98296475D01*
X144501898Y-98218454D01*
X144301939Y-98178680D01*
X144098061Y-98178680D01*
X143898102Y-98218454D01*
X143709744Y-98296475D01*
X143540226Y-98409743D01*
X143396063Y-98553906D01*
X143282795Y-98723424D01*
X143204774Y-98911782D01*
X143187850Y-98996868D01*
X143148102Y-99004774D01*
X142959744Y-99082795D01*
X142790226Y-99196063D01*
X142646063Y-99340226D01*
X142532795Y-99509744D01*
X142454774Y-99698102D01*
X142415000Y-99898061D01*
X142415000Y-100101939D01*
X142454774Y-100301898D01*
X142532795Y-100490256D01*
X142646063Y-100659774D01*
X142790226Y-100803937D01*
X142959744Y-100917205D01*
X143148102Y-100995226D01*
X143348061Y-101035000D01*
X143551939Y-101035000D01*
X143751898Y-100995226D01*
X143940256Y-100917205D01*
X144109774Y-100803937D01*
X144253937Y-100659774D01*
X144367205Y-100490256D01*
X144445226Y-100301898D01*
X144462150Y-100216812D01*
X144501898Y-100208906D01*
X144690256Y-100130885D01*
X144859774Y-100017617D01*
X144960813Y-99916578D01*
X144972068Y-99973158D01*
X145084010Y-100243411D01*
X145246525Y-100486632D01*
X145453368Y-100693475D01*
X145627760Y-100810000D01*
X145453368Y-100926525D01*
X145246525Y-101133368D01*
X145084010Y-101376589D01*
X144972068Y-101646842D01*
X144915000Y-101933740D01*
X144915000Y-102226260D01*
X144972068Y-102513158D01*
X145084010Y-102783411D01*
X145246525Y-103026632D01*
X145453368Y-103233475D01*
X145627760Y-103350000D01*
X145453368Y-103466525D01*
X145246525Y-103673368D01*
X145084010Y-103916589D01*
X144972068Y-104186842D01*
X144915000Y-104473740D01*
X144915000Y-104766260D01*
X144972068Y-105053158D01*
X145084010Y-105323411D01*
X145246525Y-105566632D01*
X145453368Y-105773475D01*
X145627760Y-105890000D01*
X145453368Y-106006525D01*
X145246525Y-106213368D01*
X145084010Y-106456589D01*
X144972068Y-106726842D01*
X144915000Y-107013740D01*
X144915000Y-107306260D01*
X144972068Y-107593158D01*
X145084010Y-107863411D01*
X145246525Y-108106632D01*
X145453368Y-108313475D01*
X145627760Y-108430000D01*
X145453368Y-108546525D01*
X145246525Y-108753368D01*
X145084010Y-108996589D01*
X144972068Y-109266842D01*
X144915000Y-109553740D01*
X144915000Y-109846260D01*
X144972068Y-110133158D01*
X145084010Y-110403411D01*
X145246525Y-110646632D01*
X145453368Y-110853475D01*
X145627760Y-110970000D01*
X145453368Y-111086525D01*
X145246525Y-111293368D01*
X145084010Y-111536589D01*
X144972068Y-111806842D01*
X144915000Y-112093740D01*
X144915000Y-112386260D01*
X144972068Y-112673158D01*
X145084010Y-112943411D01*
X145246525Y-113186632D01*
X145453368Y-113393475D01*
X145696589Y-113555990D01*
X145966842Y-113667932D01*
X146253740Y-113725000D01*
X146546260Y-113725000D01*
X146833158Y-113667932D01*
X147103411Y-113555990D01*
X147346632Y-113393475D01*
X147540000Y-113200107D01*
X147540000Y-116010856D01*
X147358363Y-115739017D01*
X147060983Y-115441637D01*
X146711302Y-115207988D01*
X146322756Y-115047047D01*
X145910279Y-114965000D01*
X145489721Y-114965000D01*
X145077244Y-115047047D01*
X144688698Y-115207988D01*
X144339017Y-115441637D01*
X144041637Y-115739017D01*
X143807988Y-116088698D01*
X143647047Y-116477244D01*
X143580000Y-116814311D01*
X143580000Y-116507449D01*
X143504870Y-116129748D01*
X143357498Y-115773960D01*
X143143547Y-115453760D01*
X142871240Y-115181453D01*
X142551040Y-114967502D01*
X142195252Y-114820130D01*
X141817551Y-114745000D01*
X141432449Y-114745000D01*
X141424888Y-114746504D01*
X141519443Y-114604992D01*
X141612540Y-114380236D01*
X141660000Y-114141637D01*
X141660000Y-113898363D01*
X141612540Y-113659764D01*
X141519443Y-113435008D01*
X141384287Y-113232733D01*
X141212267Y-113060713D01*
X141009992Y-112925557D01*
X140785236Y-112832460D01*
X140546637Y-112785000D01*
X140303363Y-112785000D01*
X140064764Y-112832460D01*
X139840008Y-112925557D01*
X139637733Y-113060713D01*
X139465713Y-113232733D01*
X139330557Y-113435008D01*
X139237460Y-113659764D01*
X139190000Y-113898363D01*
X139190000Y-114066603D01*
X138998102Y-114104774D01*
X138809744Y-114182795D01*
X138640226Y-114296063D01*
X138496063Y-114440226D01*
X138382795Y-114609744D01*
X138304774Y-114798102D01*
X138265000Y-114998061D01*
X138265000Y-115201939D01*
X138304774Y-115401898D01*
X138382795Y-115590256D01*
X138496063Y-115759774D01*
X138640226Y-115903937D01*
X138809744Y-116017205D01*
X138998102Y-116095226D01*
X139198061Y-116135000D01*
X139401939Y-116135000D01*
X139601898Y-116095226D01*
X139790256Y-116017205D01*
X139792317Y-116015828D01*
X139745130Y-116129748D01*
X139670000Y-116507449D01*
X139670000Y-116892551D01*
X139745130Y-117270252D01*
X139892502Y-117626040D01*
X140106453Y-117946240D01*
X140378760Y-118218547D01*
X140698960Y-118432498D01*
X141054748Y-118579870D01*
X141432449Y-118655000D01*
X141817551Y-118655000D01*
X142195252Y-118579870D01*
X142551040Y-118432498D01*
X142871240Y-118218547D01*
X143143547Y-117946240D01*
X143357498Y-117626040D01*
X143504870Y-117270252D01*
X143565000Y-116967960D01*
X143565000Y-117310279D01*
X143647047Y-117722756D01*
X143807988Y-118111302D01*
X144041637Y-118460983D01*
X144339017Y-118758363D01*
X144610856Y-118940000D01*
X122789144Y-118940000D01*
X123060983Y-118758363D01*
X123358363Y-118460983D01*
X123592012Y-118111302D01*
X123752953Y-117722756D01*
X123797647Y-117498061D01*
X125965000Y-117498061D01*
X125965000Y-117701939D01*
X126004774Y-117901898D01*
X126082795Y-118090256D01*
X126196063Y-118259774D01*
X126340226Y-118403937D01*
X126509744Y-118517205D01*
X126698102Y-118595226D01*
X126898061Y-118635000D01*
X127101939Y-118635000D01*
X127301898Y-118595226D01*
X127490256Y-118517205D01*
X127659774Y-118403937D01*
X127803937Y-118259774D01*
X127917205Y-118090256D01*
X127995226Y-117901898D01*
X128035000Y-117701939D01*
X128035000Y-117498061D01*
X127995226Y-117298102D01*
X127917205Y-117109744D01*
X127803937Y-116940226D01*
X127659774Y-116796063D01*
X127490256Y-116682795D01*
X127301898Y-116604774D01*
X127101939Y-116565000D01*
X126898061Y-116565000D01*
X126698102Y-116604774D01*
X126509744Y-116682795D01*
X126340226Y-116796063D01*
X126196063Y-116940226D01*
X126082795Y-117109744D01*
X126004774Y-117298102D01*
X125965000Y-117498061D01*
X123797647Y-117498061D01*
X123835000Y-117310279D01*
X123835000Y-116889721D01*
X123758962Y-116507449D01*
X132420000Y-116507449D01*
X132420000Y-116892551D01*
X132495130Y-117270252D01*
X132642502Y-117626040D01*
X132856453Y-117946240D01*
X133128760Y-118218547D01*
X133448960Y-118432498D01*
X133804748Y-118579870D01*
X134182449Y-118655000D01*
X134567551Y-118655000D01*
X134945252Y-118579870D01*
X135301040Y-118432498D01*
X135621240Y-118218547D01*
X135893547Y-117946240D01*
X136107498Y-117626040D01*
X136254870Y-117270252D01*
X136330000Y-116892551D01*
X136330000Y-116507449D01*
X136254870Y-116129748D01*
X136107498Y-115773960D01*
X135893547Y-115453760D01*
X135694787Y-115255000D01*
X135696637Y-115255000D01*
X135935236Y-115207540D01*
X136159992Y-115114443D01*
X136362267Y-114979287D01*
X136534287Y-114807267D01*
X136669443Y-114604992D01*
X136762540Y-114380236D01*
X136810000Y-114141637D01*
X136810000Y-113898363D01*
X136762540Y-113659764D01*
X136669443Y-113435008D01*
X136534287Y-113232733D01*
X136362267Y-113060713D01*
X136159992Y-112925557D01*
X135935236Y-112832460D01*
X135696637Y-112785000D01*
X135453363Y-112785000D01*
X135214764Y-112832460D01*
X134990008Y-112925557D01*
X134787733Y-113060713D01*
X134615713Y-113232733D01*
X134480557Y-113435008D01*
X134387460Y-113659764D01*
X134340000Y-113898363D01*
X134340000Y-114141637D01*
X134387460Y-114380236D01*
X134480557Y-114604992D01*
X134575112Y-114746504D01*
X134567551Y-114745000D01*
X134182449Y-114745000D01*
X133804748Y-114820130D01*
X133448960Y-114967502D01*
X133128760Y-115181453D01*
X132856453Y-115453760D01*
X132642502Y-115773960D01*
X132495130Y-116129748D01*
X132420000Y-116507449D01*
X123758962Y-116507449D01*
X123752953Y-116477244D01*
X123592012Y-116088698D01*
X123358363Y-115739017D01*
X123060983Y-115441637D01*
X122711302Y-115207988D01*
X122322756Y-115047047D01*
X121910279Y-114965000D01*
X121489721Y-114965000D01*
X121077244Y-115047047D01*
X120688698Y-115207988D01*
X120339017Y-115441637D01*
X120041637Y-115739017D01*
X119860000Y-116010856D01*
X119860000Y-113200107D01*
X120053368Y-113393475D01*
X120296589Y-113555990D01*
X120566842Y-113667932D01*
X120853740Y-113725000D01*
X121146260Y-113725000D01*
X121433158Y-113667932D01*
X121703411Y-113555990D01*
X121946632Y-113393475D01*
X122153475Y-113186632D01*
X122315990Y-112943411D01*
X122427932Y-112673158D01*
X122485000Y-112386260D01*
X122485000Y-112098061D01*
X124365000Y-112098061D01*
X124365000Y-112301939D01*
X124404774Y-112501898D01*
X124482795Y-112690256D01*
X124596063Y-112859774D01*
X124740226Y-113003937D01*
X124909744Y-113117205D01*
X125098102Y-113195226D01*
X125298061Y-113235000D01*
X125501939Y-113235000D01*
X125701898Y-113195226D01*
X125890256Y-113117205D01*
X126059774Y-113003937D01*
X126203937Y-112859774D01*
X126317205Y-112690256D01*
X126395226Y-112501898D01*
X126435000Y-112301939D01*
X126435000Y-112098061D01*
X126395226Y-111898102D01*
X126317205Y-111709744D01*
X126203937Y-111540226D01*
X126161772Y-111498061D01*
X127865000Y-111498061D01*
X127865000Y-111701939D01*
X127904774Y-111901898D01*
X127982795Y-112090256D01*
X128096063Y-112259774D01*
X128240226Y-112403937D01*
X128409744Y-112517205D01*
X128598102Y-112595226D01*
X128798061Y-112635000D01*
X129001939Y-112635000D01*
X129201898Y-112595226D01*
X129390256Y-112517205D01*
X129494027Y-112447868D01*
X129504774Y-112501898D01*
X129582795Y-112690256D01*
X129696063Y-112859774D01*
X129840226Y-113003937D01*
X130009744Y-113117205D01*
X130198102Y-113195226D01*
X130398061Y-113235000D01*
X130601939Y-113235000D01*
X130801898Y-113195226D01*
X130990256Y-113117205D01*
X131159774Y-113003937D01*
X131303937Y-112859774D01*
X131417205Y-112690256D01*
X131495226Y-112501898D01*
X131535000Y-112301939D01*
X131535000Y-112098061D01*
X131495226Y-111898102D01*
X131417205Y-111709744D01*
X131303937Y-111540226D01*
X131261772Y-111498061D01*
X131765000Y-111498061D01*
X131765000Y-111701939D01*
X131804774Y-111901898D01*
X131882795Y-112090256D01*
X131996063Y-112259774D01*
X132140226Y-112403937D01*
X132309744Y-112517205D01*
X132498102Y-112595226D01*
X132698061Y-112635000D01*
X132901939Y-112635000D01*
X133101898Y-112595226D01*
X133290256Y-112517205D01*
X133459774Y-112403937D01*
X133603937Y-112259774D01*
X133717205Y-112090256D01*
X133795226Y-111901898D01*
X133835000Y-111701939D01*
X133835000Y-111498061D01*
X133795226Y-111298102D01*
X133717205Y-111109744D01*
X133603937Y-110940226D01*
X133561772Y-110898061D01*
X134565000Y-110898061D01*
X134565000Y-111101939D01*
X134604774Y-111301898D01*
X134682795Y-111490256D01*
X134796063Y-111659774D01*
X134940226Y-111803937D01*
X135109744Y-111917205D01*
X135298102Y-111995226D01*
X135498061Y-112035000D01*
X135701939Y-112035000D01*
X135901898Y-111995226D01*
X136090256Y-111917205D01*
X136259774Y-111803937D01*
X136403937Y-111659774D01*
X136517205Y-111490256D01*
X136595226Y-111301898D01*
X136635000Y-111101939D01*
X136635000Y-110898061D01*
X136595226Y-110698102D01*
X136517205Y-110509744D01*
X136403937Y-110340226D01*
X136259774Y-110196063D01*
X136090256Y-110082795D01*
X135901898Y-110004774D01*
X135701939Y-109965000D01*
X135498061Y-109965000D01*
X135298102Y-110004774D01*
X135109744Y-110082795D01*
X134940226Y-110196063D01*
X134796063Y-110340226D01*
X134682795Y-110509744D01*
X134604774Y-110698102D01*
X134565000Y-110898061D01*
X133561772Y-110898061D01*
X133459774Y-110796063D01*
X133290256Y-110682795D01*
X133101898Y-110604774D01*
X132901939Y-110565000D01*
X132698061Y-110565000D01*
X132498102Y-110604774D01*
X132309744Y-110682795D01*
X132140226Y-110796063D01*
X131996063Y-110940226D01*
X131882795Y-111109744D01*
X131804774Y-111298102D01*
X131765000Y-111498061D01*
X131261772Y-111498061D01*
X131159774Y-111396063D01*
X130990256Y-111282795D01*
X130801898Y-111204774D01*
X130601939Y-111165000D01*
X130398061Y-111165000D01*
X130198102Y-111204774D01*
X130009744Y-111282795D01*
X129905973Y-111352132D01*
X129895226Y-111298102D01*
X129817205Y-111109744D01*
X129703937Y-110940226D01*
X129559774Y-110796063D01*
X129390256Y-110682795D01*
X129201898Y-110604774D01*
X129001939Y-110565000D01*
X128798061Y-110565000D01*
X128598102Y-110604774D01*
X128409744Y-110682795D01*
X128240226Y-110796063D01*
X128096063Y-110940226D01*
X127982795Y-111109744D01*
X127904774Y-111298102D01*
X127865000Y-111498061D01*
X126161772Y-111498061D01*
X126059774Y-111396063D01*
X125890256Y-111282795D01*
X125701898Y-111204774D01*
X125501939Y-111165000D01*
X125298061Y-111165000D01*
X125098102Y-111204774D01*
X124909744Y-111282795D01*
X124740226Y-111396063D01*
X124596063Y-111540226D01*
X124482795Y-111709744D01*
X124404774Y-111898102D01*
X124365000Y-112098061D01*
X122485000Y-112098061D01*
X122485000Y-112093740D01*
X122427932Y-111806842D01*
X122315990Y-111536589D01*
X122153475Y-111293368D01*
X121946632Y-111086525D01*
X121764466Y-110964805D01*
X121881355Y-110895178D01*
X122097588Y-110700269D01*
X122271641Y-110466920D01*
X122396825Y-110204099D01*
X122441476Y-110056890D01*
X122320155Y-109827000D01*
X121127000Y-109827000D01*
X121127000Y-109847000D01*
X120873000Y-109847000D01*
X120873000Y-109827000D01*
X120853000Y-109827000D01*
X120853000Y-109573000D01*
X120873000Y-109573000D01*
X120873000Y-109553000D01*
X121127000Y-109553000D01*
X121127000Y-109573000D01*
X122320155Y-109573000D01*
X122441476Y-109343110D01*
X122396825Y-109195901D01*
X122271641Y-108933080D01*
X122097588Y-108699731D01*
X121881355Y-108504822D01*
X121764466Y-108435195D01*
X121946632Y-108313475D01*
X122153475Y-108106632D01*
X122315990Y-107863411D01*
X122427932Y-107593158D01*
X122485000Y-107306260D01*
X122485000Y-107013740D01*
X122427932Y-106726842D01*
X122416011Y-106698061D01*
X122665000Y-106698061D01*
X122665000Y-106901939D01*
X122704774Y-107101898D01*
X122782795Y-107290256D01*
X122896063Y-107459774D01*
X123040226Y-107603937D01*
X123209744Y-107717205D01*
X123398102Y-107795226D01*
X123598061Y-107835000D01*
X123801939Y-107835000D01*
X124001898Y-107795226D01*
X124190256Y-107717205D01*
X124359774Y-107603937D01*
X124503937Y-107459774D01*
X124617205Y-107290256D01*
X124695226Y-107101898D01*
X124735000Y-106901939D01*
X124735000Y-106798061D01*
X124965000Y-106798061D01*
X124965000Y-107001939D01*
X125004774Y-107201898D01*
X125082795Y-107390256D01*
X125196063Y-107559774D01*
X125340226Y-107703937D01*
X125509744Y-107817205D01*
X125698102Y-107895226D01*
X125898061Y-107935000D01*
X126101939Y-107935000D01*
X126301898Y-107895226D01*
X126490256Y-107817205D01*
X126659774Y-107703937D01*
X126803937Y-107559774D01*
X126917205Y-107390256D01*
X126995226Y-107201898D01*
X127035000Y-107001939D01*
X127035000Y-106798061D01*
X126995226Y-106598102D01*
X126917205Y-106409744D01*
X126803937Y-106240226D01*
X126659774Y-106096063D01*
X126490256Y-105982795D01*
X126301898Y-105904774D01*
X126101939Y-105865000D01*
X125898061Y-105865000D01*
X125698102Y-105904774D01*
X125509744Y-105982795D01*
X125340226Y-106096063D01*
X125196063Y-106240226D01*
X125082795Y-106409744D01*
X125004774Y-106598102D01*
X124965000Y-106798061D01*
X124735000Y-106798061D01*
X124735000Y-106698061D01*
X124695226Y-106498102D01*
X124617205Y-106309744D01*
X124503937Y-106140226D01*
X124359774Y-105996063D01*
X124190256Y-105882795D01*
X124001898Y-105804774D01*
X123801939Y-105765000D01*
X123598061Y-105765000D01*
X123398102Y-105804774D01*
X123209744Y-105882795D01*
X123040226Y-105996063D01*
X122896063Y-106140226D01*
X122782795Y-106309744D01*
X122704774Y-106498102D01*
X122665000Y-106698061D01*
X122416011Y-106698061D01*
X122315990Y-106456589D01*
X122153475Y-106213368D01*
X121946632Y-106006525D01*
X121772240Y-105890000D01*
X121946632Y-105773475D01*
X122153475Y-105566632D01*
X122315990Y-105323411D01*
X122427932Y-105053158D01*
X122458782Y-104898061D01*
X127365000Y-104898061D01*
X127365000Y-105101939D01*
X127404774Y-105301898D01*
X127482795Y-105490256D01*
X127596063Y-105659774D01*
X127740226Y-105803937D01*
X127909744Y-105917205D01*
X128098102Y-105995226D01*
X128298061Y-106035000D01*
X128431613Y-106035000D01*
X128340226Y-106096063D01*
X128196063Y-106240226D01*
X128082795Y-106409744D01*
X128004774Y-106598102D01*
X127965000Y-106798061D01*
X127965000Y-107001939D01*
X128004774Y-107201898D01*
X128082795Y-107390256D01*
X128196063Y-107559774D01*
X128340226Y-107703937D01*
X128509744Y-107817205D01*
X128698102Y-107895226D01*
X128898061Y-107935000D01*
X129101939Y-107935000D01*
X129301898Y-107895226D01*
X129490256Y-107817205D01*
X129659774Y-107703937D01*
X129803937Y-107559774D01*
X129911989Y-107398061D01*
X133265000Y-107398061D01*
X133265000Y-107601939D01*
X133304774Y-107801898D01*
X133382795Y-107990256D01*
X133496063Y-108159774D01*
X133640226Y-108303937D01*
X133809744Y-108417205D01*
X133998102Y-108495226D01*
X134198061Y-108535000D01*
X134401939Y-108535000D01*
X134601898Y-108495226D01*
X134790256Y-108417205D01*
X134959774Y-108303937D01*
X135103937Y-108159774D01*
X135217205Y-107990256D01*
X135295226Y-107801898D01*
X135335000Y-107601939D01*
X135335000Y-107398061D01*
X135295226Y-107198102D01*
X135217205Y-107009744D01*
X135103937Y-106840226D01*
X134959774Y-106696063D01*
X134790256Y-106582795D01*
X134601898Y-106504774D01*
X134401939Y-106465000D01*
X134198061Y-106465000D01*
X133998102Y-106504774D01*
X133809744Y-106582795D01*
X133640226Y-106696063D01*
X133496063Y-106840226D01*
X133382795Y-107009744D01*
X133304774Y-107198102D01*
X133265000Y-107398061D01*
X129911989Y-107398061D01*
X129917205Y-107390256D01*
X129995226Y-107201898D01*
X130035000Y-107001939D01*
X130035000Y-106798061D01*
X129995226Y-106598102D01*
X129917205Y-106409744D01*
X129803937Y-106240226D01*
X129659774Y-106096063D01*
X129490256Y-105982795D01*
X129301898Y-105904774D01*
X129101939Y-105865000D01*
X128968387Y-105865000D01*
X129059774Y-105803937D01*
X129115650Y-105748061D01*
X130465000Y-105748061D01*
X130465000Y-105951939D01*
X130504774Y-106151898D01*
X130582795Y-106340256D01*
X130696063Y-106509774D01*
X130840226Y-106653937D01*
X131009744Y-106767205D01*
X131198102Y-106845226D01*
X131398061Y-106885000D01*
X131601939Y-106885000D01*
X131801898Y-106845226D01*
X131990256Y-106767205D01*
X132159774Y-106653937D01*
X132303937Y-106509774D01*
X132417205Y-106340256D01*
X132495226Y-106151898D01*
X132535000Y-105951939D01*
X132535000Y-105748061D01*
X132495226Y-105548102D01*
X132417205Y-105359744D01*
X132309173Y-105198061D01*
X138865000Y-105198061D01*
X138865000Y-105401939D01*
X138904774Y-105601898D01*
X138982795Y-105790256D01*
X139096063Y-105959774D01*
X139240226Y-106103937D01*
X139409744Y-106217205D01*
X139598102Y-106295226D01*
X139765000Y-106328424D01*
X139765000Y-106401939D01*
X139804774Y-106601898D01*
X139882795Y-106790256D01*
X139996063Y-106959774D01*
X140140226Y-107103937D01*
X140309744Y-107217205D01*
X140486418Y-107290386D01*
X140465000Y-107398061D01*
X140465000Y-107601939D01*
X140504774Y-107801898D01*
X140582795Y-107990256D01*
X140696063Y-108159774D01*
X140840226Y-108303937D01*
X141009744Y-108417205D01*
X141198102Y-108495226D01*
X141398061Y-108535000D01*
X141601939Y-108535000D01*
X141801898Y-108495226D01*
X141990256Y-108417205D01*
X142159774Y-108303937D01*
X142303937Y-108159774D01*
X142417205Y-107990256D01*
X142495226Y-107801898D01*
X142535000Y-107601939D01*
X142535000Y-107398061D01*
X142495226Y-107198102D01*
X142417205Y-107009744D01*
X142303937Y-106840226D01*
X142159774Y-106696063D01*
X141990256Y-106582795D01*
X141813582Y-106509614D01*
X141835000Y-106401939D01*
X141835000Y-106198061D01*
X141795226Y-105998102D01*
X141717205Y-105809744D01*
X141603937Y-105640226D01*
X141459774Y-105496063D01*
X141290256Y-105382795D01*
X141101898Y-105304774D01*
X140935000Y-105271576D01*
X140935000Y-105198061D01*
X140895226Y-104998102D01*
X140817205Y-104809744D01*
X140703937Y-104640226D01*
X140559774Y-104496063D01*
X140390256Y-104382795D01*
X140201898Y-104304774D01*
X140001939Y-104265000D01*
X139798061Y-104265000D01*
X139598102Y-104304774D01*
X139409744Y-104382795D01*
X139240226Y-104496063D01*
X139096063Y-104640226D01*
X138982795Y-104809744D01*
X138904774Y-104998102D01*
X138865000Y-105198061D01*
X132309173Y-105198061D01*
X132303937Y-105190226D01*
X132159774Y-105046063D01*
X131990256Y-104932795D01*
X131801898Y-104854774D01*
X131601939Y-104815000D01*
X131398061Y-104815000D01*
X131198102Y-104854774D01*
X131009744Y-104932795D01*
X130840226Y-105046063D01*
X130696063Y-105190226D01*
X130582795Y-105359744D01*
X130504774Y-105548102D01*
X130465000Y-105748061D01*
X129115650Y-105748061D01*
X129203937Y-105659774D01*
X129317205Y-105490256D01*
X129395226Y-105301898D01*
X129435000Y-105101939D01*
X129435000Y-104898061D01*
X129395226Y-104698102D01*
X129317205Y-104509744D01*
X129203937Y-104340226D01*
X129059774Y-104196063D01*
X128890256Y-104082795D01*
X128701898Y-104004774D01*
X128501939Y-103965000D01*
X128298061Y-103965000D01*
X128098102Y-104004774D01*
X127909744Y-104082795D01*
X127740226Y-104196063D01*
X127596063Y-104340226D01*
X127482795Y-104509744D01*
X127404774Y-104698102D01*
X127365000Y-104898061D01*
X122458782Y-104898061D01*
X122485000Y-104766260D01*
X122485000Y-104473740D01*
X122427932Y-104186842D01*
X122315990Y-103916589D01*
X122153475Y-103673368D01*
X121946632Y-103466525D01*
X121772240Y-103350000D01*
X121946632Y-103233475D01*
X122153475Y-103026632D01*
X122172565Y-102998061D01*
X122565000Y-102998061D01*
X122565000Y-103201939D01*
X122604774Y-103401898D01*
X122682795Y-103590256D01*
X122796063Y-103759774D01*
X122940226Y-103903937D01*
X123109744Y-104017205D01*
X123298102Y-104095226D01*
X123498061Y-104135000D01*
X123701939Y-104135000D01*
X123901898Y-104095226D01*
X124090256Y-104017205D01*
X124259774Y-103903937D01*
X124403937Y-103759774D01*
X124517205Y-103590256D01*
X124595226Y-103401898D01*
X124635000Y-103201939D01*
X124635000Y-102998061D01*
X125165000Y-102998061D01*
X125165000Y-103201939D01*
X125204774Y-103401898D01*
X125282795Y-103590256D01*
X125396063Y-103759774D01*
X125540226Y-103903937D01*
X125709744Y-104017205D01*
X125898102Y-104095226D01*
X126098061Y-104135000D01*
X126301939Y-104135000D01*
X126501898Y-104095226D01*
X126690256Y-104017205D01*
X126859774Y-103903937D01*
X127003937Y-103759774D01*
X127117205Y-103590256D01*
X127195226Y-103401898D01*
X127235000Y-103201939D01*
X127235000Y-102998061D01*
X127195226Y-102798102D01*
X127117205Y-102609744D01*
X127003937Y-102440226D01*
X126859774Y-102296063D01*
X126713104Y-102198061D01*
X139965000Y-102198061D01*
X139965000Y-102401939D01*
X140004774Y-102601898D01*
X140082795Y-102790256D01*
X140156123Y-102900000D01*
X140082795Y-103009744D01*
X140004774Y-103198102D01*
X139965000Y-103398061D01*
X139965000Y-103601939D01*
X140004774Y-103801898D01*
X140082795Y-103990256D01*
X140196063Y-104159774D01*
X140340226Y-104303937D01*
X140509744Y-104417205D01*
X140698102Y-104495226D01*
X140898061Y-104535000D01*
X141101939Y-104535000D01*
X141301898Y-104495226D01*
X141490256Y-104417205D01*
X141659774Y-104303937D01*
X141803937Y-104159774D01*
X141917205Y-103990256D01*
X141995226Y-103801898D01*
X142035000Y-103601939D01*
X142035000Y-103398061D01*
X141995226Y-103198102D01*
X141917205Y-103009744D01*
X141843877Y-102900000D01*
X141917205Y-102790256D01*
X141995226Y-102601898D01*
X142035000Y-102401939D01*
X142035000Y-102198061D01*
X141995226Y-101998102D01*
X141917205Y-101809744D01*
X141803937Y-101640226D01*
X141659774Y-101496063D01*
X141490256Y-101382795D01*
X141301898Y-101304774D01*
X141101939Y-101265000D01*
X140898061Y-101265000D01*
X140698102Y-101304774D01*
X140509744Y-101382795D01*
X140340226Y-101496063D01*
X140196063Y-101640226D01*
X140082795Y-101809744D01*
X140004774Y-101998102D01*
X139965000Y-102198061D01*
X126713104Y-102198061D01*
X126690256Y-102182795D01*
X126501898Y-102104774D01*
X126301939Y-102065000D01*
X126098061Y-102065000D01*
X125898102Y-102104774D01*
X125709744Y-102182795D01*
X125540226Y-102296063D01*
X125396063Y-102440226D01*
X125282795Y-102609744D01*
X125204774Y-102798102D01*
X125165000Y-102998061D01*
X124635000Y-102998061D01*
X124595226Y-102798102D01*
X124517205Y-102609744D01*
X124403937Y-102440226D01*
X124259774Y-102296063D01*
X124090256Y-102182795D01*
X123901898Y-102104774D01*
X123701939Y-102065000D01*
X123498061Y-102065000D01*
X123298102Y-102104774D01*
X123109744Y-102182795D01*
X122940226Y-102296063D01*
X122796063Y-102440226D01*
X122682795Y-102609744D01*
X122604774Y-102798102D01*
X122565000Y-102998061D01*
X122172565Y-102998061D01*
X122315990Y-102783411D01*
X122427932Y-102513158D01*
X122485000Y-102226260D01*
X122485000Y-101933740D01*
X122427932Y-101646842D01*
X122315990Y-101376589D01*
X122153475Y-101133368D01*
X121946632Y-100926525D01*
X121772240Y-100810000D01*
X121946632Y-100693475D01*
X122153475Y-100486632D01*
X122315990Y-100243411D01*
X122417616Y-99998061D01*
X126365000Y-99998061D01*
X126365000Y-100201939D01*
X126404774Y-100401898D01*
X126482795Y-100590256D01*
X126596063Y-100759774D01*
X126740226Y-100903937D01*
X126909744Y-101017205D01*
X127098102Y-101095226D01*
X127298061Y-101135000D01*
X127501939Y-101135000D01*
X127701898Y-101095226D01*
X127890256Y-101017205D01*
X128059774Y-100903937D01*
X128203937Y-100759774D01*
X128317205Y-100590256D01*
X128395226Y-100401898D01*
X128435000Y-100201939D01*
X128435000Y-99998061D01*
X128395226Y-99798102D01*
X128317205Y-99609744D01*
X128203937Y-99440226D01*
X128161772Y-99398061D01*
X130465000Y-99398061D01*
X130465000Y-99601939D01*
X130504774Y-99801898D01*
X130582795Y-99990256D01*
X130696063Y-100159774D01*
X130840226Y-100303937D01*
X131009744Y-100417205D01*
X131198102Y-100495226D01*
X131398061Y-100535000D01*
X131601939Y-100535000D01*
X131801898Y-100495226D01*
X131990256Y-100417205D01*
X132159774Y-100303937D01*
X132303937Y-100159774D01*
X132417205Y-99990256D01*
X132495226Y-99801898D01*
X132535000Y-99601939D01*
X132535000Y-99398061D01*
X132495226Y-99198102D01*
X132453788Y-99098061D01*
X134065000Y-99098061D01*
X134065000Y-99301939D01*
X134104774Y-99501898D01*
X134182795Y-99690256D01*
X134296063Y-99859774D01*
X134440226Y-100003937D01*
X134609744Y-100117205D01*
X134798102Y-100195226D01*
X134998061Y-100235000D01*
X135201939Y-100235000D01*
X135401898Y-100195226D01*
X135590256Y-100117205D01*
X135759774Y-100003937D01*
X135903937Y-99859774D01*
X136017205Y-99690256D01*
X136095226Y-99501898D01*
X136135000Y-99301939D01*
X136135000Y-99198061D01*
X138265000Y-99198061D01*
X138265000Y-99401939D01*
X138304774Y-99601898D01*
X138382795Y-99790256D01*
X138496063Y-99959774D01*
X138640226Y-100103937D01*
X138809744Y-100217205D01*
X138998102Y-100295226D01*
X139198061Y-100335000D01*
X139401939Y-100335000D01*
X139601898Y-100295226D01*
X139790256Y-100217205D01*
X139959774Y-100103937D01*
X140103937Y-99959774D01*
X140217205Y-99790256D01*
X140295226Y-99601898D01*
X140335000Y-99401939D01*
X140335000Y-99198061D01*
X140295226Y-98998102D01*
X140217205Y-98809744D01*
X140103937Y-98640226D01*
X139961772Y-98498061D01*
X140765000Y-98498061D01*
X140765000Y-98701939D01*
X140804774Y-98901898D01*
X140882795Y-99090256D01*
X140996063Y-99259774D01*
X141140226Y-99403937D01*
X141309744Y-99517205D01*
X141498102Y-99595226D01*
X141698061Y-99635000D01*
X141901939Y-99635000D01*
X142101898Y-99595226D01*
X142290256Y-99517205D01*
X142459774Y-99403937D01*
X142603937Y-99259774D01*
X142717205Y-99090256D01*
X142795226Y-98901898D01*
X142835000Y-98701939D01*
X142835000Y-98498061D01*
X142795226Y-98298102D01*
X142717205Y-98109744D01*
X142715727Y-98107531D01*
X142747536Y-98059925D01*
X142825557Y-97871567D01*
X142865331Y-97671608D01*
X142865331Y-97467730D01*
X142825557Y-97267771D01*
X142747536Y-97079413D01*
X142634268Y-96909895D01*
X142490105Y-96765732D01*
X142320587Y-96652464D01*
X142132229Y-96574443D01*
X141932270Y-96534669D01*
X141728392Y-96534669D01*
X141528433Y-96574443D01*
X141340075Y-96652464D01*
X141170557Y-96765732D01*
X141026394Y-96909895D01*
X140913126Y-97079413D01*
X140835105Y-97267771D01*
X140795331Y-97467730D01*
X140795331Y-97671608D01*
X140835105Y-97871567D01*
X140913126Y-98059925D01*
X140914604Y-98062138D01*
X140882795Y-98109744D01*
X140804774Y-98298102D01*
X140765000Y-98498061D01*
X139961772Y-98498061D01*
X139959774Y-98496063D01*
X139790256Y-98382795D01*
X139601898Y-98304774D01*
X139401939Y-98265000D01*
X139198061Y-98265000D01*
X138998102Y-98304774D01*
X138809744Y-98382795D01*
X138640226Y-98496063D01*
X138496063Y-98640226D01*
X138382795Y-98809744D01*
X138304774Y-98998102D01*
X138265000Y-99198061D01*
X136135000Y-99198061D01*
X136135000Y-99098061D01*
X136098736Y-98915746D01*
X136201898Y-98895226D01*
X136390256Y-98817205D01*
X136428164Y-98791875D01*
X136440226Y-98803937D01*
X136609744Y-98917205D01*
X136798102Y-98995226D01*
X136998061Y-99035000D01*
X137201939Y-99035000D01*
X137401898Y-98995226D01*
X137590256Y-98917205D01*
X137759774Y-98803937D01*
X137903937Y-98659774D01*
X138017205Y-98490256D01*
X138095226Y-98301898D01*
X138135000Y-98101939D01*
X138135000Y-97898061D01*
X138095226Y-97698102D01*
X138017205Y-97509744D01*
X137903937Y-97340226D01*
X137759774Y-97196063D01*
X137590256Y-97082795D01*
X137401898Y-97004774D01*
X137201939Y-96965000D01*
X136998061Y-96965000D01*
X136798102Y-97004774D01*
X136609744Y-97082795D01*
X136571836Y-97108125D01*
X136559774Y-97096063D01*
X136390256Y-96982795D01*
X136201898Y-96904774D01*
X136001939Y-96865000D01*
X135798061Y-96865000D01*
X135598102Y-96904774D01*
X135409744Y-96982795D01*
X135240226Y-97096063D01*
X135096063Y-97240226D01*
X134982795Y-97409744D01*
X134904774Y-97598102D01*
X134865000Y-97798061D01*
X134865000Y-98001939D01*
X134901264Y-98184254D01*
X134798102Y-98204774D01*
X134609744Y-98282795D01*
X134440226Y-98396063D01*
X134296063Y-98540226D01*
X134182795Y-98709744D01*
X134104774Y-98898102D01*
X134065000Y-99098061D01*
X132453788Y-99098061D01*
X132417205Y-99009744D01*
X132303937Y-98840226D01*
X132159774Y-98696063D01*
X131990256Y-98582795D01*
X131801898Y-98504774D01*
X131601939Y-98465000D01*
X131398061Y-98465000D01*
X131198102Y-98504774D01*
X131009744Y-98582795D01*
X130840226Y-98696063D01*
X130696063Y-98840226D01*
X130582795Y-99009744D01*
X130504774Y-99198102D01*
X130465000Y-99398061D01*
X128161772Y-99398061D01*
X128059774Y-99296063D01*
X127890256Y-99182795D01*
X127701898Y-99104774D01*
X127501939Y-99065000D01*
X127298061Y-99065000D01*
X127098102Y-99104774D01*
X126909744Y-99182795D01*
X126740226Y-99296063D01*
X126596063Y-99440226D01*
X126482795Y-99609744D01*
X126404774Y-99798102D01*
X126365000Y-99998061D01*
X122417616Y-99998061D01*
X122427932Y-99973158D01*
X122485000Y-99686260D01*
X122485000Y-99393740D01*
X122427932Y-99106842D01*
X122315990Y-98836589D01*
X122153475Y-98593368D01*
X121946632Y-98386525D01*
X121772240Y-98270000D01*
X121946632Y-98153475D01*
X122153475Y-97946632D01*
X122315990Y-97703411D01*
X122427932Y-97433158D01*
X122485000Y-97146260D01*
X122485000Y-96853740D01*
X122427932Y-96566842D01*
X122358021Y-96398061D01*
X122765000Y-96398061D01*
X122765000Y-96601939D01*
X122804774Y-96801898D01*
X122882795Y-96990256D01*
X122889306Y-97000000D01*
X122882795Y-97009744D01*
X122804774Y-97198102D01*
X122765000Y-97398061D01*
X122765000Y-97601939D01*
X122804774Y-97801898D01*
X122882795Y-97990256D01*
X122996063Y-98159774D01*
X123140226Y-98303937D01*
X123309744Y-98417205D01*
X123498102Y-98495226D01*
X123698061Y-98535000D01*
X123901939Y-98535000D01*
X124101898Y-98495226D01*
X124290256Y-98417205D01*
X124459774Y-98303937D01*
X124603937Y-98159774D01*
X124717205Y-97990256D01*
X124795226Y-97801898D01*
X124835000Y-97601939D01*
X124835000Y-97398061D01*
X124795226Y-97198102D01*
X124717205Y-97009744D01*
X124710694Y-97000000D01*
X124717205Y-96990256D01*
X124795226Y-96801898D01*
X124835000Y-96601939D01*
X124835000Y-96398061D01*
X124795226Y-96198102D01*
X124766487Y-96128720D01*
X124798061Y-96135000D01*
X125001939Y-96135000D01*
X125201898Y-96095226D01*
X125388025Y-96018129D01*
X125280682Y-96178780D01*
X125202661Y-96367138D01*
X125162887Y-96567097D01*
X125162887Y-96770975D01*
X125202661Y-96970934D01*
X125280682Y-97159292D01*
X125393950Y-97328810D01*
X125538113Y-97472973D01*
X125707631Y-97586241D01*
X125895989Y-97664262D01*
X126095948Y-97704036D01*
X126299826Y-97704036D01*
X126499785Y-97664262D01*
X126688143Y-97586241D01*
X126857661Y-97472973D01*
X127001824Y-97328810D01*
X127115092Y-97159292D01*
X127193113Y-96970934D01*
X127232887Y-96770975D01*
X127232887Y-96567097D01*
X127193113Y-96367138D01*
X127164501Y-96298061D01*
X130765000Y-96298061D01*
X130765000Y-96501939D01*
X130804774Y-96701898D01*
X130882795Y-96890256D01*
X130996063Y-97059774D01*
X131140226Y-97203937D01*
X131309744Y-97317205D01*
X131498102Y-97395226D01*
X131698061Y-97435000D01*
X131901939Y-97435000D01*
X132101898Y-97395226D01*
X132290256Y-97317205D01*
X132459774Y-97203937D01*
X132603937Y-97059774D01*
X132717205Y-96890256D01*
X132795226Y-96701898D01*
X132835000Y-96501939D01*
X132835000Y-96298061D01*
X132795226Y-96098102D01*
X132717205Y-95909744D01*
X132603937Y-95740226D01*
X132459774Y-95596063D01*
X132290256Y-95482795D01*
X132101898Y-95404774D01*
X132068150Y-95398061D01*
X134765000Y-95398061D01*
X134765000Y-95601939D01*
X134804774Y-95801898D01*
X134882795Y-95990256D01*
X134996063Y-96159774D01*
X135140226Y-96303937D01*
X135309744Y-96417205D01*
X135498102Y-96495226D01*
X135698061Y-96535000D01*
X135901939Y-96535000D01*
X136101898Y-96495226D01*
X136290256Y-96417205D01*
X136459774Y-96303937D01*
X136603937Y-96159774D01*
X136717205Y-95990256D01*
X136795226Y-95801898D01*
X136835000Y-95601939D01*
X136835000Y-95398061D01*
X136795226Y-95198102D01*
X136717205Y-95009744D01*
X136603937Y-94840226D01*
X136459774Y-94696063D01*
X136290256Y-94582795D01*
X136101898Y-94504774D01*
X135901939Y-94465000D01*
X135698061Y-94465000D01*
X135498102Y-94504774D01*
X135309744Y-94582795D01*
X135140226Y-94696063D01*
X134996063Y-94840226D01*
X134882795Y-95009744D01*
X134804774Y-95198102D01*
X134765000Y-95398061D01*
X132068150Y-95398061D01*
X131901939Y-95365000D01*
X131698061Y-95365000D01*
X131498102Y-95404774D01*
X131309744Y-95482795D01*
X131140226Y-95596063D01*
X130996063Y-95740226D01*
X130882795Y-95909744D01*
X130804774Y-96098102D01*
X130765000Y-96298061D01*
X127164501Y-96298061D01*
X127115092Y-96178780D01*
X127001824Y-96009262D01*
X126857661Y-95865099D01*
X126688143Y-95751831D01*
X126499785Y-95673810D01*
X126299826Y-95634036D01*
X126095948Y-95634036D01*
X125895989Y-95673810D01*
X125709862Y-95750907D01*
X125817205Y-95590256D01*
X125895226Y-95401898D01*
X125935000Y-95201939D01*
X125935000Y-94998061D01*
X125895226Y-94798102D01*
X125817205Y-94609744D01*
X125703937Y-94440226D01*
X125559774Y-94296063D01*
X125390256Y-94182795D01*
X125201898Y-94104774D01*
X125001939Y-94065000D01*
X124798061Y-94065000D01*
X124598102Y-94104774D01*
X124409744Y-94182795D01*
X124240226Y-94296063D01*
X124096063Y-94440226D01*
X123982795Y-94609744D01*
X123904774Y-94798102D01*
X123865000Y-94998061D01*
X123865000Y-95201939D01*
X123904774Y-95401898D01*
X123933513Y-95471280D01*
X123901939Y-95465000D01*
X123698061Y-95465000D01*
X123498102Y-95504774D01*
X123309744Y-95582795D01*
X123140226Y-95696063D01*
X122996063Y-95840226D01*
X122882795Y-96009744D01*
X122804774Y-96198102D01*
X122765000Y-96398061D01*
X122358021Y-96398061D01*
X122315990Y-96296589D01*
X122153475Y-96053368D01*
X121946632Y-95846525D01*
X121772240Y-95730000D01*
X121946632Y-95613475D01*
X122153475Y-95406632D01*
X122315990Y-95163411D01*
X122427932Y-94893158D01*
X122485000Y-94606260D01*
X122485000Y-94313740D01*
X122427932Y-94026842D01*
X122315990Y-93756589D01*
X122153475Y-93513368D01*
X121946632Y-93306525D01*
X121772240Y-93190000D01*
X121946632Y-93073475D01*
X122122046Y-92898061D01*
X135865000Y-92898061D01*
X135865000Y-93101939D01*
X135904774Y-93301898D01*
X135982795Y-93490256D01*
X136096063Y-93659774D01*
X136240226Y-93803937D01*
X136409744Y-93917205D01*
X136598102Y-93995226D01*
X136798061Y-94035000D01*
X137001939Y-94035000D01*
X137201898Y-93995226D01*
X137390256Y-93917205D01*
X137450000Y-93877285D01*
X137509744Y-93917205D01*
X137698102Y-93995226D01*
X137898061Y-94035000D01*
X138101939Y-94035000D01*
X138301898Y-93995226D01*
X138490256Y-93917205D01*
X138659774Y-93803937D01*
X138803937Y-93659774D01*
X138917205Y-93490256D01*
X138995226Y-93301898D01*
X139035000Y-93101939D01*
X139035000Y-92898061D01*
X138995226Y-92698102D01*
X138917205Y-92509744D01*
X138803937Y-92340226D01*
X138659774Y-92196063D01*
X138490256Y-92082795D01*
X138301898Y-92004774D01*
X138101939Y-91965000D01*
X137898061Y-91965000D01*
X137698102Y-92004774D01*
X137509744Y-92082795D01*
X137450000Y-92122715D01*
X137390256Y-92082795D01*
X137201898Y-92004774D01*
X137001939Y-91965000D01*
X136798061Y-91965000D01*
X136598102Y-92004774D01*
X136409744Y-92082795D01*
X136240226Y-92196063D01*
X136096063Y-92340226D01*
X135982795Y-92509744D01*
X135904774Y-92698102D01*
X135865000Y-92898061D01*
X122122046Y-92898061D01*
X122153475Y-92866632D01*
X122315990Y-92623411D01*
X122427932Y-92353158D01*
X122485000Y-92066260D01*
X122485000Y-91773740D01*
X122427932Y-91486842D01*
X122315990Y-91216589D01*
X122303610Y-91198061D01*
X127064989Y-91198061D01*
X127064989Y-91401939D01*
X127104763Y-91601898D01*
X127182784Y-91790256D01*
X127296052Y-91959774D01*
X127440215Y-92103937D01*
X127609733Y-92217205D01*
X127798091Y-92295226D01*
X127998050Y-92335000D01*
X128201928Y-92335000D01*
X128401887Y-92295226D01*
X128590245Y-92217205D01*
X128759763Y-92103937D01*
X128903926Y-91959774D01*
X129017194Y-91790256D01*
X129095215Y-91601898D01*
X129134989Y-91401939D01*
X129134989Y-91198061D01*
X129095215Y-90998102D01*
X129017194Y-90809744D01*
X128903926Y-90640226D01*
X128761761Y-90498061D01*
X134265000Y-90498061D01*
X134265000Y-90701939D01*
X134304774Y-90901898D01*
X134382795Y-91090256D01*
X134496063Y-91259774D01*
X134640226Y-91403937D01*
X134809744Y-91517205D01*
X134998102Y-91595226D01*
X135198061Y-91635000D01*
X135401939Y-91635000D01*
X135601898Y-91595226D01*
X135790256Y-91517205D01*
X135800000Y-91510694D01*
X135809744Y-91517205D01*
X135998102Y-91595226D01*
X136198061Y-91635000D01*
X136401939Y-91635000D01*
X136601898Y-91595226D01*
X136790256Y-91517205D01*
X136959774Y-91403937D01*
X137103937Y-91259774D01*
X137140931Y-91204408D01*
X137309744Y-91317205D01*
X137498102Y-91395226D01*
X137698061Y-91435000D01*
X137901939Y-91435000D01*
X138101898Y-91395226D01*
X138290256Y-91317205D01*
X138459774Y-91203937D01*
X138603937Y-91059774D01*
X138717205Y-90890256D01*
X138795226Y-90701898D01*
X138835000Y-90501939D01*
X138835000Y-90298061D01*
X138831692Y-90281426D01*
X139437295Y-90281426D01*
X139437295Y-90485304D01*
X139477069Y-90685263D01*
X139555090Y-90873621D01*
X139668358Y-91043139D01*
X139812521Y-91187302D01*
X139982039Y-91300570D01*
X140170397Y-91378591D01*
X140370356Y-91418365D01*
X140574234Y-91418365D01*
X140774193Y-91378591D01*
X140962551Y-91300570D01*
X141132069Y-91187302D01*
X141276232Y-91043139D01*
X141389500Y-90873621D01*
X141467521Y-90685263D01*
X141507295Y-90485304D01*
X141507295Y-90281426D01*
X141467521Y-90081467D01*
X141389500Y-89893109D01*
X141276232Y-89723591D01*
X141132069Y-89579428D01*
X140962551Y-89466160D01*
X140774193Y-89388139D01*
X140574234Y-89348365D01*
X140370356Y-89348365D01*
X140170397Y-89388139D01*
X139982039Y-89466160D01*
X139812521Y-89579428D01*
X139668358Y-89723591D01*
X139555090Y-89893109D01*
X139477069Y-90081467D01*
X139437295Y-90281426D01*
X138831692Y-90281426D01*
X138795226Y-90098102D01*
X138717205Y-89909744D01*
X138603937Y-89740226D01*
X138459774Y-89596063D01*
X138290256Y-89482795D01*
X138101898Y-89404774D01*
X137901939Y-89365000D01*
X137698061Y-89365000D01*
X137498102Y-89404774D01*
X137309744Y-89482795D01*
X137140226Y-89596063D01*
X136996063Y-89740226D01*
X136959069Y-89795592D01*
X136790256Y-89682795D01*
X136601898Y-89604774D01*
X136401939Y-89565000D01*
X136198061Y-89565000D01*
X135998102Y-89604774D01*
X135809744Y-89682795D01*
X135800000Y-89689306D01*
X135790256Y-89682795D01*
X135601898Y-89604774D01*
X135401939Y-89565000D01*
X135198061Y-89565000D01*
X134998102Y-89604774D01*
X134809744Y-89682795D01*
X134640226Y-89796063D01*
X134496063Y-89940226D01*
X134382795Y-90109744D01*
X134304774Y-90298102D01*
X134265000Y-90498061D01*
X128761761Y-90498061D01*
X128759763Y-90496063D01*
X128590245Y-90382795D01*
X128401887Y-90304774D01*
X128201928Y-90265000D01*
X127998050Y-90265000D01*
X127798091Y-90304774D01*
X127609733Y-90382795D01*
X127440215Y-90496063D01*
X127296052Y-90640226D01*
X127182784Y-90809744D01*
X127104763Y-90998102D01*
X127064989Y-91198061D01*
X122303610Y-91198061D01*
X122153475Y-90973368D01*
X121946632Y-90766525D01*
X121772240Y-90650000D01*
X121946632Y-90533475D01*
X122153475Y-90326632D01*
X122315990Y-90083411D01*
X122427932Y-89813158D01*
X122485000Y-89526260D01*
X122485000Y-89233740D01*
X122427932Y-88946842D01*
X122315990Y-88676589D01*
X122153475Y-88433368D01*
X121946632Y-88226525D01*
X121772240Y-88110000D01*
X121946632Y-87993475D01*
X122153475Y-87786632D01*
X122265000Y-87619723D01*
X122265000Y-87691939D01*
X122304774Y-87891898D01*
X122382795Y-88080256D01*
X122496063Y-88249774D01*
X122640226Y-88393937D01*
X122809744Y-88507205D01*
X122998102Y-88585226D01*
X123198061Y-88625000D01*
X123401939Y-88625000D01*
X123601898Y-88585226D01*
X123790256Y-88507205D01*
X123959774Y-88393937D01*
X124103937Y-88249774D01*
X124217205Y-88080256D01*
X124295226Y-87891898D01*
X124304217Y-87846695D01*
X124409744Y-87917205D01*
X124598102Y-87995226D01*
X124798061Y-88035000D01*
X125001939Y-88035000D01*
X125201898Y-87995226D01*
X125390256Y-87917205D01*
X125559774Y-87803937D01*
X125681055Y-87682656D01*
X125704774Y-87801898D01*
X125782795Y-87990256D01*
X125881285Y-88137658D01*
X125801898Y-88104774D01*
X125601939Y-88065000D01*
X125398061Y-88065000D01*
X125198102Y-88104774D01*
X125009744Y-88182795D01*
X124840226Y-88296063D01*
X124696063Y-88440226D01*
X124582795Y-88609744D01*
X124504774Y-88798102D01*
X124465000Y-88998061D01*
X124465000Y-89059907D01*
X124409744Y-89082795D01*
X124240226Y-89196063D01*
X124148056Y-89288233D01*
X123990256Y-89182795D01*
X123801898Y-89104774D01*
X123601939Y-89065000D01*
X123398061Y-89065000D01*
X123198102Y-89104774D01*
X123009744Y-89182795D01*
X122840226Y-89296063D01*
X122696063Y-89440226D01*
X122582795Y-89609744D01*
X122504774Y-89798102D01*
X122465000Y-89998061D01*
X122465000Y-90201939D01*
X122504774Y-90401898D01*
X122582795Y-90590256D01*
X122696063Y-90759774D01*
X122840226Y-90903937D01*
X123009744Y-91017205D01*
X123198102Y-91095226D01*
X123398061Y-91135000D01*
X123601939Y-91135000D01*
X123801898Y-91095226D01*
X123990256Y-91017205D01*
X124159774Y-90903937D01*
X124251944Y-90811767D01*
X124409744Y-90917205D01*
X124598102Y-90995226D01*
X124798061Y-91035000D01*
X125001939Y-91035000D01*
X125201898Y-90995226D01*
X125390256Y-90917205D01*
X125559774Y-90803937D01*
X125703937Y-90659774D01*
X125817205Y-90490256D01*
X125895226Y-90301898D01*
X125935000Y-90101939D01*
X125935000Y-90040093D01*
X125990256Y-90017205D01*
X126159774Y-89903937D01*
X126303937Y-89759774D01*
X126417205Y-89590256D01*
X126495226Y-89401898D01*
X126530798Y-89223060D01*
X129465000Y-89223060D01*
X129465000Y-89426938D01*
X129504774Y-89626897D01*
X129582795Y-89815255D01*
X129696063Y-89984773D01*
X129840226Y-90128936D01*
X130009744Y-90242204D01*
X130198102Y-90320225D01*
X130398061Y-90359999D01*
X130601939Y-90359999D01*
X130801898Y-90320225D01*
X130990256Y-90242204D01*
X131159774Y-90128936D01*
X131303937Y-89984773D01*
X131417205Y-89815255D01*
X131495226Y-89626897D01*
X131535000Y-89426938D01*
X131535000Y-89223060D01*
X131495226Y-89023101D01*
X131417205Y-88834743D01*
X131303937Y-88665225D01*
X131159774Y-88521062D01*
X130990256Y-88407794D01*
X130801898Y-88329773D01*
X130601939Y-88289999D01*
X130398061Y-88289999D01*
X130198102Y-88329773D01*
X130009744Y-88407794D01*
X129840226Y-88521062D01*
X129696063Y-88665225D01*
X129582795Y-88834743D01*
X129504774Y-89023101D01*
X129465000Y-89223060D01*
X126530798Y-89223060D01*
X126535000Y-89201939D01*
X126535000Y-88998061D01*
X126495226Y-88798102D01*
X126417205Y-88609744D01*
X126318715Y-88462342D01*
X126398102Y-88495226D01*
X126598061Y-88535000D01*
X126801939Y-88535000D01*
X127001898Y-88495226D01*
X127190256Y-88417205D01*
X127359774Y-88303937D01*
X127503937Y-88159774D01*
X127617205Y-87990256D01*
X127695226Y-87801898D01*
X127735000Y-87601939D01*
X127735000Y-87398061D01*
X127695226Y-87198102D01*
X127624920Y-87028370D01*
X127717205Y-86890256D01*
X127795226Y-86701898D01*
X127835000Y-86501939D01*
X127835000Y-86422456D01*
X127898061Y-86435000D01*
X128101939Y-86435000D01*
X128301898Y-86395226D01*
X128490256Y-86317205D01*
X128659774Y-86203937D01*
X128735739Y-86127972D01*
X128898102Y-86195226D01*
X129098061Y-86235000D01*
X129301939Y-86235000D01*
X129501898Y-86195226D01*
X129690256Y-86117205D01*
X129859774Y-86003937D01*
X130003937Y-85859774D01*
X130117205Y-85690256D01*
X130195226Y-85501898D01*
X130235000Y-85301939D01*
X130235000Y-85298061D01*
X137065000Y-85298061D01*
X137065000Y-85501939D01*
X137104774Y-85701898D01*
X137182795Y-85890256D01*
X137296063Y-86059774D01*
X137440226Y-86203937D01*
X137609744Y-86317205D01*
X137798102Y-86395226D01*
X137998061Y-86435000D01*
X138201939Y-86435000D01*
X138401898Y-86395226D01*
X138590256Y-86317205D01*
X138618907Y-86298061D01*
X139565000Y-86298061D01*
X139565000Y-86501939D01*
X139604774Y-86701898D01*
X139682795Y-86890256D01*
X139796063Y-87059774D01*
X139940226Y-87203937D01*
X140109744Y-87317205D01*
X140298102Y-87395226D01*
X140498061Y-87435000D01*
X140701939Y-87435000D01*
X140852786Y-87404995D01*
X140782795Y-87509744D01*
X140704774Y-87698102D01*
X140665000Y-87898061D01*
X140665000Y-88101939D01*
X140704774Y-88301898D01*
X140782795Y-88490256D01*
X140896063Y-88659774D01*
X141040226Y-88803937D01*
X141209744Y-88917205D01*
X141398102Y-88995226D01*
X141598061Y-89035000D01*
X141801939Y-89035000D01*
X142001898Y-88995226D01*
X142190256Y-88917205D01*
X142359774Y-88803937D01*
X142503937Y-88659774D01*
X142617205Y-88490256D01*
X142695226Y-88301898D01*
X142735000Y-88101939D01*
X142735000Y-87898061D01*
X142695226Y-87698102D01*
X142617205Y-87509744D01*
X142503937Y-87340226D01*
X142359774Y-87196063D01*
X142190256Y-87082795D01*
X142001898Y-87004774D01*
X141801939Y-86965000D01*
X141598061Y-86965000D01*
X141447214Y-86995005D01*
X141517205Y-86890256D01*
X141595226Y-86701898D01*
X141635000Y-86501939D01*
X141635000Y-86298061D01*
X141595226Y-86098102D01*
X141517205Y-85909744D01*
X141403937Y-85740226D01*
X141259774Y-85596063D01*
X141134614Y-85512434D01*
X141248061Y-85535000D01*
X141451939Y-85535000D01*
X141651898Y-85495226D01*
X141840256Y-85417205D01*
X142009774Y-85303937D01*
X142153937Y-85159774D01*
X142267205Y-84990256D01*
X142345226Y-84801898D01*
X142385000Y-84601939D01*
X142385000Y-84398061D01*
X142345226Y-84198102D01*
X142267205Y-84009744D01*
X142160468Y-83850000D01*
X142267205Y-83690256D01*
X142345226Y-83501898D01*
X142385000Y-83301939D01*
X142385000Y-83098061D01*
X142345226Y-82898102D01*
X142267205Y-82709744D01*
X142193877Y-82600000D01*
X142267205Y-82490256D01*
X142345226Y-82301898D01*
X142385000Y-82101939D01*
X142385000Y-81898061D01*
X142345226Y-81698102D01*
X142267205Y-81509744D01*
X142153937Y-81340226D01*
X142009774Y-81196063D01*
X141840256Y-81082795D01*
X141651898Y-81004774D01*
X141451939Y-80965000D01*
X141248061Y-80965000D01*
X141048102Y-81004774D01*
X140859744Y-81082795D01*
X140690226Y-81196063D01*
X140546063Y-81340226D01*
X140432795Y-81509744D01*
X140354774Y-81698102D01*
X140315000Y-81898061D01*
X140315000Y-82101939D01*
X140354774Y-82301898D01*
X140432795Y-82490256D01*
X140506123Y-82600000D01*
X140432795Y-82709744D01*
X140354774Y-82898102D01*
X140315000Y-83098061D01*
X140315000Y-83301939D01*
X140354774Y-83501898D01*
X140432795Y-83690256D01*
X140539532Y-83850000D01*
X140432795Y-84009744D01*
X140354774Y-84198102D01*
X140315000Y-84398061D01*
X140315000Y-84601939D01*
X140354774Y-84801898D01*
X140432795Y-84990256D01*
X140546063Y-85159774D01*
X140690226Y-85303937D01*
X140815386Y-85387566D01*
X140701939Y-85365000D01*
X140498061Y-85365000D01*
X140298102Y-85404774D01*
X140109744Y-85482795D01*
X139940226Y-85596063D01*
X139796063Y-85740226D01*
X139682795Y-85909744D01*
X139604774Y-86098102D01*
X139565000Y-86298061D01*
X138618907Y-86298061D01*
X138759774Y-86203937D01*
X138903937Y-86059774D01*
X139017205Y-85890256D01*
X139095226Y-85701898D01*
X139135000Y-85501939D01*
X139135000Y-85298061D01*
X139095226Y-85098102D01*
X139017205Y-84909744D01*
X138903937Y-84740226D01*
X138759774Y-84596063D01*
X138590256Y-84482795D01*
X138401898Y-84404774D01*
X138201939Y-84365000D01*
X137998061Y-84365000D01*
X137798102Y-84404774D01*
X137609744Y-84482795D01*
X137440226Y-84596063D01*
X137296063Y-84740226D01*
X137182795Y-84909744D01*
X137104774Y-85098102D01*
X137065000Y-85298061D01*
X130235000Y-85298061D01*
X130235000Y-85098061D01*
X130195226Y-84898102D01*
X130117205Y-84709744D01*
X130003937Y-84540226D01*
X129859774Y-84396063D01*
X129690256Y-84282795D01*
X129501898Y-84204774D01*
X129301939Y-84165000D01*
X129098061Y-84165000D01*
X128898102Y-84204774D01*
X128709744Y-84282795D01*
X128540226Y-84396063D01*
X128464261Y-84472028D01*
X128301898Y-84404774D01*
X128125708Y-84369728D01*
X128195226Y-84201898D01*
X128235000Y-84001939D01*
X128235000Y-83908533D01*
X128301898Y-83895226D01*
X128490256Y-83817205D01*
X128659774Y-83703937D01*
X128803937Y-83559774D01*
X128917205Y-83390256D01*
X128995226Y-83201898D01*
X129028424Y-83035000D01*
X129201939Y-83035000D01*
X129401898Y-82995226D01*
X129590256Y-82917205D01*
X129759774Y-82803937D01*
X129811890Y-82751821D01*
X129909744Y-82817205D01*
X130098102Y-82895226D01*
X130298061Y-82935000D01*
X130501939Y-82935000D01*
X130701898Y-82895226D01*
X130890256Y-82817205D01*
X131059774Y-82703937D01*
X131072758Y-82690953D01*
X134057892Y-82690953D01*
X134057892Y-82894831D01*
X134097666Y-83094790D01*
X134175687Y-83283148D01*
X134288955Y-83452666D01*
X134433118Y-83596829D01*
X134602636Y-83710097D01*
X134790994Y-83788118D01*
X134802488Y-83790404D01*
X134804774Y-83801898D01*
X134882795Y-83990256D01*
X134996063Y-84159774D01*
X135140226Y-84303937D01*
X135309744Y-84417205D01*
X135498102Y-84495226D01*
X135698061Y-84535000D01*
X135901939Y-84535000D01*
X136101898Y-84495226D01*
X136290256Y-84417205D01*
X136459774Y-84303937D01*
X136603937Y-84159774D01*
X136717205Y-83990256D01*
X136795226Y-83801898D01*
X136835000Y-83601939D01*
X136835000Y-83398061D01*
X136795226Y-83198102D01*
X136717205Y-83009744D01*
X136603937Y-82840226D01*
X136459774Y-82696063D01*
X136290256Y-82582795D01*
X136101898Y-82504774D01*
X136090404Y-82502488D01*
X136088118Y-82490994D01*
X136010097Y-82302636D01*
X135896829Y-82133118D01*
X135752666Y-81988955D01*
X135583148Y-81875687D01*
X135394790Y-81797666D01*
X135194831Y-81757892D01*
X134990953Y-81757892D01*
X134790994Y-81797666D01*
X134602636Y-81875687D01*
X134433118Y-81988955D01*
X134288955Y-82133118D01*
X134175687Y-82302636D01*
X134097666Y-82490994D01*
X134057892Y-82690953D01*
X131072758Y-82690953D01*
X131203937Y-82559774D01*
X131317205Y-82390256D01*
X131395226Y-82201898D01*
X131435000Y-82001939D01*
X131435000Y-81798061D01*
X131395226Y-81598102D01*
X131317205Y-81409744D01*
X131203937Y-81240226D01*
X131059774Y-81096063D01*
X130890256Y-80982795D01*
X130701898Y-80904774D01*
X130501939Y-80865000D01*
X130298061Y-80865000D01*
X130098102Y-80904774D01*
X129909744Y-80982795D01*
X129740226Y-81096063D01*
X129688110Y-81148179D01*
X129590256Y-81082795D01*
X129401898Y-81004774D01*
X129201939Y-80965000D01*
X128998061Y-80965000D01*
X128798102Y-81004774D01*
X128609744Y-81082795D01*
X128440226Y-81196063D01*
X128296063Y-81340226D01*
X128182795Y-81509744D01*
X128104774Y-81698102D01*
X128071576Y-81865000D01*
X127898061Y-81865000D01*
X127698102Y-81904774D01*
X127509744Y-81982795D01*
X127340226Y-82096063D01*
X127196063Y-82240226D01*
X127082795Y-82409744D01*
X127004774Y-82598102D01*
X126965000Y-82798061D01*
X126965000Y-82891467D01*
X126898102Y-82904774D01*
X126709744Y-82982795D01*
X126540226Y-83096063D01*
X126396063Y-83240226D01*
X126282795Y-83409744D01*
X126204774Y-83598102D01*
X126165000Y-83798061D01*
X126165000Y-84001939D01*
X126204774Y-84201898D01*
X126282795Y-84390256D01*
X126396063Y-84559774D01*
X126540226Y-84703937D01*
X126709744Y-84817205D01*
X126898102Y-84895226D01*
X127074292Y-84930272D01*
X127004774Y-85098102D01*
X126965000Y-85298061D01*
X126965000Y-85377544D01*
X126901939Y-85365000D01*
X126698061Y-85365000D01*
X126498102Y-85404774D01*
X126309744Y-85482795D01*
X126140226Y-85596063D01*
X125996063Y-85740226D01*
X125882795Y-85909744D01*
X125804774Y-86098102D01*
X125765000Y-86298061D01*
X125765000Y-86431613D01*
X125703937Y-86340226D01*
X125559774Y-86196063D01*
X125390256Y-86082795D01*
X125201898Y-86004774D01*
X125001939Y-85965000D01*
X124798061Y-85965000D01*
X124598102Y-86004774D01*
X124409744Y-86082795D01*
X124240226Y-86196063D01*
X124096063Y-86340226D01*
X123982795Y-86509744D01*
X123904774Y-86698102D01*
X123895783Y-86743305D01*
X123790256Y-86672795D01*
X123601898Y-86594774D01*
X123401939Y-86555000D01*
X123198061Y-86555000D01*
X122998102Y-86594774D01*
X122809744Y-86672795D01*
X122640226Y-86786063D01*
X122496063Y-86930226D01*
X122485000Y-86946783D01*
X122485000Y-86693740D01*
X122427932Y-86406842D01*
X122315990Y-86136589D01*
X122153475Y-85893368D01*
X121946632Y-85686525D01*
X121772240Y-85570000D01*
X121946632Y-85453475D01*
X122153475Y-85246632D01*
X122315990Y-85003411D01*
X122418400Y-84756171D01*
X122509744Y-84817205D01*
X122698102Y-84895226D01*
X122898061Y-84935000D01*
X123101939Y-84935000D01*
X123301898Y-84895226D01*
X123490256Y-84817205D01*
X123659774Y-84703937D01*
X123803937Y-84559774D01*
X123917205Y-84390256D01*
X123995226Y-84201898D01*
X124035000Y-84001939D01*
X124035000Y-83798061D01*
X123995226Y-83598102D01*
X123917205Y-83409744D01*
X123911884Y-83401780D01*
X123924373Y-83383088D01*
X124002394Y-83194730D01*
X124042168Y-82994771D01*
X124042168Y-82790893D01*
X124002394Y-82590934D01*
X123924373Y-82402576D01*
X123811105Y-82233058D01*
X123666942Y-82088895D01*
X123497424Y-81975627D01*
X123309066Y-81897606D01*
X123109107Y-81857832D01*
X122905229Y-81857832D01*
X122705270Y-81897606D01*
X122516912Y-81975627D01*
X122464195Y-82010851D01*
X122485000Y-81906260D01*
X122485000Y-81613740D01*
X122427932Y-81326842D01*
X122315990Y-81056589D01*
X122153475Y-80813368D01*
X121946632Y-80606525D01*
X121933965Y-80598061D01*
X138665000Y-80598061D01*
X138665000Y-80801939D01*
X138704774Y-81001898D01*
X138782795Y-81190256D01*
X138896063Y-81359774D01*
X139040226Y-81503937D01*
X139209744Y-81617205D01*
X139398102Y-81695226D01*
X139598061Y-81735000D01*
X139801939Y-81735000D01*
X140001898Y-81695226D01*
X140190256Y-81617205D01*
X140359774Y-81503937D01*
X140503937Y-81359774D01*
X140617205Y-81190256D01*
X140695226Y-81001898D01*
X140735000Y-80801939D01*
X140735000Y-80598061D01*
X140715109Y-80498061D01*
X142365000Y-80498061D01*
X142365000Y-80701939D01*
X142404774Y-80901898D01*
X142482795Y-81090256D01*
X142596063Y-81259774D01*
X142740226Y-81403937D01*
X142767443Y-81422122D01*
X142765002Y-81434392D01*
X142765002Y-81638270D01*
X142804776Y-81838229D01*
X142882797Y-82026587D01*
X142996065Y-82196105D01*
X143140228Y-82340268D01*
X143309746Y-82453536D01*
X143498104Y-82531557D01*
X143698063Y-82571331D01*
X143901941Y-82571331D01*
X144101900Y-82531557D01*
X144290258Y-82453536D01*
X144459776Y-82340268D01*
X144603939Y-82196105D01*
X144717207Y-82026587D01*
X144795228Y-81838229D01*
X144835002Y-81638270D01*
X144835002Y-81434392D01*
X144795228Y-81234433D01*
X144717207Y-81046075D01*
X144603939Y-80876557D01*
X144459776Y-80732394D01*
X144432559Y-80714209D01*
X144435000Y-80701939D01*
X144435000Y-80498061D01*
X144395226Y-80298102D01*
X144345740Y-80178633D01*
X144362892Y-80161481D01*
X144476160Y-79991963D01*
X144554181Y-79803605D01*
X144593955Y-79603646D01*
X144593955Y-79399768D01*
X144554181Y-79199809D01*
X144476160Y-79011451D01*
X144466587Y-78997124D01*
X144603937Y-78859774D01*
X144717205Y-78690256D01*
X144795226Y-78501898D01*
X144835000Y-78301939D01*
X144835000Y-78098061D01*
X144795226Y-77898102D01*
X144717205Y-77709744D01*
X144603937Y-77540226D01*
X144459774Y-77396063D01*
X144290256Y-77282795D01*
X144101898Y-77204774D01*
X143901939Y-77165000D01*
X143698061Y-77165000D01*
X143498102Y-77204774D01*
X143309744Y-77282795D01*
X143140226Y-77396063D01*
X142996063Y-77540226D01*
X142882795Y-77709744D01*
X142804774Y-77898102D01*
X142765000Y-78098061D01*
X142765000Y-78301939D01*
X142804774Y-78501898D01*
X142882795Y-78690256D01*
X142892368Y-78704583D01*
X142755018Y-78841933D01*
X142641750Y-79011451D01*
X142563729Y-79199809D01*
X142523955Y-79399768D01*
X142523955Y-79603646D01*
X142563729Y-79803605D01*
X142613215Y-79923074D01*
X142596063Y-79940226D01*
X142482795Y-80109744D01*
X142404774Y-80298102D01*
X142365000Y-80498061D01*
X140715109Y-80498061D01*
X140695226Y-80398102D01*
X140617205Y-80209744D01*
X140503937Y-80040226D01*
X140359774Y-79896063D01*
X140190256Y-79782795D01*
X140001898Y-79704774D01*
X139801939Y-79665000D01*
X139598061Y-79665000D01*
X139398102Y-79704774D01*
X139209744Y-79782795D01*
X139040226Y-79896063D01*
X138896063Y-80040226D01*
X138782795Y-80209744D01*
X138704774Y-80398102D01*
X138665000Y-80598061D01*
X121933965Y-80598061D01*
X121772240Y-80490000D01*
X121946632Y-80373475D01*
X122153475Y-80166632D01*
X122315990Y-79923411D01*
X122427932Y-79653158D01*
X122485000Y-79366260D01*
X122485000Y-79073740D01*
X122427932Y-78786842D01*
X122315990Y-78516589D01*
X122153475Y-78273368D01*
X121946632Y-78066525D01*
X121772240Y-77950000D01*
X121946632Y-77833475D01*
X122153475Y-77626632D01*
X122315990Y-77383411D01*
X122427932Y-77113158D01*
X122485000Y-76826260D01*
X122485000Y-76533740D01*
X122427932Y-76246842D01*
X122315990Y-75976589D01*
X122153475Y-75733368D01*
X121946632Y-75526525D01*
X121772240Y-75410000D01*
X121946632Y-75293475D01*
X122153475Y-75086632D01*
X122315990Y-74843411D01*
X122427932Y-74573158D01*
X122455236Y-74435890D01*
X128564998Y-74435890D01*
X128564998Y-74639768D01*
X128604772Y-74839727D01*
X128682793Y-75028085D01*
X128796061Y-75197603D01*
X128940224Y-75341766D01*
X129109742Y-75455034D01*
X129298100Y-75533055D01*
X129498059Y-75572829D01*
X129701937Y-75572829D01*
X129901896Y-75533055D01*
X129984758Y-75498732D01*
X129965000Y-75598061D01*
X129965000Y-75801939D01*
X130004774Y-76001898D01*
X130082795Y-76190256D01*
X130196063Y-76359774D01*
X130236289Y-76400000D01*
X130196063Y-76440226D01*
X130082795Y-76609744D01*
X130004774Y-76798102D01*
X129965000Y-76998061D01*
X129965000Y-77201939D01*
X130004774Y-77401898D01*
X130082795Y-77590256D01*
X130196063Y-77759774D01*
X130236289Y-77800000D01*
X130196063Y-77840226D01*
X130082795Y-78009744D01*
X130004774Y-78198102D01*
X129965000Y-78398061D01*
X129965000Y-78601939D01*
X130004774Y-78801898D01*
X130082795Y-78990256D01*
X130196063Y-79159774D01*
X130340226Y-79303937D01*
X130509744Y-79417205D01*
X130698102Y-79495226D01*
X130898061Y-79535000D01*
X131101939Y-79535000D01*
X131301898Y-79495226D01*
X131490256Y-79417205D01*
X131659774Y-79303937D01*
X131803937Y-79159774D01*
X131850000Y-79090836D01*
X131896063Y-79159774D01*
X132040226Y-79303937D01*
X132209744Y-79417205D01*
X132398102Y-79495226D01*
X132598061Y-79535000D01*
X132801939Y-79535000D01*
X133001898Y-79495226D01*
X133190256Y-79417205D01*
X133359774Y-79303937D01*
X133503937Y-79159774D01*
X133550000Y-79090836D01*
X133596063Y-79159774D01*
X133740226Y-79303937D01*
X133909744Y-79417205D01*
X134098102Y-79495226D01*
X134298061Y-79535000D01*
X134501939Y-79535000D01*
X134701898Y-79495226D01*
X134890256Y-79417205D01*
X135059774Y-79303937D01*
X135203937Y-79159774D01*
X135311989Y-78998061D01*
X135565000Y-78998061D01*
X135565000Y-79201939D01*
X135604774Y-79401898D01*
X135682795Y-79590256D01*
X135796063Y-79759774D01*
X135940226Y-79903937D01*
X136109744Y-80017205D01*
X136298102Y-80095226D01*
X136498061Y-80135000D01*
X136701939Y-80135000D01*
X136901898Y-80095226D01*
X137090256Y-80017205D01*
X137259774Y-79903937D01*
X137403937Y-79759774D01*
X137517205Y-79590256D01*
X137595226Y-79401898D01*
X137635000Y-79201939D01*
X137635000Y-78998061D01*
X137595226Y-78798102D01*
X137517205Y-78609744D01*
X137403937Y-78440226D01*
X137259774Y-78296063D01*
X137090256Y-78182795D01*
X136901898Y-78104774D01*
X136701939Y-78065000D01*
X136498061Y-78065000D01*
X136298102Y-78104774D01*
X136109744Y-78182795D01*
X135940226Y-78296063D01*
X135796063Y-78440226D01*
X135682795Y-78609744D01*
X135604774Y-78798102D01*
X135565000Y-78998061D01*
X135311989Y-78998061D01*
X135317205Y-78990256D01*
X135395226Y-78801898D01*
X135435000Y-78601939D01*
X135435000Y-78398061D01*
X135395226Y-78198102D01*
X135317205Y-78009744D01*
X135203937Y-77840226D01*
X135163711Y-77800000D01*
X135203937Y-77759774D01*
X135317205Y-77590256D01*
X135395226Y-77401898D01*
X135435000Y-77201939D01*
X135435000Y-77098061D01*
X136465000Y-77098061D01*
X136465000Y-77301939D01*
X136504774Y-77501898D01*
X136582795Y-77690256D01*
X136696063Y-77859774D01*
X136840226Y-78003937D01*
X137009744Y-78117205D01*
X137198102Y-78195226D01*
X137398061Y-78235000D01*
X137466004Y-78235000D01*
X137466944Y-78239728D01*
X137544965Y-78428086D01*
X137658233Y-78597604D01*
X137802396Y-78741767D01*
X137971914Y-78855035D01*
X138160272Y-78933056D01*
X138360231Y-78972830D01*
X138564109Y-78972830D01*
X138764068Y-78933056D01*
X138952426Y-78855035D01*
X139121944Y-78741767D01*
X139266107Y-78597604D01*
X139379375Y-78428086D01*
X139457396Y-78239728D01*
X139497170Y-78039769D01*
X139497170Y-77998061D01*
X139865000Y-77998061D01*
X139865000Y-78201939D01*
X139904774Y-78401898D01*
X139982795Y-78590256D01*
X140096063Y-78759774D01*
X140240226Y-78903937D01*
X140409744Y-79017205D01*
X140598102Y-79095226D01*
X140798061Y-79135000D01*
X141001939Y-79135000D01*
X141201898Y-79095226D01*
X141390256Y-79017205D01*
X141559774Y-78903937D01*
X141703937Y-78759774D01*
X141817205Y-78590256D01*
X141895226Y-78401898D01*
X141935000Y-78201939D01*
X141935000Y-77998061D01*
X141895226Y-77798102D01*
X141817205Y-77609744D01*
X141703937Y-77440226D01*
X141559774Y-77296063D01*
X141390256Y-77182795D01*
X141201898Y-77104774D01*
X141001939Y-77065000D01*
X140798061Y-77065000D01*
X140598102Y-77104774D01*
X140409744Y-77182795D01*
X140240226Y-77296063D01*
X140096063Y-77440226D01*
X139982795Y-77609744D01*
X139904774Y-77798102D01*
X139865000Y-77998061D01*
X139497170Y-77998061D01*
X139497170Y-77835891D01*
X139457396Y-77635932D01*
X139379375Y-77447574D01*
X139266107Y-77278056D01*
X139121944Y-77133893D01*
X138952426Y-77020625D01*
X138764068Y-76942604D01*
X138564109Y-76902830D01*
X138496166Y-76902830D01*
X138495226Y-76898102D01*
X138469088Y-76835000D01*
X138601939Y-76835000D01*
X138801898Y-76795226D01*
X138990256Y-76717205D01*
X139159774Y-76603937D01*
X139303937Y-76459774D01*
X139417205Y-76290256D01*
X139495226Y-76101898D01*
X139535000Y-75901939D01*
X139535000Y-75698061D01*
X139495226Y-75498102D01*
X139495210Y-75498061D01*
X139865000Y-75498061D01*
X139865000Y-75701939D01*
X139904774Y-75901898D01*
X139982795Y-76090256D01*
X140096063Y-76259774D01*
X140240226Y-76403937D01*
X140409744Y-76517205D01*
X140598102Y-76595226D01*
X140798061Y-76635000D01*
X141001939Y-76635000D01*
X141201898Y-76595226D01*
X141390256Y-76517205D01*
X141559774Y-76403937D01*
X141703937Y-76259774D01*
X141817205Y-76090256D01*
X141895226Y-75901898D01*
X141935000Y-75701939D01*
X141935000Y-75498061D01*
X141895226Y-75298102D01*
X141817205Y-75109744D01*
X141703937Y-74940226D01*
X141559774Y-74796063D01*
X141390256Y-74682795D01*
X141201898Y-74604774D01*
X141001939Y-74565000D01*
X140798061Y-74565000D01*
X140598102Y-74604774D01*
X140409744Y-74682795D01*
X140240226Y-74796063D01*
X140096063Y-74940226D01*
X139982795Y-75109744D01*
X139904774Y-75298102D01*
X139865000Y-75498061D01*
X139495210Y-75498061D01*
X139417205Y-75309744D01*
X139303937Y-75140226D01*
X139159774Y-74996063D01*
X138990256Y-74882795D01*
X138801898Y-74804774D01*
X138601939Y-74765000D01*
X138398061Y-74765000D01*
X138198102Y-74804774D01*
X138009744Y-74882795D01*
X137840226Y-74996063D01*
X137696063Y-75140226D01*
X137582795Y-75309744D01*
X137504774Y-75498102D01*
X137465000Y-75698061D01*
X137465000Y-75901939D01*
X137504774Y-76101898D01*
X137530912Y-76165000D01*
X137398061Y-76165000D01*
X137198102Y-76204774D01*
X137009744Y-76282795D01*
X136840226Y-76396063D01*
X136696063Y-76540226D01*
X136582795Y-76709744D01*
X136504774Y-76898102D01*
X136465000Y-77098061D01*
X135435000Y-77098061D01*
X135435000Y-76998061D01*
X135395226Y-76798102D01*
X135317205Y-76609744D01*
X135203937Y-76440226D01*
X135163711Y-76400000D01*
X135203937Y-76359774D01*
X135317205Y-76190256D01*
X135395226Y-76001898D01*
X135435000Y-75801939D01*
X135435000Y-75598061D01*
X135395226Y-75398102D01*
X135317205Y-75209744D01*
X135203937Y-75040226D01*
X135059774Y-74896063D01*
X134890256Y-74782795D01*
X134701898Y-74704774D01*
X134501939Y-74665000D01*
X134298061Y-74665000D01*
X134098102Y-74704774D01*
X133909744Y-74782795D01*
X133740226Y-74896063D01*
X133596063Y-75040226D01*
X133550000Y-75109164D01*
X133503937Y-75040226D01*
X133359774Y-74896063D01*
X133190256Y-74782795D01*
X133001898Y-74704774D01*
X132801939Y-74665000D01*
X132598061Y-74665000D01*
X132398102Y-74704774D01*
X132209744Y-74782795D01*
X132040226Y-74896063D01*
X131896063Y-75040226D01*
X131850000Y-75109164D01*
X131803937Y-75040226D01*
X131659774Y-74896063D01*
X131490256Y-74782795D01*
X131301898Y-74704774D01*
X131101939Y-74665000D01*
X130898061Y-74665000D01*
X130698102Y-74704774D01*
X130615240Y-74739097D01*
X130634998Y-74639768D01*
X130634998Y-74435890D01*
X130595224Y-74235931D01*
X130517203Y-74047573D01*
X130403935Y-73878055D01*
X130259772Y-73733892D01*
X130090254Y-73620624D01*
X129901896Y-73542603D01*
X129701937Y-73502829D01*
X129498059Y-73502829D01*
X129298100Y-73542603D01*
X129109742Y-73620624D01*
X128940224Y-73733892D01*
X128796061Y-73878055D01*
X128682793Y-74047573D01*
X128604772Y-74235931D01*
X128564998Y-74435890D01*
X122455236Y-74435890D01*
X122485000Y-74286260D01*
X122485000Y-73993740D01*
X122427932Y-73706842D01*
X122315990Y-73436589D01*
X122153475Y-73193368D01*
X121946632Y-72986525D01*
X121772240Y-72870000D01*
X121946632Y-72753475D01*
X122153475Y-72546632D01*
X122229360Y-72433061D01*
X131965000Y-72433061D01*
X131965000Y-72636939D01*
X132004774Y-72836898D01*
X132082795Y-73025256D01*
X132196063Y-73194774D01*
X132340226Y-73338937D01*
X132509744Y-73452205D01*
X132698102Y-73530226D01*
X132892926Y-73568979D01*
X132916944Y-73689728D01*
X132994965Y-73878086D01*
X133108233Y-74047604D01*
X133252396Y-74191767D01*
X133421914Y-74305035D01*
X133610272Y-74383056D01*
X133810231Y-74422830D01*
X134014109Y-74422830D01*
X134214068Y-74383056D01*
X134402426Y-74305035D01*
X134571944Y-74191767D01*
X134716107Y-74047604D01*
X134829375Y-73878086D01*
X134907396Y-73689728D01*
X134947170Y-73489769D01*
X134947170Y-73285891D01*
X134907396Y-73085932D01*
X134829375Y-72897574D01*
X134716107Y-72728056D01*
X134571944Y-72583893D01*
X134402426Y-72470625D01*
X134214068Y-72392604D01*
X134019244Y-72353851D01*
X133995226Y-72233102D01*
X133917205Y-72044744D01*
X133803937Y-71875226D01*
X133659774Y-71731063D01*
X133490256Y-71617795D01*
X133301898Y-71539774D01*
X133101939Y-71500000D01*
X132898061Y-71500000D01*
X132698102Y-71539774D01*
X132509744Y-71617795D01*
X132340226Y-71731063D01*
X132196063Y-71875226D01*
X132082795Y-72044744D01*
X132004774Y-72233102D01*
X131965000Y-72433061D01*
X122229360Y-72433061D01*
X122315990Y-72303411D01*
X122427932Y-72033158D01*
X122485000Y-71746260D01*
X122485000Y-71453740D01*
X122427932Y-71166842D01*
X122315990Y-70896589D01*
X122153475Y-70653368D01*
X122021620Y-70521513D01*
X122094180Y-70499502D01*
X122204494Y-70440537D01*
X122301185Y-70361185D01*
X122380537Y-70264494D01*
X122390833Y-70245230D01*
X138217831Y-70245230D01*
X138217831Y-70449108D01*
X138257605Y-70649067D01*
X138335626Y-70837425D01*
X138448894Y-71006943D01*
X138593057Y-71151106D01*
X138762575Y-71264374D01*
X138950933Y-71342395D01*
X139150892Y-71382169D01*
X139354770Y-71382169D01*
X139417518Y-71369688D01*
X139466180Y-71487167D01*
X139394108Y-71472831D01*
X139190230Y-71472831D01*
X138990271Y-71512605D01*
X138801913Y-71590626D01*
X138632395Y-71703894D01*
X138488232Y-71848057D01*
X138374964Y-72017575D01*
X138296943Y-72205933D01*
X138257169Y-72405892D01*
X138257169Y-72609770D01*
X138296943Y-72809729D01*
X138374964Y-72998087D01*
X138488232Y-73167605D01*
X138632395Y-73311768D01*
X138801913Y-73425036D01*
X138990271Y-73503057D01*
X139190230Y-73542831D01*
X139394108Y-73542831D01*
X139594067Y-73503057D01*
X139782425Y-73425036D01*
X139951943Y-73311768D01*
X140096106Y-73167605D01*
X140209374Y-72998087D01*
X140287395Y-72809729D01*
X140327169Y-72609770D01*
X140327169Y-72405892D01*
X140287395Y-72205933D01*
X140231364Y-72070664D01*
X140303436Y-72085000D01*
X140507314Y-72085000D01*
X140707273Y-72045226D01*
X140895631Y-71967205D01*
X141065149Y-71853937D01*
X141209312Y-71709774D01*
X141322580Y-71540256D01*
X141400601Y-71351898D01*
X141440375Y-71151939D01*
X141440375Y-70948061D01*
X141400601Y-70748102D01*
X141322580Y-70559744D01*
X141209312Y-70390226D01*
X141128843Y-70309757D01*
X141201898Y-70295226D01*
X141390256Y-70217205D01*
X141559774Y-70103937D01*
X141703937Y-69959774D01*
X141817205Y-69790256D01*
X141895226Y-69601898D01*
X141935000Y-69401939D01*
X141935000Y-69198061D01*
X141895226Y-68998102D01*
X141817205Y-68809744D01*
X141703937Y-68640226D01*
X141559774Y-68496063D01*
X141390256Y-68382795D01*
X141201898Y-68304774D01*
X141001939Y-68265000D01*
X140798061Y-68265000D01*
X140598102Y-68304774D01*
X140409744Y-68382795D01*
X140240226Y-68496063D01*
X140096063Y-68640226D01*
X139982795Y-68809744D01*
X139904774Y-68998102D01*
X139865000Y-69198061D01*
X139865000Y-69401939D01*
X139890116Y-69528205D01*
X139743087Y-69429964D01*
X139554729Y-69351943D01*
X139354770Y-69312169D01*
X139150892Y-69312169D01*
X138950933Y-69351943D01*
X138762575Y-69429964D01*
X138593057Y-69543232D01*
X138448894Y-69687395D01*
X138335626Y-69856913D01*
X138257605Y-70045271D01*
X138217831Y-70245230D01*
X122390833Y-70245230D01*
X122439502Y-70154180D01*
X122475812Y-70034482D01*
X122488072Y-69910000D01*
X122488072Y-69098061D01*
X125465000Y-69098061D01*
X125465000Y-69301939D01*
X125504774Y-69501898D01*
X125582795Y-69690256D01*
X125696063Y-69859774D01*
X125840226Y-70003937D01*
X126009744Y-70117205D01*
X126198102Y-70195226D01*
X126398061Y-70235000D01*
X126601939Y-70235000D01*
X126801898Y-70195226D01*
X126990256Y-70117205D01*
X127159774Y-70003937D01*
X127303937Y-69859774D01*
X127417205Y-69690256D01*
X127495226Y-69501898D01*
X127535000Y-69301939D01*
X127535000Y-69098061D01*
X127495226Y-68898102D01*
X127417205Y-68709744D01*
X127303937Y-68540226D01*
X127159774Y-68396063D01*
X126990256Y-68282795D01*
X126801898Y-68204774D01*
X126601939Y-68165000D01*
X126398061Y-68165000D01*
X126198102Y-68204774D01*
X126009744Y-68282795D01*
X125840226Y-68396063D01*
X125696063Y-68540226D01*
X125582795Y-68709744D01*
X125504774Y-68898102D01*
X125465000Y-69098061D01*
X122488072Y-69098061D01*
X122488072Y-68210000D01*
X122477048Y-68098061D01*
X137265000Y-68098061D01*
X137265000Y-68301939D01*
X137304774Y-68501898D01*
X137382795Y-68690256D01*
X137496063Y-68859774D01*
X137640226Y-69003937D01*
X137809744Y-69117205D01*
X137998102Y-69195226D01*
X138198061Y-69235000D01*
X138401939Y-69235000D01*
X138601898Y-69195226D01*
X138790256Y-69117205D01*
X138959774Y-69003937D01*
X139103937Y-68859774D01*
X139217205Y-68690256D01*
X139295226Y-68501898D01*
X139335000Y-68301939D01*
X139335000Y-68098061D01*
X139295226Y-67898102D01*
X139217205Y-67709744D01*
X139103937Y-67540226D01*
X138959774Y-67396063D01*
X138790256Y-67282795D01*
X138601898Y-67204774D01*
X138401939Y-67165000D01*
X138198061Y-67165000D01*
X137998102Y-67204774D01*
X137809744Y-67282795D01*
X137640226Y-67396063D01*
X137496063Y-67540226D01*
X137382795Y-67709744D01*
X137304774Y-67898102D01*
X137265000Y-68098061D01*
X122477048Y-68098061D01*
X122475812Y-68085518D01*
X122439502Y-67965820D01*
X122380537Y-67855506D01*
X122301185Y-67758815D01*
X122204494Y-67679463D01*
X122094180Y-67620498D01*
X121974482Y-67584188D01*
X121850000Y-67571928D01*
X120150000Y-67571928D01*
X120025518Y-67584188D01*
X119905820Y-67620498D01*
X119860000Y-67644990D01*
X119860000Y-65189144D01*
X120041637Y-65460983D01*
X120339017Y-65758363D01*
X120688698Y-65992012D01*
X121077244Y-66152953D01*
X121489721Y-66235000D01*
X121910279Y-66235000D01*
X122322756Y-66152953D01*
X122711302Y-65992012D01*
X123060983Y-65758363D01*
X123358363Y-65460983D01*
X123592012Y-65111302D01*
X123752953Y-64722756D01*
X123835000Y-64310279D01*
X123835000Y-63889721D01*
X123752953Y-63477244D01*
X123592012Y-63088698D01*
X123358363Y-62739017D01*
X123060983Y-62441637D01*
X122789144Y-62260000D01*
X144610856Y-62260000D01*
X144339017Y-62441637D01*
G37*
%TD.AperFunction*%
%TD*%
M02*
