M48
; DRILL file {KiCad (5.1.7-0-10_14)} date Sunday, November 01, 2020 at 10:18:54 PM
; FORMAT={-:-/ absolute / inch / decimal}
; #@! TF.CreationDate,2020-11-01T22:18:54+09:00
; #@! TF.GenerationSoftware,Kicad,Pcbnew,(5.1.7-0-10_14)
; #@! TF.FileFunction,Plated,1,4,PTH
FMAT,2
INCH
T1C0.0157
T2C0.0276
T3C0.0394
T4C0.0693
%
G90
G05
T1
X4.8425Y-3.3031
X4.8428Y-3.2635
X4.8543Y-3.4484
X4.8622Y-3.5472
X4.8661Y-4.0591
X4.8701Y-4.2047
X4.874Y-3.7992
X4.874Y-3.8386
X4.878Y-2.7756
X4.9173Y-3.4252
X4.9173Y-3.5433
X4.9173Y-3.7441
X4.937Y-4.4173
X4.9409Y-3.5079
X4.9606Y-4.2087
X4.9684Y-3.8059
X4.9685Y-4.0591
X4.9803Y-2.7244
X4.9803Y-2.7756
X4.9882Y-3.4449
X4.9921Y-3.4016
X5.0Y-4.6299
X5.0079Y-3.3031
X5.0157Y-3.9409
X5.0197Y-3.5039
X5.0394Y-3.2638
X5.0394Y-3.3622
X5.0433Y-3.5945
X5.0551Y-4.1339
X5.0748Y-4.3937
X5.0787Y-4.2087
X5.0827Y-3.2283
X5.0866Y-3.3543
X5.1024Y-2.9346
X5.122Y-3.6772
X5.1339Y-3.2244
X5.1378Y-3.5167
X5.1378Y-4.4173
X5.1575Y-2.9803
X5.1575Y-3.0354
X5.1575Y-3.0906
X5.1772Y-3.9173
X5.1772Y-4.1673
X5.189Y-3.7953
X5.2244Y-2.9803
X5.2244Y-3.0354
X5.2244Y-3.0906
X5.2283Y-4.3937
X5.2362Y-2.8557
X5.2721Y-2.8893
X5.2874Y-4.2323
X5.2913Y-2.9803
X5.2913Y-3.0354
X5.2913Y-3.0906
X5.3186Y-3.2596
X5.3189Y-3.9055
X5.3268Y-3.5669
X5.3386Y-4.3701
X5.3465Y-3.2874
X5.3465Y-3.7598
X5.3504Y-3.8543
X5.3661Y-3.5669
X5.378Y-3.1142
X5.3898Y-3.6614
X5.3922Y-4.1433
X5.3976Y-3.8583
X5.4134Y-3.0394
X5.4252Y-3.5591
X5.4331Y-3.6614
X5.437Y-3.3622
X5.4449Y-2.685
X5.4513Y-3.0684
X5.4528Y-2.9843
X5.4824Y-2.7696
X5.4839Y-2.8546
X5.4843Y-3.9094
X5.4843Y-4.5315
X5.5Y-3.1772
X5.5079Y-4.1457
X5.5278Y-2.7972
X5.5304Y-3.5584
X5.5354Y-3.4016
X5.5433Y-4.185
X5.5472Y-2.7283
X5.5472Y-2.9764
X5.5472Y-3.0748
X5.5512Y-3.7119
X5.5512Y-4.0276
X5.5512Y-4.0748
X5.565Y-3.2283
X5.565Y-3.2756
X5.565Y-3.3268
X5.5709Y-4.2323
X5.5787Y-3.4646
X5.5827Y-3.8819
X5.5839Y-3.8413
X5.5866Y-4.0
X5.6457Y-3.1732
X5.6476Y-3.937
X5.6519Y-3.13
X5.6614Y-2.8268
X5.6614Y-3.0787
X5.6614Y-3.2101
X5.6654Y-2.7146
X5.6654Y-2.7677
X5.6772Y-3.9061
T2
X5.3376Y-4.489
X5.5285Y-4.489
T3
X4.7638Y-2.7189
X4.7638Y-2.8189
X4.7638Y-2.9189
X4.7638Y-3.0189
X4.7638Y-3.1189
X4.7638Y-3.2189
X4.7638Y-3.3189
X4.7638Y-3.4189
X4.7638Y-3.5189
X4.7638Y-3.6189
X4.7638Y-3.7189
X4.7638Y-3.8189
X4.7638Y-3.9189
X4.7638Y-4.0189
X4.7638Y-4.1189
X4.7638Y-4.2189
X4.7638Y-4.3189
X4.7638Y-4.4189
X5.7638Y-2.7189
X5.7638Y-2.8189
X5.7638Y-2.9189
X5.7638Y-3.0189
X5.7638Y-3.1189
X5.7638Y-3.2189
X5.7638Y-3.3189
X5.7638Y-3.4189
X5.7638Y-3.5189
X5.7638Y-3.6189
X5.7638Y-3.7189
X5.7638Y-3.8189
X5.7638Y-3.9189
X5.7638Y-4.0189
X5.7638Y-4.1189
X5.7638Y-4.2189
X5.7638Y-4.3189
X5.7638Y-4.4189
T4
X5.2904Y-4.5945
X5.5758Y-4.5945
T0
M30
