%TF.GenerationSoftware,KiCad,Pcbnew,(5.1.7-0-10_14)*%
%TF.CreationDate,2020-11-01T22:18:58+09:00*%
%TF.ProjectId,esp32-dev,65737033-322d-4646-9576-2e6b69636164,rev?*%
%TF.SameCoordinates,Original*%
%TF.FileFunction,Copper,L1,Top*%
%TF.FilePolarity,Positive*%
%FSLAX46Y46*%
G04 Gerber Fmt 4.6, Leading zero omitted, Abs format (unit mm)*
G04 Created by KiCad (PCBNEW (5.1.7-0-10_14)) date 2020-11-01 22:18:58*
%MOMM*%
%LPD*%
G01*
G04 APERTURE LIST*
%TA.AperFunction,SMDPad,CuDef*%
%ADD10R,0.900000X1.200000*%
%TD*%
%TA.AperFunction,ComponentPad*%
%ADD11C,1.200000*%
%TD*%
%TA.AperFunction,ComponentPad*%
%ADD12C,2.640000*%
%TD*%
%TA.AperFunction,SMDPad,CuDef*%
%ADD13R,0.400000X1.600000*%
%TD*%
%TA.AperFunction,SMDPad,CuDef*%
%ADD14R,0.900000X0.800000*%
%TD*%
%TA.AperFunction,SMDPad,CuDef*%
%ADD15R,0.800000X0.900000*%
%TD*%
%TA.AperFunction,SMDPad,CuDef*%
%ADD16R,1.700000X1.000000*%
%TD*%
%TA.AperFunction,SMDPad,CuDef*%
%ADD17R,5.000000X5.000000*%
%TD*%
%TA.AperFunction,SMDPad,CuDef*%
%ADD18R,2.000000X0.900000*%
%TD*%
%TA.AperFunction,SMDPad,CuDef*%
%ADD19R,0.900000X2.000000*%
%TD*%
%TA.AperFunction,SMDPad,CuDef*%
%ADD20R,1.220000X0.650000*%
%TD*%
%TA.AperFunction,SMDPad,CuDef*%
%ADD21R,1.200000X1.400000*%
%TD*%
%TA.AperFunction,ComponentPad*%
%ADD22O,1.700000X1.700000*%
%TD*%
%TA.AperFunction,ComponentPad*%
%ADD23R,1.700000X1.700000*%
%TD*%
%TA.AperFunction,ViaPad*%
%ADD24C,0.800000*%
%TD*%
%TA.AperFunction,Conductor*%
%ADD25C,0.500000*%
%TD*%
%TA.AperFunction,Conductor*%
%ADD26C,0.300000*%
%TD*%
%TA.AperFunction,Conductor*%
%ADD27C,0.750000*%
%TD*%
%TA.AperFunction,Conductor*%
%ADD28C,0.261112*%
%TD*%
G04 APERTURE END LIST*
%TO.P,C1,2*%
%TO.N,GND*%
%TA.AperFunction,SMDPad,CuDef*%
G36*
G01*
X126425000Y-105850000D02*
X126425000Y-106350000D01*
G75*
G02*
X126200000Y-106575000I-225000J0D01*
G01*
X125750000Y-106575000D01*
G75*
G02*
X125525000Y-106350000I0J225000D01*
G01*
X125525000Y-105850000D01*
G75*
G02*
X125750000Y-105625000I225000J0D01*
G01*
X126200000Y-105625000D01*
G75*
G02*
X126425000Y-105850000I0J-225000D01*
G01*
G37*
%TD.AperFunction*%
%TO.P,C1,1*%
%TO.N,Net-(C1-Pad1)*%
%TA.AperFunction,SMDPad,CuDef*%
G36*
G01*
X127975000Y-105850000D02*
X127975000Y-106350000D01*
G75*
G02*
X127750000Y-106575000I-225000J0D01*
G01*
X127300000Y-106575000D01*
G75*
G02*
X127075000Y-106350000I0J225000D01*
G01*
X127075000Y-105850000D01*
G75*
G02*
X127300000Y-105625000I225000J0D01*
G01*
X127750000Y-105625000D01*
G75*
G02*
X127975000Y-105850000I0J-225000D01*
G01*
G37*
%TD.AperFunction*%
%TD*%
%TO.P,C2,1*%
%TO.N,Net-(C2-Pad1)*%
%TA.AperFunction,SMDPad,CuDef*%
G36*
G01*
X125430000Y-93870000D02*
X125770000Y-93870000D01*
G75*
G02*
X125910000Y-94010000I0J-140000D01*
G01*
X125910000Y-94290000D01*
G75*
G02*
X125770000Y-94430000I-140000J0D01*
G01*
X125430000Y-94430000D01*
G75*
G02*
X125290000Y-94290000I0J140000D01*
G01*
X125290000Y-94010000D01*
G75*
G02*
X125430000Y-93870000I140000J0D01*
G01*
G37*
%TD.AperFunction*%
%TO.P,C2,2*%
%TO.N,GND*%
%TA.AperFunction,SMDPad,CuDef*%
G36*
G01*
X125430000Y-94830000D02*
X125770000Y-94830000D01*
G75*
G02*
X125910000Y-94970000I0J-140000D01*
G01*
X125910000Y-95250000D01*
G75*
G02*
X125770000Y-95390000I-140000J0D01*
G01*
X125430000Y-95390000D01*
G75*
G02*
X125290000Y-95250000I0J140000D01*
G01*
X125290000Y-94970000D01*
G75*
G02*
X125430000Y-94830000I140000J0D01*
G01*
G37*
%TD.AperFunction*%
%TD*%
%TO.P,C3,2*%
%TO.N,GND*%
%TA.AperFunction,SMDPad,CuDef*%
G36*
G01*
X123330000Y-89200000D02*
X123670000Y-89200000D01*
G75*
G02*
X123810000Y-89340000I0J-140000D01*
G01*
X123810000Y-89620000D01*
G75*
G02*
X123670000Y-89760000I-140000J0D01*
G01*
X123330000Y-89760000D01*
G75*
G02*
X123190000Y-89620000I0J140000D01*
G01*
X123190000Y-89340000D01*
G75*
G02*
X123330000Y-89200000I140000J0D01*
G01*
G37*
%TD.AperFunction*%
%TO.P,C3,1*%
%TO.N,VDD*%
%TA.AperFunction,SMDPad,CuDef*%
G36*
G01*
X123330000Y-88240000D02*
X123670000Y-88240000D01*
G75*
G02*
X123810000Y-88380000I0J-140000D01*
G01*
X123810000Y-88660000D01*
G75*
G02*
X123670000Y-88800000I-140000J0D01*
G01*
X123330000Y-88800000D01*
G75*
G02*
X123190000Y-88660000I0J140000D01*
G01*
X123190000Y-88380000D01*
G75*
G02*
X123330000Y-88240000I140000J0D01*
G01*
G37*
%TD.AperFunction*%
%TD*%
%TO.P,C4,1*%
%TO.N,VDD*%
%TA.AperFunction,SMDPad,CuDef*%
G36*
G01*
X127200000Y-88525000D02*
X127200000Y-89475000D01*
G75*
G02*
X126950000Y-89725000I-250000J0D01*
G01*
X126450000Y-89725000D01*
G75*
G02*
X126200000Y-89475000I0J250000D01*
G01*
X126200000Y-88525000D01*
G75*
G02*
X126450000Y-88275000I250000J0D01*
G01*
X126950000Y-88275000D01*
G75*
G02*
X127200000Y-88525000I0J-250000D01*
G01*
G37*
%TD.AperFunction*%
%TO.P,C4,2*%
%TO.N,GND*%
%TA.AperFunction,SMDPad,CuDef*%
G36*
G01*
X125300000Y-88525000D02*
X125300000Y-89475000D01*
G75*
G02*
X125050000Y-89725000I-250000J0D01*
G01*
X124550000Y-89725000D01*
G75*
G02*
X124300000Y-89475000I0J250000D01*
G01*
X124300000Y-88525000D01*
G75*
G02*
X124550000Y-88275000I250000J0D01*
G01*
X125050000Y-88275000D01*
G75*
G02*
X125300000Y-88525000I0J-250000D01*
G01*
G37*
%TD.AperFunction*%
%TD*%
%TO.P,C5,1*%
%TO.N,+BATT*%
%TA.AperFunction,SMDPad,CuDef*%
G36*
G01*
X128750000Y-104100000D02*
X129250000Y-104100000D01*
G75*
G02*
X129475000Y-104325000I0J-225000D01*
G01*
X129475000Y-104775000D01*
G75*
G02*
X129250000Y-105000000I-225000J0D01*
G01*
X128750000Y-105000000D01*
G75*
G02*
X128525000Y-104775000I0J225000D01*
G01*
X128525000Y-104325000D01*
G75*
G02*
X128750000Y-104100000I225000J0D01*
G01*
G37*
%TD.AperFunction*%
%TO.P,C5,2*%
%TO.N,GND*%
%TA.AperFunction,SMDPad,CuDef*%
G36*
G01*
X128750000Y-105650000D02*
X129250000Y-105650000D01*
G75*
G02*
X129475000Y-105875000I0J-225000D01*
G01*
X129475000Y-106325000D01*
G75*
G02*
X129250000Y-106550000I-225000J0D01*
G01*
X128750000Y-106550000D01*
G75*
G02*
X128525000Y-106325000I0J225000D01*
G01*
X128525000Y-105875000D01*
G75*
G02*
X128750000Y-105650000I225000J0D01*
G01*
G37*
%TD.AperFunction*%
%TD*%
%TO.P,C6,1*%
%TO.N,VDD*%
%TA.AperFunction,SMDPad,CuDef*%
G36*
G01*
X131930000Y-94540000D02*
X132270000Y-94540000D01*
G75*
G02*
X132410000Y-94680000I0J-140000D01*
G01*
X132410000Y-94960000D01*
G75*
G02*
X132270000Y-95100000I-140000J0D01*
G01*
X131930000Y-95100000D01*
G75*
G02*
X131790000Y-94960000I0J140000D01*
G01*
X131790000Y-94680000D01*
G75*
G02*
X131930000Y-94540000I140000J0D01*
G01*
G37*
%TD.AperFunction*%
%TO.P,C6,2*%
%TO.N,GND*%
%TA.AperFunction,SMDPad,CuDef*%
G36*
G01*
X131930000Y-95500000D02*
X132270000Y-95500000D01*
G75*
G02*
X132410000Y-95640000I0J-140000D01*
G01*
X132410000Y-95920000D01*
G75*
G02*
X132270000Y-96060000I-140000J0D01*
G01*
X131930000Y-96060000D01*
G75*
G02*
X131790000Y-95920000I0J140000D01*
G01*
X131790000Y-95640000D01*
G75*
G02*
X131930000Y-95500000I140000J0D01*
G01*
G37*
%TD.AperFunction*%
%TD*%
%TO.P,C7,2*%
%TO.N,GND*%
%TA.AperFunction,SMDPad,CuDef*%
G36*
G01*
X138230000Y-93556000D02*
X138230000Y-93896000D01*
G75*
G02*
X138090000Y-94036000I-140000J0D01*
G01*
X137810000Y-94036000D01*
G75*
G02*
X137670000Y-93896000I0J140000D01*
G01*
X137670000Y-93556000D01*
G75*
G02*
X137810000Y-93416000I140000J0D01*
G01*
X138090000Y-93416000D01*
G75*
G02*
X138230000Y-93556000I0J-140000D01*
G01*
G37*
%TD.AperFunction*%
%TO.P,C7,1*%
%TO.N,RESET*%
%TA.AperFunction,SMDPad,CuDef*%
G36*
G01*
X139190000Y-93556000D02*
X139190000Y-93896000D01*
G75*
G02*
X139050000Y-94036000I-140000J0D01*
G01*
X138770000Y-94036000D01*
G75*
G02*
X138630000Y-93896000I0J140000D01*
G01*
X138630000Y-93556000D01*
G75*
G02*
X138770000Y-93416000I140000J0D01*
G01*
X139050000Y-93416000D01*
G75*
G02*
X139190000Y-93556000I0J-140000D01*
G01*
G37*
%TD.AperFunction*%
%TD*%
%TO.P,C8,1*%
%TO.N,GND*%
%TA.AperFunction,SMDPad,CuDef*%
G36*
G01*
X137158000Y-93556000D02*
X137158000Y-93896000D01*
G75*
G02*
X137018000Y-94036000I-140000J0D01*
G01*
X136738000Y-94036000D01*
G75*
G02*
X136598000Y-93896000I0J140000D01*
G01*
X136598000Y-93556000D01*
G75*
G02*
X136738000Y-93416000I140000J0D01*
G01*
X137018000Y-93416000D01*
G75*
G02*
X137158000Y-93556000I0J-140000D01*
G01*
G37*
%TD.AperFunction*%
%TO.P,C8,2*%
%TO.N,RESET*%
%TA.AperFunction,SMDPad,CuDef*%
G36*
G01*
X136198000Y-93556000D02*
X136198000Y-93896000D01*
G75*
G02*
X136058000Y-94036000I-140000J0D01*
G01*
X135778000Y-94036000D01*
G75*
G02*
X135638000Y-93896000I0J140000D01*
G01*
X135638000Y-93556000D01*
G75*
G02*
X135778000Y-93416000I140000J0D01*
G01*
X136058000Y-93416000D01*
G75*
G02*
X136198000Y-93556000I0J-140000D01*
G01*
G37*
%TD.AperFunction*%
%TD*%
%TO.P,C9,1*%
%TO.N,Net-(C9-Pad1)*%
%TA.AperFunction,SMDPad,CuDef*%
G36*
G01*
X136780000Y-108580000D02*
X136780000Y-108920000D01*
G75*
G02*
X136640000Y-109060000I-140000J0D01*
G01*
X136360000Y-109060000D01*
G75*
G02*
X136220000Y-108920000I0J140000D01*
G01*
X136220000Y-108580000D01*
G75*
G02*
X136360000Y-108440000I140000J0D01*
G01*
X136640000Y-108440000D01*
G75*
G02*
X136780000Y-108580000I0J-140000D01*
G01*
G37*
%TD.AperFunction*%
%TO.P,C9,2*%
%TO.N,GND*%
%TA.AperFunction,SMDPad,CuDef*%
G36*
G01*
X135820000Y-108580000D02*
X135820000Y-108920000D01*
G75*
G02*
X135680000Y-109060000I-140000J0D01*
G01*
X135400000Y-109060000D01*
G75*
G02*
X135260000Y-108920000I0J140000D01*
G01*
X135260000Y-108580000D01*
G75*
G02*
X135400000Y-108440000I140000J0D01*
G01*
X135680000Y-108440000D01*
G75*
G02*
X135820000Y-108580000I0J-140000D01*
G01*
G37*
%TD.AperFunction*%
%TD*%
%TO.P,C10,2*%
%TO.N,GND*%
%TA.AperFunction,SMDPad,CuDef*%
G36*
G01*
X135820000Y-110080000D02*
X135820000Y-110420000D01*
G75*
G02*
X135680000Y-110560000I-140000J0D01*
G01*
X135400000Y-110560000D01*
G75*
G02*
X135260000Y-110420000I0J140000D01*
G01*
X135260000Y-110080000D01*
G75*
G02*
X135400000Y-109940000I140000J0D01*
G01*
X135680000Y-109940000D01*
G75*
G02*
X135820000Y-110080000I0J-140000D01*
G01*
G37*
%TD.AperFunction*%
%TO.P,C10,1*%
%TO.N,Net-(C10-Pad1)*%
%TA.AperFunction,SMDPad,CuDef*%
G36*
G01*
X136780000Y-110080000D02*
X136780000Y-110420000D01*
G75*
G02*
X136640000Y-110560000I-140000J0D01*
G01*
X136360000Y-110560000D01*
G75*
G02*
X136220000Y-110420000I0J140000D01*
G01*
X136220000Y-110080000D01*
G75*
G02*
X136360000Y-109940000I140000J0D01*
G01*
X136640000Y-109940000D01*
G75*
G02*
X136780000Y-110080000I0J-140000D01*
G01*
G37*
%TD.AperFunction*%
%TD*%
D10*
%TO.P,D1,1*%
%TO.N,Net-(C2-Pad1)*%
X123850000Y-109750000D03*
%TO.P,D1,2*%
%TO.N,Net-(D1-Pad2)*%
X127150000Y-109750000D03*
%TD*%
%TO.P,D2,2*%
%TO.N,Net-(C1-Pad1)*%
%TA.AperFunction,SMDPad,CuDef*%
G36*
G01*
X128943750Y-102687500D02*
X129456250Y-102687500D01*
G75*
G02*
X129675000Y-102906250I0J-218750D01*
G01*
X129675000Y-103343750D01*
G75*
G02*
X129456250Y-103562500I-218750J0D01*
G01*
X128943750Y-103562500D01*
G75*
G02*
X128725000Y-103343750I0J218750D01*
G01*
X128725000Y-102906250D01*
G75*
G02*
X128943750Y-102687500I218750J0D01*
G01*
G37*
%TD.AperFunction*%
%TO.P,D2,1*%
%TO.N,Net-(D2-Pad1)*%
%TA.AperFunction,SMDPad,CuDef*%
G36*
G01*
X128943750Y-101112500D02*
X129456250Y-101112500D01*
G75*
G02*
X129675000Y-101331250I0J-218750D01*
G01*
X129675000Y-101768750D01*
G75*
G02*
X129456250Y-101987500I-218750J0D01*
G01*
X128943750Y-101987500D01*
G75*
G02*
X128725000Y-101768750I0J218750D01*
G01*
X128725000Y-101331250D01*
G75*
G02*
X128943750Y-101112500I218750J0D01*
G01*
G37*
%TD.AperFunction*%
%TD*%
%TO.P,D3,2*%
%TO.N,IO2*%
%TA.AperFunction,SMDPad,CuDef*%
G36*
G01*
X124810000Y-93220250D02*
X124810000Y-92707750D01*
G75*
G02*
X125028750Y-92489000I218750J0D01*
G01*
X125466250Y-92489000D01*
G75*
G02*
X125685000Y-92707750I0J-218750D01*
G01*
X125685000Y-93220250D01*
G75*
G02*
X125466250Y-93439000I-218750J0D01*
G01*
X125028750Y-93439000D01*
G75*
G02*
X124810000Y-93220250I0J218750D01*
G01*
G37*
%TD.AperFunction*%
%TO.P,D3,1*%
%TO.N,Net-(D3-Pad1)*%
%TA.AperFunction,SMDPad,CuDef*%
G36*
G01*
X123235000Y-93220250D02*
X123235000Y-92707750D01*
G75*
G02*
X123453750Y-92489000I218750J0D01*
G01*
X123891250Y-92489000D01*
G75*
G02*
X124110000Y-92707750I0J-218750D01*
G01*
X124110000Y-93220250D01*
G75*
G02*
X123891250Y-93439000I-218750J0D01*
G01*
X123453750Y-93439000D01*
G75*
G02*
X123235000Y-93220250I0J218750D01*
G01*
G37*
%TD.AperFunction*%
%TD*%
%TO.P,FB1,1*%
%TO.N,Net-(D1-Pad2)*%
%TA.AperFunction,SMDPad,CuDef*%
G36*
G01*
X128250000Y-110381250D02*
X128250000Y-109618750D01*
G75*
G02*
X128468750Y-109400000I218750J0D01*
G01*
X128906250Y-109400000D01*
G75*
G02*
X129125000Y-109618750I0J-218750D01*
G01*
X129125000Y-110381250D01*
G75*
G02*
X128906250Y-110600000I-218750J0D01*
G01*
X128468750Y-110600000D01*
G75*
G02*
X128250000Y-110381250I0J218750D01*
G01*
G37*
%TD.AperFunction*%
%TO.P,FB1,2*%
%TO.N,VBUS*%
%TA.AperFunction,SMDPad,CuDef*%
G36*
G01*
X130375000Y-110381250D02*
X130375000Y-109618750D01*
G75*
G02*
X130593750Y-109400000I218750J0D01*
G01*
X131031250Y-109400000D01*
G75*
G02*
X131250000Y-109618750I0J-218750D01*
G01*
X131250000Y-110381250D01*
G75*
G02*
X131031250Y-110600000I-218750J0D01*
G01*
X130593750Y-110600000D01*
G75*
G02*
X130375000Y-110381250I0J218750D01*
G01*
G37*
%TD.AperFunction*%
%TD*%
%TO.P,J1,MP*%
%TO.N,N/C*%
%TA.AperFunction,SMDPad,CuDef*%
G36*
G01*
X125500000Y-115500000D02*
X125500000Y-118000000D01*
G75*
G02*
X125250000Y-118250000I-250000J0D01*
G01*
X124150000Y-118250000D01*
G75*
G02*
X123900000Y-118000000I0J250000D01*
G01*
X123900000Y-115500000D01*
G75*
G02*
X124150000Y-115250000I250000J0D01*
G01*
X125250000Y-115250000D01*
G75*
G02*
X125500000Y-115500000I0J-250000D01*
G01*
G37*
%TD.AperFunction*%
%TA.AperFunction,SMDPad,CuDef*%
G36*
G01*
X132300000Y-115500000D02*
X132300000Y-118000000D01*
G75*
G02*
X132050000Y-118250000I-250000J0D01*
G01*
X130950000Y-118250000D01*
G75*
G02*
X130700000Y-118000000I0J250000D01*
G01*
X130700000Y-115500000D01*
G75*
G02*
X130950000Y-115250000I250000J0D01*
G01*
X132050000Y-115250000D01*
G75*
G02*
X132300000Y-115500000I0J-250000D01*
G01*
G37*
%TD.AperFunction*%
%TO.P,J1,2*%
%TO.N,GND*%
%TA.AperFunction,SMDPad,CuDef*%
G36*
G01*
X127600000Y-112000000D02*
X127600000Y-117000000D01*
G75*
G02*
X127350000Y-117250000I-250000J0D01*
G01*
X126850000Y-117250000D01*
G75*
G02*
X126600000Y-117000000I0J250000D01*
G01*
X126600000Y-112000000D01*
G75*
G02*
X126850000Y-111750000I250000J0D01*
G01*
X127350000Y-111750000D01*
G75*
G02*
X127600000Y-112000000I0J-250000D01*
G01*
G37*
%TD.AperFunction*%
%TO.P,J1,1*%
%TO.N,+BATT*%
%TA.AperFunction,SMDPad,CuDef*%
G36*
G01*
X129600000Y-112000000D02*
X129600000Y-117000000D01*
G75*
G02*
X129350000Y-117250000I-250000J0D01*
G01*
X128850000Y-117250000D01*
G75*
G02*
X128600000Y-117000000I0J250000D01*
G01*
X128600000Y-112000000D01*
G75*
G02*
X128850000Y-111750000I250000J0D01*
G01*
X129350000Y-111750000D01*
G75*
G02*
X129600000Y-112000000I0J-250000D01*
G01*
G37*
%TD.AperFunction*%
%TD*%
D11*
%TO.P,J2,MH4*%
%TO.N,N/C*%
X135575000Y-114020000D03*
%TO.P,J2,MH3*%
X140425000Y-114020000D03*
D12*
%TO.P,J2,MH2*%
X134375000Y-116700000D03*
%TO.P,J2,MH1*%
X141625000Y-116700000D03*
D13*
%TO.P,J2,5*%
%TO.N,GND*%
X139300000Y-113500000D03*
%TO.P,J2,4*%
%TO.N,Net-(J2-Pad4)*%
X138650000Y-113500000D03*
%TO.P,J2,3*%
%TO.N,UD+*%
X138000000Y-113500000D03*
%TO.P,J2,2*%
%TO.N,UD-*%
X137350000Y-113500000D03*
%TO.P,J2,1*%
%TO.N,VBUS*%
X136700000Y-113500000D03*
%TD*%
D14*
%TO.P,Q1,1*%
%TO.N,VBUS*%
X130500000Y-104050000D03*
%TO.P,Q1,2*%
%TO.N,Net-(C2-Pad1)*%
X130500000Y-105950000D03*
%TO.P,Q1,3*%
%TO.N,+BATT*%
X132500000Y-105000000D03*
%TD*%
D15*
%TO.P,Q4,3*%
%TO.N,CH340GND*%
X135300000Y-89375000D03*
%TO.P,Q4,2*%
%TO.N,GND*%
X136250000Y-91375000D03*
%TO.P,Q4,1*%
%TO.N,Net-(Q4-Pad1)*%
X134350000Y-91375000D03*
%TD*%
%TO.P,R1,2*%
%TO.N,GND*%
%TA.AperFunction,SMDPad,CuDef*%
G36*
G01*
X135760000Y-107065000D02*
X135760000Y-107435000D01*
G75*
G02*
X135625000Y-107570000I-135000J0D01*
G01*
X135355000Y-107570000D01*
G75*
G02*
X135220000Y-107435000I0J135000D01*
G01*
X135220000Y-107065000D01*
G75*
G02*
X135355000Y-106930000I135000J0D01*
G01*
X135625000Y-106930000D01*
G75*
G02*
X135760000Y-107065000I0J-135000D01*
G01*
G37*
%TD.AperFunction*%
%TO.P,R1,1*%
%TO.N,VBUS*%
%TA.AperFunction,SMDPad,CuDef*%
G36*
G01*
X136780000Y-107065000D02*
X136780000Y-107435000D01*
G75*
G02*
X136645000Y-107570000I-135000J0D01*
G01*
X136375000Y-107570000D01*
G75*
G02*
X136240000Y-107435000I0J135000D01*
G01*
X136240000Y-107065000D01*
G75*
G02*
X136375000Y-106930000I135000J0D01*
G01*
X136645000Y-106930000D01*
G75*
G02*
X136780000Y-107065000I0J-135000D01*
G01*
G37*
%TD.AperFunction*%
%TD*%
%TO.P,R2,2*%
%TO.N,VBUS*%
%TA.AperFunction,SMDPad,CuDef*%
G36*
G01*
X133234000Y-101971001D02*
X133234000Y-100720999D01*
G75*
G02*
X133483999Y-100471000I249999J0D01*
G01*
X134109001Y-100471000D01*
G75*
G02*
X134359000Y-100720999I0J-249999D01*
G01*
X134359000Y-101971001D01*
G75*
G02*
X134109001Y-102221000I-249999J0D01*
G01*
X133483999Y-102221000D01*
G75*
G02*
X133234000Y-101971001I0J249999D01*
G01*
G37*
%TD.AperFunction*%
%TO.P,R2,1*%
%TO.N,Net-(C1-Pad1)*%
%TA.AperFunction,SMDPad,CuDef*%
G36*
G01*
X130309000Y-101971001D02*
X130309000Y-100720999D01*
G75*
G02*
X130558999Y-100471000I249999J0D01*
G01*
X131184001Y-100471000D01*
G75*
G02*
X131434000Y-100720999I0J-249999D01*
G01*
X131434000Y-101971001D01*
G75*
G02*
X131184001Y-102221000I-249999J0D01*
G01*
X130558999Y-102221000D01*
G75*
G02*
X130309000Y-101971001I0J249999D01*
G01*
G37*
%TD.AperFunction*%
%TD*%
%TO.P,R3,1*%
%TO.N,Net-(C2-Pad1)*%
%TA.AperFunction,SMDPad,CuDef*%
G36*
G01*
X128280000Y-97065000D02*
X128280000Y-97435000D01*
G75*
G02*
X128145000Y-97570000I-135000J0D01*
G01*
X127875000Y-97570000D01*
G75*
G02*
X127740000Y-97435000I0J135000D01*
G01*
X127740000Y-97065000D01*
G75*
G02*
X127875000Y-96930000I135000J0D01*
G01*
X128145000Y-96930000D01*
G75*
G02*
X128280000Y-97065000I0J-135000D01*
G01*
G37*
%TD.AperFunction*%
%TO.P,R3,2*%
%TO.N,EN*%
%TA.AperFunction,SMDPad,CuDef*%
G36*
G01*
X127260000Y-97065000D02*
X127260000Y-97435000D01*
G75*
G02*
X127125000Y-97570000I-135000J0D01*
G01*
X126855000Y-97570000D01*
G75*
G02*
X126720000Y-97435000I0J135000D01*
G01*
X126720000Y-97065000D01*
G75*
G02*
X126855000Y-96930000I135000J0D01*
G01*
X127125000Y-96930000D01*
G75*
G02*
X127260000Y-97065000I0J-135000D01*
G01*
G37*
%TD.AperFunction*%
%TD*%
%TO.P,R4,1*%
%TO.N,Net-(R4-Pad1)*%
%TA.AperFunction,SMDPad,CuDef*%
G36*
G01*
X128925000Y-98150000D02*
X129475000Y-98150000D01*
G75*
G02*
X129675000Y-98350000I0J-200000D01*
G01*
X129675000Y-98750000D01*
G75*
G02*
X129475000Y-98950000I-200000J0D01*
G01*
X128925000Y-98950000D01*
G75*
G02*
X128725000Y-98750000I0J200000D01*
G01*
X128725000Y-98350000D01*
G75*
G02*
X128925000Y-98150000I200000J0D01*
G01*
G37*
%TD.AperFunction*%
%TO.P,R4,2*%
%TO.N,Net-(D2-Pad1)*%
%TA.AperFunction,SMDPad,CuDef*%
G36*
G01*
X128925000Y-99800000D02*
X129475000Y-99800000D01*
G75*
G02*
X129675000Y-100000000I0J-200000D01*
G01*
X129675000Y-100400000D01*
G75*
G02*
X129475000Y-100600000I-200000J0D01*
G01*
X128925000Y-100600000D01*
G75*
G02*
X128725000Y-100400000I0J200000D01*
G01*
X128725000Y-100000000D01*
G75*
G02*
X128925000Y-99800000I200000J0D01*
G01*
G37*
%TD.AperFunction*%
%TD*%
%TO.P,R5,2*%
%TO.N,I35*%
%TA.AperFunction,SMDPad,CuDef*%
G36*
G01*
X125985000Y-96760000D02*
X125615000Y-96760000D01*
G75*
G02*
X125480000Y-96625000I0J135000D01*
G01*
X125480000Y-96355000D01*
G75*
G02*
X125615000Y-96220000I135000J0D01*
G01*
X125985000Y-96220000D01*
G75*
G02*
X126120000Y-96355000I0J-135000D01*
G01*
X126120000Y-96625000D01*
G75*
G02*
X125985000Y-96760000I-135000J0D01*
G01*
G37*
%TD.AperFunction*%
%TO.P,R5,1*%
%TO.N,+BATT*%
%TA.AperFunction,SMDPad,CuDef*%
G36*
G01*
X125985000Y-97780000D02*
X125615000Y-97780000D01*
G75*
G02*
X125480000Y-97645000I0J135000D01*
G01*
X125480000Y-97375000D01*
G75*
G02*
X125615000Y-97240000I135000J0D01*
G01*
X125985000Y-97240000D01*
G75*
G02*
X126120000Y-97375000I0J-135000D01*
G01*
X126120000Y-97645000D01*
G75*
G02*
X125985000Y-97780000I-135000J0D01*
G01*
G37*
%TD.AperFunction*%
%TD*%
%TO.P,R6,2*%
%TO.N,GND*%
%TA.AperFunction,SMDPad,CuDef*%
G36*
G01*
X124685000Y-96760000D02*
X124315000Y-96760000D01*
G75*
G02*
X124180000Y-96625000I0J135000D01*
G01*
X124180000Y-96355000D01*
G75*
G02*
X124315000Y-96220000I135000J0D01*
G01*
X124685000Y-96220000D01*
G75*
G02*
X124820000Y-96355000I0J-135000D01*
G01*
X124820000Y-96625000D01*
G75*
G02*
X124685000Y-96760000I-135000J0D01*
G01*
G37*
%TD.AperFunction*%
%TO.P,R6,1*%
%TO.N,I35*%
%TA.AperFunction,SMDPad,CuDef*%
G36*
G01*
X124685000Y-97780000D02*
X124315000Y-97780000D01*
G75*
G02*
X124180000Y-97645000I0J135000D01*
G01*
X124180000Y-97375000D01*
G75*
G02*
X124315000Y-97240000I135000J0D01*
G01*
X124685000Y-97240000D01*
G75*
G02*
X124820000Y-97375000I0J-135000D01*
G01*
X124820000Y-97645000D01*
G75*
G02*
X124685000Y-97780000I-135000J0D01*
G01*
G37*
%TD.AperFunction*%
%TD*%
%TO.P,R7,1*%
%TO.N,Net-(Q2-Pad2)*%
%TA.AperFunction,SMDPad,CuDef*%
G36*
G01*
X140050000Y-92885000D02*
X140050000Y-92515000D01*
G75*
G02*
X140185000Y-92380000I135000J0D01*
G01*
X140455000Y-92380000D01*
G75*
G02*
X140590000Y-92515000I0J-135000D01*
G01*
X140590000Y-92885000D01*
G75*
G02*
X140455000Y-93020000I-135000J0D01*
G01*
X140185000Y-93020000D01*
G75*
G02*
X140050000Y-92885000I0J135000D01*
G01*
G37*
%TD.AperFunction*%
%TO.P,R7,2*%
%TO.N,RTS*%
%TA.AperFunction,SMDPad,CuDef*%
G36*
G01*
X141070000Y-92885000D02*
X141070000Y-92515000D01*
G75*
G02*
X141205000Y-92380000I135000J0D01*
G01*
X141475000Y-92380000D01*
G75*
G02*
X141610000Y-92515000I0J-135000D01*
G01*
X141610000Y-92885000D01*
G75*
G02*
X141475000Y-93020000I-135000J0D01*
G01*
X141205000Y-93020000D01*
G75*
G02*
X141070000Y-92885000I0J135000D01*
G01*
G37*
%TD.AperFunction*%
%TD*%
%TO.P,R8,1*%
%TO.N,Net-(Q3-Pad2)*%
%TA.AperFunction,SMDPad,CuDef*%
G36*
G01*
X143526000Y-92525000D02*
X143526000Y-92895000D01*
G75*
G02*
X143391000Y-93030000I-135000J0D01*
G01*
X143121000Y-93030000D01*
G75*
G02*
X142986000Y-92895000I0J135000D01*
G01*
X142986000Y-92525000D01*
G75*
G02*
X143121000Y-92390000I135000J0D01*
G01*
X143391000Y-92390000D01*
G75*
G02*
X143526000Y-92525000I0J-135000D01*
G01*
G37*
%TD.AperFunction*%
%TO.P,R8,2*%
%TO.N,DTR*%
%TA.AperFunction,SMDPad,CuDef*%
G36*
G01*
X142506000Y-92525000D02*
X142506000Y-92895000D01*
G75*
G02*
X142371000Y-93030000I-135000J0D01*
G01*
X142101000Y-93030000D01*
G75*
G02*
X141966000Y-92895000I0J135000D01*
G01*
X141966000Y-92525000D01*
G75*
G02*
X142101000Y-92390000I135000J0D01*
G01*
X142371000Y-92390000D01*
G75*
G02*
X142506000Y-92525000I0J-135000D01*
G01*
G37*
%TD.AperFunction*%
%TD*%
%TO.P,R9,2*%
%TO.N,Net-(R9-Pad2)*%
%TA.AperFunction,SMDPad,CuDef*%
G36*
G01*
X124490000Y-106285000D02*
X124490000Y-105915000D01*
G75*
G02*
X124625000Y-105780000I135000J0D01*
G01*
X124895000Y-105780000D01*
G75*
G02*
X125030000Y-105915000I0J-135000D01*
G01*
X125030000Y-106285000D01*
G75*
G02*
X124895000Y-106420000I-135000J0D01*
G01*
X124625000Y-106420000D01*
G75*
G02*
X124490000Y-106285000I0J135000D01*
G01*
G37*
%TD.AperFunction*%
%TO.P,R9,1*%
%TO.N,GND*%
%TA.AperFunction,SMDPad,CuDef*%
G36*
G01*
X123470000Y-106285000D02*
X123470000Y-105915000D01*
G75*
G02*
X123605000Y-105780000I135000J0D01*
G01*
X123875000Y-105780000D01*
G75*
G02*
X124010000Y-105915000I0J-135000D01*
G01*
X124010000Y-106285000D01*
G75*
G02*
X123875000Y-106420000I-135000J0D01*
G01*
X123605000Y-106420000D01*
G75*
G02*
X123470000Y-106285000I0J135000D01*
G01*
G37*
%TD.AperFunction*%
%TD*%
%TO.P,R10,2*%
%TO.N,RESET*%
%TA.AperFunction,SMDPad,CuDef*%
G36*
G01*
X140222000Y-93541000D02*
X140222000Y-93911000D01*
G75*
G02*
X140087000Y-94046000I-135000J0D01*
G01*
X139817000Y-94046000D01*
G75*
G02*
X139682000Y-93911000I0J135000D01*
G01*
X139682000Y-93541000D01*
G75*
G02*
X139817000Y-93406000I135000J0D01*
G01*
X140087000Y-93406000D01*
G75*
G02*
X140222000Y-93541000I0J-135000D01*
G01*
G37*
%TD.AperFunction*%
%TO.P,R10,1*%
%TO.N,VDD*%
%TA.AperFunction,SMDPad,CuDef*%
G36*
G01*
X141242000Y-93541000D02*
X141242000Y-93911000D01*
G75*
G02*
X141107000Y-94046000I-135000J0D01*
G01*
X140837000Y-94046000D01*
G75*
G02*
X140702000Y-93911000I0J135000D01*
G01*
X140702000Y-93541000D01*
G75*
G02*
X140837000Y-93406000I135000J0D01*
G01*
X141107000Y-93406000D01*
G75*
G02*
X141242000Y-93541000I0J-135000D01*
G01*
G37*
%TD.AperFunction*%
%TD*%
%TO.P,R11,1*%
%TO.N,GND*%
%TA.AperFunction,SMDPad,CuDef*%
G36*
G01*
X123235000Y-91461000D02*
X123235000Y-90911000D01*
G75*
G02*
X123435000Y-90711000I200000J0D01*
G01*
X123835000Y-90711000D01*
G75*
G02*
X124035000Y-90911000I0J-200000D01*
G01*
X124035000Y-91461000D01*
G75*
G02*
X123835000Y-91661000I-200000J0D01*
G01*
X123435000Y-91661000D01*
G75*
G02*
X123235000Y-91461000I0J200000D01*
G01*
G37*
%TD.AperFunction*%
%TO.P,R11,2*%
%TO.N,Net-(D3-Pad1)*%
%TA.AperFunction,SMDPad,CuDef*%
G36*
G01*
X124885000Y-91461000D02*
X124885000Y-90911000D01*
G75*
G02*
X125085000Y-90711000I200000J0D01*
G01*
X125485000Y-90711000D01*
G75*
G02*
X125685000Y-90911000I0J-200000D01*
G01*
X125685000Y-91461000D01*
G75*
G02*
X125485000Y-91661000I-200000J0D01*
G01*
X125085000Y-91661000D01*
G75*
G02*
X124885000Y-91461000I0J200000D01*
G01*
G37*
%TD.AperFunction*%
%TD*%
%TO.P,R12,2*%
%TO.N,TXD0*%
%TA.AperFunction,SMDPad,CuDef*%
G36*
G01*
X136685000Y-101660000D02*
X136315000Y-101660000D01*
G75*
G02*
X136180000Y-101525000I0J135000D01*
G01*
X136180000Y-101255000D01*
G75*
G02*
X136315000Y-101120000I135000J0D01*
G01*
X136685000Y-101120000D01*
G75*
G02*
X136820000Y-101255000I0J-135000D01*
G01*
X136820000Y-101525000D01*
G75*
G02*
X136685000Y-101660000I-135000J0D01*
G01*
G37*
%TD.AperFunction*%
%TO.P,R12,1*%
%TO.N,Net-(R12-Pad1)*%
%TA.AperFunction,SMDPad,CuDef*%
G36*
G01*
X136685000Y-102680000D02*
X136315000Y-102680000D01*
G75*
G02*
X136180000Y-102545000I0J135000D01*
G01*
X136180000Y-102275000D01*
G75*
G02*
X136315000Y-102140000I135000J0D01*
G01*
X136685000Y-102140000D01*
G75*
G02*
X136820000Y-102275000I0J-135000D01*
G01*
X136820000Y-102545000D01*
G75*
G02*
X136685000Y-102680000I-135000J0D01*
G01*
G37*
%TD.AperFunction*%
%TD*%
%TO.P,R13,1*%
%TO.N,RXD0*%
%TA.AperFunction,SMDPad,CuDef*%
G36*
G01*
X135315000Y-101120000D02*
X135685000Y-101120000D01*
G75*
G02*
X135820000Y-101255000I0J-135000D01*
G01*
X135820000Y-101525000D01*
G75*
G02*
X135685000Y-101660000I-135000J0D01*
G01*
X135315000Y-101660000D01*
G75*
G02*
X135180000Y-101525000I0J135000D01*
G01*
X135180000Y-101255000D01*
G75*
G02*
X135315000Y-101120000I135000J0D01*
G01*
G37*
%TD.AperFunction*%
%TO.P,R13,2*%
%TO.N,Net-(R13-Pad2)*%
%TA.AperFunction,SMDPad,CuDef*%
G36*
G01*
X135315000Y-102140000D02*
X135685000Y-102140000D01*
G75*
G02*
X135820000Y-102275000I0J-135000D01*
G01*
X135820000Y-102545000D01*
G75*
G02*
X135685000Y-102680000I-135000J0D01*
G01*
X135315000Y-102680000D01*
G75*
G02*
X135180000Y-102545000I0J135000D01*
G01*
X135180000Y-102275000D01*
G75*
G02*
X135315000Y-102140000I135000J0D01*
G01*
G37*
%TD.AperFunction*%
%TD*%
%TO.P,R14,1*%
%TO.N,Net-(Q4-Pad1)*%
%TA.AperFunction,SMDPad,CuDef*%
G36*
G01*
X133935000Y-92860000D02*
X133935000Y-92490000D01*
G75*
G02*
X134070000Y-92355000I135000J0D01*
G01*
X134340000Y-92355000D01*
G75*
G02*
X134475000Y-92490000I0J-135000D01*
G01*
X134475000Y-92860000D01*
G75*
G02*
X134340000Y-92995000I-135000J0D01*
G01*
X134070000Y-92995000D01*
G75*
G02*
X133935000Y-92860000I0J135000D01*
G01*
G37*
%TD.AperFunction*%
%TO.P,R14,2*%
%TO.N,VBUS*%
%TA.AperFunction,SMDPad,CuDef*%
G36*
G01*
X134955000Y-92860000D02*
X134955000Y-92490000D01*
G75*
G02*
X135090000Y-92355000I135000J0D01*
G01*
X135360000Y-92355000D01*
G75*
G02*
X135495000Y-92490000I0J-135000D01*
G01*
X135495000Y-92860000D01*
G75*
G02*
X135360000Y-92995000I-135000J0D01*
G01*
X135090000Y-92995000D01*
G75*
G02*
X134955000Y-92860000I0J135000D01*
G01*
G37*
%TD.AperFunction*%
%TD*%
D16*
%TO.P,SW1,1*%
%TO.N,GND*%
X140310000Y-99182000D03*
X134010000Y-99182000D03*
%TO.P,SW1,2*%
%TO.N,RESET*%
X140310000Y-95382000D03*
X134010000Y-95382000D03*
%TD*%
D17*
%TO.P,U1,39*%
%TO.N,GND*%
X132700000Y-76745000D03*
D18*
%TO.P,U1,1*%
X125200000Y-69245000D03*
%TO.P,U1,2*%
%TO.N,VDD*%
X125200000Y-70515000D03*
%TO.P,U1,3*%
%TO.N,RESET*%
X125200000Y-71785000D03*
%TO.P,U1,4*%
%TO.N,I36*%
X125200000Y-73055000D03*
%TO.P,U1,5*%
%TO.N,I39*%
X125200000Y-74325000D03*
%TO.P,U1,6*%
%TO.N,I34*%
X125200000Y-75595000D03*
%TO.P,U1,7*%
%TO.N,I35*%
X125200000Y-76865000D03*
%TO.P,U1,8*%
%TO.N,IO32*%
X125200000Y-78135000D03*
%TO.P,U1,9*%
%TO.N,IO33*%
X125200000Y-79405000D03*
%TO.P,U1,10*%
%TO.N,IO25_DAC1*%
X125200000Y-80675000D03*
%TO.P,U1,11*%
%TO.N,IO26_DAC2*%
X125200000Y-81945000D03*
%TO.P,U1,12*%
%TO.N,IO27*%
X125200000Y-83215000D03*
%TO.P,U1,13*%
%TO.N,IO14*%
X125200000Y-84485000D03*
%TO.P,U1,14*%
%TO.N,IO12*%
X125200000Y-85755000D03*
D19*
%TO.P,U1,15*%
%TO.N,GND*%
X127985000Y-86755000D03*
%TO.P,U1,16*%
%TO.N,IO13*%
X129255000Y-86755000D03*
%TO.P,U1,17*%
%TO.N,Net-(U1-Pad17)*%
X130525000Y-86755000D03*
%TO.P,U1,18*%
%TO.N,Net-(U1-Pad18)*%
X131795000Y-86755000D03*
%TO.P,U1,19*%
%TO.N,Net-(U1-Pad19)*%
X133065000Y-86755000D03*
%TO.P,U1,20*%
%TO.N,Net-(U1-Pad20)*%
X134335000Y-86755000D03*
%TO.P,U1,21*%
%TO.N,Net-(U1-Pad21)*%
X135605000Y-86755000D03*
%TO.P,U1,22*%
%TO.N,Net-(U1-Pad22)*%
X136875000Y-86755000D03*
%TO.P,U1,23*%
%TO.N,IO15*%
X138145000Y-86755000D03*
%TO.P,U1,24*%
%TO.N,IO2*%
X139415000Y-86755000D03*
D18*
%TO.P,U1,25*%
%TO.N,GPIO0*%
X142200000Y-85755000D03*
%TO.P,U1,26*%
%TO.N,IO4*%
X142200000Y-84485000D03*
%TO.P,U1,27*%
%TO.N,IO16*%
X142200000Y-83215000D03*
%TO.P,U1,28*%
%TO.N,IO17*%
X142200000Y-81945000D03*
%TO.P,U1,29*%
%TO.N,IO5*%
X142200000Y-80675000D03*
%TO.P,U1,30*%
%TO.N,IO18*%
X142200000Y-79405000D03*
%TO.P,U1,31*%
%TO.N,IO19*%
X142200000Y-78135000D03*
%TO.P,U1,32*%
%TO.N,Net-(U1-Pad32)*%
X142200000Y-76865000D03*
%TO.P,U1,33*%
%TO.N,IO21*%
X142200000Y-75595000D03*
%TO.P,U1,34*%
%TO.N,RXD0*%
X142200000Y-74325000D03*
%TO.P,U1,35*%
%TO.N,TXD0*%
X142200000Y-73055000D03*
%TO.P,U1,36*%
%TO.N,IO22*%
X142200000Y-71785000D03*
%TO.P,U1,37*%
%TO.N,IO23*%
X142200000Y-70515000D03*
%TO.P,U1,38*%
%TO.N,GND*%
X142200000Y-69245000D03*
%TD*%
D20*
%TO.P,U2,1*%
%TO.N,Net-(C2-Pad1)*%
X127472000Y-94020000D03*
%TO.P,U2,2*%
%TO.N,GND*%
X127472000Y-94970000D03*
%TO.P,U2,3*%
%TO.N,EN*%
X127472000Y-95920000D03*
%TO.P,U2,4*%
%TO.N,Net-(U2-Pad4)*%
X130092000Y-95920000D03*
%TO.P,U2,5*%
%TO.N,VDD*%
X130092000Y-94020000D03*
%TD*%
%TO.P,U3,8*%
%TO.N,Net-(C1-Pad1)*%
%TA.AperFunction,SMDPad,CuDef*%
G36*
G01*
X123745000Y-99800000D02*
X123445000Y-99800000D01*
G75*
G02*
X123295000Y-99650000I0J150000D01*
G01*
X123295000Y-98300000D01*
G75*
G02*
X123445000Y-98150000I150000J0D01*
G01*
X123745000Y-98150000D01*
G75*
G02*
X123895000Y-98300000I0J-150000D01*
G01*
X123895000Y-99650000D01*
G75*
G02*
X123745000Y-99800000I-150000J0D01*
G01*
G37*
%TD.AperFunction*%
%TO.P,U3,7*%
%TO.N,Net-(R4-Pad1)*%
%TA.AperFunction,SMDPad,CuDef*%
G36*
G01*
X125015000Y-99800000D02*
X124715000Y-99800000D01*
G75*
G02*
X124565000Y-99650000I0J150000D01*
G01*
X124565000Y-98300000D01*
G75*
G02*
X124715000Y-98150000I150000J0D01*
G01*
X125015000Y-98150000D01*
G75*
G02*
X125165000Y-98300000I0J-150000D01*
G01*
X125165000Y-99650000D01*
G75*
G02*
X125015000Y-99800000I-150000J0D01*
G01*
G37*
%TD.AperFunction*%
%TO.P,U3,6*%
%TO.N,Net-(U3-Pad6)*%
%TA.AperFunction,SMDPad,CuDef*%
G36*
G01*
X126285000Y-99800000D02*
X125985000Y-99800000D01*
G75*
G02*
X125835000Y-99650000I0J150000D01*
G01*
X125835000Y-98300000D01*
G75*
G02*
X125985000Y-98150000I150000J0D01*
G01*
X126285000Y-98150000D01*
G75*
G02*
X126435000Y-98300000I0J-150000D01*
G01*
X126435000Y-99650000D01*
G75*
G02*
X126285000Y-99800000I-150000J0D01*
G01*
G37*
%TD.AperFunction*%
%TO.P,U3,5*%
%TO.N,+BATT*%
%TA.AperFunction,SMDPad,CuDef*%
G36*
G01*
X127555000Y-99800000D02*
X127255000Y-99800000D01*
G75*
G02*
X127105000Y-99650000I0J150000D01*
G01*
X127105000Y-98300000D01*
G75*
G02*
X127255000Y-98150000I150000J0D01*
G01*
X127555000Y-98150000D01*
G75*
G02*
X127705000Y-98300000I0J-150000D01*
G01*
X127705000Y-99650000D01*
G75*
G02*
X127555000Y-99800000I-150000J0D01*
G01*
G37*
%TD.AperFunction*%
%TO.P,U3,4*%
%TO.N,Net-(C1-Pad1)*%
%TA.AperFunction,SMDPad,CuDef*%
G36*
G01*
X127555000Y-105050000D02*
X127255000Y-105050000D01*
G75*
G02*
X127105000Y-104900000I0J150000D01*
G01*
X127105000Y-103550000D01*
G75*
G02*
X127255000Y-103400000I150000J0D01*
G01*
X127555000Y-103400000D01*
G75*
G02*
X127705000Y-103550000I0J-150000D01*
G01*
X127705000Y-104900000D01*
G75*
G02*
X127555000Y-105050000I-150000J0D01*
G01*
G37*
%TD.AperFunction*%
%TO.P,U3,3*%
%TO.N,GND*%
%TA.AperFunction,SMDPad,CuDef*%
G36*
G01*
X126285000Y-105050000D02*
X125985000Y-105050000D01*
G75*
G02*
X125835000Y-104900000I0J150000D01*
G01*
X125835000Y-103550000D01*
G75*
G02*
X125985000Y-103400000I150000J0D01*
G01*
X126285000Y-103400000D01*
G75*
G02*
X126435000Y-103550000I0J-150000D01*
G01*
X126435000Y-104900000D01*
G75*
G02*
X126285000Y-105050000I-150000J0D01*
G01*
G37*
%TD.AperFunction*%
%TO.P,U3,2*%
%TO.N,Net-(R9-Pad2)*%
%TA.AperFunction,SMDPad,CuDef*%
G36*
G01*
X125015000Y-105050000D02*
X124715000Y-105050000D01*
G75*
G02*
X124565000Y-104900000I0J150000D01*
G01*
X124565000Y-103550000D01*
G75*
G02*
X124715000Y-103400000I150000J0D01*
G01*
X125015000Y-103400000D01*
G75*
G02*
X125165000Y-103550000I0J-150000D01*
G01*
X125165000Y-104900000D01*
G75*
G02*
X125015000Y-105050000I-150000J0D01*
G01*
G37*
%TD.AperFunction*%
%TO.P,U3,1*%
%TO.N,GND*%
%TA.AperFunction,SMDPad,CuDef*%
G36*
G01*
X123745000Y-105050000D02*
X123445000Y-105050000D01*
G75*
G02*
X123295000Y-104900000I0J150000D01*
G01*
X123295000Y-103550000D01*
G75*
G02*
X123445000Y-103400000I150000J0D01*
G01*
X123745000Y-103400000D01*
G75*
G02*
X123895000Y-103550000I0J-150000D01*
G01*
X123895000Y-104900000D01*
G75*
G02*
X123745000Y-105050000I-150000J0D01*
G01*
G37*
%TD.AperFunction*%
%TD*%
%TO.P,U4,1*%
%TO.N,CH340GND*%
%TA.AperFunction,SMDPad,CuDef*%
G36*
G01*
X137250000Y-101405000D02*
X137250000Y-101105000D01*
G75*
G02*
X137400000Y-100955000I150000J0D01*
G01*
X139050000Y-100955000D01*
G75*
G02*
X139200000Y-101105000I0J-150000D01*
G01*
X139200000Y-101405000D01*
G75*
G02*
X139050000Y-101555000I-150000J0D01*
G01*
X137400000Y-101555000D01*
G75*
G02*
X137250000Y-101405000I0J150000D01*
G01*
G37*
%TD.AperFunction*%
%TO.P,U4,2*%
%TO.N,Net-(R12-Pad1)*%
%TA.AperFunction,SMDPad,CuDef*%
G36*
G01*
X137250000Y-102675000D02*
X137250000Y-102375000D01*
G75*
G02*
X137400000Y-102225000I150000J0D01*
G01*
X139050000Y-102225000D01*
G75*
G02*
X139200000Y-102375000I0J-150000D01*
G01*
X139200000Y-102675000D01*
G75*
G02*
X139050000Y-102825000I-150000J0D01*
G01*
X137400000Y-102825000D01*
G75*
G02*
X137250000Y-102675000I0J150000D01*
G01*
G37*
%TD.AperFunction*%
%TO.P,U4,3*%
%TO.N,Net-(R13-Pad2)*%
%TA.AperFunction,SMDPad,CuDef*%
G36*
G01*
X137250000Y-103945000D02*
X137250000Y-103645000D01*
G75*
G02*
X137400000Y-103495000I150000J0D01*
G01*
X139050000Y-103495000D01*
G75*
G02*
X139200000Y-103645000I0J-150000D01*
G01*
X139200000Y-103945000D01*
G75*
G02*
X139050000Y-104095000I-150000J0D01*
G01*
X137400000Y-104095000D01*
G75*
G02*
X137250000Y-103945000I0J150000D01*
G01*
G37*
%TD.AperFunction*%
%TO.P,U4,4*%
%TO.N,VDD*%
%TA.AperFunction,SMDPad,CuDef*%
G36*
G01*
X137250000Y-105215000D02*
X137250000Y-104915000D01*
G75*
G02*
X137400000Y-104765000I150000J0D01*
G01*
X139050000Y-104765000D01*
G75*
G02*
X139200000Y-104915000I0J-150000D01*
G01*
X139200000Y-105215000D01*
G75*
G02*
X139050000Y-105365000I-150000J0D01*
G01*
X137400000Y-105365000D01*
G75*
G02*
X137250000Y-105215000I0J150000D01*
G01*
G37*
%TD.AperFunction*%
%TO.P,U4,5*%
%TO.N,UD+*%
%TA.AperFunction,SMDPad,CuDef*%
G36*
G01*
X137250000Y-106485000D02*
X137250000Y-106185000D01*
G75*
G02*
X137400000Y-106035000I150000J0D01*
G01*
X139050000Y-106035000D01*
G75*
G02*
X139200000Y-106185000I0J-150000D01*
G01*
X139200000Y-106485000D01*
G75*
G02*
X139050000Y-106635000I-150000J0D01*
G01*
X137400000Y-106635000D01*
G75*
G02*
X137250000Y-106485000I0J150000D01*
G01*
G37*
%TD.AperFunction*%
%TO.P,U4,6*%
%TO.N,UD-*%
%TA.AperFunction,SMDPad,CuDef*%
G36*
G01*
X137250000Y-107755000D02*
X137250000Y-107455000D01*
G75*
G02*
X137400000Y-107305000I150000J0D01*
G01*
X139050000Y-107305000D01*
G75*
G02*
X139200000Y-107455000I0J-150000D01*
G01*
X139200000Y-107755000D01*
G75*
G02*
X139050000Y-107905000I-150000J0D01*
G01*
X137400000Y-107905000D01*
G75*
G02*
X137250000Y-107755000I0J150000D01*
G01*
G37*
%TD.AperFunction*%
%TO.P,U4,7*%
%TO.N,Net-(C9-Pad1)*%
%TA.AperFunction,SMDPad,CuDef*%
G36*
G01*
X137250000Y-109025000D02*
X137250000Y-108725000D01*
G75*
G02*
X137400000Y-108575000I150000J0D01*
G01*
X139050000Y-108575000D01*
G75*
G02*
X139200000Y-108725000I0J-150000D01*
G01*
X139200000Y-109025000D01*
G75*
G02*
X139050000Y-109175000I-150000J0D01*
G01*
X137400000Y-109175000D01*
G75*
G02*
X137250000Y-109025000I0J150000D01*
G01*
G37*
%TD.AperFunction*%
%TO.P,U4,8*%
%TO.N,Net-(C10-Pad1)*%
%TA.AperFunction,SMDPad,CuDef*%
G36*
G01*
X137250000Y-110295000D02*
X137250000Y-109995000D01*
G75*
G02*
X137400000Y-109845000I150000J0D01*
G01*
X139050000Y-109845000D01*
G75*
G02*
X139200000Y-109995000I0J-150000D01*
G01*
X139200000Y-110295000D01*
G75*
G02*
X139050000Y-110445000I-150000J0D01*
G01*
X137400000Y-110445000D01*
G75*
G02*
X137250000Y-110295000I0J150000D01*
G01*
G37*
%TD.AperFunction*%
%TO.P,U4,9*%
%TO.N,Net-(U4-Pad9)*%
%TA.AperFunction,SMDPad,CuDef*%
G36*
G01*
X142200000Y-110295000D02*
X142200000Y-109995000D01*
G75*
G02*
X142350000Y-109845000I150000J0D01*
G01*
X144000000Y-109845000D01*
G75*
G02*
X144150000Y-109995000I0J-150000D01*
G01*
X144150000Y-110295000D01*
G75*
G02*
X144000000Y-110445000I-150000J0D01*
G01*
X142350000Y-110445000D01*
G75*
G02*
X142200000Y-110295000I0J150000D01*
G01*
G37*
%TD.AperFunction*%
%TO.P,U4,10*%
%TO.N,Net-(U4-Pad10)*%
%TA.AperFunction,SMDPad,CuDef*%
G36*
G01*
X142200000Y-109025000D02*
X142200000Y-108725000D01*
G75*
G02*
X142350000Y-108575000I150000J0D01*
G01*
X144000000Y-108575000D01*
G75*
G02*
X144150000Y-108725000I0J-150000D01*
G01*
X144150000Y-109025000D01*
G75*
G02*
X144000000Y-109175000I-150000J0D01*
G01*
X142350000Y-109175000D01*
G75*
G02*
X142200000Y-109025000I0J150000D01*
G01*
G37*
%TD.AperFunction*%
%TO.P,U4,11*%
%TO.N,Net-(U4-Pad11)*%
%TA.AperFunction,SMDPad,CuDef*%
G36*
G01*
X142200000Y-107755000D02*
X142200000Y-107455000D01*
G75*
G02*
X142350000Y-107305000I150000J0D01*
G01*
X144000000Y-107305000D01*
G75*
G02*
X144150000Y-107455000I0J-150000D01*
G01*
X144150000Y-107755000D01*
G75*
G02*
X144000000Y-107905000I-150000J0D01*
G01*
X142350000Y-107905000D01*
G75*
G02*
X142200000Y-107755000I0J150000D01*
G01*
G37*
%TD.AperFunction*%
%TO.P,U4,12*%
%TO.N,Net-(U4-Pad12)*%
%TA.AperFunction,SMDPad,CuDef*%
G36*
G01*
X142200000Y-106485000D02*
X142200000Y-106185000D01*
G75*
G02*
X142350000Y-106035000I150000J0D01*
G01*
X144000000Y-106035000D01*
G75*
G02*
X144150000Y-106185000I0J-150000D01*
G01*
X144150000Y-106485000D01*
G75*
G02*
X144000000Y-106635000I-150000J0D01*
G01*
X142350000Y-106635000D01*
G75*
G02*
X142200000Y-106485000I0J150000D01*
G01*
G37*
%TD.AperFunction*%
%TO.P,U4,13*%
%TO.N,DTR*%
%TA.AperFunction,SMDPad,CuDef*%
G36*
G01*
X142200000Y-105215000D02*
X142200000Y-104915000D01*
G75*
G02*
X142350000Y-104765000I150000J0D01*
G01*
X144000000Y-104765000D01*
G75*
G02*
X144150000Y-104915000I0J-150000D01*
G01*
X144150000Y-105215000D01*
G75*
G02*
X144000000Y-105365000I-150000J0D01*
G01*
X142350000Y-105365000D01*
G75*
G02*
X142200000Y-105215000I0J150000D01*
G01*
G37*
%TD.AperFunction*%
%TO.P,U4,14*%
%TO.N,RTS*%
%TA.AperFunction,SMDPad,CuDef*%
G36*
G01*
X142200000Y-103945000D02*
X142200000Y-103645000D01*
G75*
G02*
X142350000Y-103495000I150000J0D01*
G01*
X144000000Y-103495000D01*
G75*
G02*
X144150000Y-103645000I0J-150000D01*
G01*
X144150000Y-103945000D01*
G75*
G02*
X144000000Y-104095000I-150000J0D01*
G01*
X142350000Y-104095000D01*
G75*
G02*
X142200000Y-103945000I0J150000D01*
G01*
G37*
%TD.AperFunction*%
%TO.P,U4,15*%
%TO.N,Net-(U4-Pad15)*%
%TA.AperFunction,SMDPad,CuDef*%
G36*
G01*
X142200000Y-102675000D02*
X142200000Y-102375000D01*
G75*
G02*
X142350000Y-102225000I150000J0D01*
G01*
X144000000Y-102225000D01*
G75*
G02*
X144150000Y-102375000I0J-150000D01*
G01*
X144150000Y-102675000D01*
G75*
G02*
X144000000Y-102825000I-150000J0D01*
G01*
X142350000Y-102825000D01*
G75*
G02*
X142200000Y-102675000I0J150000D01*
G01*
G37*
%TD.AperFunction*%
%TO.P,U4,16*%
%TO.N,VDD*%
%TA.AperFunction,SMDPad,CuDef*%
G36*
G01*
X142200000Y-101405000D02*
X142200000Y-101105000D01*
G75*
G02*
X142350000Y-100955000I150000J0D01*
G01*
X144000000Y-100955000D01*
G75*
G02*
X144150000Y-101105000I0J-150000D01*
G01*
X144150000Y-101405000D01*
G75*
G02*
X144000000Y-101555000I-150000J0D01*
G01*
X142350000Y-101555000D01*
G75*
G02*
X142200000Y-101405000I0J150000D01*
G01*
G37*
%TD.AperFunction*%
%TD*%
D21*
%TO.P,Y1,1*%
%TO.N,Net-(C9-Pad1)*%
X132650000Y-108400000D03*
%TO.P,Y1,2*%
%TO.N,GND*%
X132650000Y-110600000D03*
%TO.P,Y1,3*%
%TO.N,Net-(C10-Pad1)*%
X134350000Y-110600000D03*
%TO.P,Y1,4*%
%TO.N,GND*%
X134350000Y-108400000D03*
%TD*%
D15*
%TO.P,Q2,1*%
%TO.N,DTR*%
X137975001Y-91400000D03*
%TO.P,Q2,2*%
%TO.N,Net-(Q2-Pad2)*%
X139875001Y-91400000D03*
%TO.P,Q2,3*%
%TO.N,GPIO0*%
X138925001Y-89400000D03*
%TD*%
%TO.P,Q3,3*%
%TO.N,RESET*%
X142550000Y-89400000D03*
%TO.P,Q3,2*%
%TO.N,Net-(Q3-Pad2)*%
X143500000Y-91400000D03*
%TO.P,Q3,1*%
%TO.N,RTS*%
X141600000Y-91400000D03*
%TD*%
D22*
%TO.P,J5,18*%
%TO.N,VBUS*%
X121000000Y-112240000D03*
%TO.P,J5,17*%
%TO.N,VDD*%
X121000000Y-109700000D03*
%TO.P,J5,16*%
%TO.N,Net-(J5-Pad16)*%
X121000000Y-107160000D03*
%TO.P,J5,15*%
%TO.N,GND*%
X121000000Y-104620000D03*
%TO.P,J5,14*%
%TO.N,+BATT*%
X121000000Y-102080000D03*
%TO.P,J5,13*%
%TO.N,EN*%
X121000000Y-99540000D03*
%TO.P,J5,12*%
%TO.N,Net-(J5-Pad12)*%
X121000000Y-97000000D03*
%TO.P,J5,11*%
%TO.N,Net-(J5-Pad11)*%
X121000000Y-94460000D03*
%TO.P,J5,10*%
%TO.N,IO2*%
X121000000Y-91920000D03*
%TO.P,J5,9*%
%TO.N,IO5*%
X121000000Y-89380000D03*
%TO.P,J5,8*%
%TO.N,IO13*%
X121000000Y-86840000D03*
%TO.P,J5,7*%
%TO.N,IO33*%
X121000000Y-84300000D03*
%TO.P,J5,6*%
%TO.N,IO32*%
X121000000Y-81760000D03*
%TO.P,J5,5*%
%TO.N,IO27*%
X121000000Y-79220000D03*
%TO.P,J5,4*%
%TO.N,IO26_DAC2*%
X121000000Y-76680000D03*
%TO.P,J5,3*%
%TO.N,IO25_DAC1*%
X121000000Y-74140000D03*
%TO.P,J5,2*%
%TO.N,TXD0*%
X121000000Y-71600000D03*
D23*
%TO.P,J5,1*%
%TO.N,RXD0*%
X121000000Y-69060000D03*
%TD*%
%TO.P,J6,1*%
%TO.N,I36*%
X146400000Y-69060000D03*
D22*
%TO.P,J6,2*%
%TO.N,I39*%
X146400000Y-71600000D03*
%TO.P,J6,3*%
%TO.N,I34*%
X146400000Y-74140000D03*
%TO.P,J6,4*%
%TO.N,I35*%
X146400000Y-76680000D03*
%TO.P,J6,5*%
%TO.N,IO15*%
X146400000Y-79220000D03*
%TO.P,J6,6*%
%TO.N,Net-(J6-Pad6)*%
X146400000Y-81760000D03*
%TO.P,J6,7*%
%TO.N,GPIO0*%
X146400000Y-84300000D03*
%TO.P,J6,8*%
%TO.N,IO18*%
X146400000Y-86840000D03*
%TO.P,J6,9*%
%TO.N,IO23*%
X146400000Y-89380000D03*
%TO.P,J6,10*%
%TO.N,IO19*%
X146400000Y-91920000D03*
%TO.P,J6,11*%
%TO.N,IO21*%
X146400000Y-94460000D03*
%TO.P,J6,12*%
%TO.N,IO22*%
X146400000Y-97000000D03*
%TO.P,J6,13*%
%TO.N,IO14*%
X146400000Y-99540000D03*
%TO.P,J6,14*%
%TO.N,IO12*%
X146400000Y-102080000D03*
%TO.P,J6,15*%
%TO.N,IO4*%
X146400000Y-104620000D03*
%TO.P,J6,16*%
%TO.N,IO16*%
X146400000Y-107160000D03*
%TO.P,J6,17*%
%TO.N,IO17*%
X146400000Y-109700000D03*
%TO.P,J6,18*%
%TO.N,RESET*%
X146400000Y-112240000D03*
%TD*%
D24*
%TO.N,GND*%
X132700000Y-78500000D03*
X132700000Y-77100000D03*
X132700000Y-75700000D03*
X131000000Y-75700000D03*
X131000000Y-77100000D03*
X131000000Y-78500000D03*
X134400000Y-78500000D03*
X134400000Y-77100000D03*
X134400000Y-75700000D03*
X131800000Y-96400000D03*
X135100000Y-99200000D03*
X139300000Y-99300000D03*
X129000000Y-106900000D03*
X126000000Y-106900000D03*
X123700000Y-106800000D03*
X123600000Y-103100000D03*
X126200000Y-103100000D03*
X136300000Y-90600000D03*
X125500000Y-89100000D03*
X124900000Y-90000000D03*
X123500000Y-90100000D03*
X128000000Y-85400000D03*
X126500000Y-69200000D03*
X140900000Y-69300000D03*
X127000000Y-117600000D03*
X139300000Y-115100000D03*
X138000000Y-93000000D03*
X136900000Y-93000000D03*
X132800000Y-111600000D03*
X134300000Y-107500000D03*
X135600000Y-111000000D03*
X123800000Y-96500000D03*
X124900000Y-95100000D03*
%TO.N,I35*%
X123800000Y-97500000D03*
%TO.N,+BATT*%
X128400000Y-105000000D03*
X128900000Y-111600000D03*
%TO.N,VDD*%
X141900000Y-101600000D03*
X126500000Y-70500000D03*
%TO.N,Net-(C2-Pad1)*%
X131500000Y-105850000D03*
X131500000Y-99500000D03*
%TO.N,VDD*%
X123900000Y-70500000D03*
X127500000Y-89000000D03*
X130100000Y-93400000D03*
X141000000Y-94281998D03*
X136961108Y-105238892D03*
%TO.N,+BATT*%
X127400000Y-100100000D03*
%TO.N,RESET*%
X141700000Y-88000000D03*
X140600000Y-86400000D03*
X141800000Y-98600000D03*
%TO.N,VBUS*%
X130500000Y-112200000D03*
X125400000Y-112200000D03*
%TO.N,IO21*%
X140900000Y-75600000D03*
%TO.N,IO17*%
X141350000Y-82000000D03*
X144200000Y-99213680D03*
X141000000Y-103500000D03*
%TO.N,IO16*%
X141350000Y-83200000D03*
X143450000Y-100000000D03*
X141000000Y-102300000D03*
%TO.N,DTR*%
X140472295Y-90383365D03*
X137800000Y-90400000D03*
%TO.N,RTS*%
X141830331Y-97569669D03*
X139900000Y-105300000D03*
%TO.N,CH340GND*%
X135300000Y-90600000D03*
X135800000Y-95500000D03*
%TO.N,TXD0*%
X137100000Y-98000000D03*
X135800000Y-83500000D03*
X138462170Y-77937830D03*
X138500000Y-75800000D03*
%TO.N,RXD0*%
X139252831Y-70347169D03*
X139292169Y-72507831D03*
X135900000Y-97900000D03*
X135092892Y-82792892D03*
X137500000Y-77200000D03*
%TO.N,I35*%
X126197887Y-96669036D03*
X128099989Y-91300000D03*
X130500000Y-89324999D03*
X130400000Y-81900000D03*
X143800000Y-78200000D03*
X136600000Y-79100000D03*
%TO.N,I36*%
X138300000Y-68200000D03*
X133000000Y-72535000D03*
%TO.N,I39*%
X143900000Y-68950000D03*
X133912170Y-73387830D03*
%TO.N,I34*%
X143900000Y-70300000D03*
X129599998Y-74537829D03*
%TO.N,IO32*%
X123007168Y-82892832D03*
X128000000Y-82900000D03*
%TO.N,IO33*%
X123000000Y-83900000D03*
X127200000Y-83900000D03*
%TO.N,IO14*%
X126800000Y-86400000D03*
X140800000Y-106300000D03*
%TO.N,IO12*%
X126700000Y-87500000D03*
X141500000Y-107500000D03*
%TO.N,IO13*%
X124900000Y-87000000D03*
X129200000Y-85200000D03*
%TO.N,IO15*%
X138100000Y-85400000D03*
X143800002Y-81536331D03*
%TO.N,IO4*%
X141350000Y-84500000D03*
%TO.N,IO5*%
X123300000Y-87590000D03*
X129100000Y-82000000D03*
X139700000Y-80700000D03*
X143400000Y-80600000D03*
%TO.N,IO18*%
X143558955Y-79501707D03*
%TO.N,IO19*%
X140900000Y-78100000D03*
%TO.N,IO22*%
X143800000Y-71800000D03*
%TO.N,IO23*%
X140405375Y-71050000D03*
%TD*%
D25*
%TO.N,Net-(C1-Pad1)*%
X127525000Y-104345000D02*
X127405000Y-104225000D01*
X127525000Y-106100000D02*
X127525000Y-104345000D01*
X128505000Y-103125000D02*
X127405000Y-104225000D01*
X129000000Y-103125000D02*
X128505000Y-103125000D01*
X129092500Y-103125000D02*
X130871500Y-101346000D01*
X129000000Y-103125000D02*
X129092500Y-103125000D01*
D26*
X127482880Y-103125000D02*
X129200000Y-103125000D01*
X123595000Y-99237120D02*
X127482880Y-103125000D01*
X123595000Y-98975000D02*
X123595000Y-99237120D01*
%TO.N,GND*%
X124320000Y-89480000D02*
X124800000Y-89000000D01*
X123500000Y-89480000D02*
X124320000Y-89480000D01*
X134700000Y-108750000D02*
X134350000Y-108400000D01*
X135540000Y-108750000D02*
X134700000Y-108750000D01*
X135490000Y-107260000D02*
X134350000Y-108400000D01*
X135490000Y-107250000D02*
X135490000Y-107260000D01*
X135490000Y-108700000D02*
X135540000Y-108750000D01*
X135490000Y-107250000D02*
X135490000Y-108700000D01*
X126200000Y-104160000D02*
X126135000Y-104225000D01*
X126200000Y-103100000D02*
X126200000Y-104160000D01*
X123600000Y-104220000D02*
X123595000Y-104225000D01*
X123600000Y-103100000D02*
X123600000Y-104220000D01*
X123700000Y-106140000D02*
X123740000Y-106100000D01*
X123700000Y-106800000D02*
X123700000Y-106140000D01*
X126000000Y-106125000D02*
X125975000Y-106100000D01*
X126000000Y-106900000D02*
X126000000Y-106125000D01*
X129000000Y-106900000D02*
X129000000Y-106100000D01*
X140192000Y-99300000D02*
X140310000Y-99182000D01*
X139300000Y-99300000D02*
X140192000Y-99300000D01*
X134028000Y-99200000D02*
X134010000Y-99182000D01*
X135100000Y-99200000D02*
X134028000Y-99200000D01*
X136250000Y-90650000D02*
X136300000Y-90600000D01*
X136250000Y-91375000D02*
X136250000Y-90650000D01*
X124900000Y-90000000D02*
X124900000Y-89100000D01*
X124900000Y-89100000D02*
X124800000Y-89000000D01*
X125500000Y-89100000D02*
X124900000Y-89100000D01*
X123635000Y-90235000D02*
X123500000Y-90100000D01*
X123635000Y-91186000D02*
X123635000Y-90235000D01*
X123500000Y-90100000D02*
X123500000Y-89480000D01*
X128000000Y-86740000D02*
X127985000Y-86755000D01*
X128000000Y-85400000D02*
X128000000Y-86740000D01*
X125245000Y-69200000D02*
X125200000Y-69245000D01*
X126500000Y-69200000D02*
X125245000Y-69200000D01*
X142145000Y-69300000D02*
X142200000Y-69245000D01*
X140900000Y-69300000D02*
X142145000Y-69300000D01*
X127000000Y-117600000D02*
X127000000Y-114500000D01*
X139300000Y-115100000D02*
X139300000Y-113500000D01*
X137950000Y-93050000D02*
X138000000Y-93000000D01*
X137950000Y-93726000D02*
X137950000Y-93050000D01*
X136878000Y-93726000D02*
X137950000Y-93726000D01*
X136878000Y-93022000D02*
X136900000Y-93000000D01*
X136878000Y-93726000D02*
X136878000Y-93022000D01*
D25*
X134350000Y-107550000D02*
X134300000Y-107500000D01*
X134350000Y-108400000D02*
X134350000Y-107550000D01*
X132800000Y-110750000D02*
X132650000Y-110600000D01*
X132800000Y-111600000D02*
X132800000Y-110750000D01*
D26*
X135540000Y-110940000D02*
X135600000Y-111000000D01*
X135540000Y-110250000D02*
X135540000Y-110940000D01*
X127382000Y-95060000D02*
X127472000Y-94970000D01*
X124490000Y-96500000D02*
X124500000Y-96490000D01*
X123800000Y-96500000D02*
X124490000Y-96500000D01*
X127362000Y-95080000D02*
X127472000Y-94970000D01*
X125590000Y-95100000D02*
X125600000Y-95110000D01*
X124900000Y-95100000D02*
X125590000Y-95100000D01*
X127332000Y-95110000D02*
X127472000Y-94970000D01*
X125600000Y-95110000D02*
X127332000Y-95110000D01*
D25*
X131800000Y-96080000D02*
X132100000Y-95780000D01*
X131800000Y-96400000D02*
X131800000Y-96080000D01*
%TO.N,Net-(C2-Pad1)*%
X125289998Y-109750000D02*
X126539998Y-108500000D01*
X123850000Y-109750000D02*
X125289998Y-109750000D01*
X130500000Y-106850000D02*
X130500000Y-105950000D01*
X128850000Y-108500000D02*
X130500000Y-106850000D01*
X126539998Y-108500000D02*
X128850000Y-108500000D01*
D27*
X131400000Y-105950000D02*
X131500000Y-105850000D01*
X130500000Y-105950000D02*
X131400000Y-105950000D01*
D25*
X128532001Y-94284999D02*
X128267002Y-94020000D01*
X128267002Y-94020000D02*
X127472000Y-94020000D01*
D26*
X128010000Y-97054002D02*
X128532001Y-96532001D01*
X128010000Y-97250000D02*
X128010000Y-97054002D01*
D25*
X131500000Y-98934315D02*
X128532001Y-95966316D01*
X131500000Y-99500000D02*
X131500000Y-98934315D01*
X128532001Y-95966316D02*
X128532001Y-94284999D01*
D26*
X128532001Y-96532001D02*
X128532001Y-95966316D01*
X127342000Y-94150000D02*
X127472000Y-94020000D01*
X125600000Y-94150000D02*
X127342000Y-94150000D01*
%TO.N,VDD*%
X124095010Y-87924990D02*
X123500000Y-88520000D01*
X125624990Y-87924990D02*
X124095010Y-87924990D01*
X126700000Y-89000000D02*
X125624990Y-87924990D01*
D25*
X131472000Y-94020000D02*
X131552000Y-94100000D01*
X130092000Y-94020000D02*
X131472000Y-94020000D01*
D27*
X125215000Y-70500000D02*
X125200000Y-70515000D01*
X126500000Y-70500000D02*
X125215000Y-70500000D01*
X125185000Y-70500000D02*
X125200000Y-70515000D01*
X123900000Y-70500000D02*
X125185000Y-70500000D01*
D26*
X142830000Y-101600000D02*
X143175000Y-101255000D01*
X141900000Y-101600000D02*
X142830000Y-101600000D01*
X138290000Y-105000000D02*
X138225000Y-105065000D01*
D25*
X127500000Y-89000000D02*
X126700000Y-89000000D01*
X130092000Y-93408000D02*
X130100000Y-93400000D01*
X130092000Y-94020000D02*
X130092000Y-93408000D01*
D26*
X140972000Y-94253998D02*
X141000000Y-94281998D01*
X140972000Y-93726000D02*
X140972000Y-94253998D01*
X137135000Y-105065000D02*
X136961108Y-105238892D01*
X138225000Y-105065000D02*
X137135000Y-105065000D01*
D25*
X132100000Y-94648000D02*
X131472000Y-94020000D01*
X132100000Y-94820000D02*
X132100000Y-94648000D01*
%TO.N,+BATT*%
X129450000Y-105000000D02*
X132500000Y-105000000D01*
X129000000Y-104550000D02*
X129450000Y-105000000D01*
D27*
X128550000Y-105000000D02*
X129000000Y-104550000D01*
X128400000Y-105000000D02*
X128550000Y-105000000D01*
D25*
X127400000Y-98980000D02*
X127405000Y-98975000D01*
X127400000Y-100100000D02*
X127400000Y-98980000D01*
D26*
X126202124Y-97510000D02*
X125800000Y-97510000D01*
X127405000Y-98712876D02*
X126202124Y-97510000D01*
X127405000Y-98975000D02*
X127405000Y-98712876D01*
D27*
X128900000Y-114300000D02*
X129100000Y-114500000D01*
X128900000Y-111600000D02*
X128900000Y-114300000D01*
D26*
%TO.N,RESET*%
X139952000Y-93726000D02*
X138910000Y-93726000D01*
X138910000Y-90884999D02*
X140394999Y-89400000D01*
X140394999Y-89400000D02*
X142550000Y-89400000D01*
X138910000Y-93726000D02*
X138910000Y-90884999D01*
X134262000Y-95382000D02*
X135918000Y-93726000D01*
X134010000Y-95382000D02*
X134262000Y-95382000D01*
X135918000Y-93768980D02*
X135918000Y-93726000D01*
X136535030Y-94386010D02*
X135918000Y-93768980D01*
X138910000Y-94036000D02*
X138559990Y-94386010D01*
X138559990Y-94386010D02*
X136535030Y-94386010D01*
X138910000Y-93726000D02*
X138910000Y-94036000D01*
X139952000Y-95024000D02*
X140310000Y-95382000D01*
X139952000Y-93726000D02*
X139952000Y-95024000D01*
X142550000Y-88850000D02*
X141700000Y-88000000D01*
X142550000Y-89400000D02*
X142550000Y-88850000D01*
X133370002Y-71785000D02*
X125200000Y-71785000D01*
X140600000Y-79014998D02*
X133370002Y-71785000D01*
X140600000Y-86400000D02*
X140600000Y-79014998D01*
X140310000Y-97110000D02*
X141800000Y-98600000D01*
X140310000Y-95382000D02*
X140310000Y-97110000D01*
%TO.N,Net-(C9-Pad1)*%
X138200000Y-108900000D02*
X138225000Y-108875000D01*
X136049999Y-109450001D02*
X136500000Y-109000000D01*
X132700001Y-109450001D02*
X136049999Y-109450001D01*
X136500000Y-109000000D02*
X136500000Y-108750000D01*
X132650000Y-109400000D02*
X132700001Y-109450001D01*
X132650000Y-108400000D02*
X132650000Y-109400000D01*
X138100000Y-108750000D02*
X138225000Y-108875000D01*
X136500000Y-108750000D02*
X138100000Y-108750000D01*
%TO.N,Net-(C10-Pad1)*%
X138180000Y-110100000D02*
X138225000Y-110145000D01*
X136500000Y-110142980D02*
X136500000Y-110100000D01*
X136500000Y-110292980D02*
X136500000Y-110250000D01*
X134350000Y-110600000D02*
X134660010Y-110910010D01*
X138120000Y-110250000D02*
X138225000Y-110145000D01*
X136500000Y-110250000D02*
X138120000Y-110250000D01*
X136500000Y-111210002D02*
X136500000Y-110250000D01*
X135960001Y-111750001D02*
X136500000Y-111210002D01*
X134500001Y-111750001D02*
X135960001Y-111750001D01*
X134350000Y-111600000D02*
X134500001Y-111750001D01*
X134350000Y-110600000D02*
X134350000Y-111600000D01*
D25*
%TO.N,Net-(D1-Pad2)*%
X127400000Y-110000000D02*
X127150000Y-109750000D01*
X128687500Y-110000000D02*
X127400000Y-110000000D01*
D26*
%TO.N,Net-(D2-Pad1)*%
X129200000Y-101550000D02*
X129200000Y-100200000D01*
%TO.N,Net-(D3-Pad1)*%
X123672500Y-92798500D02*
X125285000Y-91186000D01*
X123672500Y-92964000D02*
X123672500Y-92798500D01*
D25*
%TO.N,VBUS*%
X130812500Y-110872502D02*
X130812500Y-110000000D01*
X130500000Y-104050000D02*
X131092500Y-104050000D01*
X131092500Y-104050000D02*
X131571250Y-103571250D01*
X131571250Y-103571250D02*
X133796500Y-101346000D01*
X130812500Y-108187500D02*
X130812500Y-110000000D01*
X133400001Y-104239999D02*
X133400001Y-105599999D01*
X132731252Y-103571250D02*
X133400001Y-104239999D01*
X131571250Y-103571250D02*
X132731252Y-103571250D01*
D26*
X134885000Y-105625000D02*
X133375000Y-105625000D01*
D25*
X133375000Y-105625000D02*
X130812500Y-108187500D01*
D26*
X136510000Y-107250000D02*
X134885000Y-105625000D01*
D25*
X133400001Y-105599999D02*
X133375000Y-105625000D01*
D26*
X132809999Y-94601999D02*
X132809999Y-100359499D01*
X132879999Y-94531999D02*
X132809999Y-94601999D01*
X135225000Y-93175000D02*
X133868001Y-94531999D01*
X132809999Y-100359499D02*
X133796500Y-101346000D01*
X133868001Y-94531999D02*
X132879999Y-94531999D01*
X135225000Y-92675000D02*
X135225000Y-93175000D01*
D27*
X130812500Y-111887500D02*
X130500000Y-112200000D01*
X130812500Y-110000000D02*
X130812500Y-111887500D01*
X121040000Y-112200000D02*
X121000000Y-112240000D01*
X125400000Y-112200000D02*
X121040000Y-112200000D01*
X136139001Y-112844999D02*
X136574999Y-113280997D01*
X132559997Y-112844999D02*
X136139001Y-112844999D01*
X130812500Y-111097502D02*
X132559997Y-112844999D01*
X130812500Y-110000000D02*
X130812500Y-111097502D01*
D28*
%TO.N,UD-*%
X140467844Y-108796164D02*
X140467844Y-110403836D01*
X140467844Y-110403836D02*
X139403836Y-111467844D01*
X138873836Y-107202156D02*
X140467844Y-108796164D01*
X138225000Y-107605000D02*
X138627844Y-107202156D01*
X138627844Y-107202156D02*
X138873836Y-107202156D01*
X139403836Y-111467844D02*
X137903836Y-111467844D01*
X137442844Y-111928836D02*
X137442844Y-112207155D01*
X137903836Y-111467844D02*
X137442844Y-111928836D01*
X137350000Y-112299999D02*
X137350000Y-113500000D01*
X137442844Y-112207155D02*
X137350000Y-112299999D01*
%TO.N,UD+*%
X140932156Y-108603836D02*
X140932156Y-110596164D01*
X139066164Y-106737844D02*
X140932156Y-108603836D01*
X138627844Y-106737844D02*
X139066164Y-106737844D01*
X140932156Y-110596164D02*
X139596164Y-111932156D01*
X138225000Y-106335000D02*
X138627844Y-106737844D01*
X139596164Y-111932156D02*
X138096164Y-111932156D01*
X137907156Y-112207155D02*
X138000000Y-112299999D01*
X137907156Y-112121164D02*
X137907156Y-112207155D01*
X138000000Y-112299999D02*
X138000000Y-113500000D01*
X138096164Y-111932156D02*
X137907156Y-112121164D01*
D26*
%TO.N,EN*%
X127472000Y-96768000D02*
X126990000Y-97250000D01*
X127472000Y-95920000D02*
X127472000Y-96768000D01*
X121000000Y-98984092D02*
X121000000Y-99540000D01*
X127472000Y-95920000D02*
X127421990Y-95869990D01*
X122200001Y-96989997D02*
X122200001Y-98339999D01*
X122200001Y-98339999D02*
X121000000Y-99540000D01*
X124550001Y-95850001D02*
X127402001Y-95850001D01*
X127402001Y-95850001D02*
X127472000Y-95920000D01*
X124449999Y-95749999D02*
X124550001Y-95850001D01*
X123439999Y-95749999D02*
X124449999Y-95749999D01*
X122200001Y-96989997D02*
X123439999Y-95749999D01*
%TO.N,IO21*%
X142195000Y-75600000D02*
X142200000Y-75595000D01*
X140900000Y-75600000D02*
X142195000Y-75600000D01*
%TO.N,IO17*%
X141405000Y-81945000D02*
X141350000Y-82000000D01*
X142200000Y-81945000D02*
X141405000Y-81945000D01*
X140249999Y-102749999D02*
X141000000Y-103500000D01*
X142469198Y-99213680D02*
X140249999Y-101432879D01*
X140249999Y-101432879D02*
X140249999Y-102749999D01*
X144200000Y-99213680D02*
X142469198Y-99213680D01*
%TO.N,IO16*%
X141365000Y-83215000D02*
X141350000Y-83200000D01*
X142200000Y-83215000D02*
X141365000Y-83215000D01*
X141000000Y-101389998D02*
X141000000Y-102300000D01*
X142389998Y-100000000D02*
X141000000Y-101389998D01*
X143450000Y-100000000D02*
X142389998Y-100000000D01*
%TO.N,Net-(Q2-Pad2)*%
X140320000Y-91844999D02*
X139875001Y-91400000D01*
X140320000Y-92700000D02*
X140320000Y-91844999D01*
%TO.N,GPIO0*%
X142200000Y-86125001D02*
X138925001Y-89400000D01*
X142200000Y-85755000D02*
X142200000Y-86125001D01*
X144945000Y-85755000D02*
X146400000Y-84300000D01*
X142200000Y-85755000D02*
X144945000Y-85755000D01*
%TO.N,DTR*%
X142350001Y-90669999D02*
X142063367Y-90383365D01*
X142063367Y-90383365D02*
X140472295Y-90383365D01*
X142350001Y-92595999D02*
X142350001Y-90669999D01*
X142236000Y-92710000D02*
X142350001Y-92595999D01*
X137800000Y-91224999D02*
X137975001Y-91400000D01*
X137800000Y-90400000D02*
X137800000Y-91224999D01*
X144950001Y-103702123D02*
X143587124Y-105065000D01*
X144950001Y-95424001D02*
X144950001Y-103702123D01*
X143587124Y-105065000D02*
X143175000Y-105065000D01*
X142236000Y-92710000D02*
X144950001Y-95424001D01*
%TO.N,RTS*%
X141340000Y-91660000D02*
X141600000Y-91400000D01*
X141340000Y-92700000D02*
X141340000Y-91660000D01*
X141830331Y-93578423D02*
X141830331Y-97569669D01*
X141340000Y-93088092D02*
X141830331Y-93578423D01*
X141340000Y-92700000D02*
X141340000Y-93088092D01*
X142505000Y-103795000D02*
X143175000Y-103795000D01*
X139900000Y-105300000D02*
X142505000Y-103795000D01*
%TO.N,Net-(Q3-Pad2)*%
X143256000Y-91644000D02*
X143500000Y-91400000D01*
X143256000Y-92710000D02*
X143256000Y-91644000D01*
%TO.N,CH340GND*%
X135300000Y-89375000D02*
X135300000Y-90600000D01*
X138225000Y-97925000D02*
X138225000Y-101255000D01*
X135800000Y-95500000D02*
X138225000Y-97925000D01*
%TO.N,Net-(Q4-Pad1)*%
X134205000Y-91520000D02*
X134350000Y-91375000D01*
X134205000Y-92675000D02*
X134205000Y-91520000D01*
%TO.N,Net-(R4-Pad1)*%
X128150001Y-100460001D02*
X128150001Y-99599999D01*
X127760001Y-100850001D02*
X128150001Y-100460001D01*
X125915001Y-100850001D02*
X127760001Y-100850001D01*
X128150001Y-99599999D02*
X129200000Y-98550000D01*
X124865000Y-99800000D02*
X125915001Y-100850001D01*
X124865000Y-98975000D02*
X124865000Y-99800000D01*
%TO.N,Net-(R9-Pad2)*%
X124865000Y-105995000D02*
X124760000Y-106100000D01*
X124865000Y-104225000D02*
X124865000Y-105995000D01*
%TO.N,TXD0*%
X140900000Y-73055000D02*
X142200000Y-73055000D01*
X121000000Y-71364998D02*
X123919999Y-68444999D01*
X123919999Y-68444999D02*
X136289999Y-68444999D01*
X121000000Y-71600000D02*
X121000000Y-71364998D01*
X136500000Y-98600000D02*
X137100000Y-98000000D01*
X136500000Y-101390000D02*
X136500000Y-98600000D01*
X138462170Y-80837830D02*
X138462170Y-77937830D01*
X135800000Y-83500000D02*
X138462170Y-80837830D01*
X139012498Y-71677500D02*
X139522500Y-71677500D01*
X138500000Y-75800000D02*
X138500000Y-72189998D01*
X139522500Y-71677500D02*
X140900000Y-73055000D01*
X138500000Y-72189998D02*
X139012498Y-71677500D01*
X136289999Y-68444999D02*
X139522500Y-71677500D01*
%TO.N,Net-(R12-Pad1)*%
X138100000Y-102400000D02*
X138225000Y-102525000D01*
X138110000Y-102410000D02*
X138225000Y-102525000D01*
X136500000Y-102410000D02*
X138110000Y-102410000D01*
%TO.N,RXD0*%
X136850651Y-67944989D02*
X139252831Y-70347169D01*
X122115011Y-67944989D02*
X136850651Y-67944989D01*
X121000000Y-69060000D02*
X122115011Y-67944989D01*
X141109338Y-74325000D02*
X142200000Y-74325000D01*
X139292169Y-72507831D02*
X141109338Y-74325000D01*
X135850001Y-97949999D02*
X135900000Y-97900000D01*
X135850001Y-101039999D02*
X135850001Y-97949999D01*
X135500000Y-101390000D02*
X135850001Y-101039999D01*
X137500000Y-80385784D02*
X137500000Y-77200000D01*
X135092892Y-82792892D02*
X137500000Y-80385784D01*
%TO.N,Net-(R13-Pad2)*%
X136615000Y-103795000D02*
X138225000Y-103795000D01*
X135500000Y-102680000D02*
X136615000Y-103795000D01*
X135500000Y-102410000D02*
X135500000Y-102680000D01*
%TO.N,IO2*%
X124422490Y-93789010D02*
X122869010Y-93789010D01*
X122869010Y-93789010D02*
X121000000Y-91920000D01*
X125247500Y-92964000D02*
X124422490Y-93789010D01*
X129636501Y-88574999D02*
X125247500Y-92964000D01*
X138895001Y-88574999D02*
X129636501Y-88574999D01*
X139415000Y-88055000D02*
X138895001Y-88574999D01*
X139415000Y-86755000D02*
X139415000Y-88055000D01*
%TO.N,I35*%
X124780000Y-97510000D02*
X125800000Y-96490000D01*
X124500000Y-97510000D02*
X124780000Y-97510000D01*
X126018851Y-96490000D02*
X126197887Y-96669036D01*
X125800000Y-96490000D02*
X126018851Y-96490000D01*
X130074990Y-89324999D02*
X130500000Y-89324999D01*
X128099989Y-91300000D02*
X130074990Y-89324999D01*
X130400000Y-80765000D02*
X126500000Y-76865000D01*
X126500000Y-76865000D02*
X125200000Y-76865000D01*
X130400000Y-81900000D02*
X130400000Y-80765000D01*
X144880000Y-78200000D02*
X143800000Y-78200000D01*
X146400000Y-76680000D02*
X144880000Y-78200000D01*
X134935000Y-80765000D02*
X130400000Y-80765000D01*
X136600000Y-79100000D02*
X134935000Y-80765000D01*
%TO.N,I36*%
X145540000Y-68200000D02*
X138300000Y-68200000D01*
X146400000Y-69060000D02*
X145540000Y-68200000D01*
X132480000Y-73055000D02*
X125200000Y-73055000D01*
X133000000Y-72535000D02*
X132480000Y-73055000D01*
%TO.N,I39*%
X143900000Y-69100000D02*
X143900000Y-68950000D01*
X146400000Y-71600000D02*
X143900000Y-69100000D01*
X133512171Y-73787829D02*
X127037171Y-73787829D01*
X126500000Y-74325000D02*
X125200000Y-74325000D01*
X127037171Y-73787829D02*
X126500000Y-74325000D01*
X133912170Y-73387830D02*
X133512171Y-73787829D01*
%TO.N,I34*%
X128542827Y-75595000D02*
X125200000Y-75595000D01*
X129599998Y-74537829D02*
X128542827Y-75595000D01*
X145099999Y-72839999D02*
X146400000Y-74140000D01*
X145099999Y-71500000D02*
X145099999Y-72839999D01*
X143900000Y-70300000D02*
X145099999Y-71500000D01*
%TO.N,IO32*%
X121874336Y-81760000D02*
X123007168Y-82892832D01*
X121000000Y-81760000D02*
X121874336Y-81760000D01*
X126500000Y-78135000D02*
X125200000Y-78135000D01*
X128000000Y-79635000D02*
X126500000Y-78135000D01*
X128000000Y-82900000D02*
X128000000Y-79635000D01*
%TO.N,IO33*%
X122600000Y-84300000D02*
X123000000Y-83900000D01*
X121000000Y-84300000D02*
X122600000Y-84300000D01*
X126500000Y-79405000D02*
X125200000Y-79405000D01*
X127200000Y-80105000D02*
X126500000Y-79405000D01*
X127200000Y-83900000D02*
X127200000Y-80105000D01*
%TO.N,IO25_DAC1*%
X122700011Y-75840011D02*
X121000000Y-74140000D01*
X122700011Y-79475011D02*
X122700011Y-75840011D01*
X123900000Y-80675000D02*
X122700011Y-79475011D01*
X125200000Y-80675000D02*
X123900000Y-80675000D01*
%TO.N,IO26_DAC2*%
X122200001Y-77880001D02*
X121000000Y-76680000D01*
X122200001Y-80245001D02*
X122200001Y-77880001D01*
X123900000Y-81945000D02*
X122200001Y-80245001D01*
X125200000Y-81945000D02*
X123900000Y-81945000D01*
%TO.N,IO27*%
X121000000Y-79825002D02*
X121000000Y-79220000D01*
X124389998Y-83215000D02*
X121000000Y-79825002D01*
X125200000Y-83215000D02*
X124389998Y-83215000D01*
%TO.N,IO14*%
X126800000Y-84785000D02*
X126800000Y-86400000D01*
X126500000Y-84485000D02*
X126800000Y-84785000D01*
X125200000Y-84485000D02*
X126500000Y-84485000D01*
%TO.N,IO12*%
X125200000Y-86000000D02*
X126700000Y-87500000D01*
X125200000Y-85755000D02*
X125200000Y-86000000D01*
%TO.N,IO13*%
X124740000Y-86840000D02*
X124900000Y-87000000D01*
X121000000Y-86840000D02*
X124740000Y-86840000D01*
X129200000Y-86700000D02*
X129255000Y-86755000D01*
X129200000Y-85200000D02*
X129200000Y-86700000D01*
%TO.N,IO15*%
X138145000Y-85445000D02*
X138100000Y-85400000D01*
X138145000Y-86755000D02*
X138145000Y-85445000D01*
X146116333Y-79220000D02*
X146400000Y-79220000D01*
X143800002Y-81536331D02*
X146116333Y-79220000D01*
%TO.N,IO4*%
X141365000Y-84485000D02*
X141350000Y-84500000D01*
X142200000Y-84485000D02*
X141365000Y-84485000D01*
%TO.N,IO5*%
X122790000Y-87590000D02*
X123300000Y-87590000D01*
X121000000Y-89380000D02*
X122790000Y-87590000D01*
X136160001Y-84250001D02*
X139000000Y-81410002D01*
X131350001Y-84250001D02*
X136160001Y-84250001D01*
X129100000Y-82000000D02*
X131350001Y-84250001D01*
X139000000Y-81400000D02*
X139700000Y-80700000D01*
X139000000Y-81410002D02*
X139000000Y-81400000D01*
X142275000Y-80600000D02*
X142200000Y-80675000D01*
X143400000Y-80600000D02*
X142275000Y-80600000D01*
%TO.N,IO18*%
X142296707Y-79501707D02*
X142200000Y-79405000D01*
X143558955Y-79501707D02*
X142296707Y-79501707D01*
%TO.N,IO19*%
X142165000Y-78100000D02*
X142200000Y-78135000D01*
X140900000Y-78100000D02*
X142165000Y-78100000D01*
%TO.N,IO22*%
X142215000Y-71800000D02*
X142200000Y-71785000D01*
X143800000Y-71800000D02*
X142215000Y-71800000D01*
%TO.N,IO23*%
X140940375Y-70515000D02*
X142200000Y-70515000D01*
X140405375Y-71050000D02*
X140940375Y-70515000D01*
%TD*%
M02*
