%TF.GenerationSoftware,KiCad,Pcbnew,(5.1.7-0-10_14)*%
%TF.CreationDate,2020-11-04T22:45:55+09:00*%
%TF.ProjectId,mini-esp32,6d696e69-2d65-4737-9033-322e6b696361,rev?*%
%TF.SameCoordinates,Original*%
%TF.FileFunction,Copper,L3,Inr*%
%TF.FilePolarity,Positive*%
%FSLAX46Y46*%
G04 Gerber Fmt 4.6, Leading zero omitted, Abs format (unit mm)*
G04 Created by KiCad (PCBNEW (5.1.7-0-10_14)) date 2020-11-04 22:45:55*
%MOMM*%
%LPD*%
G01*
G04 APERTURE LIST*
%TA.AperFunction,ComponentPad*%
%ADD10O,1.300000X2.200000*%
%TD*%
%TA.AperFunction,ComponentPad*%
%ADD11C,1.200000*%
%TD*%
%TA.AperFunction,ComponentPad*%
%ADD12O,1.700000X1.700000*%
%TD*%
%TA.AperFunction,ComponentPad*%
%ADD13R,1.700000X1.700000*%
%TD*%
%TA.AperFunction,ViaPad*%
%ADD14C,1.600000*%
%TD*%
%TA.AperFunction,ViaPad*%
%ADD15C,0.800000*%
%TD*%
%TA.AperFunction,Conductor*%
%ADD16C,0.254000*%
%TD*%
%TA.AperFunction,Conductor*%
%ADD17C,0.100000*%
%TD*%
G04 APERTURE END LIST*
D10*
%TO.N,N/C*%
%TO.C,J2*%
X141628000Y-118198000D03*
X134389000Y-118198000D03*
D11*
X135584000Y-115498000D03*
X140434000Y-115498000D03*
%TD*%
D12*
%TO.N,VBUS*%
%TO.C,J5*%
X121000000Y-112240000D03*
%TO.N,VDD*%
X121000000Y-109700000D03*
%TO.N,Net-(J5-Pad16)*%
X121000000Y-107160000D03*
%TO.N,GND*%
X121000000Y-104620000D03*
%TO.N,+BATT*%
X121000000Y-102080000D03*
%TO.N,EN*%
X121000000Y-99540000D03*
%TO.N,Net-(J5-Pad12)*%
X121000000Y-97000000D03*
%TO.N,Net-(J5-Pad11)*%
X121000000Y-94460000D03*
%TO.N,IO2*%
X121000000Y-91920000D03*
%TO.N,IO5*%
X121000000Y-89380000D03*
%TO.N,IO13*%
X121000000Y-86840000D03*
%TO.N,IO33*%
X121000000Y-84300000D03*
%TO.N,IO32*%
X121000000Y-81760000D03*
%TO.N,IO27*%
X121000000Y-79220000D03*
%TO.N,IO26_DAC2*%
X121000000Y-76680000D03*
%TO.N,IO25_DAC1*%
X121000000Y-74140000D03*
%TO.N,TXD0*%
X121000000Y-71600000D03*
D13*
%TO.N,RXD0*%
X121000000Y-69060000D03*
%TD*%
%TO.N,I36*%
%TO.C,J6*%
X146400000Y-69060000D03*
D12*
%TO.N,I39*%
X146400000Y-71600000D03*
%TO.N,I34*%
X146400000Y-74140000D03*
%TO.N,I35*%
X146400000Y-76680000D03*
%TO.N,IO15*%
X146400000Y-79220000D03*
%TO.N,Net-(J6-Pad6)*%
X146400000Y-81760000D03*
%TO.N,GPIO0*%
X146400000Y-84300000D03*
%TO.N,IO18*%
X146400000Y-86840000D03*
%TO.N,IO23*%
X146400000Y-89380000D03*
%TO.N,IO19*%
X146400000Y-91920000D03*
%TO.N,IO21*%
X146400000Y-94460000D03*
%TO.N,IO22*%
X146400000Y-97000000D03*
%TO.N,IO14*%
X146400000Y-99540000D03*
%TO.N,IO12*%
X146400000Y-102080000D03*
%TO.N,IO4*%
X146400000Y-104620000D03*
%TO.N,IO16*%
X146400000Y-107160000D03*
%TO.N,IO17*%
X146400000Y-109700000D03*
%TO.N,RESET*%
X146400000Y-112240000D03*
%TD*%
D14*
%TO.N,GND*%
X132700000Y-76700000D03*
D15*
X124900000Y-108800000D03*
X139350000Y-112600000D03*
X138800000Y-113100000D03*
X135000000Y-108300000D03*
X134884312Y-106200001D03*
X135526916Y-105764833D03*
X124500000Y-101400000D03*
X128100000Y-99500000D03*
X130100000Y-103200000D03*
X130300000Y-100100000D03*
X139350000Y-98600000D03*
X133200000Y-98500000D03*
X139250000Y-92700000D03*
X124700000Y-87900000D03*
X125500000Y-89300000D03*
X129350000Y-84850000D03*
X124184207Y-89285786D03*
X140200000Y-69950000D03*
X124000000Y-68700000D03*
X126400000Y-68700000D03*
X129200000Y-95000000D03*
X125900000Y-95400000D03*
X135550000Y-90700000D03*
X122900000Y-91250000D03*
X127600000Y-103300000D03*
X131700000Y-91500000D03*
X128000000Y-111700000D03*
X127200000Y-111700000D03*
X137200000Y-111200000D03*
%TO.N,Net-(C2-Pad1)*%
X132200000Y-105000000D03*
X132200000Y-100600000D03*
X132200000Y-94400000D03*
%TO.N,VDD*%
X130000000Y-90800000D03*
X129600000Y-91800000D03*
X144649999Y-101400000D03*
X139350000Y-105100000D03*
X144972382Y-96746209D03*
X125558943Y-87346058D03*
X123500000Y-87900000D03*
X125900000Y-88200000D03*
X123900000Y-70650000D03*
X126149567Y-70734999D03*
%TO.N,RESET*%
X141400000Y-95400000D03*
X141400000Y-89400000D03*
X133050000Y-95100000D03*
X133100000Y-71800000D03*
%TO.N,Net-(D3-Pad1)*%
X124300000Y-93600000D03*
X124709224Y-91386100D03*
%TO.N,VBUS*%
X135550000Y-92600000D03*
X136200000Y-113100000D03*
%TO.N,IO21*%
X137600000Y-83000000D03*
X137600000Y-75600000D03*
%TO.N,IO17*%
X134100000Y-81350000D03*
X134100000Y-114800000D03*
%TO.N,IO16*%
X140100000Y-113800000D03*
X140100000Y-83200000D03*
%TO.N,GPIO0*%
X141400000Y-88399997D03*
X141500000Y-85700000D03*
%TO.N,DTR*%
X142900000Y-105100000D03*
X142900000Y-94586320D03*
%TO.N,RTS*%
X142150000Y-103800000D03*
X142150000Y-93800000D03*
%TO.N,CH340GND*%
X136700000Y-98100000D03*
X136700000Y-89500000D03*
%TO.N,TXD0*%
X135900000Y-98800000D03*
X135900000Y-73000000D03*
X128900000Y-74600000D03*
%TO.N,RXD0*%
X127050000Y-70300000D03*
X134800000Y-73600000D03*
X134800000Y-70300000D03*
X135000000Y-100300000D03*
%TO.N,IO2*%
X128600000Y-92000000D03*
X128600000Y-82100000D03*
X139300000Y-82100000D03*
X139300000Y-85600000D03*
%TO.N,I35*%
X144000000Y-76000000D03*
X139400000Y-77750000D03*
X127000000Y-98500000D03*
X127189998Y-76865000D03*
%TO.N,I36*%
X128800000Y-68500000D03*
X128800000Y-73100000D03*
%TO.N,I39*%
X144000000Y-69200000D03*
X139400000Y-69200000D03*
X127800000Y-69200000D03*
X127800000Y-74300000D03*
%TO.N,I34*%
X144000000Y-74100000D03*
X139400000Y-71050000D03*
X129700000Y-71050000D03*
X129599998Y-75600000D03*
%TO.N,IO32*%
X126400000Y-78100000D03*
%TO.N,IO33*%
X126400000Y-79400000D03*
%TO.N,IO14*%
X138500000Y-96500000D03*
X138350000Y-88376087D03*
%TO.N,IO12*%
X137600000Y-97300000D03*
X137600000Y-84100000D03*
%TO.N,IO13*%
X130500000Y-84900000D03*
X130500000Y-89400000D03*
X126500000Y-91000000D03*
%TO.N,IO15*%
X144000000Y-77000000D03*
X140400000Y-77000000D03*
X136800000Y-77000000D03*
X136800000Y-85000000D03*
%TO.N,IO4*%
X143500000Y-111500000D03*
X143200000Y-84500000D03*
%TO.N,IO5*%
X127900000Y-80500000D03*
X127850000Y-90100000D03*
%TO.N,IO18*%
X143000000Y-86900000D03*
X141200000Y-79624998D03*
%TO.N,IO19*%
X145500011Y-91300000D03*
X143500000Y-78200000D03*
%TO.N,IO22*%
X138550000Y-84700000D03*
X138600000Y-71800000D03*
%TO.N,IO23*%
X143500000Y-70500000D03*
%TD*%
D16*
%TO.N,VDD*%
X123082795Y-68209744D02*
X123004774Y-68398102D01*
X122965000Y-68598061D01*
X122965000Y-68801939D01*
X123004774Y-69001898D01*
X123082795Y-69190256D01*
X123196063Y-69359774D01*
X123340226Y-69503937D01*
X123509744Y-69617205D01*
X123698102Y-69695226D01*
X123898061Y-69735000D01*
X124101939Y-69735000D01*
X124301898Y-69695226D01*
X124490256Y-69617205D01*
X124659774Y-69503937D01*
X124803937Y-69359774D01*
X124917205Y-69190256D01*
X124995226Y-69001898D01*
X125035000Y-68801939D01*
X125035000Y-68598061D01*
X124995226Y-68398102D01*
X124917205Y-68209744D01*
X124861917Y-68127000D01*
X125538083Y-68127000D01*
X125482795Y-68209744D01*
X125404774Y-68398102D01*
X125365000Y-68598061D01*
X125365000Y-68801939D01*
X125404774Y-69001898D01*
X125482795Y-69190256D01*
X125596063Y-69359774D01*
X125740226Y-69503937D01*
X125909744Y-69617205D01*
X126098102Y-69695226D01*
X126196266Y-69714752D01*
X126132795Y-69809744D01*
X126054774Y-69998102D01*
X126015000Y-70198061D01*
X126015000Y-70401939D01*
X126054774Y-70601898D01*
X126132795Y-70790256D01*
X126246063Y-70959774D01*
X126390226Y-71103937D01*
X126559744Y-71217205D01*
X126748102Y-71295226D01*
X126948061Y-71335000D01*
X127151939Y-71335000D01*
X127351898Y-71295226D01*
X127540256Y-71217205D01*
X127709774Y-71103937D01*
X127853937Y-70959774D01*
X127861763Y-70948061D01*
X128665000Y-70948061D01*
X128665000Y-71151939D01*
X128704774Y-71351898D01*
X128782795Y-71540256D01*
X128896063Y-71709774D01*
X129040226Y-71853937D01*
X129209744Y-71967205D01*
X129398102Y-72045226D01*
X129598061Y-72085000D01*
X129801939Y-72085000D01*
X130001898Y-72045226D01*
X130190256Y-71967205D01*
X130359774Y-71853937D01*
X130503937Y-71709774D01*
X130511763Y-71698061D01*
X132065000Y-71698061D01*
X132065000Y-71901939D01*
X132104774Y-72101898D01*
X132182795Y-72290256D01*
X132296063Y-72459774D01*
X132440226Y-72603937D01*
X132609744Y-72717205D01*
X132798102Y-72795226D01*
X132998061Y-72835000D01*
X133201939Y-72835000D01*
X133401898Y-72795226D01*
X133590256Y-72717205D01*
X133759774Y-72603937D01*
X133903937Y-72459774D01*
X134017205Y-72290256D01*
X134095226Y-72101898D01*
X134135000Y-71901939D01*
X134135000Y-71698061D01*
X137565000Y-71698061D01*
X137565000Y-71901939D01*
X137604774Y-72101898D01*
X137682795Y-72290256D01*
X137796063Y-72459774D01*
X137940226Y-72603937D01*
X138109744Y-72717205D01*
X138298102Y-72795226D01*
X138498061Y-72835000D01*
X138701939Y-72835000D01*
X138901898Y-72795226D01*
X139090256Y-72717205D01*
X139259774Y-72603937D01*
X139403937Y-72459774D01*
X139517205Y-72290256D01*
X139595226Y-72101898D01*
X139602569Y-72064984D01*
X139701898Y-72045226D01*
X139890256Y-71967205D01*
X140059774Y-71853937D01*
X140203937Y-71709774D01*
X140317205Y-71540256D01*
X140395226Y-71351898D01*
X140435000Y-71151939D01*
X140435000Y-70958533D01*
X140501898Y-70945226D01*
X140690256Y-70867205D01*
X140859774Y-70753937D01*
X141003937Y-70609774D01*
X141117205Y-70440256D01*
X141195226Y-70251898D01*
X141235000Y-70051939D01*
X141235000Y-69848061D01*
X141195226Y-69648102D01*
X141117205Y-69459744D01*
X141003937Y-69290226D01*
X140859774Y-69146063D01*
X140690256Y-69032795D01*
X140501898Y-68954774D01*
X140402569Y-68935016D01*
X140395226Y-68898102D01*
X140317205Y-68709744D01*
X140203937Y-68540226D01*
X140059774Y-68396063D01*
X139890256Y-68282795D01*
X139701898Y-68204774D01*
X139501939Y-68165000D01*
X139298061Y-68165000D01*
X139098102Y-68204774D01*
X138909744Y-68282795D01*
X138740226Y-68396063D01*
X138596063Y-68540226D01*
X138482795Y-68709744D01*
X138404774Y-68898102D01*
X138365000Y-69098061D01*
X138365000Y-69301939D01*
X138404774Y-69501898D01*
X138482795Y-69690256D01*
X138596063Y-69859774D01*
X138740226Y-70003937D01*
X138909744Y-70117205D01*
X138928563Y-70125000D01*
X138909744Y-70132795D01*
X138740226Y-70246063D01*
X138596063Y-70390226D01*
X138482795Y-70559744D01*
X138404774Y-70748102D01*
X138397431Y-70785016D01*
X138298102Y-70804774D01*
X138109744Y-70882795D01*
X137940226Y-70996063D01*
X137796063Y-71140226D01*
X137682795Y-71309744D01*
X137604774Y-71498102D01*
X137565000Y-71698061D01*
X134135000Y-71698061D01*
X134095226Y-71498102D01*
X134017205Y-71309744D01*
X133903937Y-71140226D01*
X133759774Y-70996063D01*
X133590256Y-70882795D01*
X133401898Y-70804774D01*
X133201939Y-70765000D01*
X132998061Y-70765000D01*
X132798102Y-70804774D01*
X132609744Y-70882795D01*
X132440226Y-70996063D01*
X132296063Y-71140226D01*
X132182795Y-71309744D01*
X132104774Y-71498102D01*
X132065000Y-71698061D01*
X130511763Y-71698061D01*
X130617205Y-71540256D01*
X130695226Y-71351898D01*
X130735000Y-71151939D01*
X130735000Y-70948061D01*
X130695226Y-70748102D01*
X130617205Y-70559744D01*
X130503937Y-70390226D01*
X130359774Y-70246063D01*
X130287934Y-70198061D01*
X133765000Y-70198061D01*
X133765000Y-70401939D01*
X133804774Y-70601898D01*
X133882795Y-70790256D01*
X133996063Y-70959774D01*
X134140226Y-71103937D01*
X134309744Y-71217205D01*
X134498102Y-71295226D01*
X134698061Y-71335000D01*
X134901939Y-71335000D01*
X135101898Y-71295226D01*
X135290256Y-71217205D01*
X135459774Y-71103937D01*
X135603937Y-70959774D01*
X135717205Y-70790256D01*
X135795226Y-70601898D01*
X135835000Y-70401939D01*
X135835000Y-70198061D01*
X135795226Y-69998102D01*
X135717205Y-69809744D01*
X135603937Y-69640226D01*
X135459774Y-69496063D01*
X135290256Y-69382795D01*
X135101898Y-69304774D01*
X134901939Y-69265000D01*
X134698061Y-69265000D01*
X134498102Y-69304774D01*
X134309744Y-69382795D01*
X134140226Y-69496063D01*
X133996063Y-69640226D01*
X133882795Y-69809744D01*
X133804774Y-69998102D01*
X133765000Y-70198061D01*
X130287934Y-70198061D01*
X130190256Y-70132795D01*
X130001898Y-70054774D01*
X129801939Y-70015000D01*
X129598061Y-70015000D01*
X129398102Y-70054774D01*
X129209744Y-70132795D01*
X129040226Y-70246063D01*
X128896063Y-70390226D01*
X128782795Y-70559744D01*
X128704774Y-70748102D01*
X128665000Y-70948061D01*
X127861763Y-70948061D01*
X127967205Y-70790256D01*
X128045226Y-70601898D01*
X128085000Y-70401939D01*
X128085000Y-70198587D01*
X128101898Y-70195226D01*
X128290256Y-70117205D01*
X128459774Y-70003937D01*
X128603937Y-69859774D01*
X128717205Y-69690256D01*
X128781515Y-69535000D01*
X128901939Y-69535000D01*
X129101898Y-69495226D01*
X129290256Y-69417205D01*
X129459774Y-69303937D01*
X129603937Y-69159774D01*
X129717205Y-68990256D01*
X129795226Y-68801898D01*
X129835000Y-68601939D01*
X129835000Y-68398061D01*
X129795226Y-68198102D01*
X129765774Y-68127000D01*
X144920103Y-68127000D01*
X144911928Y-68210000D01*
X144911928Y-68701846D01*
X144803937Y-68540226D01*
X144659774Y-68396063D01*
X144490256Y-68282795D01*
X144301898Y-68204774D01*
X144101939Y-68165000D01*
X143898061Y-68165000D01*
X143698102Y-68204774D01*
X143509744Y-68282795D01*
X143340226Y-68396063D01*
X143196063Y-68540226D01*
X143082795Y-68709744D01*
X143004774Y-68898102D01*
X142965000Y-69098061D01*
X142965000Y-69301939D01*
X143004774Y-69501898D01*
X143034103Y-69572705D01*
X143009744Y-69582795D01*
X142840226Y-69696063D01*
X142696063Y-69840226D01*
X142582795Y-70009744D01*
X142504774Y-70198102D01*
X142465000Y-70398061D01*
X142465000Y-70601939D01*
X142504774Y-70801898D01*
X142582795Y-70990256D01*
X142696063Y-71159774D01*
X142840226Y-71303937D01*
X143009744Y-71417205D01*
X143198102Y-71495226D01*
X143398061Y-71535000D01*
X143601939Y-71535000D01*
X143801898Y-71495226D01*
X143990256Y-71417205D01*
X144159774Y-71303937D01*
X144303937Y-71159774D01*
X144417205Y-70990256D01*
X144495226Y-70801898D01*
X144535000Y-70601939D01*
X144535000Y-70398061D01*
X144495226Y-70198102D01*
X144465897Y-70127295D01*
X144490256Y-70117205D01*
X144659774Y-70003937D01*
X144803937Y-69859774D01*
X144911928Y-69698154D01*
X144911928Y-69910000D01*
X144924188Y-70034482D01*
X144960498Y-70154180D01*
X145019463Y-70264494D01*
X145098815Y-70361185D01*
X145195506Y-70440537D01*
X145305820Y-70499502D01*
X145378380Y-70521513D01*
X145246525Y-70653368D01*
X145084010Y-70896589D01*
X144972068Y-71166842D01*
X144915000Y-71453740D01*
X144915000Y-71746260D01*
X144972068Y-72033158D01*
X145084010Y-72303411D01*
X145246525Y-72546632D01*
X145453368Y-72753475D01*
X145627760Y-72870000D01*
X145453368Y-72986525D01*
X145246525Y-73193368D01*
X145084010Y-73436589D01*
X144972068Y-73706842D01*
X144967317Y-73730725D01*
X144917205Y-73609744D01*
X144803937Y-73440226D01*
X144659774Y-73296063D01*
X144490256Y-73182795D01*
X144301898Y-73104774D01*
X144101939Y-73065000D01*
X143898061Y-73065000D01*
X143698102Y-73104774D01*
X143509744Y-73182795D01*
X143340226Y-73296063D01*
X143196063Y-73440226D01*
X143082795Y-73609744D01*
X143004774Y-73798102D01*
X142965000Y-73998061D01*
X142965000Y-74201939D01*
X143004774Y-74401898D01*
X143082795Y-74590256D01*
X143196063Y-74759774D01*
X143340226Y-74903937D01*
X143509744Y-75017205D01*
X143588918Y-75050000D01*
X143509744Y-75082795D01*
X143340226Y-75196063D01*
X143196063Y-75340226D01*
X143082795Y-75509744D01*
X143004774Y-75698102D01*
X142965000Y-75898061D01*
X142965000Y-76101939D01*
X143004774Y-76301898D01*
X143082795Y-76490256D01*
X143089306Y-76500000D01*
X143082795Y-76509744D01*
X143004774Y-76698102D01*
X142965000Y-76898061D01*
X142965000Y-77101939D01*
X143002003Y-77287967D01*
X142840226Y-77396063D01*
X142696063Y-77540226D01*
X142582795Y-77709744D01*
X142504774Y-77898102D01*
X142465000Y-78098061D01*
X142465000Y-78301939D01*
X142504774Y-78501898D01*
X142582795Y-78690256D01*
X142696063Y-78859774D01*
X142840226Y-79003937D01*
X143009744Y-79117205D01*
X143198102Y-79195226D01*
X143398061Y-79235000D01*
X143601939Y-79235000D01*
X143801898Y-79195226D01*
X143990256Y-79117205D01*
X144159774Y-79003937D01*
X144303937Y-78859774D01*
X144417205Y-78690256D01*
X144495226Y-78501898D01*
X144535000Y-78301939D01*
X144535000Y-78098061D01*
X144497997Y-77912033D01*
X144659774Y-77803937D01*
X144803937Y-77659774D01*
X144917205Y-77490256D01*
X144995226Y-77301898D01*
X145013076Y-77212160D01*
X145084010Y-77383411D01*
X145246525Y-77626632D01*
X145453368Y-77833475D01*
X145627760Y-77950000D01*
X145453368Y-78066525D01*
X145246525Y-78273368D01*
X145084010Y-78516589D01*
X144972068Y-78786842D01*
X144915000Y-79073740D01*
X144915000Y-79366260D01*
X144972068Y-79653158D01*
X145084010Y-79923411D01*
X145246525Y-80166632D01*
X145453368Y-80373475D01*
X145627760Y-80490000D01*
X145453368Y-80606525D01*
X145246525Y-80813368D01*
X145084010Y-81056589D01*
X144972068Y-81326842D01*
X144915000Y-81613740D01*
X144915000Y-81906260D01*
X144972068Y-82193158D01*
X145084010Y-82463411D01*
X145246525Y-82706632D01*
X145453368Y-82913475D01*
X145627760Y-83030000D01*
X145453368Y-83146525D01*
X145246525Y-83353368D01*
X145084010Y-83596589D01*
X144972068Y-83866842D01*
X144915000Y-84153740D01*
X144915000Y-84446260D01*
X144972068Y-84733158D01*
X145084010Y-85003411D01*
X145246525Y-85246632D01*
X145453368Y-85453475D01*
X145627760Y-85570000D01*
X145453368Y-85686525D01*
X145246525Y-85893368D01*
X145084010Y-86136589D01*
X144972068Y-86406842D01*
X144915000Y-86693740D01*
X144915000Y-86986260D01*
X144972068Y-87273158D01*
X145084010Y-87543411D01*
X145246525Y-87786632D01*
X145453368Y-87993475D01*
X145627760Y-88110000D01*
X145453368Y-88226525D01*
X145246525Y-88433368D01*
X145084010Y-88676589D01*
X144972068Y-88946842D01*
X144915000Y-89233740D01*
X144915000Y-89526260D01*
X144972068Y-89813158D01*
X145084010Y-90083411D01*
X145227954Y-90298838D01*
X145198113Y-90304774D01*
X145009755Y-90382795D01*
X144840237Y-90496063D01*
X144696074Y-90640226D01*
X144582806Y-90809744D01*
X144504785Y-90998102D01*
X144465011Y-91198061D01*
X144465011Y-91401939D01*
X144504785Y-91601898D01*
X144582806Y-91790256D01*
X144696074Y-91959774D01*
X144840237Y-92103937D01*
X144935103Y-92167324D01*
X144972068Y-92353158D01*
X145084010Y-92623411D01*
X145246525Y-92866632D01*
X145453368Y-93073475D01*
X145627760Y-93190000D01*
X145453368Y-93306525D01*
X145246525Y-93513368D01*
X145084010Y-93756589D01*
X144972068Y-94026842D01*
X144915000Y-94313740D01*
X144915000Y-94606260D01*
X144972068Y-94893158D01*
X145084010Y-95163411D01*
X145246525Y-95406632D01*
X145453368Y-95613475D01*
X145627760Y-95730000D01*
X145453368Y-95846525D01*
X145246525Y-96053368D01*
X145084010Y-96296589D01*
X144972068Y-96566842D01*
X144915000Y-96853740D01*
X144915000Y-97146260D01*
X144972068Y-97433158D01*
X145084010Y-97703411D01*
X145246525Y-97946632D01*
X145453368Y-98153475D01*
X145627760Y-98270000D01*
X145453368Y-98386525D01*
X145246525Y-98593368D01*
X145084010Y-98836589D01*
X144972068Y-99106842D01*
X144915000Y-99393740D01*
X144915000Y-99686260D01*
X144972068Y-99973158D01*
X145084010Y-100243411D01*
X145246525Y-100486632D01*
X145453368Y-100693475D01*
X145627760Y-100810000D01*
X145453368Y-100926525D01*
X145246525Y-101133368D01*
X145084010Y-101376589D01*
X144972068Y-101646842D01*
X144915000Y-101933740D01*
X144915000Y-102226260D01*
X144972068Y-102513158D01*
X145084010Y-102783411D01*
X145246525Y-103026632D01*
X145453368Y-103233475D01*
X145627760Y-103350000D01*
X145453368Y-103466525D01*
X145246525Y-103673368D01*
X145084010Y-103916589D01*
X144972068Y-104186842D01*
X144915000Y-104473740D01*
X144915000Y-104766260D01*
X144972068Y-105053158D01*
X145084010Y-105323411D01*
X145246525Y-105566632D01*
X145453368Y-105773475D01*
X145627760Y-105890000D01*
X145453368Y-106006525D01*
X145246525Y-106213368D01*
X145084010Y-106456589D01*
X144972068Y-106726842D01*
X144915000Y-107013740D01*
X144915000Y-107306260D01*
X144972068Y-107593158D01*
X145084010Y-107863411D01*
X145246525Y-108106632D01*
X145453368Y-108313475D01*
X145627760Y-108430000D01*
X145453368Y-108546525D01*
X145246525Y-108753368D01*
X145084010Y-108996589D01*
X144972068Y-109266842D01*
X144915000Y-109553740D01*
X144915000Y-109846260D01*
X144972068Y-110133158D01*
X145084010Y-110403411D01*
X145246525Y-110646632D01*
X145453368Y-110853475D01*
X145627760Y-110970000D01*
X145453368Y-111086525D01*
X145246525Y-111293368D01*
X145084010Y-111536589D01*
X144972068Y-111806842D01*
X144915000Y-112093740D01*
X144915000Y-112386260D01*
X144972068Y-112673158D01*
X145084010Y-112943411D01*
X145246525Y-113186632D01*
X145453368Y-113393475D01*
X145696589Y-113555990D01*
X145966842Y-113667932D01*
X146253740Y-113725000D01*
X146546260Y-113725000D01*
X146833158Y-113667932D01*
X147103411Y-113555990D01*
X147346632Y-113393475D01*
X147540000Y-113200107D01*
X147540000Y-116010856D01*
X147358363Y-115739017D01*
X147060983Y-115441637D01*
X146711302Y-115207988D01*
X146322756Y-115047047D01*
X145910279Y-114965000D01*
X145489721Y-114965000D01*
X145077244Y-115047047D01*
X144688698Y-115207988D01*
X144339017Y-115441637D01*
X144041637Y-115739017D01*
X143807988Y-116088698D01*
X143647047Y-116477244D01*
X143565000Y-116889721D01*
X143565000Y-117310279D01*
X143647047Y-117722756D01*
X143807988Y-118111302D01*
X144041637Y-118460983D01*
X144339017Y-118758363D01*
X144610856Y-118940000D01*
X142882244Y-118940000D01*
X142894407Y-118899904D01*
X142913000Y-118711122D01*
X142913000Y-117684877D01*
X142894407Y-117496096D01*
X142820929Y-117253873D01*
X142701608Y-117030638D01*
X142541028Y-116834972D01*
X142345361Y-116674392D01*
X142122126Y-116555071D01*
X141879903Y-116481593D01*
X141628000Y-116456783D01*
X141376096Y-116481593D01*
X141133873Y-116555071D01*
X140910638Y-116674392D01*
X140714972Y-116834972D01*
X140554392Y-117030639D01*
X140435071Y-117253874D01*
X140361593Y-117496097D01*
X140343000Y-117684878D01*
X140343000Y-118711123D01*
X140361593Y-118899904D01*
X140373756Y-118940000D01*
X135643244Y-118940000D01*
X135655407Y-118899904D01*
X135674000Y-118711122D01*
X135674000Y-117684877D01*
X135655407Y-117496096D01*
X135581929Y-117253873D01*
X135462608Y-117030638D01*
X135302028Y-116834972D01*
X135106361Y-116674392D01*
X134883126Y-116555071D01*
X134640903Y-116481593D01*
X134389000Y-116456783D01*
X134137096Y-116481593D01*
X133894873Y-116555071D01*
X133671638Y-116674392D01*
X133475972Y-116834972D01*
X133315392Y-117030639D01*
X133196071Y-117253874D01*
X133122593Y-117496097D01*
X133104000Y-117684878D01*
X133104000Y-118711123D01*
X133122593Y-118899904D01*
X133134756Y-118940000D01*
X122789144Y-118940000D01*
X123060983Y-118758363D01*
X123358363Y-118460983D01*
X123592012Y-118111302D01*
X123752953Y-117722756D01*
X123835000Y-117310279D01*
X123835000Y-116889721D01*
X123752953Y-116477244D01*
X123592012Y-116088698D01*
X123358363Y-115739017D01*
X123060983Y-115441637D01*
X122711302Y-115207988D01*
X122322756Y-115047047D01*
X121910279Y-114965000D01*
X121489721Y-114965000D01*
X121077244Y-115047047D01*
X120688698Y-115207988D01*
X120339017Y-115441637D01*
X120041637Y-115739017D01*
X119860000Y-116010856D01*
X119860000Y-114698061D01*
X133065000Y-114698061D01*
X133065000Y-114901939D01*
X133104774Y-115101898D01*
X133182795Y-115290256D01*
X133296063Y-115459774D01*
X133440226Y-115603937D01*
X133609744Y-115717205D01*
X133798102Y-115795226D01*
X133998061Y-115835000D01*
X134201939Y-115835000D01*
X134384611Y-115798665D01*
X134396460Y-115858236D01*
X134489557Y-116082992D01*
X134624713Y-116285267D01*
X134796733Y-116457287D01*
X134999008Y-116592443D01*
X135223764Y-116685540D01*
X135462363Y-116733000D01*
X135705637Y-116733000D01*
X135944236Y-116685540D01*
X136168992Y-116592443D01*
X136371267Y-116457287D01*
X136543287Y-116285267D01*
X136678443Y-116082992D01*
X136771540Y-115858236D01*
X136819000Y-115619637D01*
X136819000Y-115376363D01*
X136771540Y-115137764D01*
X136678443Y-114913008D01*
X136543287Y-114710733D01*
X136371267Y-114538713D01*
X136168992Y-114403557D01*
X135944236Y-114310460D01*
X135705637Y-114263000D01*
X135462363Y-114263000D01*
X135223764Y-114310460D01*
X135047708Y-114383385D01*
X135017205Y-114309744D01*
X134903937Y-114140226D01*
X134759774Y-113996063D01*
X134590256Y-113882795D01*
X134401898Y-113804774D01*
X134201939Y-113765000D01*
X133998061Y-113765000D01*
X133798102Y-113804774D01*
X133609744Y-113882795D01*
X133440226Y-113996063D01*
X133296063Y-114140226D01*
X133182795Y-114309744D01*
X133104774Y-114498102D01*
X133065000Y-114698061D01*
X119860000Y-114698061D01*
X119860000Y-113200107D01*
X120053368Y-113393475D01*
X120296589Y-113555990D01*
X120566842Y-113667932D01*
X120853740Y-113725000D01*
X121146260Y-113725000D01*
X121433158Y-113667932D01*
X121703411Y-113555990D01*
X121946632Y-113393475D01*
X122153475Y-113186632D01*
X122279474Y-112998061D01*
X135165000Y-112998061D01*
X135165000Y-113201939D01*
X135204774Y-113401898D01*
X135282795Y-113590256D01*
X135396063Y-113759774D01*
X135540226Y-113903937D01*
X135709744Y-114017205D01*
X135898102Y-114095226D01*
X136098061Y-114135000D01*
X136301939Y-114135000D01*
X136501898Y-114095226D01*
X136690256Y-114017205D01*
X136859774Y-113903937D01*
X137003937Y-113759774D01*
X137117205Y-113590256D01*
X137195226Y-113401898D01*
X137235000Y-113201939D01*
X137235000Y-112998061D01*
X137765000Y-112998061D01*
X137765000Y-113201939D01*
X137804774Y-113401898D01*
X137882795Y-113590256D01*
X137996063Y-113759774D01*
X138140226Y-113903937D01*
X138309744Y-114017205D01*
X138498102Y-114095226D01*
X138698061Y-114135000D01*
X138901939Y-114135000D01*
X139101898Y-114095226D01*
X139103329Y-114094633D01*
X139104774Y-114101898D01*
X139182795Y-114290256D01*
X139296063Y-114459774D01*
X139440226Y-114603937D01*
X139524919Y-114660527D01*
X139474713Y-114710733D01*
X139339557Y-114913008D01*
X139246460Y-115137764D01*
X139199000Y-115376363D01*
X139199000Y-115619637D01*
X139246460Y-115858236D01*
X139339557Y-116082992D01*
X139474713Y-116285267D01*
X139646733Y-116457287D01*
X139849008Y-116592443D01*
X140073764Y-116685540D01*
X140312363Y-116733000D01*
X140555637Y-116733000D01*
X140794236Y-116685540D01*
X141018992Y-116592443D01*
X141221267Y-116457287D01*
X141393287Y-116285267D01*
X141528443Y-116082992D01*
X141621540Y-115858236D01*
X141669000Y-115619637D01*
X141669000Y-115376363D01*
X141621540Y-115137764D01*
X141528443Y-114913008D01*
X141393287Y-114710733D01*
X141221267Y-114538713D01*
X141018992Y-114403557D01*
X140958298Y-114378417D01*
X141017205Y-114290256D01*
X141095226Y-114101898D01*
X141135000Y-113901939D01*
X141135000Y-113698061D01*
X141095226Y-113498102D01*
X141017205Y-113309744D01*
X140903937Y-113140226D01*
X140759774Y-112996063D01*
X140590256Y-112882795D01*
X140401898Y-112804774D01*
X140365967Y-112797627D01*
X140385000Y-112701939D01*
X140385000Y-112498061D01*
X140345226Y-112298102D01*
X140267205Y-112109744D01*
X140153937Y-111940226D01*
X140009774Y-111796063D01*
X139840256Y-111682795D01*
X139651898Y-111604774D01*
X139451939Y-111565000D01*
X139248061Y-111565000D01*
X139048102Y-111604774D01*
X138859744Y-111682795D01*
X138690226Y-111796063D01*
X138546063Y-111940226D01*
X138432795Y-112109744D01*
X138421754Y-112136398D01*
X138309744Y-112182795D01*
X138140226Y-112296063D01*
X137996063Y-112440226D01*
X137882795Y-112609744D01*
X137804774Y-112798102D01*
X137765000Y-112998061D01*
X137235000Y-112998061D01*
X137195226Y-112798102D01*
X137117205Y-112609744D01*
X137003937Y-112440226D01*
X136859774Y-112296063D01*
X136690256Y-112182795D01*
X136501898Y-112104774D01*
X136301939Y-112065000D01*
X136098061Y-112065000D01*
X135898102Y-112104774D01*
X135709744Y-112182795D01*
X135540226Y-112296063D01*
X135396063Y-112440226D01*
X135282795Y-112609744D01*
X135204774Y-112798102D01*
X135165000Y-112998061D01*
X122279474Y-112998061D01*
X122315990Y-112943411D01*
X122427932Y-112673158D01*
X122485000Y-112386260D01*
X122485000Y-112093740D01*
X122427932Y-111806842D01*
X122341453Y-111598061D01*
X126165000Y-111598061D01*
X126165000Y-111801939D01*
X126204774Y-112001898D01*
X126282795Y-112190256D01*
X126396063Y-112359774D01*
X126540226Y-112503937D01*
X126709744Y-112617205D01*
X126898102Y-112695226D01*
X127098061Y-112735000D01*
X127301939Y-112735000D01*
X127501898Y-112695226D01*
X127600000Y-112654591D01*
X127698102Y-112695226D01*
X127898061Y-112735000D01*
X128101939Y-112735000D01*
X128301898Y-112695226D01*
X128490256Y-112617205D01*
X128659774Y-112503937D01*
X128803937Y-112359774D01*
X128917205Y-112190256D01*
X128995226Y-112001898D01*
X129035000Y-111801939D01*
X129035000Y-111598061D01*
X128995226Y-111398102D01*
X128917205Y-111209744D01*
X128842582Y-111098061D01*
X136165000Y-111098061D01*
X136165000Y-111301939D01*
X136204774Y-111501898D01*
X136282795Y-111690256D01*
X136396063Y-111859774D01*
X136540226Y-112003937D01*
X136709744Y-112117205D01*
X136898102Y-112195226D01*
X137098061Y-112235000D01*
X137301939Y-112235000D01*
X137501898Y-112195226D01*
X137690256Y-112117205D01*
X137859774Y-112003937D01*
X138003937Y-111859774D01*
X138117205Y-111690256D01*
X138195226Y-111501898D01*
X138215880Y-111398061D01*
X142465000Y-111398061D01*
X142465000Y-111601939D01*
X142504774Y-111801898D01*
X142582795Y-111990256D01*
X142696063Y-112159774D01*
X142840226Y-112303937D01*
X143009744Y-112417205D01*
X143198102Y-112495226D01*
X143398061Y-112535000D01*
X143601939Y-112535000D01*
X143801898Y-112495226D01*
X143990256Y-112417205D01*
X144159774Y-112303937D01*
X144303937Y-112159774D01*
X144417205Y-111990256D01*
X144495226Y-111801898D01*
X144535000Y-111601939D01*
X144535000Y-111398061D01*
X144495226Y-111198102D01*
X144417205Y-111009744D01*
X144303937Y-110840226D01*
X144159774Y-110696063D01*
X143990256Y-110582795D01*
X143801898Y-110504774D01*
X143601939Y-110465000D01*
X143398061Y-110465000D01*
X143198102Y-110504774D01*
X143009744Y-110582795D01*
X142840226Y-110696063D01*
X142696063Y-110840226D01*
X142582795Y-111009744D01*
X142504774Y-111198102D01*
X142465000Y-111398061D01*
X138215880Y-111398061D01*
X138235000Y-111301939D01*
X138235000Y-111098061D01*
X138195226Y-110898102D01*
X138117205Y-110709744D01*
X138003937Y-110540226D01*
X137859774Y-110396063D01*
X137690256Y-110282795D01*
X137501898Y-110204774D01*
X137301939Y-110165000D01*
X137098061Y-110165000D01*
X136898102Y-110204774D01*
X136709744Y-110282795D01*
X136540226Y-110396063D01*
X136396063Y-110540226D01*
X136282795Y-110709744D01*
X136204774Y-110898102D01*
X136165000Y-111098061D01*
X128842582Y-111098061D01*
X128803937Y-111040226D01*
X128659774Y-110896063D01*
X128490256Y-110782795D01*
X128301898Y-110704774D01*
X128101939Y-110665000D01*
X127898061Y-110665000D01*
X127698102Y-110704774D01*
X127600000Y-110745409D01*
X127501898Y-110704774D01*
X127301939Y-110665000D01*
X127098061Y-110665000D01*
X126898102Y-110704774D01*
X126709744Y-110782795D01*
X126540226Y-110896063D01*
X126396063Y-111040226D01*
X126282795Y-111209744D01*
X126204774Y-111398102D01*
X126165000Y-111598061D01*
X122341453Y-111598061D01*
X122315990Y-111536589D01*
X122153475Y-111293368D01*
X121946632Y-111086525D01*
X121764466Y-110964805D01*
X121881355Y-110895178D01*
X122097588Y-110700269D01*
X122271641Y-110466920D01*
X122396825Y-110204099D01*
X122441476Y-110056890D01*
X122320155Y-109827000D01*
X121127000Y-109827000D01*
X121127000Y-109847000D01*
X120873000Y-109847000D01*
X120873000Y-109827000D01*
X120853000Y-109827000D01*
X120853000Y-109573000D01*
X120873000Y-109573000D01*
X120873000Y-109553000D01*
X121127000Y-109553000D01*
X121127000Y-109573000D01*
X122320155Y-109573000D01*
X122441476Y-109343110D01*
X122396825Y-109195901D01*
X122271641Y-108933080D01*
X122097588Y-108699731D01*
X122095736Y-108698061D01*
X123865000Y-108698061D01*
X123865000Y-108901939D01*
X123904774Y-109101898D01*
X123982795Y-109290256D01*
X124096063Y-109459774D01*
X124240226Y-109603937D01*
X124409744Y-109717205D01*
X124598102Y-109795226D01*
X124798061Y-109835000D01*
X125001939Y-109835000D01*
X125201898Y-109795226D01*
X125390256Y-109717205D01*
X125559774Y-109603937D01*
X125703937Y-109459774D01*
X125817205Y-109290256D01*
X125895226Y-109101898D01*
X125935000Y-108901939D01*
X125935000Y-108698061D01*
X125895226Y-108498102D01*
X125817205Y-108309744D01*
X125742582Y-108198061D01*
X133965000Y-108198061D01*
X133965000Y-108401939D01*
X134004774Y-108601898D01*
X134082795Y-108790256D01*
X134196063Y-108959774D01*
X134340226Y-109103937D01*
X134509744Y-109217205D01*
X134698102Y-109295226D01*
X134898061Y-109335000D01*
X135101939Y-109335000D01*
X135301898Y-109295226D01*
X135490256Y-109217205D01*
X135659774Y-109103937D01*
X135803937Y-108959774D01*
X135917205Y-108790256D01*
X135995226Y-108601898D01*
X136035000Y-108401939D01*
X136035000Y-108198061D01*
X135995226Y-107998102D01*
X135917205Y-107809744D01*
X135803937Y-107640226D01*
X135659774Y-107496063D01*
X135490256Y-107382795D01*
X135301898Y-107304774D01*
X135101939Y-107265000D01*
X134898061Y-107265000D01*
X134698102Y-107304774D01*
X134509744Y-107382795D01*
X134340226Y-107496063D01*
X134196063Y-107640226D01*
X134082795Y-107809744D01*
X134004774Y-107998102D01*
X133965000Y-108198061D01*
X125742582Y-108198061D01*
X125703937Y-108140226D01*
X125559774Y-107996063D01*
X125390256Y-107882795D01*
X125201898Y-107804774D01*
X125001939Y-107765000D01*
X124798061Y-107765000D01*
X124598102Y-107804774D01*
X124409744Y-107882795D01*
X124240226Y-107996063D01*
X124096063Y-108140226D01*
X123982795Y-108309744D01*
X123904774Y-108498102D01*
X123865000Y-108698061D01*
X122095736Y-108698061D01*
X121881355Y-108504822D01*
X121764466Y-108435195D01*
X121946632Y-108313475D01*
X122153475Y-108106632D01*
X122315990Y-107863411D01*
X122427932Y-107593158D01*
X122485000Y-107306260D01*
X122485000Y-107013740D01*
X122427932Y-106726842D01*
X122315990Y-106456589D01*
X122153475Y-106213368D01*
X122038169Y-106098062D01*
X133849312Y-106098062D01*
X133849312Y-106301940D01*
X133889086Y-106501899D01*
X133967107Y-106690257D01*
X134080375Y-106859775D01*
X134224538Y-107003938D01*
X134394056Y-107117206D01*
X134582414Y-107195227D01*
X134782373Y-107235001D01*
X134986251Y-107235001D01*
X135186210Y-107195227D01*
X135374568Y-107117206D01*
X135544086Y-107003938D01*
X135688249Y-106859775D01*
X135743544Y-106777020D01*
X135828814Y-106760059D01*
X136017172Y-106682038D01*
X136186690Y-106568770D01*
X136330853Y-106424607D01*
X136444121Y-106255089D01*
X136522142Y-106066731D01*
X136561916Y-105866772D01*
X136561916Y-105662894D01*
X136522142Y-105462935D01*
X136444121Y-105274577D01*
X136330853Y-105105059D01*
X136186690Y-104960896D01*
X136017172Y-104847628D01*
X135828814Y-104769607D01*
X135628855Y-104729833D01*
X135424977Y-104729833D01*
X135225018Y-104769607D01*
X135036660Y-104847628D01*
X134867142Y-104960896D01*
X134722979Y-105105059D01*
X134667684Y-105187814D01*
X134582414Y-105204775D01*
X134394056Y-105282796D01*
X134224538Y-105396064D01*
X134080375Y-105540227D01*
X133967107Y-105709745D01*
X133889086Y-105898103D01*
X133849312Y-106098062D01*
X122038169Y-106098062D01*
X121946632Y-106006525D01*
X121772240Y-105890000D01*
X121946632Y-105773475D01*
X122153475Y-105566632D01*
X122315990Y-105323411D01*
X122427932Y-105053158D01*
X122458782Y-104898061D01*
X131165000Y-104898061D01*
X131165000Y-105101939D01*
X131204774Y-105301898D01*
X131282795Y-105490256D01*
X131396063Y-105659774D01*
X131540226Y-105803937D01*
X131709744Y-105917205D01*
X131898102Y-105995226D01*
X132098061Y-106035000D01*
X132301939Y-106035000D01*
X132501898Y-105995226D01*
X132690256Y-105917205D01*
X132859774Y-105803937D01*
X133003937Y-105659774D01*
X133117205Y-105490256D01*
X133195226Y-105301898D01*
X133235000Y-105101939D01*
X133235000Y-104898061D01*
X133195226Y-104698102D01*
X133117205Y-104509744D01*
X133003937Y-104340226D01*
X132859774Y-104196063D01*
X132690256Y-104082795D01*
X132501898Y-104004774D01*
X132301939Y-103965000D01*
X132098061Y-103965000D01*
X131898102Y-104004774D01*
X131709744Y-104082795D01*
X131540226Y-104196063D01*
X131396063Y-104340226D01*
X131282795Y-104509744D01*
X131204774Y-104698102D01*
X131165000Y-104898061D01*
X122458782Y-104898061D01*
X122485000Y-104766260D01*
X122485000Y-104473740D01*
X122427932Y-104186842D01*
X122315990Y-103916589D01*
X122153475Y-103673368D01*
X121946632Y-103466525D01*
X121772240Y-103350000D01*
X121946632Y-103233475D01*
X121982046Y-103198061D01*
X126565000Y-103198061D01*
X126565000Y-103401939D01*
X126604774Y-103601898D01*
X126682795Y-103790256D01*
X126796063Y-103959774D01*
X126940226Y-104103937D01*
X127109744Y-104217205D01*
X127298102Y-104295226D01*
X127498061Y-104335000D01*
X127701939Y-104335000D01*
X127901898Y-104295226D01*
X128090256Y-104217205D01*
X128259774Y-104103937D01*
X128403937Y-103959774D01*
X128517205Y-103790256D01*
X128595226Y-103601898D01*
X128635000Y-103401939D01*
X128635000Y-103198061D01*
X128615109Y-103098061D01*
X129065000Y-103098061D01*
X129065000Y-103301939D01*
X129104774Y-103501898D01*
X129182795Y-103690256D01*
X129296063Y-103859774D01*
X129440226Y-104003937D01*
X129609744Y-104117205D01*
X129798102Y-104195226D01*
X129998061Y-104235000D01*
X130201939Y-104235000D01*
X130401898Y-104195226D01*
X130590256Y-104117205D01*
X130759774Y-104003937D01*
X130903937Y-103859774D01*
X131011989Y-103698061D01*
X141115000Y-103698061D01*
X141115000Y-103901939D01*
X141154774Y-104101898D01*
X141232795Y-104290256D01*
X141346063Y-104459774D01*
X141490226Y-104603937D01*
X141659744Y-104717205D01*
X141848102Y-104795226D01*
X141903167Y-104806179D01*
X141865000Y-104998061D01*
X141865000Y-105201939D01*
X141904774Y-105401898D01*
X141982795Y-105590256D01*
X142096063Y-105759774D01*
X142240226Y-105903937D01*
X142409744Y-106017205D01*
X142598102Y-106095226D01*
X142798061Y-106135000D01*
X143001939Y-106135000D01*
X143201898Y-106095226D01*
X143390256Y-106017205D01*
X143559774Y-105903937D01*
X143703937Y-105759774D01*
X143817205Y-105590256D01*
X143895226Y-105401898D01*
X143935000Y-105201939D01*
X143935000Y-104998061D01*
X143895226Y-104798102D01*
X143817205Y-104609744D01*
X143703937Y-104440226D01*
X143559774Y-104296063D01*
X143390256Y-104182795D01*
X143201898Y-104104774D01*
X143146833Y-104093821D01*
X143185000Y-103901939D01*
X143185000Y-103698061D01*
X143145226Y-103498102D01*
X143067205Y-103309744D01*
X142953937Y-103140226D01*
X142809774Y-102996063D01*
X142640256Y-102882795D01*
X142451898Y-102804774D01*
X142251939Y-102765000D01*
X142048061Y-102765000D01*
X141848102Y-102804774D01*
X141659744Y-102882795D01*
X141490226Y-102996063D01*
X141346063Y-103140226D01*
X141232795Y-103309744D01*
X141154774Y-103498102D01*
X141115000Y-103698061D01*
X131011989Y-103698061D01*
X131017205Y-103690256D01*
X131095226Y-103501898D01*
X131135000Y-103301939D01*
X131135000Y-103098061D01*
X131095226Y-102898102D01*
X131017205Y-102709744D01*
X130903937Y-102540226D01*
X130759774Y-102396063D01*
X130590256Y-102282795D01*
X130401898Y-102204774D01*
X130201939Y-102165000D01*
X129998061Y-102165000D01*
X129798102Y-102204774D01*
X129609744Y-102282795D01*
X129440226Y-102396063D01*
X129296063Y-102540226D01*
X129182795Y-102709744D01*
X129104774Y-102898102D01*
X129065000Y-103098061D01*
X128615109Y-103098061D01*
X128595226Y-102998102D01*
X128517205Y-102809744D01*
X128403937Y-102640226D01*
X128259774Y-102496063D01*
X128090256Y-102382795D01*
X127901898Y-102304774D01*
X127701939Y-102265000D01*
X127498061Y-102265000D01*
X127298102Y-102304774D01*
X127109744Y-102382795D01*
X126940226Y-102496063D01*
X126796063Y-102640226D01*
X126682795Y-102809744D01*
X126604774Y-102998102D01*
X126565000Y-103198061D01*
X121982046Y-103198061D01*
X122153475Y-103026632D01*
X122315990Y-102783411D01*
X122427932Y-102513158D01*
X122485000Y-102226260D01*
X122485000Y-101933740D01*
X122427932Y-101646842D01*
X122315990Y-101376589D01*
X122263520Y-101298061D01*
X123465000Y-101298061D01*
X123465000Y-101501939D01*
X123504774Y-101701898D01*
X123582795Y-101890256D01*
X123696063Y-102059774D01*
X123840226Y-102203937D01*
X124009744Y-102317205D01*
X124198102Y-102395226D01*
X124398061Y-102435000D01*
X124601939Y-102435000D01*
X124801898Y-102395226D01*
X124990256Y-102317205D01*
X125159774Y-102203937D01*
X125303937Y-102059774D01*
X125417205Y-101890256D01*
X125495226Y-101701898D01*
X125535000Y-101501939D01*
X125535000Y-101298061D01*
X125495226Y-101098102D01*
X125417205Y-100909744D01*
X125303937Y-100740226D01*
X125159774Y-100596063D01*
X124990256Y-100482795D01*
X124801898Y-100404774D01*
X124601939Y-100365000D01*
X124398061Y-100365000D01*
X124198102Y-100404774D01*
X124009744Y-100482795D01*
X123840226Y-100596063D01*
X123696063Y-100740226D01*
X123582795Y-100909744D01*
X123504774Y-101098102D01*
X123465000Y-101298061D01*
X122263520Y-101298061D01*
X122153475Y-101133368D01*
X121946632Y-100926525D01*
X121772240Y-100810000D01*
X121946632Y-100693475D01*
X122153475Y-100486632D01*
X122315990Y-100243411D01*
X122427932Y-99973158D01*
X122485000Y-99686260D01*
X122485000Y-99393740D01*
X122427932Y-99106842D01*
X122315990Y-98836589D01*
X122153475Y-98593368D01*
X121958168Y-98398061D01*
X125965000Y-98398061D01*
X125965000Y-98601939D01*
X126004774Y-98801898D01*
X126082795Y-98990256D01*
X126196063Y-99159774D01*
X126340226Y-99303937D01*
X126509744Y-99417205D01*
X126698102Y-99495226D01*
X126898061Y-99535000D01*
X127065000Y-99535000D01*
X127065000Y-99601939D01*
X127104774Y-99801898D01*
X127182795Y-99990256D01*
X127296063Y-100159774D01*
X127440226Y-100303937D01*
X127609744Y-100417205D01*
X127798102Y-100495226D01*
X127998061Y-100535000D01*
X128201939Y-100535000D01*
X128401898Y-100495226D01*
X128590256Y-100417205D01*
X128759774Y-100303937D01*
X128903937Y-100159774D01*
X129011989Y-99998061D01*
X129265000Y-99998061D01*
X129265000Y-100201939D01*
X129304774Y-100401898D01*
X129382795Y-100590256D01*
X129496063Y-100759774D01*
X129640226Y-100903937D01*
X129809744Y-101017205D01*
X129998102Y-101095226D01*
X130198061Y-101135000D01*
X130401939Y-101135000D01*
X130601898Y-101095226D01*
X130790256Y-101017205D01*
X130959774Y-100903937D01*
X131103937Y-100759774D01*
X131165000Y-100668387D01*
X131165000Y-100701939D01*
X131204774Y-100901898D01*
X131282795Y-101090256D01*
X131396063Y-101259774D01*
X131540226Y-101403937D01*
X131709744Y-101517205D01*
X131898102Y-101595226D01*
X132098061Y-101635000D01*
X132301939Y-101635000D01*
X132501898Y-101595226D01*
X132690256Y-101517205D01*
X132859774Y-101403937D01*
X133003937Y-101259774D01*
X133117205Y-101090256D01*
X133195226Y-100901898D01*
X133235000Y-100701939D01*
X133235000Y-100498061D01*
X133195226Y-100298102D01*
X133153788Y-100198061D01*
X133965000Y-100198061D01*
X133965000Y-100401939D01*
X134004774Y-100601898D01*
X134082795Y-100790256D01*
X134196063Y-100959774D01*
X134340226Y-101103937D01*
X134509744Y-101217205D01*
X134698102Y-101295226D01*
X134898061Y-101335000D01*
X135101939Y-101335000D01*
X135301898Y-101295226D01*
X135490256Y-101217205D01*
X135659774Y-101103937D01*
X135803937Y-100959774D01*
X135917205Y-100790256D01*
X135995226Y-100601898D01*
X136035000Y-100401939D01*
X136035000Y-100198061D01*
X135995226Y-99998102D01*
X135927666Y-99835000D01*
X136001939Y-99835000D01*
X136201898Y-99795226D01*
X136390256Y-99717205D01*
X136559774Y-99603937D01*
X136703937Y-99459774D01*
X136817205Y-99290256D01*
X136888660Y-99117750D01*
X137001898Y-99095226D01*
X137190256Y-99017205D01*
X137359774Y-98903937D01*
X137503937Y-98759774D01*
X137617205Y-98590256D01*
X137655393Y-98498061D01*
X138315000Y-98498061D01*
X138315000Y-98701939D01*
X138354774Y-98901898D01*
X138432795Y-99090256D01*
X138546063Y-99259774D01*
X138690226Y-99403937D01*
X138859744Y-99517205D01*
X139048102Y-99595226D01*
X139248061Y-99635000D01*
X139451939Y-99635000D01*
X139651898Y-99595226D01*
X139840256Y-99517205D01*
X140009774Y-99403937D01*
X140153937Y-99259774D01*
X140267205Y-99090256D01*
X140345226Y-98901898D01*
X140385000Y-98701939D01*
X140385000Y-98498061D01*
X140345226Y-98298102D01*
X140267205Y-98109744D01*
X140153937Y-97940226D01*
X140009774Y-97796063D01*
X139840256Y-97682795D01*
X139651898Y-97604774D01*
X139451939Y-97565000D01*
X139248061Y-97565000D01*
X139048102Y-97604774D01*
X138859744Y-97682795D01*
X138690226Y-97796063D01*
X138546063Y-97940226D01*
X138432795Y-98109744D01*
X138354774Y-98298102D01*
X138315000Y-98498061D01*
X137655393Y-98498061D01*
X137695226Y-98401898D01*
X137708804Y-98333634D01*
X137901898Y-98295226D01*
X138090256Y-98217205D01*
X138259774Y-98103937D01*
X138403937Y-97959774D01*
X138517205Y-97790256D01*
X138595226Y-97601898D01*
X138608804Y-97533634D01*
X138801898Y-97495226D01*
X138990256Y-97417205D01*
X139159774Y-97303937D01*
X139303937Y-97159774D01*
X139417205Y-96990256D01*
X139495226Y-96801898D01*
X139535000Y-96601939D01*
X139535000Y-96398061D01*
X139495226Y-96198102D01*
X139417205Y-96009744D01*
X139303937Y-95840226D01*
X139159774Y-95696063D01*
X138990256Y-95582795D01*
X138801898Y-95504774D01*
X138601939Y-95465000D01*
X138398061Y-95465000D01*
X138198102Y-95504774D01*
X138009744Y-95582795D01*
X137840226Y-95696063D01*
X137696063Y-95840226D01*
X137582795Y-96009744D01*
X137504774Y-96198102D01*
X137491196Y-96266366D01*
X137298102Y-96304774D01*
X137109744Y-96382795D01*
X136940226Y-96496063D01*
X136796063Y-96640226D01*
X136682795Y-96809744D01*
X136604774Y-96998102D01*
X136591196Y-97066366D01*
X136398102Y-97104774D01*
X136209744Y-97182795D01*
X136040226Y-97296063D01*
X135896063Y-97440226D01*
X135782795Y-97609744D01*
X135711340Y-97782250D01*
X135598102Y-97804774D01*
X135409744Y-97882795D01*
X135240226Y-97996063D01*
X135096063Y-98140226D01*
X134982795Y-98309744D01*
X134904774Y-98498102D01*
X134865000Y-98698061D01*
X134865000Y-98901939D01*
X134904774Y-99101898D01*
X134972334Y-99265000D01*
X134898061Y-99265000D01*
X134698102Y-99304774D01*
X134509744Y-99382795D01*
X134340226Y-99496063D01*
X134196063Y-99640226D01*
X134082795Y-99809744D01*
X134004774Y-99998102D01*
X133965000Y-100198061D01*
X133153788Y-100198061D01*
X133117205Y-100109744D01*
X133003937Y-99940226D01*
X132859774Y-99796063D01*
X132690256Y-99682795D01*
X132501898Y-99604774D01*
X132301939Y-99565000D01*
X132098061Y-99565000D01*
X131898102Y-99604774D01*
X131709744Y-99682795D01*
X131540226Y-99796063D01*
X131396063Y-99940226D01*
X131335000Y-100031613D01*
X131335000Y-99998061D01*
X131295226Y-99798102D01*
X131217205Y-99609744D01*
X131103937Y-99440226D01*
X130959774Y-99296063D01*
X130790256Y-99182795D01*
X130601898Y-99104774D01*
X130401939Y-99065000D01*
X130198061Y-99065000D01*
X129998102Y-99104774D01*
X129809744Y-99182795D01*
X129640226Y-99296063D01*
X129496063Y-99440226D01*
X129382795Y-99609744D01*
X129304774Y-99798102D01*
X129265000Y-99998061D01*
X129011989Y-99998061D01*
X129017205Y-99990256D01*
X129095226Y-99801898D01*
X129135000Y-99601939D01*
X129135000Y-99398061D01*
X129095226Y-99198102D01*
X129017205Y-99009744D01*
X128903937Y-98840226D01*
X128759774Y-98696063D01*
X128590256Y-98582795D01*
X128401898Y-98504774D01*
X128201939Y-98465000D01*
X128035000Y-98465000D01*
X128035000Y-98398061D01*
X132165000Y-98398061D01*
X132165000Y-98601939D01*
X132204774Y-98801898D01*
X132282795Y-98990256D01*
X132396063Y-99159774D01*
X132540226Y-99303937D01*
X132709744Y-99417205D01*
X132898102Y-99495226D01*
X133098061Y-99535000D01*
X133301939Y-99535000D01*
X133501898Y-99495226D01*
X133690256Y-99417205D01*
X133859774Y-99303937D01*
X134003937Y-99159774D01*
X134117205Y-98990256D01*
X134195226Y-98801898D01*
X134235000Y-98601939D01*
X134235000Y-98398061D01*
X134195226Y-98198102D01*
X134117205Y-98009744D01*
X134003937Y-97840226D01*
X133859774Y-97696063D01*
X133690256Y-97582795D01*
X133501898Y-97504774D01*
X133301939Y-97465000D01*
X133098061Y-97465000D01*
X132898102Y-97504774D01*
X132709744Y-97582795D01*
X132540226Y-97696063D01*
X132396063Y-97840226D01*
X132282795Y-98009744D01*
X132204774Y-98198102D01*
X132165000Y-98398061D01*
X128035000Y-98398061D01*
X127995226Y-98198102D01*
X127917205Y-98009744D01*
X127803937Y-97840226D01*
X127659774Y-97696063D01*
X127490256Y-97582795D01*
X127301898Y-97504774D01*
X127101939Y-97465000D01*
X126898061Y-97465000D01*
X126698102Y-97504774D01*
X126509744Y-97582795D01*
X126340226Y-97696063D01*
X126196063Y-97840226D01*
X126082795Y-98009744D01*
X126004774Y-98198102D01*
X125965000Y-98398061D01*
X121958168Y-98398061D01*
X121946632Y-98386525D01*
X121772240Y-98270000D01*
X121946632Y-98153475D01*
X122153475Y-97946632D01*
X122315990Y-97703411D01*
X122427932Y-97433158D01*
X122485000Y-97146260D01*
X122485000Y-96853740D01*
X122427932Y-96566842D01*
X122315990Y-96296589D01*
X122153475Y-96053368D01*
X121946632Y-95846525D01*
X121772240Y-95730000D01*
X121946632Y-95613475D01*
X122153475Y-95406632D01*
X122226019Y-95298061D01*
X124865000Y-95298061D01*
X124865000Y-95501939D01*
X124904774Y-95701898D01*
X124982795Y-95890256D01*
X125096063Y-96059774D01*
X125240226Y-96203937D01*
X125409744Y-96317205D01*
X125598102Y-96395226D01*
X125798061Y-96435000D01*
X126001939Y-96435000D01*
X126201898Y-96395226D01*
X126390256Y-96317205D01*
X126559774Y-96203937D01*
X126703937Y-96059774D01*
X126817205Y-95890256D01*
X126895226Y-95701898D01*
X126935000Y-95501939D01*
X126935000Y-95298061D01*
X126895226Y-95098102D01*
X126817205Y-94909744D01*
X126809399Y-94898061D01*
X128165000Y-94898061D01*
X128165000Y-95101939D01*
X128204774Y-95301898D01*
X128282795Y-95490256D01*
X128396063Y-95659774D01*
X128540226Y-95803937D01*
X128709744Y-95917205D01*
X128898102Y-95995226D01*
X129098061Y-96035000D01*
X129301939Y-96035000D01*
X129501898Y-95995226D01*
X129690256Y-95917205D01*
X129859774Y-95803937D01*
X130003937Y-95659774D01*
X130117205Y-95490256D01*
X130195226Y-95301898D01*
X130235000Y-95101939D01*
X130235000Y-94898061D01*
X130195226Y-94698102D01*
X130117205Y-94509744D01*
X130003937Y-94340226D01*
X129961772Y-94298061D01*
X131165000Y-94298061D01*
X131165000Y-94501939D01*
X131204774Y-94701898D01*
X131282795Y-94890256D01*
X131396063Y-95059774D01*
X131540226Y-95203937D01*
X131709744Y-95317205D01*
X131898102Y-95395226D01*
X132065830Y-95428589D01*
X132132795Y-95590256D01*
X132246063Y-95759774D01*
X132390226Y-95903937D01*
X132559744Y-96017205D01*
X132748102Y-96095226D01*
X132948061Y-96135000D01*
X133151939Y-96135000D01*
X133351898Y-96095226D01*
X133540256Y-96017205D01*
X133709774Y-95903937D01*
X133853937Y-95759774D01*
X133967205Y-95590256D01*
X134045226Y-95401898D01*
X134065880Y-95298061D01*
X140365000Y-95298061D01*
X140365000Y-95501939D01*
X140404774Y-95701898D01*
X140482795Y-95890256D01*
X140596063Y-96059774D01*
X140740226Y-96203937D01*
X140909744Y-96317205D01*
X141098102Y-96395226D01*
X141298061Y-96435000D01*
X141501939Y-96435000D01*
X141701898Y-96395226D01*
X141890256Y-96317205D01*
X142059774Y-96203937D01*
X142203937Y-96059774D01*
X142317205Y-95890256D01*
X142395226Y-95701898D01*
X142432786Y-95513069D01*
X142598102Y-95581546D01*
X142798061Y-95621320D01*
X143001939Y-95621320D01*
X143201898Y-95581546D01*
X143390256Y-95503525D01*
X143559774Y-95390257D01*
X143703937Y-95246094D01*
X143817205Y-95076576D01*
X143895226Y-94888218D01*
X143935000Y-94688259D01*
X143935000Y-94484381D01*
X143895226Y-94284422D01*
X143817205Y-94096064D01*
X143703937Y-93926546D01*
X143559774Y-93782383D01*
X143390256Y-93669115D01*
X143201898Y-93591094D01*
X143162150Y-93583188D01*
X143145226Y-93498102D01*
X143067205Y-93309744D01*
X142953937Y-93140226D01*
X142809774Y-92996063D01*
X142640256Y-92882795D01*
X142451898Y-92804774D01*
X142251939Y-92765000D01*
X142048061Y-92765000D01*
X141848102Y-92804774D01*
X141659744Y-92882795D01*
X141490226Y-92996063D01*
X141346063Y-93140226D01*
X141232795Y-93309744D01*
X141154774Y-93498102D01*
X141115000Y-93698061D01*
X141115000Y-93901939D01*
X141154774Y-94101898D01*
X141232795Y-94290256D01*
X141284535Y-94367690D01*
X141098102Y-94404774D01*
X140909744Y-94482795D01*
X140740226Y-94596063D01*
X140596063Y-94740226D01*
X140482795Y-94909744D01*
X140404774Y-95098102D01*
X140365000Y-95298061D01*
X134065880Y-95298061D01*
X134085000Y-95201939D01*
X134085000Y-94998061D01*
X134045226Y-94798102D01*
X133967205Y-94609744D01*
X133853937Y-94440226D01*
X133709774Y-94296063D01*
X133540256Y-94182795D01*
X133351898Y-94104774D01*
X133184170Y-94071411D01*
X133117205Y-93909744D01*
X133003937Y-93740226D01*
X132859774Y-93596063D01*
X132690256Y-93482795D01*
X132501898Y-93404774D01*
X132301939Y-93365000D01*
X132098061Y-93365000D01*
X131898102Y-93404774D01*
X131709744Y-93482795D01*
X131540226Y-93596063D01*
X131396063Y-93740226D01*
X131282795Y-93909744D01*
X131204774Y-94098102D01*
X131165000Y-94298061D01*
X129961772Y-94298061D01*
X129859774Y-94196063D01*
X129690256Y-94082795D01*
X129501898Y-94004774D01*
X129301939Y-93965000D01*
X129098061Y-93965000D01*
X128898102Y-94004774D01*
X128709744Y-94082795D01*
X128540226Y-94196063D01*
X128396063Y-94340226D01*
X128282795Y-94509744D01*
X128204774Y-94698102D01*
X128165000Y-94898061D01*
X126809399Y-94898061D01*
X126703937Y-94740226D01*
X126559774Y-94596063D01*
X126390256Y-94482795D01*
X126201898Y-94404774D01*
X126001939Y-94365000D01*
X125798061Y-94365000D01*
X125598102Y-94404774D01*
X125409744Y-94482795D01*
X125240226Y-94596063D01*
X125096063Y-94740226D01*
X124982795Y-94909744D01*
X124904774Y-95098102D01*
X124865000Y-95298061D01*
X122226019Y-95298061D01*
X122315990Y-95163411D01*
X122427932Y-94893158D01*
X122485000Y-94606260D01*
X122485000Y-94313740D01*
X122427932Y-94026842D01*
X122315990Y-93756589D01*
X122153475Y-93513368D01*
X122138168Y-93498061D01*
X123265000Y-93498061D01*
X123265000Y-93701939D01*
X123304774Y-93901898D01*
X123382795Y-94090256D01*
X123496063Y-94259774D01*
X123640226Y-94403937D01*
X123809744Y-94517205D01*
X123998102Y-94595226D01*
X124198061Y-94635000D01*
X124401939Y-94635000D01*
X124601898Y-94595226D01*
X124790256Y-94517205D01*
X124959774Y-94403937D01*
X125103937Y-94259774D01*
X125217205Y-94090256D01*
X125295226Y-93901898D01*
X125335000Y-93701939D01*
X125335000Y-93498061D01*
X125295226Y-93298102D01*
X125217205Y-93109744D01*
X125103937Y-92940226D01*
X124959774Y-92796063D01*
X124790256Y-92682795D01*
X124601898Y-92604774D01*
X124401939Y-92565000D01*
X124198061Y-92565000D01*
X123998102Y-92604774D01*
X123809744Y-92682795D01*
X123640226Y-92796063D01*
X123496063Y-92940226D01*
X123382795Y-93109744D01*
X123304774Y-93298102D01*
X123265000Y-93498061D01*
X122138168Y-93498061D01*
X121946632Y-93306525D01*
X121772240Y-93190000D01*
X121946632Y-93073475D01*
X122153475Y-92866632D01*
X122315990Y-92623411D01*
X122427932Y-92353158D01*
X122460721Y-92188320D01*
X122598102Y-92245226D01*
X122798061Y-92285000D01*
X123001939Y-92285000D01*
X123201898Y-92245226D01*
X123390256Y-92167205D01*
X123559774Y-92053937D01*
X123703937Y-91909774D01*
X123766856Y-91815608D01*
X123792019Y-91876356D01*
X123905287Y-92045874D01*
X124049450Y-92190037D01*
X124218968Y-92303305D01*
X124407326Y-92381326D01*
X124607285Y-92421100D01*
X124811163Y-92421100D01*
X125011122Y-92381326D01*
X125199480Y-92303305D01*
X125368998Y-92190037D01*
X125513161Y-92045874D01*
X125626429Y-91876356D01*
X125704450Y-91687998D01*
X125707741Y-91671452D01*
X125840226Y-91803937D01*
X126009744Y-91917205D01*
X126198102Y-91995226D01*
X126398061Y-92035000D01*
X126601939Y-92035000D01*
X126801898Y-91995226D01*
X126990256Y-91917205D01*
X127159774Y-91803937D01*
X127303937Y-91659774D01*
X127417205Y-91490256D01*
X127495226Y-91301898D01*
X127535000Y-91101939D01*
X127535000Y-91089799D01*
X127548102Y-91095226D01*
X127748061Y-91135000D01*
X127951939Y-91135000D01*
X128065386Y-91112434D01*
X127940226Y-91196063D01*
X127796063Y-91340226D01*
X127682795Y-91509744D01*
X127604774Y-91698102D01*
X127565000Y-91898061D01*
X127565000Y-92101939D01*
X127604774Y-92301898D01*
X127682795Y-92490256D01*
X127796063Y-92659774D01*
X127940226Y-92803937D01*
X128109744Y-92917205D01*
X128298102Y-92995226D01*
X128498061Y-93035000D01*
X128701939Y-93035000D01*
X128901898Y-92995226D01*
X129090256Y-92917205D01*
X129259774Y-92803937D01*
X129403937Y-92659774D01*
X129517205Y-92490256D01*
X129595226Y-92301898D01*
X129635000Y-92101939D01*
X129635000Y-91898061D01*
X129595226Y-91698102D01*
X129517205Y-91509744D01*
X129442582Y-91398061D01*
X130665000Y-91398061D01*
X130665000Y-91601939D01*
X130704774Y-91801898D01*
X130782795Y-91990256D01*
X130896063Y-92159774D01*
X131040226Y-92303937D01*
X131209744Y-92417205D01*
X131398102Y-92495226D01*
X131598061Y-92535000D01*
X131801939Y-92535000D01*
X132001898Y-92495226D01*
X132190256Y-92417205D01*
X132359774Y-92303937D01*
X132503937Y-92159774D01*
X132617205Y-91990256D01*
X132695226Y-91801898D01*
X132735000Y-91601939D01*
X132735000Y-91398061D01*
X132695226Y-91198102D01*
X132617205Y-91009744D01*
X132503937Y-90840226D01*
X132359774Y-90696063D01*
X132213104Y-90598061D01*
X134515000Y-90598061D01*
X134515000Y-90801939D01*
X134554774Y-91001898D01*
X134632795Y-91190256D01*
X134746063Y-91359774D01*
X134890226Y-91503937D01*
X135059744Y-91617205D01*
X135138918Y-91650000D01*
X135059744Y-91682795D01*
X134890226Y-91796063D01*
X134746063Y-91940226D01*
X134632795Y-92109744D01*
X134554774Y-92298102D01*
X134515000Y-92498061D01*
X134515000Y-92701939D01*
X134554774Y-92901898D01*
X134632795Y-93090256D01*
X134746063Y-93259774D01*
X134890226Y-93403937D01*
X135059744Y-93517205D01*
X135248102Y-93595226D01*
X135448061Y-93635000D01*
X135651939Y-93635000D01*
X135851898Y-93595226D01*
X136040256Y-93517205D01*
X136209774Y-93403937D01*
X136353937Y-93259774D01*
X136467205Y-93090256D01*
X136545226Y-92901898D01*
X136585000Y-92701939D01*
X136585000Y-92598061D01*
X138215000Y-92598061D01*
X138215000Y-92801939D01*
X138254774Y-93001898D01*
X138332795Y-93190256D01*
X138446063Y-93359774D01*
X138590226Y-93503937D01*
X138759744Y-93617205D01*
X138948102Y-93695226D01*
X139148061Y-93735000D01*
X139351939Y-93735000D01*
X139551898Y-93695226D01*
X139740256Y-93617205D01*
X139909774Y-93503937D01*
X140053937Y-93359774D01*
X140167205Y-93190256D01*
X140245226Y-93001898D01*
X140285000Y-92801939D01*
X140285000Y-92598061D01*
X140245226Y-92398102D01*
X140167205Y-92209744D01*
X140053937Y-92040226D01*
X139909774Y-91896063D01*
X139740256Y-91782795D01*
X139551898Y-91704774D01*
X139351939Y-91665000D01*
X139148061Y-91665000D01*
X138948102Y-91704774D01*
X138759744Y-91782795D01*
X138590226Y-91896063D01*
X138446063Y-92040226D01*
X138332795Y-92209744D01*
X138254774Y-92398102D01*
X138215000Y-92598061D01*
X136585000Y-92598061D01*
X136585000Y-92498061D01*
X136545226Y-92298102D01*
X136467205Y-92109744D01*
X136353937Y-91940226D01*
X136209774Y-91796063D01*
X136040256Y-91682795D01*
X135961082Y-91650000D01*
X136040256Y-91617205D01*
X136209774Y-91503937D01*
X136353937Y-91359774D01*
X136467205Y-91190256D01*
X136545226Y-91001898D01*
X136585000Y-90801939D01*
X136585000Y-90598061D01*
X136571402Y-90529697D01*
X136598061Y-90535000D01*
X136801939Y-90535000D01*
X137001898Y-90495226D01*
X137190256Y-90417205D01*
X137359774Y-90303937D01*
X137503937Y-90159774D01*
X137617205Y-89990256D01*
X137695226Y-89801898D01*
X137735000Y-89601939D01*
X137735000Y-89398061D01*
X137695226Y-89198102D01*
X137685978Y-89175776D01*
X137690226Y-89180024D01*
X137859744Y-89293292D01*
X138048102Y-89371313D01*
X138248061Y-89411087D01*
X138451939Y-89411087D01*
X138651898Y-89371313D01*
X138840256Y-89293292D01*
X139009774Y-89180024D01*
X139153937Y-89035861D01*
X139267205Y-88866343D01*
X139345226Y-88677985D01*
X139385000Y-88478026D01*
X139385000Y-88298058D01*
X140365000Y-88298058D01*
X140365000Y-88501936D01*
X140404774Y-88701895D01*
X140482795Y-88890253D01*
X140489307Y-88899999D01*
X140482795Y-88909744D01*
X140404774Y-89098102D01*
X140365000Y-89298061D01*
X140365000Y-89501939D01*
X140404774Y-89701898D01*
X140482795Y-89890256D01*
X140596063Y-90059774D01*
X140740226Y-90203937D01*
X140909744Y-90317205D01*
X141098102Y-90395226D01*
X141298061Y-90435000D01*
X141501939Y-90435000D01*
X141701898Y-90395226D01*
X141890256Y-90317205D01*
X142059774Y-90203937D01*
X142203937Y-90059774D01*
X142317205Y-89890256D01*
X142395226Y-89701898D01*
X142435000Y-89501939D01*
X142435000Y-89298061D01*
X142395226Y-89098102D01*
X142317205Y-88909744D01*
X142310693Y-88899999D01*
X142317205Y-88890253D01*
X142395226Y-88701895D01*
X142435000Y-88501936D01*
X142435000Y-88298058D01*
X142395226Y-88098099D01*
X142317205Y-87909741D01*
X142203937Y-87740223D01*
X142059774Y-87596060D01*
X141890256Y-87482792D01*
X141701898Y-87404771D01*
X141501939Y-87364997D01*
X141298061Y-87364997D01*
X141098102Y-87404771D01*
X140909744Y-87482792D01*
X140740226Y-87596060D01*
X140596063Y-87740223D01*
X140482795Y-87909741D01*
X140404774Y-88098099D01*
X140365000Y-88298058D01*
X139385000Y-88298058D01*
X139385000Y-88274148D01*
X139345226Y-88074189D01*
X139267205Y-87885831D01*
X139153937Y-87716313D01*
X139009774Y-87572150D01*
X138840256Y-87458882D01*
X138651898Y-87380861D01*
X138451939Y-87341087D01*
X138248061Y-87341087D01*
X138048102Y-87380861D01*
X137859744Y-87458882D01*
X137690226Y-87572150D01*
X137546063Y-87716313D01*
X137432795Y-87885831D01*
X137354774Y-88074189D01*
X137315000Y-88274148D01*
X137315000Y-88478026D01*
X137354774Y-88677985D01*
X137364022Y-88700311D01*
X137359774Y-88696063D01*
X137190256Y-88582795D01*
X137001898Y-88504774D01*
X136801939Y-88465000D01*
X136598061Y-88465000D01*
X136398102Y-88504774D01*
X136209744Y-88582795D01*
X136040226Y-88696063D01*
X135896063Y-88840226D01*
X135782795Y-89009744D01*
X135704774Y-89198102D01*
X135665000Y-89398061D01*
X135665000Y-89601939D01*
X135678598Y-89670303D01*
X135651939Y-89665000D01*
X135448061Y-89665000D01*
X135248102Y-89704774D01*
X135059744Y-89782795D01*
X134890226Y-89896063D01*
X134746063Y-90040226D01*
X134632795Y-90209744D01*
X134554774Y-90398102D01*
X134515000Y-90598061D01*
X132213104Y-90598061D01*
X132190256Y-90582795D01*
X132001898Y-90504774D01*
X131801939Y-90465000D01*
X131598061Y-90465000D01*
X131398102Y-90504774D01*
X131209744Y-90582795D01*
X131040226Y-90696063D01*
X130896063Y-90840226D01*
X130782795Y-91009744D01*
X130704774Y-91198102D01*
X130665000Y-91398061D01*
X129442582Y-91398061D01*
X129403937Y-91340226D01*
X129259774Y-91196063D01*
X129090256Y-91082795D01*
X128901898Y-91004774D01*
X128701939Y-90965000D01*
X128498061Y-90965000D01*
X128384614Y-90987566D01*
X128509774Y-90903937D01*
X128653937Y-90759774D01*
X128767205Y-90590256D01*
X128845226Y-90401898D01*
X128885000Y-90201939D01*
X128885000Y-89998061D01*
X128845226Y-89798102D01*
X128767205Y-89609744D01*
X128653937Y-89440226D01*
X128511772Y-89298061D01*
X129465000Y-89298061D01*
X129465000Y-89501939D01*
X129504774Y-89701898D01*
X129582795Y-89890256D01*
X129696063Y-90059774D01*
X129840226Y-90203937D01*
X130009744Y-90317205D01*
X130198102Y-90395226D01*
X130398061Y-90435000D01*
X130601939Y-90435000D01*
X130801898Y-90395226D01*
X130990256Y-90317205D01*
X131159774Y-90203937D01*
X131303937Y-90059774D01*
X131417205Y-89890256D01*
X131495226Y-89701898D01*
X131535000Y-89501939D01*
X131535000Y-89298061D01*
X131495226Y-89098102D01*
X131417205Y-88909744D01*
X131303937Y-88740226D01*
X131159774Y-88596063D01*
X130990256Y-88482795D01*
X130801898Y-88404774D01*
X130601939Y-88365000D01*
X130398061Y-88365000D01*
X130198102Y-88404774D01*
X130009744Y-88482795D01*
X129840226Y-88596063D01*
X129696063Y-88740226D01*
X129582795Y-88909744D01*
X129504774Y-89098102D01*
X129465000Y-89298061D01*
X128511772Y-89298061D01*
X128509774Y-89296063D01*
X128340256Y-89182795D01*
X128151898Y-89104774D01*
X127951939Y-89065000D01*
X127748061Y-89065000D01*
X127548102Y-89104774D01*
X127359744Y-89182795D01*
X127190226Y-89296063D01*
X127046063Y-89440226D01*
X126932795Y-89609744D01*
X126854774Y-89798102D01*
X126815000Y-89998061D01*
X126815000Y-90010201D01*
X126801898Y-90004774D01*
X126601939Y-89965000D01*
X126398061Y-89965000D01*
X126274042Y-89989669D01*
X126303937Y-89959774D01*
X126417205Y-89790256D01*
X126495226Y-89601898D01*
X126535000Y-89401939D01*
X126535000Y-89198061D01*
X126495226Y-88998102D01*
X126417205Y-88809744D01*
X126303937Y-88640226D01*
X126159774Y-88496063D01*
X125990256Y-88382795D01*
X125801898Y-88304774D01*
X125663977Y-88277340D01*
X125695226Y-88201898D01*
X125735000Y-88001939D01*
X125735000Y-87798061D01*
X125695226Y-87598102D01*
X125617205Y-87409744D01*
X125503937Y-87240226D01*
X125359774Y-87096063D01*
X125190256Y-86982795D01*
X125001898Y-86904774D01*
X124801939Y-86865000D01*
X124598061Y-86865000D01*
X124398102Y-86904774D01*
X124209744Y-86982795D01*
X124040226Y-87096063D01*
X123896063Y-87240226D01*
X123782795Y-87409744D01*
X123704774Y-87598102D01*
X123665000Y-87798061D01*
X123665000Y-88001939D01*
X123704774Y-88201898D01*
X123762121Y-88340344D01*
X123693951Y-88368581D01*
X123524433Y-88481849D01*
X123380270Y-88626012D01*
X123267002Y-88795530D01*
X123188981Y-88983888D01*
X123149207Y-89183847D01*
X123149207Y-89387725D01*
X123188981Y-89587684D01*
X123267002Y-89776042D01*
X123380270Y-89945560D01*
X123524433Y-90089723D01*
X123693951Y-90202991D01*
X123882309Y-90281012D01*
X124082268Y-90320786D01*
X124286146Y-90320786D01*
X124486105Y-90281012D01*
X124674463Y-90202991D01*
X124833209Y-90096920D01*
X124840226Y-90103937D01*
X125009744Y-90217205D01*
X125198102Y-90295226D01*
X125398061Y-90335000D01*
X125601939Y-90335000D01*
X125725958Y-90310331D01*
X125696063Y-90340226D01*
X125582795Y-90509744D01*
X125504774Y-90698102D01*
X125501483Y-90714648D01*
X125368998Y-90582163D01*
X125199480Y-90468895D01*
X125011122Y-90390874D01*
X124811163Y-90351100D01*
X124607285Y-90351100D01*
X124407326Y-90390874D01*
X124218968Y-90468895D01*
X124049450Y-90582163D01*
X123905287Y-90726326D01*
X123842368Y-90820492D01*
X123817205Y-90759744D01*
X123703937Y-90590226D01*
X123559774Y-90446063D01*
X123390256Y-90332795D01*
X123201898Y-90254774D01*
X123001939Y-90215000D01*
X122798061Y-90215000D01*
X122598102Y-90254774D01*
X122409744Y-90332795D01*
X122240226Y-90446063D01*
X122096063Y-90590226D01*
X121982795Y-90759744D01*
X121970217Y-90790110D01*
X121946632Y-90766525D01*
X121772240Y-90650000D01*
X121946632Y-90533475D01*
X122153475Y-90326632D01*
X122315990Y-90083411D01*
X122427932Y-89813158D01*
X122485000Y-89526260D01*
X122485000Y-89233740D01*
X122427932Y-88946842D01*
X122315990Y-88676589D01*
X122153475Y-88433368D01*
X121946632Y-88226525D01*
X121772240Y-88110000D01*
X121946632Y-87993475D01*
X122153475Y-87786632D01*
X122315990Y-87543411D01*
X122427932Y-87273158D01*
X122485000Y-86986260D01*
X122485000Y-86693740D01*
X122427932Y-86406842D01*
X122315990Y-86136589D01*
X122153475Y-85893368D01*
X121946632Y-85686525D01*
X121772240Y-85570000D01*
X121946632Y-85453475D01*
X122153475Y-85246632D01*
X122315990Y-85003411D01*
X122421759Y-84748061D01*
X128315000Y-84748061D01*
X128315000Y-84951939D01*
X128354774Y-85151898D01*
X128432795Y-85340256D01*
X128546063Y-85509774D01*
X128690226Y-85653937D01*
X128859744Y-85767205D01*
X129048102Y-85845226D01*
X129248061Y-85885000D01*
X129451939Y-85885000D01*
X129651898Y-85845226D01*
X129840256Y-85767205D01*
X129887585Y-85735581D01*
X130009744Y-85817205D01*
X130198102Y-85895226D01*
X130398061Y-85935000D01*
X130601939Y-85935000D01*
X130801898Y-85895226D01*
X130990256Y-85817205D01*
X131159774Y-85703937D01*
X131303937Y-85559774D01*
X131417205Y-85390256D01*
X131495226Y-85201898D01*
X131535000Y-85001939D01*
X131535000Y-84898061D01*
X135765000Y-84898061D01*
X135765000Y-85101939D01*
X135804774Y-85301898D01*
X135882795Y-85490256D01*
X135996063Y-85659774D01*
X136140226Y-85803937D01*
X136309744Y-85917205D01*
X136498102Y-85995226D01*
X136698061Y-86035000D01*
X136901939Y-86035000D01*
X137101898Y-85995226D01*
X137290256Y-85917205D01*
X137459774Y-85803937D01*
X137603937Y-85659774D01*
X137717205Y-85490256D01*
X137763875Y-85377586D01*
X137890226Y-85503937D01*
X138059744Y-85617205D01*
X138248102Y-85695226D01*
X138265000Y-85698587D01*
X138265000Y-85701939D01*
X138304774Y-85901898D01*
X138382795Y-86090256D01*
X138496063Y-86259774D01*
X138640226Y-86403937D01*
X138809744Y-86517205D01*
X138998102Y-86595226D01*
X139198061Y-86635000D01*
X139401939Y-86635000D01*
X139601898Y-86595226D01*
X139790256Y-86517205D01*
X139959774Y-86403937D01*
X140103937Y-86259774D01*
X140217205Y-86090256D01*
X140295226Y-85901898D01*
X140335000Y-85701939D01*
X140335000Y-85598061D01*
X140465000Y-85598061D01*
X140465000Y-85801939D01*
X140504774Y-86001898D01*
X140582795Y-86190256D01*
X140696063Y-86359774D01*
X140840226Y-86503937D01*
X141009744Y-86617205D01*
X141198102Y-86695226D01*
X141398061Y-86735000D01*
X141601939Y-86735000D01*
X141801898Y-86695226D01*
X141990256Y-86617205D01*
X142002617Y-86608946D01*
X141965000Y-86798061D01*
X141965000Y-87001939D01*
X142004774Y-87201898D01*
X142082795Y-87390256D01*
X142196063Y-87559774D01*
X142340226Y-87703937D01*
X142509744Y-87817205D01*
X142698102Y-87895226D01*
X142898061Y-87935000D01*
X143101939Y-87935000D01*
X143301898Y-87895226D01*
X143490256Y-87817205D01*
X143659774Y-87703937D01*
X143803937Y-87559774D01*
X143917205Y-87390256D01*
X143995226Y-87201898D01*
X144035000Y-87001939D01*
X144035000Y-86798061D01*
X143995226Y-86598102D01*
X143917205Y-86409744D01*
X143803937Y-86240226D01*
X143659774Y-86096063D01*
X143490256Y-85982795D01*
X143301898Y-85904774D01*
X143101939Y-85865000D01*
X142898061Y-85865000D01*
X142698102Y-85904774D01*
X142509744Y-85982795D01*
X142497383Y-85991054D01*
X142535000Y-85801939D01*
X142535000Y-85598061D01*
X142495226Y-85398102D01*
X142417205Y-85209744D01*
X142303937Y-85040226D01*
X142159774Y-84896063D01*
X141990256Y-84782795D01*
X141801898Y-84704774D01*
X141601939Y-84665000D01*
X141398061Y-84665000D01*
X141198102Y-84704774D01*
X141009744Y-84782795D01*
X140840226Y-84896063D01*
X140696063Y-85040226D01*
X140582795Y-85209744D01*
X140504774Y-85398102D01*
X140465000Y-85598061D01*
X140335000Y-85598061D01*
X140335000Y-85498061D01*
X140295226Y-85298102D01*
X140217205Y-85109744D01*
X140103937Y-84940226D01*
X139959774Y-84796063D01*
X139790256Y-84682795D01*
X139601898Y-84604774D01*
X139585000Y-84601413D01*
X139585000Y-84598061D01*
X139545226Y-84398102D01*
X139545210Y-84398061D01*
X142165000Y-84398061D01*
X142165000Y-84601939D01*
X142204774Y-84801898D01*
X142282795Y-84990256D01*
X142396063Y-85159774D01*
X142540226Y-85303937D01*
X142709744Y-85417205D01*
X142898102Y-85495226D01*
X143098061Y-85535000D01*
X143301939Y-85535000D01*
X143501898Y-85495226D01*
X143690256Y-85417205D01*
X143859774Y-85303937D01*
X144003937Y-85159774D01*
X144117205Y-84990256D01*
X144195226Y-84801898D01*
X144235000Y-84601939D01*
X144235000Y-84398061D01*
X144195226Y-84198102D01*
X144117205Y-84009744D01*
X144003937Y-83840226D01*
X143859774Y-83696063D01*
X143690256Y-83582795D01*
X143501898Y-83504774D01*
X143301939Y-83465000D01*
X143098061Y-83465000D01*
X142898102Y-83504774D01*
X142709744Y-83582795D01*
X142540226Y-83696063D01*
X142396063Y-83840226D01*
X142282795Y-84009744D01*
X142204774Y-84198102D01*
X142165000Y-84398061D01*
X139545210Y-84398061D01*
X139467205Y-84209744D01*
X139353937Y-84040226D01*
X139209774Y-83896063D01*
X139040256Y-83782795D01*
X138851898Y-83704774D01*
X138651939Y-83665000D01*
X138540093Y-83665000D01*
X138517205Y-83609744D01*
X138477285Y-83550000D01*
X138517205Y-83490256D01*
X138595226Y-83301898D01*
X138635000Y-83101939D01*
X138635000Y-82898711D01*
X138640226Y-82903937D01*
X138809744Y-83017205D01*
X138998102Y-83095226D01*
X139065000Y-83108533D01*
X139065000Y-83301939D01*
X139104774Y-83501898D01*
X139182795Y-83690256D01*
X139296063Y-83859774D01*
X139440226Y-84003937D01*
X139609744Y-84117205D01*
X139798102Y-84195226D01*
X139998061Y-84235000D01*
X140201939Y-84235000D01*
X140401898Y-84195226D01*
X140590256Y-84117205D01*
X140759774Y-84003937D01*
X140903937Y-83859774D01*
X141017205Y-83690256D01*
X141095226Y-83501898D01*
X141135000Y-83301939D01*
X141135000Y-83098061D01*
X141095226Y-82898102D01*
X141017205Y-82709744D01*
X140903937Y-82540226D01*
X140759774Y-82396063D01*
X140590256Y-82282795D01*
X140401898Y-82204774D01*
X140335000Y-82191467D01*
X140335000Y-81998061D01*
X140295226Y-81798102D01*
X140217205Y-81609744D01*
X140103937Y-81440226D01*
X139959774Y-81296063D01*
X139790256Y-81182795D01*
X139601898Y-81104774D01*
X139401939Y-81065000D01*
X139198061Y-81065000D01*
X138998102Y-81104774D01*
X138809744Y-81182795D01*
X138640226Y-81296063D01*
X138496063Y-81440226D01*
X138382795Y-81609744D01*
X138304774Y-81798102D01*
X138265000Y-81998061D01*
X138265000Y-82201289D01*
X138259774Y-82196063D01*
X138090256Y-82082795D01*
X137901898Y-82004774D01*
X137701939Y-81965000D01*
X137498061Y-81965000D01*
X137298102Y-82004774D01*
X137109744Y-82082795D01*
X136940226Y-82196063D01*
X136796063Y-82340226D01*
X136682795Y-82509744D01*
X136604774Y-82698102D01*
X136565000Y-82898061D01*
X136565000Y-83101939D01*
X136604774Y-83301898D01*
X136682795Y-83490256D01*
X136722715Y-83550000D01*
X136682795Y-83609744D01*
X136604774Y-83798102D01*
X136566366Y-83991196D01*
X136498102Y-84004774D01*
X136309744Y-84082795D01*
X136140226Y-84196063D01*
X135996063Y-84340226D01*
X135882795Y-84509744D01*
X135804774Y-84698102D01*
X135765000Y-84898061D01*
X131535000Y-84898061D01*
X131535000Y-84798061D01*
X131495226Y-84598102D01*
X131417205Y-84409744D01*
X131303937Y-84240226D01*
X131159774Y-84096063D01*
X130990256Y-83982795D01*
X130801898Y-83904774D01*
X130601939Y-83865000D01*
X130398061Y-83865000D01*
X130198102Y-83904774D01*
X130009744Y-83982795D01*
X129962415Y-84014419D01*
X129840256Y-83932795D01*
X129651898Y-83854774D01*
X129451939Y-83815000D01*
X129248061Y-83815000D01*
X129048102Y-83854774D01*
X128859744Y-83932795D01*
X128690226Y-84046063D01*
X128546063Y-84190226D01*
X128432795Y-84359744D01*
X128354774Y-84548102D01*
X128315000Y-84748061D01*
X122421759Y-84748061D01*
X122427932Y-84733158D01*
X122485000Y-84446260D01*
X122485000Y-84153740D01*
X122427932Y-83866842D01*
X122315990Y-83596589D01*
X122153475Y-83353368D01*
X121946632Y-83146525D01*
X121772240Y-83030000D01*
X121946632Y-82913475D01*
X122153475Y-82706632D01*
X122315990Y-82463411D01*
X122427932Y-82193158D01*
X122485000Y-81906260D01*
X122485000Y-81613740D01*
X122427932Y-81326842D01*
X122315990Y-81056589D01*
X122153475Y-80813368D01*
X121946632Y-80606525D01*
X121772240Y-80490000D01*
X121946632Y-80373475D01*
X122153475Y-80166632D01*
X122315990Y-79923411D01*
X122427932Y-79653158D01*
X122485000Y-79366260D01*
X122485000Y-79073740D01*
X122427932Y-78786842D01*
X122315990Y-78516589D01*
X122153475Y-78273368D01*
X121946632Y-78066525D01*
X121844169Y-77998061D01*
X125365000Y-77998061D01*
X125365000Y-78201939D01*
X125404774Y-78401898D01*
X125482795Y-78590256D01*
X125589532Y-78750000D01*
X125482795Y-78909744D01*
X125404774Y-79098102D01*
X125365000Y-79298061D01*
X125365000Y-79501939D01*
X125404774Y-79701898D01*
X125482795Y-79890256D01*
X125596063Y-80059774D01*
X125740226Y-80203937D01*
X125909744Y-80317205D01*
X126098102Y-80395226D01*
X126298061Y-80435000D01*
X126501939Y-80435000D01*
X126701898Y-80395226D01*
X126880259Y-80321346D01*
X126865000Y-80398061D01*
X126865000Y-80601939D01*
X126904774Y-80801898D01*
X126982795Y-80990256D01*
X127096063Y-81159774D01*
X127240226Y-81303937D01*
X127409744Y-81417205D01*
X127598102Y-81495226D01*
X127740401Y-81523531D01*
X127682795Y-81609744D01*
X127604774Y-81798102D01*
X127565000Y-81998061D01*
X127565000Y-82201939D01*
X127604774Y-82401898D01*
X127682795Y-82590256D01*
X127796063Y-82759774D01*
X127940226Y-82903937D01*
X128109744Y-83017205D01*
X128298102Y-83095226D01*
X128498061Y-83135000D01*
X128701939Y-83135000D01*
X128901898Y-83095226D01*
X129090256Y-83017205D01*
X129259774Y-82903937D01*
X129403937Y-82759774D01*
X129517205Y-82590256D01*
X129595226Y-82401898D01*
X129635000Y-82201939D01*
X129635000Y-81998061D01*
X129595226Y-81798102D01*
X129517205Y-81609744D01*
X129403937Y-81440226D01*
X129259774Y-81296063D01*
X129187934Y-81248061D01*
X133065000Y-81248061D01*
X133065000Y-81451939D01*
X133104774Y-81651898D01*
X133182795Y-81840256D01*
X133296063Y-82009774D01*
X133440226Y-82153937D01*
X133609744Y-82267205D01*
X133798102Y-82345226D01*
X133998061Y-82385000D01*
X134201939Y-82385000D01*
X134401898Y-82345226D01*
X134590256Y-82267205D01*
X134759774Y-82153937D01*
X134903937Y-82009774D01*
X135017205Y-81840256D01*
X135095226Y-81651898D01*
X135135000Y-81451939D01*
X135135000Y-81248061D01*
X135095226Y-81048102D01*
X135017205Y-80859744D01*
X134903937Y-80690226D01*
X134759774Y-80546063D01*
X134590256Y-80432795D01*
X134401898Y-80354774D01*
X134201939Y-80315000D01*
X133998061Y-80315000D01*
X133798102Y-80354774D01*
X133609744Y-80432795D01*
X133440226Y-80546063D01*
X133296063Y-80690226D01*
X133182795Y-80859744D01*
X133104774Y-81048102D01*
X133065000Y-81248061D01*
X129187934Y-81248061D01*
X129090256Y-81182795D01*
X128901898Y-81104774D01*
X128759599Y-81076469D01*
X128817205Y-80990256D01*
X128895226Y-80801898D01*
X128935000Y-80601939D01*
X128935000Y-80398061D01*
X128895226Y-80198102D01*
X128817205Y-80009744D01*
X128703937Y-79840226D01*
X128559774Y-79696063D01*
X128390256Y-79582795D01*
X128246042Y-79523059D01*
X140165000Y-79523059D01*
X140165000Y-79726937D01*
X140204774Y-79926896D01*
X140282795Y-80115254D01*
X140396063Y-80284772D01*
X140540226Y-80428935D01*
X140709744Y-80542203D01*
X140898102Y-80620224D01*
X141098061Y-80659998D01*
X141301939Y-80659998D01*
X141501898Y-80620224D01*
X141690256Y-80542203D01*
X141859774Y-80428935D01*
X142003937Y-80284772D01*
X142117205Y-80115254D01*
X142195226Y-79926896D01*
X142235000Y-79726937D01*
X142235000Y-79523059D01*
X142195226Y-79323100D01*
X142117205Y-79134742D01*
X142003937Y-78965224D01*
X141859774Y-78821061D01*
X141690256Y-78707793D01*
X141501898Y-78629772D01*
X141301939Y-78589998D01*
X141098061Y-78589998D01*
X140898102Y-78629772D01*
X140709744Y-78707793D01*
X140540226Y-78821061D01*
X140396063Y-78965224D01*
X140282795Y-79134742D01*
X140204774Y-79323100D01*
X140165000Y-79523059D01*
X128246042Y-79523059D01*
X128201898Y-79504774D01*
X128001939Y-79465000D01*
X127798061Y-79465000D01*
X127598102Y-79504774D01*
X127419741Y-79578654D01*
X127435000Y-79501939D01*
X127435000Y-79298061D01*
X127395226Y-79098102D01*
X127317205Y-78909744D01*
X127210468Y-78750000D01*
X127317205Y-78590256D01*
X127395226Y-78401898D01*
X127435000Y-78201939D01*
X127435000Y-77998061D01*
X127410792Y-77876358D01*
X127491896Y-77860226D01*
X127680254Y-77782205D01*
X127849772Y-77668937D01*
X127993935Y-77524774D01*
X128107203Y-77355256D01*
X128185224Y-77166898D01*
X128224998Y-76966939D01*
X128224998Y-76763061D01*
X128185224Y-76563102D01*
X128107203Y-76374744D01*
X127993935Y-76205226D01*
X127849772Y-76061063D01*
X127680254Y-75947795D01*
X127491896Y-75869774D01*
X127291937Y-75830000D01*
X127088059Y-75830000D01*
X126888100Y-75869774D01*
X126699742Y-75947795D01*
X126530224Y-76061063D01*
X126386061Y-76205226D01*
X126272793Y-76374744D01*
X126194772Y-76563102D01*
X126154998Y-76763061D01*
X126154998Y-76966939D01*
X126179206Y-77088642D01*
X126098102Y-77104774D01*
X125909744Y-77182795D01*
X125740226Y-77296063D01*
X125596063Y-77440226D01*
X125482795Y-77609744D01*
X125404774Y-77798102D01*
X125365000Y-77998061D01*
X121844169Y-77998061D01*
X121772240Y-77950000D01*
X121946632Y-77833475D01*
X122153475Y-77626632D01*
X122315990Y-77383411D01*
X122427932Y-77113158D01*
X122485000Y-76826260D01*
X122485000Y-76533740D01*
X122427932Y-76246842D01*
X122315990Y-75976589D01*
X122153475Y-75733368D01*
X121946632Y-75526525D01*
X121772240Y-75410000D01*
X121946632Y-75293475D01*
X122153475Y-75086632D01*
X122315990Y-74843411D01*
X122427932Y-74573158D01*
X122485000Y-74286260D01*
X122485000Y-74198061D01*
X126765000Y-74198061D01*
X126765000Y-74401939D01*
X126804774Y-74601898D01*
X126882795Y-74790256D01*
X126996063Y-74959774D01*
X127140226Y-75103937D01*
X127309744Y-75217205D01*
X127498102Y-75295226D01*
X127698061Y-75335000D01*
X127901939Y-75335000D01*
X128101898Y-75295226D01*
X128122840Y-75286551D01*
X128240226Y-75403937D01*
X128409744Y-75517205D01*
X128564998Y-75581514D01*
X128564998Y-75701939D01*
X128604772Y-75901898D01*
X128682793Y-76090256D01*
X128796061Y-76259774D01*
X128940224Y-76403937D01*
X129109742Y-76517205D01*
X129298100Y-76595226D01*
X129498059Y-76635000D01*
X129701937Y-76635000D01*
X129901896Y-76595226D01*
X129990161Y-76558665D01*
X131265000Y-76558665D01*
X131265000Y-76841335D01*
X131320147Y-77118574D01*
X131428320Y-77379727D01*
X131585363Y-77614759D01*
X131785241Y-77814637D01*
X132020273Y-77971680D01*
X132281426Y-78079853D01*
X132558665Y-78135000D01*
X132841335Y-78135000D01*
X133118574Y-78079853D01*
X133379727Y-77971680D01*
X133614759Y-77814637D01*
X133814637Y-77614759D01*
X133971680Y-77379727D01*
X134079853Y-77118574D01*
X134123716Y-76898061D01*
X135765000Y-76898061D01*
X135765000Y-77101939D01*
X135804774Y-77301898D01*
X135882795Y-77490256D01*
X135996063Y-77659774D01*
X136140226Y-77803937D01*
X136309744Y-77917205D01*
X136498102Y-77995226D01*
X136698061Y-78035000D01*
X136901939Y-78035000D01*
X137101898Y-77995226D01*
X137290256Y-77917205D01*
X137459774Y-77803937D01*
X137603937Y-77659774D01*
X137611763Y-77648061D01*
X138365000Y-77648061D01*
X138365000Y-77851939D01*
X138404774Y-78051898D01*
X138482795Y-78240256D01*
X138596063Y-78409774D01*
X138740226Y-78553937D01*
X138909744Y-78667205D01*
X139098102Y-78745226D01*
X139298061Y-78785000D01*
X139501939Y-78785000D01*
X139701898Y-78745226D01*
X139890256Y-78667205D01*
X140059774Y-78553937D01*
X140203937Y-78409774D01*
X140317205Y-78240256D01*
X140395226Y-78051898D01*
X140398587Y-78035000D01*
X140501939Y-78035000D01*
X140701898Y-77995226D01*
X140890256Y-77917205D01*
X141059774Y-77803937D01*
X141203937Y-77659774D01*
X141317205Y-77490256D01*
X141395226Y-77301898D01*
X141435000Y-77101939D01*
X141435000Y-76898061D01*
X141395226Y-76698102D01*
X141317205Y-76509744D01*
X141203937Y-76340226D01*
X141059774Y-76196063D01*
X140890256Y-76082795D01*
X140701898Y-76004774D01*
X140501939Y-75965000D01*
X140298061Y-75965000D01*
X140098102Y-76004774D01*
X139909744Y-76082795D01*
X139740226Y-76196063D01*
X139596063Y-76340226D01*
X139482795Y-76509744D01*
X139404774Y-76698102D01*
X139401413Y-76715000D01*
X139298061Y-76715000D01*
X139098102Y-76754774D01*
X138909744Y-76832795D01*
X138740226Y-76946063D01*
X138596063Y-77090226D01*
X138482795Y-77259744D01*
X138404774Y-77448102D01*
X138365000Y-77648061D01*
X137611763Y-77648061D01*
X137717205Y-77490256D01*
X137795226Y-77301898D01*
X137835000Y-77101939D01*
X137835000Y-76898061D01*
X137795226Y-76698102D01*
X137763977Y-76622660D01*
X137901898Y-76595226D01*
X138090256Y-76517205D01*
X138259774Y-76403937D01*
X138403937Y-76259774D01*
X138517205Y-76090256D01*
X138595226Y-75901898D01*
X138635000Y-75701939D01*
X138635000Y-75498061D01*
X138595226Y-75298102D01*
X138517205Y-75109744D01*
X138403937Y-74940226D01*
X138259774Y-74796063D01*
X138090256Y-74682795D01*
X137901898Y-74604774D01*
X137701939Y-74565000D01*
X137498061Y-74565000D01*
X137298102Y-74604774D01*
X137109744Y-74682795D01*
X136940226Y-74796063D01*
X136796063Y-74940226D01*
X136682795Y-75109744D01*
X136604774Y-75298102D01*
X136565000Y-75498061D01*
X136565000Y-75701939D01*
X136604774Y-75901898D01*
X136636023Y-75977340D01*
X136498102Y-76004774D01*
X136309744Y-76082795D01*
X136140226Y-76196063D01*
X135996063Y-76340226D01*
X135882795Y-76509744D01*
X135804774Y-76698102D01*
X135765000Y-76898061D01*
X134123716Y-76898061D01*
X134135000Y-76841335D01*
X134135000Y-76558665D01*
X134079853Y-76281426D01*
X133971680Y-76020273D01*
X133814637Y-75785241D01*
X133614759Y-75585363D01*
X133379727Y-75428320D01*
X133118574Y-75320147D01*
X132841335Y-75265000D01*
X132558665Y-75265000D01*
X132281426Y-75320147D01*
X132020273Y-75428320D01*
X131785241Y-75585363D01*
X131585363Y-75785241D01*
X131428320Y-76020273D01*
X131320147Y-76281426D01*
X131265000Y-76558665D01*
X129990161Y-76558665D01*
X130090254Y-76517205D01*
X130259772Y-76403937D01*
X130403935Y-76259774D01*
X130517203Y-76090256D01*
X130595224Y-75901898D01*
X130634998Y-75701939D01*
X130634998Y-75498061D01*
X130595224Y-75298102D01*
X130517203Y-75109744D01*
X130403935Y-74940226D01*
X130259772Y-74796063D01*
X130090254Y-74682795D01*
X129935000Y-74618486D01*
X129935000Y-74498061D01*
X129895226Y-74298102D01*
X129817205Y-74109744D01*
X129703937Y-73940226D01*
X129563711Y-73800000D01*
X129603937Y-73759774D01*
X129717205Y-73590256D01*
X129755393Y-73498061D01*
X133765000Y-73498061D01*
X133765000Y-73701939D01*
X133804774Y-73901898D01*
X133882795Y-74090256D01*
X133996063Y-74259774D01*
X134140226Y-74403937D01*
X134309744Y-74517205D01*
X134498102Y-74595226D01*
X134698061Y-74635000D01*
X134901939Y-74635000D01*
X135101898Y-74595226D01*
X135290256Y-74517205D01*
X135459774Y-74403937D01*
X135603937Y-74259774D01*
X135717205Y-74090256D01*
X135744506Y-74024347D01*
X135798061Y-74035000D01*
X136001939Y-74035000D01*
X136201898Y-73995226D01*
X136390256Y-73917205D01*
X136559774Y-73803937D01*
X136703937Y-73659774D01*
X136817205Y-73490256D01*
X136895226Y-73301898D01*
X136935000Y-73101939D01*
X136935000Y-72898061D01*
X136895226Y-72698102D01*
X136817205Y-72509744D01*
X136703937Y-72340226D01*
X136559774Y-72196063D01*
X136390256Y-72082795D01*
X136201898Y-72004774D01*
X136001939Y-71965000D01*
X135798061Y-71965000D01*
X135598102Y-72004774D01*
X135409744Y-72082795D01*
X135240226Y-72196063D01*
X135096063Y-72340226D01*
X134982795Y-72509744D01*
X134955494Y-72575653D01*
X134901939Y-72565000D01*
X134698061Y-72565000D01*
X134498102Y-72604774D01*
X134309744Y-72682795D01*
X134140226Y-72796063D01*
X133996063Y-72940226D01*
X133882795Y-73109744D01*
X133804774Y-73298102D01*
X133765000Y-73498061D01*
X129755393Y-73498061D01*
X129795226Y-73401898D01*
X129835000Y-73201939D01*
X129835000Y-72998061D01*
X129795226Y-72798102D01*
X129717205Y-72609744D01*
X129603937Y-72440226D01*
X129459774Y-72296063D01*
X129290256Y-72182795D01*
X129101898Y-72104774D01*
X128901939Y-72065000D01*
X128698061Y-72065000D01*
X128498102Y-72104774D01*
X128309744Y-72182795D01*
X128140226Y-72296063D01*
X127996063Y-72440226D01*
X127882795Y-72609744D01*
X127804774Y-72798102D01*
X127765000Y-72998061D01*
X127765000Y-73201939D01*
X127777544Y-73265000D01*
X127698061Y-73265000D01*
X127498102Y-73304774D01*
X127309744Y-73382795D01*
X127140226Y-73496063D01*
X126996063Y-73640226D01*
X126882795Y-73809744D01*
X126804774Y-73998102D01*
X126765000Y-74198061D01*
X122485000Y-74198061D01*
X122485000Y-73993740D01*
X122427932Y-73706842D01*
X122315990Y-73436589D01*
X122153475Y-73193368D01*
X121946632Y-72986525D01*
X121772240Y-72870000D01*
X121946632Y-72753475D01*
X122153475Y-72546632D01*
X122315990Y-72303411D01*
X122427932Y-72033158D01*
X122485000Y-71746260D01*
X122485000Y-71453740D01*
X122427932Y-71166842D01*
X122315990Y-70896589D01*
X122153475Y-70653368D01*
X122021620Y-70521513D01*
X122094180Y-70499502D01*
X122204494Y-70440537D01*
X122301185Y-70361185D01*
X122380537Y-70264494D01*
X122439502Y-70154180D01*
X122475812Y-70034482D01*
X122488072Y-69910000D01*
X122488072Y-68210000D01*
X122479897Y-68127000D01*
X123138083Y-68127000D01*
X123082795Y-68209744D01*
%TA.AperFunction,Conductor*%
D17*
G36*
X123082795Y-68209744D02*
G01*
X123004774Y-68398102D01*
X122965000Y-68598061D01*
X122965000Y-68801939D01*
X123004774Y-69001898D01*
X123082795Y-69190256D01*
X123196063Y-69359774D01*
X123340226Y-69503937D01*
X123509744Y-69617205D01*
X123698102Y-69695226D01*
X123898061Y-69735000D01*
X124101939Y-69735000D01*
X124301898Y-69695226D01*
X124490256Y-69617205D01*
X124659774Y-69503937D01*
X124803937Y-69359774D01*
X124917205Y-69190256D01*
X124995226Y-69001898D01*
X125035000Y-68801939D01*
X125035000Y-68598061D01*
X124995226Y-68398102D01*
X124917205Y-68209744D01*
X124861917Y-68127000D01*
X125538083Y-68127000D01*
X125482795Y-68209744D01*
X125404774Y-68398102D01*
X125365000Y-68598061D01*
X125365000Y-68801939D01*
X125404774Y-69001898D01*
X125482795Y-69190256D01*
X125596063Y-69359774D01*
X125740226Y-69503937D01*
X125909744Y-69617205D01*
X126098102Y-69695226D01*
X126196266Y-69714752D01*
X126132795Y-69809744D01*
X126054774Y-69998102D01*
X126015000Y-70198061D01*
X126015000Y-70401939D01*
X126054774Y-70601898D01*
X126132795Y-70790256D01*
X126246063Y-70959774D01*
X126390226Y-71103937D01*
X126559744Y-71217205D01*
X126748102Y-71295226D01*
X126948061Y-71335000D01*
X127151939Y-71335000D01*
X127351898Y-71295226D01*
X127540256Y-71217205D01*
X127709774Y-71103937D01*
X127853937Y-70959774D01*
X127861763Y-70948061D01*
X128665000Y-70948061D01*
X128665000Y-71151939D01*
X128704774Y-71351898D01*
X128782795Y-71540256D01*
X128896063Y-71709774D01*
X129040226Y-71853937D01*
X129209744Y-71967205D01*
X129398102Y-72045226D01*
X129598061Y-72085000D01*
X129801939Y-72085000D01*
X130001898Y-72045226D01*
X130190256Y-71967205D01*
X130359774Y-71853937D01*
X130503937Y-71709774D01*
X130511763Y-71698061D01*
X132065000Y-71698061D01*
X132065000Y-71901939D01*
X132104774Y-72101898D01*
X132182795Y-72290256D01*
X132296063Y-72459774D01*
X132440226Y-72603937D01*
X132609744Y-72717205D01*
X132798102Y-72795226D01*
X132998061Y-72835000D01*
X133201939Y-72835000D01*
X133401898Y-72795226D01*
X133590256Y-72717205D01*
X133759774Y-72603937D01*
X133903937Y-72459774D01*
X134017205Y-72290256D01*
X134095226Y-72101898D01*
X134135000Y-71901939D01*
X134135000Y-71698061D01*
X137565000Y-71698061D01*
X137565000Y-71901939D01*
X137604774Y-72101898D01*
X137682795Y-72290256D01*
X137796063Y-72459774D01*
X137940226Y-72603937D01*
X138109744Y-72717205D01*
X138298102Y-72795226D01*
X138498061Y-72835000D01*
X138701939Y-72835000D01*
X138901898Y-72795226D01*
X139090256Y-72717205D01*
X139259774Y-72603937D01*
X139403937Y-72459774D01*
X139517205Y-72290256D01*
X139595226Y-72101898D01*
X139602569Y-72064984D01*
X139701898Y-72045226D01*
X139890256Y-71967205D01*
X140059774Y-71853937D01*
X140203937Y-71709774D01*
X140317205Y-71540256D01*
X140395226Y-71351898D01*
X140435000Y-71151939D01*
X140435000Y-70958533D01*
X140501898Y-70945226D01*
X140690256Y-70867205D01*
X140859774Y-70753937D01*
X141003937Y-70609774D01*
X141117205Y-70440256D01*
X141195226Y-70251898D01*
X141235000Y-70051939D01*
X141235000Y-69848061D01*
X141195226Y-69648102D01*
X141117205Y-69459744D01*
X141003937Y-69290226D01*
X140859774Y-69146063D01*
X140690256Y-69032795D01*
X140501898Y-68954774D01*
X140402569Y-68935016D01*
X140395226Y-68898102D01*
X140317205Y-68709744D01*
X140203937Y-68540226D01*
X140059774Y-68396063D01*
X139890256Y-68282795D01*
X139701898Y-68204774D01*
X139501939Y-68165000D01*
X139298061Y-68165000D01*
X139098102Y-68204774D01*
X138909744Y-68282795D01*
X138740226Y-68396063D01*
X138596063Y-68540226D01*
X138482795Y-68709744D01*
X138404774Y-68898102D01*
X138365000Y-69098061D01*
X138365000Y-69301939D01*
X138404774Y-69501898D01*
X138482795Y-69690256D01*
X138596063Y-69859774D01*
X138740226Y-70003937D01*
X138909744Y-70117205D01*
X138928563Y-70125000D01*
X138909744Y-70132795D01*
X138740226Y-70246063D01*
X138596063Y-70390226D01*
X138482795Y-70559744D01*
X138404774Y-70748102D01*
X138397431Y-70785016D01*
X138298102Y-70804774D01*
X138109744Y-70882795D01*
X137940226Y-70996063D01*
X137796063Y-71140226D01*
X137682795Y-71309744D01*
X137604774Y-71498102D01*
X137565000Y-71698061D01*
X134135000Y-71698061D01*
X134095226Y-71498102D01*
X134017205Y-71309744D01*
X133903937Y-71140226D01*
X133759774Y-70996063D01*
X133590256Y-70882795D01*
X133401898Y-70804774D01*
X133201939Y-70765000D01*
X132998061Y-70765000D01*
X132798102Y-70804774D01*
X132609744Y-70882795D01*
X132440226Y-70996063D01*
X132296063Y-71140226D01*
X132182795Y-71309744D01*
X132104774Y-71498102D01*
X132065000Y-71698061D01*
X130511763Y-71698061D01*
X130617205Y-71540256D01*
X130695226Y-71351898D01*
X130735000Y-71151939D01*
X130735000Y-70948061D01*
X130695226Y-70748102D01*
X130617205Y-70559744D01*
X130503937Y-70390226D01*
X130359774Y-70246063D01*
X130287934Y-70198061D01*
X133765000Y-70198061D01*
X133765000Y-70401939D01*
X133804774Y-70601898D01*
X133882795Y-70790256D01*
X133996063Y-70959774D01*
X134140226Y-71103937D01*
X134309744Y-71217205D01*
X134498102Y-71295226D01*
X134698061Y-71335000D01*
X134901939Y-71335000D01*
X135101898Y-71295226D01*
X135290256Y-71217205D01*
X135459774Y-71103937D01*
X135603937Y-70959774D01*
X135717205Y-70790256D01*
X135795226Y-70601898D01*
X135835000Y-70401939D01*
X135835000Y-70198061D01*
X135795226Y-69998102D01*
X135717205Y-69809744D01*
X135603937Y-69640226D01*
X135459774Y-69496063D01*
X135290256Y-69382795D01*
X135101898Y-69304774D01*
X134901939Y-69265000D01*
X134698061Y-69265000D01*
X134498102Y-69304774D01*
X134309744Y-69382795D01*
X134140226Y-69496063D01*
X133996063Y-69640226D01*
X133882795Y-69809744D01*
X133804774Y-69998102D01*
X133765000Y-70198061D01*
X130287934Y-70198061D01*
X130190256Y-70132795D01*
X130001898Y-70054774D01*
X129801939Y-70015000D01*
X129598061Y-70015000D01*
X129398102Y-70054774D01*
X129209744Y-70132795D01*
X129040226Y-70246063D01*
X128896063Y-70390226D01*
X128782795Y-70559744D01*
X128704774Y-70748102D01*
X128665000Y-70948061D01*
X127861763Y-70948061D01*
X127967205Y-70790256D01*
X128045226Y-70601898D01*
X128085000Y-70401939D01*
X128085000Y-70198587D01*
X128101898Y-70195226D01*
X128290256Y-70117205D01*
X128459774Y-70003937D01*
X128603937Y-69859774D01*
X128717205Y-69690256D01*
X128781515Y-69535000D01*
X128901939Y-69535000D01*
X129101898Y-69495226D01*
X129290256Y-69417205D01*
X129459774Y-69303937D01*
X129603937Y-69159774D01*
X129717205Y-68990256D01*
X129795226Y-68801898D01*
X129835000Y-68601939D01*
X129835000Y-68398061D01*
X129795226Y-68198102D01*
X129765774Y-68127000D01*
X144920103Y-68127000D01*
X144911928Y-68210000D01*
X144911928Y-68701846D01*
X144803937Y-68540226D01*
X144659774Y-68396063D01*
X144490256Y-68282795D01*
X144301898Y-68204774D01*
X144101939Y-68165000D01*
X143898061Y-68165000D01*
X143698102Y-68204774D01*
X143509744Y-68282795D01*
X143340226Y-68396063D01*
X143196063Y-68540226D01*
X143082795Y-68709744D01*
X143004774Y-68898102D01*
X142965000Y-69098061D01*
X142965000Y-69301939D01*
X143004774Y-69501898D01*
X143034103Y-69572705D01*
X143009744Y-69582795D01*
X142840226Y-69696063D01*
X142696063Y-69840226D01*
X142582795Y-70009744D01*
X142504774Y-70198102D01*
X142465000Y-70398061D01*
X142465000Y-70601939D01*
X142504774Y-70801898D01*
X142582795Y-70990256D01*
X142696063Y-71159774D01*
X142840226Y-71303937D01*
X143009744Y-71417205D01*
X143198102Y-71495226D01*
X143398061Y-71535000D01*
X143601939Y-71535000D01*
X143801898Y-71495226D01*
X143990256Y-71417205D01*
X144159774Y-71303937D01*
X144303937Y-71159774D01*
X144417205Y-70990256D01*
X144495226Y-70801898D01*
X144535000Y-70601939D01*
X144535000Y-70398061D01*
X144495226Y-70198102D01*
X144465897Y-70127295D01*
X144490256Y-70117205D01*
X144659774Y-70003937D01*
X144803937Y-69859774D01*
X144911928Y-69698154D01*
X144911928Y-69910000D01*
X144924188Y-70034482D01*
X144960498Y-70154180D01*
X145019463Y-70264494D01*
X145098815Y-70361185D01*
X145195506Y-70440537D01*
X145305820Y-70499502D01*
X145378380Y-70521513D01*
X145246525Y-70653368D01*
X145084010Y-70896589D01*
X144972068Y-71166842D01*
X144915000Y-71453740D01*
X144915000Y-71746260D01*
X144972068Y-72033158D01*
X145084010Y-72303411D01*
X145246525Y-72546632D01*
X145453368Y-72753475D01*
X145627760Y-72870000D01*
X145453368Y-72986525D01*
X145246525Y-73193368D01*
X145084010Y-73436589D01*
X144972068Y-73706842D01*
X144967317Y-73730725D01*
X144917205Y-73609744D01*
X144803937Y-73440226D01*
X144659774Y-73296063D01*
X144490256Y-73182795D01*
X144301898Y-73104774D01*
X144101939Y-73065000D01*
X143898061Y-73065000D01*
X143698102Y-73104774D01*
X143509744Y-73182795D01*
X143340226Y-73296063D01*
X143196063Y-73440226D01*
X143082795Y-73609744D01*
X143004774Y-73798102D01*
X142965000Y-73998061D01*
X142965000Y-74201939D01*
X143004774Y-74401898D01*
X143082795Y-74590256D01*
X143196063Y-74759774D01*
X143340226Y-74903937D01*
X143509744Y-75017205D01*
X143588918Y-75050000D01*
X143509744Y-75082795D01*
X143340226Y-75196063D01*
X143196063Y-75340226D01*
X143082795Y-75509744D01*
X143004774Y-75698102D01*
X142965000Y-75898061D01*
X142965000Y-76101939D01*
X143004774Y-76301898D01*
X143082795Y-76490256D01*
X143089306Y-76500000D01*
X143082795Y-76509744D01*
X143004774Y-76698102D01*
X142965000Y-76898061D01*
X142965000Y-77101939D01*
X143002003Y-77287967D01*
X142840226Y-77396063D01*
X142696063Y-77540226D01*
X142582795Y-77709744D01*
X142504774Y-77898102D01*
X142465000Y-78098061D01*
X142465000Y-78301939D01*
X142504774Y-78501898D01*
X142582795Y-78690256D01*
X142696063Y-78859774D01*
X142840226Y-79003937D01*
X143009744Y-79117205D01*
X143198102Y-79195226D01*
X143398061Y-79235000D01*
X143601939Y-79235000D01*
X143801898Y-79195226D01*
X143990256Y-79117205D01*
X144159774Y-79003937D01*
X144303937Y-78859774D01*
X144417205Y-78690256D01*
X144495226Y-78501898D01*
X144535000Y-78301939D01*
X144535000Y-78098061D01*
X144497997Y-77912033D01*
X144659774Y-77803937D01*
X144803937Y-77659774D01*
X144917205Y-77490256D01*
X144995226Y-77301898D01*
X145013076Y-77212160D01*
X145084010Y-77383411D01*
X145246525Y-77626632D01*
X145453368Y-77833475D01*
X145627760Y-77950000D01*
X145453368Y-78066525D01*
X145246525Y-78273368D01*
X145084010Y-78516589D01*
X144972068Y-78786842D01*
X144915000Y-79073740D01*
X144915000Y-79366260D01*
X144972068Y-79653158D01*
X145084010Y-79923411D01*
X145246525Y-80166632D01*
X145453368Y-80373475D01*
X145627760Y-80490000D01*
X145453368Y-80606525D01*
X145246525Y-80813368D01*
X145084010Y-81056589D01*
X144972068Y-81326842D01*
X144915000Y-81613740D01*
X144915000Y-81906260D01*
X144972068Y-82193158D01*
X145084010Y-82463411D01*
X145246525Y-82706632D01*
X145453368Y-82913475D01*
X145627760Y-83030000D01*
X145453368Y-83146525D01*
X145246525Y-83353368D01*
X145084010Y-83596589D01*
X144972068Y-83866842D01*
X144915000Y-84153740D01*
X144915000Y-84446260D01*
X144972068Y-84733158D01*
X145084010Y-85003411D01*
X145246525Y-85246632D01*
X145453368Y-85453475D01*
X145627760Y-85570000D01*
X145453368Y-85686525D01*
X145246525Y-85893368D01*
X145084010Y-86136589D01*
X144972068Y-86406842D01*
X144915000Y-86693740D01*
X144915000Y-86986260D01*
X144972068Y-87273158D01*
X145084010Y-87543411D01*
X145246525Y-87786632D01*
X145453368Y-87993475D01*
X145627760Y-88110000D01*
X145453368Y-88226525D01*
X145246525Y-88433368D01*
X145084010Y-88676589D01*
X144972068Y-88946842D01*
X144915000Y-89233740D01*
X144915000Y-89526260D01*
X144972068Y-89813158D01*
X145084010Y-90083411D01*
X145227954Y-90298838D01*
X145198113Y-90304774D01*
X145009755Y-90382795D01*
X144840237Y-90496063D01*
X144696074Y-90640226D01*
X144582806Y-90809744D01*
X144504785Y-90998102D01*
X144465011Y-91198061D01*
X144465011Y-91401939D01*
X144504785Y-91601898D01*
X144582806Y-91790256D01*
X144696074Y-91959774D01*
X144840237Y-92103937D01*
X144935103Y-92167324D01*
X144972068Y-92353158D01*
X145084010Y-92623411D01*
X145246525Y-92866632D01*
X145453368Y-93073475D01*
X145627760Y-93190000D01*
X145453368Y-93306525D01*
X145246525Y-93513368D01*
X145084010Y-93756589D01*
X144972068Y-94026842D01*
X144915000Y-94313740D01*
X144915000Y-94606260D01*
X144972068Y-94893158D01*
X145084010Y-95163411D01*
X145246525Y-95406632D01*
X145453368Y-95613475D01*
X145627760Y-95730000D01*
X145453368Y-95846525D01*
X145246525Y-96053368D01*
X145084010Y-96296589D01*
X144972068Y-96566842D01*
X144915000Y-96853740D01*
X144915000Y-97146260D01*
X144972068Y-97433158D01*
X145084010Y-97703411D01*
X145246525Y-97946632D01*
X145453368Y-98153475D01*
X145627760Y-98270000D01*
X145453368Y-98386525D01*
X145246525Y-98593368D01*
X145084010Y-98836589D01*
X144972068Y-99106842D01*
X144915000Y-99393740D01*
X144915000Y-99686260D01*
X144972068Y-99973158D01*
X145084010Y-100243411D01*
X145246525Y-100486632D01*
X145453368Y-100693475D01*
X145627760Y-100810000D01*
X145453368Y-100926525D01*
X145246525Y-101133368D01*
X145084010Y-101376589D01*
X144972068Y-101646842D01*
X144915000Y-101933740D01*
X144915000Y-102226260D01*
X144972068Y-102513158D01*
X145084010Y-102783411D01*
X145246525Y-103026632D01*
X145453368Y-103233475D01*
X145627760Y-103350000D01*
X145453368Y-103466525D01*
X145246525Y-103673368D01*
X145084010Y-103916589D01*
X144972068Y-104186842D01*
X144915000Y-104473740D01*
X144915000Y-104766260D01*
X144972068Y-105053158D01*
X145084010Y-105323411D01*
X145246525Y-105566632D01*
X145453368Y-105773475D01*
X145627760Y-105890000D01*
X145453368Y-106006525D01*
X145246525Y-106213368D01*
X145084010Y-106456589D01*
X144972068Y-106726842D01*
X144915000Y-107013740D01*
X144915000Y-107306260D01*
X144972068Y-107593158D01*
X145084010Y-107863411D01*
X145246525Y-108106632D01*
X145453368Y-108313475D01*
X145627760Y-108430000D01*
X145453368Y-108546525D01*
X145246525Y-108753368D01*
X145084010Y-108996589D01*
X144972068Y-109266842D01*
X144915000Y-109553740D01*
X144915000Y-109846260D01*
X144972068Y-110133158D01*
X145084010Y-110403411D01*
X145246525Y-110646632D01*
X145453368Y-110853475D01*
X145627760Y-110970000D01*
X145453368Y-111086525D01*
X145246525Y-111293368D01*
X145084010Y-111536589D01*
X144972068Y-111806842D01*
X144915000Y-112093740D01*
X144915000Y-112386260D01*
X144972068Y-112673158D01*
X145084010Y-112943411D01*
X145246525Y-113186632D01*
X145453368Y-113393475D01*
X145696589Y-113555990D01*
X145966842Y-113667932D01*
X146253740Y-113725000D01*
X146546260Y-113725000D01*
X146833158Y-113667932D01*
X147103411Y-113555990D01*
X147346632Y-113393475D01*
X147540000Y-113200107D01*
X147540000Y-116010856D01*
X147358363Y-115739017D01*
X147060983Y-115441637D01*
X146711302Y-115207988D01*
X146322756Y-115047047D01*
X145910279Y-114965000D01*
X145489721Y-114965000D01*
X145077244Y-115047047D01*
X144688698Y-115207988D01*
X144339017Y-115441637D01*
X144041637Y-115739017D01*
X143807988Y-116088698D01*
X143647047Y-116477244D01*
X143565000Y-116889721D01*
X143565000Y-117310279D01*
X143647047Y-117722756D01*
X143807988Y-118111302D01*
X144041637Y-118460983D01*
X144339017Y-118758363D01*
X144610856Y-118940000D01*
X142882244Y-118940000D01*
X142894407Y-118899904D01*
X142913000Y-118711122D01*
X142913000Y-117684877D01*
X142894407Y-117496096D01*
X142820929Y-117253873D01*
X142701608Y-117030638D01*
X142541028Y-116834972D01*
X142345361Y-116674392D01*
X142122126Y-116555071D01*
X141879903Y-116481593D01*
X141628000Y-116456783D01*
X141376096Y-116481593D01*
X141133873Y-116555071D01*
X140910638Y-116674392D01*
X140714972Y-116834972D01*
X140554392Y-117030639D01*
X140435071Y-117253874D01*
X140361593Y-117496097D01*
X140343000Y-117684878D01*
X140343000Y-118711123D01*
X140361593Y-118899904D01*
X140373756Y-118940000D01*
X135643244Y-118940000D01*
X135655407Y-118899904D01*
X135674000Y-118711122D01*
X135674000Y-117684877D01*
X135655407Y-117496096D01*
X135581929Y-117253873D01*
X135462608Y-117030638D01*
X135302028Y-116834972D01*
X135106361Y-116674392D01*
X134883126Y-116555071D01*
X134640903Y-116481593D01*
X134389000Y-116456783D01*
X134137096Y-116481593D01*
X133894873Y-116555071D01*
X133671638Y-116674392D01*
X133475972Y-116834972D01*
X133315392Y-117030639D01*
X133196071Y-117253874D01*
X133122593Y-117496097D01*
X133104000Y-117684878D01*
X133104000Y-118711123D01*
X133122593Y-118899904D01*
X133134756Y-118940000D01*
X122789144Y-118940000D01*
X123060983Y-118758363D01*
X123358363Y-118460983D01*
X123592012Y-118111302D01*
X123752953Y-117722756D01*
X123835000Y-117310279D01*
X123835000Y-116889721D01*
X123752953Y-116477244D01*
X123592012Y-116088698D01*
X123358363Y-115739017D01*
X123060983Y-115441637D01*
X122711302Y-115207988D01*
X122322756Y-115047047D01*
X121910279Y-114965000D01*
X121489721Y-114965000D01*
X121077244Y-115047047D01*
X120688698Y-115207988D01*
X120339017Y-115441637D01*
X120041637Y-115739017D01*
X119860000Y-116010856D01*
X119860000Y-114698061D01*
X133065000Y-114698061D01*
X133065000Y-114901939D01*
X133104774Y-115101898D01*
X133182795Y-115290256D01*
X133296063Y-115459774D01*
X133440226Y-115603937D01*
X133609744Y-115717205D01*
X133798102Y-115795226D01*
X133998061Y-115835000D01*
X134201939Y-115835000D01*
X134384611Y-115798665D01*
X134396460Y-115858236D01*
X134489557Y-116082992D01*
X134624713Y-116285267D01*
X134796733Y-116457287D01*
X134999008Y-116592443D01*
X135223764Y-116685540D01*
X135462363Y-116733000D01*
X135705637Y-116733000D01*
X135944236Y-116685540D01*
X136168992Y-116592443D01*
X136371267Y-116457287D01*
X136543287Y-116285267D01*
X136678443Y-116082992D01*
X136771540Y-115858236D01*
X136819000Y-115619637D01*
X136819000Y-115376363D01*
X136771540Y-115137764D01*
X136678443Y-114913008D01*
X136543287Y-114710733D01*
X136371267Y-114538713D01*
X136168992Y-114403557D01*
X135944236Y-114310460D01*
X135705637Y-114263000D01*
X135462363Y-114263000D01*
X135223764Y-114310460D01*
X135047708Y-114383385D01*
X135017205Y-114309744D01*
X134903937Y-114140226D01*
X134759774Y-113996063D01*
X134590256Y-113882795D01*
X134401898Y-113804774D01*
X134201939Y-113765000D01*
X133998061Y-113765000D01*
X133798102Y-113804774D01*
X133609744Y-113882795D01*
X133440226Y-113996063D01*
X133296063Y-114140226D01*
X133182795Y-114309744D01*
X133104774Y-114498102D01*
X133065000Y-114698061D01*
X119860000Y-114698061D01*
X119860000Y-113200107D01*
X120053368Y-113393475D01*
X120296589Y-113555990D01*
X120566842Y-113667932D01*
X120853740Y-113725000D01*
X121146260Y-113725000D01*
X121433158Y-113667932D01*
X121703411Y-113555990D01*
X121946632Y-113393475D01*
X122153475Y-113186632D01*
X122279474Y-112998061D01*
X135165000Y-112998061D01*
X135165000Y-113201939D01*
X135204774Y-113401898D01*
X135282795Y-113590256D01*
X135396063Y-113759774D01*
X135540226Y-113903937D01*
X135709744Y-114017205D01*
X135898102Y-114095226D01*
X136098061Y-114135000D01*
X136301939Y-114135000D01*
X136501898Y-114095226D01*
X136690256Y-114017205D01*
X136859774Y-113903937D01*
X137003937Y-113759774D01*
X137117205Y-113590256D01*
X137195226Y-113401898D01*
X137235000Y-113201939D01*
X137235000Y-112998061D01*
X137765000Y-112998061D01*
X137765000Y-113201939D01*
X137804774Y-113401898D01*
X137882795Y-113590256D01*
X137996063Y-113759774D01*
X138140226Y-113903937D01*
X138309744Y-114017205D01*
X138498102Y-114095226D01*
X138698061Y-114135000D01*
X138901939Y-114135000D01*
X139101898Y-114095226D01*
X139103329Y-114094633D01*
X139104774Y-114101898D01*
X139182795Y-114290256D01*
X139296063Y-114459774D01*
X139440226Y-114603937D01*
X139524919Y-114660527D01*
X139474713Y-114710733D01*
X139339557Y-114913008D01*
X139246460Y-115137764D01*
X139199000Y-115376363D01*
X139199000Y-115619637D01*
X139246460Y-115858236D01*
X139339557Y-116082992D01*
X139474713Y-116285267D01*
X139646733Y-116457287D01*
X139849008Y-116592443D01*
X140073764Y-116685540D01*
X140312363Y-116733000D01*
X140555637Y-116733000D01*
X140794236Y-116685540D01*
X141018992Y-116592443D01*
X141221267Y-116457287D01*
X141393287Y-116285267D01*
X141528443Y-116082992D01*
X141621540Y-115858236D01*
X141669000Y-115619637D01*
X141669000Y-115376363D01*
X141621540Y-115137764D01*
X141528443Y-114913008D01*
X141393287Y-114710733D01*
X141221267Y-114538713D01*
X141018992Y-114403557D01*
X140958298Y-114378417D01*
X141017205Y-114290256D01*
X141095226Y-114101898D01*
X141135000Y-113901939D01*
X141135000Y-113698061D01*
X141095226Y-113498102D01*
X141017205Y-113309744D01*
X140903937Y-113140226D01*
X140759774Y-112996063D01*
X140590256Y-112882795D01*
X140401898Y-112804774D01*
X140365967Y-112797627D01*
X140385000Y-112701939D01*
X140385000Y-112498061D01*
X140345226Y-112298102D01*
X140267205Y-112109744D01*
X140153937Y-111940226D01*
X140009774Y-111796063D01*
X139840256Y-111682795D01*
X139651898Y-111604774D01*
X139451939Y-111565000D01*
X139248061Y-111565000D01*
X139048102Y-111604774D01*
X138859744Y-111682795D01*
X138690226Y-111796063D01*
X138546063Y-111940226D01*
X138432795Y-112109744D01*
X138421754Y-112136398D01*
X138309744Y-112182795D01*
X138140226Y-112296063D01*
X137996063Y-112440226D01*
X137882795Y-112609744D01*
X137804774Y-112798102D01*
X137765000Y-112998061D01*
X137235000Y-112998061D01*
X137195226Y-112798102D01*
X137117205Y-112609744D01*
X137003937Y-112440226D01*
X136859774Y-112296063D01*
X136690256Y-112182795D01*
X136501898Y-112104774D01*
X136301939Y-112065000D01*
X136098061Y-112065000D01*
X135898102Y-112104774D01*
X135709744Y-112182795D01*
X135540226Y-112296063D01*
X135396063Y-112440226D01*
X135282795Y-112609744D01*
X135204774Y-112798102D01*
X135165000Y-112998061D01*
X122279474Y-112998061D01*
X122315990Y-112943411D01*
X122427932Y-112673158D01*
X122485000Y-112386260D01*
X122485000Y-112093740D01*
X122427932Y-111806842D01*
X122341453Y-111598061D01*
X126165000Y-111598061D01*
X126165000Y-111801939D01*
X126204774Y-112001898D01*
X126282795Y-112190256D01*
X126396063Y-112359774D01*
X126540226Y-112503937D01*
X126709744Y-112617205D01*
X126898102Y-112695226D01*
X127098061Y-112735000D01*
X127301939Y-112735000D01*
X127501898Y-112695226D01*
X127600000Y-112654591D01*
X127698102Y-112695226D01*
X127898061Y-112735000D01*
X128101939Y-112735000D01*
X128301898Y-112695226D01*
X128490256Y-112617205D01*
X128659774Y-112503937D01*
X128803937Y-112359774D01*
X128917205Y-112190256D01*
X128995226Y-112001898D01*
X129035000Y-111801939D01*
X129035000Y-111598061D01*
X128995226Y-111398102D01*
X128917205Y-111209744D01*
X128842582Y-111098061D01*
X136165000Y-111098061D01*
X136165000Y-111301939D01*
X136204774Y-111501898D01*
X136282795Y-111690256D01*
X136396063Y-111859774D01*
X136540226Y-112003937D01*
X136709744Y-112117205D01*
X136898102Y-112195226D01*
X137098061Y-112235000D01*
X137301939Y-112235000D01*
X137501898Y-112195226D01*
X137690256Y-112117205D01*
X137859774Y-112003937D01*
X138003937Y-111859774D01*
X138117205Y-111690256D01*
X138195226Y-111501898D01*
X138215880Y-111398061D01*
X142465000Y-111398061D01*
X142465000Y-111601939D01*
X142504774Y-111801898D01*
X142582795Y-111990256D01*
X142696063Y-112159774D01*
X142840226Y-112303937D01*
X143009744Y-112417205D01*
X143198102Y-112495226D01*
X143398061Y-112535000D01*
X143601939Y-112535000D01*
X143801898Y-112495226D01*
X143990256Y-112417205D01*
X144159774Y-112303937D01*
X144303937Y-112159774D01*
X144417205Y-111990256D01*
X144495226Y-111801898D01*
X144535000Y-111601939D01*
X144535000Y-111398061D01*
X144495226Y-111198102D01*
X144417205Y-111009744D01*
X144303937Y-110840226D01*
X144159774Y-110696063D01*
X143990256Y-110582795D01*
X143801898Y-110504774D01*
X143601939Y-110465000D01*
X143398061Y-110465000D01*
X143198102Y-110504774D01*
X143009744Y-110582795D01*
X142840226Y-110696063D01*
X142696063Y-110840226D01*
X142582795Y-111009744D01*
X142504774Y-111198102D01*
X142465000Y-111398061D01*
X138215880Y-111398061D01*
X138235000Y-111301939D01*
X138235000Y-111098061D01*
X138195226Y-110898102D01*
X138117205Y-110709744D01*
X138003937Y-110540226D01*
X137859774Y-110396063D01*
X137690256Y-110282795D01*
X137501898Y-110204774D01*
X137301939Y-110165000D01*
X137098061Y-110165000D01*
X136898102Y-110204774D01*
X136709744Y-110282795D01*
X136540226Y-110396063D01*
X136396063Y-110540226D01*
X136282795Y-110709744D01*
X136204774Y-110898102D01*
X136165000Y-111098061D01*
X128842582Y-111098061D01*
X128803937Y-111040226D01*
X128659774Y-110896063D01*
X128490256Y-110782795D01*
X128301898Y-110704774D01*
X128101939Y-110665000D01*
X127898061Y-110665000D01*
X127698102Y-110704774D01*
X127600000Y-110745409D01*
X127501898Y-110704774D01*
X127301939Y-110665000D01*
X127098061Y-110665000D01*
X126898102Y-110704774D01*
X126709744Y-110782795D01*
X126540226Y-110896063D01*
X126396063Y-111040226D01*
X126282795Y-111209744D01*
X126204774Y-111398102D01*
X126165000Y-111598061D01*
X122341453Y-111598061D01*
X122315990Y-111536589D01*
X122153475Y-111293368D01*
X121946632Y-111086525D01*
X121764466Y-110964805D01*
X121881355Y-110895178D01*
X122097588Y-110700269D01*
X122271641Y-110466920D01*
X122396825Y-110204099D01*
X122441476Y-110056890D01*
X122320155Y-109827000D01*
X121127000Y-109827000D01*
X121127000Y-109847000D01*
X120873000Y-109847000D01*
X120873000Y-109827000D01*
X120853000Y-109827000D01*
X120853000Y-109573000D01*
X120873000Y-109573000D01*
X120873000Y-109553000D01*
X121127000Y-109553000D01*
X121127000Y-109573000D01*
X122320155Y-109573000D01*
X122441476Y-109343110D01*
X122396825Y-109195901D01*
X122271641Y-108933080D01*
X122097588Y-108699731D01*
X122095736Y-108698061D01*
X123865000Y-108698061D01*
X123865000Y-108901939D01*
X123904774Y-109101898D01*
X123982795Y-109290256D01*
X124096063Y-109459774D01*
X124240226Y-109603937D01*
X124409744Y-109717205D01*
X124598102Y-109795226D01*
X124798061Y-109835000D01*
X125001939Y-109835000D01*
X125201898Y-109795226D01*
X125390256Y-109717205D01*
X125559774Y-109603937D01*
X125703937Y-109459774D01*
X125817205Y-109290256D01*
X125895226Y-109101898D01*
X125935000Y-108901939D01*
X125935000Y-108698061D01*
X125895226Y-108498102D01*
X125817205Y-108309744D01*
X125742582Y-108198061D01*
X133965000Y-108198061D01*
X133965000Y-108401939D01*
X134004774Y-108601898D01*
X134082795Y-108790256D01*
X134196063Y-108959774D01*
X134340226Y-109103937D01*
X134509744Y-109217205D01*
X134698102Y-109295226D01*
X134898061Y-109335000D01*
X135101939Y-109335000D01*
X135301898Y-109295226D01*
X135490256Y-109217205D01*
X135659774Y-109103937D01*
X135803937Y-108959774D01*
X135917205Y-108790256D01*
X135995226Y-108601898D01*
X136035000Y-108401939D01*
X136035000Y-108198061D01*
X135995226Y-107998102D01*
X135917205Y-107809744D01*
X135803937Y-107640226D01*
X135659774Y-107496063D01*
X135490256Y-107382795D01*
X135301898Y-107304774D01*
X135101939Y-107265000D01*
X134898061Y-107265000D01*
X134698102Y-107304774D01*
X134509744Y-107382795D01*
X134340226Y-107496063D01*
X134196063Y-107640226D01*
X134082795Y-107809744D01*
X134004774Y-107998102D01*
X133965000Y-108198061D01*
X125742582Y-108198061D01*
X125703937Y-108140226D01*
X125559774Y-107996063D01*
X125390256Y-107882795D01*
X125201898Y-107804774D01*
X125001939Y-107765000D01*
X124798061Y-107765000D01*
X124598102Y-107804774D01*
X124409744Y-107882795D01*
X124240226Y-107996063D01*
X124096063Y-108140226D01*
X123982795Y-108309744D01*
X123904774Y-108498102D01*
X123865000Y-108698061D01*
X122095736Y-108698061D01*
X121881355Y-108504822D01*
X121764466Y-108435195D01*
X121946632Y-108313475D01*
X122153475Y-108106632D01*
X122315990Y-107863411D01*
X122427932Y-107593158D01*
X122485000Y-107306260D01*
X122485000Y-107013740D01*
X122427932Y-106726842D01*
X122315990Y-106456589D01*
X122153475Y-106213368D01*
X122038169Y-106098062D01*
X133849312Y-106098062D01*
X133849312Y-106301940D01*
X133889086Y-106501899D01*
X133967107Y-106690257D01*
X134080375Y-106859775D01*
X134224538Y-107003938D01*
X134394056Y-107117206D01*
X134582414Y-107195227D01*
X134782373Y-107235001D01*
X134986251Y-107235001D01*
X135186210Y-107195227D01*
X135374568Y-107117206D01*
X135544086Y-107003938D01*
X135688249Y-106859775D01*
X135743544Y-106777020D01*
X135828814Y-106760059D01*
X136017172Y-106682038D01*
X136186690Y-106568770D01*
X136330853Y-106424607D01*
X136444121Y-106255089D01*
X136522142Y-106066731D01*
X136561916Y-105866772D01*
X136561916Y-105662894D01*
X136522142Y-105462935D01*
X136444121Y-105274577D01*
X136330853Y-105105059D01*
X136186690Y-104960896D01*
X136017172Y-104847628D01*
X135828814Y-104769607D01*
X135628855Y-104729833D01*
X135424977Y-104729833D01*
X135225018Y-104769607D01*
X135036660Y-104847628D01*
X134867142Y-104960896D01*
X134722979Y-105105059D01*
X134667684Y-105187814D01*
X134582414Y-105204775D01*
X134394056Y-105282796D01*
X134224538Y-105396064D01*
X134080375Y-105540227D01*
X133967107Y-105709745D01*
X133889086Y-105898103D01*
X133849312Y-106098062D01*
X122038169Y-106098062D01*
X121946632Y-106006525D01*
X121772240Y-105890000D01*
X121946632Y-105773475D01*
X122153475Y-105566632D01*
X122315990Y-105323411D01*
X122427932Y-105053158D01*
X122458782Y-104898061D01*
X131165000Y-104898061D01*
X131165000Y-105101939D01*
X131204774Y-105301898D01*
X131282795Y-105490256D01*
X131396063Y-105659774D01*
X131540226Y-105803937D01*
X131709744Y-105917205D01*
X131898102Y-105995226D01*
X132098061Y-106035000D01*
X132301939Y-106035000D01*
X132501898Y-105995226D01*
X132690256Y-105917205D01*
X132859774Y-105803937D01*
X133003937Y-105659774D01*
X133117205Y-105490256D01*
X133195226Y-105301898D01*
X133235000Y-105101939D01*
X133235000Y-104898061D01*
X133195226Y-104698102D01*
X133117205Y-104509744D01*
X133003937Y-104340226D01*
X132859774Y-104196063D01*
X132690256Y-104082795D01*
X132501898Y-104004774D01*
X132301939Y-103965000D01*
X132098061Y-103965000D01*
X131898102Y-104004774D01*
X131709744Y-104082795D01*
X131540226Y-104196063D01*
X131396063Y-104340226D01*
X131282795Y-104509744D01*
X131204774Y-104698102D01*
X131165000Y-104898061D01*
X122458782Y-104898061D01*
X122485000Y-104766260D01*
X122485000Y-104473740D01*
X122427932Y-104186842D01*
X122315990Y-103916589D01*
X122153475Y-103673368D01*
X121946632Y-103466525D01*
X121772240Y-103350000D01*
X121946632Y-103233475D01*
X121982046Y-103198061D01*
X126565000Y-103198061D01*
X126565000Y-103401939D01*
X126604774Y-103601898D01*
X126682795Y-103790256D01*
X126796063Y-103959774D01*
X126940226Y-104103937D01*
X127109744Y-104217205D01*
X127298102Y-104295226D01*
X127498061Y-104335000D01*
X127701939Y-104335000D01*
X127901898Y-104295226D01*
X128090256Y-104217205D01*
X128259774Y-104103937D01*
X128403937Y-103959774D01*
X128517205Y-103790256D01*
X128595226Y-103601898D01*
X128635000Y-103401939D01*
X128635000Y-103198061D01*
X128615109Y-103098061D01*
X129065000Y-103098061D01*
X129065000Y-103301939D01*
X129104774Y-103501898D01*
X129182795Y-103690256D01*
X129296063Y-103859774D01*
X129440226Y-104003937D01*
X129609744Y-104117205D01*
X129798102Y-104195226D01*
X129998061Y-104235000D01*
X130201939Y-104235000D01*
X130401898Y-104195226D01*
X130590256Y-104117205D01*
X130759774Y-104003937D01*
X130903937Y-103859774D01*
X131011989Y-103698061D01*
X141115000Y-103698061D01*
X141115000Y-103901939D01*
X141154774Y-104101898D01*
X141232795Y-104290256D01*
X141346063Y-104459774D01*
X141490226Y-104603937D01*
X141659744Y-104717205D01*
X141848102Y-104795226D01*
X141903167Y-104806179D01*
X141865000Y-104998061D01*
X141865000Y-105201939D01*
X141904774Y-105401898D01*
X141982795Y-105590256D01*
X142096063Y-105759774D01*
X142240226Y-105903937D01*
X142409744Y-106017205D01*
X142598102Y-106095226D01*
X142798061Y-106135000D01*
X143001939Y-106135000D01*
X143201898Y-106095226D01*
X143390256Y-106017205D01*
X143559774Y-105903937D01*
X143703937Y-105759774D01*
X143817205Y-105590256D01*
X143895226Y-105401898D01*
X143935000Y-105201939D01*
X143935000Y-104998061D01*
X143895226Y-104798102D01*
X143817205Y-104609744D01*
X143703937Y-104440226D01*
X143559774Y-104296063D01*
X143390256Y-104182795D01*
X143201898Y-104104774D01*
X143146833Y-104093821D01*
X143185000Y-103901939D01*
X143185000Y-103698061D01*
X143145226Y-103498102D01*
X143067205Y-103309744D01*
X142953937Y-103140226D01*
X142809774Y-102996063D01*
X142640256Y-102882795D01*
X142451898Y-102804774D01*
X142251939Y-102765000D01*
X142048061Y-102765000D01*
X141848102Y-102804774D01*
X141659744Y-102882795D01*
X141490226Y-102996063D01*
X141346063Y-103140226D01*
X141232795Y-103309744D01*
X141154774Y-103498102D01*
X141115000Y-103698061D01*
X131011989Y-103698061D01*
X131017205Y-103690256D01*
X131095226Y-103501898D01*
X131135000Y-103301939D01*
X131135000Y-103098061D01*
X131095226Y-102898102D01*
X131017205Y-102709744D01*
X130903937Y-102540226D01*
X130759774Y-102396063D01*
X130590256Y-102282795D01*
X130401898Y-102204774D01*
X130201939Y-102165000D01*
X129998061Y-102165000D01*
X129798102Y-102204774D01*
X129609744Y-102282795D01*
X129440226Y-102396063D01*
X129296063Y-102540226D01*
X129182795Y-102709744D01*
X129104774Y-102898102D01*
X129065000Y-103098061D01*
X128615109Y-103098061D01*
X128595226Y-102998102D01*
X128517205Y-102809744D01*
X128403937Y-102640226D01*
X128259774Y-102496063D01*
X128090256Y-102382795D01*
X127901898Y-102304774D01*
X127701939Y-102265000D01*
X127498061Y-102265000D01*
X127298102Y-102304774D01*
X127109744Y-102382795D01*
X126940226Y-102496063D01*
X126796063Y-102640226D01*
X126682795Y-102809744D01*
X126604774Y-102998102D01*
X126565000Y-103198061D01*
X121982046Y-103198061D01*
X122153475Y-103026632D01*
X122315990Y-102783411D01*
X122427932Y-102513158D01*
X122485000Y-102226260D01*
X122485000Y-101933740D01*
X122427932Y-101646842D01*
X122315990Y-101376589D01*
X122263520Y-101298061D01*
X123465000Y-101298061D01*
X123465000Y-101501939D01*
X123504774Y-101701898D01*
X123582795Y-101890256D01*
X123696063Y-102059774D01*
X123840226Y-102203937D01*
X124009744Y-102317205D01*
X124198102Y-102395226D01*
X124398061Y-102435000D01*
X124601939Y-102435000D01*
X124801898Y-102395226D01*
X124990256Y-102317205D01*
X125159774Y-102203937D01*
X125303937Y-102059774D01*
X125417205Y-101890256D01*
X125495226Y-101701898D01*
X125535000Y-101501939D01*
X125535000Y-101298061D01*
X125495226Y-101098102D01*
X125417205Y-100909744D01*
X125303937Y-100740226D01*
X125159774Y-100596063D01*
X124990256Y-100482795D01*
X124801898Y-100404774D01*
X124601939Y-100365000D01*
X124398061Y-100365000D01*
X124198102Y-100404774D01*
X124009744Y-100482795D01*
X123840226Y-100596063D01*
X123696063Y-100740226D01*
X123582795Y-100909744D01*
X123504774Y-101098102D01*
X123465000Y-101298061D01*
X122263520Y-101298061D01*
X122153475Y-101133368D01*
X121946632Y-100926525D01*
X121772240Y-100810000D01*
X121946632Y-100693475D01*
X122153475Y-100486632D01*
X122315990Y-100243411D01*
X122427932Y-99973158D01*
X122485000Y-99686260D01*
X122485000Y-99393740D01*
X122427932Y-99106842D01*
X122315990Y-98836589D01*
X122153475Y-98593368D01*
X121958168Y-98398061D01*
X125965000Y-98398061D01*
X125965000Y-98601939D01*
X126004774Y-98801898D01*
X126082795Y-98990256D01*
X126196063Y-99159774D01*
X126340226Y-99303937D01*
X126509744Y-99417205D01*
X126698102Y-99495226D01*
X126898061Y-99535000D01*
X127065000Y-99535000D01*
X127065000Y-99601939D01*
X127104774Y-99801898D01*
X127182795Y-99990256D01*
X127296063Y-100159774D01*
X127440226Y-100303937D01*
X127609744Y-100417205D01*
X127798102Y-100495226D01*
X127998061Y-100535000D01*
X128201939Y-100535000D01*
X128401898Y-100495226D01*
X128590256Y-100417205D01*
X128759774Y-100303937D01*
X128903937Y-100159774D01*
X129011989Y-99998061D01*
X129265000Y-99998061D01*
X129265000Y-100201939D01*
X129304774Y-100401898D01*
X129382795Y-100590256D01*
X129496063Y-100759774D01*
X129640226Y-100903937D01*
X129809744Y-101017205D01*
X129998102Y-101095226D01*
X130198061Y-101135000D01*
X130401939Y-101135000D01*
X130601898Y-101095226D01*
X130790256Y-101017205D01*
X130959774Y-100903937D01*
X131103937Y-100759774D01*
X131165000Y-100668387D01*
X131165000Y-100701939D01*
X131204774Y-100901898D01*
X131282795Y-101090256D01*
X131396063Y-101259774D01*
X131540226Y-101403937D01*
X131709744Y-101517205D01*
X131898102Y-101595226D01*
X132098061Y-101635000D01*
X132301939Y-101635000D01*
X132501898Y-101595226D01*
X132690256Y-101517205D01*
X132859774Y-101403937D01*
X133003937Y-101259774D01*
X133117205Y-101090256D01*
X133195226Y-100901898D01*
X133235000Y-100701939D01*
X133235000Y-100498061D01*
X133195226Y-100298102D01*
X133153788Y-100198061D01*
X133965000Y-100198061D01*
X133965000Y-100401939D01*
X134004774Y-100601898D01*
X134082795Y-100790256D01*
X134196063Y-100959774D01*
X134340226Y-101103937D01*
X134509744Y-101217205D01*
X134698102Y-101295226D01*
X134898061Y-101335000D01*
X135101939Y-101335000D01*
X135301898Y-101295226D01*
X135490256Y-101217205D01*
X135659774Y-101103937D01*
X135803937Y-100959774D01*
X135917205Y-100790256D01*
X135995226Y-100601898D01*
X136035000Y-100401939D01*
X136035000Y-100198061D01*
X135995226Y-99998102D01*
X135927666Y-99835000D01*
X136001939Y-99835000D01*
X136201898Y-99795226D01*
X136390256Y-99717205D01*
X136559774Y-99603937D01*
X136703937Y-99459774D01*
X136817205Y-99290256D01*
X136888660Y-99117750D01*
X137001898Y-99095226D01*
X137190256Y-99017205D01*
X137359774Y-98903937D01*
X137503937Y-98759774D01*
X137617205Y-98590256D01*
X137655393Y-98498061D01*
X138315000Y-98498061D01*
X138315000Y-98701939D01*
X138354774Y-98901898D01*
X138432795Y-99090256D01*
X138546063Y-99259774D01*
X138690226Y-99403937D01*
X138859744Y-99517205D01*
X139048102Y-99595226D01*
X139248061Y-99635000D01*
X139451939Y-99635000D01*
X139651898Y-99595226D01*
X139840256Y-99517205D01*
X140009774Y-99403937D01*
X140153937Y-99259774D01*
X140267205Y-99090256D01*
X140345226Y-98901898D01*
X140385000Y-98701939D01*
X140385000Y-98498061D01*
X140345226Y-98298102D01*
X140267205Y-98109744D01*
X140153937Y-97940226D01*
X140009774Y-97796063D01*
X139840256Y-97682795D01*
X139651898Y-97604774D01*
X139451939Y-97565000D01*
X139248061Y-97565000D01*
X139048102Y-97604774D01*
X138859744Y-97682795D01*
X138690226Y-97796063D01*
X138546063Y-97940226D01*
X138432795Y-98109744D01*
X138354774Y-98298102D01*
X138315000Y-98498061D01*
X137655393Y-98498061D01*
X137695226Y-98401898D01*
X137708804Y-98333634D01*
X137901898Y-98295226D01*
X138090256Y-98217205D01*
X138259774Y-98103937D01*
X138403937Y-97959774D01*
X138517205Y-97790256D01*
X138595226Y-97601898D01*
X138608804Y-97533634D01*
X138801898Y-97495226D01*
X138990256Y-97417205D01*
X139159774Y-97303937D01*
X139303937Y-97159774D01*
X139417205Y-96990256D01*
X139495226Y-96801898D01*
X139535000Y-96601939D01*
X139535000Y-96398061D01*
X139495226Y-96198102D01*
X139417205Y-96009744D01*
X139303937Y-95840226D01*
X139159774Y-95696063D01*
X138990256Y-95582795D01*
X138801898Y-95504774D01*
X138601939Y-95465000D01*
X138398061Y-95465000D01*
X138198102Y-95504774D01*
X138009744Y-95582795D01*
X137840226Y-95696063D01*
X137696063Y-95840226D01*
X137582795Y-96009744D01*
X137504774Y-96198102D01*
X137491196Y-96266366D01*
X137298102Y-96304774D01*
X137109744Y-96382795D01*
X136940226Y-96496063D01*
X136796063Y-96640226D01*
X136682795Y-96809744D01*
X136604774Y-96998102D01*
X136591196Y-97066366D01*
X136398102Y-97104774D01*
X136209744Y-97182795D01*
X136040226Y-97296063D01*
X135896063Y-97440226D01*
X135782795Y-97609744D01*
X135711340Y-97782250D01*
X135598102Y-97804774D01*
X135409744Y-97882795D01*
X135240226Y-97996063D01*
X135096063Y-98140226D01*
X134982795Y-98309744D01*
X134904774Y-98498102D01*
X134865000Y-98698061D01*
X134865000Y-98901939D01*
X134904774Y-99101898D01*
X134972334Y-99265000D01*
X134898061Y-99265000D01*
X134698102Y-99304774D01*
X134509744Y-99382795D01*
X134340226Y-99496063D01*
X134196063Y-99640226D01*
X134082795Y-99809744D01*
X134004774Y-99998102D01*
X133965000Y-100198061D01*
X133153788Y-100198061D01*
X133117205Y-100109744D01*
X133003937Y-99940226D01*
X132859774Y-99796063D01*
X132690256Y-99682795D01*
X132501898Y-99604774D01*
X132301939Y-99565000D01*
X132098061Y-99565000D01*
X131898102Y-99604774D01*
X131709744Y-99682795D01*
X131540226Y-99796063D01*
X131396063Y-99940226D01*
X131335000Y-100031613D01*
X131335000Y-99998061D01*
X131295226Y-99798102D01*
X131217205Y-99609744D01*
X131103937Y-99440226D01*
X130959774Y-99296063D01*
X130790256Y-99182795D01*
X130601898Y-99104774D01*
X130401939Y-99065000D01*
X130198061Y-99065000D01*
X129998102Y-99104774D01*
X129809744Y-99182795D01*
X129640226Y-99296063D01*
X129496063Y-99440226D01*
X129382795Y-99609744D01*
X129304774Y-99798102D01*
X129265000Y-99998061D01*
X129011989Y-99998061D01*
X129017205Y-99990256D01*
X129095226Y-99801898D01*
X129135000Y-99601939D01*
X129135000Y-99398061D01*
X129095226Y-99198102D01*
X129017205Y-99009744D01*
X128903937Y-98840226D01*
X128759774Y-98696063D01*
X128590256Y-98582795D01*
X128401898Y-98504774D01*
X128201939Y-98465000D01*
X128035000Y-98465000D01*
X128035000Y-98398061D01*
X132165000Y-98398061D01*
X132165000Y-98601939D01*
X132204774Y-98801898D01*
X132282795Y-98990256D01*
X132396063Y-99159774D01*
X132540226Y-99303937D01*
X132709744Y-99417205D01*
X132898102Y-99495226D01*
X133098061Y-99535000D01*
X133301939Y-99535000D01*
X133501898Y-99495226D01*
X133690256Y-99417205D01*
X133859774Y-99303937D01*
X134003937Y-99159774D01*
X134117205Y-98990256D01*
X134195226Y-98801898D01*
X134235000Y-98601939D01*
X134235000Y-98398061D01*
X134195226Y-98198102D01*
X134117205Y-98009744D01*
X134003937Y-97840226D01*
X133859774Y-97696063D01*
X133690256Y-97582795D01*
X133501898Y-97504774D01*
X133301939Y-97465000D01*
X133098061Y-97465000D01*
X132898102Y-97504774D01*
X132709744Y-97582795D01*
X132540226Y-97696063D01*
X132396063Y-97840226D01*
X132282795Y-98009744D01*
X132204774Y-98198102D01*
X132165000Y-98398061D01*
X128035000Y-98398061D01*
X127995226Y-98198102D01*
X127917205Y-98009744D01*
X127803937Y-97840226D01*
X127659774Y-97696063D01*
X127490256Y-97582795D01*
X127301898Y-97504774D01*
X127101939Y-97465000D01*
X126898061Y-97465000D01*
X126698102Y-97504774D01*
X126509744Y-97582795D01*
X126340226Y-97696063D01*
X126196063Y-97840226D01*
X126082795Y-98009744D01*
X126004774Y-98198102D01*
X125965000Y-98398061D01*
X121958168Y-98398061D01*
X121946632Y-98386525D01*
X121772240Y-98270000D01*
X121946632Y-98153475D01*
X122153475Y-97946632D01*
X122315990Y-97703411D01*
X122427932Y-97433158D01*
X122485000Y-97146260D01*
X122485000Y-96853740D01*
X122427932Y-96566842D01*
X122315990Y-96296589D01*
X122153475Y-96053368D01*
X121946632Y-95846525D01*
X121772240Y-95730000D01*
X121946632Y-95613475D01*
X122153475Y-95406632D01*
X122226019Y-95298061D01*
X124865000Y-95298061D01*
X124865000Y-95501939D01*
X124904774Y-95701898D01*
X124982795Y-95890256D01*
X125096063Y-96059774D01*
X125240226Y-96203937D01*
X125409744Y-96317205D01*
X125598102Y-96395226D01*
X125798061Y-96435000D01*
X126001939Y-96435000D01*
X126201898Y-96395226D01*
X126390256Y-96317205D01*
X126559774Y-96203937D01*
X126703937Y-96059774D01*
X126817205Y-95890256D01*
X126895226Y-95701898D01*
X126935000Y-95501939D01*
X126935000Y-95298061D01*
X126895226Y-95098102D01*
X126817205Y-94909744D01*
X126809399Y-94898061D01*
X128165000Y-94898061D01*
X128165000Y-95101939D01*
X128204774Y-95301898D01*
X128282795Y-95490256D01*
X128396063Y-95659774D01*
X128540226Y-95803937D01*
X128709744Y-95917205D01*
X128898102Y-95995226D01*
X129098061Y-96035000D01*
X129301939Y-96035000D01*
X129501898Y-95995226D01*
X129690256Y-95917205D01*
X129859774Y-95803937D01*
X130003937Y-95659774D01*
X130117205Y-95490256D01*
X130195226Y-95301898D01*
X130235000Y-95101939D01*
X130235000Y-94898061D01*
X130195226Y-94698102D01*
X130117205Y-94509744D01*
X130003937Y-94340226D01*
X129961772Y-94298061D01*
X131165000Y-94298061D01*
X131165000Y-94501939D01*
X131204774Y-94701898D01*
X131282795Y-94890256D01*
X131396063Y-95059774D01*
X131540226Y-95203937D01*
X131709744Y-95317205D01*
X131898102Y-95395226D01*
X132065830Y-95428589D01*
X132132795Y-95590256D01*
X132246063Y-95759774D01*
X132390226Y-95903937D01*
X132559744Y-96017205D01*
X132748102Y-96095226D01*
X132948061Y-96135000D01*
X133151939Y-96135000D01*
X133351898Y-96095226D01*
X133540256Y-96017205D01*
X133709774Y-95903937D01*
X133853937Y-95759774D01*
X133967205Y-95590256D01*
X134045226Y-95401898D01*
X134065880Y-95298061D01*
X140365000Y-95298061D01*
X140365000Y-95501939D01*
X140404774Y-95701898D01*
X140482795Y-95890256D01*
X140596063Y-96059774D01*
X140740226Y-96203937D01*
X140909744Y-96317205D01*
X141098102Y-96395226D01*
X141298061Y-96435000D01*
X141501939Y-96435000D01*
X141701898Y-96395226D01*
X141890256Y-96317205D01*
X142059774Y-96203937D01*
X142203937Y-96059774D01*
X142317205Y-95890256D01*
X142395226Y-95701898D01*
X142432786Y-95513069D01*
X142598102Y-95581546D01*
X142798061Y-95621320D01*
X143001939Y-95621320D01*
X143201898Y-95581546D01*
X143390256Y-95503525D01*
X143559774Y-95390257D01*
X143703937Y-95246094D01*
X143817205Y-95076576D01*
X143895226Y-94888218D01*
X143935000Y-94688259D01*
X143935000Y-94484381D01*
X143895226Y-94284422D01*
X143817205Y-94096064D01*
X143703937Y-93926546D01*
X143559774Y-93782383D01*
X143390256Y-93669115D01*
X143201898Y-93591094D01*
X143162150Y-93583188D01*
X143145226Y-93498102D01*
X143067205Y-93309744D01*
X142953937Y-93140226D01*
X142809774Y-92996063D01*
X142640256Y-92882795D01*
X142451898Y-92804774D01*
X142251939Y-92765000D01*
X142048061Y-92765000D01*
X141848102Y-92804774D01*
X141659744Y-92882795D01*
X141490226Y-92996063D01*
X141346063Y-93140226D01*
X141232795Y-93309744D01*
X141154774Y-93498102D01*
X141115000Y-93698061D01*
X141115000Y-93901939D01*
X141154774Y-94101898D01*
X141232795Y-94290256D01*
X141284535Y-94367690D01*
X141098102Y-94404774D01*
X140909744Y-94482795D01*
X140740226Y-94596063D01*
X140596063Y-94740226D01*
X140482795Y-94909744D01*
X140404774Y-95098102D01*
X140365000Y-95298061D01*
X134065880Y-95298061D01*
X134085000Y-95201939D01*
X134085000Y-94998061D01*
X134045226Y-94798102D01*
X133967205Y-94609744D01*
X133853937Y-94440226D01*
X133709774Y-94296063D01*
X133540256Y-94182795D01*
X133351898Y-94104774D01*
X133184170Y-94071411D01*
X133117205Y-93909744D01*
X133003937Y-93740226D01*
X132859774Y-93596063D01*
X132690256Y-93482795D01*
X132501898Y-93404774D01*
X132301939Y-93365000D01*
X132098061Y-93365000D01*
X131898102Y-93404774D01*
X131709744Y-93482795D01*
X131540226Y-93596063D01*
X131396063Y-93740226D01*
X131282795Y-93909744D01*
X131204774Y-94098102D01*
X131165000Y-94298061D01*
X129961772Y-94298061D01*
X129859774Y-94196063D01*
X129690256Y-94082795D01*
X129501898Y-94004774D01*
X129301939Y-93965000D01*
X129098061Y-93965000D01*
X128898102Y-94004774D01*
X128709744Y-94082795D01*
X128540226Y-94196063D01*
X128396063Y-94340226D01*
X128282795Y-94509744D01*
X128204774Y-94698102D01*
X128165000Y-94898061D01*
X126809399Y-94898061D01*
X126703937Y-94740226D01*
X126559774Y-94596063D01*
X126390256Y-94482795D01*
X126201898Y-94404774D01*
X126001939Y-94365000D01*
X125798061Y-94365000D01*
X125598102Y-94404774D01*
X125409744Y-94482795D01*
X125240226Y-94596063D01*
X125096063Y-94740226D01*
X124982795Y-94909744D01*
X124904774Y-95098102D01*
X124865000Y-95298061D01*
X122226019Y-95298061D01*
X122315990Y-95163411D01*
X122427932Y-94893158D01*
X122485000Y-94606260D01*
X122485000Y-94313740D01*
X122427932Y-94026842D01*
X122315990Y-93756589D01*
X122153475Y-93513368D01*
X122138168Y-93498061D01*
X123265000Y-93498061D01*
X123265000Y-93701939D01*
X123304774Y-93901898D01*
X123382795Y-94090256D01*
X123496063Y-94259774D01*
X123640226Y-94403937D01*
X123809744Y-94517205D01*
X123998102Y-94595226D01*
X124198061Y-94635000D01*
X124401939Y-94635000D01*
X124601898Y-94595226D01*
X124790256Y-94517205D01*
X124959774Y-94403937D01*
X125103937Y-94259774D01*
X125217205Y-94090256D01*
X125295226Y-93901898D01*
X125335000Y-93701939D01*
X125335000Y-93498061D01*
X125295226Y-93298102D01*
X125217205Y-93109744D01*
X125103937Y-92940226D01*
X124959774Y-92796063D01*
X124790256Y-92682795D01*
X124601898Y-92604774D01*
X124401939Y-92565000D01*
X124198061Y-92565000D01*
X123998102Y-92604774D01*
X123809744Y-92682795D01*
X123640226Y-92796063D01*
X123496063Y-92940226D01*
X123382795Y-93109744D01*
X123304774Y-93298102D01*
X123265000Y-93498061D01*
X122138168Y-93498061D01*
X121946632Y-93306525D01*
X121772240Y-93190000D01*
X121946632Y-93073475D01*
X122153475Y-92866632D01*
X122315990Y-92623411D01*
X122427932Y-92353158D01*
X122460721Y-92188320D01*
X122598102Y-92245226D01*
X122798061Y-92285000D01*
X123001939Y-92285000D01*
X123201898Y-92245226D01*
X123390256Y-92167205D01*
X123559774Y-92053937D01*
X123703937Y-91909774D01*
X123766856Y-91815608D01*
X123792019Y-91876356D01*
X123905287Y-92045874D01*
X124049450Y-92190037D01*
X124218968Y-92303305D01*
X124407326Y-92381326D01*
X124607285Y-92421100D01*
X124811163Y-92421100D01*
X125011122Y-92381326D01*
X125199480Y-92303305D01*
X125368998Y-92190037D01*
X125513161Y-92045874D01*
X125626429Y-91876356D01*
X125704450Y-91687998D01*
X125707741Y-91671452D01*
X125840226Y-91803937D01*
X126009744Y-91917205D01*
X126198102Y-91995226D01*
X126398061Y-92035000D01*
X126601939Y-92035000D01*
X126801898Y-91995226D01*
X126990256Y-91917205D01*
X127159774Y-91803937D01*
X127303937Y-91659774D01*
X127417205Y-91490256D01*
X127495226Y-91301898D01*
X127535000Y-91101939D01*
X127535000Y-91089799D01*
X127548102Y-91095226D01*
X127748061Y-91135000D01*
X127951939Y-91135000D01*
X128065386Y-91112434D01*
X127940226Y-91196063D01*
X127796063Y-91340226D01*
X127682795Y-91509744D01*
X127604774Y-91698102D01*
X127565000Y-91898061D01*
X127565000Y-92101939D01*
X127604774Y-92301898D01*
X127682795Y-92490256D01*
X127796063Y-92659774D01*
X127940226Y-92803937D01*
X128109744Y-92917205D01*
X128298102Y-92995226D01*
X128498061Y-93035000D01*
X128701939Y-93035000D01*
X128901898Y-92995226D01*
X129090256Y-92917205D01*
X129259774Y-92803937D01*
X129403937Y-92659774D01*
X129517205Y-92490256D01*
X129595226Y-92301898D01*
X129635000Y-92101939D01*
X129635000Y-91898061D01*
X129595226Y-91698102D01*
X129517205Y-91509744D01*
X129442582Y-91398061D01*
X130665000Y-91398061D01*
X130665000Y-91601939D01*
X130704774Y-91801898D01*
X130782795Y-91990256D01*
X130896063Y-92159774D01*
X131040226Y-92303937D01*
X131209744Y-92417205D01*
X131398102Y-92495226D01*
X131598061Y-92535000D01*
X131801939Y-92535000D01*
X132001898Y-92495226D01*
X132190256Y-92417205D01*
X132359774Y-92303937D01*
X132503937Y-92159774D01*
X132617205Y-91990256D01*
X132695226Y-91801898D01*
X132735000Y-91601939D01*
X132735000Y-91398061D01*
X132695226Y-91198102D01*
X132617205Y-91009744D01*
X132503937Y-90840226D01*
X132359774Y-90696063D01*
X132213104Y-90598061D01*
X134515000Y-90598061D01*
X134515000Y-90801939D01*
X134554774Y-91001898D01*
X134632795Y-91190256D01*
X134746063Y-91359774D01*
X134890226Y-91503937D01*
X135059744Y-91617205D01*
X135138918Y-91650000D01*
X135059744Y-91682795D01*
X134890226Y-91796063D01*
X134746063Y-91940226D01*
X134632795Y-92109744D01*
X134554774Y-92298102D01*
X134515000Y-92498061D01*
X134515000Y-92701939D01*
X134554774Y-92901898D01*
X134632795Y-93090256D01*
X134746063Y-93259774D01*
X134890226Y-93403937D01*
X135059744Y-93517205D01*
X135248102Y-93595226D01*
X135448061Y-93635000D01*
X135651939Y-93635000D01*
X135851898Y-93595226D01*
X136040256Y-93517205D01*
X136209774Y-93403937D01*
X136353937Y-93259774D01*
X136467205Y-93090256D01*
X136545226Y-92901898D01*
X136585000Y-92701939D01*
X136585000Y-92598061D01*
X138215000Y-92598061D01*
X138215000Y-92801939D01*
X138254774Y-93001898D01*
X138332795Y-93190256D01*
X138446063Y-93359774D01*
X138590226Y-93503937D01*
X138759744Y-93617205D01*
X138948102Y-93695226D01*
X139148061Y-93735000D01*
X139351939Y-93735000D01*
X139551898Y-93695226D01*
X139740256Y-93617205D01*
X139909774Y-93503937D01*
X140053937Y-93359774D01*
X140167205Y-93190256D01*
X140245226Y-93001898D01*
X140285000Y-92801939D01*
X140285000Y-92598061D01*
X140245226Y-92398102D01*
X140167205Y-92209744D01*
X140053937Y-92040226D01*
X139909774Y-91896063D01*
X139740256Y-91782795D01*
X139551898Y-91704774D01*
X139351939Y-91665000D01*
X139148061Y-91665000D01*
X138948102Y-91704774D01*
X138759744Y-91782795D01*
X138590226Y-91896063D01*
X138446063Y-92040226D01*
X138332795Y-92209744D01*
X138254774Y-92398102D01*
X138215000Y-92598061D01*
X136585000Y-92598061D01*
X136585000Y-92498061D01*
X136545226Y-92298102D01*
X136467205Y-92109744D01*
X136353937Y-91940226D01*
X136209774Y-91796063D01*
X136040256Y-91682795D01*
X135961082Y-91650000D01*
X136040256Y-91617205D01*
X136209774Y-91503937D01*
X136353937Y-91359774D01*
X136467205Y-91190256D01*
X136545226Y-91001898D01*
X136585000Y-90801939D01*
X136585000Y-90598061D01*
X136571402Y-90529697D01*
X136598061Y-90535000D01*
X136801939Y-90535000D01*
X137001898Y-90495226D01*
X137190256Y-90417205D01*
X137359774Y-90303937D01*
X137503937Y-90159774D01*
X137617205Y-89990256D01*
X137695226Y-89801898D01*
X137735000Y-89601939D01*
X137735000Y-89398061D01*
X137695226Y-89198102D01*
X137685978Y-89175776D01*
X137690226Y-89180024D01*
X137859744Y-89293292D01*
X138048102Y-89371313D01*
X138248061Y-89411087D01*
X138451939Y-89411087D01*
X138651898Y-89371313D01*
X138840256Y-89293292D01*
X139009774Y-89180024D01*
X139153937Y-89035861D01*
X139267205Y-88866343D01*
X139345226Y-88677985D01*
X139385000Y-88478026D01*
X139385000Y-88298058D01*
X140365000Y-88298058D01*
X140365000Y-88501936D01*
X140404774Y-88701895D01*
X140482795Y-88890253D01*
X140489307Y-88899999D01*
X140482795Y-88909744D01*
X140404774Y-89098102D01*
X140365000Y-89298061D01*
X140365000Y-89501939D01*
X140404774Y-89701898D01*
X140482795Y-89890256D01*
X140596063Y-90059774D01*
X140740226Y-90203937D01*
X140909744Y-90317205D01*
X141098102Y-90395226D01*
X141298061Y-90435000D01*
X141501939Y-90435000D01*
X141701898Y-90395226D01*
X141890256Y-90317205D01*
X142059774Y-90203937D01*
X142203937Y-90059774D01*
X142317205Y-89890256D01*
X142395226Y-89701898D01*
X142435000Y-89501939D01*
X142435000Y-89298061D01*
X142395226Y-89098102D01*
X142317205Y-88909744D01*
X142310693Y-88899999D01*
X142317205Y-88890253D01*
X142395226Y-88701895D01*
X142435000Y-88501936D01*
X142435000Y-88298058D01*
X142395226Y-88098099D01*
X142317205Y-87909741D01*
X142203937Y-87740223D01*
X142059774Y-87596060D01*
X141890256Y-87482792D01*
X141701898Y-87404771D01*
X141501939Y-87364997D01*
X141298061Y-87364997D01*
X141098102Y-87404771D01*
X140909744Y-87482792D01*
X140740226Y-87596060D01*
X140596063Y-87740223D01*
X140482795Y-87909741D01*
X140404774Y-88098099D01*
X140365000Y-88298058D01*
X139385000Y-88298058D01*
X139385000Y-88274148D01*
X139345226Y-88074189D01*
X139267205Y-87885831D01*
X139153937Y-87716313D01*
X139009774Y-87572150D01*
X138840256Y-87458882D01*
X138651898Y-87380861D01*
X138451939Y-87341087D01*
X138248061Y-87341087D01*
X138048102Y-87380861D01*
X137859744Y-87458882D01*
X137690226Y-87572150D01*
X137546063Y-87716313D01*
X137432795Y-87885831D01*
X137354774Y-88074189D01*
X137315000Y-88274148D01*
X137315000Y-88478026D01*
X137354774Y-88677985D01*
X137364022Y-88700311D01*
X137359774Y-88696063D01*
X137190256Y-88582795D01*
X137001898Y-88504774D01*
X136801939Y-88465000D01*
X136598061Y-88465000D01*
X136398102Y-88504774D01*
X136209744Y-88582795D01*
X136040226Y-88696063D01*
X135896063Y-88840226D01*
X135782795Y-89009744D01*
X135704774Y-89198102D01*
X135665000Y-89398061D01*
X135665000Y-89601939D01*
X135678598Y-89670303D01*
X135651939Y-89665000D01*
X135448061Y-89665000D01*
X135248102Y-89704774D01*
X135059744Y-89782795D01*
X134890226Y-89896063D01*
X134746063Y-90040226D01*
X134632795Y-90209744D01*
X134554774Y-90398102D01*
X134515000Y-90598061D01*
X132213104Y-90598061D01*
X132190256Y-90582795D01*
X132001898Y-90504774D01*
X131801939Y-90465000D01*
X131598061Y-90465000D01*
X131398102Y-90504774D01*
X131209744Y-90582795D01*
X131040226Y-90696063D01*
X130896063Y-90840226D01*
X130782795Y-91009744D01*
X130704774Y-91198102D01*
X130665000Y-91398061D01*
X129442582Y-91398061D01*
X129403937Y-91340226D01*
X129259774Y-91196063D01*
X129090256Y-91082795D01*
X128901898Y-91004774D01*
X128701939Y-90965000D01*
X128498061Y-90965000D01*
X128384614Y-90987566D01*
X128509774Y-90903937D01*
X128653937Y-90759774D01*
X128767205Y-90590256D01*
X128845226Y-90401898D01*
X128885000Y-90201939D01*
X128885000Y-89998061D01*
X128845226Y-89798102D01*
X128767205Y-89609744D01*
X128653937Y-89440226D01*
X128511772Y-89298061D01*
X129465000Y-89298061D01*
X129465000Y-89501939D01*
X129504774Y-89701898D01*
X129582795Y-89890256D01*
X129696063Y-90059774D01*
X129840226Y-90203937D01*
X130009744Y-90317205D01*
X130198102Y-90395226D01*
X130398061Y-90435000D01*
X130601939Y-90435000D01*
X130801898Y-90395226D01*
X130990256Y-90317205D01*
X131159774Y-90203937D01*
X131303937Y-90059774D01*
X131417205Y-89890256D01*
X131495226Y-89701898D01*
X131535000Y-89501939D01*
X131535000Y-89298061D01*
X131495226Y-89098102D01*
X131417205Y-88909744D01*
X131303937Y-88740226D01*
X131159774Y-88596063D01*
X130990256Y-88482795D01*
X130801898Y-88404774D01*
X130601939Y-88365000D01*
X130398061Y-88365000D01*
X130198102Y-88404774D01*
X130009744Y-88482795D01*
X129840226Y-88596063D01*
X129696063Y-88740226D01*
X129582795Y-88909744D01*
X129504774Y-89098102D01*
X129465000Y-89298061D01*
X128511772Y-89298061D01*
X128509774Y-89296063D01*
X128340256Y-89182795D01*
X128151898Y-89104774D01*
X127951939Y-89065000D01*
X127748061Y-89065000D01*
X127548102Y-89104774D01*
X127359744Y-89182795D01*
X127190226Y-89296063D01*
X127046063Y-89440226D01*
X126932795Y-89609744D01*
X126854774Y-89798102D01*
X126815000Y-89998061D01*
X126815000Y-90010201D01*
X126801898Y-90004774D01*
X126601939Y-89965000D01*
X126398061Y-89965000D01*
X126274042Y-89989669D01*
X126303937Y-89959774D01*
X126417205Y-89790256D01*
X126495226Y-89601898D01*
X126535000Y-89401939D01*
X126535000Y-89198061D01*
X126495226Y-88998102D01*
X126417205Y-88809744D01*
X126303937Y-88640226D01*
X126159774Y-88496063D01*
X125990256Y-88382795D01*
X125801898Y-88304774D01*
X125663977Y-88277340D01*
X125695226Y-88201898D01*
X125735000Y-88001939D01*
X125735000Y-87798061D01*
X125695226Y-87598102D01*
X125617205Y-87409744D01*
X125503937Y-87240226D01*
X125359774Y-87096063D01*
X125190256Y-86982795D01*
X125001898Y-86904774D01*
X124801939Y-86865000D01*
X124598061Y-86865000D01*
X124398102Y-86904774D01*
X124209744Y-86982795D01*
X124040226Y-87096063D01*
X123896063Y-87240226D01*
X123782795Y-87409744D01*
X123704774Y-87598102D01*
X123665000Y-87798061D01*
X123665000Y-88001939D01*
X123704774Y-88201898D01*
X123762121Y-88340344D01*
X123693951Y-88368581D01*
X123524433Y-88481849D01*
X123380270Y-88626012D01*
X123267002Y-88795530D01*
X123188981Y-88983888D01*
X123149207Y-89183847D01*
X123149207Y-89387725D01*
X123188981Y-89587684D01*
X123267002Y-89776042D01*
X123380270Y-89945560D01*
X123524433Y-90089723D01*
X123693951Y-90202991D01*
X123882309Y-90281012D01*
X124082268Y-90320786D01*
X124286146Y-90320786D01*
X124486105Y-90281012D01*
X124674463Y-90202991D01*
X124833209Y-90096920D01*
X124840226Y-90103937D01*
X125009744Y-90217205D01*
X125198102Y-90295226D01*
X125398061Y-90335000D01*
X125601939Y-90335000D01*
X125725958Y-90310331D01*
X125696063Y-90340226D01*
X125582795Y-90509744D01*
X125504774Y-90698102D01*
X125501483Y-90714648D01*
X125368998Y-90582163D01*
X125199480Y-90468895D01*
X125011122Y-90390874D01*
X124811163Y-90351100D01*
X124607285Y-90351100D01*
X124407326Y-90390874D01*
X124218968Y-90468895D01*
X124049450Y-90582163D01*
X123905287Y-90726326D01*
X123842368Y-90820492D01*
X123817205Y-90759744D01*
X123703937Y-90590226D01*
X123559774Y-90446063D01*
X123390256Y-90332795D01*
X123201898Y-90254774D01*
X123001939Y-90215000D01*
X122798061Y-90215000D01*
X122598102Y-90254774D01*
X122409744Y-90332795D01*
X122240226Y-90446063D01*
X122096063Y-90590226D01*
X121982795Y-90759744D01*
X121970217Y-90790110D01*
X121946632Y-90766525D01*
X121772240Y-90650000D01*
X121946632Y-90533475D01*
X122153475Y-90326632D01*
X122315990Y-90083411D01*
X122427932Y-89813158D01*
X122485000Y-89526260D01*
X122485000Y-89233740D01*
X122427932Y-88946842D01*
X122315990Y-88676589D01*
X122153475Y-88433368D01*
X121946632Y-88226525D01*
X121772240Y-88110000D01*
X121946632Y-87993475D01*
X122153475Y-87786632D01*
X122315990Y-87543411D01*
X122427932Y-87273158D01*
X122485000Y-86986260D01*
X122485000Y-86693740D01*
X122427932Y-86406842D01*
X122315990Y-86136589D01*
X122153475Y-85893368D01*
X121946632Y-85686525D01*
X121772240Y-85570000D01*
X121946632Y-85453475D01*
X122153475Y-85246632D01*
X122315990Y-85003411D01*
X122421759Y-84748061D01*
X128315000Y-84748061D01*
X128315000Y-84951939D01*
X128354774Y-85151898D01*
X128432795Y-85340256D01*
X128546063Y-85509774D01*
X128690226Y-85653937D01*
X128859744Y-85767205D01*
X129048102Y-85845226D01*
X129248061Y-85885000D01*
X129451939Y-85885000D01*
X129651898Y-85845226D01*
X129840256Y-85767205D01*
X129887585Y-85735581D01*
X130009744Y-85817205D01*
X130198102Y-85895226D01*
X130398061Y-85935000D01*
X130601939Y-85935000D01*
X130801898Y-85895226D01*
X130990256Y-85817205D01*
X131159774Y-85703937D01*
X131303937Y-85559774D01*
X131417205Y-85390256D01*
X131495226Y-85201898D01*
X131535000Y-85001939D01*
X131535000Y-84898061D01*
X135765000Y-84898061D01*
X135765000Y-85101939D01*
X135804774Y-85301898D01*
X135882795Y-85490256D01*
X135996063Y-85659774D01*
X136140226Y-85803937D01*
X136309744Y-85917205D01*
X136498102Y-85995226D01*
X136698061Y-86035000D01*
X136901939Y-86035000D01*
X137101898Y-85995226D01*
X137290256Y-85917205D01*
X137459774Y-85803937D01*
X137603937Y-85659774D01*
X137717205Y-85490256D01*
X137763875Y-85377586D01*
X137890226Y-85503937D01*
X138059744Y-85617205D01*
X138248102Y-85695226D01*
X138265000Y-85698587D01*
X138265000Y-85701939D01*
X138304774Y-85901898D01*
X138382795Y-86090256D01*
X138496063Y-86259774D01*
X138640226Y-86403937D01*
X138809744Y-86517205D01*
X138998102Y-86595226D01*
X139198061Y-86635000D01*
X139401939Y-86635000D01*
X139601898Y-86595226D01*
X139790256Y-86517205D01*
X139959774Y-86403937D01*
X140103937Y-86259774D01*
X140217205Y-86090256D01*
X140295226Y-85901898D01*
X140335000Y-85701939D01*
X140335000Y-85598061D01*
X140465000Y-85598061D01*
X140465000Y-85801939D01*
X140504774Y-86001898D01*
X140582795Y-86190256D01*
X140696063Y-86359774D01*
X140840226Y-86503937D01*
X141009744Y-86617205D01*
X141198102Y-86695226D01*
X141398061Y-86735000D01*
X141601939Y-86735000D01*
X141801898Y-86695226D01*
X141990256Y-86617205D01*
X142002617Y-86608946D01*
X141965000Y-86798061D01*
X141965000Y-87001939D01*
X142004774Y-87201898D01*
X142082795Y-87390256D01*
X142196063Y-87559774D01*
X142340226Y-87703937D01*
X142509744Y-87817205D01*
X142698102Y-87895226D01*
X142898061Y-87935000D01*
X143101939Y-87935000D01*
X143301898Y-87895226D01*
X143490256Y-87817205D01*
X143659774Y-87703937D01*
X143803937Y-87559774D01*
X143917205Y-87390256D01*
X143995226Y-87201898D01*
X144035000Y-87001939D01*
X144035000Y-86798061D01*
X143995226Y-86598102D01*
X143917205Y-86409744D01*
X143803937Y-86240226D01*
X143659774Y-86096063D01*
X143490256Y-85982795D01*
X143301898Y-85904774D01*
X143101939Y-85865000D01*
X142898061Y-85865000D01*
X142698102Y-85904774D01*
X142509744Y-85982795D01*
X142497383Y-85991054D01*
X142535000Y-85801939D01*
X142535000Y-85598061D01*
X142495226Y-85398102D01*
X142417205Y-85209744D01*
X142303937Y-85040226D01*
X142159774Y-84896063D01*
X141990256Y-84782795D01*
X141801898Y-84704774D01*
X141601939Y-84665000D01*
X141398061Y-84665000D01*
X141198102Y-84704774D01*
X141009744Y-84782795D01*
X140840226Y-84896063D01*
X140696063Y-85040226D01*
X140582795Y-85209744D01*
X140504774Y-85398102D01*
X140465000Y-85598061D01*
X140335000Y-85598061D01*
X140335000Y-85498061D01*
X140295226Y-85298102D01*
X140217205Y-85109744D01*
X140103937Y-84940226D01*
X139959774Y-84796063D01*
X139790256Y-84682795D01*
X139601898Y-84604774D01*
X139585000Y-84601413D01*
X139585000Y-84598061D01*
X139545226Y-84398102D01*
X139545210Y-84398061D01*
X142165000Y-84398061D01*
X142165000Y-84601939D01*
X142204774Y-84801898D01*
X142282795Y-84990256D01*
X142396063Y-85159774D01*
X142540226Y-85303937D01*
X142709744Y-85417205D01*
X142898102Y-85495226D01*
X143098061Y-85535000D01*
X143301939Y-85535000D01*
X143501898Y-85495226D01*
X143690256Y-85417205D01*
X143859774Y-85303937D01*
X144003937Y-85159774D01*
X144117205Y-84990256D01*
X144195226Y-84801898D01*
X144235000Y-84601939D01*
X144235000Y-84398061D01*
X144195226Y-84198102D01*
X144117205Y-84009744D01*
X144003937Y-83840226D01*
X143859774Y-83696063D01*
X143690256Y-83582795D01*
X143501898Y-83504774D01*
X143301939Y-83465000D01*
X143098061Y-83465000D01*
X142898102Y-83504774D01*
X142709744Y-83582795D01*
X142540226Y-83696063D01*
X142396063Y-83840226D01*
X142282795Y-84009744D01*
X142204774Y-84198102D01*
X142165000Y-84398061D01*
X139545210Y-84398061D01*
X139467205Y-84209744D01*
X139353937Y-84040226D01*
X139209774Y-83896063D01*
X139040256Y-83782795D01*
X138851898Y-83704774D01*
X138651939Y-83665000D01*
X138540093Y-83665000D01*
X138517205Y-83609744D01*
X138477285Y-83550000D01*
X138517205Y-83490256D01*
X138595226Y-83301898D01*
X138635000Y-83101939D01*
X138635000Y-82898711D01*
X138640226Y-82903937D01*
X138809744Y-83017205D01*
X138998102Y-83095226D01*
X139065000Y-83108533D01*
X139065000Y-83301939D01*
X139104774Y-83501898D01*
X139182795Y-83690256D01*
X139296063Y-83859774D01*
X139440226Y-84003937D01*
X139609744Y-84117205D01*
X139798102Y-84195226D01*
X139998061Y-84235000D01*
X140201939Y-84235000D01*
X140401898Y-84195226D01*
X140590256Y-84117205D01*
X140759774Y-84003937D01*
X140903937Y-83859774D01*
X141017205Y-83690256D01*
X141095226Y-83501898D01*
X141135000Y-83301939D01*
X141135000Y-83098061D01*
X141095226Y-82898102D01*
X141017205Y-82709744D01*
X140903937Y-82540226D01*
X140759774Y-82396063D01*
X140590256Y-82282795D01*
X140401898Y-82204774D01*
X140335000Y-82191467D01*
X140335000Y-81998061D01*
X140295226Y-81798102D01*
X140217205Y-81609744D01*
X140103937Y-81440226D01*
X139959774Y-81296063D01*
X139790256Y-81182795D01*
X139601898Y-81104774D01*
X139401939Y-81065000D01*
X139198061Y-81065000D01*
X138998102Y-81104774D01*
X138809744Y-81182795D01*
X138640226Y-81296063D01*
X138496063Y-81440226D01*
X138382795Y-81609744D01*
X138304774Y-81798102D01*
X138265000Y-81998061D01*
X138265000Y-82201289D01*
X138259774Y-82196063D01*
X138090256Y-82082795D01*
X137901898Y-82004774D01*
X137701939Y-81965000D01*
X137498061Y-81965000D01*
X137298102Y-82004774D01*
X137109744Y-82082795D01*
X136940226Y-82196063D01*
X136796063Y-82340226D01*
X136682795Y-82509744D01*
X136604774Y-82698102D01*
X136565000Y-82898061D01*
X136565000Y-83101939D01*
X136604774Y-83301898D01*
X136682795Y-83490256D01*
X136722715Y-83550000D01*
X136682795Y-83609744D01*
X136604774Y-83798102D01*
X136566366Y-83991196D01*
X136498102Y-84004774D01*
X136309744Y-84082795D01*
X136140226Y-84196063D01*
X135996063Y-84340226D01*
X135882795Y-84509744D01*
X135804774Y-84698102D01*
X135765000Y-84898061D01*
X131535000Y-84898061D01*
X131535000Y-84798061D01*
X131495226Y-84598102D01*
X131417205Y-84409744D01*
X131303937Y-84240226D01*
X131159774Y-84096063D01*
X130990256Y-83982795D01*
X130801898Y-83904774D01*
X130601939Y-83865000D01*
X130398061Y-83865000D01*
X130198102Y-83904774D01*
X130009744Y-83982795D01*
X129962415Y-84014419D01*
X129840256Y-83932795D01*
X129651898Y-83854774D01*
X129451939Y-83815000D01*
X129248061Y-83815000D01*
X129048102Y-83854774D01*
X128859744Y-83932795D01*
X128690226Y-84046063D01*
X128546063Y-84190226D01*
X128432795Y-84359744D01*
X128354774Y-84548102D01*
X128315000Y-84748061D01*
X122421759Y-84748061D01*
X122427932Y-84733158D01*
X122485000Y-84446260D01*
X122485000Y-84153740D01*
X122427932Y-83866842D01*
X122315990Y-83596589D01*
X122153475Y-83353368D01*
X121946632Y-83146525D01*
X121772240Y-83030000D01*
X121946632Y-82913475D01*
X122153475Y-82706632D01*
X122315990Y-82463411D01*
X122427932Y-82193158D01*
X122485000Y-81906260D01*
X122485000Y-81613740D01*
X122427932Y-81326842D01*
X122315990Y-81056589D01*
X122153475Y-80813368D01*
X121946632Y-80606525D01*
X121772240Y-80490000D01*
X121946632Y-80373475D01*
X122153475Y-80166632D01*
X122315990Y-79923411D01*
X122427932Y-79653158D01*
X122485000Y-79366260D01*
X122485000Y-79073740D01*
X122427932Y-78786842D01*
X122315990Y-78516589D01*
X122153475Y-78273368D01*
X121946632Y-78066525D01*
X121844169Y-77998061D01*
X125365000Y-77998061D01*
X125365000Y-78201939D01*
X125404774Y-78401898D01*
X125482795Y-78590256D01*
X125589532Y-78750000D01*
X125482795Y-78909744D01*
X125404774Y-79098102D01*
X125365000Y-79298061D01*
X125365000Y-79501939D01*
X125404774Y-79701898D01*
X125482795Y-79890256D01*
X125596063Y-80059774D01*
X125740226Y-80203937D01*
X125909744Y-80317205D01*
X126098102Y-80395226D01*
X126298061Y-80435000D01*
X126501939Y-80435000D01*
X126701898Y-80395226D01*
X126880259Y-80321346D01*
X126865000Y-80398061D01*
X126865000Y-80601939D01*
X126904774Y-80801898D01*
X126982795Y-80990256D01*
X127096063Y-81159774D01*
X127240226Y-81303937D01*
X127409744Y-81417205D01*
X127598102Y-81495226D01*
X127740401Y-81523531D01*
X127682795Y-81609744D01*
X127604774Y-81798102D01*
X127565000Y-81998061D01*
X127565000Y-82201939D01*
X127604774Y-82401898D01*
X127682795Y-82590256D01*
X127796063Y-82759774D01*
X127940226Y-82903937D01*
X128109744Y-83017205D01*
X128298102Y-83095226D01*
X128498061Y-83135000D01*
X128701939Y-83135000D01*
X128901898Y-83095226D01*
X129090256Y-83017205D01*
X129259774Y-82903937D01*
X129403937Y-82759774D01*
X129517205Y-82590256D01*
X129595226Y-82401898D01*
X129635000Y-82201939D01*
X129635000Y-81998061D01*
X129595226Y-81798102D01*
X129517205Y-81609744D01*
X129403937Y-81440226D01*
X129259774Y-81296063D01*
X129187934Y-81248061D01*
X133065000Y-81248061D01*
X133065000Y-81451939D01*
X133104774Y-81651898D01*
X133182795Y-81840256D01*
X133296063Y-82009774D01*
X133440226Y-82153937D01*
X133609744Y-82267205D01*
X133798102Y-82345226D01*
X133998061Y-82385000D01*
X134201939Y-82385000D01*
X134401898Y-82345226D01*
X134590256Y-82267205D01*
X134759774Y-82153937D01*
X134903937Y-82009774D01*
X135017205Y-81840256D01*
X135095226Y-81651898D01*
X135135000Y-81451939D01*
X135135000Y-81248061D01*
X135095226Y-81048102D01*
X135017205Y-80859744D01*
X134903937Y-80690226D01*
X134759774Y-80546063D01*
X134590256Y-80432795D01*
X134401898Y-80354774D01*
X134201939Y-80315000D01*
X133998061Y-80315000D01*
X133798102Y-80354774D01*
X133609744Y-80432795D01*
X133440226Y-80546063D01*
X133296063Y-80690226D01*
X133182795Y-80859744D01*
X133104774Y-81048102D01*
X133065000Y-81248061D01*
X129187934Y-81248061D01*
X129090256Y-81182795D01*
X128901898Y-81104774D01*
X128759599Y-81076469D01*
X128817205Y-80990256D01*
X128895226Y-80801898D01*
X128935000Y-80601939D01*
X128935000Y-80398061D01*
X128895226Y-80198102D01*
X128817205Y-80009744D01*
X128703937Y-79840226D01*
X128559774Y-79696063D01*
X128390256Y-79582795D01*
X128246042Y-79523059D01*
X140165000Y-79523059D01*
X140165000Y-79726937D01*
X140204774Y-79926896D01*
X140282795Y-80115254D01*
X140396063Y-80284772D01*
X140540226Y-80428935D01*
X140709744Y-80542203D01*
X140898102Y-80620224D01*
X141098061Y-80659998D01*
X141301939Y-80659998D01*
X141501898Y-80620224D01*
X141690256Y-80542203D01*
X141859774Y-80428935D01*
X142003937Y-80284772D01*
X142117205Y-80115254D01*
X142195226Y-79926896D01*
X142235000Y-79726937D01*
X142235000Y-79523059D01*
X142195226Y-79323100D01*
X142117205Y-79134742D01*
X142003937Y-78965224D01*
X141859774Y-78821061D01*
X141690256Y-78707793D01*
X141501898Y-78629772D01*
X141301939Y-78589998D01*
X141098061Y-78589998D01*
X140898102Y-78629772D01*
X140709744Y-78707793D01*
X140540226Y-78821061D01*
X140396063Y-78965224D01*
X140282795Y-79134742D01*
X140204774Y-79323100D01*
X140165000Y-79523059D01*
X128246042Y-79523059D01*
X128201898Y-79504774D01*
X128001939Y-79465000D01*
X127798061Y-79465000D01*
X127598102Y-79504774D01*
X127419741Y-79578654D01*
X127435000Y-79501939D01*
X127435000Y-79298061D01*
X127395226Y-79098102D01*
X127317205Y-78909744D01*
X127210468Y-78750000D01*
X127317205Y-78590256D01*
X127395226Y-78401898D01*
X127435000Y-78201939D01*
X127435000Y-77998061D01*
X127410792Y-77876358D01*
X127491896Y-77860226D01*
X127680254Y-77782205D01*
X127849772Y-77668937D01*
X127993935Y-77524774D01*
X128107203Y-77355256D01*
X128185224Y-77166898D01*
X128224998Y-76966939D01*
X128224998Y-76763061D01*
X128185224Y-76563102D01*
X128107203Y-76374744D01*
X127993935Y-76205226D01*
X127849772Y-76061063D01*
X127680254Y-75947795D01*
X127491896Y-75869774D01*
X127291937Y-75830000D01*
X127088059Y-75830000D01*
X126888100Y-75869774D01*
X126699742Y-75947795D01*
X126530224Y-76061063D01*
X126386061Y-76205226D01*
X126272793Y-76374744D01*
X126194772Y-76563102D01*
X126154998Y-76763061D01*
X126154998Y-76966939D01*
X126179206Y-77088642D01*
X126098102Y-77104774D01*
X125909744Y-77182795D01*
X125740226Y-77296063D01*
X125596063Y-77440226D01*
X125482795Y-77609744D01*
X125404774Y-77798102D01*
X125365000Y-77998061D01*
X121844169Y-77998061D01*
X121772240Y-77950000D01*
X121946632Y-77833475D01*
X122153475Y-77626632D01*
X122315990Y-77383411D01*
X122427932Y-77113158D01*
X122485000Y-76826260D01*
X122485000Y-76533740D01*
X122427932Y-76246842D01*
X122315990Y-75976589D01*
X122153475Y-75733368D01*
X121946632Y-75526525D01*
X121772240Y-75410000D01*
X121946632Y-75293475D01*
X122153475Y-75086632D01*
X122315990Y-74843411D01*
X122427932Y-74573158D01*
X122485000Y-74286260D01*
X122485000Y-74198061D01*
X126765000Y-74198061D01*
X126765000Y-74401939D01*
X126804774Y-74601898D01*
X126882795Y-74790256D01*
X126996063Y-74959774D01*
X127140226Y-75103937D01*
X127309744Y-75217205D01*
X127498102Y-75295226D01*
X127698061Y-75335000D01*
X127901939Y-75335000D01*
X128101898Y-75295226D01*
X128122840Y-75286551D01*
X128240226Y-75403937D01*
X128409744Y-75517205D01*
X128564998Y-75581514D01*
X128564998Y-75701939D01*
X128604772Y-75901898D01*
X128682793Y-76090256D01*
X128796061Y-76259774D01*
X128940224Y-76403937D01*
X129109742Y-76517205D01*
X129298100Y-76595226D01*
X129498059Y-76635000D01*
X129701937Y-76635000D01*
X129901896Y-76595226D01*
X129990161Y-76558665D01*
X131265000Y-76558665D01*
X131265000Y-76841335D01*
X131320147Y-77118574D01*
X131428320Y-77379727D01*
X131585363Y-77614759D01*
X131785241Y-77814637D01*
X132020273Y-77971680D01*
X132281426Y-78079853D01*
X132558665Y-78135000D01*
X132841335Y-78135000D01*
X133118574Y-78079853D01*
X133379727Y-77971680D01*
X133614759Y-77814637D01*
X133814637Y-77614759D01*
X133971680Y-77379727D01*
X134079853Y-77118574D01*
X134123716Y-76898061D01*
X135765000Y-76898061D01*
X135765000Y-77101939D01*
X135804774Y-77301898D01*
X135882795Y-77490256D01*
X135996063Y-77659774D01*
X136140226Y-77803937D01*
X136309744Y-77917205D01*
X136498102Y-77995226D01*
X136698061Y-78035000D01*
X136901939Y-78035000D01*
X137101898Y-77995226D01*
X137290256Y-77917205D01*
X137459774Y-77803937D01*
X137603937Y-77659774D01*
X137611763Y-77648061D01*
X138365000Y-77648061D01*
X138365000Y-77851939D01*
X138404774Y-78051898D01*
X138482795Y-78240256D01*
X138596063Y-78409774D01*
X138740226Y-78553937D01*
X138909744Y-78667205D01*
X139098102Y-78745226D01*
X139298061Y-78785000D01*
X139501939Y-78785000D01*
X139701898Y-78745226D01*
X139890256Y-78667205D01*
X140059774Y-78553937D01*
X140203937Y-78409774D01*
X140317205Y-78240256D01*
X140395226Y-78051898D01*
X140398587Y-78035000D01*
X140501939Y-78035000D01*
X140701898Y-77995226D01*
X140890256Y-77917205D01*
X141059774Y-77803937D01*
X141203937Y-77659774D01*
X141317205Y-77490256D01*
X141395226Y-77301898D01*
X141435000Y-77101939D01*
X141435000Y-76898061D01*
X141395226Y-76698102D01*
X141317205Y-76509744D01*
X141203937Y-76340226D01*
X141059774Y-76196063D01*
X140890256Y-76082795D01*
X140701898Y-76004774D01*
X140501939Y-75965000D01*
X140298061Y-75965000D01*
X140098102Y-76004774D01*
X139909744Y-76082795D01*
X139740226Y-76196063D01*
X139596063Y-76340226D01*
X139482795Y-76509744D01*
X139404774Y-76698102D01*
X139401413Y-76715000D01*
X139298061Y-76715000D01*
X139098102Y-76754774D01*
X138909744Y-76832795D01*
X138740226Y-76946063D01*
X138596063Y-77090226D01*
X138482795Y-77259744D01*
X138404774Y-77448102D01*
X138365000Y-77648061D01*
X137611763Y-77648061D01*
X137717205Y-77490256D01*
X137795226Y-77301898D01*
X137835000Y-77101939D01*
X137835000Y-76898061D01*
X137795226Y-76698102D01*
X137763977Y-76622660D01*
X137901898Y-76595226D01*
X138090256Y-76517205D01*
X138259774Y-76403937D01*
X138403937Y-76259774D01*
X138517205Y-76090256D01*
X138595226Y-75901898D01*
X138635000Y-75701939D01*
X138635000Y-75498061D01*
X138595226Y-75298102D01*
X138517205Y-75109744D01*
X138403937Y-74940226D01*
X138259774Y-74796063D01*
X138090256Y-74682795D01*
X137901898Y-74604774D01*
X137701939Y-74565000D01*
X137498061Y-74565000D01*
X137298102Y-74604774D01*
X137109744Y-74682795D01*
X136940226Y-74796063D01*
X136796063Y-74940226D01*
X136682795Y-75109744D01*
X136604774Y-75298102D01*
X136565000Y-75498061D01*
X136565000Y-75701939D01*
X136604774Y-75901898D01*
X136636023Y-75977340D01*
X136498102Y-76004774D01*
X136309744Y-76082795D01*
X136140226Y-76196063D01*
X135996063Y-76340226D01*
X135882795Y-76509744D01*
X135804774Y-76698102D01*
X135765000Y-76898061D01*
X134123716Y-76898061D01*
X134135000Y-76841335D01*
X134135000Y-76558665D01*
X134079853Y-76281426D01*
X133971680Y-76020273D01*
X133814637Y-75785241D01*
X133614759Y-75585363D01*
X133379727Y-75428320D01*
X133118574Y-75320147D01*
X132841335Y-75265000D01*
X132558665Y-75265000D01*
X132281426Y-75320147D01*
X132020273Y-75428320D01*
X131785241Y-75585363D01*
X131585363Y-75785241D01*
X131428320Y-76020273D01*
X131320147Y-76281426D01*
X131265000Y-76558665D01*
X129990161Y-76558665D01*
X130090254Y-76517205D01*
X130259772Y-76403937D01*
X130403935Y-76259774D01*
X130517203Y-76090256D01*
X130595224Y-75901898D01*
X130634998Y-75701939D01*
X130634998Y-75498061D01*
X130595224Y-75298102D01*
X130517203Y-75109744D01*
X130403935Y-74940226D01*
X130259772Y-74796063D01*
X130090254Y-74682795D01*
X129935000Y-74618486D01*
X129935000Y-74498061D01*
X129895226Y-74298102D01*
X129817205Y-74109744D01*
X129703937Y-73940226D01*
X129563711Y-73800000D01*
X129603937Y-73759774D01*
X129717205Y-73590256D01*
X129755393Y-73498061D01*
X133765000Y-73498061D01*
X133765000Y-73701939D01*
X133804774Y-73901898D01*
X133882795Y-74090256D01*
X133996063Y-74259774D01*
X134140226Y-74403937D01*
X134309744Y-74517205D01*
X134498102Y-74595226D01*
X134698061Y-74635000D01*
X134901939Y-74635000D01*
X135101898Y-74595226D01*
X135290256Y-74517205D01*
X135459774Y-74403937D01*
X135603937Y-74259774D01*
X135717205Y-74090256D01*
X135744506Y-74024347D01*
X135798061Y-74035000D01*
X136001939Y-74035000D01*
X136201898Y-73995226D01*
X136390256Y-73917205D01*
X136559774Y-73803937D01*
X136703937Y-73659774D01*
X136817205Y-73490256D01*
X136895226Y-73301898D01*
X136935000Y-73101939D01*
X136935000Y-72898061D01*
X136895226Y-72698102D01*
X136817205Y-72509744D01*
X136703937Y-72340226D01*
X136559774Y-72196063D01*
X136390256Y-72082795D01*
X136201898Y-72004774D01*
X136001939Y-71965000D01*
X135798061Y-71965000D01*
X135598102Y-72004774D01*
X135409744Y-72082795D01*
X135240226Y-72196063D01*
X135096063Y-72340226D01*
X134982795Y-72509744D01*
X134955494Y-72575653D01*
X134901939Y-72565000D01*
X134698061Y-72565000D01*
X134498102Y-72604774D01*
X134309744Y-72682795D01*
X134140226Y-72796063D01*
X133996063Y-72940226D01*
X133882795Y-73109744D01*
X133804774Y-73298102D01*
X133765000Y-73498061D01*
X129755393Y-73498061D01*
X129795226Y-73401898D01*
X129835000Y-73201939D01*
X129835000Y-72998061D01*
X129795226Y-72798102D01*
X129717205Y-72609744D01*
X129603937Y-72440226D01*
X129459774Y-72296063D01*
X129290256Y-72182795D01*
X129101898Y-72104774D01*
X128901939Y-72065000D01*
X128698061Y-72065000D01*
X128498102Y-72104774D01*
X128309744Y-72182795D01*
X128140226Y-72296063D01*
X127996063Y-72440226D01*
X127882795Y-72609744D01*
X127804774Y-72798102D01*
X127765000Y-72998061D01*
X127765000Y-73201939D01*
X127777544Y-73265000D01*
X127698061Y-73265000D01*
X127498102Y-73304774D01*
X127309744Y-73382795D01*
X127140226Y-73496063D01*
X126996063Y-73640226D01*
X126882795Y-73809744D01*
X126804774Y-73998102D01*
X126765000Y-74198061D01*
X122485000Y-74198061D01*
X122485000Y-73993740D01*
X122427932Y-73706842D01*
X122315990Y-73436589D01*
X122153475Y-73193368D01*
X121946632Y-72986525D01*
X121772240Y-72870000D01*
X121946632Y-72753475D01*
X122153475Y-72546632D01*
X122315990Y-72303411D01*
X122427932Y-72033158D01*
X122485000Y-71746260D01*
X122485000Y-71453740D01*
X122427932Y-71166842D01*
X122315990Y-70896589D01*
X122153475Y-70653368D01*
X122021620Y-70521513D01*
X122094180Y-70499502D01*
X122204494Y-70440537D01*
X122301185Y-70361185D01*
X122380537Y-70264494D01*
X122439502Y-70154180D01*
X122475812Y-70034482D01*
X122488072Y-69910000D01*
X122488072Y-68210000D01*
X122479897Y-68127000D01*
X123138083Y-68127000D01*
X123082795Y-68209744D01*
G37*
%TD.AperFunction*%
%TD*%
M02*
