%TF.GenerationSoftware,KiCad,Pcbnew,(5.1.8-0-10_14)*%
%TF.CreationDate,2020-12-13T22:38:35+09:00*%
%TF.ProjectId,mini-esp32,6d696e69-2d65-4737-9033-322e6b696361,rev?*%
%TF.SameCoordinates,Original*%
%TF.FileFunction,Copper,L4,Bot*%
%TF.FilePolarity,Positive*%
%FSLAX46Y46*%
G04 Gerber Fmt 4.6, Leading zero omitted, Abs format (unit mm)*
G04 Created by KiCad (PCBNEW (5.1.8-0-10_14)) date 2020-12-13 22:38:35*
%MOMM*%
%LPD*%
G01*
G04 APERTURE LIST*
%TA.AperFunction,ComponentPad*%
%ADD10O,1.300000X2.200000*%
%TD*%
%TA.AperFunction,ComponentPad*%
%ADD11C,1.200000*%
%TD*%
%TA.AperFunction,ComponentPad*%
%ADD12O,1.700000X1.700000*%
%TD*%
%TA.AperFunction,ComponentPad*%
%ADD13R,1.700000X1.700000*%
%TD*%
%TA.AperFunction,ViaPad*%
%ADD14C,1.600000*%
%TD*%
%TA.AperFunction,ViaPad*%
%ADD15C,0.800000*%
%TD*%
%TA.AperFunction,Conductor*%
%ADD16C,0.300000*%
%TD*%
%TA.AperFunction,Conductor*%
%ADD17C,0.500000*%
%TD*%
%TA.AperFunction,Conductor*%
%ADD18C,0.254000*%
%TD*%
%TA.AperFunction,Conductor*%
%ADD19C,0.100000*%
%TD*%
G04 APERTURE END LIST*
D10*
%TO.P,J2,0*%
%TO.N,N/C*%
X141628000Y-118198000D03*
X134389000Y-118198000D03*
D11*
X135584000Y-115498000D03*
X140434000Y-115498000D03*
%TD*%
D12*
%TO.P,J5,18*%
%TO.N,VBUS*%
X121000000Y-112240000D03*
%TO.P,J5,17*%
%TO.N,VDD*%
X121000000Y-109700000D03*
%TO.P,J5,16*%
%TO.N,Net-(J5-Pad16)*%
X121000000Y-107160000D03*
%TO.P,J5,15*%
%TO.N,GND*%
X121000000Y-104620000D03*
%TO.P,J5,14*%
%TO.N,+BATT*%
X121000000Y-102080000D03*
%TO.P,J5,13*%
%TO.N,EN*%
X121000000Y-99540000D03*
%TO.P,J5,12*%
%TO.N,Net-(J5-Pad12)*%
X121000000Y-97000000D03*
%TO.P,J5,11*%
%TO.N,Net-(J5-Pad11)*%
X121000000Y-94460000D03*
%TO.P,J5,10*%
%TO.N,IO2*%
X121000000Y-91920000D03*
%TO.P,J5,9*%
%TO.N,IO5*%
X121000000Y-89380000D03*
%TO.P,J5,8*%
%TO.N,IO13*%
X121000000Y-86840000D03*
%TO.P,J5,7*%
%TO.N,IO33*%
X121000000Y-84300000D03*
%TO.P,J5,6*%
%TO.N,IO32*%
X121000000Y-81760000D03*
%TO.P,J5,5*%
%TO.N,IO27*%
X121000000Y-79220000D03*
%TO.P,J5,4*%
%TO.N,IO26_DAC2*%
X121000000Y-76680000D03*
%TO.P,J5,3*%
%TO.N,IO25_DAC1*%
X121000000Y-74140000D03*
%TO.P,J5,2*%
%TO.N,TXD0*%
X121000000Y-71600000D03*
D13*
%TO.P,J5,1*%
%TO.N,RXD0*%
X121000000Y-69060000D03*
%TD*%
%TO.P,J6,1*%
%TO.N,I36*%
X146400000Y-69060000D03*
D12*
%TO.P,J6,2*%
%TO.N,I39*%
X146400000Y-71600000D03*
%TO.P,J6,3*%
%TO.N,I34*%
X146400000Y-74140000D03*
%TO.P,J6,4*%
%TO.N,I35*%
X146400000Y-76680000D03*
%TO.P,J6,5*%
%TO.N,IO15*%
X146400000Y-79220000D03*
%TO.P,J6,6*%
%TO.N,Net-(J6-Pad6)*%
X146400000Y-81760000D03*
%TO.P,J6,7*%
%TO.N,GPIO0*%
X146400000Y-84300000D03*
%TO.P,J6,8*%
%TO.N,IO18*%
X146400000Y-86840000D03*
%TO.P,J6,9*%
%TO.N,IO23*%
X146400000Y-89380000D03*
%TO.P,J6,10*%
%TO.N,IO19*%
X146400000Y-91920000D03*
%TO.P,J6,11*%
%TO.N,IO21*%
X146400000Y-94460000D03*
%TO.P,J6,12*%
%TO.N,IO22*%
X146400000Y-97000000D03*
%TO.P,J6,13*%
%TO.N,IO14*%
X146400000Y-99540000D03*
%TO.P,J6,14*%
%TO.N,IO12*%
X146400000Y-102080000D03*
%TO.P,J6,15*%
%TO.N,IO4*%
X146400000Y-104620000D03*
%TO.P,J6,16*%
%TO.N,IO16*%
X146400000Y-107160000D03*
%TO.P,J6,17*%
%TO.N,IO17*%
X146400000Y-109700000D03*
%TO.P,J6,18*%
%TO.N,RESET*%
X146400000Y-112240000D03*
%TD*%
D14*
%TO.N,GND*%
X132700000Y-76700000D03*
D15*
X138800000Y-113100000D03*
X129350000Y-84850000D03*
X140200000Y-69950000D03*
X124000000Y-68700000D03*
X126400000Y-68700000D03*
X122900000Y-91250000D03*
X128200000Y-95050000D03*
X125500000Y-99750000D03*
X127850000Y-89150000D03*
X139350000Y-98600000D03*
X125100000Y-95149988D03*
X129621783Y-92910010D03*
X130799984Y-90680000D03*
X130400000Y-97200000D03*
X131200000Y-97200000D03*
X133050000Y-97800000D03*
X128009135Y-97322738D03*
X128800008Y-97700008D03*
X123450022Y-96900000D03*
X124199996Y-89000004D03*
X124800012Y-88200022D03*
X128100000Y-111600000D03*
X127200000Y-111600000D03*
X128100000Y-112500000D03*
X127200000Y-112500000D03*
X124280796Y-103796939D03*
X134000000Y-98400008D03*
X131350000Y-98600000D03*
X137000000Y-111099998D03*
X138817603Y-110797773D03*
X139350000Y-112650010D03*
X142600000Y-110700000D03*
X143500000Y-108100000D03*
X136800000Y-93100000D03*
%TO.N,VDD*%
X144972382Y-96746209D03*
X123900000Y-70650000D03*
X126149567Y-70734999D03*
X130150000Y-88913227D03*
X125982232Y-88203696D03*
X125565857Y-87339885D03*
X122700000Y-88000002D03*
X130900000Y-88855025D03*
%TO.N,RESET*%
X133100000Y-71800000D03*
X141797816Y-88581181D03*
X134000000Y-96200000D03*
X140599990Y-95381997D03*
%TO.N,Net-(C10-Pad1)*%
X142100000Y-105300000D03*
X142000000Y-109600000D03*
%TO.N,Net-(D2-Pad1)*%
X126100000Y-97800000D03*
X123746147Y-99306822D03*
%TO.N,VBUS*%
X138200000Y-111900000D03*
X143100000Y-111800000D03*
X127900000Y-108600000D03*
X128000000Y-107500000D03*
X128800000Y-107500000D03*
X128695864Y-108604136D03*
%TO.N,EN*%
X127590000Y-93180000D03*
X132500000Y-91350077D03*
X123100000Y-105900000D03*
%TO.N,IO21*%
X137600000Y-83000000D03*
X137600000Y-75600000D03*
%TO.N,IO17*%
X134100000Y-81350000D03*
X134945163Y-102007457D03*
X142297807Y-100700000D03*
%TO.N,IO16*%
X140100000Y-83200000D03*
X143099991Y-104300023D03*
%TO.N,GPIO0*%
X141500000Y-85700000D03*
X141133807Y-87833441D03*
%TO.N,DTR*%
X143047817Y-94610319D03*
X142768316Y-90450001D03*
X143100000Y-102300000D03*
X137600000Y-103600000D03*
X136400000Y-108300000D03*
%TO.N,RTS*%
X141350000Y-92450002D03*
X143550000Y-89250000D03*
X141393957Y-101549990D03*
%TO.N,Net-(R4-Pad1)*%
X124000000Y-100800000D03*
X129100000Y-100850000D03*
%TO.N,TXD0*%
X128900000Y-74600000D03*
X135900000Y-73000000D03*
X136507579Y-106377907D03*
%TO.N,RXD0*%
X127050000Y-70300000D03*
X134800000Y-73600000D03*
X134800000Y-70300000D03*
X136183067Y-107323801D03*
%TO.N,IO2*%
X128600000Y-82100000D03*
X139300000Y-82100000D03*
X139300000Y-85600000D03*
X124867831Y-92217831D03*
X128050000Y-90950000D03*
%TO.N,I35*%
X139400000Y-77750000D03*
X127189998Y-76865000D03*
X124610002Y-93840000D03*
X144000000Y-75400000D03*
X123551496Y-95901315D03*
%TO.N,I36*%
X128800000Y-68500000D03*
X128800000Y-73100000D03*
%TO.N,I39*%
X144000000Y-69200000D03*
X139400000Y-69200000D03*
X127800000Y-69200000D03*
X127800000Y-74300000D03*
%TO.N,I34*%
X139400000Y-71050000D03*
X129700000Y-71050000D03*
X129599998Y-75600000D03*
X143800000Y-73000000D03*
%TO.N,IO32*%
X126400000Y-78100000D03*
%TO.N,IO33*%
X126400000Y-79400000D03*
%TO.N,IO14*%
X138350000Y-88376087D03*
X138500000Y-96500012D03*
%TO.N,IO12*%
X137600000Y-84100000D03*
X139350000Y-97300000D03*
%TO.N,IO13*%
X130500000Y-84900000D03*
X126500000Y-91000000D03*
X129400000Y-90900000D03*
%TO.N,IO15*%
X140400000Y-77000000D03*
X136800000Y-77000000D03*
X136800000Y-85000000D03*
X144199994Y-78000000D03*
%TO.N,IO4*%
X143200000Y-84500000D03*
X145100023Y-103157039D03*
%TO.N,IO5*%
X126900000Y-80500000D03*
X122047000Y-85699600D03*
%TO.N,IO18*%
X141200000Y-79624998D03*
X143029123Y-86870928D03*
%TO.N,IO19*%
X145537471Y-91337449D03*
X143266527Y-78358693D03*
%TO.N,IO22*%
X138550000Y-84700000D03*
X138600000Y-71800000D03*
%TO.N,IO23*%
X143500000Y-70500000D03*
%TO.N,VCC*%
X132300000Y-100300000D03*
X132200000Y-93600000D03*
%TD*%
D16*
%TO.N,RESET*%
X133100000Y-71800000D02*
X133100000Y-73000000D01*
X133100000Y-73000000D02*
X134349991Y-74249991D01*
X134349991Y-74249991D02*
X134349991Y-79990007D01*
X134349991Y-79990007D02*
X133050000Y-81289998D01*
X133050000Y-90739998D02*
X133492970Y-91182968D01*
X133050000Y-81289998D02*
X133050000Y-90739998D01*
X133492970Y-91182968D02*
X133492970Y-95692970D01*
X133492970Y-95692970D02*
X134000000Y-96200000D01*
X141797816Y-88581181D02*
X140599990Y-89779007D01*
X140599990Y-89779007D02*
X140599990Y-95381997D01*
X146400000Y-112240000D02*
X144250001Y-110090001D01*
X144250001Y-110090001D02*
X144250001Y-107749999D01*
X140649998Y-95432005D02*
X140599990Y-95381997D01*
X140643956Y-101938848D02*
X140643956Y-101218846D01*
X143667113Y-103550013D02*
X142255121Y-103550013D01*
X143850001Y-103732901D02*
X143667113Y-103550013D01*
X143850001Y-107349999D02*
X143850001Y-103732901D01*
X142255121Y-103550013D02*
X140643956Y-101938848D01*
X140643956Y-101218846D02*
X140649998Y-101212804D01*
X144250001Y-107749999D02*
X143850001Y-107349999D01*
X140649998Y-101212804D02*
X140649998Y-95432005D01*
%TO.N,Net-(C10-Pad1)*%
X142100000Y-109500000D02*
X142000000Y-109600000D01*
X142100000Y-105300000D02*
X142100000Y-109500000D01*
%TO.N,Net-(D2-Pad1)*%
X124593178Y-99306822D02*
X123746147Y-99306822D01*
X126100000Y-97800000D02*
X124593178Y-99306822D01*
D17*
%TO.N,VBUS*%
X138300000Y-111800000D02*
X143100000Y-111800000D01*
X138200000Y-111900000D02*
X138300000Y-111800000D01*
D16*
%TO.N,EN*%
X127660000Y-93250000D02*
X127590000Y-93180000D01*
X132100067Y-91750010D02*
X132500000Y-91350077D01*
X129019990Y-91750010D02*
X132100067Y-91750010D01*
X127590000Y-93180000D02*
X129019990Y-91750010D01*
X123100000Y-101640000D02*
X121000000Y-99540000D01*
X123100000Y-105900000D02*
X123100000Y-101640000D01*
%TO.N,IO21*%
X137600000Y-83000000D02*
X137600000Y-75600000D01*
%TO.N,IO17*%
X134850000Y-82100000D02*
X134850000Y-101912294D01*
X134100000Y-81350000D02*
X134850000Y-82100000D01*
X134850000Y-101912294D02*
X134945163Y-102007457D01*
X142739998Y-103050002D02*
X142297807Y-102607811D01*
X144350012Y-107132888D02*
X144350012Y-103132886D01*
X146400000Y-109182876D02*
X144350012Y-107132888D01*
X146400000Y-109700000D02*
X146400000Y-109182876D01*
X144350012Y-103132886D02*
X144267128Y-103050002D01*
X144267128Y-103050002D02*
X142739998Y-103050002D01*
X142297807Y-102607811D02*
X142297807Y-100700000D01*
%TO.N,IO16*%
X140149987Y-101005693D02*
X140143945Y-101011735D01*
X139849988Y-89582884D02*
X139849988Y-95741999D01*
X139849988Y-95741999D02*
X140149987Y-96041998D01*
X142182897Y-104300023D02*
X143099991Y-104300023D01*
X140143945Y-102261071D02*
X142182897Y-104300023D01*
X140143945Y-101011735D02*
X140143945Y-102261071D01*
X140100000Y-83200000D02*
X140100000Y-89332872D01*
X140100000Y-89332872D02*
X139849988Y-89582884D01*
X140149987Y-96041998D02*
X140149987Y-101005693D01*
%TO.N,GPIO0*%
X141350000Y-87617248D02*
X141133807Y-87833441D01*
X141350000Y-85700000D02*
X141350000Y-87617248D01*
%TO.N,DTR*%
X143047817Y-94610319D02*
X143047817Y-90729502D01*
X143047817Y-90729502D02*
X142768316Y-90450001D01*
X143047817Y-102247817D02*
X143100000Y-102300000D01*
X143047817Y-94610319D02*
X143047817Y-102247817D01*
X137600000Y-107100000D02*
X136400000Y-108300000D01*
X137600000Y-103600000D02*
X137600000Y-107100000D01*
%TO.N,RTS*%
X142858315Y-89250000D02*
X143550000Y-89250000D01*
X141350000Y-90758315D02*
X142858315Y-89250000D01*
X141350000Y-92450002D02*
X141350000Y-90758315D01*
X141350000Y-92450002D02*
X141350000Y-101506033D01*
X141350000Y-101506033D02*
X141393957Y-101549990D01*
%TO.N,Net-(R4-Pad1)*%
X129050000Y-100800000D02*
X129100000Y-100850000D01*
X124000000Y-100800000D02*
X129050000Y-100800000D01*
%TO.N,TXD0*%
X128449999Y-75050001D02*
X126550001Y-75050001D01*
X128900000Y-74600000D02*
X128449999Y-75050001D01*
X123100000Y-71600000D02*
X121000000Y-71600000D01*
X126550001Y-75050001D02*
X123100000Y-71600000D01*
X135900000Y-73000000D02*
X135900000Y-101194496D01*
X136507579Y-101802075D02*
X136507579Y-106377907D01*
X135900000Y-101194496D02*
X136507579Y-101802075D01*
%TO.N,RXD0*%
X127050000Y-70300000D02*
X126650000Y-69900000D01*
X121840000Y-69900000D02*
X121000000Y-69060000D01*
X126650000Y-69900000D02*
X121840000Y-69900000D01*
X134800000Y-73600000D02*
X134800000Y-70300000D01*
X134800000Y-73600000D02*
X135399989Y-74199989D01*
X135749998Y-106890732D02*
X136183067Y-107323801D01*
X135399990Y-101401608D02*
X135749998Y-101751616D01*
X135749998Y-101751616D02*
X135749998Y-106890732D01*
X135399989Y-74199989D02*
X135399990Y-101401608D01*
%TO.N,IO2*%
X139300000Y-82100000D02*
X139300000Y-85600000D01*
X121080000Y-92000000D02*
X121000000Y-91920000D01*
X121297831Y-92217831D02*
X121000000Y-91920000D01*
X124867831Y-92217831D02*
X121297831Y-92217831D01*
X128050000Y-90950000D02*
X128600000Y-90400000D01*
X128600000Y-90200000D02*
X128600000Y-82100000D01*
X128600000Y-90400000D02*
X128600000Y-90200000D01*
%TO.N,I35*%
X127000000Y-83507120D02*
X127000000Y-90389998D01*
X127650001Y-77325003D02*
X127650001Y-82857119D01*
X127000000Y-90389998D02*
X127250001Y-90639999D01*
X127650001Y-82857119D02*
X127000000Y-83507120D01*
X127189998Y-76865000D02*
X127650001Y-77325003D01*
X125175687Y-93840000D02*
X124610002Y-93840000D01*
X127250001Y-90639999D02*
X127250001Y-91765686D01*
X127250001Y-91765686D02*
X125175687Y-93840000D01*
X140889998Y-75400000D02*
X144000000Y-75400000D01*
X139400000Y-77750000D02*
X139400000Y-76889998D01*
X139400000Y-76889998D02*
X140889998Y-75400000D01*
X124610002Y-93840000D02*
X123551496Y-94898506D01*
X123551496Y-94898506D02*
X123551496Y-95901315D01*
%TO.N,I36*%
X128800000Y-68500000D02*
X128800000Y-73100000D01*
%TO.N,I39*%
X144000000Y-69200000D02*
X139400000Y-69200000D01*
X127800000Y-69200000D02*
X127800000Y-74300000D01*
%TO.N,I34*%
X129700000Y-75499998D02*
X129599998Y-75600000D01*
X129700000Y-71050000D02*
X129700000Y-75499998D01*
X141850000Y-71050000D02*
X143800000Y-73000000D01*
X139400000Y-71050000D02*
X141850000Y-71050000D01*
%TO.N,IO32*%
X122740000Y-81760000D02*
X121000000Y-81760000D01*
X126400000Y-78100000D02*
X122740000Y-81760000D01*
%TO.N,IO33*%
X121500000Y-84300000D02*
X121000000Y-84300000D01*
X126400000Y-79400000D02*
X121500000Y-84300000D01*
%TO.N,IO14*%
X138350000Y-94089998D02*
X138100001Y-94339997D01*
X138100001Y-96100013D02*
X138500000Y-96500012D01*
X138350000Y-88376087D02*
X138350000Y-94089998D01*
X138100001Y-94339997D02*
X138100001Y-96100013D01*
%TO.N,IO12*%
X137600000Y-95100000D02*
X137600000Y-84100000D01*
X137600000Y-96710002D02*
X137600000Y-95100000D01*
X139350000Y-97300000D02*
X138189998Y-97300000D01*
X138189998Y-97300000D02*
X137600000Y-96710002D01*
%TO.N,IO13*%
X129400000Y-86000000D02*
X130500000Y-84900000D01*
X129400000Y-90900000D02*
X129400000Y-86000000D01*
X124339998Y-91000000D02*
X121000000Y-87660002D01*
X126500000Y-91000000D02*
X124339998Y-91000000D01*
X121000000Y-87660002D02*
X121000000Y-86840000D01*
%TO.N,IO15*%
X136800000Y-77000000D02*
X136800000Y-85000000D01*
X143199994Y-77000000D02*
X144199994Y-78000000D01*
X140400000Y-77000000D02*
X143199994Y-77000000D01*
%TO.N,IO4*%
X144200001Y-90770677D02*
X144200001Y-102257017D01*
X143200000Y-84500000D02*
X143899999Y-85199999D01*
X143899999Y-88399998D02*
X144300002Y-88800001D01*
X144200001Y-102257017D02*
X145100023Y-103157039D01*
X144300002Y-90670676D02*
X144200001Y-90770677D01*
X144300002Y-88800001D02*
X144300002Y-90670676D01*
X143899999Y-85199999D02*
X143899999Y-88399998D01*
%TO.N,IO5*%
X122047000Y-85353000D02*
X122047000Y-85699600D01*
X126900000Y-80500000D02*
X122047000Y-85353000D01*
%TO.N,IO18*%
X141200000Y-84289998D02*
X143029123Y-86119121D01*
X141200000Y-79624998D02*
X141200000Y-84289998D01*
X143029123Y-86119121D02*
X143029123Y-86870928D01*
%TO.N,IO19*%
X144400010Y-88182884D02*
X144400010Y-79492176D01*
X145537471Y-91337449D02*
X145137472Y-90937450D01*
X145137472Y-88920346D02*
X144400010Y-88182884D01*
X145137472Y-90937450D02*
X145137472Y-88920346D01*
X144400010Y-79492176D02*
X143266527Y-78358693D01*
%TO.N,IO22*%
X138550000Y-71850000D02*
X138600000Y-71800000D01*
X138550000Y-84700000D02*
X138550000Y-71850000D01*
%TO.N,IO23*%
X144950219Y-77639915D02*
X144950001Y-77639697D01*
X146400000Y-89380000D02*
X144950219Y-87930219D01*
X144950001Y-77639697D02*
X144950001Y-71950001D01*
X144950001Y-71950001D02*
X143899999Y-70899999D01*
X143899999Y-70899999D02*
X143500000Y-70500000D01*
X144950219Y-87930219D02*
X144950219Y-77639915D01*
D17*
%TO.N,VCC*%
X132200000Y-98208002D02*
X132200000Y-93600000D01*
X132300000Y-98308002D02*
X132200000Y-98208002D01*
X132300000Y-100300000D02*
X132300000Y-98308002D01*
%TD*%
D18*
%TO.N,GND*%
X136698061Y-86035000D02*
X136815001Y-86035000D01*
X136815000Y-95138560D01*
X136815001Y-95138570D01*
X136815000Y-96671449D01*
X136811203Y-96710002D01*
X136815000Y-96748555D01*
X136815000Y-96748562D01*
X136826359Y-96863888D01*
X136871246Y-97011861D01*
X136944138Y-97148234D01*
X137042236Y-97267766D01*
X137072189Y-97292348D01*
X137607655Y-97827815D01*
X137632234Y-97857764D01*
X137662182Y-97882342D01*
X137662185Y-97882345D01*
X137691557Y-97906450D01*
X137751765Y-97955862D01*
X137888138Y-98028754D01*
X138036110Y-98073641D01*
X138050488Y-98075057D01*
X138151437Y-98085000D01*
X138151444Y-98085000D01*
X138189997Y-98088797D01*
X138228550Y-98085000D01*
X138671289Y-98085000D01*
X138690226Y-98103937D01*
X138859744Y-98217205D01*
X139048102Y-98295226D01*
X139248061Y-98335000D01*
X139364987Y-98335000D01*
X139364988Y-100911822D01*
X139358945Y-100973175D01*
X139358945Y-100973182D01*
X139355148Y-101011735D01*
X139358945Y-101050288D01*
X139358946Y-102222509D01*
X139355148Y-102261071D01*
X139370304Y-102414957D01*
X139415191Y-102562930D01*
X139441296Y-102611769D01*
X139488084Y-102699304D01*
X139511344Y-102727646D01*
X139561600Y-102788883D01*
X139561604Y-102788887D01*
X139586182Y-102818835D01*
X139616130Y-102843413D01*
X141354503Y-104581786D01*
X141296063Y-104640226D01*
X141182795Y-104809744D01*
X141104774Y-104998102D01*
X141065000Y-105198061D01*
X141065000Y-105401939D01*
X141104774Y-105601898D01*
X141182795Y-105790256D01*
X141296063Y-105959774D01*
X141315000Y-105978711D01*
X141315001Y-108821288D01*
X141196063Y-108940226D01*
X141082795Y-109109744D01*
X141004774Y-109298102D01*
X140965000Y-109498061D01*
X140965000Y-109701939D01*
X141004774Y-109901898D01*
X141082795Y-110090256D01*
X141196063Y-110259774D01*
X141340226Y-110403937D01*
X141509744Y-110517205D01*
X141698102Y-110595226D01*
X141898061Y-110635000D01*
X142101939Y-110635000D01*
X142301898Y-110595226D01*
X142490256Y-110517205D01*
X142659774Y-110403937D01*
X142803937Y-110259774D01*
X142917205Y-110090256D01*
X142995226Y-109901898D01*
X143035000Y-109701939D01*
X143035000Y-109498061D01*
X142995226Y-109298102D01*
X142917205Y-109109744D01*
X142885000Y-109061546D01*
X142885000Y-105978711D01*
X142903937Y-105959774D01*
X143017205Y-105790256D01*
X143065001Y-105674866D01*
X143065001Y-107311446D01*
X143061204Y-107349999D01*
X143065001Y-107388552D01*
X143065001Y-107388559D01*
X143076360Y-107503885D01*
X143121247Y-107651858D01*
X143194139Y-107788231D01*
X143292237Y-107907763D01*
X143322191Y-107932346D01*
X143465002Y-108075157D01*
X143465001Y-110051448D01*
X143461204Y-110090001D01*
X143465001Y-110128554D01*
X143465001Y-110128561D01*
X143476360Y-110243887D01*
X143521247Y-110391860D01*
X143594139Y-110528233D01*
X143692237Y-110647765D01*
X143722191Y-110672348D01*
X144952925Y-111903082D01*
X144915000Y-112093740D01*
X144915000Y-112386260D01*
X144972068Y-112673158D01*
X145084010Y-112943411D01*
X145246525Y-113186632D01*
X145453368Y-113393475D01*
X145696589Y-113555990D01*
X145966842Y-113667932D01*
X146253740Y-113725000D01*
X146546260Y-113725000D01*
X146833158Y-113667932D01*
X147103411Y-113555990D01*
X147346632Y-113393475D01*
X147540000Y-113200107D01*
X147540000Y-116010856D01*
X147358363Y-115739017D01*
X147060983Y-115441637D01*
X146711302Y-115207988D01*
X146322756Y-115047047D01*
X145910279Y-114965000D01*
X145489721Y-114965000D01*
X145077244Y-115047047D01*
X144688698Y-115207988D01*
X144339017Y-115441637D01*
X144041637Y-115739017D01*
X143807988Y-116088698D01*
X143647047Y-116477244D01*
X143565000Y-116889721D01*
X143565000Y-117310279D01*
X143647047Y-117722756D01*
X143807988Y-118111302D01*
X144041637Y-118460983D01*
X144339017Y-118758363D01*
X144610856Y-118940000D01*
X142882244Y-118940000D01*
X142894407Y-118899904D01*
X142913000Y-118711122D01*
X142913000Y-117684877D01*
X142894407Y-117496096D01*
X142820929Y-117253873D01*
X142701608Y-117030638D01*
X142541028Y-116834972D01*
X142345361Y-116674392D01*
X142122126Y-116555071D01*
X141879903Y-116481593D01*
X141628000Y-116456783D01*
X141376096Y-116481593D01*
X141133873Y-116555071D01*
X140910638Y-116674392D01*
X140714972Y-116834972D01*
X140554392Y-117030639D01*
X140435071Y-117253874D01*
X140361593Y-117496097D01*
X140343000Y-117684878D01*
X140343000Y-118711123D01*
X140361593Y-118899904D01*
X140373756Y-118940000D01*
X135643244Y-118940000D01*
X135655407Y-118899904D01*
X135674000Y-118711122D01*
X135674000Y-117684877D01*
X135655407Y-117496096D01*
X135581929Y-117253873D01*
X135462608Y-117030638D01*
X135302028Y-116834972D01*
X135106361Y-116674392D01*
X134883126Y-116555071D01*
X134640903Y-116481593D01*
X134389000Y-116456783D01*
X134137096Y-116481593D01*
X133894873Y-116555071D01*
X133671638Y-116674392D01*
X133475972Y-116834972D01*
X133315392Y-117030639D01*
X133196071Y-117253874D01*
X133122593Y-117496097D01*
X133104000Y-117684878D01*
X133104000Y-118711123D01*
X133122593Y-118899904D01*
X133134756Y-118940000D01*
X122789144Y-118940000D01*
X123060983Y-118758363D01*
X123358363Y-118460983D01*
X123592012Y-118111302D01*
X123752953Y-117722756D01*
X123835000Y-117310279D01*
X123835000Y-116889721D01*
X123752953Y-116477244D01*
X123592012Y-116088698D01*
X123358363Y-115739017D01*
X123060983Y-115441637D01*
X122963294Y-115376363D01*
X134349000Y-115376363D01*
X134349000Y-115619637D01*
X134396460Y-115858236D01*
X134489557Y-116082992D01*
X134624713Y-116285267D01*
X134796733Y-116457287D01*
X134999008Y-116592443D01*
X135223764Y-116685540D01*
X135462363Y-116733000D01*
X135705637Y-116733000D01*
X135944236Y-116685540D01*
X136168992Y-116592443D01*
X136371267Y-116457287D01*
X136543287Y-116285267D01*
X136678443Y-116082992D01*
X136771540Y-115858236D01*
X136819000Y-115619637D01*
X136819000Y-115376363D01*
X139199000Y-115376363D01*
X139199000Y-115619637D01*
X139246460Y-115858236D01*
X139339557Y-116082992D01*
X139474713Y-116285267D01*
X139646733Y-116457287D01*
X139849008Y-116592443D01*
X140073764Y-116685540D01*
X140312363Y-116733000D01*
X140555637Y-116733000D01*
X140794236Y-116685540D01*
X141018992Y-116592443D01*
X141221267Y-116457287D01*
X141393287Y-116285267D01*
X141528443Y-116082992D01*
X141621540Y-115858236D01*
X141669000Y-115619637D01*
X141669000Y-115376363D01*
X141621540Y-115137764D01*
X141528443Y-114913008D01*
X141393287Y-114710733D01*
X141221267Y-114538713D01*
X141018992Y-114403557D01*
X140794236Y-114310460D01*
X140555637Y-114263000D01*
X140312363Y-114263000D01*
X140073764Y-114310460D01*
X139849008Y-114403557D01*
X139646733Y-114538713D01*
X139474713Y-114710733D01*
X139339557Y-114913008D01*
X139246460Y-115137764D01*
X139199000Y-115376363D01*
X136819000Y-115376363D01*
X136771540Y-115137764D01*
X136678443Y-114913008D01*
X136543287Y-114710733D01*
X136371267Y-114538713D01*
X136168992Y-114403557D01*
X135944236Y-114310460D01*
X135705637Y-114263000D01*
X135462363Y-114263000D01*
X135223764Y-114310460D01*
X134999008Y-114403557D01*
X134796733Y-114538713D01*
X134624713Y-114710733D01*
X134489557Y-114913008D01*
X134396460Y-115137764D01*
X134349000Y-115376363D01*
X122963294Y-115376363D01*
X122711302Y-115207988D01*
X122322756Y-115047047D01*
X121910279Y-114965000D01*
X121489721Y-114965000D01*
X121077244Y-115047047D01*
X120688698Y-115207988D01*
X120339017Y-115441637D01*
X120041637Y-115739017D01*
X119860000Y-116010856D01*
X119860000Y-113200107D01*
X120053368Y-113393475D01*
X120296589Y-113555990D01*
X120566842Y-113667932D01*
X120853740Y-113725000D01*
X121146260Y-113725000D01*
X121433158Y-113667932D01*
X121703411Y-113555990D01*
X121946632Y-113393475D01*
X122153475Y-113186632D01*
X122315990Y-112943411D01*
X122427932Y-112673158D01*
X122485000Y-112386260D01*
X122485000Y-112093740D01*
X122427932Y-111806842D01*
X122424295Y-111798061D01*
X137165000Y-111798061D01*
X137165000Y-112001939D01*
X137204774Y-112201898D01*
X137282795Y-112390256D01*
X137396063Y-112559774D01*
X137540226Y-112703937D01*
X137709744Y-112817205D01*
X137898102Y-112895226D01*
X138098061Y-112935000D01*
X138301939Y-112935000D01*
X138501898Y-112895226D01*
X138690256Y-112817205D01*
X138859774Y-112703937D01*
X138878711Y-112685000D01*
X142561546Y-112685000D01*
X142609744Y-112717205D01*
X142798102Y-112795226D01*
X142998061Y-112835000D01*
X143201939Y-112835000D01*
X143401898Y-112795226D01*
X143590256Y-112717205D01*
X143759774Y-112603937D01*
X143903937Y-112459774D01*
X144017205Y-112290256D01*
X144095226Y-112101898D01*
X144135000Y-111901939D01*
X144135000Y-111698061D01*
X144095226Y-111498102D01*
X144017205Y-111309744D01*
X143903937Y-111140226D01*
X143759774Y-110996063D01*
X143590256Y-110882795D01*
X143401898Y-110804774D01*
X143201939Y-110765000D01*
X142998061Y-110765000D01*
X142798102Y-110804774D01*
X142609744Y-110882795D01*
X142561546Y-110915000D01*
X138526586Y-110915000D01*
X138501898Y-110904774D01*
X138301939Y-110865000D01*
X138098061Y-110865000D01*
X137898102Y-110904774D01*
X137709744Y-110982795D01*
X137540226Y-111096063D01*
X137396063Y-111240226D01*
X137282795Y-111409744D01*
X137204774Y-111598102D01*
X137165000Y-111798061D01*
X122424295Y-111798061D01*
X122315990Y-111536589D01*
X122153475Y-111293368D01*
X121946632Y-111086525D01*
X121772240Y-110970000D01*
X121946632Y-110853475D01*
X122153475Y-110646632D01*
X122315990Y-110403411D01*
X122427932Y-110133158D01*
X122485000Y-109846260D01*
X122485000Y-109553740D01*
X122427932Y-109266842D01*
X122315990Y-108996589D01*
X122153475Y-108753368D01*
X121946632Y-108546525D01*
X121772240Y-108430000D01*
X121946632Y-108313475D01*
X122153475Y-108106632D01*
X122315990Y-107863411D01*
X122427932Y-107593158D01*
X122485000Y-107306260D01*
X122485000Y-107013740D01*
X122427932Y-106726842D01*
X122403043Y-106666754D01*
X122440226Y-106703937D01*
X122609744Y-106817205D01*
X122798102Y-106895226D01*
X122998061Y-106935000D01*
X123201939Y-106935000D01*
X123401898Y-106895226D01*
X123590256Y-106817205D01*
X123759774Y-106703937D01*
X123863711Y-106600000D01*
X126065000Y-106600000D01*
X126065000Y-109300000D01*
X126077201Y-109423882D01*
X126113336Y-109543004D01*
X126172017Y-109652787D01*
X126250987Y-109749013D01*
X126347213Y-109827983D01*
X126456996Y-109886664D01*
X126576118Y-109922799D01*
X126700000Y-109935000D01*
X129500000Y-109935000D01*
X129623882Y-109922799D01*
X129743004Y-109886664D01*
X129852787Y-109827983D01*
X129949013Y-109749013D01*
X130027983Y-109652787D01*
X130086664Y-109543004D01*
X130122799Y-109423882D01*
X130135000Y-109300000D01*
X130135000Y-106600000D01*
X130122799Y-106476118D01*
X130086664Y-106356996D01*
X130027983Y-106247213D01*
X129949013Y-106150987D01*
X129852787Y-106072017D01*
X129743004Y-106013336D01*
X129623882Y-105977201D01*
X129500000Y-105965000D01*
X126700000Y-105965000D01*
X126576118Y-105977201D01*
X126456996Y-106013336D01*
X126347213Y-106072017D01*
X126250987Y-106150987D01*
X126172017Y-106247213D01*
X126113336Y-106356996D01*
X126077201Y-106476118D01*
X126065000Y-106600000D01*
X123863711Y-106600000D01*
X123903937Y-106559774D01*
X124017205Y-106390256D01*
X124095226Y-106201898D01*
X124135000Y-106001939D01*
X124135000Y-105798061D01*
X124095226Y-105598102D01*
X124017205Y-105409744D01*
X123903937Y-105240226D01*
X123885000Y-105221289D01*
X123885000Y-101832402D01*
X123898061Y-101835000D01*
X124101939Y-101835000D01*
X124301898Y-101795226D01*
X124490256Y-101717205D01*
X124659774Y-101603937D01*
X124678711Y-101585000D01*
X128371289Y-101585000D01*
X128440226Y-101653937D01*
X128609744Y-101767205D01*
X128798102Y-101845226D01*
X128998061Y-101885000D01*
X129201939Y-101885000D01*
X129401898Y-101845226D01*
X129590256Y-101767205D01*
X129759774Y-101653937D01*
X129903937Y-101509774D01*
X130017205Y-101340256D01*
X130095226Y-101151898D01*
X130135000Y-100951939D01*
X130135000Y-100748061D01*
X130095226Y-100548102D01*
X130017205Y-100359744D01*
X129903937Y-100190226D01*
X129759774Y-100046063D01*
X129590256Y-99932795D01*
X129401898Y-99854774D01*
X129201939Y-99815000D01*
X128998061Y-99815000D01*
X128798102Y-99854774D01*
X128609744Y-99932795D01*
X128486715Y-100015000D01*
X124933533Y-100015000D01*
X125031411Y-99962684D01*
X125150942Y-99864586D01*
X125175525Y-99834632D01*
X126175158Y-98835000D01*
X126201939Y-98835000D01*
X126401898Y-98795226D01*
X126590256Y-98717205D01*
X126759774Y-98603937D01*
X126903937Y-98459774D01*
X127017205Y-98290256D01*
X127095226Y-98101898D01*
X127135000Y-97901939D01*
X127135000Y-97698061D01*
X127095226Y-97498102D01*
X127017205Y-97309744D01*
X126903937Y-97140226D01*
X126759774Y-96996063D01*
X126590256Y-96882795D01*
X126401898Y-96804774D01*
X126201939Y-96765000D01*
X125998061Y-96765000D01*
X125798102Y-96804774D01*
X125609744Y-96882795D01*
X125440226Y-96996063D01*
X125296063Y-97140226D01*
X125182795Y-97309744D01*
X125104774Y-97498102D01*
X125065000Y-97698061D01*
X125065000Y-97724842D01*
X124334608Y-98455235D01*
X124236403Y-98389617D01*
X124048045Y-98311596D01*
X123848086Y-98271822D01*
X123644208Y-98271822D01*
X123444249Y-98311596D01*
X123255891Y-98389617D01*
X123086373Y-98502885D01*
X122942210Y-98647048D01*
X122828942Y-98816566D01*
X122750921Y-99004924D01*
X122711147Y-99204883D01*
X122711147Y-99408761D01*
X122750921Y-99608720D01*
X122828942Y-99797078D01*
X122942210Y-99966596D01*
X123086373Y-100110759D01*
X123175818Y-100170524D01*
X123082795Y-100309744D01*
X123023369Y-100453211D01*
X122447075Y-99876918D01*
X122485000Y-99686260D01*
X122485000Y-99393740D01*
X122427932Y-99106842D01*
X122315990Y-98836589D01*
X122153475Y-98593368D01*
X121946632Y-98386525D01*
X121772240Y-98270000D01*
X121946632Y-98153475D01*
X122153475Y-97946632D01*
X122315990Y-97703411D01*
X122427932Y-97433158D01*
X122485000Y-97146260D01*
X122485000Y-96853740D01*
X122427932Y-96566842D01*
X122315990Y-96296589D01*
X122153475Y-96053368D01*
X121946632Y-95846525D01*
X121772240Y-95730000D01*
X121946632Y-95613475D01*
X122153475Y-95406632D01*
X122315990Y-95163411D01*
X122427932Y-94893158D01*
X122485000Y-94606260D01*
X122485000Y-94313740D01*
X122427932Y-94026842D01*
X122315990Y-93756589D01*
X122153475Y-93513368D01*
X121946632Y-93306525D01*
X121772240Y-93190000D01*
X121946632Y-93073475D01*
X122017276Y-93002831D01*
X123999963Y-93002831D01*
X123950228Y-93036063D01*
X123806065Y-93180226D01*
X123692797Y-93349744D01*
X123614776Y-93538102D01*
X123575002Y-93738061D01*
X123575002Y-93764843D01*
X123023686Y-94316159D01*
X122993732Y-94340742D01*
X122895634Y-94460274D01*
X122822742Y-94596647D01*
X122777855Y-94744620D01*
X122766496Y-94859946D01*
X122766496Y-94859953D01*
X122762699Y-94898506D01*
X122766496Y-94937059D01*
X122766496Y-95222604D01*
X122747559Y-95241541D01*
X122634291Y-95411059D01*
X122556270Y-95599417D01*
X122516496Y-95799376D01*
X122516496Y-96003254D01*
X122556270Y-96203213D01*
X122634291Y-96391571D01*
X122747559Y-96561089D01*
X122891722Y-96705252D01*
X123061240Y-96818520D01*
X123249598Y-96896541D01*
X123449557Y-96936315D01*
X123653435Y-96936315D01*
X123853394Y-96896541D01*
X124041752Y-96818520D01*
X124211270Y-96705252D01*
X124355433Y-96561089D01*
X124468701Y-96391571D01*
X124546722Y-96203213D01*
X124586496Y-96003254D01*
X124586496Y-95799376D01*
X124546722Y-95599417D01*
X124468701Y-95411059D01*
X124355433Y-95241541D01*
X124337026Y-95223134D01*
X124685159Y-94875000D01*
X124711941Y-94875000D01*
X124911900Y-94835226D01*
X125100258Y-94757205D01*
X125269776Y-94643937D01*
X125296849Y-94616864D01*
X125329574Y-94613641D01*
X125477547Y-94568754D01*
X125613920Y-94495862D01*
X125733451Y-94397764D01*
X125758034Y-94367810D01*
X126609176Y-93516668D01*
X126672795Y-93670256D01*
X126786063Y-93839774D01*
X126930226Y-93983937D01*
X127099744Y-94097205D01*
X127288102Y-94175226D01*
X127488061Y-94215000D01*
X127691939Y-94215000D01*
X127891898Y-94175226D01*
X128080256Y-94097205D01*
X128249774Y-93983937D01*
X128393937Y-93839774D01*
X128507205Y-93670256D01*
X128585226Y-93481898D01*
X128625000Y-93281939D01*
X128625000Y-93255157D01*
X129345148Y-92535010D01*
X132061514Y-92535010D01*
X132100067Y-92538807D01*
X132138620Y-92535010D01*
X132138628Y-92535010D01*
X132253954Y-92523651D01*
X132401927Y-92478764D01*
X132538300Y-92405872D01*
X132563638Y-92385077D01*
X132601939Y-92385077D01*
X132707970Y-92363986D01*
X132707970Y-92694631D01*
X132690256Y-92682795D01*
X132501898Y-92604774D01*
X132301939Y-92565000D01*
X132098061Y-92565000D01*
X131898102Y-92604774D01*
X131709744Y-92682795D01*
X131540226Y-92796063D01*
X131396063Y-92940226D01*
X131282795Y-93109744D01*
X131204774Y-93298102D01*
X131165000Y-93498061D01*
X131165000Y-93701939D01*
X131204774Y-93901898D01*
X131282795Y-94090256D01*
X131315001Y-94138456D01*
X131315000Y-98164533D01*
X131310719Y-98208002D01*
X131315000Y-98251471D01*
X131315000Y-98251478D01*
X131327805Y-98381491D01*
X131378411Y-98548314D01*
X131415001Y-98616770D01*
X131415000Y-99761545D01*
X131382795Y-99809744D01*
X131304774Y-99998102D01*
X131265000Y-100198061D01*
X131265000Y-100401939D01*
X131304774Y-100601898D01*
X131382795Y-100790256D01*
X131496063Y-100959774D01*
X131640226Y-101103937D01*
X131809744Y-101217205D01*
X131998102Y-101295226D01*
X132198061Y-101335000D01*
X132401939Y-101335000D01*
X132601898Y-101295226D01*
X132790256Y-101217205D01*
X132959774Y-101103937D01*
X133103937Y-100959774D01*
X133217205Y-100790256D01*
X133295226Y-100601898D01*
X133335000Y-100401939D01*
X133335000Y-100198061D01*
X133295226Y-99998102D01*
X133217205Y-99809744D01*
X133185000Y-99761546D01*
X133185000Y-98351467D01*
X133189281Y-98308001D01*
X133185000Y-98264535D01*
X133185000Y-98264525D01*
X133172195Y-98134512D01*
X133121589Y-97967689D01*
X133085000Y-97899235D01*
X133085000Y-96693556D01*
X133196063Y-96859774D01*
X133340226Y-97003937D01*
X133509744Y-97117205D01*
X133698102Y-97195226D01*
X133898061Y-97235000D01*
X134065001Y-97235000D01*
X134065001Y-101461762D01*
X134027958Y-101517201D01*
X133949937Y-101705559D01*
X133910163Y-101905518D01*
X133910163Y-102109396D01*
X133949937Y-102309355D01*
X134027958Y-102497713D01*
X134141226Y-102667231D01*
X134285389Y-102811394D01*
X134454907Y-102924662D01*
X134643265Y-103002683D01*
X134843224Y-103042457D01*
X134964998Y-103042457D01*
X134964999Y-106852169D01*
X134961201Y-106890732D01*
X134976357Y-107044618D01*
X135021244Y-107192591D01*
X135054007Y-107253887D01*
X135094137Y-107328965D01*
X135130385Y-107373133D01*
X135148067Y-107394678D01*
X135148067Y-107425740D01*
X135187841Y-107625699D01*
X135265862Y-107814057D01*
X135379130Y-107983575D01*
X135402930Y-108007375D01*
X135365000Y-108198061D01*
X135365000Y-108401939D01*
X135404774Y-108601898D01*
X135482795Y-108790256D01*
X135596063Y-108959774D01*
X135740226Y-109103937D01*
X135909744Y-109217205D01*
X136098102Y-109295226D01*
X136298061Y-109335000D01*
X136501939Y-109335000D01*
X136701898Y-109295226D01*
X136890256Y-109217205D01*
X137059774Y-109103937D01*
X137203937Y-108959774D01*
X137317205Y-108790256D01*
X137395226Y-108601898D01*
X137435000Y-108401939D01*
X137435000Y-108375157D01*
X138127815Y-107682342D01*
X138157764Y-107657764D01*
X138184080Y-107625699D01*
X138208362Y-107596111D01*
X138255862Y-107538233D01*
X138328754Y-107401860D01*
X138373641Y-107253887D01*
X138385000Y-107138561D01*
X138385000Y-107138554D01*
X138388797Y-107100001D01*
X138385000Y-107061448D01*
X138385000Y-104278711D01*
X138403937Y-104259774D01*
X138517205Y-104090256D01*
X138595226Y-103901898D01*
X138635000Y-103701939D01*
X138635000Y-103498061D01*
X138595226Y-103298102D01*
X138517205Y-103109744D01*
X138403937Y-102940226D01*
X138259774Y-102796063D01*
X138090256Y-102682795D01*
X137901898Y-102604774D01*
X137701939Y-102565000D01*
X137498061Y-102565000D01*
X137298102Y-102604774D01*
X137292579Y-102607062D01*
X137292579Y-101840627D01*
X137296376Y-101802074D01*
X137292579Y-101763521D01*
X137292579Y-101763514D01*
X137281786Y-101653937D01*
X137281220Y-101648187D01*
X137265913Y-101597729D01*
X137236333Y-101500215D01*
X137163441Y-101363842D01*
X137114029Y-101303634D01*
X137089924Y-101274262D01*
X137089921Y-101274259D01*
X137065343Y-101244311D01*
X137035395Y-101219733D01*
X136685000Y-100869339D01*
X136685000Y-86032402D01*
X136698061Y-86035000D01*
%TA.AperFunction,Conductor*%
D19*
G36*
X136698061Y-86035000D02*
G01*
X136815001Y-86035000D01*
X136815000Y-95138560D01*
X136815001Y-95138570D01*
X136815000Y-96671449D01*
X136811203Y-96710002D01*
X136815000Y-96748555D01*
X136815000Y-96748562D01*
X136826359Y-96863888D01*
X136871246Y-97011861D01*
X136944138Y-97148234D01*
X137042236Y-97267766D01*
X137072189Y-97292348D01*
X137607655Y-97827815D01*
X137632234Y-97857764D01*
X137662182Y-97882342D01*
X137662185Y-97882345D01*
X137691557Y-97906450D01*
X137751765Y-97955862D01*
X137888138Y-98028754D01*
X138036110Y-98073641D01*
X138050488Y-98075057D01*
X138151437Y-98085000D01*
X138151444Y-98085000D01*
X138189997Y-98088797D01*
X138228550Y-98085000D01*
X138671289Y-98085000D01*
X138690226Y-98103937D01*
X138859744Y-98217205D01*
X139048102Y-98295226D01*
X139248061Y-98335000D01*
X139364987Y-98335000D01*
X139364988Y-100911822D01*
X139358945Y-100973175D01*
X139358945Y-100973182D01*
X139355148Y-101011735D01*
X139358945Y-101050288D01*
X139358946Y-102222509D01*
X139355148Y-102261071D01*
X139370304Y-102414957D01*
X139415191Y-102562930D01*
X139441296Y-102611769D01*
X139488084Y-102699304D01*
X139511344Y-102727646D01*
X139561600Y-102788883D01*
X139561604Y-102788887D01*
X139586182Y-102818835D01*
X139616130Y-102843413D01*
X141354503Y-104581786D01*
X141296063Y-104640226D01*
X141182795Y-104809744D01*
X141104774Y-104998102D01*
X141065000Y-105198061D01*
X141065000Y-105401939D01*
X141104774Y-105601898D01*
X141182795Y-105790256D01*
X141296063Y-105959774D01*
X141315000Y-105978711D01*
X141315001Y-108821288D01*
X141196063Y-108940226D01*
X141082795Y-109109744D01*
X141004774Y-109298102D01*
X140965000Y-109498061D01*
X140965000Y-109701939D01*
X141004774Y-109901898D01*
X141082795Y-110090256D01*
X141196063Y-110259774D01*
X141340226Y-110403937D01*
X141509744Y-110517205D01*
X141698102Y-110595226D01*
X141898061Y-110635000D01*
X142101939Y-110635000D01*
X142301898Y-110595226D01*
X142490256Y-110517205D01*
X142659774Y-110403937D01*
X142803937Y-110259774D01*
X142917205Y-110090256D01*
X142995226Y-109901898D01*
X143035000Y-109701939D01*
X143035000Y-109498061D01*
X142995226Y-109298102D01*
X142917205Y-109109744D01*
X142885000Y-109061546D01*
X142885000Y-105978711D01*
X142903937Y-105959774D01*
X143017205Y-105790256D01*
X143065001Y-105674866D01*
X143065001Y-107311446D01*
X143061204Y-107349999D01*
X143065001Y-107388552D01*
X143065001Y-107388559D01*
X143076360Y-107503885D01*
X143121247Y-107651858D01*
X143194139Y-107788231D01*
X143292237Y-107907763D01*
X143322191Y-107932346D01*
X143465002Y-108075157D01*
X143465001Y-110051448D01*
X143461204Y-110090001D01*
X143465001Y-110128554D01*
X143465001Y-110128561D01*
X143476360Y-110243887D01*
X143521247Y-110391860D01*
X143594139Y-110528233D01*
X143692237Y-110647765D01*
X143722191Y-110672348D01*
X144952925Y-111903082D01*
X144915000Y-112093740D01*
X144915000Y-112386260D01*
X144972068Y-112673158D01*
X145084010Y-112943411D01*
X145246525Y-113186632D01*
X145453368Y-113393475D01*
X145696589Y-113555990D01*
X145966842Y-113667932D01*
X146253740Y-113725000D01*
X146546260Y-113725000D01*
X146833158Y-113667932D01*
X147103411Y-113555990D01*
X147346632Y-113393475D01*
X147540000Y-113200107D01*
X147540000Y-116010856D01*
X147358363Y-115739017D01*
X147060983Y-115441637D01*
X146711302Y-115207988D01*
X146322756Y-115047047D01*
X145910279Y-114965000D01*
X145489721Y-114965000D01*
X145077244Y-115047047D01*
X144688698Y-115207988D01*
X144339017Y-115441637D01*
X144041637Y-115739017D01*
X143807988Y-116088698D01*
X143647047Y-116477244D01*
X143565000Y-116889721D01*
X143565000Y-117310279D01*
X143647047Y-117722756D01*
X143807988Y-118111302D01*
X144041637Y-118460983D01*
X144339017Y-118758363D01*
X144610856Y-118940000D01*
X142882244Y-118940000D01*
X142894407Y-118899904D01*
X142913000Y-118711122D01*
X142913000Y-117684877D01*
X142894407Y-117496096D01*
X142820929Y-117253873D01*
X142701608Y-117030638D01*
X142541028Y-116834972D01*
X142345361Y-116674392D01*
X142122126Y-116555071D01*
X141879903Y-116481593D01*
X141628000Y-116456783D01*
X141376096Y-116481593D01*
X141133873Y-116555071D01*
X140910638Y-116674392D01*
X140714972Y-116834972D01*
X140554392Y-117030639D01*
X140435071Y-117253874D01*
X140361593Y-117496097D01*
X140343000Y-117684878D01*
X140343000Y-118711123D01*
X140361593Y-118899904D01*
X140373756Y-118940000D01*
X135643244Y-118940000D01*
X135655407Y-118899904D01*
X135674000Y-118711122D01*
X135674000Y-117684877D01*
X135655407Y-117496096D01*
X135581929Y-117253873D01*
X135462608Y-117030638D01*
X135302028Y-116834972D01*
X135106361Y-116674392D01*
X134883126Y-116555071D01*
X134640903Y-116481593D01*
X134389000Y-116456783D01*
X134137096Y-116481593D01*
X133894873Y-116555071D01*
X133671638Y-116674392D01*
X133475972Y-116834972D01*
X133315392Y-117030639D01*
X133196071Y-117253874D01*
X133122593Y-117496097D01*
X133104000Y-117684878D01*
X133104000Y-118711123D01*
X133122593Y-118899904D01*
X133134756Y-118940000D01*
X122789144Y-118940000D01*
X123060983Y-118758363D01*
X123358363Y-118460983D01*
X123592012Y-118111302D01*
X123752953Y-117722756D01*
X123835000Y-117310279D01*
X123835000Y-116889721D01*
X123752953Y-116477244D01*
X123592012Y-116088698D01*
X123358363Y-115739017D01*
X123060983Y-115441637D01*
X122963294Y-115376363D01*
X134349000Y-115376363D01*
X134349000Y-115619637D01*
X134396460Y-115858236D01*
X134489557Y-116082992D01*
X134624713Y-116285267D01*
X134796733Y-116457287D01*
X134999008Y-116592443D01*
X135223764Y-116685540D01*
X135462363Y-116733000D01*
X135705637Y-116733000D01*
X135944236Y-116685540D01*
X136168992Y-116592443D01*
X136371267Y-116457287D01*
X136543287Y-116285267D01*
X136678443Y-116082992D01*
X136771540Y-115858236D01*
X136819000Y-115619637D01*
X136819000Y-115376363D01*
X139199000Y-115376363D01*
X139199000Y-115619637D01*
X139246460Y-115858236D01*
X139339557Y-116082992D01*
X139474713Y-116285267D01*
X139646733Y-116457287D01*
X139849008Y-116592443D01*
X140073764Y-116685540D01*
X140312363Y-116733000D01*
X140555637Y-116733000D01*
X140794236Y-116685540D01*
X141018992Y-116592443D01*
X141221267Y-116457287D01*
X141393287Y-116285267D01*
X141528443Y-116082992D01*
X141621540Y-115858236D01*
X141669000Y-115619637D01*
X141669000Y-115376363D01*
X141621540Y-115137764D01*
X141528443Y-114913008D01*
X141393287Y-114710733D01*
X141221267Y-114538713D01*
X141018992Y-114403557D01*
X140794236Y-114310460D01*
X140555637Y-114263000D01*
X140312363Y-114263000D01*
X140073764Y-114310460D01*
X139849008Y-114403557D01*
X139646733Y-114538713D01*
X139474713Y-114710733D01*
X139339557Y-114913008D01*
X139246460Y-115137764D01*
X139199000Y-115376363D01*
X136819000Y-115376363D01*
X136771540Y-115137764D01*
X136678443Y-114913008D01*
X136543287Y-114710733D01*
X136371267Y-114538713D01*
X136168992Y-114403557D01*
X135944236Y-114310460D01*
X135705637Y-114263000D01*
X135462363Y-114263000D01*
X135223764Y-114310460D01*
X134999008Y-114403557D01*
X134796733Y-114538713D01*
X134624713Y-114710733D01*
X134489557Y-114913008D01*
X134396460Y-115137764D01*
X134349000Y-115376363D01*
X122963294Y-115376363D01*
X122711302Y-115207988D01*
X122322756Y-115047047D01*
X121910279Y-114965000D01*
X121489721Y-114965000D01*
X121077244Y-115047047D01*
X120688698Y-115207988D01*
X120339017Y-115441637D01*
X120041637Y-115739017D01*
X119860000Y-116010856D01*
X119860000Y-113200107D01*
X120053368Y-113393475D01*
X120296589Y-113555990D01*
X120566842Y-113667932D01*
X120853740Y-113725000D01*
X121146260Y-113725000D01*
X121433158Y-113667932D01*
X121703411Y-113555990D01*
X121946632Y-113393475D01*
X122153475Y-113186632D01*
X122315990Y-112943411D01*
X122427932Y-112673158D01*
X122485000Y-112386260D01*
X122485000Y-112093740D01*
X122427932Y-111806842D01*
X122424295Y-111798061D01*
X137165000Y-111798061D01*
X137165000Y-112001939D01*
X137204774Y-112201898D01*
X137282795Y-112390256D01*
X137396063Y-112559774D01*
X137540226Y-112703937D01*
X137709744Y-112817205D01*
X137898102Y-112895226D01*
X138098061Y-112935000D01*
X138301939Y-112935000D01*
X138501898Y-112895226D01*
X138690256Y-112817205D01*
X138859774Y-112703937D01*
X138878711Y-112685000D01*
X142561546Y-112685000D01*
X142609744Y-112717205D01*
X142798102Y-112795226D01*
X142998061Y-112835000D01*
X143201939Y-112835000D01*
X143401898Y-112795226D01*
X143590256Y-112717205D01*
X143759774Y-112603937D01*
X143903937Y-112459774D01*
X144017205Y-112290256D01*
X144095226Y-112101898D01*
X144135000Y-111901939D01*
X144135000Y-111698061D01*
X144095226Y-111498102D01*
X144017205Y-111309744D01*
X143903937Y-111140226D01*
X143759774Y-110996063D01*
X143590256Y-110882795D01*
X143401898Y-110804774D01*
X143201939Y-110765000D01*
X142998061Y-110765000D01*
X142798102Y-110804774D01*
X142609744Y-110882795D01*
X142561546Y-110915000D01*
X138526586Y-110915000D01*
X138501898Y-110904774D01*
X138301939Y-110865000D01*
X138098061Y-110865000D01*
X137898102Y-110904774D01*
X137709744Y-110982795D01*
X137540226Y-111096063D01*
X137396063Y-111240226D01*
X137282795Y-111409744D01*
X137204774Y-111598102D01*
X137165000Y-111798061D01*
X122424295Y-111798061D01*
X122315990Y-111536589D01*
X122153475Y-111293368D01*
X121946632Y-111086525D01*
X121772240Y-110970000D01*
X121946632Y-110853475D01*
X122153475Y-110646632D01*
X122315990Y-110403411D01*
X122427932Y-110133158D01*
X122485000Y-109846260D01*
X122485000Y-109553740D01*
X122427932Y-109266842D01*
X122315990Y-108996589D01*
X122153475Y-108753368D01*
X121946632Y-108546525D01*
X121772240Y-108430000D01*
X121946632Y-108313475D01*
X122153475Y-108106632D01*
X122315990Y-107863411D01*
X122427932Y-107593158D01*
X122485000Y-107306260D01*
X122485000Y-107013740D01*
X122427932Y-106726842D01*
X122403043Y-106666754D01*
X122440226Y-106703937D01*
X122609744Y-106817205D01*
X122798102Y-106895226D01*
X122998061Y-106935000D01*
X123201939Y-106935000D01*
X123401898Y-106895226D01*
X123590256Y-106817205D01*
X123759774Y-106703937D01*
X123863711Y-106600000D01*
X126065000Y-106600000D01*
X126065000Y-109300000D01*
X126077201Y-109423882D01*
X126113336Y-109543004D01*
X126172017Y-109652787D01*
X126250987Y-109749013D01*
X126347213Y-109827983D01*
X126456996Y-109886664D01*
X126576118Y-109922799D01*
X126700000Y-109935000D01*
X129500000Y-109935000D01*
X129623882Y-109922799D01*
X129743004Y-109886664D01*
X129852787Y-109827983D01*
X129949013Y-109749013D01*
X130027983Y-109652787D01*
X130086664Y-109543004D01*
X130122799Y-109423882D01*
X130135000Y-109300000D01*
X130135000Y-106600000D01*
X130122799Y-106476118D01*
X130086664Y-106356996D01*
X130027983Y-106247213D01*
X129949013Y-106150987D01*
X129852787Y-106072017D01*
X129743004Y-106013336D01*
X129623882Y-105977201D01*
X129500000Y-105965000D01*
X126700000Y-105965000D01*
X126576118Y-105977201D01*
X126456996Y-106013336D01*
X126347213Y-106072017D01*
X126250987Y-106150987D01*
X126172017Y-106247213D01*
X126113336Y-106356996D01*
X126077201Y-106476118D01*
X126065000Y-106600000D01*
X123863711Y-106600000D01*
X123903937Y-106559774D01*
X124017205Y-106390256D01*
X124095226Y-106201898D01*
X124135000Y-106001939D01*
X124135000Y-105798061D01*
X124095226Y-105598102D01*
X124017205Y-105409744D01*
X123903937Y-105240226D01*
X123885000Y-105221289D01*
X123885000Y-101832402D01*
X123898061Y-101835000D01*
X124101939Y-101835000D01*
X124301898Y-101795226D01*
X124490256Y-101717205D01*
X124659774Y-101603937D01*
X124678711Y-101585000D01*
X128371289Y-101585000D01*
X128440226Y-101653937D01*
X128609744Y-101767205D01*
X128798102Y-101845226D01*
X128998061Y-101885000D01*
X129201939Y-101885000D01*
X129401898Y-101845226D01*
X129590256Y-101767205D01*
X129759774Y-101653937D01*
X129903937Y-101509774D01*
X130017205Y-101340256D01*
X130095226Y-101151898D01*
X130135000Y-100951939D01*
X130135000Y-100748061D01*
X130095226Y-100548102D01*
X130017205Y-100359744D01*
X129903937Y-100190226D01*
X129759774Y-100046063D01*
X129590256Y-99932795D01*
X129401898Y-99854774D01*
X129201939Y-99815000D01*
X128998061Y-99815000D01*
X128798102Y-99854774D01*
X128609744Y-99932795D01*
X128486715Y-100015000D01*
X124933533Y-100015000D01*
X125031411Y-99962684D01*
X125150942Y-99864586D01*
X125175525Y-99834632D01*
X126175158Y-98835000D01*
X126201939Y-98835000D01*
X126401898Y-98795226D01*
X126590256Y-98717205D01*
X126759774Y-98603937D01*
X126903937Y-98459774D01*
X127017205Y-98290256D01*
X127095226Y-98101898D01*
X127135000Y-97901939D01*
X127135000Y-97698061D01*
X127095226Y-97498102D01*
X127017205Y-97309744D01*
X126903937Y-97140226D01*
X126759774Y-96996063D01*
X126590256Y-96882795D01*
X126401898Y-96804774D01*
X126201939Y-96765000D01*
X125998061Y-96765000D01*
X125798102Y-96804774D01*
X125609744Y-96882795D01*
X125440226Y-96996063D01*
X125296063Y-97140226D01*
X125182795Y-97309744D01*
X125104774Y-97498102D01*
X125065000Y-97698061D01*
X125065000Y-97724842D01*
X124334608Y-98455235D01*
X124236403Y-98389617D01*
X124048045Y-98311596D01*
X123848086Y-98271822D01*
X123644208Y-98271822D01*
X123444249Y-98311596D01*
X123255891Y-98389617D01*
X123086373Y-98502885D01*
X122942210Y-98647048D01*
X122828942Y-98816566D01*
X122750921Y-99004924D01*
X122711147Y-99204883D01*
X122711147Y-99408761D01*
X122750921Y-99608720D01*
X122828942Y-99797078D01*
X122942210Y-99966596D01*
X123086373Y-100110759D01*
X123175818Y-100170524D01*
X123082795Y-100309744D01*
X123023369Y-100453211D01*
X122447075Y-99876918D01*
X122485000Y-99686260D01*
X122485000Y-99393740D01*
X122427932Y-99106842D01*
X122315990Y-98836589D01*
X122153475Y-98593368D01*
X121946632Y-98386525D01*
X121772240Y-98270000D01*
X121946632Y-98153475D01*
X122153475Y-97946632D01*
X122315990Y-97703411D01*
X122427932Y-97433158D01*
X122485000Y-97146260D01*
X122485000Y-96853740D01*
X122427932Y-96566842D01*
X122315990Y-96296589D01*
X122153475Y-96053368D01*
X121946632Y-95846525D01*
X121772240Y-95730000D01*
X121946632Y-95613475D01*
X122153475Y-95406632D01*
X122315990Y-95163411D01*
X122427932Y-94893158D01*
X122485000Y-94606260D01*
X122485000Y-94313740D01*
X122427932Y-94026842D01*
X122315990Y-93756589D01*
X122153475Y-93513368D01*
X121946632Y-93306525D01*
X121772240Y-93190000D01*
X121946632Y-93073475D01*
X122017276Y-93002831D01*
X123999963Y-93002831D01*
X123950228Y-93036063D01*
X123806065Y-93180226D01*
X123692797Y-93349744D01*
X123614776Y-93538102D01*
X123575002Y-93738061D01*
X123575002Y-93764843D01*
X123023686Y-94316159D01*
X122993732Y-94340742D01*
X122895634Y-94460274D01*
X122822742Y-94596647D01*
X122777855Y-94744620D01*
X122766496Y-94859946D01*
X122766496Y-94859953D01*
X122762699Y-94898506D01*
X122766496Y-94937059D01*
X122766496Y-95222604D01*
X122747559Y-95241541D01*
X122634291Y-95411059D01*
X122556270Y-95599417D01*
X122516496Y-95799376D01*
X122516496Y-96003254D01*
X122556270Y-96203213D01*
X122634291Y-96391571D01*
X122747559Y-96561089D01*
X122891722Y-96705252D01*
X123061240Y-96818520D01*
X123249598Y-96896541D01*
X123449557Y-96936315D01*
X123653435Y-96936315D01*
X123853394Y-96896541D01*
X124041752Y-96818520D01*
X124211270Y-96705252D01*
X124355433Y-96561089D01*
X124468701Y-96391571D01*
X124546722Y-96203213D01*
X124586496Y-96003254D01*
X124586496Y-95799376D01*
X124546722Y-95599417D01*
X124468701Y-95411059D01*
X124355433Y-95241541D01*
X124337026Y-95223134D01*
X124685159Y-94875000D01*
X124711941Y-94875000D01*
X124911900Y-94835226D01*
X125100258Y-94757205D01*
X125269776Y-94643937D01*
X125296849Y-94616864D01*
X125329574Y-94613641D01*
X125477547Y-94568754D01*
X125613920Y-94495862D01*
X125733451Y-94397764D01*
X125758034Y-94367810D01*
X126609176Y-93516668D01*
X126672795Y-93670256D01*
X126786063Y-93839774D01*
X126930226Y-93983937D01*
X127099744Y-94097205D01*
X127288102Y-94175226D01*
X127488061Y-94215000D01*
X127691939Y-94215000D01*
X127891898Y-94175226D01*
X128080256Y-94097205D01*
X128249774Y-93983937D01*
X128393937Y-93839774D01*
X128507205Y-93670256D01*
X128585226Y-93481898D01*
X128625000Y-93281939D01*
X128625000Y-93255157D01*
X129345148Y-92535010D01*
X132061514Y-92535010D01*
X132100067Y-92538807D01*
X132138620Y-92535010D01*
X132138628Y-92535010D01*
X132253954Y-92523651D01*
X132401927Y-92478764D01*
X132538300Y-92405872D01*
X132563638Y-92385077D01*
X132601939Y-92385077D01*
X132707970Y-92363986D01*
X132707970Y-92694631D01*
X132690256Y-92682795D01*
X132501898Y-92604774D01*
X132301939Y-92565000D01*
X132098061Y-92565000D01*
X131898102Y-92604774D01*
X131709744Y-92682795D01*
X131540226Y-92796063D01*
X131396063Y-92940226D01*
X131282795Y-93109744D01*
X131204774Y-93298102D01*
X131165000Y-93498061D01*
X131165000Y-93701939D01*
X131204774Y-93901898D01*
X131282795Y-94090256D01*
X131315001Y-94138456D01*
X131315000Y-98164533D01*
X131310719Y-98208002D01*
X131315000Y-98251471D01*
X131315000Y-98251478D01*
X131327805Y-98381491D01*
X131378411Y-98548314D01*
X131415001Y-98616770D01*
X131415000Y-99761545D01*
X131382795Y-99809744D01*
X131304774Y-99998102D01*
X131265000Y-100198061D01*
X131265000Y-100401939D01*
X131304774Y-100601898D01*
X131382795Y-100790256D01*
X131496063Y-100959774D01*
X131640226Y-101103937D01*
X131809744Y-101217205D01*
X131998102Y-101295226D01*
X132198061Y-101335000D01*
X132401939Y-101335000D01*
X132601898Y-101295226D01*
X132790256Y-101217205D01*
X132959774Y-101103937D01*
X133103937Y-100959774D01*
X133217205Y-100790256D01*
X133295226Y-100601898D01*
X133335000Y-100401939D01*
X133335000Y-100198061D01*
X133295226Y-99998102D01*
X133217205Y-99809744D01*
X133185000Y-99761546D01*
X133185000Y-98351467D01*
X133189281Y-98308001D01*
X133185000Y-98264535D01*
X133185000Y-98264525D01*
X133172195Y-98134512D01*
X133121589Y-97967689D01*
X133085000Y-97899235D01*
X133085000Y-96693556D01*
X133196063Y-96859774D01*
X133340226Y-97003937D01*
X133509744Y-97117205D01*
X133698102Y-97195226D01*
X133898061Y-97235000D01*
X134065001Y-97235000D01*
X134065001Y-101461762D01*
X134027958Y-101517201D01*
X133949937Y-101705559D01*
X133910163Y-101905518D01*
X133910163Y-102109396D01*
X133949937Y-102309355D01*
X134027958Y-102497713D01*
X134141226Y-102667231D01*
X134285389Y-102811394D01*
X134454907Y-102924662D01*
X134643265Y-103002683D01*
X134843224Y-103042457D01*
X134964998Y-103042457D01*
X134964999Y-106852169D01*
X134961201Y-106890732D01*
X134976357Y-107044618D01*
X135021244Y-107192591D01*
X135054007Y-107253887D01*
X135094137Y-107328965D01*
X135130385Y-107373133D01*
X135148067Y-107394678D01*
X135148067Y-107425740D01*
X135187841Y-107625699D01*
X135265862Y-107814057D01*
X135379130Y-107983575D01*
X135402930Y-108007375D01*
X135365000Y-108198061D01*
X135365000Y-108401939D01*
X135404774Y-108601898D01*
X135482795Y-108790256D01*
X135596063Y-108959774D01*
X135740226Y-109103937D01*
X135909744Y-109217205D01*
X136098102Y-109295226D01*
X136298061Y-109335000D01*
X136501939Y-109335000D01*
X136701898Y-109295226D01*
X136890256Y-109217205D01*
X137059774Y-109103937D01*
X137203937Y-108959774D01*
X137317205Y-108790256D01*
X137395226Y-108601898D01*
X137435000Y-108401939D01*
X137435000Y-108375157D01*
X138127815Y-107682342D01*
X138157764Y-107657764D01*
X138184080Y-107625699D01*
X138208362Y-107596111D01*
X138255862Y-107538233D01*
X138328754Y-107401860D01*
X138373641Y-107253887D01*
X138385000Y-107138561D01*
X138385000Y-107138554D01*
X138388797Y-107100001D01*
X138385000Y-107061448D01*
X138385000Y-104278711D01*
X138403937Y-104259774D01*
X138517205Y-104090256D01*
X138595226Y-103901898D01*
X138635000Y-103701939D01*
X138635000Y-103498061D01*
X138595226Y-103298102D01*
X138517205Y-103109744D01*
X138403937Y-102940226D01*
X138259774Y-102796063D01*
X138090256Y-102682795D01*
X137901898Y-102604774D01*
X137701939Y-102565000D01*
X137498061Y-102565000D01*
X137298102Y-102604774D01*
X137292579Y-102607062D01*
X137292579Y-101840627D01*
X137296376Y-101802074D01*
X137292579Y-101763521D01*
X137292579Y-101763514D01*
X137281786Y-101653937D01*
X137281220Y-101648187D01*
X137265913Y-101597729D01*
X137236333Y-101500215D01*
X137163441Y-101363842D01*
X137114029Y-101303634D01*
X137089924Y-101274262D01*
X137089921Y-101274259D01*
X137065343Y-101244311D01*
X137035395Y-101219733D01*
X136685000Y-100869339D01*
X136685000Y-86032402D01*
X136698061Y-86035000D01*
G37*
%TD.AperFunction*%
D18*
X121127000Y-104493000D02*
X121147000Y-104493000D01*
X121147000Y-104747000D01*
X121127000Y-104747000D01*
X121127000Y-104767000D01*
X120873000Y-104767000D01*
X120873000Y-104747000D01*
X120853000Y-104747000D01*
X120853000Y-104493000D01*
X120873000Y-104493000D01*
X120873000Y-104473000D01*
X121127000Y-104473000D01*
X121127000Y-104493000D01*
%TA.AperFunction,Conductor*%
D19*
G36*
X121127000Y-104493000D02*
G01*
X121147000Y-104493000D01*
X121147000Y-104747000D01*
X121127000Y-104747000D01*
X121127000Y-104767000D01*
X120873000Y-104767000D01*
X120873000Y-104747000D01*
X120853000Y-104747000D01*
X120853000Y-104493000D01*
X120873000Y-104493000D01*
X120873000Y-104473000D01*
X121127000Y-104473000D01*
X121127000Y-104493000D01*
G37*
%TD.AperFunction*%
D18*
X123662671Y-91432831D02*
X122405560Y-91432831D01*
X122315990Y-91216589D01*
X122153475Y-90973368D01*
X121946632Y-90766525D01*
X121772240Y-90650000D01*
X121946632Y-90533475D01*
X122153475Y-90326632D01*
X122314893Y-90085053D01*
X123662671Y-91432831D01*
%TA.AperFunction,Conductor*%
D19*
G36*
X123662671Y-91432831D02*
G01*
X122405560Y-91432831D01*
X122315990Y-91216589D01*
X122153475Y-90973368D01*
X121946632Y-90766525D01*
X121772240Y-90650000D01*
X121946632Y-90533475D01*
X122153475Y-90326632D01*
X122314893Y-90085053D01*
X123662671Y-91432831D01*
G37*
%TD.AperFunction*%
D18*
X144911928Y-68210000D02*
X144911928Y-68701846D01*
X144803937Y-68540226D01*
X144659774Y-68396063D01*
X144490256Y-68282795D01*
X144301898Y-68204774D01*
X144101939Y-68165000D01*
X143898061Y-68165000D01*
X143698102Y-68204774D01*
X143509744Y-68282795D01*
X143340226Y-68396063D01*
X143321289Y-68415000D01*
X140078711Y-68415000D01*
X140059774Y-68396063D01*
X139890256Y-68282795D01*
X139701898Y-68204774D01*
X139501939Y-68165000D01*
X139298061Y-68165000D01*
X139098102Y-68204774D01*
X138909744Y-68282795D01*
X138740226Y-68396063D01*
X138596063Y-68540226D01*
X138482795Y-68709744D01*
X138404774Y-68898102D01*
X138365000Y-69098061D01*
X138365000Y-69301939D01*
X138404774Y-69501898D01*
X138482795Y-69690256D01*
X138596063Y-69859774D01*
X138740226Y-70003937D01*
X138909744Y-70117205D01*
X138928563Y-70125000D01*
X138909744Y-70132795D01*
X138740226Y-70246063D01*
X138596063Y-70390226D01*
X138482795Y-70559744D01*
X138404774Y-70748102D01*
X138397431Y-70785016D01*
X138298102Y-70804774D01*
X138109744Y-70882795D01*
X137940226Y-70996063D01*
X137796063Y-71140226D01*
X137682795Y-71309744D01*
X137604774Y-71498102D01*
X137565000Y-71698061D01*
X137565000Y-71901939D01*
X137604774Y-72101898D01*
X137682795Y-72290256D01*
X137765001Y-72413286D01*
X137765001Y-74577544D01*
X137701939Y-74565000D01*
X137498061Y-74565000D01*
X137298102Y-74604774D01*
X137109744Y-74682795D01*
X136940226Y-74796063D01*
X136796063Y-74940226D01*
X136685000Y-75106444D01*
X136685000Y-73678711D01*
X136703937Y-73659774D01*
X136817205Y-73490256D01*
X136895226Y-73301898D01*
X136935000Y-73101939D01*
X136935000Y-72898061D01*
X136895226Y-72698102D01*
X136817205Y-72509744D01*
X136703937Y-72340226D01*
X136559774Y-72196063D01*
X136390256Y-72082795D01*
X136201898Y-72004774D01*
X136001939Y-71965000D01*
X135798061Y-71965000D01*
X135598102Y-72004774D01*
X135585000Y-72010201D01*
X135585000Y-70978711D01*
X135603937Y-70959774D01*
X135717205Y-70790256D01*
X135795226Y-70601898D01*
X135835000Y-70401939D01*
X135835000Y-70198061D01*
X135795226Y-69998102D01*
X135717205Y-69809744D01*
X135603937Y-69640226D01*
X135459774Y-69496063D01*
X135290256Y-69382795D01*
X135101898Y-69304774D01*
X134901939Y-69265000D01*
X134698061Y-69265000D01*
X134498102Y-69304774D01*
X134309744Y-69382795D01*
X134140226Y-69496063D01*
X133996063Y-69640226D01*
X133882795Y-69809744D01*
X133804774Y-69998102D01*
X133765000Y-70198061D01*
X133765000Y-70401939D01*
X133804774Y-70601898D01*
X133882795Y-70790256D01*
X133996063Y-70959774D01*
X134015001Y-70978712D01*
X134015001Y-71306445D01*
X133903937Y-71140226D01*
X133759774Y-70996063D01*
X133590256Y-70882795D01*
X133401898Y-70804774D01*
X133201939Y-70765000D01*
X132998061Y-70765000D01*
X132798102Y-70804774D01*
X132609744Y-70882795D01*
X132440226Y-70996063D01*
X132296063Y-71140226D01*
X132182795Y-71309744D01*
X132104774Y-71498102D01*
X132065000Y-71698061D01*
X132065000Y-71901939D01*
X132104774Y-72101898D01*
X132182795Y-72290256D01*
X132296063Y-72459774D01*
X132315001Y-72478712D01*
X132315001Y-72961438D01*
X132311203Y-73000000D01*
X132326359Y-73153886D01*
X132371246Y-73301859D01*
X132405177Y-73365340D01*
X132444139Y-73438233D01*
X132475421Y-73476350D01*
X132517655Y-73527812D01*
X132517659Y-73527816D01*
X132542237Y-73557764D01*
X132572185Y-73582342D01*
X133564991Y-74575149D01*
X133564992Y-79664848D01*
X132522190Y-80707651D01*
X132492236Y-80732234D01*
X132394138Y-80851766D01*
X132321246Y-80988139D01*
X132276359Y-81136112D01*
X132265000Y-81251438D01*
X132265000Y-81251445D01*
X132261203Y-81289998D01*
X132265000Y-81328551D01*
X132265001Y-90341544D01*
X132198102Y-90354851D01*
X132009744Y-90432872D01*
X131840226Y-90546140D01*
X131696063Y-90690303D01*
X131582795Y-90859821D01*
X131539224Y-90965010D01*
X130435000Y-90965010D01*
X130435000Y-90798061D01*
X130395226Y-90598102D01*
X130317205Y-90409744D01*
X130203937Y-90240226D01*
X130185000Y-90221289D01*
X130185000Y-89948227D01*
X130251939Y-89948227D01*
X130451898Y-89908453D01*
X130595256Y-89849072D01*
X130598102Y-89850251D01*
X130798061Y-89890025D01*
X131001939Y-89890025D01*
X131201898Y-89850251D01*
X131390256Y-89772230D01*
X131559774Y-89658962D01*
X131703937Y-89514799D01*
X131817205Y-89345281D01*
X131895226Y-89156923D01*
X131935000Y-88956964D01*
X131935000Y-88753086D01*
X131895226Y-88553127D01*
X131817205Y-88364769D01*
X131703937Y-88195251D01*
X131559774Y-88051088D01*
X131390256Y-87937820D01*
X131201898Y-87859799D01*
X131001939Y-87820025D01*
X130798061Y-87820025D01*
X130598102Y-87859799D01*
X130454744Y-87919180D01*
X130451898Y-87918001D01*
X130251939Y-87878227D01*
X130185000Y-87878227D01*
X130185000Y-86325157D01*
X130575158Y-85935000D01*
X130601939Y-85935000D01*
X130801898Y-85895226D01*
X130990256Y-85817205D01*
X131159774Y-85703937D01*
X131303937Y-85559774D01*
X131417205Y-85390256D01*
X131495226Y-85201898D01*
X131535000Y-85001939D01*
X131535000Y-84798061D01*
X131495226Y-84598102D01*
X131417205Y-84409744D01*
X131303937Y-84240226D01*
X131159774Y-84096063D01*
X130990256Y-83982795D01*
X130801898Y-83904774D01*
X130601939Y-83865000D01*
X130398061Y-83865000D01*
X130198102Y-83904774D01*
X130009744Y-83982795D01*
X129840226Y-84096063D01*
X129696063Y-84240226D01*
X129582795Y-84409744D01*
X129504774Y-84598102D01*
X129465000Y-84798061D01*
X129465000Y-84824842D01*
X129385000Y-84904843D01*
X129385000Y-82778711D01*
X129403937Y-82759774D01*
X129517205Y-82590256D01*
X129595226Y-82401898D01*
X129635000Y-82201939D01*
X129635000Y-81998061D01*
X129595226Y-81798102D01*
X129517205Y-81609744D01*
X129403937Y-81440226D01*
X129259774Y-81296063D01*
X129090256Y-81182795D01*
X128901898Y-81104774D01*
X128701939Y-81065000D01*
X128498061Y-81065000D01*
X128435001Y-81077543D01*
X128435001Y-77363555D01*
X128438798Y-77325002D01*
X128435001Y-77286449D01*
X128435001Y-77286442D01*
X128423642Y-77171116D01*
X128422363Y-77166898D01*
X128413195Y-77136675D01*
X128378755Y-77023143D01*
X128305863Y-76886770D01*
X128224998Y-76788237D01*
X128224998Y-76763061D01*
X128185224Y-76563102D01*
X128107203Y-76374744D01*
X127993935Y-76205226D01*
X127849772Y-76061063D01*
X127680254Y-75947795D01*
X127491896Y-75869774D01*
X127317079Y-75835001D01*
X128411446Y-75835001D01*
X128449999Y-75838798D01*
X128488552Y-75835001D01*
X128488560Y-75835001D01*
X128589488Y-75825060D01*
X128604772Y-75901898D01*
X128682793Y-76090256D01*
X128796061Y-76259774D01*
X128940224Y-76403937D01*
X129109742Y-76517205D01*
X129298100Y-76595226D01*
X129498059Y-76635000D01*
X129701937Y-76635000D01*
X129901896Y-76595226D01*
X130090254Y-76517205D01*
X130259772Y-76403937D01*
X130403935Y-76259774D01*
X130517203Y-76090256D01*
X130595224Y-75901898D01*
X130634998Y-75701939D01*
X130634998Y-75498061D01*
X130595224Y-75298102D01*
X130517203Y-75109744D01*
X130485000Y-75061549D01*
X130485000Y-71728711D01*
X130503937Y-71709774D01*
X130617205Y-71540256D01*
X130695226Y-71351898D01*
X130735000Y-71151939D01*
X130735000Y-70948061D01*
X130695226Y-70748102D01*
X130617205Y-70559744D01*
X130503937Y-70390226D01*
X130359774Y-70246063D01*
X130190256Y-70132795D01*
X130001898Y-70054774D01*
X129801939Y-70015000D01*
X129598061Y-70015000D01*
X129585000Y-70017598D01*
X129585000Y-69178711D01*
X129603937Y-69159774D01*
X129717205Y-68990256D01*
X129795226Y-68801898D01*
X129835000Y-68601939D01*
X129835000Y-68398061D01*
X129795226Y-68198102D01*
X129765774Y-68127000D01*
X144920103Y-68127000D01*
X144911928Y-68210000D01*
%TA.AperFunction,Conductor*%
D19*
G36*
X144911928Y-68210000D02*
G01*
X144911928Y-68701846D01*
X144803937Y-68540226D01*
X144659774Y-68396063D01*
X144490256Y-68282795D01*
X144301898Y-68204774D01*
X144101939Y-68165000D01*
X143898061Y-68165000D01*
X143698102Y-68204774D01*
X143509744Y-68282795D01*
X143340226Y-68396063D01*
X143321289Y-68415000D01*
X140078711Y-68415000D01*
X140059774Y-68396063D01*
X139890256Y-68282795D01*
X139701898Y-68204774D01*
X139501939Y-68165000D01*
X139298061Y-68165000D01*
X139098102Y-68204774D01*
X138909744Y-68282795D01*
X138740226Y-68396063D01*
X138596063Y-68540226D01*
X138482795Y-68709744D01*
X138404774Y-68898102D01*
X138365000Y-69098061D01*
X138365000Y-69301939D01*
X138404774Y-69501898D01*
X138482795Y-69690256D01*
X138596063Y-69859774D01*
X138740226Y-70003937D01*
X138909744Y-70117205D01*
X138928563Y-70125000D01*
X138909744Y-70132795D01*
X138740226Y-70246063D01*
X138596063Y-70390226D01*
X138482795Y-70559744D01*
X138404774Y-70748102D01*
X138397431Y-70785016D01*
X138298102Y-70804774D01*
X138109744Y-70882795D01*
X137940226Y-70996063D01*
X137796063Y-71140226D01*
X137682795Y-71309744D01*
X137604774Y-71498102D01*
X137565000Y-71698061D01*
X137565000Y-71901939D01*
X137604774Y-72101898D01*
X137682795Y-72290256D01*
X137765001Y-72413286D01*
X137765001Y-74577544D01*
X137701939Y-74565000D01*
X137498061Y-74565000D01*
X137298102Y-74604774D01*
X137109744Y-74682795D01*
X136940226Y-74796063D01*
X136796063Y-74940226D01*
X136685000Y-75106444D01*
X136685000Y-73678711D01*
X136703937Y-73659774D01*
X136817205Y-73490256D01*
X136895226Y-73301898D01*
X136935000Y-73101939D01*
X136935000Y-72898061D01*
X136895226Y-72698102D01*
X136817205Y-72509744D01*
X136703937Y-72340226D01*
X136559774Y-72196063D01*
X136390256Y-72082795D01*
X136201898Y-72004774D01*
X136001939Y-71965000D01*
X135798061Y-71965000D01*
X135598102Y-72004774D01*
X135585000Y-72010201D01*
X135585000Y-70978711D01*
X135603937Y-70959774D01*
X135717205Y-70790256D01*
X135795226Y-70601898D01*
X135835000Y-70401939D01*
X135835000Y-70198061D01*
X135795226Y-69998102D01*
X135717205Y-69809744D01*
X135603937Y-69640226D01*
X135459774Y-69496063D01*
X135290256Y-69382795D01*
X135101898Y-69304774D01*
X134901939Y-69265000D01*
X134698061Y-69265000D01*
X134498102Y-69304774D01*
X134309744Y-69382795D01*
X134140226Y-69496063D01*
X133996063Y-69640226D01*
X133882795Y-69809744D01*
X133804774Y-69998102D01*
X133765000Y-70198061D01*
X133765000Y-70401939D01*
X133804774Y-70601898D01*
X133882795Y-70790256D01*
X133996063Y-70959774D01*
X134015001Y-70978712D01*
X134015001Y-71306445D01*
X133903937Y-71140226D01*
X133759774Y-70996063D01*
X133590256Y-70882795D01*
X133401898Y-70804774D01*
X133201939Y-70765000D01*
X132998061Y-70765000D01*
X132798102Y-70804774D01*
X132609744Y-70882795D01*
X132440226Y-70996063D01*
X132296063Y-71140226D01*
X132182795Y-71309744D01*
X132104774Y-71498102D01*
X132065000Y-71698061D01*
X132065000Y-71901939D01*
X132104774Y-72101898D01*
X132182795Y-72290256D01*
X132296063Y-72459774D01*
X132315001Y-72478712D01*
X132315001Y-72961438D01*
X132311203Y-73000000D01*
X132326359Y-73153886D01*
X132371246Y-73301859D01*
X132405177Y-73365340D01*
X132444139Y-73438233D01*
X132475421Y-73476350D01*
X132517655Y-73527812D01*
X132517659Y-73527816D01*
X132542237Y-73557764D01*
X132572185Y-73582342D01*
X133564991Y-74575149D01*
X133564992Y-79664848D01*
X132522190Y-80707651D01*
X132492236Y-80732234D01*
X132394138Y-80851766D01*
X132321246Y-80988139D01*
X132276359Y-81136112D01*
X132265000Y-81251438D01*
X132265000Y-81251445D01*
X132261203Y-81289998D01*
X132265000Y-81328551D01*
X132265001Y-90341544D01*
X132198102Y-90354851D01*
X132009744Y-90432872D01*
X131840226Y-90546140D01*
X131696063Y-90690303D01*
X131582795Y-90859821D01*
X131539224Y-90965010D01*
X130435000Y-90965010D01*
X130435000Y-90798061D01*
X130395226Y-90598102D01*
X130317205Y-90409744D01*
X130203937Y-90240226D01*
X130185000Y-90221289D01*
X130185000Y-89948227D01*
X130251939Y-89948227D01*
X130451898Y-89908453D01*
X130595256Y-89849072D01*
X130598102Y-89850251D01*
X130798061Y-89890025D01*
X131001939Y-89890025D01*
X131201898Y-89850251D01*
X131390256Y-89772230D01*
X131559774Y-89658962D01*
X131703937Y-89514799D01*
X131817205Y-89345281D01*
X131895226Y-89156923D01*
X131935000Y-88956964D01*
X131935000Y-88753086D01*
X131895226Y-88553127D01*
X131817205Y-88364769D01*
X131703937Y-88195251D01*
X131559774Y-88051088D01*
X131390256Y-87937820D01*
X131201898Y-87859799D01*
X131001939Y-87820025D01*
X130798061Y-87820025D01*
X130598102Y-87859799D01*
X130454744Y-87919180D01*
X130451898Y-87918001D01*
X130251939Y-87878227D01*
X130185000Y-87878227D01*
X130185000Y-86325157D01*
X130575158Y-85935000D01*
X130601939Y-85935000D01*
X130801898Y-85895226D01*
X130990256Y-85817205D01*
X131159774Y-85703937D01*
X131303937Y-85559774D01*
X131417205Y-85390256D01*
X131495226Y-85201898D01*
X131535000Y-85001939D01*
X131535000Y-84798061D01*
X131495226Y-84598102D01*
X131417205Y-84409744D01*
X131303937Y-84240226D01*
X131159774Y-84096063D01*
X130990256Y-83982795D01*
X130801898Y-83904774D01*
X130601939Y-83865000D01*
X130398061Y-83865000D01*
X130198102Y-83904774D01*
X130009744Y-83982795D01*
X129840226Y-84096063D01*
X129696063Y-84240226D01*
X129582795Y-84409744D01*
X129504774Y-84598102D01*
X129465000Y-84798061D01*
X129465000Y-84824842D01*
X129385000Y-84904843D01*
X129385000Y-82778711D01*
X129403937Y-82759774D01*
X129517205Y-82590256D01*
X129595226Y-82401898D01*
X129635000Y-82201939D01*
X129635000Y-81998061D01*
X129595226Y-81798102D01*
X129517205Y-81609744D01*
X129403937Y-81440226D01*
X129259774Y-81296063D01*
X129090256Y-81182795D01*
X128901898Y-81104774D01*
X128701939Y-81065000D01*
X128498061Y-81065000D01*
X128435001Y-81077543D01*
X128435001Y-77363555D01*
X128438798Y-77325002D01*
X128435001Y-77286449D01*
X128435001Y-77286442D01*
X128423642Y-77171116D01*
X128422363Y-77166898D01*
X128413195Y-77136675D01*
X128378755Y-77023143D01*
X128305863Y-76886770D01*
X128224998Y-76788237D01*
X128224998Y-76763061D01*
X128185224Y-76563102D01*
X128107203Y-76374744D01*
X127993935Y-76205226D01*
X127849772Y-76061063D01*
X127680254Y-75947795D01*
X127491896Y-75869774D01*
X127317079Y-75835001D01*
X128411446Y-75835001D01*
X128449999Y-75838798D01*
X128488552Y-75835001D01*
X128488560Y-75835001D01*
X128589488Y-75825060D01*
X128604772Y-75901898D01*
X128682793Y-76090256D01*
X128796061Y-76259774D01*
X128940224Y-76403937D01*
X129109742Y-76517205D01*
X129298100Y-76595226D01*
X129498059Y-76635000D01*
X129701937Y-76635000D01*
X129901896Y-76595226D01*
X130090254Y-76517205D01*
X130259772Y-76403937D01*
X130403935Y-76259774D01*
X130517203Y-76090256D01*
X130595224Y-75901898D01*
X130634998Y-75701939D01*
X130634998Y-75498061D01*
X130595224Y-75298102D01*
X130517203Y-75109744D01*
X130485000Y-75061549D01*
X130485000Y-71728711D01*
X130503937Y-71709774D01*
X130617205Y-71540256D01*
X130695226Y-71351898D01*
X130735000Y-71151939D01*
X130735000Y-70948061D01*
X130695226Y-70748102D01*
X130617205Y-70559744D01*
X130503937Y-70390226D01*
X130359774Y-70246063D01*
X130190256Y-70132795D01*
X130001898Y-70054774D01*
X129801939Y-70015000D01*
X129598061Y-70015000D01*
X129585000Y-70017598D01*
X129585000Y-69178711D01*
X129603937Y-69159774D01*
X129717205Y-68990256D01*
X129795226Y-68801898D01*
X129835000Y-68601939D01*
X129835000Y-68398061D01*
X129795226Y-68198102D01*
X129765774Y-68127000D01*
X144920103Y-68127000D01*
X144911928Y-68210000D01*
G37*
%TD.AperFunction*%
D18*
X126865002Y-82531960D02*
X126472189Y-82924773D01*
X126442236Y-82949356D01*
X126344138Y-83068888D01*
X126271246Y-83205261D01*
X126226359Y-83353234D01*
X126215000Y-83468560D01*
X126215000Y-83468567D01*
X126211203Y-83507120D01*
X126215000Y-83545673D01*
X126215000Y-86528845D01*
X126056113Y-86422680D01*
X125867755Y-86344659D01*
X125667796Y-86304885D01*
X125463918Y-86304885D01*
X125263959Y-86344659D01*
X125075601Y-86422680D01*
X124906083Y-86535948D01*
X124761920Y-86680111D01*
X124648652Y-86849629D01*
X124570631Y-87037987D01*
X124530857Y-87237946D01*
X124530857Y-87441824D01*
X124570631Y-87641783D01*
X124648652Y-87830141D01*
X124761920Y-87999659D01*
X124906083Y-88143822D01*
X124947232Y-88171317D01*
X124947232Y-88305635D01*
X124987006Y-88505594D01*
X125065027Y-88693952D01*
X125178295Y-88863470D01*
X125322458Y-89007633D01*
X125491976Y-89120901D01*
X125680334Y-89198922D01*
X125880293Y-89238696D01*
X126084171Y-89238696D01*
X126215001Y-89212673D01*
X126215001Y-90001413D01*
X126198102Y-90004774D01*
X126009744Y-90082795D01*
X125840226Y-90196063D01*
X125821289Y-90215000D01*
X124665156Y-90215000D01*
X123296424Y-88846268D01*
X123359774Y-88803939D01*
X123503937Y-88659776D01*
X123617205Y-88490258D01*
X123695226Y-88301900D01*
X123735000Y-88101941D01*
X123735000Y-87898063D01*
X123695226Y-87698104D01*
X123617205Y-87509746D01*
X123503937Y-87340228D01*
X123359774Y-87196065D01*
X123190256Y-87082797D01*
X123001898Y-87004776D01*
X122801939Y-86965002D01*
X122598061Y-86965002D01*
X122484745Y-86987542D01*
X122485000Y-86986260D01*
X122485000Y-86693740D01*
X122474839Y-86642659D01*
X122537256Y-86616805D01*
X122706774Y-86503537D01*
X122850937Y-86359374D01*
X122964205Y-86189856D01*
X123042226Y-86001498D01*
X123082000Y-85801539D01*
X123082000Y-85597661D01*
X123053878Y-85456279D01*
X126865002Y-81645156D01*
X126865002Y-82531960D01*
%TA.AperFunction,Conductor*%
D19*
G36*
X126865002Y-82531960D02*
G01*
X126472189Y-82924773D01*
X126442236Y-82949356D01*
X126344138Y-83068888D01*
X126271246Y-83205261D01*
X126226359Y-83353234D01*
X126215000Y-83468560D01*
X126215000Y-83468567D01*
X126211203Y-83507120D01*
X126215000Y-83545673D01*
X126215000Y-86528845D01*
X126056113Y-86422680D01*
X125867755Y-86344659D01*
X125667796Y-86304885D01*
X125463918Y-86304885D01*
X125263959Y-86344659D01*
X125075601Y-86422680D01*
X124906083Y-86535948D01*
X124761920Y-86680111D01*
X124648652Y-86849629D01*
X124570631Y-87037987D01*
X124530857Y-87237946D01*
X124530857Y-87441824D01*
X124570631Y-87641783D01*
X124648652Y-87830141D01*
X124761920Y-87999659D01*
X124906083Y-88143822D01*
X124947232Y-88171317D01*
X124947232Y-88305635D01*
X124987006Y-88505594D01*
X125065027Y-88693952D01*
X125178295Y-88863470D01*
X125322458Y-89007633D01*
X125491976Y-89120901D01*
X125680334Y-89198922D01*
X125880293Y-89238696D01*
X126084171Y-89238696D01*
X126215001Y-89212673D01*
X126215001Y-90001413D01*
X126198102Y-90004774D01*
X126009744Y-90082795D01*
X125840226Y-90196063D01*
X125821289Y-90215000D01*
X124665156Y-90215000D01*
X123296424Y-88846268D01*
X123359774Y-88803939D01*
X123503937Y-88659776D01*
X123617205Y-88490258D01*
X123695226Y-88301900D01*
X123735000Y-88101941D01*
X123735000Y-87898063D01*
X123695226Y-87698104D01*
X123617205Y-87509746D01*
X123503937Y-87340228D01*
X123359774Y-87196065D01*
X123190256Y-87082797D01*
X123001898Y-87004776D01*
X122801939Y-86965002D01*
X122598061Y-86965002D01*
X122484745Y-86987542D01*
X122485000Y-86986260D01*
X122485000Y-86693740D01*
X122474839Y-86642659D01*
X122537256Y-86616805D01*
X122706774Y-86503537D01*
X122850937Y-86359374D01*
X122964205Y-86189856D01*
X123042226Y-86001498D01*
X123082000Y-85801539D01*
X123082000Y-85597661D01*
X123053878Y-85456279D01*
X126865002Y-81645156D01*
X126865002Y-82531960D01*
G37*
%TD.AperFunction*%
D18*
X127815000Y-89941467D02*
X127785000Y-89947435D01*
X127785000Y-83832277D01*
X127815001Y-83802277D01*
X127815000Y-89941467D01*
%TA.AperFunction,Conductor*%
D19*
G36*
X127815000Y-89941467D02*
G01*
X127785000Y-89947435D01*
X127785000Y-83832277D01*
X127815001Y-83802277D01*
X127815000Y-89941467D01*
G37*
%TD.AperFunction*%
D18*
X142582795Y-70009744D02*
X142504774Y-70198102D01*
X142465000Y-70398061D01*
X142465000Y-70554843D01*
X142432347Y-70522190D01*
X142407764Y-70492236D01*
X142288233Y-70394138D01*
X142151860Y-70321246D01*
X142003887Y-70276359D01*
X141888561Y-70265000D01*
X141888553Y-70265000D01*
X141850000Y-70261203D01*
X141811447Y-70265000D01*
X140078711Y-70265000D01*
X140059774Y-70246063D01*
X139890256Y-70132795D01*
X139871437Y-70125000D01*
X139890256Y-70117205D01*
X140059774Y-70003937D01*
X140078711Y-69985000D01*
X142599328Y-69985000D01*
X142582795Y-70009744D01*
%TA.AperFunction,Conductor*%
D19*
G36*
X142582795Y-70009744D02*
G01*
X142504774Y-70198102D01*
X142465000Y-70398061D01*
X142465000Y-70554843D01*
X142432347Y-70522190D01*
X142407764Y-70492236D01*
X142288233Y-70394138D01*
X142151860Y-70321246D01*
X142003887Y-70276359D01*
X141888561Y-70265000D01*
X141888553Y-70265000D01*
X141850000Y-70261203D01*
X141811447Y-70265000D01*
X140078711Y-70265000D01*
X140059774Y-70246063D01*
X139890256Y-70132795D01*
X139871437Y-70125000D01*
X139890256Y-70117205D01*
X140059774Y-70003937D01*
X140078711Y-69985000D01*
X142599328Y-69985000D01*
X142582795Y-70009744D01*
G37*
%TD.AperFunction*%
D18*
X127818485Y-68165000D02*
X127698061Y-68165000D01*
X127498102Y-68204774D01*
X127309744Y-68282795D01*
X127140226Y-68396063D01*
X126996063Y-68540226D01*
X126882795Y-68709744D01*
X126804774Y-68898102D01*
X126765000Y-69098061D01*
X126765000Y-69122529D01*
X126688561Y-69115000D01*
X126688553Y-69115000D01*
X126650000Y-69111203D01*
X126611447Y-69115000D01*
X122488072Y-69115000D01*
X122488072Y-68210000D01*
X122479897Y-68127000D01*
X127834226Y-68127000D01*
X127818485Y-68165000D01*
%TA.AperFunction,Conductor*%
D19*
G36*
X127818485Y-68165000D02*
G01*
X127698061Y-68165000D01*
X127498102Y-68204774D01*
X127309744Y-68282795D01*
X127140226Y-68396063D01*
X126996063Y-68540226D01*
X126882795Y-68709744D01*
X126804774Y-68898102D01*
X126765000Y-69098061D01*
X126765000Y-69122529D01*
X126688561Y-69115000D01*
X126688553Y-69115000D01*
X126650000Y-69111203D01*
X126611447Y-69115000D01*
X122488072Y-69115000D01*
X122488072Y-68210000D01*
X122479897Y-68127000D01*
X127834226Y-68127000D01*
X127818485Y-68165000D01*
G37*
%TD.AperFunction*%
%TD*%
D18*
%TO.N,VBUS*%
X129373000Y-109173000D02*
X126827000Y-109173000D01*
X126827000Y-106727000D01*
X129373000Y-106727000D01*
X129373000Y-109173000D01*
%TA.AperFunction,Conductor*%
D19*
G36*
X129373000Y-109173000D02*
G01*
X126827000Y-109173000D01*
X126827000Y-106727000D01*
X129373000Y-106727000D01*
X129373000Y-109173000D01*
G37*
%TD.AperFunction*%
%TD*%
M02*
