%TF.GenerationSoftware,KiCad,Pcbnew,(5.1.7-0-10_14)*%
%TF.CreationDate,2020-11-02T22:23:07+09:00*%
%TF.ProjectId,mini-esp32,6d696e69-2d65-4737-9033-322e6b696361,rev?*%
%TF.SameCoordinates,Original*%
%TF.FileFunction,Copper,L1,Top*%
%TF.FilePolarity,Positive*%
%FSLAX46Y46*%
G04 Gerber Fmt 4.6, Leading zero omitted, Abs format (unit mm)*
G04 Created by KiCad (PCBNEW (5.1.7-0-10_14)) date 2020-11-02 22:23:07*
%MOMM*%
%LPD*%
G01*
G04 APERTURE LIST*
%TA.AperFunction,SMDPad,CuDef*%
%ADD10R,0.900000X1.200000*%
%TD*%
%TA.AperFunction,SMDPad,CuDef*%
%ADD11R,0.900000X0.800000*%
%TD*%
%TA.AperFunction,SMDPad,CuDef*%
%ADD12R,0.800000X0.900000*%
%TD*%
%TA.AperFunction,SMDPad,CuDef*%
%ADD13R,1.700000X1.000000*%
%TD*%
%TA.AperFunction,SMDPad,CuDef*%
%ADD14R,5.000000X5.000000*%
%TD*%
%TA.AperFunction,SMDPad,CuDef*%
%ADD15R,2.000000X0.900000*%
%TD*%
%TA.AperFunction,SMDPad,CuDef*%
%ADD16R,0.900000X2.000000*%
%TD*%
%TA.AperFunction,SMDPad,CuDef*%
%ADD17R,1.220000X0.650000*%
%TD*%
%TA.AperFunction,SMDPad,CuDef*%
%ADD18R,1.200000X1.400000*%
%TD*%
%TA.AperFunction,ComponentPad*%
%ADD19O,1.700000X1.700000*%
%TD*%
%TA.AperFunction,ComponentPad*%
%ADD20R,1.700000X1.700000*%
%TD*%
%TA.AperFunction,ComponentPad*%
%ADD21C,1.200000*%
%TD*%
%TA.AperFunction,ComponentPad*%
%ADD22O,1.300000X2.200000*%
%TD*%
%TA.AperFunction,SMDPad,CuDef*%
%ADD23R,1.600000X1.200000*%
%TD*%
%TA.AperFunction,SMDPad,CuDef*%
%ADD24R,0.400000X2.000000*%
%TD*%
%TA.AperFunction,ViaPad*%
%ADD25C,1.600000*%
%TD*%
%TA.AperFunction,ViaPad*%
%ADD26C,0.800000*%
%TD*%
%TA.AperFunction,Conductor*%
%ADD27C,0.500000*%
%TD*%
%TA.AperFunction,Conductor*%
%ADD28C,0.300000*%
%TD*%
%TA.AperFunction,Conductor*%
%ADD29C,0.750000*%
%TD*%
%TA.AperFunction,Conductor*%
%ADD30C,0.261112*%
%TD*%
%TA.AperFunction,Conductor*%
%ADD31C,0.200000*%
%TD*%
%TA.AperFunction,Conductor*%
%ADD32C,0.250000*%
%TD*%
%TA.AperFunction,Conductor*%
%ADD33C,0.254000*%
%TD*%
%TA.AperFunction,Conductor*%
%ADD34C,0.100000*%
%TD*%
G04 APERTURE END LIST*
%TO.P,C1,2*%
%TO.N,GND*%
%TA.AperFunction,SMDPad,CuDef*%
G36*
G01*
X126425000Y-105850000D02*
X126425000Y-106350000D01*
G75*
G02*
X126200000Y-106575000I-225000J0D01*
G01*
X125750000Y-106575000D01*
G75*
G02*
X125525000Y-106350000I0J225000D01*
G01*
X125525000Y-105850000D01*
G75*
G02*
X125750000Y-105625000I225000J0D01*
G01*
X126200000Y-105625000D01*
G75*
G02*
X126425000Y-105850000I0J-225000D01*
G01*
G37*
%TD.AperFunction*%
%TO.P,C1,1*%
%TO.N,Net-(C1-Pad1)*%
%TA.AperFunction,SMDPad,CuDef*%
G36*
G01*
X127975000Y-105850000D02*
X127975000Y-106350000D01*
G75*
G02*
X127750000Y-106575000I-225000J0D01*
G01*
X127300000Y-106575000D01*
G75*
G02*
X127075000Y-106350000I0J225000D01*
G01*
X127075000Y-105850000D01*
G75*
G02*
X127300000Y-105625000I225000J0D01*
G01*
X127750000Y-105625000D01*
G75*
G02*
X127975000Y-105850000I0J-225000D01*
G01*
G37*
%TD.AperFunction*%
%TD*%
%TO.P,C2,1*%
%TO.N,Net-(C2-Pad1)*%
%TA.AperFunction,SMDPad,CuDef*%
G36*
G01*
X125130000Y-93870000D02*
X125470000Y-93870000D01*
G75*
G02*
X125610000Y-94010000I0J-140000D01*
G01*
X125610000Y-94290000D01*
G75*
G02*
X125470000Y-94430000I-140000J0D01*
G01*
X125130000Y-94430000D01*
G75*
G02*
X124990000Y-94290000I0J140000D01*
G01*
X124990000Y-94010000D01*
G75*
G02*
X125130000Y-93870000I140000J0D01*
G01*
G37*
%TD.AperFunction*%
%TO.P,C2,2*%
%TO.N,GND*%
%TA.AperFunction,SMDPad,CuDef*%
G36*
G01*
X125130000Y-94830000D02*
X125470000Y-94830000D01*
G75*
G02*
X125610000Y-94970000I0J-140000D01*
G01*
X125610000Y-95250000D01*
G75*
G02*
X125470000Y-95390000I-140000J0D01*
G01*
X125130000Y-95390000D01*
G75*
G02*
X124990000Y-95250000I0J140000D01*
G01*
X124990000Y-94970000D01*
G75*
G02*
X125130000Y-94830000I140000J0D01*
G01*
G37*
%TD.AperFunction*%
%TD*%
%TO.P,C3,2*%
%TO.N,GND*%
%TA.AperFunction,SMDPad,CuDef*%
G36*
G01*
X130800000Y-91670000D02*
X130800000Y-91330000D01*
G75*
G02*
X130940000Y-91190000I140000J0D01*
G01*
X131220000Y-91190000D01*
G75*
G02*
X131360000Y-91330000I0J-140000D01*
G01*
X131360000Y-91670000D01*
G75*
G02*
X131220000Y-91810000I-140000J0D01*
G01*
X130940000Y-91810000D01*
G75*
G02*
X130800000Y-91670000I0J140000D01*
G01*
G37*
%TD.AperFunction*%
%TO.P,C3,1*%
%TO.N,VDD*%
%TA.AperFunction,SMDPad,CuDef*%
G36*
G01*
X129840000Y-91670000D02*
X129840000Y-91330000D01*
G75*
G02*
X129980000Y-91190000I140000J0D01*
G01*
X130260000Y-91190000D01*
G75*
G02*
X130400000Y-91330000I0J-140000D01*
G01*
X130400000Y-91670000D01*
G75*
G02*
X130260000Y-91810000I-140000J0D01*
G01*
X129980000Y-91810000D01*
G75*
G02*
X129840000Y-91670000I0J140000D01*
G01*
G37*
%TD.AperFunction*%
%TD*%
%TO.P,C4,1*%
%TO.N,VDD*%
%TA.AperFunction,SMDPad,CuDef*%
G36*
G01*
X127200000Y-88525000D02*
X127200000Y-89475000D01*
G75*
G02*
X126950000Y-89725000I-250000J0D01*
G01*
X126450000Y-89725000D01*
G75*
G02*
X126200000Y-89475000I0J250000D01*
G01*
X126200000Y-88525000D01*
G75*
G02*
X126450000Y-88275000I250000J0D01*
G01*
X126950000Y-88275000D01*
G75*
G02*
X127200000Y-88525000I0J-250000D01*
G01*
G37*
%TD.AperFunction*%
%TO.P,C4,2*%
%TO.N,GND*%
%TA.AperFunction,SMDPad,CuDef*%
G36*
G01*
X125300000Y-88525000D02*
X125300000Y-89475000D01*
G75*
G02*
X125050000Y-89725000I-250000J0D01*
G01*
X124550000Y-89725000D01*
G75*
G02*
X124300000Y-89475000I0J250000D01*
G01*
X124300000Y-88525000D01*
G75*
G02*
X124550000Y-88275000I250000J0D01*
G01*
X125050000Y-88275000D01*
G75*
G02*
X125300000Y-88525000I0J-250000D01*
G01*
G37*
%TD.AperFunction*%
%TD*%
%TO.P,C5,1*%
%TO.N,+BATT*%
%TA.AperFunction,SMDPad,CuDef*%
G36*
G01*
X128750000Y-104100000D02*
X129250000Y-104100000D01*
G75*
G02*
X129475000Y-104325000I0J-225000D01*
G01*
X129475000Y-104775000D01*
G75*
G02*
X129250000Y-105000000I-225000J0D01*
G01*
X128750000Y-105000000D01*
G75*
G02*
X128525000Y-104775000I0J225000D01*
G01*
X128525000Y-104325000D01*
G75*
G02*
X128750000Y-104100000I225000J0D01*
G01*
G37*
%TD.AperFunction*%
%TO.P,C5,2*%
%TO.N,GND*%
%TA.AperFunction,SMDPad,CuDef*%
G36*
G01*
X128750000Y-105650000D02*
X129250000Y-105650000D01*
G75*
G02*
X129475000Y-105875000I0J-225000D01*
G01*
X129475000Y-106325000D01*
G75*
G02*
X129250000Y-106550000I-225000J0D01*
G01*
X128750000Y-106550000D01*
G75*
G02*
X128525000Y-106325000I0J225000D01*
G01*
X128525000Y-105875000D01*
G75*
G02*
X128750000Y-105650000I225000J0D01*
G01*
G37*
%TD.AperFunction*%
%TD*%
%TO.P,C6,1*%
%TO.N,VDD*%
%TA.AperFunction,SMDPad,CuDef*%
G36*
G01*
X123330000Y-88240000D02*
X123670000Y-88240000D01*
G75*
G02*
X123810000Y-88380000I0J-140000D01*
G01*
X123810000Y-88660000D01*
G75*
G02*
X123670000Y-88800000I-140000J0D01*
G01*
X123330000Y-88800000D01*
G75*
G02*
X123190000Y-88660000I0J140000D01*
G01*
X123190000Y-88380000D01*
G75*
G02*
X123330000Y-88240000I140000J0D01*
G01*
G37*
%TD.AperFunction*%
%TO.P,C6,2*%
%TO.N,GND*%
%TA.AperFunction,SMDPad,CuDef*%
G36*
G01*
X123330000Y-89200000D02*
X123670000Y-89200000D01*
G75*
G02*
X123810000Y-89340000I0J-140000D01*
G01*
X123810000Y-89620000D01*
G75*
G02*
X123670000Y-89760000I-140000J0D01*
G01*
X123330000Y-89760000D01*
G75*
G02*
X123190000Y-89620000I0J140000D01*
G01*
X123190000Y-89340000D01*
G75*
G02*
X123330000Y-89200000I140000J0D01*
G01*
G37*
%TD.AperFunction*%
%TD*%
%TO.P,C7,2*%
%TO.N,GND*%
%TA.AperFunction,SMDPad,CuDef*%
G36*
G01*
X138230000Y-93556000D02*
X138230000Y-93896000D01*
G75*
G02*
X138090000Y-94036000I-140000J0D01*
G01*
X137810000Y-94036000D01*
G75*
G02*
X137670000Y-93896000I0J140000D01*
G01*
X137670000Y-93556000D01*
G75*
G02*
X137810000Y-93416000I140000J0D01*
G01*
X138090000Y-93416000D01*
G75*
G02*
X138230000Y-93556000I0J-140000D01*
G01*
G37*
%TD.AperFunction*%
%TO.P,C7,1*%
%TO.N,RESET*%
%TA.AperFunction,SMDPad,CuDef*%
G36*
G01*
X139190000Y-93556000D02*
X139190000Y-93896000D01*
G75*
G02*
X139050000Y-94036000I-140000J0D01*
G01*
X138770000Y-94036000D01*
G75*
G02*
X138630000Y-93896000I0J140000D01*
G01*
X138630000Y-93556000D01*
G75*
G02*
X138770000Y-93416000I140000J0D01*
G01*
X139050000Y-93416000D01*
G75*
G02*
X139190000Y-93556000I0J-140000D01*
G01*
G37*
%TD.AperFunction*%
%TD*%
%TO.P,C8,1*%
%TO.N,GND*%
%TA.AperFunction,SMDPad,CuDef*%
G36*
G01*
X137158000Y-93556000D02*
X137158000Y-93896000D01*
G75*
G02*
X137018000Y-94036000I-140000J0D01*
G01*
X136738000Y-94036000D01*
G75*
G02*
X136598000Y-93896000I0J140000D01*
G01*
X136598000Y-93556000D01*
G75*
G02*
X136738000Y-93416000I140000J0D01*
G01*
X137018000Y-93416000D01*
G75*
G02*
X137158000Y-93556000I0J-140000D01*
G01*
G37*
%TD.AperFunction*%
%TO.P,C8,2*%
%TO.N,RESET*%
%TA.AperFunction,SMDPad,CuDef*%
G36*
G01*
X136198000Y-93556000D02*
X136198000Y-93896000D01*
G75*
G02*
X136058000Y-94036000I-140000J0D01*
G01*
X135778000Y-94036000D01*
G75*
G02*
X135638000Y-93896000I0J140000D01*
G01*
X135638000Y-93556000D01*
G75*
G02*
X135778000Y-93416000I140000J0D01*
G01*
X136058000Y-93416000D01*
G75*
G02*
X136198000Y-93556000I0J-140000D01*
G01*
G37*
%TD.AperFunction*%
%TD*%
%TO.P,C9,1*%
%TO.N,Net-(C9-Pad1)*%
%TA.AperFunction,SMDPad,CuDef*%
G36*
G01*
X136780000Y-108580000D02*
X136780000Y-108920000D01*
G75*
G02*
X136640000Y-109060000I-140000J0D01*
G01*
X136360000Y-109060000D01*
G75*
G02*
X136220000Y-108920000I0J140000D01*
G01*
X136220000Y-108580000D01*
G75*
G02*
X136360000Y-108440000I140000J0D01*
G01*
X136640000Y-108440000D01*
G75*
G02*
X136780000Y-108580000I0J-140000D01*
G01*
G37*
%TD.AperFunction*%
%TO.P,C9,2*%
%TO.N,GND*%
%TA.AperFunction,SMDPad,CuDef*%
G36*
G01*
X135820000Y-108580000D02*
X135820000Y-108920000D01*
G75*
G02*
X135680000Y-109060000I-140000J0D01*
G01*
X135400000Y-109060000D01*
G75*
G02*
X135260000Y-108920000I0J140000D01*
G01*
X135260000Y-108580000D01*
G75*
G02*
X135400000Y-108440000I140000J0D01*
G01*
X135680000Y-108440000D01*
G75*
G02*
X135820000Y-108580000I0J-140000D01*
G01*
G37*
%TD.AperFunction*%
%TD*%
%TO.P,C10,2*%
%TO.N,GND*%
%TA.AperFunction,SMDPad,CuDef*%
G36*
G01*
X135820000Y-110080000D02*
X135820000Y-110420000D01*
G75*
G02*
X135680000Y-110560000I-140000J0D01*
G01*
X135400000Y-110560000D01*
G75*
G02*
X135260000Y-110420000I0J140000D01*
G01*
X135260000Y-110080000D01*
G75*
G02*
X135400000Y-109940000I140000J0D01*
G01*
X135680000Y-109940000D01*
G75*
G02*
X135820000Y-110080000I0J-140000D01*
G01*
G37*
%TD.AperFunction*%
%TO.P,C10,1*%
%TO.N,Net-(C10-Pad1)*%
%TA.AperFunction,SMDPad,CuDef*%
G36*
G01*
X136780000Y-110080000D02*
X136780000Y-110420000D01*
G75*
G02*
X136640000Y-110560000I-140000J0D01*
G01*
X136360000Y-110560000D01*
G75*
G02*
X136220000Y-110420000I0J140000D01*
G01*
X136220000Y-110080000D01*
G75*
G02*
X136360000Y-109940000I140000J0D01*
G01*
X136640000Y-109940000D01*
G75*
G02*
X136780000Y-110080000I0J-140000D01*
G01*
G37*
%TD.AperFunction*%
%TD*%
D10*
%TO.P,D1,1*%
%TO.N,Net-(C2-Pad1)*%
X123850000Y-109750000D03*
%TO.P,D1,2*%
%TO.N,Net-(D1-Pad2)*%
X127150000Y-109750000D03*
%TD*%
%TO.P,D2,2*%
%TO.N,Net-(C1-Pad1)*%
%TA.AperFunction,SMDPad,CuDef*%
G36*
G01*
X128743750Y-102687500D02*
X129256250Y-102687500D01*
G75*
G02*
X129475000Y-102906250I0J-218750D01*
G01*
X129475000Y-103343750D01*
G75*
G02*
X129256250Y-103562500I-218750J0D01*
G01*
X128743750Y-103562500D01*
G75*
G02*
X128525000Y-103343750I0J218750D01*
G01*
X128525000Y-102906250D01*
G75*
G02*
X128743750Y-102687500I218750J0D01*
G01*
G37*
%TD.AperFunction*%
%TO.P,D2,1*%
%TO.N,Net-(D2-Pad1)*%
%TA.AperFunction,SMDPad,CuDef*%
G36*
G01*
X128743750Y-101112500D02*
X129256250Y-101112500D01*
G75*
G02*
X129475000Y-101331250I0J-218750D01*
G01*
X129475000Y-101768750D01*
G75*
G02*
X129256250Y-101987500I-218750J0D01*
G01*
X128743750Y-101987500D01*
G75*
G02*
X128525000Y-101768750I0J218750D01*
G01*
X128525000Y-101331250D01*
G75*
G02*
X128743750Y-101112500I218750J0D01*
G01*
G37*
%TD.AperFunction*%
%TD*%
%TO.P,D3,2*%
%TO.N,IO2*%
%TA.AperFunction,SMDPad,CuDef*%
G36*
G01*
X124810000Y-93220250D02*
X124810000Y-92707750D01*
G75*
G02*
X125028750Y-92489000I218750J0D01*
G01*
X125466250Y-92489000D01*
G75*
G02*
X125685000Y-92707750I0J-218750D01*
G01*
X125685000Y-93220250D01*
G75*
G02*
X125466250Y-93439000I-218750J0D01*
G01*
X125028750Y-93439000D01*
G75*
G02*
X124810000Y-93220250I0J218750D01*
G01*
G37*
%TD.AperFunction*%
%TO.P,D3,1*%
%TO.N,Net-(D3-Pad1)*%
%TA.AperFunction,SMDPad,CuDef*%
G36*
G01*
X123235000Y-93220250D02*
X123235000Y-92707750D01*
G75*
G02*
X123453750Y-92489000I218750J0D01*
G01*
X123891250Y-92489000D01*
G75*
G02*
X124110000Y-92707750I0J-218750D01*
G01*
X124110000Y-93220250D01*
G75*
G02*
X123891250Y-93439000I-218750J0D01*
G01*
X123453750Y-93439000D01*
G75*
G02*
X123235000Y-93220250I0J218750D01*
G01*
G37*
%TD.AperFunction*%
%TD*%
%TO.P,FB1,1*%
%TO.N,Net-(D1-Pad2)*%
%TA.AperFunction,SMDPad,CuDef*%
G36*
G01*
X128250000Y-110381250D02*
X128250000Y-109618750D01*
G75*
G02*
X128468750Y-109400000I218750J0D01*
G01*
X128906250Y-109400000D01*
G75*
G02*
X129125000Y-109618750I0J-218750D01*
G01*
X129125000Y-110381250D01*
G75*
G02*
X128906250Y-110600000I-218750J0D01*
G01*
X128468750Y-110600000D01*
G75*
G02*
X128250000Y-110381250I0J218750D01*
G01*
G37*
%TD.AperFunction*%
%TO.P,FB1,2*%
%TO.N,VBUS*%
%TA.AperFunction,SMDPad,CuDef*%
G36*
G01*
X130375000Y-110381250D02*
X130375000Y-109618750D01*
G75*
G02*
X130593750Y-109400000I218750J0D01*
G01*
X131031250Y-109400000D01*
G75*
G02*
X131250000Y-109618750I0J-218750D01*
G01*
X131250000Y-110381250D01*
G75*
G02*
X131031250Y-110600000I-218750J0D01*
G01*
X130593750Y-110600000D01*
G75*
G02*
X130375000Y-110381250I0J218750D01*
G01*
G37*
%TD.AperFunction*%
%TD*%
%TO.P,J1,MP*%
%TO.N,N/C*%
%TA.AperFunction,SMDPad,CuDef*%
G36*
G01*
X125500000Y-115500000D02*
X125500000Y-118000000D01*
G75*
G02*
X125250000Y-118250000I-250000J0D01*
G01*
X124150000Y-118250000D01*
G75*
G02*
X123900000Y-118000000I0J250000D01*
G01*
X123900000Y-115500000D01*
G75*
G02*
X124150000Y-115250000I250000J0D01*
G01*
X125250000Y-115250000D01*
G75*
G02*
X125500000Y-115500000I0J-250000D01*
G01*
G37*
%TD.AperFunction*%
%TA.AperFunction,SMDPad,CuDef*%
G36*
G01*
X132300000Y-115500000D02*
X132300000Y-118000000D01*
G75*
G02*
X132050000Y-118250000I-250000J0D01*
G01*
X130950000Y-118250000D01*
G75*
G02*
X130700000Y-118000000I0J250000D01*
G01*
X130700000Y-115500000D01*
G75*
G02*
X130950000Y-115250000I250000J0D01*
G01*
X132050000Y-115250000D01*
G75*
G02*
X132300000Y-115500000I0J-250000D01*
G01*
G37*
%TD.AperFunction*%
%TO.P,J1,2*%
%TO.N,GND*%
%TA.AperFunction,SMDPad,CuDef*%
G36*
G01*
X127600000Y-112000000D02*
X127600000Y-117000000D01*
G75*
G02*
X127350000Y-117250000I-250000J0D01*
G01*
X126850000Y-117250000D01*
G75*
G02*
X126600000Y-117000000I0J250000D01*
G01*
X126600000Y-112000000D01*
G75*
G02*
X126850000Y-111750000I250000J0D01*
G01*
X127350000Y-111750000D01*
G75*
G02*
X127600000Y-112000000I0J-250000D01*
G01*
G37*
%TD.AperFunction*%
%TO.P,J1,1*%
%TO.N,+BATT*%
%TA.AperFunction,SMDPad,CuDef*%
G36*
G01*
X129600000Y-112000000D02*
X129600000Y-117000000D01*
G75*
G02*
X129350000Y-117250000I-250000J0D01*
G01*
X128850000Y-117250000D01*
G75*
G02*
X128600000Y-117000000I0J250000D01*
G01*
X128600000Y-112000000D01*
G75*
G02*
X128850000Y-111750000I250000J0D01*
G01*
X129350000Y-111750000D01*
G75*
G02*
X129600000Y-112000000I0J-250000D01*
G01*
G37*
%TD.AperFunction*%
%TD*%
D11*
%TO.P,Q1,1*%
%TO.N,VBUS*%
X130500000Y-104050000D03*
%TO.P,Q1,2*%
%TO.N,Net-(C2-Pad1)*%
X130500000Y-105950000D03*
%TO.P,Q1,3*%
%TO.N,+BATT*%
X132500000Y-105000000D03*
%TD*%
D12*
%TO.P,Q4,3*%
%TO.N,CH340GND*%
X135300000Y-89375000D03*
%TO.P,Q4,2*%
%TO.N,GND*%
X136250000Y-91375000D03*
%TO.P,Q4,1*%
%TO.N,Net-(Q4-Pad1)*%
X134350000Y-91375000D03*
%TD*%
%TO.P,R1,2*%
%TO.N,GND*%
%TA.AperFunction,SMDPad,CuDef*%
G36*
G01*
X135760000Y-107065000D02*
X135760000Y-107435000D01*
G75*
G02*
X135625000Y-107570000I-135000J0D01*
G01*
X135355000Y-107570000D01*
G75*
G02*
X135220000Y-107435000I0J135000D01*
G01*
X135220000Y-107065000D01*
G75*
G02*
X135355000Y-106930000I135000J0D01*
G01*
X135625000Y-106930000D01*
G75*
G02*
X135760000Y-107065000I0J-135000D01*
G01*
G37*
%TD.AperFunction*%
%TO.P,R1,1*%
%TO.N,VBUS*%
%TA.AperFunction,SMDPad,CuDef*%
G36*
G01*
X136780000Y-107065000D02*
X136780000Y-107435000D01*
G75*
G02*
X136645000Y-107570000I-135000J0D01*
G01*
X136375000Y-107570000D01*
G75*
G02*
X136240000Y-107435000I0J135000D01*
G01*
X136240000Y-107065000D01*
G75*
G02*
X136375000Y-106930000I135000J0D01*
G01*
X136645000Y-106930000D01*
G75*
G02*
X136780000Y-107065000I0J-135000D01*
G01*
G37*
%TD.AperFunction*%
%TD*%
%TO.P,R2,2*%
%TO.N,VBUS*%
%TA.AperFunction,SMDPad,CuDef*%
G36*
G01*
X133000000Y-102525003D02*
X133000000Y-101274997D01*
G75*
G02*
X133249997Y-101025000I249997J0D01*
G01*
X133875003Y-101025000D01*
G75*
G02*
X134125000Y-101274997I0J-249997D01*
G01*
X134125000Y-102525003D01*
G75*
G02*
X133875003Y-102775000I-249997J0D01*
G01*
X133249997Y-102775000D01*
G75*
G02*
X133000000Y-102525003I0J249997D01*
G01*
G37*
%TD.AperFunction*%
%TO.P,R2,1*%
%TO.N,Net-(C1-Pad1)*%
%TA.AperFunction,SMDPad,CuDef*%
G36*
G01*
X130075000Y-102525003D02*
X130075000Y-101274997D01*
G75*
G02*
X130324997Y-101025000I249997J0D01*
G01*
X130950003Y-101025000D01*
G75*
G02*
X131200000Y-101274997I0J-249997D01*
G01*
X131200000Y-102525003D01*
G75*
G02*
X130950003Y-102775000I-249997J0D01*
G01*
X130324997Y-102775000D01*
G75*
G02*
X130075000Y-102525003I0J249997D01*
G01*
G37*
%TD.AperFunction*%
%TD*%
%TO.P,R3,1*%
%TO.N,Net-(C2-Pad1)*%
%TA.AperFunction,SMDPad,CuDef*%
G36*
G01*
X128280000Y-97065000D02*
X128280000Y-97435000D01*
G75*
G02*
X128145000Y-97570000I-135000J0D01*
G01*
X127875000Y-97570000D01*
G75*
G02*
X127740000Y-97435000I0J135000D01*
G01*
X127740000Y-97065000D01*
G75*
G02*
X127875000Y-96930000I135000J0D01*
G01*
X128145000Y-96930000D01*
G75*
G02*
X128280000Y-97065000I0J-135000D01*
G01*
G37*
%TD.AperFunction*%
%TO.P,R3,2*%
%TO.N,EN*%
%TA.AperFunction,SMDPad,CuDef*%
G36*
G01*
X127260000Y-97065000D02*
X127260000Y-97435000D01*
G75*
G02*
X127125000Y-97570000I-135000J0D01*
G01*
X126855000Y-97570000D01*
G75*
G02*
X126720000Y-97435000I0J135000D01*
G01*
X126720000Y-97065000D01*
G75*
G02*
X126855000Y-96930000I135000J0D01*
G01*
X127125000Y-96930000D01*
G75*
G02*
X127260000Y-97065000I0J-135000D01*
G01*
G37*
%TD.AperFunction*%
%TD*%
%TO.P,R4,1*%
%TO.N,Net-(R4-Pad1)*%
%TA.AperFunction,SMDPad,CuDef*%
G36*
G01*
X128725000Y-98150000D02*
X129275000Y-98150000D01*
G75*
G02*
X129475000Y-98350000I0J-200000D01*
G01*
X129475000Y-98750000D01*
G75*
G02*
X129275000Y-98950000I-200000J0D01*
G01*
X128725000Y-98950000D01*
G75*
G02*
X128525000Y-98750000I0J200000D01*
G01*
X128525000Y-98350000D01*
G75*
G02*
X128725000Y-98150000I200000J0D01*
G01*
G37*
%TD.AperFunction*%
%TO.P,R4,2*%
%TO.N,Net-(D2-Pad1)*%
%TA.AperFunction,SMDPad,CuDef*%
G36*
G01*
X128725000Y-99800000D02*
X129275000Y-99800000D01*
G75*
G02*
X129475000Y-100000000I0J-200000D01*
G01*
X129475000Y-100400000D01*
G75*
G02*
X129275000Y-100600000I-200000J0D01*
G01*
X128725000Y-100600000D01*
G75*
G02*
X128525000Y-100400000I0J200000D01*
G01*
X128525000Y-100000000D01*
G75*
G02*
X128725000Y-99800000I200000J0D01*
G01*
G37*
%TD.AperFunction*%
%TD*%
%TO.P,R5,2*%
%TO.N,I35*%
%TA.AperFunction,SMDPad,CuDef*%
G36*
G01*
X125385000Y-96660000D02*
X125015000Y-96660000D01*
G75*
G02*
X124880000Y-96525000I0J135000D01*
G01*
X124880000Y-96255000D01*
G75*
G02*
X125015000Y-96120000I135000J0D01*
G01*
X125385000Y-96120000D01*
G75*
G02*
X125520000Y-96255000I0J-135000D01*
G01*
X125520000Y-96525000D01*
G75*
G02*
X125385000Y-96660000I-135000J0D01*
G01*
G37*
%TD.AperFunction*%
%TO.P,R5,1*%
%TO.N,+BATT*%
%TA.AperFunction,SMDPad,CuDef*%
G36*
G01*
X125385000Y-97680000D02*
X125015000Y-97680000D01*
G75*
G02*
X124880000Y-97545000I0J135000D01*
G01*
X124880000Y-97275000D01*
G75*
G02*
X125015000Y-97140000I135000J0D01*
G01*
X125385000Y-97140000D01*
G75*
G02*
X125520000Y-97275000I0J-135000D01*
G01*
X125520000Y-97545000D01*
G75*
G02*
X125385000Y-97680000I-135000J0D01*
G01*
G37*
%TD.AperFunction*%
%TD*%
%TO.P,R6,2*%
%TO.N,GND*%
%TA.AperFunction,SMDPad,CuDef*%
G36*
G01*
X124085000Y-96660000D02*
X123715000Y-96660000D01*
G75*
G02*
X123580000Y-96525000I0J135000D01*
G01*
X123580000Y-96255000D01*
G75*
G02*
X123715000Y-96120000I135000J0D01*
G01*
X124085000Y-96120000D01*
G75*
G02*
X124220000Y-96255000I0J-135000D01*
G01*
X124220000Y-96525000D01*
G75*
G02*
X124085000Y-96660000I-135000J0D01*
G01*
G37*
%TD.AperFunction*%
%TO.P,R6,1*%
%TO.N,I35*%
%TA.AperFunction,SMDPad,CuDef*%
G36*
G01*
X124085000Y-97680000D02*
X123715000Y-97680000D01*
G75*
G02*
X123580000Y-97545000I0J135000D01*
G01*
X123580000Y-97275000D01*
G75*
G02*
X123715000Y-97140000I135000J0D01*
G01*
X124085000Y-97140000D01*
G75*
G02*
X124220000Y-97275000I0J-135000D01*
G01*
X124220000Y-97545000D01*
G75*
G02*
X124085000Y-97680000I-135000J0D01*
G01*
G37*
%TD.AperFunction*%
%TD*%
%TO.P,R7,1*%
%TO.N,Net-(Q2-Pad2)*%
%TA.AperFunction,SMDPad,CuDef*%
G36*
G01*
X140050000Y-92885000D02*
X140050000Y-92515000D01*
G75*
G02*
X140185000Y-92380000I135000J0D01*
G01*
X140455000Y-92380000D01*
G75*
G02*
X140590000Y-92515000I0J-135000D01*
G01*
X140590000Y-92885000D01*
G75*
G02*
X140455000Y-93020000I-135000J0D01*
G01*
X140185000Y-93020000D01*
G75*
G02*
X140050000Y-92885000I0J135000D01*
G01*
G37*
%TD.AperFunction*%
%TO.P,R7,2*%
%TO.N,RTS*%
%TA.AperFunction,SMDPad,CuDef*%
G36*
G01*
X141070000Y-92885000D02*
X141070000Y-92515000D01*
G75*
G02*
X141205000Y-92380000I135000J0D01*
G01*
X141475000Y-92380000D01*
G75*
G02*
X141610000Y-92515000I0J-135000D01*
G01*
X141610000Y-92885000D01*
G75*
G02*
X141475000Y-93020000I-135000J0D01*
G01*
X141205000Y-93020000D01*
G75*
G02*
X141070000Y-92885000I0J135000D01*
G01*
G37*
%TD.AperFunction*%
%TD*%
%TO.P,R8,1*%
%TO.N,Net-(Q3-Pad2)*%
%TA.AperFunction,SMDPad,CuDef*%
G36*
G01*
X143526000Y-92525000D02*
X143526000Y-92895000D01*
G75*
G02*
X143391000Y-93030000I-135000J0D01*
G01*
X143121000Y-93030000D01*
G75*
G02*
X142986000Y-92895000I0J135000D01*
G01*
X142986000Y-92525000D01*
G75*
G02*
X143121000Y-92390000I135000J0D01*
G01*
X143391000Y-92390000D01*
G75*
G02*
X143526000Y-92525000I0J-135000D01*
G01*
G37*
%TD.AperFunction*%
%TO.P,R8,2*%
%TO.N,DTR*%
%TA.AperFunction,SMDPad,CuDef*%
G36*
G01*
X142506000Y-92525000D02*
X142506000Y-92895000D01*
G75*
G02*
X142371000Y-93030000I-135000J0D01*
G01*
X142101000Y-93030000D01*
G75*
G02*
X141966000Y-92895000I0J135000D01*
G01*
X141966000Y-92525000D01*
G75*
G02*
X142101000Y-92390000I135000J0D01*
G01*
X142371000Y-92390000D01*
G75*
G02*
X142506000Y-92525000I0J-135000D01*
G01*
G37*
%TD.AperFunction*%
%TD*%
%TO.P,R9,2*%
%TO.N,Net-(R9-Pad2)*%
%TA.AperFunction,SMDPad,CuDef*%
G36*
G01*
X124490000Y-106285000D02*
X124490000Y-105915000D01*
G75*
G02*
X124625000Y-105780000I135000J0D01*
G01*
X124895000Y-105780000D01*
G75*
G02*
X125030000Y-105915000I0J-135000D01*
G01*
X125030000Y-106285000D01*
G75*
G02*
X124895000Y-106420000I-135000J0D01*
G01*
X124625000Y-106420000D01*
G75*
G02*
X124490000Y-106285000I0J135000D01*
G01*
G37*
%TD.AperFunction*%
%TO.P,R9,1*%
%TO.N,GND*%
%TA.AperFunction,SMDPad,CuDef*%
G36*
G01*
X123470000Y-106285000D02*
X123470000Y-105915000D01*
G75*
G02*
X123605000Y-105780000I135000J0D01*
G01*
X123875000Y-105780000D01*
G75*
G02*
X124010000Y-105915000I0J-135000D01*
G01*
X124010000Y-106285000D01*
G75*
G02*
X123875000Y-106420000I-135000J0D01*
G01*
X123605000Y-106420000D01*
G75*
G02*
X123470000Y-106285000I0J135000D01*
G01*
G37*
%TD.AperFunction*%
%TD*%
%TO.P,R10,2*%
%TO.N,RESET*%
%TA.AperFunction,SMDPad,CuDef*%
G36*
G01*
X140222000Y-93541000D02*
X140222000Y-93911000D01*
G75*
G02*
X140087000Y-94046000I-135000J0D01*
G01*
X139817000Y-94046000D01*
G75*
G02*
X139682000Y-93911000I0J135000D01*
G01*
X139682000Y-93541000D01*
G75*
G02*
X139817000Y-93406000I135000J0D01*
G01*
X140087000Y-93406000D01*
G75*
G02*
X140222000Y-93541000I0J-135000D01*
G01*
G37*
%TD.AperFunction*%
%TO.P,R10,1*%
%TO.N,VDD*%
%TA.AperFunction,SMDPad,CuDef*%
G36*
G01*
X141242000Y-93541000D02*
X141242000Y-93911000D01*
G75*
G02*
X141107000Y-94046000I-135000J0D01*
G01*
X140837000Y-94046000D01*
G75*
G02*
X140702000Y-93911000I0J135000D01*
G01*
X140702000Y-93541000D01*
G75*
G02*
X140837000Y-93406000I135000J0D01*
G01*
X141107000Y-93406000D01*
G75*
G02*
X141242000Y-93541000I0J-135000D01*
G01*
G37*
%TD.AperFunction*%
%TD*%
%TO.P,R11,1*%
%TO.N,GND*%
%TA.AperFunction,SMDPad,CuDef*%
G36*
G01*
X123235000Y-91461000D02*
X123235000Y-90911000D01*
G75*
G02*
X123435000Y-90711000I200000J0D01*
G01*
X123835000Y-90711000D01*
G75*
G02*
X124035000Y-90911000I0J-200000D01*
G01*
X124035000Y-91461000D01*
G75*
G02*
X123835000Y-91661000I-200000J0D01*
G01*
X123435000Y-91661000D01*
G75*
G02*
X123235000Y-91461000I0J200000D01*
G01*
G37*
%TD.AperFunction*%
%TO.P,R11,2*%
%TO.N,Net-(D3-Pad1)*%
%TA.AperFunction,SMDPad,CuDef*%
G36*
G01*
X124885000Y-91461000D02*
X124885000Y-90911000D01*
G75*
G02*
X125085000Y-90711000I200000J0D01*
G01*
X125485000Y-90711000D01*
G75*
G02*
X125685000Y-90911000I0J-200000D01*
G01*
X125685000Y-91461000D01*
G75*
G02*
X125485000Y-91661000I-200000J0D01*
G01*
X125085000Y-91661000D01*
G75*
G02*
X124885000Y-91461000I0J200000D01*
G01*
G37*
%TD.AperFunction*%
%TD*%
%TO.P,R12,2*%
%TO.N,TXD0*%
%TA.AperFunction,SMDPad,CuDef*%
G36*
G01*
X136685000Y-101660000D02*
X136315000Y-101660000D01*
G75*
G02*
X136180000Y-101525000I0J135000D01*
G01*
X136180000Y-101255000D01*
G75*
G02*
X136315000Y-101120000I135000J0D01*
G01*
X136685000Y-101120000D01*
G75*
G02*
X136820000Y-101255000I0J-135000D01*
G01*
X136820000Y-101525000D01*
G75*
G02*
X136685000Y-101660000I-135000J0D01*
G01*
G37*
%TD.AperFunction*%
%TO.P,R12,1*%
%TO.N,Net-(R12-Pad1)*%
%TA.AperFunction,SMDPad,CuDef*%
G36*
G01*
X136685000Y-102680000D02*
X136315000Y-102680000D01*
G75*
G02*
X136180000Y-102545000I0J135000D01*
G01*
X136180000Y-102275000D01*
G75*
G02*
X136315000Y-102140000I135000J0D01*
G01*
X136685000Y-102140000D01*
G75*
G02*
X136820000Y-102275000I0J-135000D01*
G01*
X136820000Y-102545000D01*
G75*
G02*
X136685000Y-102680000I-135000J0D01*
G01*
G37*
%TD.AperFunction*%
%TD*%
%TO.P,R13,1*%
%TO.N,RXD0*%
%TA.AperFunction,SMDPad,CuDef*%
G36*
G01*
X135315000Y-101120000D02*
X135685000Y-101120000D01*
G75*
G02*
X135820000Y-101255000I0J-135000D01*
G01*
X135820000Y-101525000D01*
G75*
G02*
X135685000Y-101660000I-135000J0D01*
G01*
X135315000Y-101660000D01*
G75*
G02*
X135180000Y-101525000I0J135000D01*
G01*
X135180000Y-101255000D01*
G75*
G02*
X135315000Y-101120000I135000J0D01*
G01*
G37*
%TD.AperFunction*%
%TO.P,R13,2*%
%TO.N,Net-(R13-Pad2)*%
%TA.AperFunction,SMDPad,CuDef*%
G36*
G01*
X135315000Y-102140000D02*
X135685000Y-102140000D01*
G75*
G02*
X135820000Y-102275000I0J-135000D01*
G01*
X135820000Y-102545000D01*
G75*
G02*
X135685000Y-102680000I-135000J0D01*
G01*
X135315000Y-102680000D01*
G75*
G02*
X135180000Y-102545000I0J135000D01*
G01*
X135180000Y-102275000D01*
G75*
G02*
X135315000Y-102140000I135000J0D01*
G01*
G37*
%TD.AperFunction*%
%TD*%
%TO.P,R14,1*%
%TO.N,Net-(Q4-Pad1)*%
%TA.AperFunction,SMDPad,CuDef*%
G36*
G01*
X133935000Y-92860000D02*
X133935000Y-92490000D01*
G75*
G02*
X134070000Y-92355000I135000J0D01*
G01*
X134340000Y-92355000D01*
G75*
G02*
X134475000Y-92490000I0J-135000D01*
G01*
X134475000Y-92860000D01*
G75*
G02*
X134340000Y-92995000I-135000J0D01*
G01*
X134070000Y-92995000D01*
G75*
G02*
X133935000Y-92860000I0J135000D01*
G01*
G37*
%TD.AperFunction*%
%TO.P,R14,2*%
%TO.N,VBUS*%
%TA.AperFunction,SMDPad,CuDef*%
G36*
G01*
X134955000Y-92860000D02*
X134955000Y-92490000D01*
G75*
G02*
X135090000Y-92355000I135000J0D01*
G01*
X135360000Y-92355000D01*
G75*
G02*
X135495000Y-92490000I0J-135000D01*
G01*
X135495000Y-92860000D01*
G75*
G02*
X135360000Y-92995000I-135000J0D01*
G01*
X135090000Y-92995000D01*
G75*
G02*
X134955000Y-92860000I0J135000D01*
G01*
G37*
%TD.AperFunction*%
%TD*%
D13*
%TO.P,SW1,1*%
%TO.N,GND*%
X140310000Y-99182000D03*
X134010000Y-99182000D03*
%TO.P,SW1,2*%
%TO.N,RESET*%
X140310000Y-95382000D03*
X134010000Y-95382000D03*
%TD*%
D14*
%TO.P,U1,39*%
%TO.N,GND*%
X132700000Y-76745000D03*
D15*
%TO.P,U1,1*%
X125200000Y-69245000D03*
%TO.P,U1,2*%
%TO.N,VDD*%
X125200000Y-70515000D03*
%TO.P,U1,3*%
%TO.N,RESET*%
X125200000Y-71785000D03*
%TO.P,U1,4*%
%TO.N,I36*%
X125200000Y-73055000D03*
%TO.P,U1,5*%
%TO.N,I39*%
X125200000Y-74325000D03*
%TO.P,U1,6*%
%TO.N,I34*%
X125200000Y-75595000D03*
%TO.P,U1,7*%
%TO.N,I35*%
X125200000Y-76865000D03*
%TO.P,U1,8*%
%TO.N,IO32*%
X125200000Y-78135000D03*
%TO.P,U1,9*%
%TO.N,IO33*%
X125200000Y-79405000D03*
%TO.P,U1,10*%
%TO.N,IO25_DAC1*%
X125200000Y-80675000D03*
%TO.P,U1,11*%
%TO.N,IO26_DAC2*%
X125200000Y-81945000D03*
%TO.P,U1,12*%
%TO.N,IO27*%
X125200000Y-83215000D03*
%TO.P,U1,13*%
%TO.N,IO14*%
X125200000Y-84485000D03*
%TO.P,U1,14*%
%TO.N,IO12*%
X125200000Y-85755000D03*
D16*
%TO.P,U1,15*%
%TO.N,GND*%
X127985000Y-86755000D03*
%TO.P,U1,16*%
%TO.N,IO13*%
X129255000Y-86755000D03*
%TO.P,U1,17*%
%TO.N,Net-(U1-Pad17)*%
X130525000Y-86755000D03*
%TO.P,U1,18*%
%TO.N,Net-(U1-Pad18)*%
X131795000Y-86755000D03*
%TO.P,U1,19*%
%TO.N,Net-(U1-Pad19)*%
X133065000Y-86755000D03*
%TO.P,U1,20*%
%TO.N,Net-(U1-Pad20)*%
X134335000Y-86755000D03*
%TO.P,U1,21*%
%TO.N,Net-(U1-Pad21)*%
X135605000Y-86755000D03*
%TO.P,U1,22*%
%TO.N,Net-(U1-Pad22)*%
X136875000Y-86755000D03*
%TO.P,U1,23*%
%TO.N,IO15*%
X138145000Y-86755000D03*
%TO.P,U1,24*%
%TO.N,IO2*%
X139415000Y-86755000D03*
D15*
%TO.P,U1,25*%
%TO.N,GPIO0*%
X142200000Y-85755000D03*
%TO.P,U1,26*%
%TO.N,IO4*%
X142200000Y-84485000D03*
%TO.P,U1,27*%
%TO.N,IO16*%
X142200000Y-83215000D03*
%TO.P,U1,28*%
%TO.N,IO17*%
X142200000Y-81945000D03*
%TO.P,U1,29*%
%TO.N,IO5*%
X142200000Y-80675000D03*
%TO.P,U1,30*%
%TO.N,IO18*%
X142200000Y-79405000D03*
%TO.P,U1,31*%
%TO.N,IO19*%
X142200000Y-78135000D03*
%TO.P,U1,32*%
%TO.N,Net-(U1-Pad32)*%
X142200000Y-76865000D03*
%TO.P,U1,33*%
%TO.N,IO21*%
X142200000Y-75595000D03*
%TO.P,U1,34*%
%TO.N,RXD0*%
X142200000Y-74325000D03*
%TO.P,U1,35*%
%TO.N,TXD0*%
X142200000Y-73055000D03*
%TO.P,U1,36*%
%TO.N,IO22*%
X142200000Y-71785000D03*
%TO.P,U1,37*%
%TO.N,IO23*%
X142200000Y-70515000D03*
%TO.P,U1,38*%
%TO.N,GND*%
X142200000Y-69245000D03*
%TD*%
D17*
%TO.P,U2,1*%
%TO.N,Net-(C2-Pad1)*%
X127472000Y-94020000D03*
%TO.P,U2,2*%
%TO.N,GND*%
X127472000Y-94970000D03*
%TO.P,U2,3*%
%TO.N,EN*%
X127472000Y-95920000D03*
%TO.P,U2,4*%
%TO.N,Net-(U2-Pad4)*%
X130092000Y-95920000D03*
%TO.P,U2,5*%
%TO.N,VDD*%
X130092000Y-94020000D03*
%TD*%
%TO.P,U3,8*%
%TO.N,Net-(C1-Pad1)*%
%TA.AperFunction,SMDPad,CuDef*%
G36*
G01*
X123745000Y-99800000D02*
X123445000Y-99800000D01*
G75*
G02*
X123295000Y-99650000I0J150000D01*
G01*
X123295000Y-98300000D01*
G75*
G02*
X123445000Y-98150000I150000J0D01*
G01*
X123745000Y-98150000D01*
G75*
G02*
X123895000Y-98300000I0J-150000D01*
G01*
X123895000Y-99650000D01*
G75*
G02*
X123745000Y-99800000I-150000J0D01*
G01*
G37*
%TD.AperFunction*%
%TO.P,U3,7*%
%TO.N,Net-(R4-Pad1)*%
%TA.AperFunction,SMDPad,CuDef*%
G36*
G01*
X125015000Y-99800000D02*
X124715000Y-99800000D01*
G75*
G02*
X124565000Y-99650000I0J150000D01*
G01*
X124565000Y-98300000D01*
G75*
G02*
X124715000Y-98150000I150000J0D01*
G01*
X125015000Y-98150000D01*
G75*
G02*
X125165000Y-98300000I0J-150000D01*
G01*
X125165000Y-99650000D01*
G75*
G02*
X125015000Y-99800000I-150000J0D01*
G01*
G37*
%TD.AperFunction*%
%TO.P,U3,6*%
%TO.N,Net-(U3-Pad6)*%
%TA.AperFunction,SMDPad,CuDef*%
G36*
G01*
X126285000Y-99800000D02*
X125985000Y-99800000D01*
G75*
G02*
X125835000Y-99650000I0J150000D01*
G01*
X125835000Y-98300000D01*
G75*
G02*
X125985000Y-98150000I150000J0D01*
G01*
X126285000Y-98150000D01*
G75*
G02*
X126435000Y-98300000I0J-150000D01*
G01*
X126435000Y-99650000D01*
G75*
G02*
X126285000Y-99800000I-150000J0D01*
G01*
G37*
%TD.AperFunction*%
%TO.P,U3,5*%
%TO.N,+BATT*%
%TA.AperFunction,SMDPad,CuDef*%
G36*
G01*
X127555000Y-99800000D02*
X127255000Y-99800000D01*
G75*
G02*
X127105000Y-99650000I0J150000D01*
G01*
X127105000Y-98300000D01*
G75*
G02*
X127255000Y-98150000I150000J0D01*
G01*
X127555000Y-98150000D01*
G75*
G02*
X127705000Y-98300000I0J-150000D01*
G01*
X127705000Y-99650000D01*
G75*
G02*
X127555000Y-99800000I-150000J0D01*
G01*
G37*
%TD.AperFunction*%
%TO.P,U3,4*%
%TO.N,Net-(C1-Pad1)*%
%TA.AperFunction,SMDPad,CuDef*%
G36*
G01*
X127555000Y-105050000D02*
X127255000Y-105050000D01*
G75*
G02*
X127105000Y-104900000I0J150000D01*
G01*
X127105000Y-103550000D01*
G75*
G02*
X127255000Y-103400000I150000J0D01*
G01*
X127555000Y-103400000D01*
G75*
G02*
X127705000Y-103550000I0J-150000D01*
G01*
X127705000Y-104900000D01*
G75*
G02*
X127555000Y-105050000I-150000J0D01*
G01*
G37*
%TD.AperFunction*%
%TO.P,U3,3*%
%TO.N,GND*%
%TA.AperFunction,SMDPad,CuDef*%
G36*
G01*
X126285000Y-105050000D02*
X125985000Y-105050000D01*
G75*
G02*
X125835000Y-104900000I0J150000D01*
G01*
X125835000Y-103550000D01*
G75*
G02*
X125985000Y-103400000I150000J0D01*
G01*
X126285000Y-103400000D01*
G75*
G02*
X126435000Y-103550000I0J-150000D01*
G01*
X126435000Y-104900000D01*
G75*
G02*
X126285000Y-105050000I-150000J0D01*
G01*
G37*
%TD.AperFunction*%
%TO.P,U3,2*%
%TO.N,Net-(R9-Pad2)*%
%TA.AperFunction,SMDPad,CuDef*%
G36*
G01*
X125015000Y-105050000D02*
X124715000Y-105050000D01*
G75*
G02*
X124565000Y-104900000I0J150000D01*
G01*
X124565000Y-103550000D01*
G75*
G02*
X124715000Y-103400000I150000J0D01*
G01*
X125015000Y-103400000D01*
G75*
G02*
X125165000Y-103550000I0J-150000D01*
G01*
X125165000Y-104900000D01*
G75*
G02*
X125015000Y-105050000I-150000J0D01*
G01*
G37*
%TD.AperFunction*%
%TO.P,U3,1*%
%TO.N,GND*%
%TA.AperFunction,SMDPad,CuDef*%
G36*
G01*
X123745000Y-105050000D02*
X123445000Y-105050000D01*
G75*
G02*
X123295000Y-104900000I0J150000D01*
G01*
X123295000Y-103550000D01*
G75*
G02*
X123445000Y-103400000I150000J0D01*
G01*
X123745000Y-103400000D01*
G75*
G02*
X123895000Y-103550000I0J-150000D01*
G01*
X123895000Y-104900000D01*
G75*
G02*
X123745000Y-105050000I-150000J0D01*
G01*
G37*
%TD.AperFunction*%
%TD*%
%TO.P,U4,1*%
%TO.N,CH340GND*%
%TA.AperFunction,SMDPad,CuDef*%
G36*
G01*
X137250000Y-101405000D02*
X137250000Y-101105000D01*
G75*
G02*
X137400000Y-100955000I150000J0D01*
G01*
X139050000Y-100955000D01*
G75*
G02*
X139200000Y-101105000I0J-150000D01*
G01*
X139200000Y-101405000D01*
G75*
G02*
X139050000Y-101555000I-150000J0D01*
G01*
X137400000Y-101555000D01*
G75*
G02*
X137250000Y-101405000I0J150000D01*
G01*
G37*
%TD.AperFunction*%
%TO.P,U4,2*%
%TO.N,Net-(R12-Pad1)*%
%TA.AperFunction,SMDPad,CuDef*%
G36*
G01*
X137250000Y-102675000D02*
X137250000Y-102375000D01*
G75*
G02*
X137400000Y-102225000I150000J0D01*
G01*
X139050000Y-102225000D01*
G75*
G02*
X139200000Y-102375000I0J-150000D01*
G01*
X139200000Y-102675000D01*
G75*
G02*
X139050000Y-102825000I-150000J0D01*
G01*
X137400000Y-102825000D01*
G75*
G02*
X137250000Y-102675000I0J150000D01*
G01*
G37*
%TD.AperFunction*%
%TO.P,U4,3*%
%TO.N,Net-(R13-Pad2)*%
%TA.AperFunction,SMDPad,CuDef*%
G36*
G01*
X137250000Y-103945000D02*
X137250000Y-103645000D01*
G75*
G02*
X137400000Y-103495000I150000J0D01*
G01*
X139050000Y-103495000D01*
G75*
G02*
X139200000Y-103645000I0J-150000D01*
G01*
X139200000Y-103945000D01*
G75*
G02*
X139050000Y-104095000I-150000J0D01*
G01*
X137400000Y-104095000D01*
G75*
G02*
X137250000Y-103945000I0J150000D01*
G01*
G37*
%TD.AperFunction*%
%TO.P,U4,4*%
%TO.N,VDD*%
%TA.AperFunction,SMDPad,CuDef*%
G36*
G01*
X137250000Y-105215000D02*
X137250000Y-104915000D01*
G75*
G02*
X137400000Y-104765000I150000J0D01*
G01*
X139050000Y-104765000D01*
G75*
G02*
X139200000Y-104915000I0J-150000D01*
G01*
X139200000Y-105215000D01*
G75*
G02*
X139050000Y-105365000I-150000J0D01*
G01*
X137400000Y-105365000D01*
G75*
G02*
X137250000Y-105215000I0J150000D01*
G01*
G37*
%TD.AperFunction*%
%TO.P,U4,5*%
%TO.N,UD+*%
%TA.AperFunction,SMDPad,CuDef*%
G36*
G01*
X137250000Y-106485000D02*
X137250000Y-106185000D01*
G75*
G02*
X137400000Y-106035000I150000J0D01*
G01*
X139050000Y-106035000D01*
G75*
G02*
X139200000Y-106185000I0J-150000D01*
G01*
X139200000Y-106485000D01*
G75*
G02*
X139050000Y-106635000I-150000J0D01*
G01*
X137400000Y-106635000D01*
G75*
G02*
X137250000Y-106485000I0J150000D01*
G01*
G37*
%TD.AperFunction*%
%TO.P,U4,6*%
%TO.N,UD-*%
%TA.AperFunction,SMDPad,CuDef*%
G36*
G01*
X137250000Y-107755000D02*
X137250000Y-107455000D01*
G75*
G02*
X137400000Y-107305000I150000J0D01*
G01*
X139050000Y-107305000D01*
G75*
G02*
X139200000Y-107455000I0J-150000D01*
G01*
X139200000Y-107755000D01*
G75*
G02*
X139050000Y-107905000I-150000J0D01*
G01*
X137400000Y-107905000D01*
G75*
G02*
X137250000Y-107755000I0J150000D01*
G01*
G37*
%TD.AperFunction*%
%TO.P,U4,7*%
%TO.N,Net-(C9-Pad1)*%
%TA.AperFunction,SMDPad,CuDef*%
G36*
G01*
X137250000Y-109025000D02*
X137250000Y-108725000D01*
G75*
G02*
X137400000Y-108575000I150000J0D01*
G01*
X139050000Y-108575000D01*
G75*
G02*
X139200000Y-108725000I0J-150000D01*
G01*
X139200000Y-109025000D01*
G75*
G02*
X139050000Y-109175000I-150000J0D01*
G01*
X137400000Y-109175000D01*
G75*
G02*
X137250000Y-109025000I0J150000D01*
G01*
G37*
%TD.AperFunction*%
%TO.P,U4,8*%
%TO.N,Net-(C10-Pad1)*%
%TA.AperFunction,SMDPad,CuDef*%
G36*
G01*
X137250000Y-110295000D02*
X137250000Y-109995000D01*
G75*
G02*
X137400000Y-109845000I150000J0D01*
G01*
X139050000Y-109845000D01*
G75*
G02*
X139200000Y-109995000I0J-150000D01*
G01*
X139200000Y-110295000D01*
G75*
G02*
X139050000Y-110445000I-150000J0D01*
G01*
X137400000Y-110445000D01*
G75*
G02*
X137250000Y-110295000I0J150000D01*
G01*
G37*
%TD.AperFunction*%
%TO.P,U4,9*%
%TO.N,Net-(U4-Pad9)*%
%TA.AperFunction,SMDPad,CuDef*%
G36*
G01*
X142200000Y-110295000D02*
X142200000Y-109995000D01*
G75*
G02*
X142350000Y-109845000I150000J0D01*
G01*
X144000000Y-109845000D01*
G75*
G02*
X144150000Y-109995000I0J-150000D01*
G01*
X144150000Y-110295000D01*
G75*
G02*
X144000000Y-110445000I-150000J0D01*
G01*
X142350000Y-110445000D01*
G75*
G02*
X142200000Y-110295000I0J150000D01*
G01*
G37*
%TD.AperFunction*%
%TO.P,U4,10*%
%TO.N,Net-(U4-Pad10)*%
%TA.AperFunction,SMDPad,CuDef*%
G36*
G01*
X142200000Y-109025000D02*
X142200000Y-108725000D01*
G75*
G02*
X142350000Y-108575000I150000J0D01*
G01*
X144000000Y-108575000D01*
G75*
G02*
X144150000Y-108725000I0J-150000D01*
G01*
X144150000Y-109025000D01*
G75*
G02*
X144000000Y-109175000I-150000J0D01*
G01*
X142350000Y-109175000D01*
G75*
G02*
X142200000Y-109025000I0J150000D01*
G01*
G37*
%TD.AperFunction*%
%TO.P,U4,11*%
%TO.N,Net-(U4-Pad11)*%
%TA.AperFunction,SMDPad,CuDef*%
G36*
G01*
X142200000Y-107755000D02*
X142200000Y-107455000D01*
G75*
G02*
X142350000Y-107305000I150000J0D01*
G01*
X144000000Y-107305000D01*
G75*
G02*
X144150000Y-107455000I0J-150000D01*
G01*
X144150000Y-107755000D01*
G75*
G02*
X144000000Y-107905000I-150000J0D01*
G01*
X142350000Y-107905000D01*
G75*
G02*
X142200000Y-107755000I0J150000D01*
G01*
G37*
%TD.AperFunction*%
%TO.P,U4,12*%
%TO.N,Net-(U4-Pad12)*%
%TA.AperFunction,SMDPad,CuDef*%
G36*
G01*
X142200000Y-106485000D02*
X142200000Y-106185000D01*
G75*
G02*
X142350000Y-106035000I150000J0D01*
G01*
X144000000Y-106035000D01*
G75*
G02*
X144150000Y-106185000I0J-150000D01*
G01*
X144150000Y-106485000D01*
G75*
G02*
X144000000Y-106635000I-150000J0D01*
G01*
X142350000Y-106635000D01*
G75*
G02*
X142200000Y-106485000I0J150000D01*
G01*
G37*
%TD.AperFunction*%
%TO.P,U4,13*%
%TO.N,DTR*%
%TA.AperFunction,SMDPad,CuDef*%
G36*
G01*
X142200000Y-105215000D02*
X142200000Y-104915000D01*
G75*
G02*
X142350000Y-104765000I150000J0D01*
G01*
X144000000Y-104765000D01*
G75*
G02*
X144150000Y-104915000I0J-150000D01*
G01*
X144150000Y-105215000D01*
G75*
G02*
X144000000Y-105365000I-150000J0D01*
G01*
X142350000Y-105365000D01*
G75*
G02*
X142200000Y-105215000I0J150000D01*
G01*
G37*
%TD.AperFunction*%
%TO.P,U4,14*%
%TO.N,RTS*%
%TA.AperFunction,SMDPad,CuDef*%
G36*
G01*
X142200000Y-103945000D02*
X142200000Y-103645000D01*
G75*
G02*
X142350000Y-103495000I150000J0D01*
G01*
X144000000Y-103495000D01*
G75*
G02*
X144150000Y-103645000I0J-150000D01*
G01*
X144150000Y-103945000D01*
G75*
G02*
X144000000Y-104095000I-150000J0D01*
G01*
X142350000Y-104095000D01*
G75*
G02*
X142200000Y-103945000I0J150000D01*
G01*
G37*
%TD.AperFunction*%
%TO.P,U4,15*%
%TO.N,Net-(U4-Pad15)*%
%TA.AperFunction,SMDPad,CuDef*%
G36*
G01*
X142200000Y-102675000D02*
X142200000Y-102375000D01*
G75*
G02*
X142350000Y-102225000I150000J0D01*
G01*
X144000000Y-102225000D01*
G75*
G02*
X144150000Y-102375000I0J-150000D01*
G01*
X144150000Y-102675000D01*
G75*
G02*
X144000000Y-102825000I-150000J0D01*
G01*
X142350000Y-102825000D01*
G75*
G02*
X142200000Y-102675000I0J150000D01*
G01*
G37*
%TD.AperFunction*%
%TO.P,U4,16*%
%TO.N,VDD*%
%TA.AperFunction,SMDPad,CuDef*%
G36*
G01*
X142200000Y-101405000D02*
X142200000Y-101105000D01*
G75*
G02*
X142350000Y-100955000I150000J0D01*
G01*
X144000000Y-100955000D01*
G75*
G02*
X144150000Y-101105000I0J-150000D01*
G01*
X144150000Y-101405000D01*
G75*
G02*
X144000000Y-101555000I-150000J0D01*
G01*
X142350000Y-101555000D01*
G75*
G02*
X142200000Y-101405000I0J150000D01*
G01*
G37*
%TD.AperFunction*%
%TD*%
D18*
%TO.P,Y1,1*%
%TO.N,Net-(C9-Pad1)*%
X132450000Y-108000000D03*
%TO.P,Y1,2*%
%TO.N,GND*%
X132450000Y-110200000D03*
%TO.P,Y1,3*%
%TO.N,Net-(C10-Pad1)*%
X134150000Y-110200000D03*
%TO.P,Y1,4*%
%TO.N,GND*%
X134150000Y-108000000D03*
%TD*%
D12*
%TO.P,Q2,1*%
%TO.N,DTR*%
X137975001Y-91400000D03*
%TO.P,Q2,2*%
%TO.N,Net-(Q2-Pad2)*%
X139875001Y-91400000D03*
%TO.P,Q2,3*%
%TO.N,GPIO0*%
X138925001Y-89400000D03*
%TD*%
%TO.P,Q3,3*%
%TO.N,RESET*%
X142550000Y-89400000D03*
%TO.P,Q3,2*%
%TO.N,Net-(Q3-Pad2)*%
X143500000Y-91400000D03*
%TO.P,Q3,1*%
%TO.N,RTS*%
X141600000Y-91400000D03*
%TD*%
D19*
%TO.P,J5,18*%
%TO.N,VBUS*%
X121000000Y-112240000D03*
%TO.P,J5,17*%
%TO.N,VDD*%
X121000000Y-109700000D03*
%TO.P,J5,16*%
%TO.N,Net-(J5-Pad16)*%
X121000000Y-107160000D03*
%TO.P,J5,15*%
%TO.N,GND*%
X121000000Y-104620000D03*
%TO.P,J5,14*%
%TO.N,+BATT*%
X121000000Y-102080000D03*
%TO.P,J5,13*%
%TO.N,EN*%
X121000000Y-99540000D03*
%TO.P,J5,12*%
%TO.N,Net-(J5-Pad12)*%
X121000000Y-97000000D03*
%TO.P,J5,11*%
%TO.N,Net-(J5-Pad11)*%
X121000000Y-94460000D03*
%TO.P,J5,10*%
%TO.N,IO2*%
X121000000Y-91920000D03*
%TO.P,J5,9*%
%TO.N,IO5*%
X121000000Y-89380000D03*
%TO.P,J5,8*%
%TO.N,IO13*%
X121000000Y-86840000D03*
%TO.P,J5,7*%
%TO.N,IO33*%
X121000000Y-84300000D03*
%TO.P,J5,6*%
%TO.N,IO32*%
X121000000Y-81760000D03*
%TO.P,J5,5*%
%TO.N,IO27*%
X121000000Y-79220000D03*
%TO.P,J5,4*%
%TO.N,IO26_DAC2*%
X121000000Y-76680000D03*
%TO.P,J5,3*%
%TO.N,IO25_DAC1*%
X121000000Y-74140000D03*
%TO.P,J5,2*%
%TO.N,TXD0*%
X121000000Y-71600000D03*
D20*
%TO.P,J5,1*%
%TO.N,RXD0*%
X121000000Y-69060000D03*
%TD*%
%TO.P,J6,1*%
%TO.N,I36*%
X146400000Y-69060000D03*
D19*
%TO.P,J6,2*%
%TO.N,I39*%
X146400000Y-71600000D03*
%TO.P,J6,3*%
%TO.N,I34*%
X146400000Y-74140000D03*
%TO.P,J6,4*%
%TO.N,I35*%
X146400000Y-76680000D03*
%TO.P,J6,5*%
%TO.N,IO15*%
X146400000Y-79220000D03*
%TO.P,J6,6*%
%TO.N,Net-(J6-Pad6)*%
X146400000Y-81760000D03*
%TO.P,J6,7*%
%TO.N,GPIO0*%
X146400000Y-84300000D03*
%TO.P,J6,8*%
%TO.N,IO18*%
X146400000Y-86840000D03*
%TO.P,J6,9*%
%TO.N,IO23*%
X146400000Y-89380000D03*
%TO.P,J6,10*%
%TO.N,IO19*%
X146400000Y-91920000D03*
%TO.P,J6,11*%
%TO.N,IO21*%
X146400000Y-94460000D03*
%TO.P,J6,12*%
%TO.N,IO22*%
X146400000Y-97000000D03*
%TO.P,J6,13*%
%TO.N,IO14*%
X146400000Y-99540000D03*
%TO.P,J6,14*%
%TO.N,IO12*%
X146400000Y-102080000D03*
%TO.P,J6,15*%
%TO.N,IO4*%
X146400000Y-104620000D03*
%TO.P,J6,16*%
%TO.N,IO16*%
X146400000Y-107160000D03*
%TO.P,J6,17*%
%TO.N,IO17*%
X146400000Y-109700000D03*
%TO.P,J6,18*%
%TO.N,RESET*%
X146400000Y-112240000D03*
%TD*%
D21*
%TO.P,J2,0*%
%TO.N,N/C*%
X140434000Y-115698000D03*
X135584000Y-115698000D03*
D22*
%TO.P,J2,*%
%TO.N,*%
X134389000Y-118398000D03*
X141628000Y-118398000D03*
D23*
X136326000Y-119209000D03*
X139605000Y-119225000D03*
D24*
%TO.P,J2,1*%
%TO.N,VBUS*%
X136699000Y-114913000D03*
%TO.P,J2,2*%
%TO.N,UD-*%
X137349000Y-114913000D03*
%TO.P,J2,3*%
%TO.N,UD+*%
X137999000Y-114913000D03*
%TO.P,J2,4*%
%TO.N,Net-(J2-Pad4)*%
X138649000Y-114913000D03*
%TO.P,J2,5*%
%TO.N,GND*%
X139299000Y-114913000D03*
%TD*%
D25*
%TO.N,GND*%
X132700000Y-77200000D03*
D26*
X131700000Y-91500000D03*
X135100000Y-99200000D03*
X139300000Y-99300000D03*
X129000000Y-106900000D03*
X126000000Y-106900000D03*
X123700000Y-106800000D03*
X123600000Y-103100000D03*
X126200000Y-103100000D03*
X136300000Y-90600000D03*
X125500000Y-89100000D03*
X124900000Y-90000000D03*
X123500000Y-90100000D03*
X128000000Y-85400000D03*
X126500000Y-69200000D03*
X140900000Y-69300000D03*
X126400000Y-117400000D03*
X138000000Y-93000000D03*
X136900000Y-93000000D03*
X132900000Y-110800000D03*
X134100000Y-107500000D03*
X135600000Y-111000000D03*
X123200000Y-96400000D03*
X124500000Y-94800000D03*
X139600000Y-113900000D03*
X139304341Y-116303725D03*
X127600000Y-117400000D03*
D25*
X134300000Y-78400000D03*
X134300000Y-75900000D03*
X131100000Y-75900000D03*
X131100000Y-78400000D03*
D26*
%TO.N,Net-(C2-Pad1)*%
X131500000Y-105850000D03*
X131500000Y-99500000D03*
%TO.N,VDD*%
X141900000Y-101600000D03*
X126500000Y-70500000D03*
X123900000Y-70500000D03*
X127500000Y-89000000D03*
X130100000Y-93400000D03*
X141000000Y-94281998D03*
X136961108Y-105238892D03*
%TO.N,+BATT*%
X128400000Y-105000000D03*
X128900000Y-111600000D03*
X127400000Y-100100000D03*
%TO.N,RESET*%
X141700000Y-88000000D03*
X140600000Y-86400000D03*
X141800000Y-98600000D03*
%TO.N,VBUS*%
X130500000Y-112200000D03*
X125400000Y-112200000D03*
%TO.N,IO21*%
X140900000Y-75600000D03*
%TO.N,IO17*%
X141350000Y-82000000D03*
X144200000Y-99213680D03*
X141000000Y-103500000D03*
%TO.N,IO16*%
X141350000Y-83200000D03*
X143450000Y-100000000D03*
X141000000Y-102300000D03*
%TO.N,DTR*%
X140472295Y-90383365D03*
X137800000Y-90400000D03*
%TO.N,RTS*%
X141830331Y-97569669D03*
X139900000Y-105300000D03*
%TO.N,CH340GND*%
X135300000Y-90600000D03*
X135800000Y-95500000D03*
%TO.N,TXD0*%
X137100000Y-98000000D03*
X135800000Y-83500000D03*
X138462170Y-77937830D03*
X138500000Y-75800000D03*
%TO.N,RXD0*%
X139252831Y-70347169D03*
X139292169Y-72507831D03*
X135900000Y-97900000D03*
X135092892Y-82792892D03*
X137500000Y-77200000D03*
%TO.N,I35*%
X123200000Y-97400000D03*
X125597887Y-96569036D03*
X128099989Y-91300000D03*
X130500000Y-89324999D03*
X130400000Y-81900000D03*
X143800000Y-78200000D03*
X136600000Y-79100000D03*
%TO.N,I36*%
X138300000Y-68200000D03*
X133000000Y-72535000D03*
%TO.N,I39*%
X143900000Y-68950000D03*
X133912170Y-73387830D03*
%TO.N,I34*%
X143900000Y-70300000D03*
X129599998Y-74537829D03*
%TO.N,IO32*%
X123007168Y-82892832D03*
X128000000Y-82900000D03*
%TO.N,IO33*%
X123000000Y-83900000D03*
X127200000Y-83900000D03*
%TO.N,IO14*%
X126800000Y-86400000D03*
X140800000Y-106300000D03*
%TO.N,IO12*%
X126700000Y-87500000D03*
X141500000Y-107500000D03*
%TO.N,IO13*%
X124900000Y-87000000D03*
X129200000Y-85200000D03*
%TO.N,IO15*%
X138100000Y-85400000D03*
X143800002Y-81536331D03*
%TO.N,IO4*%
X141350000Y-84500000D03*
%TO.N,IO5*%
X123300000Y-87590000D03*
X129100000Y-82000000D03*
X139700000Y-80700000D03*
X143400000Y-80600000D03*
%TO.N,IO18*%
X143558955Y-79501707D03*
%TO.N,IO19*%
X140900000Y-78100000D03*
%TO.N,IO22*%
X143800000Y-71800000D03*
%TO.N,IO23*%
X140405375Y-71050000D03*
%TD*%
D27*
%TO.N,Net-(C1-Pad1)*%
X127525000Y-104345000D02*
X127405000Y-104225000D01*
X127525000Y-106100000D02*
X127525000Y-104345000D01*
X128505000Y-103125000D02*
X127405000Y-104225000D01*
X129000000Y-103125000D02*
X128505000Y-103125000D01*
X129092500Y-103125000D02*
X130871500Y-101346000D01*
X129000000Y-103125000D02*
X129092500Y-103125000D01*
D28*
X127482880Y-103125000D02*
X129200000Y-103125000D01*
X123595000Y-99237120D02*
X127482880Y-103125000D01*
X123595000Y-98975000D02*
X123595000Y-99237120D01*
%TO.N,GND*%
X135490000Y-107250000D02*
X135490000Y-107260000D01*
X135490000Y-108700000D02*
X135540000Y-108750000D01*
X135490000Y-107250000D02*
X135490000Y-108700000D01*
X126200000Y-104160000D02*
X126135000Y-104225000D01*
X126200000Y-103100000D02*
X126200000Y-104160000D01*
X123600000Y-104220000D02*
X123595000Y-104225000D01*
X123600000Y-103100000D02*
X123600000Y-104220000D01*
X123700000Y-106140000D02*
X123740000Y-106100000D01*
X123700000Y-106800000D02*
X123700000Y-106140000D01*
X126000000Y-106125000D02*
X125975000Y-106100000D01*
X126000000Y-106900000D02*
X126000000Y-106125000D01*
X129000000Y-106900000D02*
X129000000Y-106100000D01*
X140192000Y-99300000D02*
X140310000Y-99182000D01*
X139300000Y-99300000D02*
X140192000Y-99300000D01*
X134028000Y-99200000D02*
X134010000Y-99182000D01*
X135100000Y-99200000D02*
X134028000Y-99200000D01*
X136250000Y-90650000D02*
X136300000Y-90600000D01*
X136250000Y-91375000D02*
X136250000Y-90650000D01*
X124900000Y-90000000D02*
X124900000Y-89100000D01*
X124900000Y-89100000D02*
X124800000Y-89000000D01*
X125500000Y-89100000D02*
X124900000Y-89100000D01*
X123635000Y-90235000D02*
X123500000Y-90100000D01*
X123635000Y-91186000D02*
X123635000Y-90235000D01*
X123500000Y-90100000D02*
X123500000Y-89480000D01*
X128000000Y-86740000D02*
X127985000Y-86755000D01*
X128000000Y-85400000D02*
X128000000Y-86740000D01*
X125245000Y-69200000D02*
X125200000Y-69245000D01*
X126500000Y-69200000D02*
X125245000Y-69200000D01*
X142145000Y-69300000D02*
X142200000Y-69245000D01*
X140900000Y-69300000D02*
X142145000Y-69300000D01*
X137950000Y-93050000D02*
X138000000Y-93000000D01*
X137950000Y-93726000D02*
X137950000Y-93050000D01*
X136878000Y-93726000D02*
X137950000Y-93726000D01*
X136878000Y-93022000D02*
X136900000Y-93000000D01*
X136878000Y-93726000D02*
X136878000Y-93022000D01*
D27*
X134350000Y-107550000D02*
X134300000Y-107500000D01*
D28*
X135540000Y-110940000D02*
X135600000Y-111000000D01*
X135540000Y-110250000D02*
X135540000Y-110940000D01*
X127382000Y-95060000D02*
X127472000Y-94970000D01*
X123890000Y-96400000D02*
X123900000Y-96390000D01*
X123200000Y-96400000D02*
X123890000Y-96400000D01*
X127362000Y-95080000D02*
X127472000Y-94970000D01*
X127332000Y-95110000D02*
X127472000Y-94970000D01*
D27*
X139299000Y-114201000D02*
X139600000Y-113900000D01*
X139299000Y-114913000D02*
X139299000Y-114201000D01*
X131700000Y-91500000D02*
X131080000Y-91500000D01*
D28*
X125440000Y-94970000D02*
X125300000Y-95110000D01*
X127472000Y-94970000D02*
X125440000Y-94970000D01*
X124990000Y-94800000D02*
X125300000Y-95110000D01*
X124500000Y-94800000D02*
X124990000Y-94800000D01*
D27*
X139299000Y-116298384D02*
X139304341Y-116303725D01*
X139299000Y-114913000D02*
X139299000Y-116298384D01*
D29*
X127100000Y-116700000D02*
X126400000Y-117400000D01*
X127100000Y-114500000D02*
X127100000Y-116700000D01*
X127100000Y-116900000D02*
X127600000Y-117400000D01*
X127100000Y-114500000D02*
X127100000Y-116900000D01*
D28*
X134900000Y-107250000D02*
X134150000Y-108000000D01*
X135490000Y-107250000D02*
X134900000Y-107250000D01*
D27*
%TO.N,Net-(C2-Pad1)*%
X125289998Y-109750000D02*
X126539998Y-108500000D01*
X123850000Y-109750000D02*
X125289998Y-109750000D01*
X130500000Y-106850000D02*
X130500000Y-105950000D01*
X128850000Y-108500000D02*
X130500000Y-106850000D01*
X126539998Y-108500000D02*
X128850000Y-108500000D01*
D29*
X131400000Y-105950000D02*
X131500000Y-105850000D01*
X130500000Y-105950000D02*
X131400000Y-105950000D01*
D27*
X128532001Y-94284999D02*
X128267002Y-94020000D01*
X128267002Y-94020000D02*
X127472000Y-94020000D01*
D28*
X128010000Y-97054002D02*
X128532001Y-96532001D01*
X128010000Y-97250000D02*
X128010000Y-97054002D01*
D27*
X131500000Y-98934315D02*
X128532001Y-95966316D01*
X131500000Y-99500000D02*
X131500000Y-98934315D01*
X128532001Y-95966316D02*
X128532001Y-94284999D01*
D28*
X128532001Y-96532001D02*
X128532001Y-95966316D01*
X127342000Y-94150000D02*
X127472000Y-94020000D01*
X125300000Y-94150000D02*
X127342000Y-94150000D01*
D29*
%TO.N,VDD*%
X125215000Y-70500000D02*
X125200000Y-70515000D01*
X126500000Y-70500000D02*
X125215000Y-70500000D01*
X125185000Y-70500000D02*
X125200000Y-70515000D01*
X123900000Y-70500000D02*
X125185000Y-70500000D01*
D28*
X142830000Y-101600000D02*
X143175000Y-101255000D01*
X141900000Y-101600000D02*
X142830000Y-101600000D01*
X138290000Y-105000000D02*
X138225000Y-105065000D01*
D27*
X127500000Y-89000000D02*
X126700000Y-89000000D01*
X130092000Y-93408000D02*
X130100000Y-93400000D01*
X130092000Y-94020000D02*
X130092000Y-93408000D01*
D28*
X140972000Y-94253998D02*
X141000000Y-94281998D01*
X140972000Y-93726000D02*
X140972000Y-94253998D01*
X137135000Y-105065000D02*
X136961108Y-105238892D01*
X138225000Y-105065000D02*
X137135000Y-105065000D01*
X124095010Y-87924990D02*
X123500000Y-88520000D01*
X125624990Y-87924990D02*
X124095010Y-87924990D01*
X126700000Y-89000000D02*
X125624990Y-87924990D01*
D27*
X130100000Y-91520000D02*
X130120000Y-91500000D01*
X130100000Y-93400000D02*
X130100000Y-91520000D01*
%TO.N,+BATT*%
X129450000Y-105000000D02*
X132500000Y-105000000D01*
X129000000Y-104550000D02*
X129450000Y-105000000D01*
D29*
X128550000Y-105000000D02*
X129000000Y-104550000D01*
X128400000Y-105000000D02*
X128550000Y-105000000D01*
D27*
X127400000Y-98980000D02*
X127405000Y-98975000D01*
X127400000Y-100100000D02*
X127400000Y-98980000D01*
D29*
X128900000Y-114300000D02*
X129100000Y-114500000D01*
X128900000Y-111600000D02*
X128900000Y-114300000D01*
D28*
X127405000Y-98712876D02*
X127405000Y-98975000D01*
X126102124Y-97410000D02*
X127405000Y-98712876D01*
X125200000Y-97410000D02*
X126102124Y-97410000D01*
%TO.N,RESET*%
X139952000Y-93726000D02*
X138910000Y-93726000D01*
X138910000Y-90884999D02*
X140394999Y-89400000D01*
X140394999Y-89400000D02*
X142550000Y-89400000D01*
X138910000Y-93726000D02*
X138910000Y-90884999D01*
X134262000Y-95382000D02*
X135918000Y-93726000D01*
X134010000Y-95382000D02*
X134262000Y-95382000D01*
X135918000Y-93768980D02*
X135918000Y-93726000D01*
X136535030Y-94386010D02*
X135918000Y-93768980D01*
X138910000Y-94036000D02*
X138559990Y-94386010D01*
X138559990Y-94386010D02*
X136535030Y-94386010D01*
X138910000Y-93726000D02*
X138910000Y-94036000D01*
X139952000Y-95024000D02*
X140310000Y-95382000D01*
X139952000Y-93726000D02*
X139952000Y-95024000D01*
X142550000Y-88850000D02*
X141700000Y-88000000D01*
X142550000Y-89400000D02*
X142550000Y-88850000D01*
X133370002Y-71785000D02*
X125200000Y-71785000D01*
X140600000Y-79014998D02*
X133370002Y-71785000D01*
X140600000Y-86400000D02*
X140600000Y-79014998D01*
X140310000Y-97110000D02*
X141800000Y-98600000D01*
X140310000Y-95382000D02*
X140310000Y-97110000D01*
%TO.N,Net-(C9-Pad1)*%
X138200000Y-108900000D02*
X138225000Y-108875000D01*
X136500000Y-109000000D02*
X136500000Y-108750000D01*
X138100000Y-108750000D02*
X138225000Y-108875000D01*
X136500000Y-108750000D02*
X138100000Y-108750000D01*
X132450000Y-109000000D02*
X132450000Y-108000000D01*
X132500001Y-109050001D02*
X132450000Y-109000000D01*
X134837021Y-109050001D02*
X132500001Y-109050001D01*
X135197030Y-109410010D02*
X134837021Y-109050001D01*
X136149990Y-109410010D02*
X135197030Y-109410010D01*
X136500000Y-109060000D02*
X136149990Y-109410010D01*
X136500000Y-108750000D02*
X136500000Y-109060000D01*
%TO.N,Net-(C10-Pad1)*%
X138180000Y-110100000D02*
X138225000Y-110145000D01*
X136500000Y-110142980D02*
X136500000Y-110100000D01*
X136500000Y-110292980D02*
X136500000Y-110250000D01*
X138120000Y-110250000D02*
X138225000Y-110145000D01*
X136500000Y-110250000D02*
X138120000Y-110250000D01*
X136500000Y-111210002D02*
X136500000Y-110250000D01*
X135960001Y-111750001D02*
X136500000Y-111210002D01*
X134500001Y-111750001D02*
X135960001Y-111750001D01*
X134350000Y-111600000D02*
X134500001Y-111750001D01*
X134350000Y-110600000D02*
X134350000Y-111600000D01*
D27*
%TO.N,Net-(D1-Pad2)*%
X127400000Y-110000000D02*
X127150000Y-109750000D01*
X128687500Y-110000000D02*
X127400000Y-110000000D01*
D28*
%TO.N,Net-(D2-Pad1)*%
X129200000Y-101550000D02*
X129200000Y-100200000D01*
%TO.N,Net-(D3-Pad1)*%
X123672500Y-92798500D02*
X125285000Y-91186000D01*
X123672500Y-92964000D02*
X123672500Y-92798500D01*
D27*
%TO.N,VBUS*%
X130812500Y-110872502D02*
X130812500Y-110000000D01*
X130500000Y-104050000D02*
X131092500Y-104050000D01*
X131092500Y-104050000D02*
X131571250Y-103571250D01*
X131571250Y-103571250D02*
X133796500Y-101346000D01*
X133400001Y-104239999D02*
X133400001Y-105599999D01*
X132731252Y-103571250D02*
X133400001Y-104239999D01*
X131571250Y-103571250D02*
X132731252Y-103571250D01*
D28*
X134885000Y-105625000D02*
X133375000Y-105625000D01*
X136510000Y-107250000D02*
X134885000Y-105625000D01*
D27*
X133400001Y-105599999D02*
X133375000Y-105625000D01*
D28*
X132809999Y-94601999D02*
X132809999Y-100359499D01*
X132879999Y-94531999D02*
X132809999Y-94601999D01*
X135225000Y-93175000D02*
X133868001Y-94531999D01*
X132809999Y-100359499D02*
X133796500Y-101346000D01*
X133868001Y-94531999D02*
X132879999Y-94531999D01*
X135225000Y-92675000D02*
X135225000Y-93175000D01*
D29*
X121040000Y-112200000D02*
X121000000Y-112240000D01*
X125400000Y-112200000D02*
X121040000Y-112200000D01*
D27*
X136699000Y-113404998D02*
X136574999Y-113280997D01*
X136699000Y-113404998D02*
X136139001Y-112844999D01*
X136699000Y-114913000D02*
X136699000Y-113404998D01*
X136139001Y-112844999D02*
X132559997Y-112844999D01*
X132559997Y-112844999D02*
X130812500Y-111097502D01*
X130812500Y-111887500D02*
X130500000Y-112200000D01*
X130812500Y-111087500D02*
X130812500Y-110000000D01*
X130812500Y-111087500D02*
X130812500Y-111887500D01*
X132224990Y-106775010D02*
X133375000Y-105625000D01*
X130812500Y-107527498D02*
X131564988Y-106775010D01*
X131564988Y-106775010D02*
X132224990Y-106775010D01*
X130812500Y-110000000D02*
X130812500Y-107527498D01*
D30*
%TO.N,UD-*%
X138873836Y-107202156D02*
X140467844Y-108796164D01*
X138225000Y-107605000D02*
X138627844Y-107202156D01*
X138627844Y-107202156D02*
X138873836Y-107202156D01*
D31*
X137349000Y-114113000D02*
X137449000Y-114013000D01*
X137349000Y-114913000D02*
X137349000Y-114113000D01*
D30*
X140467844Y-108796164D02*
X140467844Y-110303836D01*
X140467844Y-110303836D02*
X139503836Y-111267844D01*
X139503836Y-111267844D02*
X137903836Y-111267844D01*
X137441844Y-113320155D02*
X137349000Y-113412999D01*
X137441844Y-111729836D02*
X137441844Y-113320155D01*
X137903836Y-111267844D02*
X137441844Y-111729836D01*
X137349000Y-113412999D02*
X137349000Y-114913000D01*
%TO.N,UD+*%
X139066164Y-106737844D02*
X140932156Y-108603836D01*
X138627844Y-106737844D02*
X139066164Y-106737844D01*
X138225000Y-106335000D02*
X138627844Y-106737844D01*
D31*
X137999000Y-114113000D02*
X137899000Y-114013000D01*
X137999000Y-114913000D02*
X137999000Y-114113000D01*
D30*
X140932156Y-108603836D02*
X140932156Y-110496164D01*
X140932156Y-110496164D02*
X139696164Y-111732156D01*
X139696164Y-111732156D02*
X138096164Y-111732156D01*
X137906156Y-111922164D02*
X137906156Y-113320155D01*
X137999000Y-113412999D02*
X137999000Y-114913000D01*
X137906156Y-113320155D02*
X137999000Y-113412999D01*
X138096164Y-111732156D02*
X137906156Y-111922164D01*
D28*
%TO.N,EN*%
X127472000Y-96768000D02*
X126990000Y-97250000D01*
X127472000Y-95920000D02*
X127472000Y-96768000D01*
X121000000Y-98984092D02*
X121000000Y-99540000D01*
X127472000Y-95920000D02*
X127421990Y-95869990D01*
X127402001Y-95850001D02*
X127472000Y-95920000D01*
X124957010Y-95769990D02*
X127321990Y-95769990D01*
X124837019Y-95649999D02*
X124957010Y-95769990D01*
X122200001Y-98339999D02*
X122200001Y-96289997D01*
X122839999Y-95649999D02*
X124837019Y-95649999D01*
X127321990Y-95769990D02*
X127472000Y-95920000D01*
X122200001Y-96289997D02*
X122839999Y-95649999D01*
X121000000Y-99540000D02*
X122200001Y-98339999D01*
%TO.N,IO21*%
X142195000Y-75600000D02*
X142200000Y-75595000D01*
X140900000Y-75600000D02*
X142195000Y-75600000D01*
%TO.N,IO17*%
X141405000Y-81945000D02*
X141350000Y-82000000D01*
X142200000Y-81945000D02*
X141405000Y-81945000D01*
X140249999Y-102749999D02*
X141000000Y-103500000D01*
X142469198Y-99213680D02*
X140249999Y-101432879D01*
X140249999Y-101432879D02*
X140249999Y-102749999D01*
X144200000Y-99213680D02*
X142469198Y-99213680D01*
%TO.N,IO16*%
X141365000Y-83215000D02*
X141350000Y-83200000D01*
X142200000Y-83215000D02*
X141365000Y-83215000D01*
X141000000Y-101389998D02*
X141000000Y-102300000D01*
X142389998Y-100000000D02*
X141000000Y-101389998D01*
X143450000Y-100000000D02*
X142389998Y-100000000D01*
%TO.N,Net-(Q2-Pad2)*%
X140320000Y-91844999D02*
X139875001Y-91400000D01*
X140320000Y-92700000D02*
X140320000Y-91844999D01*
%TO.N,GPIO0*%
X142200000Y-86125001D02*
X138925001Y-89400000D01*
X142200000Y-85755000D02*
X142200000Y-86125001D01*
X144945000Y-85755000D02*
X146400000Y-84300000D01*
X142200000Y-85755000D02*
X144945000Y-85755000D01*
%TO.N,DTR*%
X142350001Y-90669999D02*
X142063367Y-90383365D01*
X142063367Y-90383365D02*
X140472295Y-90383365D01*
X142350001Y-92595999D02*
X142350001Y-90669999D01*
X142236000Y-92710000D02*
X142350001Y-92595999D01*
X137800000Y-91224999D02*
X137975001Y-91400000D01*
X137800000Y-90400000D02*
X137800000Y-91224999D01*
X144950001Y-103702123D02*
X143587124Y-105065000D01*
X144950001Y-95424001D02*
X144950001Y-103702123D01*
X143587124Y-105065000D02*
X143175000Y-105065000D01*
X142236000Y-92710000D02*
X144950001Y-95424001D01*
%TO.N,RTS*%
X141340000Y-91660000D02*
X141600000Y-91400000D01*
X141340000Y-92700000D02*
X141340000Y-91660000D01*
X141830331Y-93578423D02*
X141830331Y-97569669D01*
X141340000Y-93088092D02*
X141830331Y-93578423D01*
X141340000Y-92700000D02*
X141340000Y-93088092D01*
X142505000Y-103795000D02*
X143175000Y-103795000D01*
X139900000Y-105300000D02*
X142505000Y-103795000D01*
%TO.N,Net-(Q3-Pad2)*%
X143256000Y-91644000D02*
X143500000Y-91400000D01*
X143256000Y-92710000D02*
X143256000Y-91644000D01*
%TO.N,CH340GND*%
X135300000Y-89375000D02*
X135300000Y-90600000D01*
X138225000Y-97925000D02*
X138225000Y-101255000D01*
X135800000Y-95500000D02*
X138225000Y-97925000D01*
%TO.N,Net-(Q4-Pad1)*%
X134205000Y-91520000D02*
X134350000Y-91375000D01*
X134205000Y-92675000D02*
X134205000Y-91520000D01*
%TO.N,Net-(R4-Pad1)*%
X128150001Y-100460001D02*
X128150001Y-99599999D01*
X127760001Y-100850001D02*
X128150001Y-100460001D01*
X125915001Y-100850001D02*
X127760001Y-100850001D01*
X128150001Y-99599999D02*
X129200000Y-98550000D01*
X124865000Y-99800000D02*
X125915001Y-100850001D01*
X124865000Y-98975000D02*
X124865000Y-99800000D01*
%TO.N,Net-(R9-Pad2)*%
X124865000Y-105995000D02*
X124760000Y-106100000D01*
X124865000Y-104225000D02*
X124865000Y-105995000D01*
%TO.N,TXD0*%
X140900000Y-73055000D02*
X142200000Y-73055000D01*
X121000000Y-71364998D02*
X123919999Y-68444999D01*
X123919999Y-68444999D02*
X136289999Y-68444999D01*
X121000000Y-71600000D02*
X121000000Y-71364998D01*
X136500000Y-98600000D02*
X137100000Y-98000000D01*
X136500000Y-101390000D02*
X136500000Y-98600000D01*
X138462170Y-80837830D02*
X138462170Y-77937830D01*
X135800000Y-83500000D02*
X138462170Y-80837830D01*
X139012498Y-71677500D02*
X139522500Y-71677500D01*
X138500000Y-75800000D02*
X138500000Y-72189998D01*
X139522500Y-71677500D02*
X140900000Y-73055000D01*
X138500000Y-72189998D02*
X139012498Y-71677500D01*
X136289999Y-68444999D02*
X139522500Y-71677500D01*
%TO.N,Net-(R12-Pad1)*%
X138100000Y-102400000D02*
X138225000Y-102525000D01*
X138110000Y-102410000D02*
X138225000Y-102525000D01*
X136500000Y-102410000D02*
X138110000Y-102410000D01*
%TO.N,RXD0*%
X136850651Y-67944989D02*
X139252831Y-70347169D01*
X122115011Y-67944989D02*
X136850651Y-67944989D01*
X121000000Y-69060000D02*
X122115011Y-67944989D01*
X141109338Y-74325000D02*
X142200000Y-74325000D01*
X139292169Y-72507831D02*
X141109338Y-74325000D01*
X135850001Y-97949999D02*
X135900000Y-97900000D01*
X135850001Y-101039999D02*
X135850001Y-97949999D01*
X135500000Y-101390000D02*
X135850001Y-101039999D01*
X137500000Y-80385784D02*
X137500000Y-77200000D01*
X135092892Y-82792892D02*
X137500000Y-80385784D01*
%TO.N,Net-(R13-Pad2)*%
X136615000Y-103795000D02*
X138225000Y-103795000D01*
X135500000Y-102680000D02*
X136615000Y-103795000D01*
X135500000Y-102410000D02*
X135500000Y-102680000D01*
%TO.N,IO2*%
X124422490Y-93789010D02*
X122869010Y-93789010D01*
X122869010Y-93789010D02*
X121000000Y-91920000D01*
X125247500Y-92964000D02*
X124422490Y-93789010D01*
X129636501Y-88574999D02*
X125247500Y-92964000D01*
X138895001Y-88574999D02*
X129636501Y-88574999D01*
X139415000Y-88055000D02*
X138895001Y-88574999D01*
X139415000Y-86755000D02*
X139415000Y-88055000D01*
%TO.N,I35*%
X124180000Y-97410000D02*
X125200000Y-96390000D01*
X123900000Y-97410000D02*
X124180000Y-97410000D01*
X125418851Y-96390000D02*
X125597887Y-96569036D01*
X125200000Y-96390000D02*
X125418851Y-96390000D01*
X130074990Y-89324999D02*
X130500000Y-89324999D01*
X128099989Y-91300000D02*
X130074990Y-89324999D01*
X130400000Y-80765000D02*
X126500000Y-76865000D01*
X126500000Y-76865000D02*
X125200000Y-76865000D01*
X130400000Y-81900000D02*
X130400000Y-80765000D01*
X144880000Y-78200000D02*
X143800000Y-78200000D01*
X146400000Y-76680000D02*
X144880000Y-78200000D01*
X134935000Y-80765000D02*
X130400000Y-80765000D01*
X136600000Y-79100000D02*
X134935000Y-80765000D01*
D32*
X123210000Y-97410000D02*
X123200000Y-97400000D01*
X123900000Y-97410000D02*
X123210000Y-97410000D01*
D28*
%TO.N,I36*%
X145540000Y-68200000D02*
X138300000Y-68200000D01*
X146400000Y-69060000D02*
X145540000Y-68200000D01*
X132480000Y-73055000D02*
X125200000Y-73055000D01*
X133000000Y-72535000D02*
X132480000Y-73055000D01*
%TO.N,I39*%
X143900000Y-69100000D02*
X143900000Y-68950000D01*
X146400000Y-71600000D02*
X143900000Y-69100000D01*
X133512171Y-73787829D02*
X127037171Y-73787829D01*
X126500000Y-74325000D02*
X125200000Y-74325000D01*
X127037171Y-73787829D02*
X126500000Y-74325000D01*
X133912170Y-73387830D02*
X133512171Y-73787829D01*
%TO.N,I34*%
X128542827Y-75595000D02*
X125200000Y-75595000D01*
X129599998Y-74537829D02*
X128542827Y-75595000D01*
X145099999Y-72839999D02*
X146400000Y-74140000D01*
X145099999Y-71500000D02*
X145099999Y-72839999D01*
X143900000Y-70300000D02*
X145099999Y-71500000D01*
%TO.N,IO32*%
X121874336Y-81760000D02*
X123007168Y-82892832D01*
X121000000Y-81760000D02*
X121874336Y-81760000D01*
X126500000Y-78135000D02*
X125200000Y-78135000D01*
X128000000Y-79635000D02*
X126500000Y-78135000D01*
X128000000Y-82900000D02*
X128000000Y-79635000D01*
%TO.N,IO33*%
X122600000Y-84300000D02*
X123000000Y-83900000D01*
X121000000Y-84300000D02*
X122600000Y-84300000D01*
X126500000Y-79405000D02*
X125200000Y-79405000D01*
X127200000Y-80105000D02*
X126500000Y-79405000D01*
X127200000Y-83900000D02*
X127200000Y-80105000D01*
%TO.N,IO25_DAC1*%
X122700011Y-75840011D02*
X121000000Y-74140000D01*
X122700011Y-79475011D02*
X122700011Y-75840011D01*
X123900000Y-80675000D02*
X122700011Y-79475011D01*
X125200000Y-80675000D02*
X123900000Y-80675000D01*
%TO.N,IO26_DAC2*%
X122200001Y-77880001D02*
X121000000Y-76680000D01*
X122200001Y-80245001D02*
X122200001Y-77880001D01*
X123900000Y-81945000D02*
X122200001Y-80245001D01*
X125200000Y-81945000D02*
X123900000Y-81945000D01*
%TO.N,IO27*%
X121000000Y-79825002D02*
X121000000Y-79220000D01*
X124389998Y-83215000D02*
X121000000Y-79825002D01*
X125200000Y-83215000D02*
X124389998Y-83215000D01*
%TO.N,IO14*%
X126800000Y-84785000D02*
X126800000Y-86400000D01*
X126500000Y-84485000D02*
X126800000Y-84785000D01*
X125200000Y-84485000D02*
X126500000Y-84485000D01*
%TO.N,IO12*%
X125200000Y-86000000D02*
X126700000Y-87500000D01*
X125200000Y-85755000D02*
X125200000Y-86000000D01*
%TO.N,IO13*%
X124740000Y-86840000D02*
X124900000Y-87000000D01*
X121000000Y-86840000D02*
X124740000Y-86840000D01*
X129200000Y-86700000D02*
X129255000Y-86755000D01*
X129200000Y-85200000D02*
X129200000Y-86700000D01*
%TO.N,IO15*%
X138145000Y-85445000D02*
X138100000Y-85400000D01*
X138145000Y-86755000D02*
X138145000Y-85445000D01*
X146116333Y-79220000D02*
X146400000Y-79220000D01*
X143800002Y-81536331D02*
X146116333Y-79220000D01*
%TO.N,IO4*%
X141365000Y-84485000D02*
X141350000Y-84500000D01*
X142200000Y-84485000D02*
X141365000Y-84485000D01*
%TO.N,IO5*%
X122790000Y-87590000D02*
X123300000Y-87590000D01*
X121000000Y-89380000D02*
X122790000Y-87590000D01*
X136160001Y-84250001D02*
X139000000Y-81410002D01*
X131350001Y-84250001D02*
X136160001Y-84250001D01*
X129100000Y-82000000D02*
X131350001Y-84250001D01*
X139000000Y-81400000D02*
X139700000Y-80700000D01*
X139000000Y-81410002D02*
X139000000Y-81400000D01*
X142275000Y-80600000D02*
X142200000Y-80675000D01*
X143400000Y-80600000D02*
X142275000Y-80600000D01*
%TO.N,IO18*%
X142296707Y-79501707D02*
X142200000Y-79405000D01*
X143558955Y-79501707D02*
X142296707Y-79501707D01*
%TO.N,IO19*%
X142165000Y-78100000D02*
X142200000Y-78135000D01*
X140900000Y-78100000D02*
X142165000Y-78100000D01*
%TO.N,IO22*%
X142215000Y-71800000D02*
X142200000Y-71785000D01*
X143800000Y-71800000D02*
X142215000Y-71800000D01*
%TO.N,IO23*%
X140940375Y-70515000D02*
X142200000Y-70515000D01*
X140405375Y-71050000D02*
X140940375Y-70515000D01*
%TD*%
D33*
%TO.N,GND*%
X122656928Y-99650000D02*
X122672071Y-99803745D01*
X122716916Y-99951582D01*
X122789742Y-100087829D01*
X122887749Y-100207251D01*
X123007171Y-100305258D01*
X123143418Y-100378084D01*
X123291255Y-100422929D01*
X123445000Y-100438072D01*
X123685795Y-100438072D01*
X126012723Y-102765000D01*
X126007998Y-102765000D01*
X126007998Y-102923748D01*
X125849250Y-102765000D01*
X125835000Y-102761928D01*
X125710518Y-102774188D01*
X125590820Y-102810498D01*
X125480506Y-102869463D01*
X125450936Y-102893730D01*
X125316582Y-102821916D01*
X125168745Y-102777071D01*
X125015000Y-102761928D01*
X124715000Y-102761928D01*
X124561255Y-102777071D01*
X124413418Y-102821916D01*
X124279064Y-102893730D01*
X124249494Y-102869463D01*
X124139180Y-102810498D01*
X124019482Y-102774188D01*
X123895000Y-102761928D01*
X123880750Y-102765000D01*
X123722000Y-102923750D01*
X123722000Y-104098000D01*
X123742000Y-104098000D01*
X123742000Y-104352000D01*
X123722000Y-104352000D01*
X123722000Y-104372000D01*
X123468000Y-104372000D01*
X123468000Y-104352000D01*
X122818750Y-104352000D01*
X122660000Y-104510750D01*
X122656928Y-105050000D01*
X122669188Y-105174482D01*
X122705498Y-105294180D01*
X122764463Y-105404494D01*
X122843815Y-105501185D01*
X122882719Y-105533112D01*
X122877527Y-105543121D01*
X122842699Y-105663258D01*
X122831977Y-105787881D01*
X122835000Y-105814250D01*
X122993750Y-105973000D01*
X123613000Y-105973000D01*
X123613000Y-105953000D01*
X123851928Y-105953000D01*
X123851928Y-106285000D01*
X123866782Y-106435819D01*
X123867000Y-106436538D01*
X123867000Y-106896250D01*
X124025750Y-107055000D01*
X124142202Y-107044226D01*
X124261442Y-107006441D01*
X124301451Y-106984416D01*
X124329158Y-106999225D01*
X124474181Y-107043218D01*
X124625000Y-107058072D01*
X124895000Y-107058072D01*
X125045819Y-107043218D01*
X125081413Y-107032420D01*
X125170506Y-107105537D01*
X125280820Y-107164502D01*
X125400518Y-107200812D01*
X125525000Y-107213072D01*
X125689250Y-107210000D01*
X125848000Y-107051250D01*
X125848000Y-106227000D01*
X125828000Y-106227000D01*
X125828000Y-105973000D01*
X125848000Y-105973000D01*
X125848000Y-105953000D01*
X126102000Y-105953000D01*
X126102000Y-105973000D01*
X126122000Y-105973000D01*
X126122000Y-106227000D01*
X126102000Y-106227000D01*
X126102000Y-107051250D01*
X126260750Y-107210000D01*
X126425000Y-107213072D01*
X126549482Y-107200812D01*
X126669180Y-107164502D01*
X126779494Y-107105537D01*
X126823649Y-107069300D01*
X126969717Y-107147375D01*
X127131623Y-107196488D01*
X127300000Y-107213072D01*
X127750000Y-107213072D01*
X127918377Y-107196488D01*
X128080283Y-107147375D01*
X128187917Y-107089843D01*
X128280820Y-107139502D01*
X128400518Y-107175812D01*
X128525000Y-107188072D01*
X128714250Y-107185000D01*
X128872998Y-107026252D01*
X128872998Y-107185000D01*
X128913421Y-107185000D01*
X128483422Y-107615000D01*
X126583467Y-107615000D01*
X126539998Y-107610719D01*
X126496529Y-107615000D01*
X126496521Y-107615000D01*
X126381304Y-107626348D01*
X126366507Y-107627805D01*
X126315901Y-107643157D01*
X126199685Y-107678411D01*
X126045939Y-107760589D01*
X126045937Y-107760590D01*
X126045938Y-107760590D01*
X125944951Y-107843468D01*
X125944949Y-107843470D01*
X125911181Y-107871183D01*
X125883468Y-107904951D01*
X124923420Y-108865000D01*
X124867683Y-108865000D01*
X124830537Y-108795506D01*
X124751185Y-108698815D01*
X124654494Y-108619463D01*
X124544180Y-108560498D01*
X124424482Y-108524188D01*
X124300000Y-108511928D01*
X123400000Y-108511928D01*
X123275518Y-108524188D01*
X123155820Y-108560498D01*
X123045506Y-108619463D01*
X122948815Y-108698815D01*
X122869463Y-108795506D01*
X122810498Y-108905820D01*
X122774188Y-109025518D01*
X122761928Y-109150000D01*
X122761928Y-110350000D01*
X122774188Y-110474482D01*
X122810498Y-110594180D01*
X122869463Y-110704494D01*
X122948815Y-110801185D01*
X123045506Y-110880537D01*
X123155820Y-110939502D01*
X123275518Y-110975812D01*
X123400000Y-110988072D01*
X124300000Y-110988072D01*
X124424482Y-110975812D01*
X124544180Y-110939502D01*
X124654494Y-110880537D01*
X124751185Y-110801185D01*
X124830537Y-110704494D01*
X124867683Y-110635000D01*
X125246529Y-110635000D01*
X125289998Y-110639281D01*
X125333467Y-110635000D01*
X125333475Y-110635000D01*
X125463488Y-110622195D01*
X125630311Y-110571589D01*
X125784057Y-110489411D01*
X125918815Y-110378817D01*
X125946532Y-110345044D01*
X126061928Y-110229648D01*
X126061928Y-110350000D01*
X126074188Y-110474482D01*
X126110498Y-110594180D01*
X126169463Y-110704494D01*
X126248815Y-110801185D01*
X126345506Y-110880537D01*
X126455820Y-110939502D01*
X126575518Y-110975812D01*
X126700000Y-110988072D01*
X127600000Y-110988072D01*
X127724482Y-110975812D01*
X127827871Y-110944449D01*
X127862885Y-110987115D01*
X127992725Y-111093671D01*
X127993322Y-111093990D01*
X127982795Y-111109744D01*
X127940456Y-111211959D01*
X127844180Y-111160498D01*
X127724482Y-111124188D01*
X127600000Y-111111928D01*
X127385750Y-111115000D01*
X127227000Y-111273750D01*
X127227000Y-114373000D01*
X127247000Y-114373000D01*
X127247000Y-114627000D01*
X127227000Y-114627000D01*
X127227000Y-117726250D01*
X127385750Y-117885000D01*
X127600000Y-117888072D01*
X127724482Y-117875812D01*
X127844180Y-117839502D01*
X127954494Y-117780537D01*
X128051185Y-117701185D01*
X128130537Y-117604494D01*
X128159031Y-117551187D01*
X128222038Y-117627962D01*
X128356614Y-117738405D01*
X128510150Y-117820472D01*
X128676746Y-117871008D01*
X128850000Y-117888072D01*
X129350000Y-117888072D01*
X129523254Y-117871008D01*
X129689850Y-117820472D01*
X129843386Y-117738405D01*
X129977962Y-117627962D01*
X130061928Y-117525649D01*
X130061928Y-118000000D01*
X130078992Y-118173254D01*
X130129528Y-118339850D01*
X130211595Y-118493386D01*
X130322038Y-118627962D01*
X130456614Y-118738405D01*
X130610150Y-118820472D01*
X130776746Y-118871008D01*
X130950000Y-118888072D01*
X132050000Y-118888072D01*
X132223254Y-118871008D01*
X132389850Y-118820472D01*
X132543386Y-118738405D01*
X132677962Y-118627962D01*
X132788405Y-118493386D01*
X132870472Y-118339850D01*
X132921008Y-118173254D01*
X132938072Y-118000000D01*
X132938072Y-115500000D01*
X132921008Y-115326746D01*
X132870472Y-115160150D01*
X132788405Y-115006614D01*
X132677962Y-114872038D01*
X132543386Y-114761595D01*
X132389850Y-114679528D01*
X132223254Y-114628992D01*
X132050000Y-114611928D01*
X130950000Y-114611928D01*
X130776746Y-114628992D01*
X130610150Y-114679528D01*
X130456614Y-114761595D01*
X130322038Y-114872038D01*
X130238072Y-114974351D01*
X130238072Y-113203176D01*
X130398061Y-113235000D01*
X130601939Y-113235000D01*
X130801898Y-113195226D01*
X130990256Y-113117205D01*
X131159774Y-113003937D01*
X131303937Y-112859774D01*
X131311650Y-112848231D01*
X131903467Y-113440048D01*
X131931180Y-113473816D01*
X131964948Y-113501529D01*
X131964950Y-113501531D01*
X132024916Y-113550744D01*
X132065938Y-113584410D01*
X132219684Y-113666588D01*
X132335900Y-113701842D01*
X132386506Y-113717194D01*
X132401303Y-113718651D01*
X132516520Y-113729999D01*
X132516528Y-113729999D01*
X132559997Y-113734280D01*
X132603466Y-113729999D01*
X135772423Y-113729999D01*
X135814001Y-113771577D01*
X135814000Y-114484555D01*
X135705637Y-114463000D01*
X135462363Y-114463000D01*
X135223764Y-114510460D01*
X134999008Y-114603557D01*
X134796733Y-114738713D01*
X134624713Y-114910733D01*
X134489557Y-115113008D01*
X134396460Y-115337764D01*
X134349000Y-115576363D01*
X134349000Y-115819637D01*
X134396460Y-116058236D01*
X134489557Y-116282992D01*
X134624713Y-116485267D01*
X134796733Y-116657287D01*
X134999008Y-116792443D01*
X135223764Y-116885540D01*
X135462363Y-116933000D01*
X135705637Y-116933000D01*
X135944236Y-116885540D01*
X136168992Y-116792443D01*
X136371267Y-116657287D01*
X136479411Y-116549143D01*
X136499000Y-116551072D01*
X136899000Y-116551072D01*
X137023482Y-116538812D01*
X137024000Y-116538655D01*
X137024518Y-116538812D01*
X137149000Y-116551072D01*
X137549000Y-116551072D01*
X137673482Y-116538812D01*
X137674000Y-116538655D01*
X137674518Y-116538812D01*
X137799000Y-116551072D01*
X138199000Y-116551072D01*
X138323482Y-116538812D01*
X138324000Y-116538655D01*
X138324518Y-116538812D01*
X138449000Y-116551072D01*
X138849000Y-116551072D01*
X138973482Y-116538812D01*
X138975555Y-116538183D01*
X139067250Y-116548000D01*
X139135218Y-116480032D01*
X139203494Y-116443537D01*
X139300185Y-116364185D01*
X139351791Y-116301302D01*
X139372000Y-116331546D01*
X139372000Y-116389250D01*
X139530750Y-116548000D01*
X139536798Y-116547352D01*
X139646733Y-116657287D01*
X139849008Y-116792443D01*
X140073764Y-116885540D01*
X140312363Y-116933000D01*
X140555637Y-116933000D01*
X140794236Y-116885540D01*
X141018992Y-116792443D01*
X141221267Y-116657287D01*
X141393287Y-116485267D01*
X141528443Y-116282992D01*
X141621540Y-116058236D01*
X141669000Y-115819637D01*
X141669000Y-115576363D01*
X141621540Y-115337764D01*
X141528443Y-115113008D01*
X141393287Y-114910733D01*
X141221267Y-114738713D01*
X141018992Y-114603557D01*
X140794236Y-114510460D01*
X140555637Y-114463000D01*
X140312363Y-114463000D01*
X140134552Y-114498369D01*
X140137026Y-113920688D01*
X140126266Y-113796067D01*
X140091401Y-113675941D01*
X140033770Y-113564924D01*
X139955588Y-113467284D01*
X139859860Y-113386772D01*
X139750264Y-113326483D01*
X139631013Y-113288734D01*
X139530750Y-113278000D01*
X139372000Y-113436750D01*
X139372000Y-113549322D01*
X139300185Y-113461815D01*
X139203494Y-113382463D01*
X139135218Y-113345968D01*
X139067250Y-113278000D01*
X138975555Y-113287817D01*
X138973482Y-113287188D01*
X138849000Y-113274928D01*
X138754661Y-113274928D01*
X138753479Y-113262924D01*
X138709704Y-113118616D01*
X138671712Y-113047539D01*
X138671712Y-112497712D01*
X139658559Y-112497712D01*
X139696164Y-112501416D01*
X139733769Y-112497712D01*
X139733772Y-112497712D01*
X139846239Y-112486635D01*
X139990547Y-112442860D01*
X140123542Y-112371772D01*
X140240113Y-112276105D01*
X140264094Y-112246884D01*
X141446890Y-111064089D01*
X141476105Y-111040113D01*
X141571772Y-110923542D01*
X141575815Y-110915978D01*
X141642860Y-110790548D01*
X141660858Y-110731214D01*
X141672813Y-110691803D01*
X141694742Y-110732829D01*
X141792749Y-110852251D01*
X141912171Y-110950258D01*
X142048418Y-111023084D01*
X142196255Y-111067929D01*
X142350000Y-111083072D01*
X144000000Y-111083072D01*
X144153745Y-111067929D01*
X144301582Y-111023084D01*
X144437829Y-110950258D01*
X144557251Y-110852251D01*
X144655258Y-110732829D01*
X144728084Y-110596582D01*
X144772929Y-110448745D01*
X144788072Y-110295000D01*
X144788072Y-109995000D01*
X144772929Y-109841255D01*
X144728084Y-109693418D01*
X144655258Y-109557171D01*
X144616546Y-109510000D01*
X144655258Y-109462829D01*
X144728084Y-109326582D01*
X144772929Y-109178745D01*
X144788072Y-109025000D01*
X144788072Y-108725000D01*
X144772929Y-108571255D01*
X144728084Y-108423418D01*
X144655258Y-108287171D01*
X144616546Y-108240000D01*
X144655258Y-108192829D01*
X144728084Y-108056582D01*
X144772929Y-107908745D01*
X144788072Y-107755000D01*
X144788072Y-107455000D01*
X144772929Y-107301255D01*
X144728084Y-107153418D01*
X144655258Y-107017171D01*
X144616546Y-106970000D01*
X144655258Y-106922829D01*
X144728084Y-106786582D01*
X144772929Y-106638745D01*
X144788072Y-106485000D01*
X144788072Y-106185000D01*
X144772929Y-106031255D01*
X144728084Y-105883418D01*
X144655258Y-105747171D01*
X144616546Y-105700000D01*
X144655258Y-105652829D01*
X144728084Y-105516582D01*
X144772929Y-105368745D01*
X144788072Y-105215000D01*
X144788072Y-104974209D01*
X144928442Y-104833839D01*
X144972068Y-105053158D01*
X145084010Y-105323411D01*
X145246525Y-105566632D01*
X145453368Y-105773475D01*
X145627760Y-105890000D01*
X145453368Y-106006525D01*
X145246525Y-106213368D01*
X145084010Y-106456589D01*
X144972068Y-106726842D01*
X144915000Y-107013740D01*
X144915000Y-107306260D01*
X144972068Y-107593158D01*
X145084010Y-107863411D01*
X145246525Y-108106632D01*
X145453368Y-108313475D01*
X145627760Y-108430000D01*
X145453368Y-108546525D01*
X145246525Y-108753368D01*
X145084010Y-108996589D01*
X144972068Y-109266842D01*
X144915000Y-109553740D01*
X144915000Y-109846260D01*
X144972068Y-110133158D01*
X145084010Y-110403411D01*
X145246525Y-110646632D01*
X145453368Y-110853475D01*
X145627760Y-110970000D01*
X145453368Y-111086525D01*
X145246525Y-111293368D01*
X145084010Y-111536589D01*
X144972068Y-111806842D01*
X144915000Y-112093740D01*
X144915000Y-112386260D01*
X144972068Y-112673158D01*
X145084010Y-112943411D01*
X145246525Y-113186632D01*
X145453368Y-113393475D01*
X145696589Y-113555990D01*
X145966842Y-113667932D01*
X146253740Y-113725000D01*
X146546260Y-113725000D01*
X146833158Y-113667932D01*
X147103411Y-113555990D01*
X147346632Y-113393475D01*
X147540000Y-113200107D01*
X147540000Y-116010856D01*
X147358363Y-115739017D01*
X147060983Y-115441637D01*
X146711302Y-115207988D01*
X146322756Y-115047047D01*
X145910279Y-114965000D01*
X145489721Y-114965000D01*
X145077244Y-115047047D01*
X144688698Y-115207988D01*
X144339017Y-115441637D01*
X144041637Y-115739017D01*
X143807988Y-116088698D01*
X143647047Y-116477244D01*
X143565000Y-116889721D01*
X143565000Y-117310279D01*
X143647047Y-117722756D01*
X143807988Y-118111302D01*
X144041637Y-118460983D01*
X144339017Y-118758363D01*
X144610856Y-118940000D01*
X142910156Y-118940000D01*
X142913000Y-118911122D01*
X142913000Y-117884877D01*
X142894407Y-117696096D01*
X142820929Y-117453873D01*
X142701608Y-117230638D01*
X142541028Y-117034972D01*
X142345361Y-116874392D01*
X142122126Y-116755071D01*
X141879903Y-116681593D01*
X141628000Y-116656783D01*
X141376096Y-116681593D01*
X141133873Y-116755071D01*
X140910638Y-116874392D01*
X140714972Y-117034972D01*
X140554392Y-117230639D01*
X140435071Y-117453874D01*
X140361593Y-117696097D01*
X140343000Y-117884878D01*
X140343000Y-117986928D01*
X138805000Y-117986928D01*
X138680518Y-117999188D01*
X138560820Y-118035498D01*
X138450506Y-118094463D01*
X138353815Y-118173815D01*
X138274463Y-118270506D01*
X138215498Y-118380820D01*
X138179188Y-118500518D01*
X138166928Y-118625000D01*
X138166928Y-118940000D01*
X137764072Y-118940000D01*
X137764072Y-118609000D01*
X137751812Y-118484518D01*
X137715502Y-118364820D01*
X137656537Y-118254506D01*
X137577185Y-118157815D01*
X137480494Y-118078463D01*
X137370180Y-118019498D01*
X137250482Y-117983188D01*
X137126000Y-117970928D01*
X135674000Y-117970928D01*
X135674000Y-117884877D01*
X135655407Y-117696096D01*
X135581929Y-117453873D01*
X135462608Y-117230638D01*
X135302028Y-117034972D01*
X135106361Y-116874392D01*
X134883126Y-116755071D01*
X134640903Y-116681593D01*
X134389000Y-116656783D01*
X134137096Y-116681593D01*
X133894873Y-116755071D01*
X133671638Y-116874392D01*
X133475972Y-117034972D01*
X133315392Y-117230639D01*
X133196071Y-117453874D01*
X133122593Y-117696097D01*
X133104000Y-117884878D01*
X133104000Y-118911123D01*
X133106844Y-118940000D01*
X122789144Y-118940000D01*
X123060983Y-118758363D01*
X123358363Y-118460983D01*
X123378315Y-118431123D01*
X123411595Y-118493386D01*
X123522038Y-118627962D01*
X123656614Y-118738405D01*
X123810150Y-118820472D01*
X123976746Y-118871008D01*
X124150000Y-118888072D01*
X125250000Y-118888072D01*
X125423254Y-118871008D01*
X125589850Y-118820472D01*
X125743386Y-118738405D01*
X125877962Y-118627962D01*
X125988405Y-118493386D01*
X126070472Y-118339850D01*
X126121008Y-118173254D01*
X126138072Y-118000000D01*
X126138072Y-117688095D01*
X126148815Y-117701185D01*
X126245506Y-117780537D01*
X126355820Y-117839502D01*
X126475518Y-117875812D01*
X126600000Y-117888072D01*
X126814250Y-117885000D01*
X126973000Y-117726250D01*
X126973000Y-114627000D01*
X126123750Y-114627000D01*
X125965000Y-114785750D01*
X125964761Y-114977803D01*
X125877962Y-114872038D01*
X125743386Y-114761595D01*
X125589850Y-114679528D01*
X125423254Y-114628992D01*
X125250000Y-114611928D01*
X124150000Y-114611928D01*
X123976746Y-114628992D01*
X123810150Y-114679528D01*
X123656614Y-114761595D01*
X123522038Y-114872038D01*
X123411595Y-115006614D01*
X123329528Y-115160150D01*
X123278992Y-115326746D01*
X123261928Y-115500000D01*
X123261928Y-115642582D01*
X123060983Y-115441637D01*
X122711302Y-115207988D01*
X122322756Y-115047047D01*
X121910279Y-114965000D01*
X121489721Y-114965000D01*
X121077244Y-115047047D01*
X120688698Y-115207988D01*
X120339017Y-115441637D01*
X120041637Y-115739017D01*
X119860000Y-116010856D01*
X119860000Y-113200107D01*
X120053368Y-113393475D01*
X120296589Y-113555990D01*
X120566842Y-113667932D01*
X120853740Y-113725000D01*
X121146260Y-113725000D01*
X121433158Y-113667932D01*
X121703411Y-113555990D01*
X121946632Y-113393475D01*
X122130107Y-113210000D01*
X125172377Y-113210000D01*
X125298061Y-113235000D01*
X125501939Y-113235000D01*
X125701898Y-113195226D01*
X125890256Y-113117205D01*
X125963571Y-113068217D01*
X125965000Y-114214250D01*
X126123750Y-114373000D01*
X126973000Y-114373000D01*
X126973000Y-111273750D01*
X126814250Y-111115000D01*
X126600000Y-111111928D01*
X126475518Y-111124188D01*
X126355820Y-111160498D01*
X126245506Y-111219463D01*
X126148815Y-111298815D01*
X126069463Y-111395506D01*
X126065894Y-111402183D01*
X126059774Y-111396063D01*
X125890256Y-111282795D01*
X125701898Y-111204774D01*
X125501939Y-111165000D01*
X125298061Y-111165000D01*
X125172377Y-111190000D01*
X122050107Y-111190000D01*
X121946632Y-111086525D01*
X121772240Y-110970000D01*
X121946632Y-110853475D01*
X122153475Y-110646632D01*
X122315990Y-110403411D01*
X122427932Y-110133158D01*
X122485000Y-109846260D01*
X122485000Y-109553740D01*
X122427932Y-109266842D01*
X122315990Y-108996589D01*
X122153475Y-108753368D01*
X121946632Y-108546525D01*
X121772240Y-108430000D01*
X121946632Y-108313475D01*
X122153475Y-108106632D01*
X122315990Y-107863411D01*
X122427932Y-107593158D01*
X122485000Y-107306260D01*
X122485000Y-107013740D01*
X122427932Y-106726842D01*
X122315990Y-106456589D01*
X122286277Y-106412119D01*
X122831977Y-106412119D01*
X122842699Y-106536742D01*
X122877527Y-106656879D01*
X122935124Y-106767914D01*
X123013276Y-106865578D01*
X123108980Y-106946118D01*
X123218558Y-107006441D01*
X123337798Y-107044226D01*
X123454250Y-107055000D01*
X123613000Y-106896250D01*
X123613000Y-106227000D01*
X122993750Y-106227000D01*
X122835000Y-106385750D01*
X122831977Y-106412119D01*
X122286277Y-106412119D01*
X122153475Y-106213368D01*
X121946632Y-106006525D01*
X121764466Y-105884805D01*
X121881355Y-105815178D01*
X122097588Y-105620269D01*
X122271641Y-105386920D01*
X122396825Y-105124099D01*
X122441476Y-104976890D01*
X122320155Y-104747000D01*
X121127000Y-104747000D01*
X121127000Y-104767000D01*
X120873000Y-104767000D01*
X120873000Y-104747000D01*
X120853000Y-104747000D01*
X120853000Y-104493000D01*
X120873000Y-104493000D01*
X120873000Y-104473000D01*
X121127000Y-104473000D01*
X121127000Y-104493000D01*
X122320155Y-104493000D01*
X122441476Y-104263110D01*
X122396825Y-104115901D01*
X122271641Y-103853080D01*
X122097588Y-103619731D01*
X121881355Y-103424822D01*
X121839685Y-103400000D01*
X122656928Y-103400000D01*
X122660000Y-103939250D01*
X122818750Y-104098000D01*
X123468000Y-104098000D01*
X123468000Y-102923750D01*
X123309250Y-102765000D01*
X123295000Y-102761928D01*
X123170518Y-102774188D01*
X123050820Y-102810498D01*
X122940506Y-102869463D01*
X122843815Y-102948815D01*
X122764463Y-103045506D01*
X122705498Y-103155820D01*
X122669188Y-103275518D01*
X122656928Y-103400000D01*
X121839685Y-103400000D01*
X121764466Y-103355195D01*
X121946632Y-103233475D01*
X122153475Y-103026632D01*
X122315990Y-102783411D01*
X122427932Y-102513158D01*
X122485000Y-102226260D01*
X122485000Y-101933740D01*
X122427932Y-101646842D01*
X122315990Y-101376589D01*
X122153475Y-101133368D01*
X121946632Y-100926525D01*
X121772240Y-100810000D01*
X121946632Y-100693475D01*
X122153475Y-100486632D01*
X122315990Y-100243411D01*
X122427932Y-99973158D01*
X122485000Y-99686260D01*
X122485000Y-99393740D01*
X122447075Y-99203082D01*
X122656928Y-98993229D01*
X122656928Y-99650000D01*
%TA.AperFunction,Conductor*%
D34*
G36*
X122656928Y-99650000D02*
G01*
X122672071Y-99803745D01*
X122716916Y-99951582D01*
X122789742Y-100087829D01*
X122887749Y-100207251D01*
X123007171Y-100305258D01*
X123143418Y-100378084D01*
X123291255Y-100422929D01*
X123445000Y-100438072D01*
X123685795Y-100438072D01*
X126012723Y-102765000D01*
X126007998Y-102765000D01*
X126007998Y-102923748D01*
X125849250Y-102765000D01*
X125835000Y-102761928D01*
X125710518Y-102774188D01*
X125590820Y-102810498D01*
X125480506Y-102869463D01*
X125450936Y-102893730D01*
X125316582Y-102821916D01*
X125168745Y-102777071D01*
X125015000Y-102761928D01*
X124715000Y-102761928D01*
X124561255Y-102777071D01*
X124413418Y-102821916D01*
X124279064Y-102893730D01*
X124249494Y-102869463D01*
X124139180Y-102810498D01*
X124019482Y-102774188D01*
X123895000Y-102761928D01*
X123880750Y-102765000D01*
X123722000Y-102923750D01*
X123722000Y-104098000D01*
X123742000Y-104098000D01*
X123742000Y-104352000D01*
X123722000Y-104352000D01*
X123722000Y-104372000D01*
X123468000Y-104372000D01*
X123468000Y-104352000D01*
X122818750Y-104352000D01*
X122660000Y-104510750D01*
X122656928Y-105050000D01*
X122669188Y-105174482D01*
X122705498Y-105294180D01*
X122764463Y-105404494D01*
X122843815Y-105501185D01*
X122882719Y-105533112D01*
X122877527Y-105543121D01*
X122842699Y-105663258D01*
X122831977Y-105787881D01*
X122835000Y-105814250D01*
X122993750Y-105973000D01*
X123613000Y-105973000D01*
X123613000Y-105953000D01*
X123851928Y-105953000D01*
X123851928Y-106285000D01*
X123866782Y-106435819D01*
X123867000Y-106436538D01*
X123867000Y-106896250D01*
X124025750Y-107055000D01*
X124142202Y-107044226D01*
X124261442Y-107006441D01*
X124301451Y-106984416D01*
X124329158Y-106999225D01*
X124474181Y-107043218D01*
X124625000Y-107058072D01*
X124895000Y-107058072D01*
X125045819Y-107043218D01*
X125081413Y-107032420D01*
X125170506Y-107105537D01*
X125280820Y-107164502D01*
X125400518Y-107200812D01*
X125525000Y-107213072D01*
X125689250Y-107210000D01*
X125848000Y-107051250D01*
X125848000Y-106227000D01*
X125828000Y-106227000D01*
X125828000Y-105973000D01*
X125848000Y-105973000D01*
X125848000Y-105953000D01*
X126102000Y-105953000D01*
X126102000Y-105973000D01*
X126122000Y-105973000D01*
X126122000Y-106227000D01*
X126102000Y-106227000D01*
X126102000Y-107051250D01*
X126260750Y-107210000D01*
X126425000Y-107213072D01*
X126549482Y-107200812D01*
X126669180Y-107164502D01*
X126779494Y-107105537D01*
X126823649Y-107069300D01*
X126969717Y-107147375D01*
X127131623Y-107196488D01*
X127300000Y-107213072D01*
X127750000Y-107213072D01*
X127918377Y-107196488D01*
X128080283Y-107147375D01*
X128187917Y-107089843D01*
X128280820Y-107139502D01*
X128400518Y-107175812D01*
X128525000Y-107188072D01*
X128714250Y-107185000D01*
X128872998Y-107026252D01*
X128872998Y-107185000D01*
X128913421Y-107185000D01*
X128483422Y-107615000D01*
X126583467Y-107615000D01*
X126539998Y-107610719D01*
X126496529Y-107615000D01*
X126496521Y-107615000D01*
X126381304Y-107626348D01*
X126366507Y-107627805D01*
X126315901Y-107643157D01*
X126199685Y-107678411D01*
X126045939Y-107760589D01*
X126045937Y-107760590D01*
X126045938Y-107760590D01*
X125944951Y-107843468D01*
X125944949Y-107843470D01*
X125911181Y-107871183D01*
X125883468Y-107904951D01*
X124923420Y-108865000D01*
X124867683Y-108865000D01*
X124830537Y-108795506D01*
X124751185Y-108698815D01*
X124654494Y-108619463D01*
X124544180Y-108560498D01*
X124424482Y-108524188D01*
X124300000Y-108511928D01*
X123400000Y-108511928D01*
X123275518Y-108524188D01*
X123155820Y-108560498D01*
X123045506Y-108619463D01*
X122948815Y-108698815D01*
X122869463Y-108795506D01*
X122810498Y-108905820D01*
X122774188Y-109025518D01*
X122761928Y-109150000D01*
X122761928Y-110350000D01*
X122774188Y-110474482D01*
X122810498Y-110594180D01*
X122869463Y-110704494D01*
X122948815Y-110801185D01*
X123045506Y-110880537D01*
X123155820Y-110939502D01*
X123275518Y-110975812D01*
X123400000Y-110988072D01*
X124300000Y-110988072D01*
X124424482Y-110975812D01*
X124544180Y-110939502D01*
X124654494Y-110880537D01*
X124751185Y-110801185D01*
X124830537Y-110704494D01*
X124867683Y-110635000D01*
X125246529Y-110635000D01*
X125289998Y-110639281D01*
X125333467Y-110635000D01*
X125333475Y-110635000D01*
X125463488Y-110622195D01*
X125630311Y-110571589D01*
X125784057Y-110489411D01*
X125918815Y-110378817D01*
X125946532Y-110345044D01*
X126061928Y-110229648D01*
X126061928Y-110350000D01*
X126074188Y-110474482D01*
X126110498Y-110594180D01*
X126169463Y-110704494D01*
X126248815Y-110801185D01*
X126345506Y-110880537D01*
X126455820Y-110939502D01*
X126575518Y-110975812D01*
X126700000Y-110988072D01*
X127600000Y-110988072D01*
X127724482Y-110975812D01*
X127827871Y-110944449D01*
X127862885Y-110987115D01*
X127992725Y-111093671D01*
X127993322Y-111093990D01*
X127982795Y-111109744D01*
X127940456Y-111211959D01*
X127844180Y-111160498D01*
X127724482Y-111124188D01*
X127600000Y-111111928D01*
X127385750Y-111115000D01*
X127227000Y-111273750D01*
X127227000Y-114373000D01*
X127247000Y-114373000D01*
X127247000Y-114627000D01*
X127227000Y-114627000D01*
X127227000Y-117726250D01*
X127385750Y-117885000D01*
X127600000Y-117888072D01*
X127724482Y-117875812D01*
X127844180Y-117839502D01*
X127954494Y-117780537D01*
X128051185Y-117701185D01*
X128130537Y-117604494D01*
X128159031Y-117551187D01*
X128222038Y-117627962D01*
X128356614Y-117738405D01*
X128510150Y-117820472D01*
X128676746Y-117871008D01*
X128850000Y-117888072D01*
X129350000Y-117888072D01*
X129523254Y-117871008D01*
X129689850Y-117820472D01*
X129843386Y-117738405D01*
X129977962Y-117627962D01*
X130061928Y-117525649D01*
X130061928Y-118000000D01*
X130078992Y-118173254D01*
X130129528Y-118339850D01*
X130211595Y-118493386D01*
X130322038Y-118627962D01*
X130456614Y-118738405D01*
X130610150Y-118820472D01*
X130776746Y-118871008D01*
X130950000Y-118888072D01*
X132050000Y-118888072D01*
X132223254Y-118871008D01*
X132389850Y-118820472D01*
X132543386Y-118738405D01*
X132677962Y-118627962D01*
X132788405Y-118493386D01*
X132870472Y-118339850D01*
X132921008Y-118173254D01*
X132938072Y-118000000D01*
X132938072Y-115500000D01*
X132921008Y-115326746D01*
X132870472Y-115160150D01*
X132788405Y-115006614D01*
X132677962Y-114872038D01*
X132543386Y-114761595D01*
X132389850Y-114679528D01*
X132223254Y-114628992D01*
X132050000Y-114611928D01*
X130950000Y-114611928D01*
X130776746Y-114628992D01*
X130610150Y-114679528D01*
X130456614Y-114761595D01*
X130322038Y-114872038D01*
X130238072Y-114974351D01*
X130238072Y-113203176D01*
X130398061Y-113235000D01*
X130601939Y-113235000D01*
X130801898Y-113195226D01*
X130990256Y-113117205D01*
X131159774Y-113003937D01*
X131303937Y-112859774D01*
X131311650Y-112848231D01*
X131903467Y-113440048D01*
X131931180Y-113473816D01*
X131964948Y-113501529D01*
X131964950Y-113501531D01*
X132024916Y-113550744D01*
X132065938Y-113584410D01*
X132219684Y-113666588D01*
X132335900Y-113701842D01*
X132386506Y-113717194D01*
X132401303Y-113718651D01*
X132516520Y-113729999D01*
X132516528Y-113729999D01*
X132559997Y-113734280D01*
X132603466Y-113729999D01*
X135772423Y-113729999D01*
X135814001Y-113771577D01*
X135814000Y-114484555D01*
X135705637Y-114463000D01*
X135462363Y-114463000D01*
X135223764Y-114510460D01*
X134999008Y-114603557D01*
X134796733Y-114738713D01*
X134624713Y-114910733D01*
X134489557Y-115113008D01*
X134396460Y-115337764D01*
X134349000Y-115576363D01*
X134349000Y-115819637D01*
X134396460Y-116058236D01*
X134489557Y-116282992D01*
X134624713Y-116485267D01*
X134796733Y-116657287D01*
X134999008Y-116792443D01*
X135223764Y-116885540D01*
X135462363Y-116933000D01*
X135705637Y-116933000D01*
X135944236Y-116885540D01*
X136168992Y-116792443D01*
X136371267Y-116657287D01*
X136479411Y-116549143D01*
X136499000Y-116551072D01*
X136899000Y-116551072D01*
X137023482Y-116538812D01*
X137024000Y-116538655D01*
X137024518Y-116538812D01*
X137149000Y-116551072D01*
X137549000Y-116551072D01*
X137673482Y-116538812D01*
X137674000Y-116538655D01*
X137674518Y-116538812D01*
X137799000Y-116551072D01*
X138199000Y-116551072D01*
X138323482Y-116538812D01*
X138324000Y-116538655D01*
X138324518Y-116538812D01*
X138449000Y-116551072D01*
X138849000Y-116551072D01*
X138973482Y-116538812D01*
X138975555Y-116538183D01*
X139067250Y-116548000D01*
X139135218Y-116480032D01*
X139203494Y-116443537D01*
X139300185Y-116364185D01*
X139351791Y-116301302D01*
X139372000Y-116331546D01*
X139372000Y-116389250D01*
X139530750Y-116548000D01*
X139536798Y-116547352D01*
X139646733Y-116657287D01*
X139849008Y-116792443D01*
X140073764Y-116885540D01*
X140312363Y-116933000D01*
X140555637Y-116933000D01*
X140794236Y-116885540D01*
X141018992Y-116792443D01*
X141221267Y-116657287D01*
X141393287Y-116485267D01*
X141528443Y-116282992D01*
X141621540Y-116058236D01*
X141669000Y-115819637D01*
X141669000Y-115576363D01*
X141621540Y-115337764D01*
X141528443Y-115113008D01*
X141393287Y-114910733D01*
X141221267Y-114738713D01*
X141018992Y-114603557D01*
X140794236Y-114510460D01*
X140555637Y-114463000D01*
X140312363Y-114463000D01*
X140134552Y-114498369D01*
X140137026Y-113920688D01*
X140126266Y-113796067D01*
X140091401Y-113675941D01*
X140033770Y-113564924D01*
X139955588Y-113467284D01*
X139859860Y-113386772D01*
X139750264Y-113326483D01*
X139631013Y-113288734D01*
X139530750Y-113278000D01*
X139372000Y-113436750D01*
X139372000Y-113549322D01*
X139300185Y-113461815D01*
X139203494Y-113382463D01*
X139135218Y-113345968D01*
X139067250Y-113278000D01*
X138975555Y-113287817D01*
X138973482Y-113287188D01*
X138849000Y-113274928D01*
X138754661Y-113274928D01*
X138753479Y-113262924D01*
X138709704Y-113118616D01*
X138671712Y-113047539D01*
X138671712Y-112497712D01*
X139658559Y-112497712D01*
X139696164Y-112501416D01*
X139733769Y-112497712D01*
X139733772Y-112497712D01*
X139846239Y-112486635D01*
X139990547Y-112442860D01*
X140123542Y-112371772D01*
X140240113Y-112276105D01*
X140264094Y-112246884D01*
X141446890Y-111064089D01*
X141476105Y-111040113D01*
X141571772Y-110923542D01*
X141575815Y-110915978D01*
X141642860Y-110790548D01*
X141660858Y-110731214D01*
X141672813Y-110691803D01*
X141694742Y-110732829D01*
X141792749Y-110852251D01*
X141912171Y-110950258D01*
X142048418Y-111023084D01*
X142196255Y-111067929D01*
X142350000Y-111083072D01*
X144000000Y-111083072D01*
X144153745Y-111067929D01*
X144301582Y-111023084D01*
X144437829Y-110950258D01*
X144557251Y-110852251D01*
X144655258Y-110732829D01*
X144728084Y-110596582D01*
X144772929Y-110448745D01*
X144788072Y-110295000D01*
X144788072Y-109995000D01*
X144772929Y-109841255D01*
X144728084Y-109693418D01*
X144655258Y-109557171D01*
X144616546Y-109510000D01*
X144655258Y-109462829D01*
X144728084Y-109326582D01*
X144772929Y-109178745D01*
X144788072Y-109025000D01*
X144788072Y-108725000D01*
X144772929Y-108571255D01*
X144728084Y-108423418D01*
X144655258Y-108287171D01*
X144616546Y-108240000D01*
X144655258Y-108192829D01*
X144728084Y-108056582D01*
X144772929Y-107908745D01*
X144788072Y-107755000D01*
X144788072Y-107455000D01*
X144772929Y-107301255D01*
X144728084Y-107153418D01*
X144655258Y-107017171D01*
X144616546Y-106970000D01*
X144655258Y-106922829D01*
X144728084Y-106786582D01*
X144772929Y-106638745D01*
X144788072Y-106485000D01*
X144788072Y-106185000D01*
X144772929Y-106031255D01*
X144728084Y-105883418D01*
X144655258Y-105747171D01*
X144616546Y-105700000D01*
X144655258Y-105652829D01*
X144728084Y-105516582D01*
X144772929Y-105368745D01*
X144788072Y-105215000D01*
X144788072Y-104974209D01*
X144928442Y-104833839D01*
X144972068Y-105053158D01*
X145084010Y-105323411D01*
X145246525Y-105566632D01*
X145453368Y-105773475D01*
X145627760Y-105890000D01*
X145453368Y-106006525D01*
X145246525Y-106213368D01*
X145084010Y-106456589D01*
X144972068Y-106726842D01*
X144915000Y-107013740D01*
X144915000Y-107306260D01*
X144972068Y-107593158D01*
X145084010Y-107863411D01*
X145246525Y-108106632D01*
X145453368Y-108313475D01*
X145627760Y-108430000D01*
X145453368Y-108546525D01*
X145246525Y-108753368D01*
X145084010Y-108996589D01*
X144972068Y-109266842D01*
X144915000Y-109553740D01*
X144915000Y-109846260D01*
X144972068Y-110133158D01*
X145084010Y-110403411D01*
X145246525Y-110646632D01*
X145453368Y-110853475D01*
X145627760Y-110970000D01*
X145453368Y-111086525D01*
X145246525Y-111293368D01*
X145084010Y-111536589D01*
X144972068Y-111806842D01*
X144915000Y-112093740D01*
X144915000Y-112386260D01*
X144972068Y-112673158D01*
X145084010Y-112943411D01*
X145246525Y-113186632D01*
X145453368Y-113393475D01*
X145696589Y-113555990D01*
X145966842Y-113667932D01*
X146253740Y-113725000D01*
X146546260Y-113725000D01*
X146833158Y-113667932D01*
X147103411Y-113555990D01*
X147346632Y-113393475D01*
X147540000Y-113200107D01*
X147540000Y-116010856D01*
X147358363Y-115739017D01*
X147060983Y-115441637D01*
X146711302Y-115207988D01*
X146322756Y-115047047D01*
X145910279Y-114965000D01*
X145489721Y-114965000D01*
X145077244Y-115047047D01*
X144688698Y-115207988D01*
X144339017Y-115441637D01*
X144041637Y-115739017D01*
X143807988Y-116088698D01*
X143647047Y-116477244D01*
X143565000Y-116889721D01*
X143565000Y-117310279D01*
X143647047Y-117722756D01*
X143807988Y-118111302D01*
X144041637Y-118460983D01*
X144339017Y-118758363D01*
X144610856Y-118940000D01*
X142910156Y-118940000D01*
X142913000Y-118911122D01*
X142913000Y-117884877D01*
X142894407Y-117696096D01*
X142820929Y-117453873D01*
X142701608Y-117230638D01*
X142541028Y-117034972D01*
X142345361Y-116874392D01*
X142122126Y-116755071D01*
X141879903Y-116681593D01*
X141628000Y-116656783D01*
X141376096Y-116681593D01*
X141133873Y-116755071D01*
X140910638Y-116874392D01*
X140714972Y-117034972D01*
X140554392Y-117230639D01*
X140435071Y-117453874D01*
X140361593Y-117696097D01*
X140343000Y-117884878D01*
X140343000Y-117986928D01*
X138805000Y-117986928D01*
X138680518Y-117999188D01*
X138560820Y-118035498D01*
X138450506Y-118094463D01*
X138353815Y-118173815D01*
X138274463Y-118270506D01*
X138215498Y-118380820D01*
X138179188Y-118500518D01*
X138166928Y-118625000D01*
X138166928Y-118940000D01*
X137764072Y-118940000D01*
X137764072Y-118609000D01*
X137751812Y-118484518D01*
X137715502Y-118364820D01*
X137656537Y-118254506D01*
X137577185Y-118157815D01*
X137480494Y-118078463D01*
X137370180Y-118019498D01*
X137250482Y-117983188D01*
X137126000Y-117970928D01*
X135674000Y-117970928D01*
X135674000Y-117884877D01*
X135655407Y-117696096D01*
X135581929Y-117453873D01*
X135462608Y-117230638D01*
X135302028Y-117034972D01*
X135106361Y-116874392D01*
X134883126Y-116755071D01*
X134640903Y-116681593D01*
X134389000Y-116656783D01*
X134137096Y-116681593D01*
X133894873Y-116755071D01*
X133671638Y-116874392D01*
X133475972Y-117034972D01*
X133315392Y-117230639D01*
X133196071Y-117453874D01*
X133122593Y-117696097D01*
X133104000Y-117884878D01*
X133104000Y-118911123D01*
X133106844Y-118940000D01*
X122789144Y-118940000D01*
X123060983Y-118758363D01*
X123358363Y-118460983D01*
X123378315Y-118431123D01*
X123411595Y-118493386D01*
X123522038Y-118627962D01*
X123656614Y-118738405D01*
X123810150Y-118820472D01*
X123976746Y-118871008D01*
X124150000Y-118888072D01*
X125250000Y-118888072D01*
X125423254Y-118871008D01*
X125589850Y-118820472D01*
X125743386Y-118738405D01*
X125877962Y-118627962D01*
X125988405Y-118493386D01*
X126070472Y-118339850D01*
X126121008Y-118173254D01*
X126138072Y-118000000D01*
X126138072Y-117688095D01*
X126148815Y-117701185D01*
X126245506Y-117780537D01*
X126355820Y-117839502D01*
X126475518Y-117875812D01*
X126600000Y-117888072D01*
X126814250Y-117885000D01*
X126973000Y-117726250D01*
X126973000Y-114627000D01*
X126123750Y-114627000D01*
X125965000Y-114785750D01*
X125964761Y-114977803D01*
X125877962Y-114872038D01*
X125743386Y-114761595D01*
X125589850Y-114679528D01*
X125423254Y-114628992D01*
X125250000Y-114611928D01*
X124150000Y-114611928D01*
X123976746Y-114628992D01*
X123810150Y-114679528D01*
X123656614Y-114761595D01*
X123522038Y-114872038D01*
X123411595Y-115006614D01*
X123329528Y-115160150D01*
X123278992Y-115326746D01*
X123261928Y-115500000D01*
X123261928Y-115642582D01*
X123060983Y-115441637D01*
X122711302Y-115207988D01*
X122322756Y-115047047D01*
X121910279Y-114965000D01*
X121489721Y-114965000D01*
X121077244Y-115047047D01*
X120688698Y-115207988D01*
X120339017Y-115441637D01*
X120041637Y-115739017D01*
X119860000Y-116010856D01*
X119860000Y-113200107D01*
X120053368Y-113393475D01*
X120296589Y-113555990D01*
X120566842Y-113667932D01*
X120853740Y-113725000D01*
X121146260Y-113725000D01*
X121433158Y-113667932D01*
X121703411Y-113555990D01*
X121946632Y-113393475D01*
X122130107Y-113210000D01*
X125172377Y-113210000D01*
X125298061Y-113235000D01*
X125501939Y-113235000D01*
X125701898Y-113195226D01*
X125890256Y-113117205D01*
X125963571Y-113068217D01*
X125965000Y-114214250D01*
X126123750Y-114373000D01*
X126973000Y-114373000D01*
X126973000Y-111273750D01*
X126814250Y-111115000D01*
X126600000Y-111111928D01*
X126475518Y-111124188D01*
X126355820Y-111160498D01*
X126245506Y-111219463D01*
X126148815Y-111298815D01*
X126069463Y-111395506D01*
X126065894Y-111402183D01*
X126059774Y-111396063D01*
X125890256Y-111282795D01*
X125701898Y-111204774D01*
X125501939Y-111165000D01*
X125298061Y-111165000D01*
X125172377Y-111190000D01*
X122050107Y-111190000D01*
X121946632Y-111086525D01*
X121772240Y-110970000D01*
X121946632Y-110853475D01*
X122153475Y-110646632D01*
X122315990Y-110403411D01*
X122427932Y-110133158D01*
X122485000Y-109846260D01*
X122485000Y-109553740D01*
X122427932Y-109266842D01*
X122315990Y-108996589D01*
X122153475Y-108753368D01*
X121946632Y-108546525D01*
X121772240Y-108430000D01*
X121946632Y-108313475D01*
X122153475Y-108106632D01*
X122315990Y-107863411D01*
X122427932Y-107593158D01*
X122485000Y-107306260D01*
X122485000Y-107013740D01*
X122427932Y-106726842D01*
X122315990Y-106456589D01*
X122286277Y-106412119D01*
X122831977Y-106412119D01*
X122842699Y-106536742D01*
X122877527Y-106656879D01*
X122935124Y-106767914D01*
X123013276Y-106865578D01*
X123108980Y-106946118D01*
X123218558Y-107006441D01*
X123337798Y-107044226D01*
X123454250Y-107055000D01*
X123613000Y-106896250D01*
X123613000Y-106227000D01*
X122993750Y-106227000D01*
X122835000Y-106385750D01*
X122831977Y-106412119D01*
X122286277Y-106412119D01*
X122153475Y-106213368D01*
X121946632Y-106006525D01*
X121764466Y-105884805D01*
X121881355Y-105815178D01*
X122097588Y-105620269D01*
X122271641Y-105386920D01*
X122396825Y-105124099D01*
X122441476Y-104976890D01*
X122320155Y-104747000D01*
X121127000Y-104747000D01*
X121127000Y-104767000D01*
X120873000Y-104767000D01*
X120873000Y-104747000D01*
X120853000Y-104747000D01*
X120853000Y-104493000D01*
X120873000Y-104493000D01*
X120873000Y-104473000D01*
X121127000Y-104473000D01*
X121127000Y-104493000D01*
X122320155Y-104493000D01*
X122441476Y-104263110D01*
X122396825Y-104115901D01*
X122271641Y-103853080D01*
X122097588Y-103619731D01*
X121881355Y-103424822D01*
X121839685Y-103400000D01*
X122656928Y-103400000D01*
X122660000Y-103939250D01*
X122818750Y-104098000D01*
X123468000Y-104098000D01*
X123468000Y-102923750D01*
X123309250Y-102765000D01*
X123295000Y-102761928D01*
X123170518Y-102774188D01*
X123050820Y-102810498D01*
X122940506Y-102869463D01*
X122843815Y-102948815D01*
X122764463Y-103045506D01*
X122705498Y-103155820D01*
X122669188Y-103275518D01*
X122656928Y-103400000D01*
X121839685Y-103400000D01*
X121764466Y-103355195D01*
X121946632Y-103233475D01*
X122153475Y-103026632D01*
X122315990Y-102783411D01*
X122427932Y-102513158D01*
X122485000Y-102226260D01*
X122485000Y-101933740D01*
X122427932Y-101646842D01*
X122315990Y-101376589D01*
X122153475Y-101133368D01*
X121946632Y-100926525D01*
X121772240Y-100810000D01*
X121946632Y-100693475D01*
X122153475Y-100486632D01*
X122315990Y-100243411D01*
X122427932Y-99973158D01*
X122485000Y-99686260D01*
X122485000Y-99393740D01*
X122447075Y-99203082D01*
X122656928Y-98993229D01*
X122656928Y-99650000D01*
G37*
%TD.AperFunction*%
D33*
X135581928Y-110397000D02*
X135413000Y-110397000D01*
X135413000Y-110377000D01*
X135393000Y-110377000D01*
X135393000Y-110195010D01*
X135581928Y-110195010D01*
X135581928Y-110397000D01*
%TA.AperFunction,Conductor*%
D34*
G36*
X135581928Y-110397000D02*
G01*
X135413000Y-110397000D01*
X135413000Y-110377000D01*
X135393000Y-110377000D01*
X135393000Y-110195010D01*
X135581928Y-110195010D01*
X135581928Y-110397000D01*
G37*
%TD.AperFunction*%
D33*
X132577000Y-110073000D02*
X132597000Y-110073000D01*
X132597000Y-110327000D01*
X132577000Y-110327000D01*
X132577000Y-110347000D01*
X132323000Y-110347000D01*
X132323000Y-110327000D01*
X132303000Y-110327000D01*
X132303000Y-110073000D01*
X132323000Y-110073000D01*
X132323000Y-110053000D01*
X132577000Y-110053000D01*
X132577000Y-110073000D01*
%TA.AperFunction,Conductor*%
D34*
G36*
X132577000Y-110073000D02*
G01*
X132597000Y-110073000D01*
X132597000Y-110327000D01*
X132577000Y-110327000D01*
X132577000Y-110347000D01*
X132323000Y-110347000D01*
X132323000Y-110327000D01*
X132303000Y-110327000D01*
X132303000Y-110073000D01*
X132323000Y-110073000D01*
X132323000Y-110053000D01*
X132577000Y-110053000D01*
X132577000Y-110073000D01*
G37*
%TD.AperFunction*%
D33*
X135603795Y-107453952D02*
X135616782Y-107585819D01*
X135617000Y-107586538D01*
X135617000Y-108046250D01*
X135667000Y-108096250D01*
X135667000Y-108233892D01*
X135641155Y-108282245D01*
X135596878Y-108428206D01*
X135581928Y-108580000D01*
X135581928Y-108625010D01*
X135522187Y-108625010D01*
X135419366Y-108522189D01*
X135413000Y-108514432D01*
X135413000Y-107963750D01*
X135385000Y-107935750D01*
X135385000Y-107872998D01*
X135363000Y-107872998D01*
X135363000Y-107736250D01*
X135385000Y-107714250D01*
X135388072Y-107300000D01*
X135381324Y-107231481D01*
X135603795Y-107453952D01*
%TA.AperFunction,Conductor*%
D34*
G36*
X135603795Y-107453952D02*
G01*
X135616782Y-107585819D01*
X135617000Y-107586538D01*
X135617000Y-108046250D01*
X135667000Y-108096250D01*
X135667000Y-108233892D01*
X135641155Y-108282245D01*
X135596878Y-108428206D01*
X135581928Y-108580000D01*
X135581928Y-108625010D01*
X135522187Y-108625010D01*
X135419366Y-108522189D01*
X135413000Y-108514432D01*
X135413000Y-107963750D01*
X135385000Y-107935750D01*
X135385000Y-107872998D01*
X135363000Y-107872998D01*
X135363000Y-107736250D01*
X135385000Y-107714250D01*
X135388072Y-107300000D01*
X135381324Y-107231481D01*
X135603795Y-107453952D01*
G37*
%TD.AperFunction*%
D33*
X134705929Y-106556086D02*
X134685124Y-106582086D01*
X134643166Y-106662972D01*
X134435750Y-106665000D01*
X134277000Y-106823750D01*
X134277000Y-107873000D01*
X134297000Y-107873000D01*
X134297000Y-108127000D01*
X134277000Y-108127000D01*
X134277000Y-108147000D01*
X134023000Y-108147000D01*
X134023000Y-108127000D01*
X134003000Y-108127000D01*
X134003000Y-107873000D01*
X134023000Y-107873000D01*
X134023000Y-106823750D01*
X133864250Y-106665000D01*
X133589267Y-106662312D01*
X133841579Y-106410000D01*
X134559843Y-106410000D01*
X134705929Y-106556086D01*
%TA.AperFunction,Conductor*%
D34*
G36*
X134705929Y-106556086D02*
G01*
X134685124Y-106582086D01*
X134643166Y-106662972D01*
X134435750Y-106665000D01*
X134277000Y-106823750D01*
X134277000Y-107873000D01*
X134297000Y-107873000D01*
X134297000Y-108127000D01*
X134277000Y-108127000D01*
X134277000Y-108147000D01*
X134023000Y-108147000D01*
X134023000Y-108127000D01*
X134003000Y-108127000D01*
X134003000Y-107873000D01*
X134023000Y-107873000D01*
X134023000Y-106823750D01*
X133864250Y-106665000D01*
X133589267Y-106662312D01*
X133841579Y-106410000D01*
X134559843Y-106410000D01*
X134705929Y-106556086D01*
G37*
%TD.AperFunction*%
D33*
X129127000Y-105973000D02*
X129147000Y-105973000D01*
X129147000Y-106227000D01*
X129127000Y-106227000D01*
X129127000Y-106247000D01*
X128873000Y-106247000D01*
X128873000Y-106227000D01*
X128853000Y-106227000D01*
X128853000Y-105973000D01*
X128873000Y-105973000D01*
X128873000Y-105957465D01*
X128887719Y-105953000D01*
X129127000Y-105953000D01*
X129127000Y-105973000D01*
%TA.AperFunction,Conductor*%
D34*
G36*
X129127000Y-105973000D02*
G01*
X129147000Y-105973000D01*
X129147000Y-106227000D01*
X129127000Y-106227000D01*
X129127000Y-106247000D01*
X128873000Y-106247000D01*
X128873000Y-106227000D01*
X128853000Y-106227000D01*
X128853000Y-105973000D01*
X128873000Y-105973000D01*
X128873000Y-105957465D01*
X128887719Y-105953000D01*
X129127000Y-105953000D01*
X129127000Y-105973000D01*
G37*
%TD.AperFunction*%
D33*
X126262000Y-104098000D02*
X126282000Y-104098000D01*
X126282000Y-104352000D01*
X126262000Y-104352000D01*
X126262000Y-104372000D01*
X126008000Y-104372000D01*
X126008000Y-104352000D01*
X125988000Y-104352000D01*
X125988000Y-104098000D01*
X126008000Y-104098000D01*
X126008000Y-104078000D01*
X126262000Y-104078000D01*
X126262000Y-104098000D01*
%TA.AperFunction,Conductor*%
D34*
G36*
X126262000Y-104098000D02*
G01*
X126282000Y-104098000D01*
X126282000Y-104352000D01*
X126262000Y-104352000D01*
X126262000Y-104372000D01*
X126008000Y-104372000D01*
X126008000Y-104352000D01*
X125988000Y-104352000D01*
X125988000Y-104098000D01*
X126008000Y-104098000D01*
X126008000Y-104078000D01*
X126262000Y-104078000D01*
X126262000Y-104098000D01*
G37*
%TD.AperFunction*%
D33*
X135309744Y-96417205D02*
X135498102Y-96495226D01*
X135698061Y-96535000D01*
X135724843Y-96535000D01*
X136067979Y-96878136D01*
X136001939Y-96865000D01*
X135798061Y-96865000D01*
X135598102Y-96904774D01*
X135409744Y-96982795D01*
X135240226Y-97096063D01*
X135096063Y-97240226D01*
X134982795Y-97409744D01*
X134904774Y-97598102D01*
X134865000Y-97798061D01*
X134865000Y-98001939D01*
X134873619Y-98045269D01*
X134860000Y-98043928D01*
X134295750Y-98047000D01*
X134137000Y-98205750D01*
X134137000Y-99055000D01*
X134157000Y-99055000D01*
X134157000Y-99309000D01*
X134137000Y-99309000D01*
X134137000Y-100158250D01*
X134295750Y-100317000D01*
X134860000Y-100320072D01*
X134984482Y-100307812D01*
X135065001Y-100283387D01*
X135065001Y-100526868D01*
X135019158Y-100540775D01*
X134885504Y-100612214D01*
X134768356Y-100708356D01*
X134672214Y-100825504D01*
X134654540Y-100858570D01*
X134613405Y-100781612D01*
X134502963Y-100647037D01*
X134368388Y-100536595D01*
X134214852Y-100454528D01*
X134048257Y-100403992D01*
X133955515Y-100394858D01*
X133800954Y-100240296D01*
X133883000Y-100158250D01*
X133883000Y-99309000D01*
X133863000Y-99309000D01*
X133863000Y-99055000D01*
X133883000Y-99055000D01*
X133883000Y-98205750D01*
X133724250Y-98047000D01*
X133594999Y-98046296D01*
X133594999Y-96520072D01*
X134860000Y-96520072D01*
X134984482Y-96507812D01*
X135104180Y-96471502D01*
X135214494Y-96412537D01*
X135254106Y-96380029D01*
X135309744Y-96417205D01*
%TA.AperFunction,Conductor*%
D34*
G36*
X135309744Y-96417205D02*
G01*
X135498102Y-96495226D01*
X135698061Y-96535000D01*
X135724843Y-96535000D01*
X136067979Y-96878136D01*
X136001939Y-96865000D01*
X135798061Y-96865000D01*
X135598102Y-96904774D01*
X135409744Y-96982795D01*
X135240226Y-97096063D01*
X135096063Y-97240226D01*
X134982795Y-97409744D01*
X134904774Y-97598102D01*
X134865000Y-97798061D01*
X134865000Y-98001939D01*
X134873619Y-98045269D01*
X134860000Y-98043928D01*
X134295750Y-98047000D01*
X134137000Y-98205750D01*
X134137000Y-99055000D01*
X134157000Y-99055000D01*
X134157000Y-99309000D01*
X134137000Y-99309000D01*
X134137000Y-100158250D01*
X134295750Y-100317000D01*
X134860000Y-100320072D01*
X134984482Y-100307812D01*
X135065001Y-100283387D01*
X135065001Y-100526868D01*
X135019158Y-100540775D01*
X134885504Y-100612214D01*
X134768356Y-100708356D01*
X134672214Y-100825504D01*
X134654540Y-100858570D01*
X134613405Y-100781612D01*
X134502963Y-100647037D01*
X134368388Y-100536595D01*
X134214852Y-100454528D01*
X134048257Y-100403992D01*
X133955515Y-100394858D01*
X133800954Y-100240296D01*
X133883000Y-100158250D01*
X133883000Y-99309000D01*
X133863000Y-99309000D01*
X133863000Y-99055000D01*
X133883000Y-99055000D01*
X133883000Y-98205750D01*
X133724250Y-98047000D01*
X133594999Y-98046296D01*
X133594999Y-96520072D01*
X134860000Y-96520072D01*
X134984482Y-96507812D01*
X135104180Y-96471502D01*
X135214494Y-96412537D01*
X135254106Y-96380029D01*
X135309744Y-96417205D01*
G37*
%TD.AperFunction*%
D33*
X140437000Y-99055000D02*
X140457000Y-99055000D01*
X140457000Y-99309000D01*
X140437000Y-99309000D01*
X140437000Y-99329000D01*
X140183000Y-99329000D01*
X140183000Y-99309000D01*
X140163000Y-99309000D01*
X140163000Y-99055000D01*
X140183000Y-99055000D01*
X140183000Y-99035000D01*
X140437000Y-99035000D01*
X140437000Y-99055000D01*
%TA.AperFunction,Conductor*%
D34*
G36*
X140437000Y-99055000D02*
G01*
X140457000Y-99055000D01*
X140457000Y-99309000D01*
X140437000Y-99309000D01*
X140437000Y-99329000D01*
X140183000Y-99329000D01*
X140183000Y-99309000D01*
X140163000Y-99309000D01*
X140163000Y-99055000D01*
X140183000Y-99055000D01*
X140183000Y-99035000D01*
X140437000Y-99035000D01*
X140437000Y-99055000D01*
G37*
%TD.AperFunction*%
D33*
X134261928Y-89825000D02*
X134274188Y-89949482D01*
X134310498Y-90069180D01*
X134360697Y-90163094D01*
X134309402Y-90286928D01*
X133950000Y-90286928D01*
X133825518Y-90299188D01*
X133705820Y-90335498D01*
X133595506Y-90394463D01*
X133498815Y-90473815D01*
X133419463Y-90570506D01*
X133360498Y-90680820D01*
X133324188Y-90800518D01*
X133311928Y-90925000D01*
X133311928Y-91825000D01*
X133324188Y-91949482D01*
X133360498Y-92069180D01*
X133391538Y-92127250D01*
X133355775Y-92194158D01*
X133311782Y-92339181D01*
X133296928Y-92490000D01*
X133296928Y-92860000D01*
X133311782Y-93010819D01*
X133355775Y-93155842D01*
X133427214Y-93289496D01*
X133523356Y-93406644D01*
X133640504Y-93502786D01*
X133736009Y-93553834D01*
X133542844Y-93746999D01*
X132918554Y-93746999D01*
X132879999Y-93743202D01*
X132841444Y-93746999D01*
X132841438Y-93746999D01*
X132797048Y-93751371D01*
X132726113Y-93758357D01*
X132625069Y-93789009D01*
X132578139Y-93803245D01*
X132441766Y-93876137D01*
X132322235Y-93974235D01*
X132297654Y-94004187D01*
X132282189Y-94019652D01*
X132252235Y-94044235D01*
X132154137Y-94163767D01*
X132081245Y-94300140D01*
X132036358Y-94448113D01*
X132024999Y-94563439D01*
X132024999Y-94563446D01*
X132021202Y-94601999D01*
X132024999Y-94640552D01*
X132025000Y-98207736D01*
X130700336Y-96883072D01*
X130702000Y-96883072D01*
X130826482Y-96870812D01*
X130946180Y-96834502D01*
X131056494Y-96775537D01*
X131153185Y-96696185D01*
X131232537Y-96599494D01*
X131291502Y-96489180D01*
X131327812Y-96369482D01*
X131340072Y-96245000D01*
X131340072Y-95595000D01*
X131327812Y-95470518D01*
X131291502Y-95350820D01*
X131232537Y-95240506D01*
X131153185Y-95143815D01*
X131056494Y-95064463D01*
X130946180Y-95005498D01*
X130829159Y-94970000D01*
X130946180Y-94934502D01*
X131056494Y-94875537D01*
X131153185Y-94796185D01*
X131232537Y-94699494D01*
X131291502Y-94589180D01*
X131327812Y-94469482D01*
X131340072Y-94345000D01*
X131340072Y-93695000D01*
X131327812Y-93570518D01*
X131291502Y-93450820D01*
X131232537Y-93340506D01*
X131153185Y-93243815D01*
X131118557Y-93215397D01*
X131095226Y-93098102D01*
X131017205Y-92909744D01*
X130985000Y-92861546D01*
X130985000Y-91947465D01*
X131023122Y-91821794D01*
X131038072Y-91670000D01*
X131038072Y-91627000D01*
X131207000Y-91627000D01*
X131207000Y-92286250D01*
X131365750Y-92445000D01*
X131487348Y-92435235D01*
X131606878Y-92398377D01*
X131716921Y-92338908D01*
X131813247Y-92259113D01*
X131892156Y-92162059D01*
X131950614Y-92051476D01*
X131986375Y-91931613D01*
X131998065Y-91807077D01*
X131995000Y-91785750D01*
X131836250Y-91627000D01*
X131207000Y-91627000D01*
X131038072Y-91627000D01*
X131038072Y-91330000D01*
X131023122Y-91178206D01*
X130978845Y-91032245D01*
X130953000Y-90983892D01*
X130953000Y-90713750D01*
X131207000Y-90713750D01*
X131207000Y-91373000D01*
X131836250Y-91373000D01*
X131995000Y-91214250D01*
X131998065Y-91192923D01*
X131986375Y-91068387D01*
X131950614Y-90948524D01*
X131892156Y-90837941D01*
X131813247Y-90740887D01*
X131716921Y-90661092D01*
X131606878Y-90601623D01*
X131487348Y-90564765D01*
X131365750Y-90555000D01*
X131207000Y-90713750D01*
X130953000Y-90713750D01*
X130794250Y-90555000D01*
X130672652Y-90564765D01*
X130553122Y-90601623D01*
X130543491Y-90606828D01*
X130411794Y-90566878D01*
X130260000Y-90551928D01*
X129980000Y-90551928D01*
X129955839Y-90554308D01*
X130192318Y-90317829D01*
X130198102Y-90320225D01*
X130398061Y-90359999D01*
X130601939Y-90359999D01*
X130801898Y-90320225D01*
X130990256Y-90242204D01*
X131159774Y-90128936D01*
X131303937Y-89984773D01*
X131417205Y-89815255D01*
X131495226Y-89626897D01*
X131535000Y-89426938D01*
X131535000Y-89359999D01*
X134261928Y-89359999D01*
X134261928Y-89825000D01*
%TA.AperFunction,Conductor*%
D34*
G36*
X134261928Y-89825000D02*
G01*
X134274188Y-89949482D01*
X134310498Y-90069180D01*
X134360697Y-90163094D01*
X134309402Y-90286928D01*
X133950000Y-90286928D01*
X133825518Y-90299188D01*
X133705820Y-90335498D01*
X133595506Y-90394463D01*
X133498815Y-90473815D01*
X133419463Y-90570506D01*
X133360498Y-90680820D01*
X133324188Y-90800518D01*
X133311928Y-90925000D01*
X133311928Y-91825000D01*
X133324188Y-91949482D01*
X133360498Y-92069180D01*
X133391538Y-92127250D01*
X133355775Y-92194158D01*
X133311782Y-92339181D01*
X133296928Y-92490000D01*
X133296928Y-92860000D01*
X133311782Y-93010819D01*
X133355775Y-93155842D01*
X133427214Y-93289496D01*
X133523356Y-93406644D01*
X133640504Y-93502786D01*
X133736009Y-93553834D01*
X133542844Y-93746999D01*
X132918554Y-93746999D01*
X132879999Y-93743202D01*
X132841444Y-93746999D01*
X132841438Y-93746999D01*
X132797048Y-93751371D01*
X132726113Y-93758357D01*
X132625069Y-93789009D01*
X132578139Y-93803245D01*
X132441766Y-93876137D01*
X132322235Y-93974235D01*
X132297654Y-94004187D01*
X132282189Y-94019652D01*
X132252235Y-94044235D01*
X132154137Y-94163767D01*
X132081245Y-94300140D01*
X132036358Y-94448113D01*
X132024999Y-94563439D01*
X132024999Y-94563446D01*
X132021202Y-94601999D01*
X132024999Y-94640552D01*
X132025000Y-98207736D01*
X130700336Y-96883072D01*
X130702000Y-96883072D01*
X130826482Y-96870812D01*
X130946180Y-96834502D01*
X131056494Y-96775537D01*
X131153185Y-96696185D01*
X131232537Y-96599494D01*
X131291502Y-96489180D01*
X131327812Y-96369482D01*
X131340072Y-96245000D01*
X131340072Y-95595000D01*
X131327812Y-95470518D01*
X131291502Y-95350820D01*
X131232537Y-95240506D01*
X131153185Y-95143815D01*
X131056494Y-95064463D01*
X130946180Y-95005498D01*
X130829159Y-94970000D01*
X130946180Y-94934502D01*
X131056494Y-94875537D01*
X131153185Y-94796185D01*
X131232537Y-94699494D01*
X131291502Y-94589180D01*
X131327812Y-94469482D01*
X131340072Y-94345000D01*
X131340072Y-93695000D01*
X131327812Y-93570518D01*
X131291502Y-93450820D01*
X131232537Y-93340506D01*
X131153185Y-93243815D01*
X131118557Y-93215397D01*
X131095226Y-93098102D01*
X131017205Y-92909744D01*
X130985000Y-92861546D01*
X130985000Y-91947465D01*
X131023122Y-91821794D01*
X131038072Y-91670000D01*
X131038072Y-91627000D01*
X131207000Y-91627000D01*
X131207000Y-92286250D01*
X131365750Y-92445000D01*
X131487348Y-92435235D01*
X131606878Y-92398377D01*
X131716921Y-92338908D01*
X131813247Y-92259113D01*
X131892156Y-92162059D01*
X131950614Y-92051476D01*
X131986375Y-91931613D01*
X131998065Y-91807077D01*
X131995000Y-91785750D01*
X131836250Y-91627000D01*
X131207000Y-91627000D01*
X131038072Y-91627000D01*
X131038072Y-91330000D01*
X131023122Y-91178206D01*
X130978845Y-91032245D01*
X130953000Y-90983892D01*
X130953000Y-90713750D01*
X131207000Y-90713750D01*
X131207000Y-91373000D01*
X131836250Y-91373000D01*
X131995000Y-91214250D01*
X131998065Y-91192923D01*
X131986375Y-91068387D01*
X131950614Y-90948524D01*
X131892156Y-90837941D01*
X131813247Y-90740887D01*
X131716921Y-90661092D01*
X131606878Y-90601623D01*
X131487348Y-90564765D01*
X131365750Y-90555000D01*
X131207000Y-90713750D01*
X130953000Y-90713750D01*
X130794250Y-90555000D01*
X130672652Y-90564765D01*
X130553122Y-90601623D01*
X130543491Y-90606828D01*
X130411794Y-90566878D01*
X130260000Y-90551928D01*
X129980000Y-90551928D01*
X129955839Y-90554308D01*
X130192318Y-90317829D01*
X130198102Y-90320225D01*
X130398061Y-90359999D01*
X130601939Y-90359999D01*
X130801898Y-90320225D01*
X130990256Y-90242204D01*
X131159774Y-90128936D01*
X131303937Y-89984773D01*
X131417205Y-89815255D01*
X131495226Y-89626897D01*
X131535000Y-89426938D01*
X131535000Y-89359999D01*
X134261928Y-89359999D01*
X134261928Y-89825000D01*
G37*
%TD.AperFunction*%
D33*
X122567150Y-94517764D02*
X122666202Y-94547811D01*
X122715122Y-94562651D01*
X122723113Y-94563438D01*
X122830449Y-94574010D01*
X122830456Y-94574010D01*
X122869009Y-94577807D01*
X122907562Y-94574010D01*
X124383937Y-94574010D01*
X124405405Y-94576124D01*
X124401623Y-94583122D01*
X124364765Y-94702652D01*
X124355000Y-94824250D01*
X124395749Y-94864999D01*
X122878555Y-94864999D01*
X122839999Y-94861202D01*
X122801443Y-94864999D01*
X122801438Y-94864999D01*
X122761025Y-94868979D01*
X122686112Y-94876357D01*
X122538139Y-94921245D01*
X122401766Y-94994137D01*
X122378040Y-95013609D01*
X122427932Y-94893158D01*
X122485000Y-94606260D01*
X122485000Y-94473854D01*
X122567150Y-94517764D01*
%TA.AperFunction,Conductor*%
D34*
G36*
X122567150Y-94517764D02*
G01*
X122666202Y-94547811D01*
X122715122Y-94562651D01*
X122723113Y-94563438D01*
X122830449Y-94574010D01*
X122830456Y-94574010D01*
X122869009Y-94577807D01*
X122907562Y-94574010D01*
X124383937Y-94574010D01*
X124405405Y-94576124D01*
X124401623Y-94583122D01*
X124364765Y-94702652D01*
X124355000Y-94824250D01*
X124395749Y-94864999D01*
X122878555Y-94864999D01*
X122839999Y-94861202D01*
X122801443Y-94864999D01*
X122801438Y-94864999D01*
X122761025Y-94868979D01*
X122686112Y-94876357D01*
X122538139Y-94921245D01*
X122401766Y-94994137D01*
X122378040Y-95013609D01*
X122427932Y-94893158D01*
X122485000Y-94606260D01*
X122485000Y-94473854D01*
X122567150Y-94517764D01*
G37*
%TD.AperFunction*%
D33*
X136377000Y-91248000D02*
X136397000Y-91248000D01*
X136397000Y-91502000D01*
X136377000Y-91502000D01*
X136377000Y-92301250D01*
X136535750Y-92460000D01*
X136650000Y-92463072D01*
X136774482Y-92450812D01*
X136894180Y-92414502D01*
X137004494Y-92355537D01*
X137101185Y-92276185D01*
X137102242Y-92274897D01*
X137123816Y-92301185D01*
X137220507Y-92380537D01*
X137330821Y-92439502D01*
X137450519Y-92475812D01*
X137575001Y-92488072D01*
X138125000Y-92488072D01*
X138125000Y-92891750D01*
X138077000Y-92939750D01*
X138077000Y-93209892D01*
X138051155Y-93258245D01*
X138006878Y-93404206D01*
X137991928Y-93556000D01*
X137991928Y-93601010D01*
X137803000Y-93601010D01*
X137803000Y-93599000D01*
X137823000Y-93599000D01*
X137823000Y-92939750D01*
X137664250Y-92781000D01*
X137542652Y-92790765D01*
X137423122Y-92827623D01*
X137414000Y-92832553D01*
X137404878Y-92827623D01*
X137285348Y-92790765D01*
X137163750Y-92781000D01*
X137005000Y-92939750D01*
X137005000Y-93599000D01*
X137025000Y-93599000D01*
X137025000Y-93601010D01*
X136860188Y-93601010D01*
X136836072Y-93576894D01*
X136836072Y-93556000D01*
X136821122Y-93404206D01*
X136776845Y-93258245D01*
X136751000Y-93209892D01*
X136751000Y-92939750D01*
X136592250Y-92781000D01*
X136470652Y-92790765D01*
X136351122Y-92827623D01*
X136341491Y-92832828D01*
X136209794Y-92792878D01*
X136133072Y-92785322D01*
X136133072Y-92490000D01*
X136118218Y-92339181D01*
X136110503Y-92313747D01*
X136123000Y-92301250D01*
X136123000Y-91502000D01*
X136103000Y-91502000D01*
X136103000Y-91260711D01*
X136103937Y-91259774D01*
X136111804Y-91248000D01*
X136123000Y-91248000D01*
X136123000Y-91231244D01*
X136125168Y-91228000D01*
X136377000Y-91228000D01*
X136377000Y-91248000D01*
%TA.AperFunction,Conductor*%
D34*
G36*
X136377000Y-91248000D02*
G01*
X136397000Y-91248000D01*
X136397000Y-91502000D01*
X136377000Y-91502000D01*
X136377000Y-92301250D01*
X136535750Y-92460000D01*
X136650000Y-92463072D01*
X136774482Y-92450812D01*
X136894180Y-92414502D01*
X137004494Y-92355537D01*
X137101185Y-92276185D01*
X137102242Y-92274897D01*
X137123816Y-92301185D01*
X137220507Y-92380537D01*
X137330821Y-92439502D01*
X137450519Y-92475812D01*
X137575001Y-92488072D01*
X138125000Y-92488072D01*
X138125000Y-92891750D01*
X138077000Y-92939750D01*
X138077000Y-93209892D01*
X138051155Y-93258245D01*
X138006878Y-93404206D01*
X137991928Y-93556000D01*
X137991928Y-93601010D01*
X137803000Y-93601010D01*
X137803000Y-93599000D01*
X137823000Y-93599000D01*
X137823000Y-92939750D01*
X137664250Y-92781000D01*
X137542652Y-92790765D01*
X137423122Y-92827623D01*
X137414000Y-92832553D01*
X137404878Y-92827623D01*
X137285348Y-92790765D01*
X137163750Y-92781000D01*
X137005000Y-92939750D01*
X137005000Y-93599000D01*
X137025000Y-93599000D01*
X137025000Y-93601010D01*
X136860188Y-93601010D01*
X136836072Y-93576894D01*
X136836072Y-93556000D01*
X136821122Y-93404206D01*
X136776845Y-93258245D01*
X136751000Y-93209892D01*
X136751000Y-92939750D01*
X136592250Y-92781000D01*
X136470652Y-92790765D01*
X136351122Y-92827623D01*
X136341491Y-92832828D01*
X136209794Y-92792878D01*
X136133072Y-92785322D01*
X136133072Y-92490000D01*
X136118218Y-92339181D01*
X136110503Y-92313747D01*
X136123000Y-92301250D01*
X136123000Y-91502000D01*
X136103000Y-91502000D01*
X136103000Y-91260711D01*
X136103937Y-91259774D01*
X136111804Y-91248000D01*
X136123000Y-91248000D01*
X136123000Y-91231244D01*
X136125168Y-91228000D01*
X136377000Y-91228000D01*
X136377000Y-91248000D01*
G37*
%TD.AperFunction*%
D33*
X122606828Y-88943491D02*
X122601623Y-88953122D01*
X122564765Y-89072652D01*
X122555000Y-89194250D01*
X122713750Y-89353000D01*
X122983892Y-89353000D01*
X123032245Y-89378845D01*
X123178206Y-89423122D01*
X123330000Y-89438072D01*
X123647000Y-89438072D01*
X123647000Y-89607000D01*
X123627000Y-89607000D01*
X123627000Y-89627000D01*
X123373000Y-89627000D01*
X123373000Y-89607000D01*
X122713750Y-89607000D01*
X122555000Y-89765750D01*
X122564765Y-89887348D01*
X122601623Y-90006878D01*
X122661092Y-90116921D01*
X122740887Y-90213247D01*
X122790956Y-90253955D01*
X122783815Y-90259815D01*
X122704463Y-90356506D01*
X122645498Y-90466820D01*
X122609188Y-90586518D01*
X122596928Y-90711000D01*
X122600000Y-90900250D01*
X122758750Y-91059000D01*
X123508000Y-91059000D01*
X123508000Y-91039000D01*
X123762000Y-91039000D01*
X123762000Y-91059000D01*
X123782000Y-91059000D01*
X123782000Y-91313000D01*
X123762000Y-91313000D01*
X123762000Y-91333000D01*
X123508000Y-91333000D01*
X123508000Y-91313000D01*
X122758750Y-91313000D01*
X122600000Y-91471750D01*
X122596928Y-91661000D01*
X122609188Y-91785482D01*
X122645498Y-91905180D01*
X122704463Y-92015494D01*
X122783815Y-92112185D01*
X122817049Y-92139459D01*
X122741329Y-92231725D01*
X122662150Y-92379858D01*
X122640706Y-92450549D01*
X122447075Y-92256918D01*
X122485000Y-92066260D01*
X122485000Y-91773740D01*
X122427932Y-91486842D01*
X122315990Y-91216589D01*
X122153475Y-90973368D01*
X121946632Y-90766525D01*
X121772240Y-90650000D01*
X121946632Y-90533475D01*
X122153475Y-90326632D01*
X122315990Y-90083411D01*
X122427932Y-89813158D01*
X122485000Y-89526260D01*
X122485000Y-89233740D01*
X122447075Y-89043082D01*
X122592826Y-88897332D01*
X122606828Y-88943491D01*
%TA.AperFunction,Conductor*%
D34*
G36*
X122606828Y-88943491D02*
G01*
X122601623Y-88953122D01*
X122564765Y-89072652D01*
X122555000Y-89194250D01*
X122713750Y-89353000D01*
X122983892Y-89353000D01*
X123032245Y-89378845D01*
X123178206Y-89423122D01*
X123330000Y-89438072D01*
X123647000Y-89438072D01*
X123647000Y-89607000D01*
X123627000Y-89607000D01*
X123627000Y-89627000D01*
X123373000Y-89627000D01*
X123373000Y-89607000D01*
X122713750Y-89607000D01*
X122555000Y-89765750D01*
X122564765Y-89887348D01*
X122601623Y-90006878D01*
X122661092Y-90116921D01*
X122740887Y-90213247D01*
X122790956Y-90253955D01*
X122783815Y-90259815D01*
X122704463Y-90356506D01*
X122645498Y-90466820D01*
X122609188Y-90586518D01*
X122596928Y-90711000D01*
X122600000Y-90900250D01*
X122758750Y-91059000D01*
X123508000Y-91059000D01*
X123508000Y-91039000D01*
X123762000Y-91039000D01*
X123762000Y-91059000D01*
X123782000Y-91059000D01*
X123782000Y-91313000D01*
X123762000Y-91313000D01*
X123762000Y-91333000D01*
X123508000Y-91333000D01*
X123508000Y-91313000D01*
X122758750Y-91313000D01*
X122600000Y-91471750D01*
X122596928Y-91661000D01*
X122609188Y-91785482D01*
X122645498Y-91905180D01*
X122704463Y-92015494D01*
X122783815Y-92112185D01*
X122817049Y-92139459D01*
X122741329Y-92231725D01*
X122662150Y-92379858D01*
X122640706Y-92450549D01*
X122447075Y-92256918D01*
X122485000Y-92066260D01*
X122485000Y-91773740D01*
X122427932Y-91486842D01*
X122315990Y-91216589D01*
X122153475Y-90973368D01*
X121946632Y-90766525D01*
X121772240Y-90650000D01*
X121946632Y-90533475D01*
X122153475Y-90326632D01*
X122315990Y-90083411D01*
X122427932Y-89813158D01*
X122485000Y-89526260D01*
X122485000Y-89233740D01*
X122447075Y-89043082D01*
X122592826Y-88897332D01*
X122606828Y-88943491D01*
G37*
%TD.AperFunction*%
D33*
X124927000Y-88873000D02*
X124947000Y-88873000D01*
X124947000Y-89127000D01*
X124927000Y-89127000D01*
X124927000Y-89147000D01*
X124673000Y-89147000D01*
X124673000Y-89127000D01*
X124653000Y-89127000D01*
X124653000Y-88873000D01*
X124673000Y-88873000D01*
X124673000Y-88853000D01*
X124927000Y-88853000D01*
X124927000Y-88873000D01*
%TA.AperFunction,Conductor*%
D34*
G36*
X124927000Y-88873000D02*
G01*
X124947000Y-88873000D01*
X124947000Y-89127000D01*
X124927000Y-89127000D01*
X124927000Y-89147000D01*
X124673000Y-89147000D01*
X124673000Y-89127000D01*
X124653000Y-89127000D01*
X124653000Y-88873000D01*
X124673000Y-88873000D01*
X124673000Y-88853000D01*
X124927000Y-88853000D01*
X124927000Y-88873000D01*
G37*
%TD.AperFunction*%
D33*
X139815000Y-85116928D02*
X139098971Y-85116928D01*
X139095226Y-85098102D01*
X139017205Y-84909744D01*
X138903937Y-84740226D01*
X138759774Y-84596063D01*
X138590256Y-84482795D01*
X138401898Y-84404774D01*
X138201939Y-84365000D01*
X137998061Y-84365000D01*
X137798102Y-84404774D01*
X137609744Y-84482795D01*
X137440226Y-84596063D01*
X137296063Y-84740226D01*
X137182795Y-84909744D01*
X137104774Y-85098102D01*
X137101029Y-85116928D01*
X136425000Y-85116928D01*
X136300518Y-85129188D01*
X136240000Y-85147546D01*
X136179482Y-85129188D01*
X136055000Y-85116928D01*
X135155000Y-85116928D01*
X135030518Y-85129188D01*
X134970000Y-85147546D01*
X134909482Y-85129188D01*
X134785000Y-85116928D01*
X133885000Y-85116928D01*
X133760518Y-85129188D01*
X133700000Y-85147546D01*
X133639482Y-85129188D01*
X133515000Y-85116928D01*
X132615000Y-85116928D01*
X132490518Y-85129188D01*
X132430000Y-85147546D01*
X132369482Y-85129188D01*
X132245000Y-85116928D01*
X131345000Y-85116928D01*
X131220518Y-85129188D01*
X131160000Y-85147546D01*
X131099482Y-85129188D01*
X130975000Y-85116928D01*
X130235000Y-85116928D01*
X130235000Y-85098061D01*
X130195226Y-84898102D01*
X130117205Y-84709744D01*
X130003937Y-84540226D01*
X129859774Y-84396063D01*
X129690256Y-84282795D01*
X129501898Y-84204774D01*
X129301939Y-84165000D01*
X129098061Y-84165000D01*
X128898102Y-84204774D01*
X128709744Y-84282795D01*
X128540226Y-84396063D01*
X128396063Y-84540226D01*
X128282795Y-84709744D01*
X128204774Y-84898102D01*
X128165000Y-85098061D01*
X128165000Y-85225750D01*
X128112000Y-85278750D01*
X128112000Y-86628000D01*
X128132000Y-86628000D01*
X128132000Y-86882000D01*
X128112000Y-86882000D01*
X128112000Y-86902000D01*
X127858000Y-86902000D01*
X127858000Y-86882000D01*
X127838000Y-86882000D01*
X127838000Y-86628000D01*
X127858000Y-86628000D01*
X127858000Y-85278750D01*
X127699250Y-85120000D01*
X127585000Y-85117863D01*
X127585000Y-84860804D01*
X127690256Y-84817205D01*
X127859774Y-84703937D01*
X128003937Y-84559774D01*
X128117205Y-84390256D01*
X128195226Y-84201898D01*
X128235000Y-84001939D01*
X128235000Y-83908533D01*
X128301898Y-83895226D01*
X128490256Y-83817205D01*
X128659774Y-83703937D01*
X128803937Y-83559774D01*
X128917205Y-83390256D01*
X128995226Y-83201898D01*
X129027830Y-83037987D01*
X130767659Y-84777817D01*
X130792237Y-84807765D01*
X130822185Y-84832343D01*
X130822188Y-84832346D01*
X130834239Y-84842236D01*
X130911768Y-84905863D01*
X131048141Y-84978755D01*
X131196114Y-85023643D01*
X131271027Y-85031021D01*
X131311440Y-85035001D01*
X131311445Y-85035001D01*
X131350001Y-85038798D01*
X131388556Y-85035001D01*
X136121448Y-85035001D01*
X136160001Y-85038798D01*
X136198554Y-85035001D01*
X136198562Y-85035001D01*
X136313888Y-85023642D01*
X136461861Y-84978755D01*
X136598234Y-84905863D01*
X136717765Y-84807765D01*
X136742348Y-84777811D01*
X139527817Y-81992343D01*
X139557764Y-81967766D01*
X139628125Y-81882032D01*
X139775157Y-81735000D01*
X139801939Y-81735000D01*
X139815001Y-81732402D01*
X139815000Y-85116928D01*
%TA.AperFunction,Conductor*%
D34*
G36*
X139815000Y-85116928D02*
G01*
X139098971Y-85116928D01*
X139095226Y-85098102D01*
X139017205Y-84909744D01*
X138903937Y-84740226D01*
X138759774Y-84596063D01*
X138590256Y-84482795D01*
X138401898Y-84404774D01*
X138201939Y-84365000D01*
X137998061Y-84365000D01*
X137798102Y-84404774D01*
X137609744Y-84482795D01*
X137440226Y-84596063D01*
X137296063Y-84740226D01*
X137182795Y-84909744D01*
X137104774Y-85098102D01*
X137101029Y-85116928D01*
X136425000Y-85116928D01*
X136300518Y-85129188D01*
X136240000Y-85147546D01*
X136179482Y-85129188D01*
X136055000Y-85116928D01*
X135155000Y-85116928D01*
X135030518Y-85129188D01*
X134970000Y-85147546D01*
X134909482Y-85129188D01*
X134785000Y-85116928D01*
X133885000Y-85116928D01*
X133760518Y-85129188D01*
X133700000Y-85147546D01*
X133639482Y-85129188D01*
X133515000Y-85116928D01*
X132615000Y-85116928D01*
X132490518Y-85129188D01*
X132430000Y-85147546D01*
X132369482Y-85129188D01*
X132245000Y-85116928D01*
X131345000Y-85116928D01*
X131220518Y-85129188D01*
X131160000Y-85147546D01*
X131099482Y-85129188D01*
X130975000Y-85116928D01*
X130235000Y-85116928D01*
X130235000Y-85098061D01*
X130195226Y-84898102D01*
X130117205Y-84709744D01*
X130003937Y-84540226D01*
X129859774Y-84396063D01*
X129690256Y-84282795D01*
X129501898Y-84204774D01*
X129301939Y-84165000D01*
X129098061Y-84165000D01*
X128898102Y-84204774D01*
X128709744Y-84282795D01*
X128540226Y-84396063D01*
X128396063Y-84540226D01*
X128282795Y-84709744D01*
X128204774Y-84898102D01*
X128165000Y-85098061D01*
X128165000Y-85225750D01*
X128112000Y-85278750D01*
X128112000Y-86628000D01*
X128132000Y-86628000D01*
X128132000Y-86882000D01*
X128112000Y-86882000D01*
X128112000Y-86902000D01*
X127858000Y-86902000D01*
X127858000Y-86882000D01*
X127838000Y-86882000D01*
X127838000Y-86628000D01*
X127858000Y-86628000D01*
X127858000Y-85278750D01*
X127699250Y-85120000D01*
X127585000Y-85117863D01*
X127585000Y-84860804D01*
X127690256Y-84817205D01*
X127859774Y-84703937D01*
X128003937Y-84559774D01*
X128117205Y-84390256D01*
X128195226Y-84201898D01*
X128235000Y-84001939D01*
X128235000Y-83908533D01*
X128301898Y-83895226D01*
X128490256Y-83817205D01*
X128659774Y-83703937D01*
X128803937Y-83559774D01*
X128917205Y-83390256D01*
X128995226Y-83201898D01*
X129027830Y-83037987D01*
X130767659Y-84777817D01*
X130792237Y-84807765D01*
X130822185Y-84832343D01*
X130822188Y-84832346D01*
X130834239Y-84842236D01*
X130911768Y-84905863D01*
X131048141Y-84978755D01*
X131196114Y-85023643D01*
X131271027Y-85031021D01*
X131311440Y-85035001D01*
X131311445Y-85035001D01*
X131350001Y-85038798D01*
X131388556Y-85035001D01*
X136121448Y-85035001D01*
X136160001Y-85038798D01*
X136198554Y-85035001D01*
X136198562Y-85035001D01*
X136313888Y-85023642D01*
X136461861Y-84978755D01*
X136598234Y-84905863D01*
X136717765Y-84807765D01*
X136742348Y-84777811D01*
X139527817Y-81992343D01*
X139557764Y-81967766D01*
X139628125Y-81882032D01*
X139775157Y-81735000D01*
X139801939Y-81735000D01*
X139815001Y-81732402D01*
X139815000Y-85116928D01*
G37*
%TD.AperFunction*%
D33*
X136858618Y-76383774D02*
X136840226Y-76396063D01*
X136696063Y-76540226D01*
X136582795Y-76709744D01*
X136504774Y-76898102D01*
X136465000Y-77098061D01*
X136465000Y-77301939D01*
X136504774Y-77501898D01*
X136582795Y-77690256D01*
X136696063Y-77859774D01*
X136715001Y-77878712D01*
X136715001Y-78067598D01*
X136701939Y-78065000D01*
X136498061Y-78065000D01*
X136298102Y-78104774D01*
X136109744Y-78182795D01*
X135940226Y-78296063D01*
X135836899Y-78399390D01*
X135835000Y-77030750D01*
X135676250Y-76872000D01*
X132827000Y-76872000D01*
X132827000Y-79721250D01*
X132985750Y-79880000D01*
X134707454Y-79882389D01*
X134609843Y-79980000D01*
X130725158Y-79980000D01*
X130627637Y-79882479D01*
X132414250Y-79880000D01*
X132573000Y-79721250D01*
X132573000Y-76872000D01*
X129723750Y-76872000D01*
X129565000Y-77030750D01*
X129562521Y-78817364D01*
X127125157Y-76380000D01*
X128504274Y-76380000D01*
X128542827Y-76383797D01*
X128581380Y-76380000D01*
X128581388Y-76380000D01*
X128696714Y-76368641D01*
X128844687Y-76323754D01*
X128981060Y-76250862D01*
X129100591Y-76152764D01*
X129125174Y-76122810D01*
X129563925Y-75684059D01*
X129565000Y-76459250D01*
X129723750Y-76618000D01*
X132573000Y-76618000D01*
X132573000Y-76598000D01*
X132827000Y-76598000D01*
X132827000Y-76618000D01*
X135676250Y-76618000D01*
X135835000Y-76459250D01*
X135836523Y-75361678D01*
X136858618Y-76383774D01*
%TA.AperFunction,Conductor*%
D34*
G36*
X136858618Y-76383774D02*
G01*
X136840226Y-76396063D01*
X136696063Y-76540226D01*
X136582795Y-76709744D01*
X136504774Y-76898102D01*
X136465000Y-77098061D01*
X136465000Y-77301939D01*
X136504774Y-77501898D01*
X136582795Y-77690256D01*
X136696063Y-77859774D01*
X136715001Y-77878712D01*
X136715001Y-78067598D01*
X136701939Y-78065000D01*
X136498061Y-78065000D01*
X136298102Y-78104774D01*
X136109744Y-78182795D01*
X135940226Y-78296063D01*
X135836899Y-78399390D01*
X135835000Y-77030750D01*
X135676250Y-76872000D01*
X132827000Y-76872000D01*
X132827000Y-79721250D01*
X132985750Y-79880000D01*
X134707454Y-79882389D01*
X134609843Y-79980000D01*
X130725158Y-79980000D01*
X130627637Y-79882479D01*
X132414250Y-79880000D01*
X132573000Y-79721250D01*
X132573000Y-76872000D01*
X129723750Y-76872000D01*
X129565000Y-77030750D01*
X129562521Y-78817364D01*
X127125157Y-76380000D01*
X128504274Y-76380000D01*
X128542827Y-76383797D01*
X128581380Y-76380000D01*
X128581388Y-76380000D01*
X128696714Y-76368641D01*
X128844687Y-76323754D01*
X128981060Y-76250862D01*
X129100591Y-76152764D01*
X129125174Y-76122810D01*
X129563925Y-75684059D01*
X129565000Y-76459250D01*
X129723750Y-76618000D01*
X132573000Y-76618000D01*
X132573000Y-76598000D01*
X132827000Y-76598000D01*
X132827000Y-76618000D01*
X135676250Y-76618000D01*
X135835000Y-76459250D01*
X135836523Y-75361678D01*
X136858618Y-76383774D01*
G37*
%TD.AperFunction*%
D33*
X138157342Y-71422499D02*
X137972186Y-71607655D01*
X137942237Y-71632234D01*
X137917659Y-71662182D01*
X137917655Y-71662186D01*
X137888213Y-71698061D01*
X137844139Y-71751765D01*
X137829541Y-71779077D01*
X137771246Y-71888139D01*
X137726359Y-72036112D01*
X137711203Y-72189998D01*
X137715001Y-72228561D01*
X137715000Y-75019841D01*
X133952349Y-71257190D01*
X133927766Y-71227236D01*
X133808235Y-71129138D01*
X133671862Y-71056246D01*
X133523889Y-71011359D01*
X133408563Y-71000000D01*
X133408555Y-71000000D01*
X133370002Y-70996203D01*
X133331449Y-71000000D01*
X127410694Y-71000000D01*
X127417205Y-70990256D01*
X127495226Y-70801898D01*
X127535000Y-70601939D01*
X127535000Y-70398061D01*
X127495226Y-70198102D01*
X127417205Y-70009744D01*
X127303937Y-69840226D01*
X127159774Y-69696063D01*
X126990256Y-69582795D01*
X126814063Y-69509813D01*
X126676250Y-69372000D01*
X125327000Y-69372000D01*
X125327000Y-69392000D01*
X125073000Y-69392000D01*
X125073000Y-69372000D01*
X125053000Y-69372000D01*
X125053000Y-69229999D01*
X135964842Y-69229999D01*
X138157342Y-71422499D01*
%TA.AperFunction,Conductor*%
D34*
G36*
X138157342Y-71422499D02*
G01*
X137972186Y-71607655D01*
X137942237Y-71632234D01*
X137917659Y-71662182D01*
X137917655Y-71662186D01*
X137888213Y-71698061D01*
X137844139Y-71751765D01*
X137829541Y-71779077D01*
X137771246Y-71888139D01*
X137726359Y-72036112D01*
X137711203Y-72189998D01*
X137715001Y-72228561D01*
X137715000Y-75019841D01*
X133952349Y-71257190D01*
X133927766Y-71227236D01*
X133808235Y-71129138D01*
X133671862Y-71056246D01*
X133523889Y-71011359D01*
X133408563Y-71000000D01*
X133408555Y-71000000D01*
X133370002Y-70996203D01*
X133331449Y-71000000D01*
X127410694Y-71000000D01*
X127417205Y-70990256D01*
X127495226Y-70801898D01*
X127535000Y-70601939D01*
X127535000Y-70398061D01*
X127495226Y-70198102D01*
X127417205Y-70009744D01*
X127303937Y-69840226D01*
X127159774Y-69696063D01*
X126990256Y-69582795D01*
X126814063Y-69509813D01*
X126676250Y-69372000D01*
X125327000Y-69372000D01*
X125327000Y-69392000D01*
X125073000Y-69392000D01*
X125073000Y-69372000D01*
X125053000Y-69372000D01*
X125053000Y-69229999D01*
X135964842Y-69229999D01*
X138157342Y-71422499D01*
G37*
%TD.AperFunction*%
D33*
X140723750Y-69118000D02*
X142073000Y-69118000D01*
X142073000Y-69098000D01*
X142327000Y-69098000D01*
X142327000Y-69118000D01*
X142347000Y-69118000D01*
X142347000Y-69372000D01*
X142327000Y-69372000D01*
X142327000Y-69392000D01*
X142073000Y-69392000D01*
X142073000Y-69372000D01*
X140723750Y-69372000D01*
X140565000Y-69530750D01*
X140561928Y-69695000D01*
X140574188Y-69819482D01*
X140574487Y-69820469D01*
X140502142Y-69859138D01*
X140466002Y-69888798D01*
X140412562Y-69932655D01*
X140412559Y-69932658D01*
X140382611Y-69957236D01*
X140358032Y-69987185D01*
X140330217Y-70015000D01*
X140303436Y-70015000D01*
X140240688Y-70027481D01*
X140170036Y-69856913D01*
X140056768Y-69687395D01*
X139912605Y-69543232D01*
X139743087Y-69429964D01*
X139554729Y-69351943D01*
X139354770Y-69312169D01*
X139327988Y-69312169D01*
X139000819Y-68985000D01*
X140590750Y-68985000D01*
X140723750Y-69118000D01*
%TA.AperFunction,Conductor*%
D34*
G36*
X140723750Y-69118000D02*
G01*
X142073000Y-69118000D01*
X142073000Y-69098000D01*
X142327000Y-69098000D01*
X142327000Y-69118000D01*
X142347000Y-69118000D01*
X142347000Y-69372000D01*
X142327000Y-69372000D01*
X142327000Y-69392000D01*
X142073000Y-69392000D01*
X142073000Y-69372000D01*
X140723750Y-69372000D01*
X140565000Y-69530750D01*
X140561928Y-69695000D01*
X140574188Y-69819482D01*
X140574487Y-69820469D01*
X140502142Y-69859138D01*
X140466002Y-69888798D01*
X140412562Y-69932655D01*
X140412559Y-69932658D01*
X140382611Y-69957236D01*
X140358032Y-69987185D01*
X140330217Y-70015000D01*
X140303436Y-70015000D01*
X140240688Y-70027481D01*
X140170036Y-69856913D01*
X140056768Y-69687395D01*
X139912605Y-69543232D01*
X139743087Y-69429964D01*
X139554729Y-69351943D01*
X139354770Y-69312169D01*
X139327988Y-69312169D01*
X139000819Y-68985000D01*
X140590750Y-68985000D01*
X140723750Y-69118000D01*
G37*
%TD.AperFunction*%
%TD*%
M02*
