%TF.GenerationSoftware,KiCad,Pcbnew,(5.1.7-0-10_14)*%
%TF.CreationDate,2020-11-02T22:23:07+09:00*%
%TF.ProjectId,mini-esp32,6d696e69-2d65-4737-9033-322e6b696361,rev?*%
%TF.SameCoordinates,Original*%
%TF.FileFunction,Copper,L4,Bot*%
%TF.FilePolarity,Positive*%
%FSLAX46Y46*%
G04 Gerber Fmt 4.6, Leading zero omitted, Abs format (unit mm)*
G04 Created by KiCad (PCBNEW (5.1.7-0-10_14)) date 2020-11-02 22:23:07*
%MOMM*%
%LPD*%
G01*
G04 APERTURE LIST*
%TA.AperFunction,ComponentPad*%
%ADD10O,1.700000X1.700000*%
%TD*%
%TA.AperFunction,ComponentPad*%
%ADD11R,1.700000X1.700000*%
%TD*%
%TA.AperFunction,ComponentPad*%
%ADD12C,1.200000*%
%TD*%
%TA.AperFunction,ComponentPad*%
%ADD13O,1.300000X2.200000*%
%TD*%
%TA.AperFunction,ViaPad*%
%ADD14C,1.600000*%
%TD*%
%TA.AperFunction,ViaPad*%
%ADD15C,0.800000*%
%TD*%
%TA.AperFunction,Conductor*%
%ADD16C,0.500000*%
%TD*%
%TA.AperFunction,Conductor*%
%ADD17C,0.750000*%
%TD*%
%TA.AperFunction,Conductor*%
%ADD18C,0.300000*%
%TD*%
%TA.AperFunction,Conductor*%
%ADD19C,0.254000*%
%TD*%
%TA.AperFunction,Conductor*%
%ADD20C,0.100000*%
%TD*%
G04 APERTURE END LIST*
D10*
%TO.P,J5,18*%
%TO.N,VBUS*%
X121000000Y-112240000D03*
%TO.P,J5,17*%
%TO.N,VDD*%
X121000000Y-109700000D03*
%TO.P,J5,16*%
%TO.N,Net-(J5-Pad16)*%
X121000000Y-107160000D03*
%TO.P,J5,15*%
%TO.N,GND*%
X121000000Y-104620000D03*
%TO.P,J5,14*%
%TO.N,+BATT*%
X121000000Y-102080000D03*
%TO.P,J5,13*%
%TO.N,EN*%
X121000000Y-99540000D03*
%TO.P,J5,12*%
%TO.N,Net-(J5-Pad12)*%
X121000000Y-97000000D03*
%TO.P,J5,11*%
%TO.N,Net-(J5-Pad11)*%
X121000000Y-94460000D03*
%TO.P,J5,10*%
%TO.N,IO2*%
X121000000Y-91920000D03*
%TO.P,J5,9*%
%TO.N,IO5*%
X121000000Y-89380000D03*
%TO.P,J5,8*%
%TO.N,IO13*%
X121000000Y-86840000D03*
%TO.P,J5,7*%
%TO.N,IO33*%
X121000000Y-84300000D03*
%TO.P,J5,6*%
%TO.N,IO32*%
X121000000Y-81760000D03*
%TO.P,J5,5*%
%TO.N,IO27*%
X121000000Y-79220000D03*
%TO.P,J5,4*%
%TO.N,IO26_DAC2*%
X121000000Y-76680000D03*
%TO.P,J5,3*%
%TO.N,IO25_DAC1*%
X121000000Y-74140000D03*
%TO.P,J5,2*%
%TO.N,TXD0*%
X121000000Y-71600000D03*
D11*
%TO.P,J5,1*%
%TO.N,RXD0*%
X121000000Y-69060000D03*
%TD*%
%TO.P,J6,1*%
%TO.N,I36*%
X146400000Y-69060000D03*
D10*
%TO.P,J6,2*%
%TO.N,I39*%
X146400000Y-71600000D03*
%TO.P,J6,3*%
%TO.N,I34*%
X146400000Y-74140000D03*
%TO.P,J6,4*%
%TO.N,I35*%
X146400000Y-76680000D03*
%TO.P,J6,5*%
%TO.N,IO15*%
X146400000Y-79220000D03*
%TO.P,J6,6*%
%TO.N,Net-(J6-Pad6)*%
X146400000Y-81760000D03*
%TO.P,J6,7*%
%TO.N,GPIO0*%
X146400000Y-84300000D03*
%TO.P,J6,8*%
%TO.N,IO18*%
X146400000Y-86840000D03*
%TO.P,J6,9*%
%TO.N,IO23*%
X146400000Y-89380000D03*
%TO.P,J6,10*%
%TO.N,IO19*%
X146400000Y-91920000D03*
%TO.P,J6,11*%
%TO.N,IO21*%
X146400000Y-94460000D03*
%TO.P,J6,12*%
%TO.N,IO22*%
X146400000Y-97000000D03*
%TO.P,J6,13*%
%TO.N,IO14*%
X146400000Y-99540000D03*
%TO.P,J6,14*%
%TO.N,IO12*%
X146400000Y-102080000D03*
%TO.P,J6,15*%
%TO.N,IO4*%
X146400000Y-104620000D03*
%TO.P,J6,16*%
%TO.N,IO16*%
X146400000Y-107160000D03*
%TO.P,J6,17*%
%TO.N,IO17*%
X146400000Y-109700000D03*
%TO.P,J6,18*%
%TO.N,RESET*%
X146400000Y-112240000D03*
%TD*%
D12*
%TO.P,J2,0*%
%TO.N,N/C*%
X140434000Y-115698000D03*
X135584000Y-115698000D03*
D13*
%TO.P,J2,*%
%TO.N,*%
X134389000Y-118398000D03*
X141628000Y-118398000D03*
%TD*%
D14*
%TO.N,GND*%
X132700000Y-77200000D03*
D15*
X131700000Y-91500000D03*
X135100000Y-99200000D03*
X139300000Y-99300000D03*
X129000000Y-106900000D03*
X126000000Y-106900000D03*
X123700000Y-106800000D03*
X123600000Y-103100000D03*
X126200000Y-103100000D03*
X136300000Y-90600000D03*
X125500000Y-89100000D03*
X124900000Y-90000000D03*
X123500000Y-90100000D03*
X128000000Y-85400000D03*
X126500000Y-69200000D03*
X140900000Y-69300000D03*
X126400000Y-117400000D03*
X138000000Y-93000000D03*
X136900000Y-93000000D03*
X132900000Y-110800000D03*
X134100000Y-107500000D03*
X135600000Y-111000000D03*
X123200000Y-96400000D03*
X124500000Y-94800000D03*
X139600000Y-113900000D03*
X139304341Y-116303725D03*
X127600000Y-117400000D03*
D14*
X134300000Y-78400000D03*
X134300000Y-75900000D03*
X131100000Y-75900000D03*
X131100000Y-78400000D03*
D15*
%TO.N,Net-(C2-Pad1)*%
X131500000Y-105850000D03*
X131500000Y-99500000D03*
%TO.N,VDD*%
X141900000Y-101600000D03*
X126500000Y-70500000D03*
X123900000Y-70500000D03*
X127500000Y-89000000D03*
X130100000Y-93400000D03*
X141000000Y-94281998D03*
X136961108Y-105238892D03*
%TO.N,+BATT*%
X128400000Y-105000000D03*
X128900000Y-111600000D03*
X127400000Y-100100000D03*
%TO.N,RESET*%
X141700000Y-88000000D03*
X140600000Y-86400000D03*
X141800000Y-98600000D03*
%TO.N,VBUS*%
X130500000Y-112200000D03*
X125400000Y-112200000D03*
%TO.N,IO21*%
X140900000Y-75600000D03*
%TO.N,IO17*%
X141350000Y-82000000D03*
X144200000Y-99213680D03*
X141000000Y-103500000D03*
%TO.N,IO16*%
X141350000Y-83200000D03*
X143450000Y-100000000D03*
X141000000Y-102300000D03*
%TO.N,DTR*%
X140472295Y-90383365D03*
X137800000Y-90400000D03*
%TO.N,RTS*%
X141830331Y-97569669D03*
X139900000Y-105300000D03*
%TO.N,CH340GND*%
X135300000Y-90600000D03*
X135800000Y-95500000D03*
%TO.N,TXD0*%
X137100000Y-98000000D03*
X135800000Y-83500000D03*
X138462170Y-77937830D03*
X138500000Y-75800000D03*
%TO.N,RXD0*%
X139252831Y-70347169D03*
X139292169Y-72507831D03*
X135900000Y-97900000D03*
X135092892Y-82792892D03*
X137500000Y-77200000D03*
%TO.N,I35*%
X123200000Y-97400000D03*
X125597887Y-96569036D03*
X128099989Y-91300000D03*
X130500000Y-89324999D03*
X130400000Y-81900000D03*
X143800000Y-78200000D03*
X136600000Y-79100000D03*
%TO.N,I36*%
X138300000Y-68200000D03*
X133000000Y-72535000D03*
%TO.N,I39*%
X143900000Y-68950000D03*
X133912170Y-73387830D03*
%TO.N,I34*%
X143900000Y-70300000D03*
X129599998Y-74537829D03*
%TO.N,IO32*%
X123007168Y-82892832D03*
X128000000Y-82900000D03*
%TO.N,IO33*%
X123000000Y-83900000D03*
X127200000Y-83900000D03*
%TO.N,IO14*%
X126800000Y-86400000D03*
X140800000Y-106300000D03*
%TO.N,IO12*%
X126700000Y-87500000D03*
X141500000Y-107500000D03*
%TO.N,IO13*%
X124900000Y-87000000D03*
X129200000Y-85200000D03*
%TO.N,IO15*%
X138100000Y-85400000D03*
X143800002Y-81536331D03*
%TO.N,IO4*%
X141350000Y-84500000D03*
%TO.N,IO5*%
X123300000Y-87590000D03*
X129100000Y-82000000D03*
X139700000Y-80700000D03*
X143400000Y-80600000D03*
%TO.N,IO18*%
X143558955Y-79501707D03*
%TO.N,IO19*%
X140900000Y-78100000D03*
%TO.N,IO22*%
X143800000Y-71800000D03*
%TO.N,IO23*%
X140405375Y-71050000D03*
%TD*%
D16*
%TO.N,Net-(C2-Pad1)*%
X131500000Y-99500000D02*
X131500000Y-105850000D01*
D17*
%TO.N,+BATT*%
X128000001Y-110700001D02*
X128900000Y-111600000D01*
X128000001Y-105399999D02*
X128000001Y-110700001D01*
X128400000Y-105000000D02*
X128000001Y-105399999D01*
X125420000Y-102080000D02*
X127400000Y-100100000D01*
X121000000Y-102080000D02*
X125420000Y-102080000D01*
X127400000Y-104000000D02*
X128400000Y-105000000D01*
X127400000Y-100100000D02*
X127400000Y-104000000D01*
D18*
%TO.N,RESET*%
X141700000Y-87500000D02*
X140600000Y-86400000D01*
X141700000Y-88000000D02*
X141700000Y-87500000D01*
X145199999Y-109489997D02*
X145199999Y-111039999D01*
X140249999Y-104539997D02*
X145199999Y-109489997D01*
X145199999Y-111039999D02*
X146400000Y-112240000D01*
X140249999Y-100150001D02*
X140249999Y-104539997D01*
X141800000Y-98600000D02*
X140249999Y-100150001D01*
D17*
%TO.N,VBUS*%
X125799999Y-112599999D02*
X125400000Y-112200000D01*
X130100001Y-112599999D02*
X125799999Y-112599999D01*
X130500000Y-112200000D02*
X130100001Y-112599999D01*
D18*
%TO.N,IO17*%
X144200000Y-84850000D02*
X144200000Y-99213680D01*
X141350000Y-82000000D02*
X144200000Y-84850000D01*
X146400000Y-108900000D02*
X146400000Y-109700000D01*
X141000000Y-103500000D02*
X146400000Y-108900000D01*
%TO.N,IO16*%
X143450000Y-85300000D02*
X143450000Y-100000000D01*
X141350000Y-83200000D02*
X143450000Y-85300000D01*
X145860000Y-107160000D02*
X146400000Y-107160000D01*
X141000000Y-102300000D02*
X145860000Y-107160000D01*
%TO.N,DTR*%
X137816635Y-90383365D02*
X137800000Y-90400000D01*
X140472295Y-90383365D02*
X137816635Y-90383365D01*
%TO.N,RTS*%
X141264646Y-97569669D02*
X141830331Y-97569669D01*
X141049999Y-97784316D02*
X141264646Y-97569669D01*
X141049999Y-98642881D02*
X141049999Y-97784316D01*
X139746440Y-105146440D02*
X139746440Y-99946440D01*
X139746440Y-99946440D02*
X141049999Y-98642881D01*
X139900000Y-105300000D02*
X139746440Y-105146440D01*
%TO.N,CH340GND*%
X135300000Y-95000000D02*
X135800000Y-95500000D01*
X135300000Y-90600000D02*
X135300000Y-95000000D01*
%TO.N,TXD0*%
X134549999Y-95449999D02*
X134549999Y-84750001D01*
X134549999Y-84750001D02*
X135800000Y-83500000D01*
X137100000Y-98000000D02*
X134549999Y-95449999D01*
X138462170Y-75837830D02*
X138500000Y-75800000D01*
X138462170Y-77937830D02*
X138462170Y-75837830D01*
%TO.N,RXD0*%
X139252831Y-72468493D02*
X139292169Y-72507831D01*
X139252831Y-70347169D02*
X139252831Y-72468493D01*
X134049989Y-83835795D02*
X135092892Y-82792892D01*
X134049989Y-96049989D02*
X134049989Y-83835795D01*
X135900000Y-97900000D02*
X134049989Y-96049989D01*
X137500000Y-74300000D02*
X139292169Y-72507831D01*
X137500000Y-77200000D02*
X137500000Y-74300000D01*
%TO.N,I35*%
X126197887Y-93202102D02*
X128099989Y-91300000D01*
X130500000Y-82000000D02*
X130400000Y-81900000D01*
X130500000Y-89324999D02*
X130500000Y-82000000D01*
X142900000Y-79100000D02*
X136600000Y-79100000D01*
X143800000Y-78200000D02*
X142900000Y-79100000D01*
X126197887Y-95969036D02*
X125597887Y-96569036D01*
X126197887Y-95897887D02*
X126197887Y-95969036D01*
X126197887Y-95897887D02*
X126197887Y-93202102D01*
%TO.N,I36*%
X137335000Y-68200000D02*
X133000000Y-72535000D01*
X138300000Y-68200000D02*
X137335000Y-68200000D01*
%TO.N,I39*%
X138350000Y-68950000D02*
X133912170Y-73387830D01*
X143499999Y-68549999D02*
X140550000Y-68549999D01*
X140550000Y-68549999D02*
X140149999Y-68950000D01*
X140149999Y-68950000D02*
X138350000Y-68950000D01*
X143900000Y-68950000D02*
X143499999Y-68549999D01*
%TO.N,I34*%
X138812834Y-69597168D02*
X133872173Y-74537829D01*
X133872173Y-74537829D02*
X129599998Y-74537829D01*
X140315664Y-70300000D02*
X139612832Y-69597168D01*
X139612832Y-69597168D02*
X138812834Y-69597168D01*
X143900000Y-70300000D02*
X140315664Y-70300000D01*
%TO.N,IO32*%
X127992832Y-82892832D02*
X128000000Y-82900000D01*
X123007168Y-82892832D02*
X127992832Y-82892832D01*
%TO.N,IO33*%
X123000000Y-83900000D02*
X127200000Y-83900000D01*
%TO.N,IO14*%
X139789998Y-106300000D02*
X129349999Y-95860001D01*
X129349999Y-88949999D02*
X126800000Y-86400000D01*
X129349999Y-95860001D02*
X129349999Y-88949999D01*
X140800000Y-106300000D02*
X139789998Y-106300000D01*
%TO.N,IO12*%
X127110002Y-87500000D02*
X126700000Y-87500000D01*
X128849989Y-89239987D02*
X127110002Y-87500000D01*
X130749999Y-99149999D02*
X128849989Y-97249989D01*
X130749999Y-106210001D02*
X130749999Y-99149999D01*
X131139999Y-106600001D02*
X130749999Y-106210001D01*
X134510003Y-106600001D02*
X131139999Y-106600001D01*
X128849989Y-97249989D02*
X128849989Y-89239987D01*
X135410002Y-107500000D02*
X134510003Y-106600001D01*
X141500000Y-107500000D02*
X135410002Y-107500000D01*
%TO.N,IO13*%
X128649999Y-84649999D02*
X129200000Y-85200000D01*
X127250001Y-84649999D02*
X128649999Y-84649999D01*
X124900000Y-87000000D02*
X127250001Y-84649999D01*
%TO.N,IO15*%
X141996333Y-81536331D02*
X143800002Y-81536331D01*
X140989999Y-81249999D02*
X141710001Y-81249999D01*
X138100000Y-84139998D02*
X140989999Y-81249999D01*
X141710001Y-81249999D02*
X141996333Y-81536331D01*
X138100000Y-85400000D02*
X138100000Y-84139998D01*
%TO.N,IO4*%
X139849999Y-86000001D02*
X139849999Y-88651067D01*
X139849999Y-88651067D02*
X142700000Y-91501068D01*
X141350000Y-84500000D02*
X139849999Y-86000001D01*
X145620000Y-104620000D02*
X146400000Y-104620000D01*
X142700000Y-101700000D02*
X145620000Y-104620000D01*
X142700000Y-91501068D02*
X142700000Y-101700000D01*
%TO.N,IO5*%
X122789998Y-82000000D02*
X129100000Y-82000000D01*
X122249999Y-82539999D02*
X122789998Y-82000000D01*
X122249999Y-86539999D02*
X122249999Y-82539999D01*
X123300000Y-87590000D02*
X122249999Y-86539999D01*
X143300000Y-80700000D02*
X143400000Y-80600000D01*
X139700000Y-80700000D02*
X143300000Y-80700000D01*
%TO.N,IO22*%
X144700010Y-95300010D02*
X144700010Y-72700010D01*
X146400000Y-97000000D02*
X144700010Y-95300010D01*
X144700010Y-72700010D02*
X143800000Y-71800000D01*
%TD*%
D19*
%TO.N,GND*%
X122265000Y-87665157D02*
X122265000Y-87691939D01*
X122304774Y-87891898D01*
X122382795Y-88080256D01*
X122496063Y-88249774D01*
X122640226Y-88393937D01*
X122809744Y-88507205D01*
X122998102Y-88585226D01*
X123198061Y-88625000D01*
X123401939Y-88625000D01*
X123601898Y-88585226D01*
X123790256Y-88507205D01*
X123959774Y-88393937D01*
X124103937Y-88249774D01*
X124217205Y-88080256D01*
X124295226Y-87891898D01*
X124304217Y-87846695D01*
X124409744Y-87917205D01*
X124598102Y-87995226D01*
X124798061Y-88035000D01*
X125001939Y-88035000D01*
X125201898Y-87995226D01*
X125390256Y-87917205D01*
X125559774Y-87803937D01*
X125681055Y-87682656D01*
X125704774Y-87801898D01*
X125782795Y-87990256D01*
X125896063Y-88159774D01*
X126040226Y-88303937D01*
X126209744Y-88417205D01*
X126398102Y-88495226D01*
X126574292Y-88530272D01*
X126504774Y-88698102D01*
X126465000Y-88898061D01*
X126465000Y-89101939D01*
X126504774Y-89301898D01*
X126582795Y-89490256D01*
X126696063Y-89659774D01*
X126840226Y-89803937D01*
X127009744Y-89917205D01*
X127198102Y-89995226D01*
X127398061Y-90035000D01*
X127601939Y-90035000D01*
X127801898Y-89995226D01*
X127990256Y-89917205D01*
X128064990Y-89867270D01*
X128064990Y-90265000D01*
X127998050Y-90265000D01*
X127798091Y-90304774D01*
X127609733Y-90382795D01*
X127440215Y-90496063D01*
X127296052Y-90640226D01*
X127182784Y-90809744D01*
X127104763Y-90998102D01*
X127064989Y-91198061D01*
X127064989Y-91224842D01*
X125670072Y-92619760D01*
X125640124Y-92644338D01*
X125615546Y-92674286D01*
X125615542Y-92674290D01*
X125582577Y-92714458D01*
X125542026Y-92763869D01*
X125503064Y-92836762D01*
X125469133Y-92900243D01*
X125424246Y-93048216D01*
X125409090Y-93202102D01*
X125412888Y-93240665D01*
X125412887Y-95550558D01*
X125295989Y-95573810D01*
X125107631Y-95651831D01*
X124938113Y-95765099D01*
X124793950Y-95909262D01*
X124680682Y-96078780D01*
X124602661Y-96267138D01*
X124562887Y-96467097D01*
X124562887Y-96670975D01*
X124602661Y-96870934D01*
X124680682Y-97059292D01*
X124793950Y-97228810D01*
X124938113Y-97372973D01*
X125107631Y-97486241D01*
X125295989Y-97564262D01*
X125495948Y-97604036D01*
X125699826Y-97604036D01*
X125899785Y-97564262D01*
X126088143Y-97486241D01*
X126257661Y-97372973D01*
X126401824Y-97228810D01*
X126515092Y-97059292D01*
X126593113Y-96870934D01*
X126632887Y-96670975D01*
X126632887Y-96644194D01*
X126725702Y-96551379D01*
X126755651Y-96526800D01*
X126780228Y-96496853D01*
X126780232Y-96496849D01*
X126853748Y-96407269D01*
X126864148Y-96387813D01*
X126891778Y-96336120D01*
X126926641Y-96270896D01*
X126971528Y-96122924D01*
X126976381Y-96073651D01*
X126982887Y-96007596D01*
X126982887Y-96007590D01*
X126986684Y-95969037D01*
X126982887Y-95930484D01*
X126982887Y-93527259D01*
X128064990Y-92445157D01*
X128064989Y-97211436D01*
X128061192Y-97249989D01*
X128064989Y-97288542D01*
X128064989Y-97288549D01*
X128076348Y-97403875D01*
X128121235Y-97551848D01*
X128194127Y-97688221D01*
X128292225Y-97807753D01*
X128322179Y-97832336D01*
X129965000Y-99475158D01*
X129964999Y-106171448D01*
X129961202Y-106210001D01*
X129964999Y-106248554D01*
X129964999Y-106248561D01*
X129976358Y-106363887D01*
X130021245Y-106511860D01*
X130094137Y-106648233D01*
X130192235Y-106767765D01*
X130222189Y-106792348D01*
X130557652Y-107127811D01*
X130582235Y-107157765D01*
X130701766Y-107255863D01*
X130838139Y-107328755D01*
X130951671Y-107363195D01*
X130986111Y-107373642D01*
X131000489Y-107375058D01*
X131101438Y-107385001D01*
X131101445Y-107385001D01*
X131139998Y-107388798D01*
X131178551Y-107385001D01*
X134184846Y-107385001D01*
X134827655Y-108027810D01*
X134852238Y-108057764D01*
X134971769Y-108155862D01*
X135082410Y-108215000D01*
X135108142Y-108228754D01*
X135256115Y-108273642D01*
X135331028Y-108281020D01*
X135371441Y-108285000D01*
X135371446Y-108285000D01*
X135410002Y-108288797D01*
X135448558Y-108285000D01*
X140821289Y-108285000D01*
X140840226Y-108303937D01*
X141009744Y-108417205D01*
X141198102Y-108495226D01*
X141398061Y-108535000D01*
X141601939Y-108535000D01*
X141801898Y-108495226D01*
X141990256Y-108417205D01*
X142159774Y-108303937D01*
X142303937Y-108159774D01*
X142417205Y-107990256D01*
X142467845Y-107868001D01*
X144414999Y-109815155D01*
X144415000Y-111001437D01*
X144411202Y-111039999D01*
X144426358Y-111193885D01*
X144471245Y-111341858D01*
X144491151Y-111379100D01*
X144544138Y-111478232D01*
X144584689Y-111527643D01*
X144617654Y-111567811D01*
X144617658Y-111567815D01*
X144642236Y-111597763D01*
X144672184Y-111622341D01*
X144952925Y-111903082D01*
X144915000Y-112093740D01*
X144915000Y-112386260D01*
X144972068Y-112673158D01*
X145084010Y-112943411D01*
X145246525Y-113186632D01*
X145453368Y-113393475D01*
X145696589Y-113555990D01*
X145966842Y-113667932D01*
X146253740Y-113725000D01*
X146546260Y-113725000D01*
X146833158Y-113667932D01*
X147103411Y-113555990D01*
X147346632Y-113393475D01*
X147540000Y-113200107D01*
X147540000Y-116010856D01*
X147358363Y-115739017D01*
X147060983Y-115441637D01*
X146711302Y-115207988D01*
X146322756Y-115047047D01*
X145910279Y-114965000D01*
X145489721Y-114965000D01*
X145077244Y-115047047D01*
X144688698Y-115207988D01*
X144339017Y-115441637D01*
X144041637Y-115739017D01*
X143807988Y-116088698D01*
X143647047Y-116477244D01*
X143565000Y-116889721D01*
X143565000Y-117310279D01*
X143647047Y-117722756D01*
X143807988Y-118111302D01*
X144041637Y-118460983D01*
X144339017Y-118758363D01*
X144610856Y-118940000D01*
X142910156Y-118940000D01*
X142913000Y-118911122D01*
X142913000Y-117884877D01*
X142894407Y-117696096D01*
X142820929Y-117453873D01*
X142701608Y-117230638D01*
X142541028Y-117034972D01*
X142345361Y-116874392D01*
X142122126Y-116755071D01*
X141879903Y-116681593D01*
X141628000Y-116656783D01*
X141376096Y-116681593D01*
X141133873Y-116755071D01*
X140910638Y-116874392D01*
X140714972Y-117034972D01*
X140554392Y-117230639D01*
X140435071Y-117453874D01*
X140361593Y-117696097D01*
X140343000Y-117884878D01*
X140343000Y-118911123D01*
X140345844Y-118940000D01*
X135671156Y-118940000D01*
X135674000Y-118911122D01*
X135674000Y-117884877D01*
X135655407Y-117696096D01*
X135581929Y-117453873D01*
X135462608Y-117230638D01*
X135302028Y-117034972D01*
X135106361Y-116874392D01*
X134883126Y-116755071D01*
X134640903Y-116681593D01*
X134389000Y-116656783D01*
X134137096Y-116681593D01*
X133894873Y-116755071D01*
X133671638Y-116874392D01*
X133475972Y-117034972D01*
X133315392Y-117230639D01*
X133196071Y-117453874D01*
X133122593Y-117696097D01*
X133104000Y-117884878D01*
X133104000Y-118911123D01*
X133106844Y-118940000D01*
X122789144Y-118940000D01*
X123060983Y-118758363D01*
X123358363Y-118460983D01*
X123592012Y-118111302D01*
X123752953Y-117722756D01*
X123835000Y-117310279D01*
X123835000Y-116889721D01*
X123752953Y-116477244D01*
X123592012Y-116088698D01*
X123358363Y-115739017D01*
X123195709Y-115576363D01*
X134349000Y-115576363D01*
X134349000Y-115819637D01*
X134396460Y-116058236D01*
X134489557Y-116282992D01*
X134624713Y-116485267D01*
X134796733Y-116657287D01*
X134999008Y-116792443D01*
X135223764Y-116885540D01*
X135462363Y-116933000D01*
X135705637Y-116933000D01*
X135944236Y-116885540D01*
X136168992Y-116792443D01*
X136371267Y-116657287D01*
X136543287Y-116485267D01*
X136678443Y-116282992D01*
X136771540Y-116058236D01*
X136819000Y-115819637D01*
X136819000Y-115576363D01*
X139199000Y-115576363D01*
X139199000Y-115819637D01*
X139246460Y-116058236D01*
X139339557Y-116282992D01*
X139474713Y-116485267D01*
X139646733Y-116657287D01*
X139849008Y-116792443D01*
X140073764Y-116885540D01*
X140312363Y-116933000D01*
X140555637Y-116933000D01*
X140794236Y-116885540D01*
X141018992Y-116792443D01*
X141221267Y-116657287D01*
X141393287Y-116485267D01*
X141528443Y-116282992D01*
X141621540Y-116058236D01*
X141669000Y-115819637D01*
X141669000Y-115576363D01*
X141621540Y-115337764D01*
X141528443Y-115113008D01*
X141393287Y-114910733D01*
X141221267Y-114738713D01*
X141018992Y-114603557D01*
X140794236Y-114510460D01*
X140555637Y-114463000D01*
X140312363Y-114463000D01*
X140073764Y-114510460D01*
X139849008Y-114603557D01*
X139646733Y-114738713D01*
X139474713Y-114910733D01*
X139339557Y-115113008D01*
X139246460Y-115337764D01*
X139199000Y-115576363D01*
X136819000Y-115576363D01*
X136771540Y-115337764D01*
X136678443Y-115113008D01*
X136543287Y-114910733D01*
X136371267Y-114738713D01*
X136168992Y-114603557D01*
X135944236Y-114510460D01*
X135705637Y-114463000D01*
X135462363Y-114463000D01*
X135223764Y-114510460D01*
X134999008Y-114603557D01*
X134796733Y-114738713D01*
X134624713Y-114910733D01*
X134489557Y-115113008D01*
X134396460Y-115337764D01*
X134349000Y-115576363D01*
X123195709Y-115576363D01*
X123060983Y-115441637D01*
X122711302Y-115207988D01*
X122322756Y-115047047D01*
X121910279Y-114965000D01*
X121489721Y-114965000D01*
X121077244Y-115047047D01*
X120688698Y-115207988D01*
X120339017Y-115441637D01*
X120041637Y-115739017D01*
X119860000Y-116010856D01*
X119860000Y-113200107D01*
X120053368Y-113393475D01*
X120296589Y-113555990D01*
X120566842Y-113667932D01*
X120853740Y-113725000D01*
X121146260Y-113725000D01*
X121433158Y-113667932D01*
X121703411Y-113555990D01*
X121946632Y-113393475D01*
X122153475Y-113186632D01*
X122315990Y-112943411D01*
X122427932Y-112673158D01*
X122485000Y-112386260D01*
X122485000Y-112093740D01*
X122427932Y-111806842D01*
X122315990Y-111536589D01*
X122153475Y-111293368D01*
X121946632Y-111086525D01*
X121772240Y-110970000D01*
X121946632Y-110853475D01*
X122153475Y-110646632D01*
X122315990Y-110403411D01*
X122427932Y-110133158D01*
X122485000Y-109846260D01*
X122485000Y-109553740D01*
X122427932Y-109266842D01*
X122315990Y-108996589D01*
X122153475Y-108753368D01*
X121946632Y-108546525D01*
X121772240Y-108430000D01*
X121946632Y-108313475D01*
X122153475Y-108106632D01*
X122315990Y-107863411D01*
X122427932Y-107593158D01*
X122485000Y-107306260D01*
X122485000Y-107013740D01*
X122427932Y-106726842D01*
X122315990Y-106456589D01*
X122153475Y-106213368D01*
X121946632Y-106006525D01*
X121764466Y-105884805D01*
X121881355Y-105815178D01*
X122097588Y-105620269D01*
X122271641Y-105386920D01*
X122396825Y-105124099D01*
X122441476Y-104976890D01*
X122320155Y-104747000D01*
X121127000Y-104747000D01*
X121127000Y-104767000D01*
X120873000Y-104767000D01*
X120873000Y-104747000D01*
X120853000Y-104747000D01*
X120853000Y-104493000D01*
X120873000Y-104493000D01*
X120873000Y-104473000D01*
X121127000Y-104473000D01*
X121127000Y-104493000D01*
X122320155Y-104493000D01*
X122441476Y-104263110D01*
X122396825Y-104115901D01*
X122271641Y-103853080D01*
X122097588Y-103619731D01*
X121881355Y-103424822D01*
X121764466Y-103355195D01*
X121946632Y-103233475D01*
X122090107Y-103090000D01*
X125370392Y-103090000D01*
X125420000Y-103094886D01*
X125617994Y-103075385D01*
X125662883Y-103061768D01*
X125808380Y-103017632D01*
X125983840Y-102923847D01*
X126137633Y-102797633D01*
X126169261Y-102759094D01*
X126390001Y-102538355D01*
X126390001Y-103950382D01*
X126385114Y-104000000D01*
X126404615Y-104197994D01*
X126462368Y-104388379D01*
X126527239Y-104509744D01*
X126556154Y-104563840D01*
X126682368Y-104717633D01*
X126720901Y-104749256D01*
X127043958Y-105072313D01*
X127004616Y-105202005D01*
X126985115Y-105399999D01*
X126990001Y-105449607D01*
X126990002Y-110650383D01*
X126985115Y-110700001D01*
X127004616Y-110897995D01*
X127062369Y-111088380D01*
X127156155Y-111263841D01*
X127220182Y-111341858D01*
X127282369Y-111417634D01*
X127320902Y-111449257D01*
X127461644Y-111589999D01*
X126237194Y-111589999D01*
X126203937Y-111540226D01*
X126059774Y-111396063D01*
X125890256Y-111282795D01*
X125701898Y-111204774D01*
X125501939Y-111165000D01*
X125298061Y-111165000D01*
X125098102Y-111204774D01*
X124909744Y-111282795D01*
X124740226Y-111396063D01*
X124596063Y-111540226D01*
X124482795Y-111709744D01*
X124404774Y-111898102D01*
X124365000Y-112098061D01*
X124365000Y-112301939D01*
X124404774Y-112501898D01*
X124482795Y-112690256D01*
X124596063Y-112859774D01*
X124740226Y-113003937D01*
X124846778Y-113075133D01*
X125050734Y-113279088D01*
X125082366Y-113317632D01*
X125236159Y-113443846D01*
X125411619Y-113537631D01*
X125602004Y-113595384D01*
X125799998Y-113614885D01*
X125849606Y-113609999D01*
X130050393Y-113609999D01*
X130100001Y-113614885D01*
X130297995Y-113595384D01*
X130488381Y-113537631D01*
X130663841Y-113443846D01*
X130817634Y-113317632D01*
X130849263Y-113279092D01*
X131053222Y-113075133D01*
X131159774Y-113003937D01*
X131303937Y-112859774D01*
X131417205Y-112690256D01*
X131495226Y-112501898D01*
X131535000Y-112301939D01*
X131535000Y-112098061D01*
X131495226Y-111898102D01*
X131417205Y-111709744D01*
X131303937Y-111540226D01*
X131159774Y-111396063D01*
X130990256Y-111282795D01*
X130801898Y-111204774D01*
X130601939Y-111165000D01*
X130398061Y-111165000D01*
X130198102Y-111204774D01*
X130009744Y-111282795D01*
X129905973Y-111352132D01*
X129895226Y-111298102D01*
X129817205Y-111109744D01*
X129703937Y-110940226D01*
X129559774Y-110796063D01*
X129453226Y-110724870D01*
X129010001Y-110281646D01*
X129010001Y-105837194D01*
X129059774Y-105803937D01*
X129203937Y-105659774D01*
X129317205Y-105490256D01*
X129395226Y-105301898D01*
X129435000Y-105101939D01*
X129435000Y-104898061D01*
X129395226Y-104698102D01*
X129317205Y-104509744D01*
X129203937Y-104340226D01*
X129059774Y-104196063D01*
X128953226Y-104124870D01*
X128410000Y-103581645D01*
X128410000Y-100327623D01*
X128435000Y-100201939D01*
X128435000Y-99998061D01*
X128395226Y-99798102D01*
X128317205Y-99609744D01*
X128203937Y-99440226D01*
X128059774Y-99296063D01*
X127890256Y-99182795D01*
X127701898Y-99104774D01*
X127501939Y-99065000D01*
X127298061Y-99065000D01*
X127098102Y-99104774D01*
X126909744Y-99182795D01*
X126740226Y-99296063D01*
X126596063Y-99440226D01*
X126524870Y-99546774D01*
X125001645Y-101070000D01*
X122090107Y-101070000D01*
X121946632Y-100926525D01*
X121772240Y-100810000D01*
X121946632Y-100693475D01*
X122153475Y-100486632D01*
X122315990Y-100243411D01*
X122427932Y-99973158D01*
X122485000Y-99686260D01*
X122485000Y-99393740D01*
X122427932Y-99106842D01*
X122315990Y-98836589D01*
X122153475Y-98593368D01*
X121946632Y-98386525D01*
X121772240Y-98270000D01*
X121946632Y-98153475D01*
X122153475Y-97946632D01*
X122247722Y-97805582D01*
X122282795Y-97890256D01*
X122396063Y-98059774D01*
X122540226Y-98203937D01*
X122709744Y-98317205D01*
X122898102Y-98395226D01*
X123098061Y-98435000D01*
X123301939Y-98435000D01*
X123501898Y-98395226D01*
X123690256Y-98317205D01*
X123859774Y-98203937D01*
X124003937Y-98059774D01*
X124117205Y-97890256D01*
X124195226Y-97701898D01*
X124235000Y-97501939D01*
X124235000Y-97298061D01*
X124195226Y-97098102D01*
X124117205Y-96909744D01*
X124003937Y-96740226D01*
X123859774Y-96596063D01*
X123690256Y-96482795D01*
X123501898Y-96404774D01*
X123301939Y-96365000D01*
X123098061Y-96365000D01*
X122898102Y-96404774D01*
X122709744Y-96482795D01*
X122540226Y-96596063D01*
X122451411Y-96684878D01*
X122427932Y-96566842D01*
X122315990Y-96296589D01*
X122153475Y-96053368D01*
X121946632Y-95846525D01*
X121772240Y-95730000D01*
X121946632Y-95613475D01*
X122153475Y-95406632D01*
X122315990Y-95163411D01*
X122427932Y-94893158D01*
X122485000Y-94606260D01*
X122485000Y-94313740D01*
X122427932Y-94026842D01*
X122315990Y-93756589D01*
X122153475Y-93513368D01*
X121946632Y-93306525D01*
X121772240Y-93190000D01*
X121946632Y-93073475D01*
X122153475Y-92866632D01*
X122315990Y-92623411D01*
X122427932Y-92353158D01*
X122485000Y-92066260D01*
X122485000Y-91773740D01*
X122427932Y-91486842D01*
X122315990Y-91216589D01*
X122153475Y-90973368D01*
X121946632Y-90766525D01*
X121772240Y-90650000D01*
X121946632Y-90533475D01*
X122153475Y-90326632D01*
X122315990Y-90083411D01*
X122427932Y-89813158D01*
X122485000Y-89526260D01*
X122485000Y-89233740D01*
X122427932Y-88946842D01*
X122315990Y-88676589D01*
X122153475Y-88433368D01*
X121946632Y-88226525D01*
X121772240Y-88110000D01*
X121946632Y-87993475D01*
X122153475Y-87786632D01*
X122246802Y-87646959D01*
X122265000Y-87665157D01*
%TA.AperFunction,Conductor*%
D20*
G36*
X122265000Y-87665157D02*
G01*
X122265000Y-87691939D01*
X122304774Y-87891898D01*
X122382795Y-88080256D01*
X122496063Y-88249774D01*
X122640226Y-88393937D01*
X122809744Y-88507205D01*
X122998102Y-88585226D01*
X123198061Y-88625000D01*
X123401939Y-88625000D01*
X123601898Y-88585226D01*
X123790256Y-88507205D01*
X123959774Y-88393937D01*
X124103937Y-88249774D01*
X124217205Y-88080256D01*
X124295226Y-87891898D01*
X124304217Y-87846695D01*
X124409744Y-87917205D01*
X124598102Y-87995226D01*
X124798061Y-88035000D01*
X125001939Y-88035000D01*
X125201898Y-87995226D01*
X125390256Y-87917205D01*
X125559774Y-87803937D01*
X125681055Y-87682656D01*
X125704774Y-87801898D01*
X125782795Y-87990256D01*
X125896063Y-88159774D01*
X126040226Y-88303937D01*
X126209744Y-88417205D01*
X126398102Y-88495226D01*
X126574292Y-88530272D01*
X126504774Y-88698102D01*
X126465000Y-88898061D01*
X126465000Y-89101939D01*
X126504774Y-89301898D01*
X126582795Y-89490256D01*
X126696063Y-89659774D01*
X126840226Y-89803937D01*
X127009744Y-89917205D01*
X127198102Y-89995226D01*
X127398061Y-90035000D01*
X127601939Y-90035000D01*
X127801898Y-89995226D01*
X127990256Y-89917205D01*
X128064990Y-89867270D01*
X128064990Y-90265000D01*
X127998050Y-90265000D01*
X127798091Y-90304774D01*
X127609733Y-90382795D01*
X127440215Y-90496063D01*
X127296052Y-90640226D01*
X127182784Y-90809744D01*
X127104763Y-90998102D01*
X127064989Y-91198061D01*
X127064989Y-91224842D01*
X125670072Y-92619760D01*
X125640124Y-92644338D01*
X125615546Y-92674286D01*
X125615542Y-92674290D01*
X125582577Y-92714458D01*
X125542026Y-92763869D01*
X125503064Y-92836762D01*
X125469133Y-92900243D01*
X125424246Y-93048216D01*
X125409090Y-93202102D01*
X125412888Y-93240665D01*
X125412887Y-95550558D01*
X125295989Y-95573810D01*
X125107631Y-95651831D01*
X124938113Y-95765099D01*
X124793950Y-95909262D01*
X124680682Y-96078780D01*
X124602661Y-96267138D01*
X124562887Y-96467097D01*
X124562887Y-96670975D01*
X124602661Y-96870934D01*
X124680682Y-97059292D01*
X124793950Y-97228810D01*
X124938113Y-97372973D01*
X125107631Y-97486241D01*
X125295989Y-97564262D01*
X125495948Y-97604036D01*
X125699826Y-97604036D01*
X125899785Y-97564262D01*
X126088143Y-97486241D01*
X126257661Y-97372973D01*
X126401824Y-97228810D01*
X126515092Y-97059292D01*
X126593113Y-96870934D01*
X126632887Y-96670975D01*
X126632887Y-96644194D01*
X126725702Y-96551379D01*
X126755651Y-96526800D01*
X126780228Y-96496853D01*
X126780232Y-96496849D01*
X126853748Y-96407269D01*
X126864148Y-96387813D01*
X126891778Y-96336120D01*
X126926641Y-96270896D01*
X126971528Y-96122924D01*
X126976381Y-96073651D01*
X126982887Y-96007596D01*
X126982887Y-96007590D01*
X126986684Y-95969037D01*
X126982887Y-95930484D01*
X126982887Y-93527259D01*
X128064990Y-92445157D01*
X128064989Y-97211436D01*
X128061192Y-97249989D01*
X128064989Y-97288542D01*
X128064989Y-97288549D01*
X128076348Y-97403875D01*
X128121235Y-97551848D01*
X128194127Y-97688221D01*
X128292225Y-97807753D01*
X128322179Y-97832336D01*
X129965000Y-99475158D01*
X129964999Y-106171448D01*
X129961202Y-106210001D01*
X129964999Y-106248554D01*
X129964999Y-106248561D01*
X129976358Y-106363887D01*
X130021245Y-106511860D01*
X130094137Y-106648233D01*
X130192235Y-106767765D01*
X130222189Y-106792348D01*
X130557652Y-107127811D01*
X130582235Y-107157765D01*
X130701766Y-107255863D01*
X130838139Y-107328755D01*
X130951671Y-107363195D01*
X130986111Y-107373642D01*
X131000489Y-107375058D01*
X131101438Y-107385001D01*
X131101445Y-107385001D01*
X131139998Y-107388798D01*
X131178551Y-107385001D01*
X134184846Y-107385001D01*
X134827655Y-108027810D01*
X134852238Y-108057764D01*
X134971769Y-108155862D01*
X135082410Y-108215000D01*
X135108142Y-108228754D01*
X135256115Y-108273642D01*
X135331028Y-108281020D01*
X135371441Y-108285000D01*
X135371446Y-108285000D01*
X135410002Y-108288797D01*
X135448558Y-108285000D01*
X140821289Y-108285000D01*
X140840226Y-108303937D01*
X141009744Y-108417205D01*
X141198102Y-108495226D01*
X141398061Y-108535000D01*
X141601939Y-108535000D01*
X141801898Y-108495226D01*
X141990256Y-108417205D01*
X142159774Y-108303937D01*
X142303937Y-108159774D01*
X142417205Y-107990256D01*
X142467845Y-107868001D01*
X144414999Y-109815155D01*
X144415000Y-111001437D01*
X144411202Y-111039999D01*
X144426358Y-111193885D01*
X144471245Y-111341858D01*
X144491151Y-111379100D01*
X144544138Y-111478232D01*
X144584689Y-111527643D01*
X144617654Y-111567811D01*
X144617658Y-111567815D01*
X144642236Y-111597763D01*
X144672184Y-111622341D01*
X144952925Y-111903082D01*
X144915000Y-112093740D01*
X144915000Y-112386260D01*
X144972068Y-112673158D01*
X145084010Y-112943411D01*
X145246525Y-113186632D01*
X145453368Y-113393475D01*
X145696589Y-113555990D01*
X145966842Y-113667932D01*
X146253740Y-113725000D01*
X146546260Y-113725000D01*
X146833158Y-113667932D01*
X147103411Y-113555990D01*
X147346632Y-113393475D01*
X147540000Y-113200107D01*
X147540000Y-116010856D01*
X147358363Y-115739017D01*
X147060983Y-115441637D01*
X146711302Y-115207988D01*
X146322756Y-115047047D01*
X145910279Y-114965000D01*
X145489721Y-114965000D01*
X145077244Y-115047047D01*
X144688698Y-115207988D01*
X144339017Y-115441637D01*
X144041637Y-115739017D01*
X143807988Y-116088698D01*
X143647047Y-116477244D01*
X143565000Y-116889721D01*
X143565000Y-117310279D01*
X143647047Y-117722756D01*
X143807988Y-118111302D01*
X144041637Y-118460983D01*
X144339017Y-118758363D01*
X144610856Y-118940000D01*
X142910156Y-118940000D01*
X142913000Y-118911122D01*
X142913000Y-117884877D01*
X142894407Y-117696096D01*
X142820929Y-117453873D01*
X142701608Y-117230638D01*
X142541028Y-117034972D01*
X142345361Y-116874392D01*
X142122126Y-116755071D01*
X141879903Y-116681593D01*
X141628000Y-116656783D01*
X141376096Y-116681593D01*
X141133873Y-116755071D01*
X140910638Y-116874392D01*
X140714972Y-117034972D01*
X140554392Y-117230639D01*
X140435071Y-117453874D01*
X140361593Y-117696097D01*
X140343000Y-117884878D01*
X140343000Y-118911123D01*
X140345844Y-118940000D01*
X135671156Y-118940000D01*
X135674000Y-118911122D01*
X135674000Y-117884877D01*
X135655407Y-117696096D01*
X135581929Y-117453873D01*
X135462608Y-117230638D01*
X135302028Y-117034972D01*
X135106361Y-116874392D01*
X134883126Y-116755071D01*
X134640903Y-116681593D01*
X134389000Y-116656783D01*
X134137096Y-116681593D01*
X133894873Y-116755071D01*
X133671638Y-116874392D01*
X133475972Y-117034972D01*
X133315392Y-117230639D01*
X133196071Y-117453874D01*
X133122593Y-117696097D01*
X133104000Y-117884878D01*
X133104000Y-118911123D01*
X133106844Y-118940000D01*
X122789144Y-118940000D01*
X123060983Y-118758363D01*
X123358363Y-118460983D01*
X123592012Y-118111302D01*
X123752953Y-117722756D01*
X123835000Y-117310279D01*
X123835000Y-116889721D01*
X123752953Y-116477244D01*
X123592012Y-116088698D01*
X123358363Y-115739017D01*
X123195709Y-115576363D01*
X134349000Y-115576363D01*
X134349000Y-115819637D01*
X134396460Y-116058236D01*
X134489557Y-116282992D01*
X134624713Y-116485267D01*
X134796733Y-116657287D01*
X134999008Y-116792443D01*
X135223764Y-116885540D01*
X135462363Y-116933000D01*
X135705637Y-116933000D01*
X135944236Y-116885540D01*
X136168992Y-116792443D01*
X136371267Y-116657287D01*
X136543287Y-116485267D01*
X136678443Y-116282992D01*
X136771540Y-116058236D01*
X136819000Y-115819637D01*
X136819000Y-115576363D01*
X139199000Y-115576363D01*
X139199000Y-115819637D01*
X139246460Y-116058236D01*
X139339557Y-116282992D01*
X139474713Y-116485267D01*
X139646733Y-116657287D01*
X139849008Y-116792443D01*
X140073764Y-116885540D01*
X140312363Y-116933000D01*
X140555637Y-116933000D01*
X140794236Y-116885540D01*
X141018992Y-116792443D01*
X141221267Y-116657287D01*
X141393287Y-116485267D01*
X141528443Y-116282992D01*
X141621540Y-116058236D01*
X141669000Y-115819637D01*
X141669000Y-115576363D01*
X141621540Y-115337764D01*
X141528443Y-115113008D01*
X141393287Y-114910733D01*
X141221267Y-114738713D01*
X141018992Y-114603557D01*
X140794236Y-114510460D01*
X140555637Y-114463000D01*
X140312363Y-114463000D01*
X140073764Y-114510460D01*
X139849008Y-114603557D01*
X139646733Y-114738713D01*
X139474713Y-114910733D01*
X139339557Y-115113008D01*
X139246460Y-115337764D01*
X139199000Y-115576363D01*
X136819000Y-115576363D01*
X136771540Y-115337764D01*
X136678443Y-115113008D01*
X136543287Y-114910733D01*
X136371267Y-114738713D01*
X136168992Y-114603557D01*
X135944236Y-114510460D01*
X135705637Y-114463000D01*
X135462363Y-114463000D01*
X135223764Y-114510460D01*
X134999008Y-114603557D01*
X134796733Y-114738713D01*
X134624713Y-114910733D01*
X134489557Y-115113008D01*
X134396460Y-115337764D01*
X134349000Y-115576363D01*
X123195709Y-115576363D01*
X123060983Y-115441637D01*
X122711302Y-115207988D01*
X122322756Y-115047047D01*
X121910279Y-114965000D01*
X121489721Y-114965000D01*
X121077244Y-115047047D01*
X120688698Y-115207988D01*
X120339017Y-115441637D01*
X120041637Y-115739017D01*
X119860000Y-116010856D01*
X119860000Y-113200107D01*
X120053368Y-113393475D01*
X120296589Y-113555990D01*
X120566842Y-113667932D01*
X120853740Y-113725000D01*
X121146260Y-113725000D01*
X121433158Y-113667932D01*
X121703411Y-113555990D01*
X121946632Y-113393475D01*
X122153475Y-113186632D01*
X122315990Y-112943411D01*
X122427932Y-112673158D01*
X122485000Y-112386260D01*
X122485000Y-112093740D01*
X122427932Y-111806842D01*
X122315990Y-111536589D01*
X122153475Y-111293368D01*
X121946632Y-111086525D01*
X121772240Y-110970000D01*
X121946632Y-110853475D01*
X122153475Y-110646632D01*
X122315990Y-110403411D01*
X122427932Y-110133158D01*
X122485000Y-109846260D01*
X122485000Y-109553740D01*
X122427932Y-109266842D01*
X122315990Y-108996589D01*
X122153475Y-108753368D01*
X121946632Y-108546525D01*
X121772240Y-108430000D01*
X121946632Y-108313475D01*
X122153475Y-108106632D01*
X122315990Y-107863411D01*
X122427932Y-107593158D01*
X122485000Y-107306260D01*
X122485000Y-107013740D01*
X122427932Y-106726842D01*
X122315990Y-106456589D01*
X122153475Y-106213368D01*
X121946632Y-106006525D01*
X121764466Y-105884805D01*
X121881355Y-105815178D01*
X122097588Y-105620269D01*
X122271641Y-105386920D01*
X122396825Y-105124099D01*
X122441476Y-104976890D01*
X122320155Y-104747000D01*
X121127000Y-104747000D01*
X121127000Y-104767000D01*
X120873000Y-104767000D01*
X120873000Y-104747000D01*
X120853000Y-104747000D01*
X120853000Y-104493000D01*
X120873000Y-104493000D01*
X120873000Y-104473000D01*
X121127000Y-104473000D01*
X121127000Y-104493000D01*
X122320155Y-104493000D01*
X122441476Y-104263110D01*
X122396825Y-104115901D01*
X122271641Y-103853080D01*
X122097588Y-103619731D01*
X121881355Y-103424822D01*
X121764466Y-103355195D01*
X121946632Y-103233475D01*
X122090107Y-103090000D01*
X125370392Y-103090000D01*
X125420000Y-103094886D01*
X125617994Y-103075385D01*
X125662883Y-103061768D01*
X125808380Y-103017632D01*
X125983840Y-102923847D01*
X126137633Y-102797633D01*
X126169261Y-102759094D01*
X126390001Y-102538355D01*
X126390001Y-103950382D01*
X126385114Y-104000000D01*
X126404615Y-104197994D01*
X126462368Y-104388379D01*
X126527239Y-104509744D01*
X126556154Y-104563840D01*
X126682368Y-104717633D01*
X126720901Y-104749256D01*
X127043958Y-105072313D01*
X127004616Y-105202005D01*
X126985115Y-105399999D01*
X126990001Y-105449607D01*
X126990002Y-110650383D01*
X126985115Y-110700001D01*
X127004616Y-110897995D01*
X127062369Y-111088380D01*
X127156155Y-111263841D01*
X127220182Y-111341858D01*
X127282369Y-111417634D01*
X127320902Y-111449257D01*
X127461644Y-111589999D01*
X126237194Y-111589999D01*
X126203937Y-111540226D01*
X126059774Y-111396063D01*
X125890256Y-111282795D01*
X125701898Y-111204774D01*
X125501939Y-111165000D01*
X125298061Y-111165000D01*
X125098102Y-111204774D01*
X124909744Y-111282795D01*
X124740226Y-111396063D01*
X124596063Y-111540226D01*
X124482795Y-111709744D01*
X124404774Y-111898102D01*
X124365000Y-112098061D01*
X124365000Y-112301939D01*
X124404774Y-112501898D01*
X124482795Y-112690256D01*
X124596063Y-112859774D01*
X124740226Y-113003937D01*
X124846778Y-113075133D01*
X125050734Y-113279088D01*
X125082366Y-113317632D01*
X125236159Y-113443846D01*
X125411619Y-113537631D01*
X125602004Y-113595384D01*
X125799998Y-113614885D01*
X125849606Y-113609999D01*
X130050393Y-113609999D01*
X130100001Y-113614885D01*
X130297995Y-113595384D01*
X130488381Y-113537631D01*
X130663841Y-113443846D01*
X130817634Y-113317632D01*
X130849263Y-113279092D01*
X131053222Y-113075133D01*
X131159774Y-113003937D01*
X131303937Y-112859774D01*
X131417205Y-112690256D01*
X131495226Y-112501898D01*
X131535000Y-112301939D01*
X131535000Y-112098061D01*
X131495226Y-111898102D01*
X131417205Y-111709744D01*
X131303937Y-111540226D01*
X131159774Y-111396063D01*
X130990256Y-111282795D01*
X130801898Y-111204774D01*
X130601939Y-111165000D01*
X130398061Y-111165000D01*
X130198102Y-111204774D01*
X130009744Y-111282795D01*
X129905973Y-111352132D01*
X129895226Y-111298102D01*
X129817205Y-111109744D01*
X129703937Y-110940226D01*
X129559774Y-110796063D01*
X129453226Y-110724870D01*
X129010001Y-110281646D01*
X129010001Y-105837194D01*
X129059774Y-105803937D01*
X129203937Y-105659774D01*
X129317205Y-105490256D01*
X129395226Y-105301898D01*
X129435000Y-105101939D01*
X129435000Y-104898061D01*
X129395226Y-104698102D01*
X129317205Y-104509744D01*
X129203937Y-104340226D01*
X129059774Y-104196063D01*
X128953226Y-104124870D01*
X128410000Y-103581645D01*
X128410000Y-100327623D01*
X128435000Y-100201939D01*
X128435000Y-99998061D01*
X128395226Y-99798102D01*
X128317205Y-99609744D01*
X128203937Y-99440226D01*
X128059774Y-99296063D01*
X127890256Y-99182795D01*
X127701898Y-99104774D01*
X127501939Y-99065000D01*
X127298061Y-99065000D01*
X127098102Y-99104774D01*
X126909744Y-99182795D01*
X126740226Y-99296063D01*
X126596063Y-99440226D01*
X126524870Y-99546774D01*
X125001645Y-101070000D01*
X122090107Y-101070000D01*
X121946632Y-100926525D01*
X121772240Y-100810000D01*
X121946632Y-100693475D01*
X122153475Y-100486632D01*
X122315990Y-100243411D01*
X122427932Y-99973158D01*
X122485000Y-99686260D01*
X122485000Y-99393740D01*
X122427932Y-99106842D01*
X122315990Y-98836589D01*
X122153475Y-98593368D01*
X121946632Y-98386525D01*
X121772240Y-98270000D01*
X121946632Y-98153475D01*
X122153475Y-97946632D01*
X122247722Y-97805582D01*
X122282795Y-97890256D01*
X122396063Y-98059774D01*
X122540226Y-98203937D01*
X122709744Y-98317205D01*
X122898102Y-98395226D01*
X123098061Y-98435000D01*
X123301939Y-98435000D01*
X123501898Y-98395226D01*
X123690256Y-98317205D01*
X123859774Y-98203937D01*
X124003937Y-98059774D01*
X124117205Y-97890256D01*
X124195226Y-97701898D01*
X124235000Y-97501939D01*
X124235000Y-97298061D01*
X124195226Y-97098102D01*
X124117205Y-96909744D01*
X124003937Y-96740226D01*
X123859774Y-96596063D01*
X123690256Y-96482795D01*
X123501898Y-96404774D01*
X123301939Y-96365000D01*
X123098061Y-96365000D01*
X122898102Y-96404774D01*
X122709744Y-96482795D01*
X122540226Y-96596063D01*
X122451411Y-96684878D01*
X122427932Y-96566842D01*
X122315990Y-96296589D01*
X122153475Y-96053368D01*
X121946632Y-95846525D01*
X121772240Y-95730000D01*
X121946632Y-95613475D01*
X122153475Y-95406632D01*
X122315990Y-95163411D01*
X122427932Y-94893158D01*
X122485000Y-94606260D01*
X122485000Y-94313740D01*
X122427932Y-94026842D01*
X122315990Y-93756589D01*
X122153475Y-93513368D01*
X121946632Y-93306525D01*
X121772240Y-93190000D01*
X121946632Y-93073475D01*
X122153475Y-92866632D01*
X122315990Y-92623411D01*
X122427932Y-92353158D01*
X122485000Y-92066260D01*
X122485000Y-91773740D01*
X122427932Y-91486842D01*
X122315990Y-91216589D01*
X122153475Y-90973368D01*
X121946632Y-90766525D01*
X121772240Y-90650000D01*
X121946632Y-90533475D01*
X122153475Y-90326632D01*
X122315990Y-90083411D01*
X122427932Y-89813158D01*
X122485000Y-89526260D01*
X122485000Y-89233740D01*
X122427932Y-88946842D01*
X122315990Y-88676589D01*
X122153475Y-88433368D01*
X121946632Y-88226525D01*
X121772240Y-88110000D01*
X121946632Y-87993475D01*
X122153475Y-87786632D01*
X122246802Y-87646959D01*
X122265000Y-87665157D01*
G37*
%TD.AperFunction*%
D19*
X132924843Y-71500000D02*
X132898061Y-71500000D01*
X132698102Y-71539774D01*
X132509744Y-71617795D01*
X132340226Y-71731063D01*
X132196063Y-71875226D01*
X132082795Y-72044744D01*
X132004774Y-72233102D01*
X131965000Y-72433061D01*
X131965000Y-72636939D01*
X132004774Y-72836898D01*
X132082795Y-73025256D01*
X132196063Y-73194774D01*
X132340226Y-73338937D01*
X132509744Y-73452205D01*
X132698102Y-73530226D01*
X132892926Y-73568979D01*
X132916944Y-73689728D01*
X132943081Y-73752829D01*
X130278709Y-73752829D01*
X130259772Y-73733892D01*
X130090254Y-73620624D01*
X129901896Y-73542603D01*
X129701937Y-73502829D01*
X129498059Y-73502829D01*
X129298100Y-73542603D01*
X129109742Y-73620624D01*
X128940224Y-73733892D01*
X128796061Y-73878055D01*
X128682793Y-74047573D01*
X128604772Y-74235931D01*
X128564998Y-74435890D01*
X128564998Y-74639768D01*
X128604772Y-74839727D01*
X128682793Y-75028085D01*
X128796061Y-75197603D01*
X128940224Y-75341766D01*
X129109742Y-75455034D01*
X129298100Y-75533055D01*
X129498059Y-75572829D01*
X129701937Y-75572829D01*
X129901896Y-75533055D01*
X130090254Y-75455034D01*
X130259772Y-75341766D01*
X130278709Y-75322829D01*
X133833620Y-75322829D01*
X133872173Y-75326626D01*
X133910726Y-75322829D01*
X133910734Y-75322829D01*
X134026060Y-75311470D01*
X134174033Y-75266583D01*
X134310406Y-75193691D01*
X134429937Y-75095593D01*
X134454520Y-75065639D01*
X138467831Y-71052328D01*
X138467832Y-71878588D01*
X138374964Y-72017575D01*
X138296943Y-72205933D01*
X138257169Y-72405892D01*
X138257169Y-72432674D01*
X136972185Y-73717658D01*
X136942237Y-73742236D01*
X136917659Y-73772184D01*
X136917655Y-73772188D01*
X136887383Y-73809075D01*
X136844139Y-73861767D01*
X136833342Y-73881967D01*
X136771246Y-73998141D01*
X136726359Y-74146114D01*
X136711203Y-74300000D01*
X136715001Y-74338563D01*
X136715000Y-76521289D01*
X136696063Y-76540226D01*
X136582795Y-76709744D01*
X136504774Y-76898102D01*
X136465000Y-77098061D01*
X136465000Y-77301939D01*
X136504774Y-77501898D01*
X136582795Y-77690256D01*
X136696063Y-77859774D01*
X136840226Y-78003937D01*
X137009744Y-78117205D01*
X137198102Y-78195226D01*
X137398061Y-78235000D01*
X137466004Y-78235000D01*
X137466944Y-78239728D01*
X137498123Y-78315000D01*
X137278711Y-78315000D01*
X137259774Y-78296063D01*
X137090256Y-78182795D01*
X136901898Y-78104774D01*
X136701939Y-78065000D01*
X136498061Y-78065000D01*
X136298102Y-78104774D01*
X136109744Y-78182795D01*
X135940226Y-78296063D01*
X135796063Y-78440226D01*
X135682795Y-78609744D01*
X135604774Y-78798102D01*
X135565000Y-78998061D01*
X135565000Y-79201939D01*
X135604774Y-79401898D01*
X135682795Y-79590256D01*
X135796063Y-79759774D01*
X135940226Y-79903937D01*
X136109744Y-80017205D01*
X136298102Y-80095226D01*
X136498061Y-80135000D01*
X136701939Y-80135000D01*
X136901898Y-80095226D01*
X137090256Y-80017205D01*
X137259774Y-79903937D01*
X137278711Y-79885000D01*
X139056783Y-79885000D01*
X139040226Y-79896063D01*
X138896063Y-80040226D01*
X138782795Y-80209744D01*
X138704774Y-80398102D01*
X138665000Y-80598061D01*
X138665000Y-80801939D01*
X138704774Y-81001898D01*
X138782795Y-81190256D01*
X138896063Y-81359774D01*
X139040226Y-81503937D01*
X139209744Y-81617205D01*
X139398102Y-81695226D01*
X139428557Y-81701284D01*
X137572185Y-83557656D01*
X137542237Y-83582234D01*
X137517659Y-83612182D01*
X137517655Y-83612186D01*
X137509941Y-83621586D01*
X137444139Y-83701765D01*
X137430994Y-83726358D01*
X137371246Y-83838139D01*
X137326359Y-83986112D01*
X137311203Y-84139998D01*
X137315001Y-84178560D01*
X137315001Y-84721288D01*
X137296063Y-84740226D01*
X137182795Y-84909744D01*
X137104774Y-85098102D01*
X137065000Y-85298061D01*
X137065000Y-85501939D01*
X137104774Y-85701898D01*
X137182795Y-85890256D01*
X137296063Y-86059774D01*
X137440226Y-86203937D01*
X137609744Y-86317205D01*
X137798102Y-86395226D01*
X137998061Y-86435000D01*
X138201939Y-86435000D01*
X138401898Y-86395226D01*
X138590256Y-86317205D01*
X138759774Y-86203937D01*
X138903937Y-86059774D01*
X139017205Y-85890256D01*
X139095226Y-85701898D01*
X139135000Y-85501939D01*
X139135000Y-85298061D01*
X139095226Y-85098102D01*
X139017205Y-84909744D01*
X138903937Y-84740226D01*
X138885000Y-84721289D01*
X138885000Y-84465155D01*
X140330620Y-83019535D01*
X140315000Y-83098061D01*
X140315000Y-83301939D01*
X140354774Y-83501898D01*
X140432795Y-83690256D01*
X140539532Y-83850000D01*
X140432795Y-84009744D01*
X140354774Y-84198102D01*
X140315000Y-84398061D01*
X140315000Y-84424843D01*
X139322189Y-85417654D01*
X139292235Y-85442237D01*
X139194137Y-85561769D01*
X139121245Y-85698142D01*
X139076358Y-85846115D01*
X139064999Y-85961441D01*
X139064999Y-85961448D01*
X139061202Y-86000001D01*
X139064999Y-86038554D01*
X139065000Y-88612504D01*
X139061202Y-88651067D01*
X139076358Y-88804953D01*
X139121245Y-88952926D01*
X139121246Y-88952927D01*
X139194138Y-89089300D01*
X139204511Y-89101939D01*
X139267654Y-89178879D01*
X139267658Y-89178883D01*
X139292236Y-89208831D01*
X139322184Y-89233409D01*
X139687140Y-89598365D01*
X138462076Y-89598365D01*
X138459774Y-89596063D01*
X138290256Y-89482795D01*
X138101898Y-89404774D01*
X137901939Y-89365000D01*
X137698061Y-89365000D01*
X137498102Y-89404774D01*
X137309744Y-89482795D01*
X137140226Y-89596063D01*
X136996063Y-89740226D01*
X136882795Y-89909744D01*
X136804774Y-90098102D01*
X136765000Y-90298061D01*
X136765000Y-90501939D01*
X136804774Y-90701898D01*
X136882795Y-90890256D01*
X136996063Y-91059774D01*
X137140226Y-91203937D01*
X137309744Y-91317205D01*
X137498102Y-91395226D01*
X137698061Y-91435000D01*
X137901939Y-91435000D01*
X138101898Y-91395226D01*
X138290256Y-91317205D01*
X138459774Y-91203937D01*
X138495346Y-91168365D01*
X139793584Y-91168365D01*
X139812521Y-91187302D01*
X139982039Y-91300570D01*
X140170397Y-91378591D01*
X140370356Y-91418365D01*
X140574234Y-91418365D01*
X140774193Y-91378591D01*
X140962551Y-91300570D01*
X141132069Y-91187302D01*
X141204073Y-91115298D01*
X141915000Y-91826226D01*
X141915000Y-93788442D01*
X141803937Y-93622224D01*
X141659774Y-93478061D01*
X141490256Y-93364793D01*
X141301898Y-93286772D01*
X141101939Y-93246998D01*
X140898061Y-93246998D01*
X140698102Y-93286772D01*
X140509744Y-93364793D01*
X140340226Y-93478061D01*
X140196063Y-93622224D01*
X140082795Y-93791742D01*
X140004774Y-93980100D01*
X139965000Y-94180059D01*
X139965000Y-94383937D01*
X140004774Y-94583896D01*
X140082795Y-94772254D01*
X140196063Y-94941772D01*
X140340226Y-95085935D01*
X140509744Y-95199203D01*
X140698102Y-95277224D01*
X140898061Y-95316998D01*
X141101939Y-95316998D01*
X141301898Y-95277224D01*
X141490256Y-95199203D01*
X141659774Y-95085935D01*
X141803937Y-94941772D01*
X141915000Y-94775554D01*
X141915000Y-96534669D01*
X141728392Y-96534669D01*
X141528433Y-96574443D01*
X141340075Y-96652464D01*
X141170557Y-96765732D01*
X141143485Y-96792804D01*
X141110759Y-96796027D01*
X141019767Y-96823630D01*
X140962786Y-96840915D01*
X140826413Y-96913807D01*
X140706882Y-97011905D01*
X140682295Y-97041863D01*
X140522185Y-97201973D01*
X140492236Y-97226552D01*
X140467658Y-97256500D01*
X140467654Y-97256504D01*
X140441355Y-97288550D01*
X140394138Y-97346083D01*
X140363248Y-97403875D01*
X140321245Y-97482457D01*
X140276358Y-97630430D01*
X140271201Y-97682795D01*
X140264999Y-97745755D01*
X140264999Y-97745763D01*
X140261202Y-97784316D01*
X140264999Y-97822869D01*
X140264999Y-98317724D01*
X139218625Y-99364098D01*
X139188677Y-99388676D01*
X139164099Y-99418624D01*
X139164095Y-99418628D01*
X139146370Y-99440226D01*
X139090579Y-99508207D01*
X139085770Y-99517205D01*
X139017686Y-99644581D01*
X138972799Y-99792554D01*
X138957643Y-99946440D01*
X138961441Y-99985003D01*
X138961440Y-104361284D01*
X130134999Y-95534844D01*
X130134999Y-94435000D01*
X130201939Y-94435000D01*
X130401898Y-94395226D01*
X130590256Y-94317205D01*
X130759774Y-94203937D01*
X130903937Y-94059774D01*
X131017205Y-93890256D01*
X131095226Y-93701898D01*
X131135000Y-93501939D01*
X131135000Y-93298061D01*
X131095226Y-93098102D01*
X131017205Y-92909744D01*
X130903937Y-92740226D01*
X130759774Y-92596063D01*
X130590256Y-92482795D01*
X130401898Y-92404774D01*
X130201939Y-92365000D01*
X130134999Y-92365000D01*
X130134999Y-90294087D01*
X130198102Y-90320225D01*
X130398061Y-90359999D01*
X130601939Y-90359999D01*
X130801898Y-90320225D01*
X130990256Y-90242204D01*
X131159774Y-90128936D01*
X131303937Y-89984773D01*
X131417205Y-89815255D01*
X131495226Y-89626897D01*
X131535000Y-89426938D01*
X131535000Y-89223060D01*
X131495226Y-89023101D01*
X131417205Y-88834743D01*
X131303937Y-88665225D01*
X131285000Y-88646288D01*
X131285000Y-83835795D01*
X133261192Y-83835795D01*
X133264990Y-83874358D01*
X133264989Y-96011436D01*
X133261192Y-96049989D01*
X133264989Y-96088542D01*
X133264989Y-96088549D01*
X133276348Y-96203875D01*
X133321235Y-96351848D01*
X133394127Y-96488221D01*
X133492225Y-96607753D01*
X133522179Y-96632336D01*
X134865000Y-97975157D01*
X134865000Y-98001939D01*
X134904774Y-98201898D01*
X134982795Y-98390256D01*
X135096063Y-98559774D01*
X135240226Y-98703937D01*
X135409744Y-98817205D01*
X135598102Y-98895226D01*
X135798061Y-98935000D01*
X136001939Y-98935000D01*
X136201898Y-98895226D01*
X136390256Y-98817205D01*
X136428164Y-98791875D01*
X136440226Y-98803937D01*
X136609744Y-98917205D01*
X136798102Y-98995226D01*
X136998061Y-99035000D01*
X137201939Y-99035000D01*
X137401898Y-98995226D01*
X137590256Y-98917205D01*
X137759774Y-98803937D01*
X137903937Y-98659774D01*
X138017205Y-98490256D01*
X138095226Y-98301898D01*
X138135000Y-98101939D01*
X138135000Y-97898061D01*
X138095226Y-97698102D01*
X138017205Y-97509744D01*
X137903937Y-97340226D01*
X137759774Y-97196063D01*
X137590256Y-97082795D01*
X137401898Y-97004774D01*
X137201939Y-96965000D01*
X137175158Y-96965000D01*
X136486934Y-96276777D01*
X136603937Y-96159774D01*
X136717205Y-95990256D01*
X136795226Y-95801898D01*
X136835000Y-95601939D01*
X136835000Y-95398061D01*
X136795226Y-95198102D01*
X136717205Y-95009744D01*
X136603937Y-94840226D01*
X136459774Y-94696063D01*
X136290256Y-94582795D01*
X136101898Y-94504774D01*
X136085000Y-94501413D01*
X136085000Y-91278711D01*
X136103937Y-91259774D01*
X136217205Y-91090256D01*
X136295226Y-90901898D01*
X136335000Y-90701939D01*
X136335000Y-90498061D01*
X136295226Y-90298102D01*
X136217205Y-90109744D01*
X136103937Y-89940226D01*
X135959774Y-89796063D01*
X135790256Y-89682795D01*
X135601898Y-89604774D01*
X135401939Y-89565000D01*
X135334999Y-89565000D01*
X135334999Y-85075158D01*
X135875158Y-84535000D01*
X135901939Y-84535000D01*
X136101898Y-84495226D01*
X136290256Y-84417205D01*
X136459774Y-84303937D01*
X136603937Y-84159774D01*
X136717205Y-83990256D01*
X136795226Y-83801898D01*
X136835000Y-83601939D01*
X136835000Y-83398061D01*
X136795226Y-83198102D01*
X136717205Y-83009744D01*
X136603937Y-82840226D01*
X136459774Y-82696063D01*
X136290256Y-82582795D01*
X136101898Y-82504774D01*
X136090404Y-82502488D01*
X136088118Y-82490994D01*
X136010097Y-82302636D01*
X135896829Y-82133118D01*
X135752666Y-81988955D01*
X135583148Y-81875687D01*
X135394790Y-81797666D01*
X135194831Y-81757892D01*
X134990953Y-81757892D01*
X134790994Y-81797666D01*
X134602636Y-81875687D01*
X134433118Y-81988955D01*
X134288955Y-82133118D01*
X134175687Y-82302636D01*
X134097666Y-82490994D01*
X134057892Y-82690953D01*
X134057892Y-82717735D01*
X133522174Y-83253453D01*
X133492226Y-83278031D01*
X133467648Y-83307979D01*
X133467644Y-83307983D01*
X133436351Y-83346114D01*
X133394128Y-83397562D01*
X133387617Y-83409744D01*
X133321235Y-83533936D01*
X133276348Y-83681909D01*
X133261192Y-83835795D01*
X131285000Y-83835795D01*
X131285000Y-82438454D01*
X131317205Y-82390256D01*
X131395226Y-82201898D01*
X131435000Y-82001939D01*
X131435000Y-81798061D01*
X131395226Y-81598102D01*
X131317205Y-81409744D01*
X131203937Y-81240226D01*
X131059774Y-81096063D01*
X130890256Y-80982795D01*
X130701898Y-80904774D01*
X130501939Y-80865000D01*
X130298061Y-80865000D01*
X130098102Y-80904774D01*
X129909744Y-80982795D01*
X129740226Y-81096063D01*
X129688110Y-81148179D01*
X129590256Y-81082795D01*
X129401898Y-81004774D01*
X129201939Y-80965000D01*
X128998061Y-80965000D01*
X128798102Y-81004774D01*
X128609744Y-81082795D01*
X128440226Y-81196063D01*
X128421289Y-81215000D01*
X122828554Y-81215000D01*
X122789998Y-81211203D01*
X122751442Y-81215000D01*
X122751437Y-81215000D01*
X122711024Y-81218980D01*
X122636111Y-81226358D01*
X122488138Y-81271246D01*
X122419991Y-81307671D01*
X122315990Y-81056589D01*
X122153475Y-80813368D01*
X121946632Y-80606525D01*
X121772240Y-80490000D01*
X121946632Y-80373475D01*
X122153475Y-80166632D01*
X122315990Y-79923411D01*
X122427932Y-79653158D01*
X122485000Y-79366260D01*
X122485000Y-79073740D01*
X122427932Y-78786842D01*
X122315990Y-78516589D01*
X122153475Y-78273368D01*
X121946632Y-78066525D01*
X121772240Y-77950000D01*
X121946632Y-77833475D01*
X122153475Y-77626632D01*
X122315990Y-77383411D01*
X122427932Y-77113158D01*
X122485000Y-76826260D01*
X122485000Y-76533740D01*
X122427932Y-76246842D01*
X122315990Y-75976589D01*
X122153475Y-75733368D01*
X121946632Y-75526525D01*
X121772240Y-75410000D01*
X121946632Y-75293475D01*
X122153475Y-75086632D01*
X122315990Y-74843411D01*
X122427932Y-74573158D01*
X122485000Y-74286260D01*
X122485000Y-73993740D01*
X122427932Y-73706842D01*
X122315990Y-73436589D01*
X122153475Y-73193368D01*
X121946632Y-72986525D01*
X121772240Y-72870000D01*
X121946632Y-72753475D01*
X122153475Y-72546632D01*
X122315990Y-72303411D01*
X122427932Y-72033158D01*
X122485000Y-71746260D01*
X122485000Y-71453740D01*
X122427932Y-71166842D01*
X122315990Y-70896589D01*
X122153475Y-70653368D01*
X122021620Y-70521513D01*
X122094180Y-70499502D01*
X122204494Y-70440537D01*
X122256251Y-70398061D01*
X122865000Y-70398061D01*
X122865000Y-70601939D01*
X122904774Y-70801898D01*
X122982795Y-70990256D01*
X123096063Y-71159774D01*
X123240226Y-71303937D01*
X123409744Y-71417205D01*
X123598102Y-71495226D01*
X123798061Y-71535000D01*
X124001939Y-71535000D01*
X124201898Y-71495226D01*
X124390256Y-71417205D01*
X124559774Y-71303937D01*
X124703937Y-71159774D01*
X124817205Y-70990256D01*
X124895226Y-70801898D01*
X124935000Y-70601939D01*
X124935000Y-70398061D01*
X125465000Y-70398061D01*
X125465000Y-70601939D01*
X125504774Y-70801898D01*
X125582795Y-70990256D01*
X125696063Y-71159774D01*
X125840226Y-71303937D01*
X126009744Y-71417205D01*
X126198102Y-71495226D01*
X126398061Y-71535000D01*
X126601939Y-71535000D01*
X126801898Y-71495226D01*
X126990256Y-71417205D01*
X127159774Y-71303937D01*
X127303937Y-71159774D01*
X127417205Y-70990256D01*
X127495226Y-70801898D01*
X127535000Y-70601939D01*
X127535000Y-70398061D01*
X127495226Y-70198102D01*
X127417205Y-70009744D01*
X127303937Y-69840226D01*
X127159774Y-69696063D01*
X126990256Y-69582795D01*
X126801898Y-69504774D01*
X126601939Y-69465000D01*
X126398061Y-69465000D01*
X126198102Y-69504774D01*
X126009744Y-69582795D01*
X125840226Y-69696063D01*
X125696063Y-69840226D01*
X125582795Y-70009744D01*
X125504774Y-70198102D01*
X125465000Y-70398061D01*
X124935000Y-70398061D01*
X124895226Y-70198102D01*
X124817205Y-70009744D01*
X124703937Y-69840226D01*
X124559774Y-69696063D01*
X124390256Y-69582795D01*
X124201898Y-69504774D01*
X124001939Y-69465000D01*
X123798061Y-69465000D01*
X123598102Y-69504774D01*
X123409744Y-69582795D01*
X123240226Y-69696063D01*
X123096063Y-69840226D01*
X122982795Y-70009744D01*
X122904774Y-70198102D01*
X122865000Y-70398061D01*
X122256251Y-70398061D01*
X122301185Y-70361185D01*
X122380537Y-70264494D01*
X122439502Y-70154180D01*
X122475812Y-70034482D01*
X122488072Y-69910000D01*
X122488072Y-68210000D01*
X122475812Y-68085518D01*
X122439502Y-67965820D01*
X122380537Y-67855506D01*
X122336104Y-67801364D01*
X136623479Y-67801364D01*
X132924843Y-71500000D01*
%TA.AperFunction,Conductor*%
D20*
G36*
X132924843Y-71500000D02*
G01*
X132898061Y-71500000D01*
X132698102Y-71539774D01*
X132509744Y-71617795D01*
X132340226Y-71731063D01*
X132196063Y-71875226D01*
X132082795Y-72044744D01*
X132004774Y-72233102D01*
X131965000Y-72433061D01*
X131965000Y-72636939D01*
X132004774Y-72836898D01*
X132082795Y-73025256D01*
X132196063Y-73194774D01*
X132340226Y-73338937D01*
X132509744Y-73452205D01*
X132698102Y-73530226D01*
X132892926Y-73568979D01*
X132916944Y-73689728D01*
X132943081Y-73752829D01*
X130278709Y-73752829D01*
X130259772Y-73733892D01*
X130090254Y-73620624D01*
X129901896Y-73542603D01*
X129701937Y-73502829D01*
X129498059Y-73502829D01*
X129298100Y-73542603D01*
X129109742Y-73620624D01*
X128940224Y-73733892D01*
X128796061Y-73878055D01*
X128682793Y-74047573D01*
X128604772Y-74235931D01*
X128564998Y-74435890D01*
X128564998Y-74639768D01*
X128604772Y-74839727D01*
X128682793Y-75028085D01*
X128796061Y-75197603D01*
X128940224Y-75341766D01*
X129109742Y-75455034D01*
X129298100Y-75533055D01*
X129498059Y-75572829D01*
X129701937Y-75572829D01*
X129901896Y-75533055D01*
X130090254Y-75455034D01*
X130259772Y-75341766D01*
X130278709Y-75322829D01*
X133833620Y-75322829D01*
X133872173Y-75326626D01*
X133910726Y-75322829D01*
X133910734Y-75322829D01*
X134026060Y-75311470D01*
X134174033Y-75266583D01*
X134310406Y-75193691D01*
X134429937Y-75095593D01*
X134454520Y-75065639D01*
X138467831Y-71052328D01*
X138467832Y-71878588D01*
X138374964Y-72017575D01*
X138296943Y-72205933D01*
X138257169Y-72405892D01*
X138257169Y-72432674D01*
X136972185Y-73717658D01*
X136942237Y-73742236D01*
X136917659Y-73772184D01*
X136917655Y-73772188D01*
X136887383Y-73809075D01*
X136844139Y-73861767D01*
X136833342Y-73881967D01*
X136771246Y-73998141D01*
X136726359Y-74146114D01*
X136711203Y-74300000D01*
X136715001Y-74338563D01*
X136715000Y-76521289D01*
X136696063Y-76540226D01*
X136582795Y-76709744D01*
X136504774Y-76898102D01*
X136465000Y-77098061D01*
X136465000Y-77301939D01*
X136504774Y-77501898D01*
X136582795Y-77690256D01*
X136696063Y-77859774D01*
X136840226Y-78003937D01*
X137009744Y-78117205D01*
X137198102Y-78195226D01*
X137398061Y-78235000D01*
X137466004Y-78235000D01*
X137466944Y-78239728D01*
X137498123Y-78315000D01*
X137278711Y-78315000D01*
X137259774Y-78296063D01*
X137090256Y-78182795D01*
X136901898Y-78104774D01*
X136701939Y-78065000D01*
X136498061Y-78065000D01*
X136298102Y-78104774D01*
X136109744Y-78182795D01*
X135940226Y-78296063D01*
X135796063Y-78440226D01*
X135682795Y-78609744D01*
X135604774Y-78798102D01*
X135565000Y-78998061D01*
X135565000Y-79201939D01*
X135604774Y-79401898D01*
X135682795Y-79590256D01*
X135796063Y-79759774D01*
X135940226Y-79903937D01*
X136109744Y-80017205D01*
X136298102Y-80095226D01*
X136498061Y-80135000D01*
X136701939Y-80135000D01*
X136901898Y-80095226D01*
X137090256Y-80017205D01*
X137259774Y-79903937D01*
X137278711Y-79885000D01*
X139056783Y-79885000D01*
X139040226Y-79896063D01*
X138896063Y-80040226D01*
X138782795Y-80209744D01*
X138704774Y-80398102D01*
X138665000Y-80598061D01*
X138665000Y-80801939D01*
X138704774Y-81001898D01*
X138782795Y-81190256D01*
X138896063Y-81359774D01*
X139040226Y-81503937D01*
X139209744Y-81617205D01*
X139398102Y-81695226D01*
X139428557Y-81701284D01*
X137572185Y-83557656D01*
X137542237Y-83582234D01*
X137517659Y-83612182D01*
X137517655Y-83612186D01*
X137509941Y-83621586D01*
X137444139Y-83701765D01*
X137430994Y-83726358D01*
X137371246Y-83838139D01*
X137326359Y-83986112D01*
X137311203Y-84139998D01*
X137315001Y-84178560D01*
X137315001Y-84721288D01*
X137296063Y-84740226D01*
X137182795Y-84909744D01*
X137104774Y-85098102D01*
X137065000Y-85298061D01*
X137065000Y-85501939D01*
X137104774Y-85701898D01*
X137182795Y-85890256D01*
X137296063Y-86059774D01*
X137440226Y-86203937D01*
X137609744Y-86317205D01*
X137798102Y-86395226D01*
X137998061Y-86435000D01*
X138201939Y-86435000D01*
X138401898Y-86395226D01*
X138590256Y-86317205D01*
X138759774Y-86203937D01*
X138903937Y-86059774D01*
X139017205Y-85890256D01*
X139095226Y-85701898D01*
X139135000Y-85501939D01*
X139135000Y-85298061D01*
X139095226Y-85098102D01*
X139017205Y-84909744D01*
X138903937Y-84740226D01*
X138885000Y-84721289D01*
X138885000Y-84465155D01*
X140330620Y-83019535D01*
X140315000Y-83098061D01*
X140315000Y-83301939D01*
X140354774Y-83501898D01*
X140432795Y-83690256D01*
X140539532Y-83850000D01*
X140432795Y-84009744D01*
X140354774Y-84198102D01*
X140315000Y-84398061D01*
X140315000Y-84424843D01*
X139322189Y-85417654D01*
X139292235Y-85442237D01*
X139194137Y-85561769D01*
X139121245Y-85698142D01*
X139076358Y-85846115D01*
X139064999Y-85961441D01*
X139064999Y-85961448D01*
X139061202Y-86000001D01*
X139064999Y-86038554D01*
X139065000Y-88612504D01*
X139061202Y-88651067D01*
X139076358Y-88804953D01*
X139121245Y-88952926D01*
X139121246Y-88952927D01*
X139194138Y-89089300D01*
X139204511Y-89101939D01*
X139267654Y-89178879D01*
X139267658Y-89178883D01*
X139292236Y-89208831D01*
X139322184Y-89233409D01*
X139687140Y-89598365D01*
X138462076Y-89598365D01*
X138459774Y-89596063D01*
X138290256Y-89482795D01*
X138101898Y-89404774D01*
X137901939Y-89365000D01*
X137698061Y-89365000D01*
X137498102Y-89404774D01*
X137309744Y-89482795D01*
X137140226Y-89596063D01*
X136996063Y-89740226D01*
X136882795Y-89909744D01*
X136804774Y-90098102D01*
X136765000Y-90298061D01*
X136765000Y-90501939D01*
X136804774Y-90701898D01*
X136882795Y-90890256D01*
X136996063Y-91059774D01*
X137140226Y-91203937D01*
X137309744Y-91317205D01*
X137498102Y-91395226D01*
X137698061Y-91435000D01*
X137901939Y-91435000D01*
X138101898Y-91395226D01*
X138290256Y-91317205D01*
X138459774Y-91203937D01*
X138495346Y-91168365D01*
X139793584Y-91168365D01*
X139812521Y-91187302D01*
X139982039Y-91300570D01*
X140170397Y-91378591D01*
X140370356Y-91418365D01*
X140574234Y-91418365D01*
X140774193Y-91378591D01*
X140962551Y-91300570D01*
X141132069Y-91187302D01*
X141204073Y-91115298D01*
X141915000Y-91826226D01*
X141915000Y-93788442D01*
X141803937Y-93622224D01*
X141659774Y-93478061D01*
X141490256Y-93364793D01*
X141301898Y-93286772D01*
X141101939Y-93246998D01*
X140898061Y-93246998D01*
X140698102Y-93286772D01*
X140509744Y-93364793D01*
X140340226Y-93478061D01*
X140196063Y-93622224D01*
X140082795Y-93791742D01*
X140004774Y-93980100D01*
X139965000Y-94180059D01*
X139965000Y-94383937D01*
X140004774Y-94583896D01*
X140082795Y-94772254D01*
X140196063Y-94941772D01*
X140340226Y-95085935D01*
X140509744Y-95199203D01*
X140698102Y-95277224D01*
X140898061Y-95316998D01*
X141101939Y-95316998D01*
X141301898Y-95277224D01*
X141490256Y-95199203D01*
X141659774Y-95085935D01*
X141803937Y-94941772D01*
X141915000Y-94775554D01*
X141915000Y-96534669D01*
X141728392Y-96534669D01*
X141528433Y-96574443D01*
X141340075Y-96652464D01*
X141170557Y-96765732D01*
X141143485Y-96792804D01*
X141110759Y-96796027D01*
X141019767Y-96823630D01*
X140962786Y-96840915D01*
X140826413Y-96913807D01*
X140706882Y-97011905D01*
X140682295Y-97041863D01*
X140522185Y-97201973D01*
X140492236Y-97226552D01*
X140467658Y-97256500D01*
X140467654Y-97256504D01*
X140441355Y-97288550D01*
X140394138Y-97346083D01*
X140363248Y-97403875D01*
X140321245Y-97482457D01*
X140276358Y-97630430D01*
X140271201Y-97682795D01*
X140264999Y-97745755D01*
X140264999Y-97745763D01*
X140261202Y-97784316D01*
X140264999Y-97822869D01*
X140264999Y-98317724D01*
X139218625Y-99364098D01*
X139188677Y-99388676D01*
X139164099Y-99418624D01*
X139164095Y-99418628D01*
X139146370Y-99440226D01*
X139090579Y-99508207D01*
X139085770Y-99517205D01*
X139017686Y-99644581D01*
X138972799Y-99792554D01*
X138957643Y-99946440D01*
X138961441Y-99985003D01*
X138961440Y-104361284D01*
X130134999Y-95534844D01*
X130134999Y-94435000D01*
X130201939Y-94435000D01*
X130401898Y-94395226D01*
X130590256Y-94317205D01*
X130759774Y-94203937D01*
X130903937Y-94059774D01*
X131017205Y-93890256D01*
X131095226Y-93701898D01*
X131135000Y-93501939D01*
X131135000Y-93298061D01*
X131095226Y-93098102D01*
X131017205Y-92909744D01*
X130903937Y-92740226D01*
X130759774Y-92596063D01*
X130590256Y-92482795D01*
X130401898Y-92404774D01*
X130201939Y-92365000D01*
X130134999Y-92365000D01*
X130134999Y-90294087D01*
X130198102Y-90320225D01*
X130398061Y-90359999D01*
X130601939Y-90359999D01*
X130801898Y-90320225D01*
X130990256Y-90242204D01*
X131159774Y-90128936D01*
X131303937Y-89984773D01*
X131417205Y-89815255D01*
X131495226Y-89626897D01*
X131535000Y-89426938D01*
X131535000Y-89223060D01*
X131495226Y-89023101D01*
X131417205Y-88834743D01*
X131303937Y-88665225D01*
X131285000Y-88646288D01*
X131285000Y-83835795D01*
X133261192Y-83835795D01*
X133264990Y-83874358D01*
X133264989Y-96011436D01*
X133261192Y-96049989D01*
X133264989Y-96088542D01*
X133264989Y-96088549D01*
X133276348Y-96203875D01*
X133321235Y-96351848D01*
X133394127Y-96488221D01*
X133492225Y-96607753D01*
X133522179Y-96632336D01*
X134865000Y-97975157D01*
X134865000Y-98001939D01*
X134904774Y-98201898D01*
X134982795Y-98390256D01*
X135096063Y-98559774D01*
X135240226Y-98703937D01*
X135409744Y-98817205D01*
X135598102Y-98895226D01*
X135798061Y-98935000D01*
X136001939Y-98935000D01*
X136201898Y-98895226D01*
X136390256Y-98817205D01*
X136428164Y-98791875D01*
X136440226Y-98803937D01*
X136609744Y-98917205D01*
X136798102Y-98995226D01*
X136998061Y-99035000D01*
X137201939Y-99035000D01*
X137401898Y-98995226D01*
X137590256Y-98917205D01*
X137759774Y-98803937D01*
X137903937Y-98659774D01*
X138017205Y-98490256D01*
X138095226Y-98301898D01*
X138135000Y-98101939D01*
X138135000Y-97898061D01*
X138095226Y-97698102D01*
X138017205Y-97509744D01*
X137903937Y-97340226D01*
X137759774Y-97196063D01*
X137590256Y-97082795D01*
X137401898Y-97004774D01*
X137201939Y-96965000D01*
X137175158Y-96965000D01*
X136486934Y-96276777D01*
X136603937Y-96159774D01*
X136717205Y-95990256D01*
X136795226Y-95801898D01*
X136835000Y-95601939D01*
X136835000Y-95398061D01*
X136795226Y-95198102D01*
X136717205Y-95009744D01*
X136603937Y-94840226D01*
X136459774Y-94696063D01*
X136290256Y-94582795D01*
X136101898Y-94504774D01*
X136085000Y-94501413D01*
X136085000Y-91278711D01*
X136103937Y-91259774D01*
X136217205Y-91090256D01*
X136295226Y-90901898D01*
X136335000Y-90701939D01*
X136335000Y-90498061D01*
X136295226Y-90298102D01*
X136217205Y-90109744D01*
X136103937Y-89940226D01*
X135959774Y-89796063D01*
X135790256Y-89682795D01*
X135601898Y-89604774D01*
X135401939Y-89565000D01*
X135334999Y-89565000D01*
X135334999Y-85075158D01*
X135875158Y-84535000D01*
X135901939Y-84535000D01*
X136101898Y-84495226D01*
X136290256Y-84417205D01*
X136459774Y-84303937D01*
X136603937Y-84159774D01*
X136717205Y-83990256D01*
X136795226Y-83801898D01*
X136835000Y-83601939D01*
X136835000Y-83398061D01*
X136795226Y-83198102D01*
X136717205Y-83009744D01*
X136603937Y-82840226D01*
X136459774Y-82696063D01*
X136290256Y-82582795D01*
X136101898Y-82504774D01*
X136090404Y-82502488D01*
X136088118Y-82490994D01*
X136010097Y-82302636D01*
X135896829Y-82133118D01*
X135752666Y-81988955D01*
X135583148Y-81875687D01*
X135394790Y-81797666D01*
X135194831Y-81757892D01*
X134990953Y-81757892D01*
X134790994Y-81797666D01*
X134602636Y-81875687D01*
X134433118Y-81988955D01*
X134288955Y-82133118D01*
X134175687Y-82302636D01*
X134097666Y-82490994D01*
X134057892Y-82690953D01*
X134057892Y-82717735D01*
X133522174Y-83253453D01*
X133492226Y-83278031D01*
X133467648Y-83307979D01*
X133467644Y-83307983D01*
X133436351Y-83346114D01*
X133394128Y-83397562D01*
X133387617Y-83409744D01*
X133321235Y-83533936D01*
X133276348Y-83681909D01*
X133261192Y-83835795D01*
X131285000Y-83835795D01*
X131285000Y-82438454D01*
X131317205Y-82390256D01*
X131395226Y-82201898D01*
X131435000Y-82001939D01*
X131435000Y-81798061D01*
X131395226Y-81598102D01*
X131317205Y-81409744D01*
X131203937Y-81240226D01*
X131059774Y-81096063D01*
X130890256Y-80982795D01*
X130701898Y-80904774D01*
X130501939Y-80865000D01*
X130298061Y-80865000D01*
X130098102Y-80904774D01*
X129909744Y-80982795D01*
X129740226Y-81096063D01*
X129688110Y-81148179D01*
X129590256Y-81082795D01*
X129401898Y-81004774D01*
X129201939Y-80965000D01*
X128998061Y-80965000D01*
X128798102Y-81004774D01*
X128609744Y-81082795D01*
X128440226Y-81196063D01*
X128421289Y-81215000D01*
X122828554Y-81215000D01*
X122789998Y-81211203D01*
X122751442Y-81215000D01*
X122751437Y-81215000D01*
X122711024Y-81218980D01*
X122636111Y-81226358D01*
X122488138Y-81271246D01*
X122419991Y-81307671D01*
X122315990Y-81056589D01*
X122153475Y-80813368D01*
X121946632Y-80606525D01*
X121772240Y-80490000D01*
X121946632Y-80373475D01*
X122153475Y-80166632D01*
X122315990Y-79923411D01*
X122427932Y-79653158D01*
X122485000Y-79366260D01*
X122485000Y-79073740D01*
X122427932Y-78786842D01*
X122315990Y-78516589D01*
X122153475Y-78273368D01*
X121946632Y-78066525D01*
X121772240Y-77950000D01*
X121946632Y-77833475D01*
X122153475Y-77626632D01*
X122315990Y-77383411D01*
X122427932Y-77113158D01*
X122485000Y-76826260D01*
X122485000Y-76533740D01*
X122427932Y-76246842D01*
X122315990Y-75976589D01*
X122153475Y-75733368D01*
X121946632Y-75526525D01*
X121772240Y-75410000D01*
X121946632Y-75293475D01*
X122153475Y-75086632D01*
X122315990Y-74843411D01*
X122427932Y-74573158D01*
X122485000Y-74286260D01*
X122485000Y-73993740D01*
X122427932Y-73706842D01*
X122315990Y-73436589D01*
X122153475Y-73193368D01*
X121946632Y-72986525D01*
X121772240Y-72870000D01*
X121946632Y-72753475D01*
X122153475Y-72546632D01*
X122315990Y-72303411D01*
X122427932Y-72033158D01*
X122485000Y-71746260D01*
X122485000Y-71453740D01*
X122427932Y-71166842D01*
X122315990Y-70896589D01*
X122153475Y-70653368D01*
X122021620Y-70521513D01*
X122094180Y-70499502D01*
X122204494Y-70440537D01*
X122256251Y-70398061D01*
X122865000Y-70398061D01*
X122865000Y-70601939D01*
X122904774Y-70801898D01*
X122982795Y-70990256D01*
X123096063Y-71159774D01*
X123240226Y-71303937D01*
X123409744Y-71417205D01*
X123598102Y-71495226D01*
X123798061Y-71535000D01*
X124001939Y-71535000D01*
X124201898Y-71495226D01*
X124390256Y-71417205D01*
X124559774Y-71303937D01*
X124703937Y-71159774D01*
X124817205Y-70990256D01*
X124895226Y-70801898D01*
X124935000Y-70601939D01*
X124935000Y-70398061D01*
X125465000Y-70398061D01*
X125465000Y-70601939D01*
X125504774Y-70801898D01*
X125582795Y-70990256D01*
X125696063Y-71159774D01*
X125840226Y-71303937D01*
X126009744Y-71417205D01*
X126198102Y-71495226D01*
X126398061Y-71535000D01*
X126601939Y-71535000D01*
X126801898Y-71495226D01*
X126990256Y-71417205D01*
X127159774Y-71303937D01*
X127303937Y-71159774D01*
X127417205Y-70990256D01*
X127495226Y-70801898D01*
X127535000Y-70601939D01*
X127535000Y-70398061D01*
X127495226Y-70198102D01*
X127417205Y-70009744D01*
X127303937Y-69840226D01*
X127159774Y-69696063D01*
X126990256Y-69582795D01*
X126801898Y-69504774D01*
X126601939Y-69465000D01*
X126398061Y-69465000D01*
X126198102Y-69504774D01*
X126009744Y-69582795D01*
X125840226Y-69696063D01*
X125696063Y-69840226D01*
X125582795Y-70009744D01*
X125504774Y-70198102D01*
X125465000Y-70398061D01*
X124935000Y-70398061D01*
X124895226Y-70198102D01*
X124817205Y-70009744D01*
X124703937Y-69840226D01*
X124559774Y-69696063D01*
X124390256Y-69582795D01*
X124201898Y-69504774D01*
X124001939Y-69465000D01*
X123798061Y-69465000D01*
X123598102Y-69504774D01*
X123409744Y-69582795D01*
X123240226Y-69696063D01*
X123096063Y-69840226D01*
X122982795Y-70009744D01*
X122904774Y-70198102D01*
X122865000Y-70398061D01*
X122256251Y-70398061D01*
X122301185Y-70361185D01*
X122380537Y-70264494D01*
X122439502Y-70154180D01*
X122475812Y-70034482D01*
X122488072Y-69910000D01*
X122488072Y-68210000D01*
X122475812Y-68085518D01*
X122439502Y-67965820D01*
X122380537Y-67855506D01*
X122336104Y-67801364D01*
X136623479Y-67801364D01*
X132924843Y-71500000D01*
G37*
%TD.AperFunction*%
D19*
X142982795Y-69440256D02*
X143032737Y-69515000D01*
X140698946Y-69515000D01*
X140707763Y-69507764D01*
X140732346Y-69477809D01*
X140875157Y-69334999D01*
X142939196Y-69334999D01*
X142982795Y-69440256D01*
%TA.AperFunction,Conductor*%
D20*
G36*
X142982795Y-69440256D02*
G01*
X143032737Y-69515000D01*
X140698946Y-69515000D01*
X140707763Y-69507764D01*
X140732346Y-69477809D01*
X140875157Y-69334999D01*
X142939196Y-69334999D01*
X142982795Y-69440256D01*
G37*
%TD.AperFunction*%
%TD*%
M02*
