%TF.GenerationSoftware,KiCad,Pcbnew,(5.1.7-0-10_14)*%
%TF.CreationDate,2020-11-04T22:45:55+09:00*%
%TF.ProjectId,mini-esp32,6d696e69-2d65-4737-9033-322e6b696361,rev?*%
%TF.SameCoordinates,Original*%
%TF.FileFunction,Copper,L4,Bot*%
%TF.FilePolarity,Positive*%
%FSLAX46Y46*%
G04 Gerber Fmt 4.6, Leading zero omitted, Abs format (unit mm)*
G04 Created by KiCad (PCBNEW (5.1.7-0-10_14)) date 2020-11-04 22:45:55*
%MOMM*%
%LPD*%
G01*
G04 APERTURE LIST*
%TA.AperFunction,ComponentPad*%
%ADD10O,1.300000X2.200000*%
%TD*%
%TA.AperFunction,ComponentPad*%
%ADD11C,1.200000*%
%TD*%
%TA.AperFunction,ComponentPad*%
%ADD12O,1.700000X1.700000*%
%TD*%
%TA.AperFunction,ComponentPad*%
%ADD13R,1.700000X1.700000*%
%TD*%
%TA.AperFunction,ViaPad*%
%ADD14C,1.600000*%
%TD*%
%TA.AperFunction,ViaPad*%
%ADD15C,0.800000*%
%TD*%
%TA.AperFunction,Conductor*%
%ADD16C,0.500000*%
%TD*%
%TA.AperFunction,Conductor*%
%ADD17C,0.300000*%
%TD*%
G04 APERTURE END LIST*
D10*
%TO.P,J2,0*%
%TO.N,N/C*%
X141628000Y-118198000D03*
X134389000Y-118198000D03*
D11*
X135584000Y-115498000D03*
X140434000Y-115498000D03*
%TD*%
D12*
%TO.P,J5,18*%
%TO.N,VBUS*%
X121000000Y-112240000D03*
%TO.P,J5,17*%
%TO.N,VDD*%
X121000000Y-109700000D03*
%TO.P,J5,16*%
%TO.N,Net-(J5-Pad16)*%
X121000000Y-107160000D03*
%TO.P,J5,15*%
%TO.N,GND*%
X121000000Y-104620000D03*
%TO.P,J5,14*%
%TO.N,+BATT*%
X121000000Y-102080000D03*
%TO.P,J5,13*%
%TO.N,EN*%
X121000000Y-99540000D03*
%TO.P,J5,12*%
%TO.N,Net-(J5-Pad12)*%
X121000000Y-97000000D03*
%TO.P,J5,11*%
%TO.N,Net-(J5-Pad11)*%
X121000000Y-94460000D03*
%TO.P,J5,10*%
%TO.N,IO2*%
X121000000Y-91920000D03*
%TO.P,J5,9*%
%TO.N,IO5*%
X121000000Y-89380000D03*
%TO.P,J5,8*%
%TO.N,IO13*%
X121000000Y-86840000D03*
%TO.P,J5,7*%
%TO.N,IO33*%
X121000000Y-84300000D03*
%TO.P,J5,6*%
%TO.N,IO32*%
X121000000Y-81760000D03*
%TO.P,J5,5*%
%TO.N,IO27*%
X121000000Y-79220000D03*
%TO.P,J5,4*%
%TO.N,IO26_DAC2*%
X121000000Y-76680000D03*
%TO.P,J5,3*%
%TO.N,IO25_DAC1*%
X121000000Y-74140000D03*
%TO.P,J5,2*%
%TO.N,TXD0*%
X121000000Y-71600000D03*
D13*
%TO.P,J5,1*%
%TO.N,RXD0*%
X121000000Y-69060000D03*
%TD*%
%TO.P,J6,1*%
%TO.N,I36*%
X146400000Y-69060000D03*
D12*
%TO.P,J6,2*%
%TO.N,I39*%
X146400000Y-71600000D03*
%TO.P,J6,3*%
%TO.N,I34*%
X146400000Y-74140000D03*
%TO.P,J6,4*%
%TO.N,I35*%
X146400000Y-76680000D03*
%TO.P,J6,5*%
%TO.N,IO15*%
X146400000Y-79220000D03*
%TO.P,J6,6*%
%TO.N,Net-(J6-Pad6)*%
X146400000Y-81760000D03*
%TO.P,J6,7*%
%TO.N,GPIO0*%
X146400000Y-84300000D03*
%TO.P,J6,8*%
%TO.N,IO18*%
X146400000Y-86840000D03*
%TO.P,J6,9*%
%TO.N,IO23*%
X146400000Y-89380000D03*
%TO.P,J6,10*%
%TO.N,IO19*%
X146400000Y-91920000D03*
%TO.P,J6,11*%
%TO.N,IO21*%
X146400000Y-94460000D03*
%TO.P,J6,12*%
%TO.N,IO22*%
X146400000Y-97000000D03*
%TO.P,J6,13*%
%TO.N,IO14*%
X146400000Y-99540000D03*
%TO.P,J6,14*%
%TO.N,IO12*%
X146400000Y-102080000D03*
%TO.P,J6,15*%
%TO.N,IO4*%
X146400000Y-104620000D03*
%TO.P,J6,16*%
%TO.N,IO16*%
X146400000Y-107160000D03*
%TO.P,J6,17*%
%TO.N,IO17*%
X146400000Y-109700000D03*
%TO.P,J6,18*%
%TO.N,RESET*%
X146400000Y-112240000D03*
%TD*%
D14*
%TO.N,GND*%
X132700000Y-76700000D03*
D15*
X124900000Y-108800000D03*
X139350000Y-112600000D03*
X138800000Y-113100000D03*
X135000000Y-108300000D03*
X134884312Y-106200001D03*
X135526916Y-105764833D03*
X124500000Y-101400000D03*
X128100000Y-99500000D03*
X130100000Y-103200000D03*
X130300000Y-100100000D03*
X139350000Y-98600000D03*
X133200000Y-98500000D03*
X139250000Y-92700000D03*
X124700000Y-87900000D03*
X125500000Y-89300000D03*
X129350000Y-84850000D03*
X124184207Y-89285786D03*
X140200000Y-69950000D03*
X124000000Y-68700000D03*
X126400000Y-68700000D03*
X129200000Y-95000000D03*
X125900000Y-95400000D03*
X135550000Y-90700000D03*
X122900000Y-91250000D03*
X127600000Y-103300000D03*
X131700000Y-91500000D03*
X128000000Y-111700000D03*
X127200000Y-111700000D03*
X137200000Y-111200000D03*
%TO.N,Net-(C2-Pad1)*%
X132200000Y-105000000D03*
X132200000Y-100600000D03*
X132200000Y-94400000D03*
%TO.N,VDD*%
X130000000Y-90800000D03*
X129600000Y-91800000D03*
X144649999Y-101400000D03*
X139350000Y-105100000D03*
X144972382Y-96746209D03*
X125558943Y-87346058D03*
X123500000Y-87900000D03*
X125900000Y-88200000D03*
X123900000Y-70650000D03*
X126149567Y-70734999D03*
%TO.N,RESET*%
X141400000Y-95400000D03*
X141400000Y-89400000D03*
X133050000Y-95100000D03*
X133100000Y-71800000D03*
%TO.N,Net-(D3-Pad1)*%
X124300000Y-93600000D03*
X124709224Y-91386100D03*
%TO.N,VBUS*%
X135550000Y-92600000D03*
X136200000Y-113100000D03*
%TO.N,IO21*%
X137600000Y-83000000D03*
X137600000Y-75600000D03*
%TO.N,IO17*%
X134100000Y-81350000D03*
X134100000Y-114800000D03*
%TO.N,IO16*%
X140100000Y-113800000D03*
X140100000Y-83200000D03*
%TO.N,GPIO0*%
X141400000Y-88399997D03*
X141500000Y-85700000D03*
%TO.N,DTR*%
X142900000Y-105100000D03*
X142900000Y-94586320D03*
%TO.N,RTS*%
X142150000Y-103800000D03*
X142150000Y-93800000D03*
%TO.N,CH340GND*%
X136700000Y-98100000D03*
X136700000Y-89500000D03*
%TO.N,TXD0*%
X135900000Y-98800000D03*
X135900000Y-73000000D03*
X128900000Y-74600000D03*
%TO.N,RXD0*%
X127050000Y-70300000D03*
X134800000Y-73600000D03*
X134800000Y-70300000D03*
X135000000Y-100300000D03*
%TO.N,IO2*%
X128600000Y-92000000D03*
X128600000Y-82100000D03*
X139300000Y-82100000D03*
X139300000Y-85600000D03*
%TO.N,I35*%
X144000000Y-76000000D03*
X139400000Y-77750000D03*
X127000000Y-98500000D03*
X127189998Y-76865000D03*
%TO.N,I36*%
X128800000Y-68500000D03*
X128800000Y-73100000D03*
%TO.N,I39*%
X144000000Y-69200000D03*
X139400000Y-69200000D03*
X127800000Y-69200000D03*
X127800000Y-74300000D03*
%TO.N,I34*%
X144000000Y-74100000D03*
X139400000Y-71050000D03*
X129700000Y-71050000D03*
X129599998Y-75600000D03*
%TO.N,IO32*%
X126400000Y-78100000D03*
%TO.N,IO33*%
X126400000Y-79400000D03*
%TO.N,IO14*%
X138500000Y-96500000D03*
X138350000Y-88376087D03*
%TO.N,IO12*%
X137600000Y-97300000D03*
X137600000Y-84100000D03*
%TO.N,IO13*%
X130500000Y-84900000D03*
X130500000Y-89400000D03*
X126500000Y-91000000D03*
%TO.N,IO15*%
X144000000Y-77000000D03*
X140400000Y-77000000D03*
X136800000Y-77000000D03*
X136800000Y-85000000D03*
%TO.N,IO4*%
X143500000Y-111500000D03*
X143200000Y-84500000D03*
%TO.N,IO5*%
X127900000Y-80500000D03*
X127850000Y-90100000D03*
%TO.N,IO18*%
X143000000Y-86900000D03*
X141200000Y-79624998D03*
%TO.N,IO19*%
X145500011Y-91300000D03*
X143500000Y-78200000D03*
%TO.N,IO22*%
X138550000Y-84700000D03*
X138600000Y-71800000D03*
%TO.N,IO23*%
X143500000Y-70500000D03*
%TD*%
D16*
%TO.N,Net-(C2-Pad1)*%
X132200000Y-105000000D02*
X132200000Y-100600000D01*
X132200000Y-100600000D02*
X132200000Y-94400000D01*
D17*
%TO.N,RESET*%
X142100000Y-114100000D02*
X144540000Y-114100000D01*
X144540000Y-114100000D02*
X146400000Y-112240000D01*
X141400000Y-113400000D02*
X142100000Y-114100000D01*
X141400000Y-95400000D02*
X141400000Y-113400000D01*
X141400000Y-95400000D02*
X141400000Y-89400000D01*
X133050000Y-81550000D02*
X133050000Y-95100000D01*
X133050000Y-81289998D02*
X133050000Y-81550000D01*
X133100000Y-71800000D02*
X133050000Y-71850000D01*
X134349991Y-79990007D02*
X133050000Y-81289998D01*
X133050000Y-71850000D02*
X133050000Y-72950000D01*
X134349991Y-74249991D02*
X134349991Y-79990007D01*
X133050000Y-72950000D02*
X134349991Y-74249991D01*
%TO.N,Net-(D3-Pad1)*%
X124300000Y-91795324D02*
X124709224Y-91386100D01*
X124300000Y-93600000D02*
X124300000Y-91795324D01*
%TO.N,VBUS*%
X136276917Y-100466915D02*
X136276917Y-111013081D01*
X135149999Y-99339997D02*
X136276917Y-100466915D01*
X135149999Y-93000001D02*
X135149999Y-99339997D01*
X135550000Y-92600000D02*
X135149999Y-93000001D01*
X136276917Y-113023083D02*
X136200000Y-113100000D01*
X136276917Y-111013081D02*
X136276917Y-113023083D01*
%TO.N,IO21*%
X137600000Y-83000000D02*
X137600000Y-75600000D01*
%TO.N,IO17*%
X134100000Y-114800000D02*
X134100000Y-81350000D01*
%TO.N,IO16*%
X140100000Y-113800000D02*
X140100000Y-83200000D01*
%TO.N,GPIO0*%
X141400000Y-85750000D02*
X141350000Y-85700000D01*
X141400000Y-88399997D02*
X141400000Y-85750000D01*
%TO.N,DTR*%
X142900000Y-105100000D02*
X142900000Y-94586320D01*
%TO.N,RTS*%
X142150000Y-103800000D02*
X142150000Y-93800000D01*
D16*
%TO.N,CH340GND*%
X136700000Y-98100000D02*
X136700000Y-96941998D01*
X136700000Y-96941998D02*
X136999990Y-96642008D01*
X136999990Y-89799990D02*
X136700000Y-89500000D01*
X136999990Y-96642008D02*
X136999990Y-89799990D01*
D17*
%TO.N,TXD0*%
X128449999Y-75050001D02*
X126550001Y-75050001D01*
X128900000Y-74600000D02*
X128449999Y-75050001D01*
X123100000Y-71600000D02*
X121000000Y-71600000D01*
X126550001Y-75050001D02*
X123100000Y-71600000D01*
X135900000Y-89810002D02*
X135900000Y-73000000D01*
X135900000Y-98800000D02*
X135900000Y-96796708D01*
X136300000Y-90210002D02*
X135900000Y-89810002D01*
X136300000Y-96396708D02*
X136300000Y-90210002D01*
X135900000Y-96796708D02*
X136300000Y-96396708D01*
%TO.N,RXD0*%
X127050000Y-70300000D02*
X126650000Y-69900000D01*
X121840000Y-69900000D02*
X121000000Y-69060000D01*
X126650000Y-69900000D02*
X121840000Y-69900000D01*
X134800000Y-73600000D02*
X134800000Y-70300000D01*
X135000000Y-100300000D02*
X134600000Y-99900000D01*
X134850001Y-73650001D02*
X134800000Y-73600000D01*
X134850001Y-81710001D02*
X134850001Y-73650001D01*
X134600000Y-81960002D02*
X134850001Y-81710001D01*
X134600000Y-99900000D02*
X134600000Y-81960002D01*
%TO.N,IO2*%
X128600000Y-92000000D02*
X128600000Y-82100000D01*
X139300000Y-82100000D02*
X139300000Y-85600000D01*
%TO.N,I35*%
X140289998Y-76000000D02*
X139400000Y-76889998D01*
X139400000Y-76889998D02*
X139400000Y-77750000D01*
X144000000Y-76000000D02*
X140289998Y-76000000D01*
X127000000Y-79910002D02*
X127189998Y-79720004D01*
X127000000Y-90360002D02*
X127000000Y-79910002D01*
X127900000Y-91260002D02*
X127000000Y-90360002D01*
X127000000Y-92600000D02*
X127900000Y-91700000D01*
X127189998Y-79720004D02*
X127189998Y-76865000D01*
X127900000Y-91700000D02*
X127900000Y-91260002D01*
X127000000Y-98500000D02*
X127000000Y-92600000D01*
%TO.N,I36*%
X128800000Y-68500000D02*
X128800000Y-73100000D01*
%TO.N,I39*%
X144000000Y-69200000D02*
X139400000Y-69200000D01*
X127800000Y-69200000D02*
X127800000Y-74300000D01*
%TO.N,I34*%
X144000000Y-74100000D02*
X143500000Y-74600000D01*
X143500000Y-74600000D02*
X139700000Y-74600000D01*
X139400000Y-74300000D02*
X139400000Y-71050000D01*
X139700000Y-74600000D02*
X139400000Y-74300000D01*
X129700000Y-75499998D02*
X129599998Y-75600000D01*
X129700000Y-71050000D02*
X129700000Y-75499998D01*
%TO.N,IO32*%
X122740000Y-81760000D02*
X121000000Y-81760000D01*
X126400000Y-78100000D02*
X122740000Y-81760000D01*
%TO.N,IO33*%
X121500000Y-84300000D02*
X121000000Y-84300000D01*
X126400000Y-79400000D02*
X121500000Y-84300000D01*
%TO.N,IO14*%
X138500000Y-88526087D02*
X138350000Y-88376087D01*
X138500000Y-96500000D02*
X138500000Y-88526087D01*
%TO.N,IO12*%
X137600000Y-97300000D02*
X137600000Y-84100000D01*
%TO.N,IO13*%
X130500000Y-84900000D02*
X130500000Y-89400000D01*
X125433126Y-91000000D02*
X124933126Y-90500000D01*
X126500000Y-91000000D02*
X125433126Y-91000000D01*
X124933126Y-90500000D02*
X122700000Y-90500000D01*
X122700000Y-90500000D02*
X122200000Y-90000000D01*
X122200000Y-88040000D02*
X121000000Y-86840000D01*
X122200000Y-90000000D02*
X122200000Y-88040000D01*
%TO.N,IO15*%
X144000000Y-77000000D02*
X140400000Y-77000000D01*
X136800000Y-77000000D02*
X136800000Y-85000000D01*
%TO.N,IO4*%
X143899999Y-85199999D02*
X143200000Y-84500000D01*
X143899999Y-111100001D02*
X143899999Y-85199999D01*
X143500000Y-111500000D02*
X143899999Y-111100001D01*
%TO.N,IO5*%
X127850000Y-80550000D02*
X127850000Y-90100000D01*
X127900000Y-80500000D02*
X127850000Y-80550000D01*
%TO.N,IO18*%
X141200000Y-84289998D02*
X141200000Y-79624998D01*
X143000000Y-86089998D02*
X141200000Y-84289998D01*
X143000000Y-86900000D02*
X143000000Y-86089998D01*
%TO.N,IO19*%
X145500011Y-91300000D02*
X144400009Y-90199998D01*
X144400009Y-79100009D02*
X143500000Y-78200000D01*
X144400009Y-90199998D02*
X144400009Y-79100009D01*
%TO.N,IO22*%
X138550000Y-71850000D02*
X138600000Y-71800000D01*
X138550000Y-84700000D02*
X138550000Y-71850000D01*
%TO.N,IO23*%
X146400000Y-89380000D02*
X146320000Y-89380000D01*
X146320000Y-89380000D02*
X144900019Y-87960019D01*
X144900019Y-71900019D02*
X143500000Y-70500000D01*
X144900019Y-87960019D02*
X144900019Y-71900019D01*
%TD*%
M02*
