%TF.GenerationSoftware,KiCad,Pcbnew,(5.1.8-0-10_14)*%
%TF.CreationDate,2020-12-13T22:38:35+09:00*%
%TF.ProjectId,mini-esp32,6d696e69-2d65-4737-9033-322e6b696361,rev?*%
%TF.SameCoordinates,Original*%
%TF.FileFunction,Soldermask,Top*%
%TF.FilePolarity,Negative*%
%FSLAX46Y46*%
G04 Gerber Fmt 4.6, Leading zero omitted, Abs format (unit mm)*
G04 Created by KiCad (PCBNEW (5.1.8-0-10_14)) date 2020-12-13 22:38:35*
%MOMM*%
%LPD*%
G01*
G04 APERTURE LIST*
%ADD10R,2.600000X2.600000*%
%ADD11R,0.900000X0.800000*%
%ADD12R,5.000000X5.000000*%
%ADD13R,2.000000X0.900000*%
%ADD14R,0.900000X2.000000*%
%ADD15R,0.400000X2.000000*%
%ADD16R,1.600000X1.200000*%
%ADD17O,1.300000X2.200000*%
%ADD18C,1.200000*%
%ADD19R,1.200000X0.900000*%
%ADD20R,0.800000X0.900000*%
%ADD21R,1.700000X1.000000*%
%ADD22R,0.650000X1.220000*%
%ADD23C,3.000000*%
%ADD24O,1.700000X1.700000*%
%ADD25R,1.700000X1.700000*%
G04 APERTURE END LIST*
D10*
%TO.C,U4*%
X139900000Y-107500000D03*
G36*
G01*
X138312500Y-108875000D02*
X137612500Y-108875000D01*
G75*
G02*
X137550000Y-108812500I0J62500D01*
G01*
X137550000Y-108687500D01*
G75*
G02*
X137612500Y-108625000I62500J0D01*
G01*
X138312500Y-108625000D01*
G75*
G02*
X138375000Y-108687500I0J-62500D01*
G01*
X138375000Y-108812500D01*
G75*
G02*
X138312500Y-108875000I-62500J0D01*
G01*
G37*
G36*
G01*
X138312500Y-108375000D02*
X137612500Y-108375000D01*
G75*
G02*
X137550000Y-108312500I0J62500D01*
G01*
X137550000Y-108187500D01*
G75*
G02*
X137612500Y-108125000I62500J0D01*
G01*
X138312500Y-108125000D01*
G75*
G02*
X138375000Y-108187500I0J-62500D01*
G01*
X138375000Y-108312500D01*
G75*
G02*
X138312500Y-108375000I-62500J0D01*
G01*
G37*
G36*
G01*
X138312500Y-107875000D02*
X137612500Y-107875000D01*
G75*
G02*
X137550000Y-107812500I0J62500D01*
G01*
X137550000Y-107687500D01*
G75*
G02*
X137612500Y-107625000I62500J0D01*
G01*
X138312500Y-107625000D01*
G75*
G02*
X138375000Y-107687500I0J-62500D01*
G01*
X138375000Y-107812500D01*
G75*
G02*
X138312500Y-107875000I-62500J0D01*
G01*
G37*
G36*
G01*
X138312500Y-107375000D02*
X137612500Y-107375000D01*
G75*
G02*
X137550000Y-107312500I0J62500D01*
G01*
X137550000Y-107187500D01*
G75*
G02*
X137612500Y-107125000I62500J0D01*
G01*
X138312500Y-107125000D01*
G75*
G02*
X138375000Y-107187500I0J-62500D01*
G01*
X138375000Y-107312500D01*
G75*
G02*
X138312500Y-107375000I-62500J0D01*
G01*
G37*
G36*
G01*
X138312500Y-106875000D02*
X137612500Y-106875000D01*
G75*
G02*
X137550000Y-106812500I0J62500D01*
G01*
X137550000Y-106687500D01*
G75*
G02*
X137612500Y-106625000I62500J0D01*
G01*
X138312500Y-106625000D01*
G75*
G02*
X138375000Y-106687500I0J-62500D01*
G01*
X138375000Y-106812500D01*
G75*
G02*
X138312500Y-106875000I-62500J0D01*
G01*
G37*
G36*
G01*
X138312500Y-106375000D02*
X137612500Y-106375000D01*
G75*
G02*
X137550000Y-106312500I0J62500D01*
G01*
X137550000Y-106187500D01*
G75*
G02*
X137612500Y-106125000I62500J0D01*
G01*
X138312500Y-106125000D01*
G75*
G02*
X138375000Y-106187500I0J-62500D01*
G01*
X138375000Y-106312500D01*
G75*
G02*
X138312500Y-106375000I-62500J0D01*
G01*
G37*
G36*
G01*
X138712500Y-105975000D02*
X138587500Y-105975000D01*
G75*
G02*
X138525000Y-105912500I0J62500D01*
G01*
X138525000Y-105212500D01*
G75*
G02*
X138587500Y-105150000I62500J0D01*
G01*
X138712500Y-105150000D01*
G75*
G02*
X138775000Y-105212500I0J-62500D01*
G01*
X138775000Y-105912500D01*
G75*
G02*
X138712500Y-105975000I-62500J0D01*
G01*
G37*
G36*
G01*
X139212500Y-105975000D02*
X139087500Y-105975000D01*
G75*
G02*
X139025000Y-105912500I0J62500D01*
G01*
X139025000Y-105212500D01*
G75*
G02*
X139087500Y-105150000I62500J0D01*
G01*
X139212500Y-105150000D01*
G75*
G02*
X139275000Y-105212500I0J-62500D01*
G01*
X139275000Y-105912500D01*
G75*
G02*
X139212500Y-105975000I-62500J0D01*
G01*
G37*
G36*
G01*
X139712500Y-105975000D02*
X139587500Y-105975000D01*
G75*
G02*
X139525000Y-105912500I0J62500D01*
G01*
X139525000Y-105212500D01*
G75*
G02*
X139587500Y-105150000I62500J0D01*
G01*
X139712500Y-105150000D01*
G75*
G02*
X139775000Y-105212500I0J-62500D01*
G01*
X139775000Y-105912500D01*
G75*
G02*
X139712500Y-105975000I-62500J0D01*
G01*
G37*
G36*
G01*
X140212500Y-105975000D02*
X140087500Y-105975000D01*
G75*
G02*
X140025000Y-105912500I0J62500D01*
G01*
X140025000Y-105212500D01*
G75*
G02*
X140087500Y-105150000I62500J0D01*
G01*
X140212500Y-105150000D01*
G75*
G02*
X140275000Y-105212500I0J-62500D01*
G01*
X140275000Y-105912500D01*
G75*
G02*
X140212500Y-105975000I-62500J0D01*
G01*
G37*
G36*
G01*
X140712500Y-105975000D02*
X140587500Y-105975000D01*
G75*
G02*
X140525000Y-105912500I0J62500D01*
G01*
X140525000Y-105212500D01*
G75*
G02*
X140587500Y-105150000I62500J0D01*
G01*
X140712500Y-105150000D01*
G75*
G02*
X140775000Y-105212500I0J-62500D01*
G01*
X140775000Y-105912500D01*
G75*
G02*
X140712500Y-105975000I-62500J0D01*
G01*
G37*
G36*
G01*
X141212500Y-105975000D02*
X141087500Y-105975000D01*
G75*
G02*
X141025000Y-105912500I0J62500D01*
G01*
X141025000Y-105212500D01*
G75*
G02*
X141087500Y-105150000I62500J0D01*
G01*
X141212500Y-105150000D01*
G75*
G02*
X141275000Y-105212500I0J-62500D01*
G01*
X141275000Y-105912500D01*
G75*
G02*
X141212500Y-105975000I-62500J0D01*
G01*
G37*
G36*
G01*
X142187500Y-106375000D02*
X141487500Y-106375000D01*
G75*
G02*
X141425000Y-106312500I0J62500D01*
G01*
X141425000Y-106187500D01*
G75*
G02*
X141487500Y-106125000I62500J0D01*
G01*
X142187500Y-106125000D01*
G75*
G02*
X142250000Y-106187500I0J-62500D01*
G01*
X142250000Y-106312500D01*
G75*
G02*
X142187500Y-106375000I-62500J0D01*
G01*
G37*
G36*
G01*
X142187500Y-106875000D02*
X141487500Y-106875000D01*
G75*
G02*
X141425000Y-106812500I0J62500D01*
G01*
X141425000Y-106687500D01*
G75*
G02*
X141487500Y-106625000I62500J0D01*
G01*
X142187500Y-106625000D01*
G75*
G02*
X142250000Y-106687500I0J-62500D01*
G01*
X142250000Y-106812500D01*
G75*
G02*
X142187500Y-106875000I-62500J0D01*
G01*
G37*
G36*
G01*
X142187500Y-107375000D02*
X141487500Y-107375000D01*
G75*
G02*
X141425000Y-107312500I0J62500D01*
G01*
X141425000Y-107187500D01*
G75*
G02*
X141487500Y-107125000I62500J0D01*
G01*
X142187500Y-107125000D01*
G75*
G02*
X142250000Y-107187500I0J-62500D01*
G01*
X142250000Y-107312500D01*
G75*
G02*
X142187500Y-107375000I-62500J0D01*
G01*
G37*
G36*
G01*
X142187500Y-107875000D02*
X141487500Y-107875000D01*
G75*
G02*
X141425000Y-107812500I0J62500D01*
G01*
X141425000Y-107687500D01*
G75*
G02*
X141487500Y-107625000I62500J0D01*
G01*
X142187500Y-107625000D01*
G75*
G02*
X142250000Y-107687500I0J-62500D01*
G01*
X142250000Y-107812500D01*
G75*
G02*
X142187500Y-107875000I-62500J0D01*
G01*
G37*
G36*
G01*
X142187500Y-108375000D02*
X141487500Y-108375000D01*
G75*
G02*
X141425000Y-108312500I0J62500D01*
G01*
X141425000Y-108187500D01*
G75*
G02*
X141487500Y-108125000I62500J0D01*
G01*
X142187500Y-108125000D01*
G75*
G02*
X142250000Y-108187500I0J-62500D01*
G01*
X142250000Y-108312500D01*
G75*
G02*
X142187500Y-108375000I-62500J0D01*
G01*
G37*
G36*
G01*
X142187500Y-108875000D02*
X141487500Y-108875000D01*
G75*
G02*
X141425000Y-108812500I0J62500D01*
G01*
X141425000Y-108687500D01*
G75*
G02*
X141487500Y-108625000I62500J0D01*
G01*
X142187500Y-108625000D01*
G75*
G02*
X142250000Y-108687500I0J-62500D01*
G01*
X142250000Y-108812500D01*
G75*
G02*
X142187500Y-108875000I-62500J0D01*
G01*
G37*
G36*
G01*
X141212500Y-109850000D02*
X141087500Y-109850000D01*
G75*
G02*
X141025000Y-109787500I0J62500D01*
G01*
X141025000Y-109087500D01*
G75*
G02*
X141087500Y-109025000I62500J0D01*
G01*
X141212500Y-109025000D01*
G75*
G02*
X141275000Y-109087500I0J-62500D01*
G01*
X141275000Y-109787500D01*
G75*
G02*
X141212500Y-109850000I-62500J0D01*
G01*
G37*
G36*
G01*
X140712500Y-109850000D02*
X140587500Y-109850000D01*
G75*
G02*
X140525000Y-109787500I0J62500D01*
G01*
X140525000Y-109087500D01*
G75*
G02*
X140587500Y-109025000I62500J0D01*
G01*
X140712500Y-109025000D01*
G75*
G02*
X140775000Y-109087500I0J-62500D01*
G01*
X140775000Y-109787500D01*
G75*
G02*
X140712500Y-109850000I-62500J0D01*
G01*
G37*
G36*
G01*
X140212500Y-109850000D02*
X140087500Y-109850000D01*
G75*
G02*
X140025000Y-109787500I0J62500D01*
G01*
X140025000Y-109087500D01*
G75*
G02*
X140087500Y-109025000I62500J0D01*
G01*
X140212500Y-109025000D01*
G75*
G02*
X140275000Y-109087500I0J-62500D01*
G01*
X140275000Y-109787500D01*
G75*
G02*
X140212500Y-109850000I-62500J0D01*
G01*
G37*
G36*
G01*
X139712500Y-109850000D02*
X139587500Y-109850000D01*
G75*
G02*
X139525000Y-109787500I0J62500D01*
G01*
X139525000Y-109087500D01*
G75*
G02*
X139587500Y-109025000I62500J0D01*
G01*
X139712500Y-109025000D01*
G75*
G02*
X139775000Y-109087500I0J-62500D01*
G01*
X139775000Y-109787500D01*
G75*
G02*
X139712500Y-109850000I-62500J0D01*
G01*
G37*
G36*
G01*
X139212500Y-109850000D02*
X139087500Y-109850000D01*
G75*
G02*
X139025000Y-109787500I0J62500D01*
G01*
X139025000Y-109087500D01*
G75*
G02*
X139087500Y-109025000I62500J0D01*
G01*
X139212500Y-109025000D01*
G75*
G02*
X139275000Y-109087500I0J-62500D01*
G01*
X139275000Y-109787500D01*
G75*
G02*
X139212500Y-109850000I-62500J0D01*
G01*
G37*
G36*
G01*
X138712500Y-109850000D02*
X138587500Y-109850000D01*
G75*
G02*
X138525000Y-109787500I0J62500D01*
G01*
X138525000Y-109087500D01*
G75*
G02*
X138587500Y-109025000I62500J0D01*
G01*
X138712500Y-109025000D01*
G75*
G02*
X138775000Y-109087500I0J-62500D01*
G01*
X138775000Y-109787500D01*
G75*
G02*
X138712500Y-109850000I-62500J0D01*
G01*
G37*
%TD*%
%TO.C,R2*%
G36*
G01*
X142915000Y-106640000D02*
X143285000Y-106640000D01*
G75*
G02*
X143420000Y-106775000I0J-135000D01*
G01*
X143420000Y-107045000D01*
G75*
G02*
X143285000Y-107180000I-135000J0D01*
G01*
X142915000Y-107180000D01*
G75*
G02*
X142780000Y-107045000I0J135000D01*
G01*
X142780000Y-106775000D01*
G75*
G02*
X142915000Y-106640000I135000J0D01*
G01*
G37*
G36*
G01*
X142915000Y-105620000D02*
X143285000Y-105620000D01*
G75*
G02*
X143420000Y-105755000I0J-135000D01*
G01*
X143420000Y-106025000D01*
G75*
G02*
X143285000Y-106160000I-135000J0D01*
G01*
X142915000Y-106160000D01*
G75*
G02*
X142780000Y-106025000I0J135000D01*
G01*
X142780000Y-105755000D01*
G75*
G02*
X142915000Y-105620000I135000J0D01*
G01*
G37*
%TD*%
%TO.C,C10*%
G36*
G01*
X141800000Y-110870000D02*
X141800000Y-110530000D01*
G75*
G02*
X141940000Y-110390000I140000J0D01*
G01*
X142220000Y-110390000D01*
G75*
G02*
X142360000Y-110530000I0J-140000D01*
G01*
X142360000Y-110870000D01*
G75*
G02*
X142220000Y-111010000I-140000J0D01*
G01*
X141940000Y-111010000D01*
G75*
G02*
X141800000Y-110870000I0J140000D01*
G01*
G37*
G36*
G01*
X140840000Y-110870000D02*
X140840000Y-110530000D01*
G75*
G02*
X140980000Y-110390000I140000J0D01*
G01*
X141260000Y-110390000D01*
G75*
G02*
X141400000Y-110530000I0J-140000D01*
G01*
X141400000Y-110870000D01*
G75*
G02*
X141260000Y-111010000I-140000J0D01*
G01*
X140980000Y-111010000D01*
G75*
G02*
X140840000Y-110870000I0J140000D01*
G01*
G37*
%TD*%
%TO.C,C9*%
G36*
G01*
X143270000Y-108400000D02*
X142930000Y-108400000D01*
G75*
G02*
X142790000Y-108260000I0J140000D01*
G01*
X142790000Y-107980000D01*
G75*
G02*
X142930000Y-107840000I140000J0D01*
G01*
X143270000Y-107840000D01*
G75*
G02*
X143410000Y-107980000I0J-140000D01*
G01*
X143410000Y-108260000D01*
G75*
G02*
X143270000Y-108400000I-140000J0D01*
G01*
G37*
G36*
G01*
X143270000Y-109360000D02*
X142930000Y-109360000D01*
G75*
G02*
X142790000Y-109220000I0J140000D01*
G01*
X142790000Y-108940000D01*
G75*
G02*
X142930000Y-108800000I140000J0D01*
G01*
X143270000Y-108800000D01*
G75*
G02*
X143410000Y-108940000I0J-140000D01*
G01*
X143410000Y-109220000D01*
G75*
G02*
X143270000Y-109360000I-140000J0D01*
G01*
G37*
%TD*%
D11*
%TO.C,U5*%
X123900000Y-103950000D03*
X123900000Y-105850000D03*
X125900000Y-104900000D03*
%TD*%
%TO.C,C3*%
G36*
G01*
X128600000Y-89330000D02*
X128600000Y-89670000D01*
G75*
G02*
X128460000Y-89810000I-140000J0D01*
G01*
X128180000Y-89810000D01*
G75*
G02*
X128040000Y-89670000I0J140000D01*
G01*
X128040000Y-89330000D01*
G75*
G02*
X128180000Y-89190000I140000J0D01*
G01*
X128460000Y-89190000D01*
G75*
G02*
X128600000Y-89330000I0J-140000D01*
G01*
G37*
G36*
G01*
X129560000Y-89330000D02*
X129560000Y-89670000D01*
G75*
G02*
X129420000Y-89810000I-140000J0D01*
G01*
X129140000Y-89810000D01*
G75*
G02*
X129000000Y-89670000I0J140000D01*
G01*
X129000000Y-89330000D01*
G75*
G02*
X129140000Y-89190000I140000J0D01*
G01*
X129420000Y-89190000D01*
G75*
G02*
X129560000Y-89330000I0J-140000D01*
G01*
G37*
%TD*%
D12*
%TO.C,U1*%
X132700000Y-76745000D03*
D13*
X125200000Y-69245000D03*
X125200000Y-70515000D03*
X125200000Y-71785000D03*
X125200000Y-73055000D03*
X125200000Y-74325000D03*
X125200000Y-75595000D03*
X125200000Y-76865000D03*
X125200000Y-78135000D03*
X125200000Y-79405000D03*
X125200000Y-80675000D03*
X125200000Y-81945000D03*
X125200000Y-83215000D03*
X125200000Y-84485000D03*
X125200000Y-85755000D03*
D14*
X127985000Y-86755000D03*
X129255000Y-86755000D03*
X130525000Y-86755000D03*
X131795000Y-86755000D03*
X133065000Y-86755000D03*
X134335000Y-86755000D03*
X135605000Y-86755000D03*
X136875000Y-86755000D03*
X138145000Y-86755000D03*
X139415000Y-86755000D03*
D13*
X142200000Y-85755000D03*
X142200000Y-84485000D03*
X142200000Y-83215000D03*
X142200000Y-81945000D03*
X142200000Y-80675000D03*
X142200000Y-79405000D03*
X142200000Y-78135000D03*
X142200000Y-76865000D03*
X142200000Y-75595000D03*
X142200000Y-74325000D03*
X142200000Y-73055000D03*
X142200000Y-71785000D03*
X142200000Y-70515000D03*
X142200000Y-69245000D03*
%TD*%
D15*
%TO.C,J2*%
X139299000Y-114713000D03*
X138649000Y-114713000D03*
X137999000Y-114713000D03*
X137349000Y-114713000D03*
X136699000Y-114713000D03*
D16*
X139605000Y-119025000D03*
X136326000Y-119009000D03*
D17*
X141628000Y-118198000D03*
X134389000Y-118198000D03*
D18*
X135584000Y-115498000D03*
X140434000Y-115498000D03*
%TD*%
%TO.C,C1*%
G36*
G01*
X127425000Y-94650000D02*
X127425000Y-94150000D01*
G75*
G02*
X127650000Y-93925000I225000J0D01*
G01*
X128100000Y-93925000D01*
G75*
G02*
X128325000Y-94150000I0J-225000D01*
G01*
X128325000Y-94650000D01*
G75*
G02*
X128100000Y-94875000I-225000J0D01*
G01*
X127650000Y-94875000D01*
G75*
G02*
X127425000Y-94650000I0J225000D01*
G01*
G37*
G36*
G01*
X125875000Y-94650000D02*
X125875000Y-94150000D01*
G75*
G02*
X126100000Y-93925000I225000J0D01*
G01*
X126550000Y-93925000D01*
G75*
G02*
X126775000Y-94150000I0J-225000D01*
G01*
X126775000Y-94650000D01*
G75*
G02*
X126550000Y-94875000I-225000J0D01*
G01*
X126100000Y-94875000D01*
G75*
G02*
X125875000Y-94650000I0J225000D01*
G01*
G37*
%TD*%
%TO.C,C2*%
G36*
G01*
X128870000Y-91620000D02*
X129210000Y-91620000D01*
G75*
G02*
X129350000Y-91760000I0J-140000D01*
G01*
X129350000Y-92040000D01*
G75*
G02*
X129210000Y-92180000I-140000J0D01*
G01*
X128870000Y-92180000D01*
G75*
G02*
X128730000Y-92040000I0J140000D01*
G01*
X128730000Y-91760000D01*
G75*
G02*
X128870000Y-91620000I140000J0D01*
G01*
G37*
G36*
G01*
X128870000Y-92580000D02*
X129210000Y-92580000D01*
G75*
G02*
X129350000Y-92720000I0J-140000D01*
G01*
X129350000Y-93000000D01*
G75*
G02*
X129210000Y-93140000I-140000J0D01*
G01*
X128870000Y-93140000D01*
G75*
G02*
X128730000Y-93000000I0J140000D01*
G01*
X128730000Y-92720000D01*
G75*
G02*
X128870000Y-92580000I140000J0D01*
G01*
G37*
%TD*%
%TO.C,C5*%
G36*
G01*
X125600000Y-102275000D02*
X125100000Y-102275000D01*
G75*
G02*
X124875000Y-102050000I0J225000D01*
G01*
X124875000Y-101600000D01*
G75*
G02*
X125100000Y-101375000I225000J0D01*
G01*
X125600000Y-101375000D01*
G75*
G02*
X125825000Y-101600000I0J-225000D01*
G01*
X125825000Y-102050000D01*
G75*
G02*
X125600000Y-102275000I-225000J0D01*
G01*
G37*
G36*
G01*
X125600000Y-100725000D02*
X125100000Y-100725000D01*
G75*
G02*
X124875000Y-100500000I0J225000D01*
G01*
X124875000Y-100050000D01*
G75*
G02*
X125100000Y-99825000I225000J0D01*
G01*
X125600000Y-99825000D01*
G75*
G02*
X125825000Y-100050000I0J-225000D01*
G01*
X125825000Y-100500000D01*
G75*
G02*
X125600000Y-100725000I-225000J0D01*
G01*
G37*
%TD*%
%TO.C,C6*%
G36*
G01*
X123280000Y-87440000D02*
X123620000Y-87440000D01*
G75*
G02*
X123760000Y-87580000I0J-140000D01*
G01*
X123760000Y-87860000D01*
G75*
G02*
X123620000Y-88000000I-140000J0D01*
G01*
X123280000Y-88000000D01*
G75*
G02*
X123140000Y-87860000I0J140000D01*
G01*
X123140000Y-87580000D01*
G75*
G02*
X123280000Y-87440000I140000J0D01*
G01*
G37*
G36*
G01*
X123280000Y-88400000D02*
X123620000Y-88400000D01*
G75*
G02*
X123760000Y-88540000I0J-140000D01*
G01*
X123760000Y-88820000D01*
G75*
G02*
X123620000Y-88960000I-140000J0D01*
G01*
X123280000Y-88960000D01*
G75*
G02*
X123140000Y-88820000I0J140000D01*
G01*
X123140000Y-88540000D01*
G75*
G02*
X123280000Y-88400000I140000J0D01*
G01*
G37*
%TD*%
%TO.C,C7*%
G36*
G01*
X138230000Y-93556000D02*
X138230000Y-93896000D01*
G75*
G02*
X138090000Y-94036000I-140000J0D01*
G01*
X137810000Y-94036000D01*
G75*
G02*
X137670000Y-93896000I0J140000D01*
G01*
X137670000Y-93556000D01*
G75*
G02*
X137810000Y-93416000I140000J0D01*
G01*
X138090000Y-93416000D01*
G75*
G02*
X138230000Y-93556000I0J-140000D01*
G01*
G37*
G36*
G01*
X139190000Y-93556000D02*
X139190000Y-93896000D01*
G75*
G02*
X139050000Y-94036000I-140000J0D01*
G01*
X138770000Y-94036000D01*
G75*
G02*
X138630000Y-93896000I0J140000D01*
G01*
X138630000Y-93556000D01*
G75*
G02*
X138770000Y-93416000I140000J0D01*
G01*
X139050000Y-93416000D01*
G75*
G02*
X139190000Y-93556000I0J-140000D01*
G01*
G37*
%TD*%
%TO.C,C8*%
G36*
G01*
X137158000Y-93556000D02*
X137158000Y-93896000D01*
G75*
G02*
X137018000Y-94036000I-140000J0D01*
G01*
X136738000Y-94036000D01*
G75*
G02*
X136598000Y-93896000I0J140000D01*
G01*
X136598000Y-93556000D01*
G75*
G02*
X136738000Y-93416000I140000J0D01*
G01*
X137018000Y-93416000D01*
G75*
G02*
X137158000Y-93556000I0J-140000D01*
G01*
G37*
G36*
G01*
X136198000Y-93556000D02*
X136198000Y-93896000D01*
G75*
G02*
X136058000Y-94036000I-140000J0D01*
G01*
X135778000Y-94036000D01*
G75*
G02*
X135638000Y-93896000I0J140000D01*
G01*
X135638000Y-93556000D01*
G75*
G02*
X135778000Y-93416000I140000J0D01*
G01*
X136058000Y-93416000D01*
G75*
G02*
X136198000Y-93556000I0J-140000D01*
G01*
G37*
%TD*%
D19*
%TO.C,D1*%
X130600000Y-104750000D03*
X130600000Y-108050000D03*
%TD*%
%TO.C,D2*%
G36*
G01*
X125556250Y-96700000D02*
X125043750Y-96700000D01*
G75*
G02*
X124825000Y-96481250I0J218750D01*
G01*
X124825000Y-96043750D01*
G75*
G02*
X125043750Y-95825000I218750J0D01*
G01*
X125556250Y-95825000D01*
G75*
G02*
X125775000Y-96043750I0J-218750D01*
G01*
X125775000Y-96481250D01*
G75*
G02*
X125556250Y-96700000I-218750J0D01*
G01*
G37*
G36*
G01*
X125556250Y-98275000D02*
X125043750Y-98275000D01*
G75*
G02*
X124825000Y-98056250I0J218750D01*
G01*
X124825000Y-97618750D01*
G75*
G02*
X125043750Y-97400000I218750J0D01*
G01*
X125556250Y-97400000D01*
G75*
G02*
X125775000Y-97618750I0J-218750D01*
G01*
X125775000Y-98056250D01*
G75*
G02*
X125556250Y-98275000I-218750J0D01*
G01*
G37*
%TD*%
%TO.C,D3*%
G36*
G01*
X124810000Y-92481250D02*
X124810000Y-91968750D01*
G75*
G02*
X125028750Y-91750000I218750J0D01*
G01*
X125466250Y-91750000D01*
G75*
G02*
X125685000Y-91968750I0J-218750D01*
G01*
X125685000Y-92481250D01*
G75*
G02*
X125466250Y-92700000I-218750J0D01*
G01*
X125028750Y-92700000D01*
G75*
G02*
X124810000Y-92481250I0J218750D01*
G01*
G37*
G36*
G01*
X123235000Y-92481250D02*
X123235000Y-91968750D01*
G75*
G02*
X123453750Y-91750000I218750J0D01*
G01*
X123891250Y-91750000D01*
G75*
G02*
X124110000Y-91968750I0J-218750D01*
G01*
X124110000Y-92481250D01*
G75*
G02*
X123891250Y-92700000I-218750J0D01*
G01*
X123453750Y-92700000D01*
G75*
G02*
X123235000Y-92481250I0J218750D01*
G01*
G37*
%TD*%
%TO.C,FB1*%
G36*
G01*
X133600000Y-112781250D02*
X133600000Y-112018750D01*
G75*
G02*
X133818750Y-111800000I218750J0D01*
G01*
X134256250Y-111800000D01*
G75*
G02*
X134475000Y-112018750I0J-218750D01*
G01*
X134475000Y-112781250D01*
G75*
G02*
X134256250Y-113000000I-218750J0D01*
G01*
X133818750Y-113000000D01*
G75*
G02*
X133600000Y-112781250I0J218750D01*
G01*
G37*
G36*
G01*
X135725000Y-112781250D02*
X135725000Y-112018750D01*
G75*
G02*
X135943750Y-111800000I218750J0D01*
G01*
X136381250Y-111800000D01*
G75*
G02*
X136600000Y-112018750I0J-218750D01*
G01*
X136600000Y-112781250D01*
G75*
G02*
X136381250Y-113000000I-218750J0D01*
G01*
X135943750Y-113000000D01*
G75*
G02*
X135725000Y-112781250I0J218750D01*
G01*
G37*
%TD*%
%TO.C,J1*%
G36*
G01*
X126000000Y-115500000D02*
X126000000Y-118000000D01*
G75*
G02*
X125750000Y-118250000I-250000J0D01*
G01*
X124650000Y-118250000D01*
G75*
G02*
X124400000Y-118000000I0J250000D01*
G01*
X124400000Y-115500000D01*
G75*
G02*
X124650000Y-115250000I250000J0D01*
G01*
X125750000Y-115250000D01*
G75*
G02*
X126000000Y-115500000I0J-250000D01*
G01*
G37*
G36*
G01*
X132800000Y-115500000D02*
X132800000Y-118000000D01*
G75*
G02*
X132550000Y-118250000I-250000J0D01*
G01*
X131450000Y-118250000D01*
G75*
G02*
X131200000Y-118000000I0J250000D01*
G01*
X131200000Y-115500000D01*
G75*
G02*
X131450000Y-115250000I250000J0D01*
G01*
X132550000Y-115250000D01*
G75*
G02*
X132800000Y-115500000I0J-250000D01*
G01*
G37*
G36*
G01*
X128100000Y-112000000D02*
X128100000Y-117000000D01*
G75*
G02*
X127850000Y-117250000I-250000J0D01*
G01*
X127350000Y-117250000D01*
G75*
G02*
X127100000Y-117000000I0J250000D01*
G01*
X127100000Y-112000000D01*
G75*
G02*
X127350000Y-111750000I250000J0D01*
G01*
X127850000Y-111750000D01*
G75*
G02*
X128100000Y-112000000I0J-250000D01*
G01*
G37*
G36*
G01*
X130100000Y-112000000D02*
X130100000Y-117000000D01*
G75*
G02*
X129850000Y-117250000I-250000J0D01*
G01*
X129350000Y-117250000D01*
G75*
G02*
X129100000Y-117000000I0J250000D01*
G01*
X129100000Y-112000000D01*
G75*
G02*
X129350000Y-111750000I250000J0D01*
G01*
X129850000Y-111750000D01*
G75*
G02*
X130100000Y-112000000I0J-250000D01*
G01*
G37*
%TD*%
D20*
%TO.C,Q1*%
X134200000Y-101000000D03*
X132300000Y-101000000D03*
X133250000Y-103000000D03*
%TD*%
%TO.C,R1*%
G36*
G01*
X136240000Y-111185000D02*
X136240000Y-110815000D01*
G75*
G02*
X136375000Y-110680000I135000J0D01*
G01*
X136645000Y-110680000D01*
G75*
G02*
X136780000Y-110815000I0J-135000D01*
G01*
X136780000Y-111185000D01*
G75*
G02*
X136645000Y-111320000I-135000J0D01*
G01*
X136375000Y-111320000D01*
G75*
G02*
X136240000Y-111185000I0J135000D01*
G01*
G37*
G36*
G01*
X135220000Y-111185000D02*
X135220000Y-110815000D01*
G75*
G02*
X135355000Y-110680000I135000J0D01*
G01*
X135625000Y-110680000D01*
G75*
G02*
X135760000Y-110815000I0J-135000D01*
G01*
X135760000Y-111185000D01*
G75*
G02*
X135625000Y-111320000I-135000J0D01*
G01*
X135355000Y-111320000D01*
G75*
G02*
X135220000Y-111185000I0J135000D01*
G01*
G37*
%TD*%
%TO.C,R4*%
G36*
G01*
X124125000Y-101725000D02*
X123575000Y-101725000D01*
G75*
G02*
X123375000Y-101525000I0J200000D01*
G01*
X123375000Y-101125000D01*
G75*
G02*
X123575000Y-100925000I200000J0D01*
G01*
X124125000Y-100925000D01*
G75*
G02*
X124325000Y-101125000I0J-200000D01*
G01*
X124325000Y-101525000D01*
G75*
G02*
X124125000Y-101725000I-200000J0D01*
G01*
G37*
G36*
G01*
X124125000Y-100075000D02*
X123575000Y-100075000D01*
G75*
G02*
X123375000Y-99875000I0J200000D01*
G01*
X123375000Y-99475000D01*
G75*
G02*
X123575000Y-99275000I200000J0D01*
G01*
X124125000Y-99275000D01*
G75*
G02*
X124325000Y-99475000I0J-200000D01*
G01*
X124325000Y-99875000D01*
G75*
G02*
X124125000Y-100075000I-200000J0D01*
G01*
G37*
%TD*%
%TO.C,R5*%
G36*
G01*
X124285000Y-94110000D02*
X123915000Y-94110000D01*
G75*
G02*
X123780000Y-93975000I0J135000D01*
G01*
X123780000Y-93705000D01*
G75*
G02*
X123915000Y-93570000I135000J0D01*
G01*
X124285000Y-93570000D01*
G75*
G02*
X124420000Y-93705000I0J-135000D01*
G01*
X124420000Y-93975000D01*
G75*
G02*
X124285000Y-94110000I-135000J0D01*
G01*
G37*
G36*
G01*
X124285000Y-95130000D02*
X123915000Y-95130000D01*
G75*
G02*
X123780000Y-94995000I0J135000D01*
G01*
X123780000Y-94725000D01*
G75*
G02*
X123915000Y-94590000I135000J0D01*
G01*
X124285000Y-94590000D01*
G75*
G02*
X124420000Y-94725000I0J-135000D01*
G01*
X124420000Y-94995000D01*
G75*
G02*
X124285000Y-95130000I-135000J0D01*
G01*
G37*
%TD*%
%TO.C,R6*%
G36*
G01*
X124915000Y-94590000D02*
X125285000Y-94590000D01*
G75*
G02*
X125420000Y-94725000I0J-135000D01*
G01*
X125420000Y-94995000D01*
G75*
G02*
X125285000Y-95130000I-135000J0D01*
G01*
X124915000Y-95130000D01*
G75*
G02*
X124780000Y-94995000I0J135000D01*
G01*
X124780000Y-94725000D01*
G75*
G02*
X124915000Y-94590000I135000J0D01*
G01*
G37*
G36*
G01*
X124915000Y-93570000D02*
X125285000Y-93570000D01*
G75*
G02*
X125420000Y-93705000I0J-135000D01*
G01*
X125420000Y-93975000D01*
G75*
G02*
X125285000Y-94110000I-135000J0D01*
G01*
X124915000Y-94110000D01*
G75*
G02*
X124780000Y-93975000I0J135000D01*
G01*
X124780000Y-93705000D01*
G75*
G02*
X124915000Y-93570000I135000J0D01*
G01*
G37*
%TD*%
%TO.C,R7*%
G36*
G01*
X140050000Y-92885000D02*
X140050000Y-92515000D01*
G75*
G02*
X140185000Y-92380000I135000J0D01*
G01*
X140455000Y-92380000D01*
G75*
G02*
X140590000Y-92515000I0J-135000D01*
G01*
X140590000Y-92885000D01*
G75*
G02*
X140455000Y-93020000I-135000J0D01*
G01*
X140185000Y-93020000D01*
G75*
G02*
X140050000Y-92885000I0J135000D01*
G01*
G37*
G36*
G01*
X141070000Y-92885000D02*
X141070000Y-92515000D01*
G75*
G02*
X141205000Y-92380000I135000J0D01*
G01*
X141475000Y-92380000D01*
G75*
G02*
X141610000Y-92515000I0J-135000D01*
G01*
X141610000Y-92885000D01*
G75*
G02*
X141475000Y-93020000I-135000J0D01*
G01*
X141205000Y-93020000D01*
G75*
G02*
X141070000Y-92885000I0J135000D01*
G01*
G37*
%TD*%
%TO.C,R8*%
G36*
G01*
X143526000Y-92525000D02*
X143526000Y-92895000D01*
G75*
G02*
X143391000Y-93030000I-135000J0D01*
G01*
X143121000Y-93030000D01*
G75*
G02*
X142986000Y-92895000I0J135000D01*
G01*
X142986000Y-92525000D01*
G75*
G02*
X143121000Y-92390000I135000J0D01*
G01*
X143391000Y-92390000D01*
G75*
G02*
X143526000Y-92525000I0J-135000D01*
G01*
G37*
G36*
G01*
X142506000Y-92525000D02*
X142506000Y-92895000D01*
G75*
G02*
X142371000Y-93030000I-135000J0D01*
G01*
X142101000Y-93030000D01*
G75*
G02*
X141966000Y-92895000I0J135000D01*
G01*
X141966000Y-92525000D01*
G75*
G02*
X142101000Y-92390000I135000J0D01*
G01*
X142371000Y-92390000D01*
G75*
G02*
X142506000Y-92525000I0J-135000D01*
G01*
G37*
%TD*%
%TO.C,R10*%
G36*
G01*
X140222000Y-93541000D02*
X140222000Y-93911000D01*
G75*
G02*
X140087000Y-94046000I-135000J0D01*
G01*
X139817000Y-94046000D01*
G75*
G02*
X139682000Y-93911000I0J135000D01*
G01*
X139682000Y-93541000D01*
G75*
G02*
X139817000Y-93406000I135000J0D01*
G01*
X140087000Y-93406000D01*
G75*
G02*
X140222000Y-93541000I0J-135000D01*
G01*
G37*
G36*
G01*
X141242000Y-93541000D02*
X141242000Y-93911000D01*
G75*
G02*
X141107000Y-94046000I-135000J0D01*
G01*
X140837000Y-94046000D01*
G75*
G02*
X140702000Y-93911000I0J135000D01*
G01*
X140702000Y-93541000D01*
G75*
G02*
X140837000Y-93406000I135000J0D01*
G01*
X141107000Y-93406000D01*
G75*
G02*
X141242000Y-93541000I0J-135000D01*
G01*
G37*
%TD*%
%TO.C,R11*%
G36*
G01*
X123225000Y-91025000D02*
X123225000Y-90475000D01*
G75*
G02*
X123425000Y-90275000I200000J0D01*
G01*
X123825000Y-90275000D01*
G75*
G02*
X124025000Y-90475000I0J-200000D01*
G01*
X124025000Y-91025000D01*
G75*
G02*
X123825000Y-91225000I-200000J0D01*
G01*
X123425000Y-91225000D01*
G75*
G02*
X123225000Y-91025000I0J200000D01*
G01*
G37*
G36*
G01*
X124875000Y-91025000D02*
X124875000Y-90475000D01*
G75*
G02*
X125075000Y-90275000I200000J0D01*
G01*
X125475000Y-90275000D01*
G75*
G02*
X125675000Y-90475000I0J-200000D01*
G01*
X125675000Y-91025000D01*
G75*
G02*
X125475000Y-91225000I-200000J0D01*
G01*
X125075000Y-91225000D01*
G75*
G02*
X124875000Y-91025000I0J200000D01*
G01*
G37*
%TD*%
D21*
%TO.C,SW1*%
X140400000Y-99182000D03*
X134100000Y-99182000D03*
X140400000Y-95382000D03*
X134100000Y-95382000D03*
%TD*%
D22*
%TO.C,U2*%
X130600000Y-92060000D03*
X131550000Y-92060000D03*
X132500000Y-92060000D03*
X132500000Y-89440000D03*
X130600000Y-89440000D03*
%TD*%
%TO.C,U3*%
G36*
G01*
X130555000Y-100650000D02*
X130855000Y-100650000D01*
G75*
G02*
X131005000Y-100800000I0J-150000D01*
G01*
X131005000Y-102150000D01*
G75*
G02*
X130855000Y-102300000I-150000J0D01*
G01*
X130555000Y-102300000D01*
G75*
G02*
X130405000Y-102150000I0J150000D01*
G01*
X130405000Y-100800000D01*
G75*
G02*
X130555000Y-100650000I150000J0D01*
G01*
G37*
G36*
G01*
X129285000Y-100650000D02*
X129585000Y-100650000D01*
G75*
G02*
X129735000Y-100800000I0J-150000D01*
G01*
X129735000Y-102150000D01*
G75*
G02*
X129585000Y-102300000I-150000J0D01*
G01*
X129285000Y-102300000D01*
G75*
G02*
X129135000Y-102150000I0J150000D01*
G01*
X129135000Y-100800000D01*
G75*
G02*
X129285000Y-100650000I150000J0D01*
G01*
G37*
G36*
G01*
X128015000Y-100650000D02*
X128315000Y-100650000D01*
G75*
G02*
X128465000Y-100800000I0J-150000D01*
G01*
X128465000Y-102150000D01*
G75*
G02*
X128315000Y-102300000I-150000J0D01*
G01*
X128015000Y-102300000D01*
G75*
G02*
X127865000Y-102150000I0J150000D01*
G01*
X127865000Y-100800000D01*
G75*
G02*
X128015000Y-100650000I150000J0D01*
G01*
G37*
G36*
G01*
X126745000Y-100650000D02*
X127045000Y-100650000D01*
G75*
G02*
X127195000Y-100800000I0J-150000D01*
G01*
X127195000Y-102150000D01*
G75*
G02*
X127045000Y-102300000I-150000J0D01*
G01*
X126745000Y-102300000D01*
G75*
G02*
X126595000Y-102150000I0J150000D01*
G01*
X126595000Y-100800000D01*
G75*
G02*
X126745000Y-100650000I150000J0D01*
G01*
G37*
G36*
G01*
X126745000Y-95400000D02*
X127045000Y-95400000D01*
G75*
G02*
X127195000Y-95550000I0J-150000D01*
G01*
X127195000Y-96900000D01*
G75*
G02*
X127045000Y-97050000I-150000J0D01*
G01*
X126745000Y-97050000D01*
G75*
G02*
X126595000Y-96900000I0J150000D01*
G01*
X126595000Y-95550000D01*
G75*
G02*
X126745000Y-95400000I150000J0D01*
G01*
G37*
G36*
G01*
X128015000Y-95400000D02*
X128315000Y-95400000D01*
G75*
G02*
X128465000Y-95550000I0J-150000D01*
G01*
X128465000Y-96900000D01*
G75*
G02*
X128315000Y-97050000I-150000J0D01*
G01*
X128015000Y-97050000D01*
G75*
G02*
X127865000Y-96900000I0J150000D01*
G01*
X127865000Y-95550000D01*
G75*
G02*
X128015000Y-95400000I150000J0D01*
G01*
G37*
G36*
G01*
X129285000Y-95400000D02*
X129585000Y-95400000D01*
G75*
G02*
X129735000Y-95550000I0J-150000D01*
G01*
X129735000Y-96900000D01*
G75*
G02*
X129585000Y-97050000I-150000J0D01*
G01*
X129285000Y-97050000D01*
G75*
G02*
X129135000Y-96900000I0J150000D01*
G01*
X129135000Y-95550000D01*
G75*
G02*
X129285000Y-95400000I150000J0D01*
G01*
G37*
G36*
G01*
X130555000Y-95400000D02*
X130855000Y-95400000D01*
G75*
G02*
X131005000Y-95550000I0J-150000D01*
G01*
X131005000Y-96900000D01*
G75*
G02*
X130855000Y-97050000I-150000J0D01*
G01*
X130555000Y-97050000D01*
G75*
G02*
X130405000Y-96900000I0J150000D01*
G01*
X130405000Y-95550000D01*
G75*
G02*
X130555000Y-95400000I150000J0D01*
G01*
G37*
%TD*%
D20*
%TO.C,Q2*%
X137975001Y-91400000D03*
X139875001Y-91400000D03*
X138925001Y-89400000D03*
%TD*%
%TO.C,Q3*%
X142550000Y-89400000D03*
X143500000Y-91400000D03*
X141600000Y-91400000D03*
%TD*%
D23*
%TO.C,H1*%
X145700000Y-117100000D03*
%TD*%
%TO.C,H2*%
X145700000Y-64100000D03*
%TD*%
%TO.C,H3*%
X121700000Y-64100000D03*
%TD*%
%TO.C,H4*%
X121700000Y-117100000D03*
%TD*%
D24*
%TO.C,J5*%
X121000000Y-112240000D03*
X121000000Y-109700000D03*
X121000000Y-107160000D03*
X121000000Y-104620000D03*
X121000000Y-102080000D03*
X121000000Y-99540000D03*
X121000000Y-97000000D03*
X121000000Y-94460000D03*
X121000000Y-91920000D03*
X121000000Y-89380000D03*
X121000000Y-86840000D03*
X121000000Y-84300000D03*
X121000000Y-81760000D03*
X121000000Y-79220000D03*
X121000000Y-76680000D03*
X121000000Y-74140000D03*
X121000000Y-71600000D03*
D25*
X121000000Y-69060000D03*
%TD*%
%TO.C,J6*%
X146400000Y-69060000D03*
D24*
X146400000Y-71600000D03*
X146400000Y-74140000D03*
X146400000Y-76680000D03*
X146400000Y-79220000D03*
X146400000Y-81760000D03*
X146400000Y-84300000D03*
X146400000Y-86840000D03*
X146400000Y-89380000D03*
X146400000Y-91920000D03*
X146400000Y-94460000D03*
X146400000Y-97000000D03*
X146400000Y-99540000D03*
X146400000Y-102080000D03*
X146400000Y-104620000D03*
X146400000Y-107160000D03*
X146400000Y-109700000D03*
X146400000Y-112240000D03*
%TD*%
%TO.C,R9*%
G36*
G01*
X132525000Y-98525000D02*
X131975000Y-98525000D01*
G75*
G02*
X131775000Y-98325000I0J200000D01*
G01*
X131775000Y-97925000D01*
G75*
G02*
X131975000Y-97725000I200000J0D01*
G01*
X132525000Y-97725000D01*
G75*
G02*
X132725000Y-97925000I0J-200000D01*
G01*
X132725000Y-98325000D01*
G75*
G02*
X132525000Y-98525000I-200000J0D01*
G01*
G37*
G36*
G01*
X132525000Y-96875000D02*
X131975000Y-96875000D01*
G75*
G02*
X131775000Y-96675000I0J200000D01*
G01*
X131775000Y-96275000D01*
G75*
G02*
X131975000Y-96075000I200000J0D01*
G01*
X132525000Y-96075000D01*
G75*
G02*
X132725000Y-96275000I0J-200000D01*
G01*
X132725000Y-96675000D01*
G75*
G02*
X132525000Y-96875000I-200000J0D01*
G01*
G37*
%TD*%
D19*
%TO.C,D4*%
X128100000Y-104750000D03*
X128100000Y-108050000D03*
%TD*%
%TO.C,C15*%
G36*
G01*
X123930000Y-95640000D02*
X124270000Y-95640000D01*
G75*
G02*
X124410000Y-95780000I0J-140000D01*
G01*
X124410000Y-96060000D01*
G75*
G02*
X124270000Y-96200000I-140000J0D01*
G01*
X123930000Y-96200000D01*
G75*
G02*
X123790000Y-96060000I0J140000D01*
G01*
X123790000Y-95780000D01*
G75*
G02*
X123930000Y-95640000I140000J0D01*
G01*
G37*
G36*
G01*
X123930000Y-96600000D02*
X124270000Y-96600000D01*
G75*
G02*
X124410000Y-96740000I0J-140000D01*
G01*
X124410000Y-97020000D01*
G75*
G02*
X124270000Y-97160000I-140000J0D01*
G01*
X123930000Y-97160000D01*
G75*
G02*
X123790000Y-97020000I0J140000D01*
G01*
X123790000Y-96740000D01*
G75*
G02*
X123930000Y-96600000I140000J0D01*
G01*
G37*
%TD*%
%TO.C,C4*%
G36*
G01*
X126975000Y-88750000D02*
X126975000Y-89250000D01*
G75*
G02*
X126750000Y-89475000I-225000J0D01*
G01*
X126300000Y-89475000D01*
G75*
G02*
X126075000Y-89250000I0J225000D01*
G01*
X126075000Y-88750000D01*
G75*
G02*
X126300000Y-88525000I225000J0D01*
G01*
X126750000Y-88525000D01*
G75*
G02*
X126975000Y-88750000I0J-225000D01*
G01*
G37*
G36*
G01*
X125425000Y-88750000D02*
X125425000Y-89250000D01*
G75*
G02*
X125200000Y-89475000I-225000J0D01*
G01*
X124750000Y-89475000D01*
G75*
G02*
X124525000Y-89250000I0J225000D01*
G01*
X124525000Y-88750000D01*
G75*
G02*
X124750000Y-88525000I225000J0D01*
G01*
X125200000Y-88525000D01*
G75*
G02*
X125425000Y-88750000I0J-225000D01*
G01*
G37*
%TD*%
M02*
