%TF.GenerationSoftware,KiCad,Pcbnew,(5.1.7-0-10_14)*%
%TF.CreationDate,2020-11-17T13:44:56+09:00*%
%TF.ProjectId,mini-esp32,6d696e69-2d65-4737-9033-322e6b696361,rev?*%
%TF.SameCoordinates,Original*%
%TF.FileFunction,Copper,L2,Inr*%
%TF.FilePolarity,Positive*%
%FSLAX46Y46*%
G04 Gerber Fmt 4.6, Leading zero omitted, Abs format (unit mm)*
G04 Created by KiCad (PCBNEW (5.1.7-0-10_14)) date 2020-11-17 13:44:56*
%MOMM*%
%LPD*%
G01*
G04 APERTURE LIST*
%TA.AperFunction,ComponentPad*%
%ADD10O,1.300000X2.200000*%
%TD*%
%TA.AperFunction,ComponentPad*%
%ADD11C,1.200000*%
%TD*%
%TA.AperFunction,ComponentPad*%
%ADD12O,1.700000X1.700000*%
%TD*%
%TA.AperFunction,ComponentPad*%
%ADD13R,1.700000X1.700000*%
%TD*%
%TA.AperFunction,ViaPad*%
%ADD14C,0.800000*%
%TD*%
%TA.AperFunction,ViaPad*%
%ADD15C,1.600000*%
%TD*%
%TA.AperFunction,Conductor*%
%ADD16C,0.254000*%
%TD*%
%TA.AperFunction,Conductor*%
%ADD17C,0.100000*%
%TD*%
G04 APERTURE END LIST*
D10*
%TO.N,N/C*%
%TO.C,J2*%
X141628000Y-118198000D03*
X134389000Y-118198000D03*
D11*
X135584000Y-115498000D03*
X140434000Y-115498000D03*
%TD*%
D12*
%TO.N,VBUS*%
%TO.C,J5*%
X121000000Y-112240000D03*
%TO.N,VDD*%
X121000000Y-109700000D03*
%TO.N,Net-(J5-Pad16)*%
X121000000Y-107160000D03*
%TO.N,GND*%
X121000000Y-104620000D03*
%TO.N,BAT+*%
X121000000Y-102080000D03*
%TO.N,EN*%
X121000000Y-99540000D03*
%TO.N,Net-(J5-Pad12)*%
X121000000Y-97000000D03*
%TO.N,Net-(J5-Pad11)*%
X121000000Y-94460000D03*
%TO.N,IO2*%
X121000000Y-91920000D03*
%TO.N,IO5*%
X121000000Y-89380000D03*
%TO.N,IO13*%
X121000000Y-86840000D03*
%TO.N,IO33*%
X121000000Y-84300000D03*
%TO.N,IO32*%
X121000000Y-81760000D03*
%TO.N,IO27*%
X121000000Y-79220000D03*
%TO.N,IO26_DAC2*%
X121000000Y-76680000D03*
%TO.N,IO25_DAC1*%
X121000000Y-74140000D03*
%TO.N,TXD0*%
X121000000Y-71600000D03*
D13*
%TO.N,RXD0*%
X121000000Y-69060000D03*
%TD*%
%TO.N,I36*%
%TO.C,J6*%
X146400000Y-69060000D03*
D12*
%TO.N,I39*%
X146400000Y-71600000D03*
%TO.N,I34*%
X146400000Y-74140000D03*
%TO.N,I35*%
X146400000Y-76680000D03*
%TO.N,IO15*%
X146400000Y-79220000D03*
%TO.N,Net-(J6-Pad6)*%
X146400000Y-81760000D03*
%TO.N,GPIO0*%
X146400000Y-84300000D03*
%TO.N,IO18*%
X146400000Y-86840000D03*
%TO.N,IO23*%
X146400000Y-89380000D03*
%TO.N,IO19*%
X146400000Y-91920000D03*
%TO.N,IO21*%
X146400000Y-94460000D03*
%TO.N,IO22*%
X146400000Y-97000000D03*
%TO.N,IO14*%
X146400000Y-99540000D03*
%TO.N,IO12*%
X146400000Y-102080000D03*
%TO.N,IO4*%
X146400000Y-104620000D03*
%TO.N,IO16*%
X146400000Y-107160000D03*
%TO.N,IO17*%
X146400000Y-109700000D03*
%TO.N,RESET*%
X146400000Y-112240000D03*
%TD*%
D14*
%TO.N,Net-(C1-Pad1)*%
X130700000Y-100650000D03*
X126927923Y-97239154D03*
X130700000Y-109050000D03*
D15*
%TO.N,GND*%
X132700000Y-76700000D03*
D14*
X139350000Y-112600000D03*
X138800000Y-113100000D03*
X135000000Y-108300000D03*
X134884312Y-106200001D03*
X135526916Y-105764833D03*
X125500000Y-89300000D03*
X129350000Y-84850000D03*
X124184207Y-89285786D03*
X140200000Y-69950000D03*
X124000000Y-68700000D03*
X126400000Y-68700000D03*
X122900000Y-91250000D03*
X128200000Y-97350000D03*
X137200000Y-111200000D03*
X128200000Y-95050000D03*
X125500000Y-99750000D03*
X127850000Y-89150000D03*
X129800000Y-105050000D03*
X128250010Y-109100000D03*
X124983229Y-88158787D03*
X139350000Y-98600000D03*
X125100000Y-95149988D03*
X138889366Y-94696544D03*
X129621783Y-92910010D03*
X134099997Y-99181997D03*
X131200000Y-98100000D03*
X130700000Y-97300000D03*
X138600000Y-100600000D03*
X131643693Y-90483510D03*
X130799984Y-90680000D03*
%TO.N,Net-(C2-Pad1)*%
X132200000Y-105000000D03*
X132200000Y-100600000D03*
X132200008Y-95400000D03*
%TO.N,VDD*%
X144972382Y-96746209D03*
X123900000Y-70650000D03*
X126149567Y-70734999D03*
X130150000Y-88913227D03*
X125982232Y-88203696D03*
X125565857Y-87339885D03*
X122700000Y-88000002D03*
X130900000Y-88855025D03*
%TO.N,RESET*%
X133100000Y-71800000D03*
X141797816Y-88581181D03*
X141334814Y-95381997D03*
X133910141Y-95562807D03*
%TO.N,Net-(D2-Pad1)*%
X124111244Y-98988756D03*
X126100000Y-97800000D03*
%TO.N,VBUS*%
X136200000Y-113100000D03*
X135128295Y-94309089D03*
%TO.N,EN*%
X127590000Y-93180000D03*
X132500000Y-91350077D03*
%TO.N,IO21*%
X137600000Y-83000000D03*
X137600000Y-75600000D03*
%TO.N,IO17*%
X134100000Y-81350000D03*
X134100000Y-114800000D03*
%TO.N,IO16*%
X140100000Y-113800000D03*
X140100000Y-83200000D03*
%TO.N,GPIO0*%
X141500000Y-85700000D03*
X141133807Y-87833441D03*
%TO.N,DTR*%
X142900000Y-105100000D03*
X143047817Y-94610319D03*
X142768316Y-90450001D03*
%TO.N,RTS*%
X142150000Y-103800000D03*
X142150000Y-93800000D03*
X141350000Y-92450002D03*
X143550000Y-89250000D03*
%TO.N,Net-(R4-Pad1)*%
X124000000Y-100800000D03*
X129100000Y-100850000D03*
%TO.N,TXD0*%
X128900000Y-74600000D03*
X135900000Y-73000000D03*
X136994687Y-98155313D03*
%TO.N,RXD0*%
X127050000Y-70300000D03*
X134800000Y-73600000D03*
X134800000Y-70300000D03*
X136949996Y-99400000D03*
%TO.N,IO2*%
X128600000Y-82100000D03*
X139300000Y-82100000D03*
X139300000Y-85600000D03*
X124867831Y-92217831D03*
X128050000Y-90950000D03*
%TO.N,I35*%
X139400000Y-77750000D03*
X127189998Y-76865000D03*
X124610002Y-93840000D03*
X144000000Y-75400000D03*
%TO.N,I36*%
X128800000Y-68500000D03*
X128800000Y-73100000D03*
%TO.N,I39*%
X144000000Y-69200000D03*
X139400000Y-69200000D03*
X127800000Y-69200000D03*
X127800000Y-74300000D03*
%TO.N,I34*%
X139400000Y-71050000D03*
X129700000Y-71050000D03*
X129599998Y-75600000D03*
X143800000Y-73000000D03*
%TO.N,IO32*%
X126400000Y-78100000D03*
%TO.N,IO33*%
X126400000Y-79400000D03*
%TO.N,IO14*%
X138350000Y-88376087D03*
X138500000Y-96500012D03*
%TO.N,IO12*%
X137600000Y-84100000D03*
X139350000Y-97300000D03*
%TO.N,IO13*%
X130500000Y-84900000D03*
X126500000Y-91000000D03*
X129400000Y-90900000D03*
%TO.N,IO15*%
X140400000Y-77000000D03*
X136800000Y-77000000D03*
X136800000Y-85000000D03*
X144199994Y-78000000D03*
%TO.N,IO4*%
X143500000Y-111500000D03*
X143200000Y-84500000D03*
%TO.N,IO5*%
X126900000Y-80500000D03*
X122047000Y-85699600D03*
%TO.N,IO18*%
X141200000Y-79624998D03*
X143029123Y-86870928D03*
%TO.N,IO19*%
X145537471Y-91337449D03*
X143266527Y-78358693D03*
%TO.N,IO22*%
X138550000Y-84700000D03*
X138600000Y-71800000D03*
%TO.N,IO23*%
X143500000Y-70500000D03*
%TO.N,Net-(Q5-Pad1)*%
X124350000Y-111100000D03*
X124850000Y-105350000D03*
%TO.N,Net-(Q6-Pad1)*%
X127500000Y-105150000D03*
X126250000Y-110349996D03*
%TO.N,Net-(R15-Pad1)*%
X126250000Y-111500000D03*
X128150000Y-111150000D03*
%TO.N,CH340_VCC*%
X136850000Y-89300000D03*
X138400000Y-99400000D03*
X144000000Y-100799998D03*
%TD*%
D16*
%TO.N,GND*%
X127818485Y-68165000D02*
X127698061Y-68165000D01*
X127498102Y-68204774D01*
X127309744Y-68282795D01*
X127140226Y-68396063D01*
X126996063Y-68540226D01*
X126882795Y-68709744D01*
X126804774Y-68898102D01*
X126765000Y-69098061D01*
X126765000Y-69301413D01*
X126748102Y-69304774D01*
X126559744Y-69382795D01*
X126390226Y-69496063D01*
X126246063Y-69640226D01*
X126206124Y-69699999D01*
X126047628Y-69699999D01*
X125847669Y-69739773D01*
X125659311Y-69817794D01*
X125489793Y-69931062D01*
X125345630Y-70075225D01*
X125232362Y-70244743D01*
X125154341Y-70433101D01*
X125114567Y-70633060D01*
X125114567Y-70836938D01*
X125154341Y-71036897D01*
X125232362Y-71225255D01*
X125345630Y-71394773D01*
X125489793Y-71538936D01*
X125659311Y-71652204D01*
X125847669Y-71730225D01*
X126047628Y-71769999D01*
X126251506Y-71769999D01*
X126451465Y-71730225D01*
X126639823Y-71652204D01*
X126809341Y-71538936D01*
X126953504Y-71394773D01*
X126993443Y-71335000D01*
X127151939Y-71335000D01*
X127351898Y-71295226D01*
X127540256Y-71217205D01*
X127709774Y-71103937D01*
X127853937Y-70959774D01*
X127861763Y-70948061D01*
X128665000Y-70948061D01*
X128665000Y-71151939D01*
X128704774Y-71351898D01*
X128782795Y-71540256D01*
X128896063Y-71709774D01*
X129040226Y-71853937D01*
X129209744Y-71967205D01*
X129398102Y-72045226D01*
X129598061Y-72085000D01*
X129801939Y-72085000D01*
X130001898Y-72045226D01*
X130190256Y-71967205D01*
X130359774Y-71853937D01*
X130503937Y-71709774D01*
X130511763Y-71698061D01*
X132065000Y-71698061D01*
X132065000Y-71901939D01*
X132104774Y-72101898D01*
X132182795Y-72290256D01*
X132296063Y-72459774D01*
X132440226Y-72603937D01*
X132609744Y-72717205D01*
X132798102Y-72795226D01*
X132998061Y-72835000D01*
X133201939Y-72835000D01*
X133401898Y-72795226D01*
X133590256Y-72717205D01*
X133759774Y-72603937D01*
X133903937Y-72459774D01*
X134017205Y-72290256D01*
X134095226Y-72101898D01*
X134135000Y-71901939D01*
X134135000Y-71698061D01*
X137565000Y-71698061D01*
X137565000Y-71901939D01*
X137604774Y-72101898D01*
X137682795Y-72290256D01*
X137796063Y-72459774D01*
X137940226Y-72603937D01*
X138109744Y-72717205D01*
X138298102Y-72795226D01*
X138498061Y-72835000D01*
X138701939Y-72835000D01*
X138901898Y-72795226D01*
X139090256Y-72717205D01*
X139259774Y-72603937D01*
X139403937Y-72459774D01*
X139517205Y-72290256D01*
X139595226Y-72101898D01*
X139602569Y-72064984D01*
X139701898Y-72045226D01*
X139890256Y-71967205D01*
X140059774Y-71853937D01*
X140203937Y-71709774D01*
X140317205Y-71540256D01*
X140395226Y-71351898D01*
X140435000Y-71151939D01*
X140435000Y-70948061D01*
X140395226Y-70748102D01*
X140317205Y-70559744D01*
X140203937Y-70390226D01*
X140059774Y-70246063D01*
X139890256Y-70132795D01*
X139871437Y-70125000D01*
X139890256Y-70117205D01*
X140059774Y-70003937D01*
X140203937Y-69859774D01*
X140317205Y-69690256D01*
X140395226Y-69501898D01*
X140435000Y-69301939D01*
X140435000Y-69098061D01*
X140395226Y-68898102D01*
X140317205Y-68709744D01*
X140203937Y-68540226D01*
X140059774Y-68396063D01*
X139890256Y-68282795D01*
X139701898Y-68204774D01*
X139501939Y-68165000D01*
X139298061Y-68165000D01*
X139098102Y-68204774D01*
X138909744Y-68282795D01*
X138740226Y-68396063D01*
X138596063Y-68540226D01*
X138482795Y-68709744D01*
X138404774Y-68898102D01*
X138365000Y-69098061D01*
X138365000Y-69301939D01*
X138404774Y-69501898D01*
X138482795Y-69690256D01*
X138596063Y-69859774D01*
X138740226Y-70003937D01*
X138909744Y-70117205D01*
X138928563Y-70125000D01*
X138909744Y-70132795D01*
X138740226Y-70246063D01*
X138596063Y-70390226D01*
X138482795Y-70559744D01*
X138404774Y-70748102D01*
X138397431Y-70785016D01*
X138298102Y-70804774D01*
X138109744Y-70882795D01*
X137940226Y-70996063D01*
X137796063Y-71140226D01*
X137682795Y-71309744D01*
X137604774Y-71498102D01*
X137565000Y-71698061D01*
X134135000Y-71698061D01*
X134095226Y-71498102D01*
X134017205Y-71309744D01*
X133903937Y-71140226D01*
X133759774Y-70996063D01*
X133590256Y-70882795D01*
X133401898Y-70804774D01*
X133201939Y-70765000D01*
X132998061Y-70765000D01*
X132798102Y-70804774D01*
X132609744Y-70882795D01*
X132440226Y-70996063D01*
X132296063Y-71140226D01*
X132182795Y-71309744D01*
X132104774Y-71498102D01*
X132065000Y-71698061D01*
X130511763Y-71698061D01*
X130617205Y-71540256D01*
X130695226Y-71351898D01*
X130735000Y-71151939D01*
X130735000Y-70948061D01*
X130695226Y-70748102D01*
X130617205Y-70559744D01*
X130503937Y-70390226D01*
X130359774Y-70246063D01*
X130287934Y-70198061D01*
X133765000Y-70198061D01*
X133765000Y-70401939D01*
X133804774Y-70601898D01*
X133882795Y-70790256D01*
X133996063Y-70959774D01*
X134140226Y-71103937D01*
X134309744Y-71217205D01*
X134498102Y-71295226D01*
X134698061Y-71335000D01*
X134901939Y-71335000D01*
X135101898Y-71295226D01*
X135290256Y-71217205D01*
X135459774Y-71103937D01*
X135603937Y-70959774D01*
X135717205Y-70790256D01*
X135795226Y-70601898D01*
X135835000Y-70401939D01*
X135835000Y-70198061D01*
X135795226Y-69998102D01*
X135717205Y-69809744D01*
X135603937Y-69640226D01*
X135459774Y-69496063D01*
X135290256Y-69382795D01*
X135101898Y-69304774D01*
X134901939Y-69265000D01*
X134698061Y-69265000D01*
X134498102Y-69304774D01*
X134309744Y-69382795D01*
X134140226Y-69496063D01*
X133996063Y-69640226D01*
X133882795Y-69809744D01*
X133804774Y-69998102D01*
X133765000Y-70198061D01*
X130287934Y-70198061D01*
X130190256Y-70132795D01*
X130001898Y-70054774D01*
X129801939Y-70015000D01*
X129598061Y-70015000D01*
X129398102Y-70054774D01*
X129209744Y-70132795D01*
X129040226Y-70246063D01*
X128896063Y-70390226D01*
X128782795Y-70559744D01*
X128704774Y-70748102D01*
X128665000Y-70948061D01*
X127861763Y-70948061D01*
X127967205Y-70790256D01*
X128045226Y-70601898D01*
X128085000Y-70401939D01*
X128085000Y-70198587D01*
X128101898Y-70195226D01*
X128290256Y-70117205D01*
X128459774Y-70003937D01*
X128603937Y-69859774D01*
X128717205Y-69690256D01*
X128781515Y-69535000D01*
X128901939Y-69535000D01*
X129101898Y-69495226D01*
X129290256Y-69417205D01*
X129459774Y-69303937D01*
X129603937Y-69159774D01*
X129717205Y-68990256D01*
X129795226Y-68801898D01*
X129835000Y-68601939D01*
X129835000Y-68398061D01*
X129795226Y-68198102D01*
X129765774Y-68127000D01*
X144920103Y-68127000D01*
X144911928Y-68210000D01*
X144911928Y-68701846D01*
X144803937Y-68540226D01*
X144659774Y-68396063D01*
X144490256Y-68282795D01*
X144301898Y-68204774D01*
X144101939Y-68165000D01*
X143898061Y-68165000D01*
X143698102Y-68204774D01*
X143509744Y-68282795D01*
X143340226Y-68396063D01*
X143196063Y-68540226D01*
X143082795Y-68709744D01*
X143004774Y-68898102D01*
X142965000Y-69098061D01*
X142965000Y-69301939D01*
X143004774Y-69501898D01*
X143034103Y-69572705D01*
X143009744Y-69582795D01*
X142840226Y-69696063D01*
X142696063Y-69840226D01*
X142582795Y-70009744D01*
X142504774Y-70198102D01*
X142465000Y-70398061D01*
X142465000Y-70601939D01*
X142504774Y-70801898D01*
X142582795Y-70990256D01*
X142696063Y-71159774D01*
X142840226Y-71303937D01*
X143009744Y-71417205D01*
X143198102Y-71495226D01*
X143398061Y-71535000D01*
X143601939Y-71535000D01*
X143801898Y-71495226D01*
X143990256Y-71417205D01*
X144159774Y-71303937D01*
X144303937Y-71159774D01*
X144417205Y-70990256D01*
X144495226Y-70801898D01*
X144535000Y-70601939D01*
X144535000Y-70398061D01*
X144495226Y-70198102D01*
X144465897Y-70127295D01*
X144490256Y-70117205D01*
X144659774Y-70003937D01*
X144803937Y-69859774D01*
X144911928Y-69698154D01*
X144911928Y-69910000D01*
X144924188Y-70034482D01*
X144960498Y-70154180D01*
X145019463Y-70264494D01*
X145098815Y-70361185D01*
X145195506Y-70440537D01*
X145305820Y-70499502D01*
X145378380Y-70521513D01*
X145246525Y-70653368D01*
X145084010Y-70896589D01*
X144972068Y-71166842D01*
X144915000Y-71453740D01*
X144915000Y-71746260D01*
X144972068Y-72033158D01*
X145084010Y-72303411D01*
X145246525Y-72546632D01*
X145453368Y-72753475D01*
X145627760Y-72870000D01*
X145453368Y-72986525D01*
X145246525Y-73193368D01*
X145084010Y-73436589D01*
X144972068Y-73706842D01*
X144915000Y-73993740D01*
X144915000Y-74286260D01*
X144972068Y-74573158D01*
X145084010Y-74843411D01*
X145246525Y-75086632D01*
X145453368Y-75293475D01*
X145627760Y-75410000D01*
X145453368Y-75526525D01*
X145246525Y-75733368D01*
X145084010Y-75976589D01*
X144972068Y-76246842D01*
X144915000Y-76533740D01*
X144915000Y-76826260D01*
X144972068Y-77113158D01*
X145084010Y-77383411D01*
X145246525Y-77626632D01*
X145453368Y-77833475D01*
X145627760Y-77950000D01*
X145453368Y-78066525D01*
X145246525Y-78273368D01*
X145142633Y-78428854D01*
X145195220Y-78301898D01*
X145234994Y-78101939D01*
X145234994Y-77898061D01*
X145195220Y-77698102D01*
X145117199Y-77509744D01*
X145003931Y-77340226D01*
X144859768Y-77196063D01*
X144690250Y-77082795D01*
X144501892Y-77004774D01*
X144301933Y-76965000D01*
X144098055Y-76965000D01*
X143898096Y-77004774D01*
X143709738Y-77082795D01*
X143540220Y-77196063D01*
X143405269Y-77331014D01*
X143368466Y-77323693D01*
X143164588Y-77323693D01*
X142964629Y-77363467D01*
X142776271Y-77441488D01*
X142606753Y-77554756D01*
X142462590Y-77698919D01*
X142349322Y-77868437D01*
X142271301Y-78056795D01*
X142231527Y-78256754D01*
X142231527Y-78460632D01*
X142271301Y-78660591D01*
X142349322Y-78848949D01*
X142462590Y-79018467D01*
X142606753Y-79162630D01*
X142776271Y-79275898D01*
X142964629Y-79353919D01*
X143164588Y-79393693D01*
X143368466Y-79393693D01*
X143568425Y-79353919D01*
X143756783Y-79275898D01*
X143926301Y-79162630D01*
X144061252Y-79027679D01*
X144098055Y-79035000D01*
X144301933Y-79035000D01*
X144501892Y-78995226D01*
X144690250Y-78917205D01*
X144859768Y-78803937D01*
X145003931Y-78659774D01*
X145058577Y-78577991D01*
X144972068Y-78786842D01*
X144915000Y-79073740D01*
X144915000Y-79366260D01*
X144972068Y-79653158D01*
X145084010Y-79923411D01*
X145246525Y-80166632D01*
X145453368Y-80373475D01*
X145627760Y-80490000D01*
X145453368Y-80606525D01*
X145246525Y-80813368D01*
X145084010Y-81056589D01*
X144972068Y-81326842D01*
X144915000Y-81613740D01*
X144915000Y-81906260D01*
X144972068Y-82193158D01*
X145084010Y-82463411D01*
X145246525Y-82706632D01*
X145453368Y-82913475D01*
X145627760Y-83030000D01*
X145453368Y-83146525D01*
X145246525Y-83353368D01*
X145084010Y-83596589D01*
X144972068Y-83866842D01*
X144915000Y-84153740D01*
X144915000Y-84446260D01*
X144972068Y-84733158D01*
X145084010Y-85003411D01*
X145246525Y-85246632D01*
X145453368Y-85453475D01*
X145627760Y-85570000D01*
X145453368Y-85686525D01*
X145246525Y-85893368D01*
X145084010Y-86136589D01*
X144972068Y-86406842D01*
X144915000Y-86693740D01*
X144915000Y-86986260D01*
X144972068Y-87273158D01*
X145084010Y-87543411D01*
X145246525Y-87786632D01*
X145453368Y-87993475D01*
X145627760Y-88110000D01*
X145453368Y-88226525D01*
X145246525Y-88433368D01*
X145084010Y-88676589D01*
X144972068Y-88946842D01*
X144915000Y-89233740D01*
X144915000Y-89526260D01*
X144972068Y-89813158D01*
X145084010Y-90083411D01*
X145246525Y-90326632D01*
X145257712Y-90337819D01*
X145235573Y-90342223D01*
X145047215Y-90420244D01*
X144877697Y-90533512D01*
X144733534Y-90677675D01*
X144620266Y-90847193D01*
X144542245Y-91035551D01*
X144502471Y-91235510D01*
X144502471Y-91439388D01*
X144542245Y-91639347D01*
X144620266Y-91827705D01*
X144733534Y-91997223D01*
X144877697Y-92141386D01*
X144937952Y-92181647D01*
X144972068Y-92353158D01*
X145084010Y-92623411D01*
X145246525Y-92866632D01*
X145453368Y-93073475D01*
X145627760Y-93190000D01*
X145453368Y-93306525D01*
X145246525Y-93513368D01*
X145084010Y-93756589D01*
X144972068Y-94026842D01*
X144915000Y-94313740D01*
X144915000Y-94606260D01*
X144972068Y-94893158D01*
X145084010Y-95163411D01*
X145246525Y-95406632D01*
X145453368Y-95613475D01*
X145627760Y-95730000D01*
X145471114Y-95834667D01*
X145462638Y-95829004D01*
X145274280Y-95750983D01*
X145074321Y-95711209D01*
X144870443Y-95711209D01*
X144670484Y-95750983D01*
X144482126Y-95829004D01*
X144312608Y-95942272D01*
X144168445Y-96086435D01*
X144055177Y-96255953D01*
X143977156Y-96444311D01*
X143937382Y-96644270D01*
X143937382Y-96848148D01*
X143977156Y-97048107D01*
X144055177Y-97236465D01*
X144168445Y-97405983D01*
X144312608Y-97550146D01*
X144482126Y-97663414D01*
X144670484Y-97741435D01*
X144870443Y-97781209D01*
X145074321Y-97781209D01*
X145128758Y-97770381D01*
X145246525Y-97946632D01*
X145453368Y-98153475D01*
X145627760Y-98270000D01*
X145453368Y-98386525D01*
X145246525Y-98593368D01*
X145084010Y-98836589D01*
X144972068Y-99106842D01*
X144915000Y-99393740D01*
X144915000Y-99686260D01*
X144972068Y-99973158D01*
X145084010Y-100243411D01*
X145246525Y-100486632D01*
X145453368Y-100693475D01*
X145627760Y-100810000D01*
X145453368Y-100926525D01*
X145246525Y-101133368D01*
X145084010Y-101376589D01*
X144972068Y-101646842D01*
X144915000Y-101933740D01*
X144915000Y-102226260D01*
X144972068Y-102513158D01*
X145084010Y-102783411D01*
X145246525Y-103026632D01*
X145453368Y-103233475D01*
X145627760Y-103350000D01*
X145453368Y-103466525D01*
X145246525Y-103673368D01*
X145084010Y-103916589D01*
X144972068Y-104186842D01*
X144915000Y-104473740D01*
X144915000Y-104766260D01*
X144972068Y-105053158D01*
X145084010Y-105323411D01*
X145246525Y-105566632D01*
X145453368Y-105773475D01*
X145627760Y-105890000D01*
X145453368Y-106006525D01*
X145246525Y-106213368D01*
X145084010Y-106456589D01*
X144972068Y-106726842D01*
X144915000Y-107013740D01*
X144915000Y-107306260D01*
X144972068Y-107593158D01*
X145084010Y-107863411D01*
X145246525Y-108106632D01*
X145453368Y-108313475D01*
X145627760Y-108430000D01*
X145453368Y-108546525D01*
X145246525Y-108753368D01*
X145084010Y-108996589D01*
X144972068Y-109266842D01*
X144915000Y-109553740D01*
X144915000Y-109846260D01*
X144972068Y-110133158D01*
X145084010Y-110403411D01*
X145246525Y-110646632D01*
X145453368Y-110853475D01*
X145627760Y-110970000D01*
X145453368Y-111086525D01*
X145246525Y-111293368D01*
X145084010Y-111536589D01*
X144972068Y-111806842D01*
X144915000Y-112093740D01*
X144915000Y-112386260D01*
X144972068Y-112673158D01*
X145084010Y-112943411D01*
X145246525Y-113186632D01*
X145453368Y-113393475D01*
X145696589Y-113555990D01*
X145966842Y-113667932D01*
X146253740Y-113725000D01*
X146546260Y-113725000D01*
X146833158Y-113667932D01*
X147103411Y-113555990D01*
X147346632Y-113393475D01*
X147540000Y-113200107D01*
X147540000Y-116010856D01*
X147358363Y-115739017D01*
X147060983Y-115441637D01*
X146711302Y-115207988D01*
X146322756Y-115047047D01*
X145910279Y-114965000D01*
X145489721Y-114965000D01*
X145077244Y-115047047D01*
X144688698Y-115207988D01*
X144339017Y-115441637D01*
X144041637Y-115739017D01*
X143807988Y-116088698D01*
X143647047Y-116477244D01*
X143565000Y-116889721D01*
X143565000Y-117310279D01*
X143647047Y-117722756D01*
X143807988Y-118111302D01*
X144041637Y-118460983D01*
X144339017Y-118758363D01*
X144610856Y-118940000D01*
X142882244Y-118940000D01*
X142894407Y-118899904D01*
X142913000Y-118711122D01*
X142913000Y-117684877D01*
X142894407Y-117496096D01*
X142820929Y-117253873D01*
X142701608Y-117030638D01*
X142541028Y-116834972D01*
X142345361Y-116674392D01*
X142122126Y-116555071D01*
X141879903Y-116481593D01*
X141628000Y-116456783D01*
X141376096Y-116481593D01*
X141133873Y-116555071D01*
X140910638Y-116674392D01*
X140714972Y-116834972D01*
X140554392Y-117030639D01*
X140435071Y-117253874D01*
X140361593Y-117496097D01*
X140343000Y-117684878D01*
X140343000Y-118711123D01*
X140361593Y-118899904D01*
X140373756Y-118940000D01*
X135643244Y-118940000D01*
X135655407Y-118899904D01*
X135674000Y-118711122D01*
X135674000Y-117684877D01*
X135655407Y-117496096D01*
X135581929Y-117253873D01*
X135462608Y-117030638D01*
X135302028Y-116834972D01*
X135106361Y-116674392D01*
X134883126Y-116555071D01*
X134640903Y-116481593D01*
X134389000Y-116456783D01*
X134137096Y-116481593D01*
X133894873Y-116555071D01*
X133671638Y-116674392D01*
X133475972Y-116834972D01*
X133315392Y-117030639D01*
X133196071Y-117253874D01*
X133122593Y-117496097D01*
X133104000Y-117684878D01*
X133104000Y-118711123D01*
X133122593Y-118899904D01*
X133134756Y-118940000D01*
X122789144Y-118940000D01*
X123060983Y-118758363D01*
X123358363Y-118460983D01*
X123592012Y-118111302D01*
X123752953Y-117722756D01*
X123835000Y-117310279D01*
X123835000Y-116889721D01*
X123752953Y-116477244D01*
X123592012Y-116088698D01*
X123358363Y-115739017D01*
X123060983Y-115441637D01*
X122711302Y-115207988D01*
X122322756Y-115047047D01*
X121910279Y-114965000D01*
X121489721Y-114965000D01*
X121077244Y-115047047D01*
X120688698Y-115207988D01*
X120339017Y-115441637D01*
X120041637Y-115739017D01*
X119860000Y-116010856D01*
X119860000Y-114698061D01*
X133065000Y-114698061D01*
X133065000Y-114901939D01*
X133104774Y-115101898D01*
X133182795Y-115290256D01*
X133296063Y-115459774D01*
X133440226Y-115603937D01*
X133609744Y-115717205D01*
X133798102Y-115795226D01*
X133998061Y-115835000D01*
X134201939Y-115835000D01*
X134384611Y-115798665D01*
X134396460Y-115858236D01*
X134489557Y-116082992D01*
X134624713Y-116285267D01*
X134796733Y-116457287D01*
X134999008Y-116592443D01*
X135223764Y-116685540D01*
X135462363Y-116733000D01*
X135705637Y-116733000D01*
X135944236Y-116685540D01*
X136168992Y-116592443D01*
X136371267Y-116457287D01*
X136543287Y-116285267D01*
X136678443Y-116082992D01*
X136771540Y-115858236D01*
X136819000Y-115619637D01*
X136819000Y-115376363D01*
X136771540Y-115137764D01*
X136678443Y-114913008D01*
X136543287Y-114710733D01*
X136371267Y-114538713D01*
X136168992Y-114403557D01*
X135944236Y-114310460D01*
X135705637Y-114263000D01*
X135462363Y-114263000D01*
X135223764Y-114310460D01*
X135047708Y-114383385D01*
X135017205Y-114309744D01*
X134903937Y-114140226D01*
X134759774Y-113996063D01*
X134590256Y-113882795D01*
X134401898Y-113804774D01*
X134201939Y-113765000D01*
X133998061Y-113765000D01*
X133798102Y-113804774D01*
X133609744Y-113882795D01*
X133440226Y-113996063D01*
X133296063Y-114140226D01*
X133182795Y-114309744D01*
X133104774Y-114498102D01*
X133065000Y-114698061D01*
X119860000Y-114698061D01*
X119860000Y-113200107D01*
X120053368Y-113393475D01*
X120296589Y-113555990D01*
X120566842Y-113667932D01*
X120853740Y-113725000D01*
X121146260Y-113725000D01*
X121433158Y-113667932D01*
X121703411Y-113555990D01*
X121946632Y-113393475D01*
X122153475Y-113186632D01*
X122279474Y-112998061D01*
X135165000Y-112998061D01*
X135165000Y-113201939D01*
X135204774Y-113401898D01*
X135282795Y-113590256D01*
X135396063Y-113759774D01*
X135540226Y-113903937D01*
X135709744Y-114017205D01*
X135898102Y-114095226D01*
X136098061Y-114135000D01*
X136301939Y-114135000D01*
X136501898Y-114095226D01*
X136690256Y-114017205D01*
X136859774Y-113903937D01*
X137003937Y-113759774D01*
X137045172Y-113698061D01*
X139065000Y-113698061D01*
X139065000Y-113901939D01*
X139104774Y-114101898D01*
X139182795Y-114290256D01*
X139296063Y-114459774D01*
X139440226Y-114603937D01*
X139524919Y-114660527D01*
X139474713Y-114710733D01*
X139339557Y-114913008D01*
X139246460Y-115137764D01*
X139199000Y-115376363D01*
X139199000Y-115619637D01*
X139246460Y-115858236D01*
X139339557Y-116082992D01*
X139474713Y-116285267D01*
X139646733Y-116457287D01*
X139849008Y-116592443D01*
X140073764Y-116685540D01*
X140312363Y-116733000D01*
X140555637Y-116733000D01*
X140794236Y-116685540D01*
X141018992Y-116592443D01*
X141221267Y-116457287D01*
X141393287Y-116285267D01*
X141528443Y-116082992D01*
X141621540Y-115858236D01*
X141669000Y-115619637D01*
X141669000Y-115376363D01*
X141621540Y-115137764D01*
X141528443Y-114913008D01*
X141393287Y-114710733D01*
X141221267Y-114538713D01*
X141018992Y-114403557D01*
X140958298Y-114378417D01*
X141017205Y-114290256D01*
X141095226Y-114101898D01*
X141135000Y-113901939D01*
X141135000Y-113698061D01*
X141095226Y-113498102D01*
X141017205Y-113309744D01*
X140903937Y-113140226D01*
X140759774Y-112996063D01*
X140590256Y-112882795D01*
X140401898Y-112804774D01*
X140201939Y-112765000D01*
X139998061Y-112765000D01*
X139798102Y-112804774D01*
X139609744Y-112882795D01*
X139440226Y-112996063D01*
X139296063Y-113140226D01*
X139182795Y-113309744D01*
X139104774Y-113498102D01*
X139065000Y-113698061D01*
X137045172Y-113698061D01*
X137117205Y-113590256D01*
X137195226Y-113401898D01*
X137235000Y-113201939D01*
X137235000Y-112998061D01*
X137195226Y-112798102D01*
X137117205Y-112609744D01*
X137003937Y-112440226D01*
X136859774Y-112296063D01*
X136690256Y-112182795D01*
X136501898Y-112104774D01*
X136301939Y-112065000D01*
X136098061Y-112065000D01*
X135898102Y-112104774D01*
X135709744Y-112182795D01*
X135540226Y-112296063D01*
X135396063Y-112440226D01*
X135282795Y-112609744D01*
X135204774Y-112798102D01*
X135165000Y-112998061D01*
X122279474Y-112998061D01*
X122315990Y-112943411D01*
X122427932Y-112673158D01*
X122485000Y-112386260D01*
X122485000Y-112093740D01*
X122427932Y-111806842D01*
X122315990Y-111536589D01*
X122153475Y-111293368D01*
X121946632Y-111086525D01*
X121814237Y-110998061D01*
X123315000Y-110998061D01*
X123315000Y-111201939D01*
X123354774Y-111401898D01*
X123432795Y-111590256D01*
X123546063Y-111759774D01*
X123690226Y-111903937D01*
X123859744Y-112017205D01*
X124048102Y-112095226D01*
X124248061Y-112135000D01*
X124451939Y-112135000D01*
X124651898Y-112095226D01*
X124840256Y-112017205D01*
X125009774Y-111903937D01*
X125153937Y-111759774D01*
X125225185Y-111653143D01*
X125254774Y-111801898D01*
X125332795Y-111990256D01*
X125446063Y-112159774D01*
X125590226Y-112303937D01*
X125759744Y-112417205D01*
X125948102Y-112495226D01*
X126148061Y-112535000D01*
X126351939Y-112535000D01*
X126551898Y-112495226D01*
X126740256Y-112417205D01*
X126909774Y-112303937D01*
X127053937Y-112159774D01*
X127167205Y-111990256D01*
X127245226Y-111801898D01*
X127267151Y-111691673D01*
X127346063Y-111809774D01*
X127490226Y-111953937D01*
X127659744Y-112067205D01*
X127848102Y-112145226D01*
X128048061Y-112185000D01*
X128251939Y-112185000D01*
X128451898Y-112145226D01*
X128640256Y-112067205D01*
X128809774Y-111953937D01*
X128953937Y-111809774D01*
X129067205Y-111640256D01*
X129145226Y-111451898D01*
X129155934Y-111398061D01*
X142465000Y-111398061D01*
X142465000Y-111601939D01*
X142504774Y-111801898D01*
X142582795Y-111990256D01*
X142696063Y-112159774D01*
X142840226Y-112303937D01*
X143009744Y-112417205D01*
X143198102Y-112495226D01*
X143398061Y-112535000D01*
X143601939Y-112535000D01*
X143801898Y-112495226D01*
X143990256Y-112417205D01*
X144159774Y-112303937D01*
X144303937Y-112159774D01*
X144417205Y-111990256D01*
X144495226Y-111801898D01*
X144535000Y-111601939D01*
X144535000Y-111398061D01*
X144495226Y-111198102D01*
X144417205Y-111009744D01*
X144303937Y-110840226D01*
X144159774Y-110696063D01*
X143990256Y-110582795D01*
X143801898Y-110504774D01*
X143601939Y-110465000D01*
X143398061Y-110465000D01*
X143198102Y-110504774D01*
X143009744Y-110582795D01*
X142840226Y-110696063D01*
X142696063Y-110840226D01*
X142582795Y-111009744D01*
X142504774Y-111198102D01*
X142465000Y-111398061D01*
X129155934Y-111398061D01*
X129185000Y-111251939D01*
X129185000Y-111048061D01*
X129145226Y-110848102D01*
X129067205Y-110659744D01*
X128953937Y-110490226D01*
X128809774Y-110346063D01*
X128640256Y-110232795D01*
X128451898Y-110154774D01*
X128251939Y-110115000D01*
X128048061Y-110115000D01*
X127848102Y-110154774D01*
X127659744Y-110232795D01*
X127490226Y-110346063D01*
X127346063Y-110490226D01*
X127248272Y-110636581D01*
X127285000Y-110451935D01*
X127285000Y-110248057D01*
X127245226Y-110048098D01*
X127167205Y-109859740D01*
X127053937Y-109690222D01*
X126909774Y-109546059D01*
X126740256Y-109432791D01*
X126551898Y-109354770D01*
X126351939Y-109314996D01*
X126148061Y-109314996D01*
X125948102Y-109354770D01*
X125759744Y-109432791D01*
X125590226Y-109546059D01*
X125446063Y-109690222D01*
X125332795Y-109859740D01*
X125254774Y-110048098D01*
X125215000Y-110248057D01*
X125215000Y-110451935D01*
X125237567Y-110565387D01*
X125153937Y-110440226D01*
X125009774Y-110296063D01*
X124840256Y-110182795D01*
X124651898Y-110104774D01*
X124451939Y-110065000D01*
X124248061Y-110065000D01*
X124048102Y-110104774D01*
X123859744Y-110182795D01*
X123690226Y-110296063D01*
X123546063Y-110440226D01*
X123432795Y-110609744D01*
X123354774Y-110798102D01*
X123315000Y-110998061D01*
X121814237Y-110998061D01*
X121772240Y-110970000D01*
X121946632Y-110853475D01*
X122153475Y-110646632D01*
X122315990Y-110403411D01*
X122427932Y-110133158D01*
X122485000Y-109846260D01*
X122485000Y-109553740D01*
X122427932Y-109266842D01*
X122315990Y-108996589D01*
X122283565Y-108948061D01*
X129665000Y-108948061D01*
X129665000Y-109151939D01*
X129704774Y-109351898D01*
X129782795Y-109540256D01*
X129896063Y-109709774D01*
X130040226Y-109853937D01*
X130209744Y-109967205D01*
X130398102Y-110045226D01*
X130598061Y-110085000D01*
X130801939Y-110085000D01*
X131001898Y-110045226D01*
X131190256Y-109967205D01*
X131359774Y-109853937D01*
X131503937Y-109709774D01*
X131617205Y-109540256D01*
X131695226Y-109351898D01*
X131735000Y-109151939D01*
X131735000Y-108948061D01*
X131695226Y-108748102D01*
X131617205Y-108559744D01*
X131503937Y-108390226D01*
X131359774Y-108246063D01*
X131190256Y-108132795D01*
X131001898Y-108054774D01*
X130801939Y-108015000D01*
X130598061Y-108015000D01*
X130398102Y-108054774D01*
X130209744Y-108132795D01*
X130040226Y-108246063D01*
X129896063Y-108390226D01*
X129782795Y-108559744D01*
X129704774Y-108748102D01*
X129665000Y-108948061D01*
X122283565Y-108948061D01*
X122153475Y-108753368D01*
X121946632Y-108546525D01*
X121772240Y-108430000D01*
X121946632Y-108313475D01*
X122153475Y-108106632D01*
X122315990Y-107863411D01*
X122427932Y-107593158D01*
X122485000Y-107306260D01*
X122485000Y-107013740D01*
X122427932Y-106726842D01*
X122315990Y-106456589D01*
X122153475Y-106213368D01*
X121946632Y-106006525D01*
X121764466Y-105884805D01*
X121881355Y-105815178D01*
X122097588Y-105620269D01*
X122271641Y-105386920D01*
X122337780Y-105248061D01*
X123815000Y-105248061D01*
X123815000Y-105451939D01*
X123854774Y-105651898D01*
X123932795Y-105840256D01*
X124046063Y-106009774D01*
X124190226Y-106153937D01*
X124359744Y-106267205D01*
X124548102Y-106345226D01*
X124748061Y-106385000D01*
X124951939Y-106385000D01*
X125151898Y-106345226D01*
X125340256Y-106267205D01*
X125509774Y-106153937D01*
X125653937Y-106009774D01*
X125767205Y-105840256D01*
X125845226Y-105651898D01*
X125885000Y-105451939D01*
X125885000Y-105248061D01*
X125845226Y-105048102D01*
X125845210Y-105048061D01*
X126465000Y-105048061D01*
X126465000Y-105251939D01*
X126504774Y-105451898D01*
X126582795Y-105640256D01*
X126696063Y-105809774D01*
X126840226Y-105953937D01*
X127009744Y-106067205D01*
X127198102Y-106145226D01*
X127398061Y-106185000D01*
X127601939Y-106185000D01*
X127801898Y-106145226D01*
X127990256Y-106067205D01*
X128159774Y-105953937D01*
X128303937Y-105809774D01*
X128417205Y-105640256D01*
X128495226Y-105451898D01*
X128535000Y-105251939D01*
X128535000Y-105048061D01*
X128505164Y-104898061D01*
X131165000Y-104898061D01*
X131165000Y-105101939D01*
X131204774Y-105301898D01*
X131282795Y-105490256D01*
X131396063Y-105659774D01*
X131540226Y-105803937D01*
X131709744Y-105917205D01*
X131898102Y-105995226D01*
X132098061Y-106035000D01*
X132301939Y-106035000D01*
X132501898Y-105995226D01*
X132690256Y-105917205D01*
X132859774Y-105803937D01*
X133003937Y-105659774D01*
X133117205Y-105490256D01*
X133195226Y-105301898D01*
X133235000Y-105101939D01*
X133235000Y-104898061D01*
X133195226Y-104698102D01*
X133117205Y-104509744D01*
X133003937Y-104340226D01*
X132859774Y-104196063D01*
X132690256Y-104082795D01*
X132501898Y-104004774D01*
X132301939Y-103965000D01*
X132098061Y-103965000D01*
X131898102Y-104004774D01*
X131709744Y-104082795D01*
X131540226Y-104196063D01*
X131396063Y-104340226D01*
X131282795Y-104509744D01*
X131204774Y-104698102D01*
X131165000Y-104898061D01*
X128505164Y-104898061D01*
X128495226Y-104848102D01*
X128417205Y-104659744D01*
X128303937Y-104490226D01*
X128159774Y-104346063D01*
X127990256Y-104232795D01*
X127801898Y-104154774D01*
X127601939Y-104115000D01*
X127398061Y-104115000D01*
X127198102Y-104154774D01*
X127009744Y-104232795D01*
X126840226Y-104346063D01*
X126696063Y-104490226D01*
X126582795Y-104659744D01*
X126504774Y-104848102D01*
X126465000Y-105048061D01*
X125845210Y-105048061D01*
X125767205Y-104859744D01*
X125653937Y-104690226D01*
X125509774Y-104546063D01*
X125340256Y-104432795D01*
X125151898Y-104354774D01*
X124951939Y-104315000D01*
X124748061Y-104315000D01*
X124548102Y-104354774D01*
X124359744Y-104432795D01*
X124190226Y-104546063D01*
X124046063Y-104690226D01*
X123932795Y-104859744D01*
X123854774Y-105048102D01*
X123815000Y-105248061D01*
X122337780Y-105248061D01*
X122396825Y-105124099D01*
X122441476Y-104976890D01*
X122320155Y-104747000D01*
X121127000Y-104747000D01*
X121127000Y-104767000D01*
X120873000Y-104767000D01*
X120873000Y-104747000D01*
X120853000Y-104747000D01*
X120853000Y-104493000D01*
X120873000Y-104493000D01*
X120873000Y-104473000D01*
X121127000Y-104473000D01*
X121127000Y-104493000D01*
X122320155Y-104493000D01*
X122441476Y-104263110D01*
X122396825Y-104115901D01*
X122271641Y-103853080D01*
X122156014Y-103698061D01*
X141115000Y-103698061D01*
X141115000Y-103901939D01*
X141154774Y-104101898D01*
X141232795Y-104290256D01*
X141346063Y-104459774D01*
X141490226Y-104603937D01*
X141659744Y-104717205D01*
X141848102Y-104795226D01*
X141903167Y-104806179D01*
X141865000Y-104998061D01*
X141865000Y-105201939D01*
X141904774Y-105401898D01*
X141982795Y-105590256D01*
X142096063Y-105759774D01*
X142240226Y-105903937D01*
X142409744Y-106017205D01*
X142598102Y-106095226D01*
X142798061Y-106135000D01*
X143001939Y-106135000D01*
X143201898Y-106095226D01*
X143390256Y-106017205D01*
X143559774Y-105903937D01*
X143703937Y-105759774D01*
X143817205Y-105590256D01*
X143895226Y-105401898D01*
X143935000Y-105201939D01*
X143935000Y-104998061D01*
X143895226Y-104798102D01*
X143817205Y-104609744D01*
X143703937Y-104440226D01*
X143559774Y-104296063D01*
X143390256Y-104182795D01*
X143201898Y-104104774D01*
X143146833Y-104093821D01*
X143185000Y-103901939D01*
X143185000Y-103698061D01*
X143145226Y-103498102D01*
X143067205Y-103309744D01*
X142953937Y-103140226D01*
X142809774Y-102996063D01*
X142640256Y-102882795D01*
X142451898Y-102804774D01*
X142251939Y-102765000D01*
X142048061Y-102765000D01*
X141848102Y-102804774D01*
X141659744Y-102882795D01*
X141490226Y-102996063D01*
X141346063Y-103140226D01*
X141232795Y-103309744D01*
X141154774Y-103498102D01*
X141115000Y-103698061D01*
X122156014Y-103698061D01*
X122097588Y-103619731D01*
X121881355Y-103424822D01*
X121764466Y-103355195D01*
X121946632Y-103233475D01*
X122153475Y-103026632D01*
X122315990Y-102783411D01*
X122427932Y-102513158D01*
X122485000Y-102226260D01*
X122485000Y-101933740D01*
X122427932Y-101646842D01*
X122315990Y-101376589D01*
X122153475Y-101133368D01*
X121946632Y-100926525D01*
X121772240Y-100810000D01*
X121939768Y-100698061D01*
X122965000Y-100698061D01*
X122965000Y-100901939D01*
X123004774Y-101101898D01*
X123082795Y-101290256D01*
X123196063Y-101459774D01*
X123340226Y-101603937D01*
X123509744Y-101717205D01*
X123698102Y-101795226D01*
X123898061Y-101835000D01*
X124101939Y-101835000D01*
X124301898Y-101795226D01*
X124490256Y-101717205D01*
X124659774Y-101603937D01*
X124803937Y-101459774D01*
X124917205Y-101290256D01*
X124995226Y-101101898D01*
X125035000Y-100901939D01*
X125035000Y-100748061D01*
X128065000Y-100748061D01*
X128065000Y-100951939D01*
X128104774Y-101151898D01*
X128182795Y-101340256D01*
X128296063Y-101509774D01*
X128440226Y-101653937D01*
X128609744Y-101767205D01*
X128798102Y-101845226D01*
X128998061Y-101885000D01*
X129201939Y-101885000D01*
X129401898Y-101845226D01*
X129590256Y-101767205D01*
X129759774Y-101653937D01*
X129903937Y-101509774D01*
X129980892Y-101394603D01*
X130040226Y-101453937D01*
X130209744Y-101567205D01*
X130398102Y-101645226D01*
X130598061Y-101685000D01*
X130801939Y-101685000D01*
X131001898Y-101645226D01*
X131190256Y-101567205D01*
X131359774Y-101453937D01*
X131475000Y-101338711D01*
X131540226Y-101403937D01*
X131709744Y-101517205D01*
X131898102Y-101595226D01*
X132098061Y-101635000D01*
X132301939Y-101635000D01*
X132501898Y-101595226D01*
X132690256Y-101517205D01*
X132859774Y-101403937D01*
X133003937Y-101259774D01*
X133117205Y-101090256D01*
X133195226Y-100901898D01*
X133235000Y-100701939D01*
X133235000Y-100698059D01*
X142965000Y-100698059D01*
X142965000Y-100901937D01*
X143004774Y-101101896D01*
X143082795Y-101290254D01*
X143196063Y-101459772D01*
X143340226Y-101603935D01*
X143509744Y-101717203D01*
X143698102Y-101795224D01*
X143898061Y-101834998D01*
X144101939Y-101834998D01*
X144301898Y-101795224D01*
X144490256Y-101717203D01*
X144659774Y-101603935D01*
X144803937Y-101459772D01*
X144917205Y-101290254D01*
X144995226Y-101101896D01*
X145035000Y-100901937D01*
X145035000Y-100698059D01*
X144995226Y-100498100D01*
X144917205Y-100309742D01*
X144803937Y-100140224D01*
X144659774Y-99996061D01*
X144490256Y-99882793D01*
X144301898Y-99804772D01*
X144101939Y-99764998D01*
X143898061Y-99764998D01*
X143698102Y-99804772D01*
X143509744Y-99882793D01*
X143340226Y-99996061D01*
X143196063Y-100140224D01*
X143082795Y-100309742D01*
X143004774Y-100498100D01*
X142965000Y-100698059D01*
X133235000Y-100698059D01*
X133235000Y-100498061D01*
X133195226Y-100298102D01*
X133117205Y-100109744D01*
X133003937Y-99940226D01*
X132859774Y-99796063D01*
X132690256Y-99682795D01*
X132501898Y-99604774D01*
X132301939Y-99565000D01*
X132098061Y-99565000D01*
X131898102Y-99604774D01*
X131709744Y-99682795D01*
X131540226Y-99796063D01*
X131425000Y-99911289D01*
X131359774Y-99846063D01*
X131190256Y-99732795D01*
X131001898Y-99654774D01*
X130801939Y-99615000D01*
X130598061Y-99615000D01*
X130398102Y-99654774D01*
X130209744Y-99732795D01*
X130040226Y-99846063D01*
X129896063Y-99990226D01*
X129819108Y-100105397D01*
X129759774Y-100046063D01*
X129590256Y-99932795D01*
X129401898Y-99854774D01*
X129201939Y-99815000D01*
X128998061Y-99815000D01*
X128798102Y-99854774D01*
X128609744Y-99932795D01*
X128440226Y-100046063D01*
X128296063Y-100190226D01*
X128182795Y-100359744D01*
X128104774Y-100548102D01*
X128065000Y-100748061D01*
X125035000Y-100748061D01*
X125035000Y-100698061D01*
X124995226Y-100498102D01*
X124917205Y-100309744D01*
X124803937Y-100140226D01*
X124659774Y-99996063D01*
X124554230Y-99925541D01*
X124601500Y-99905961D01*
X124771018Y-99792693D01*
X124915181Y-99648530D01*
X125028449Y-99479012D01*
X125103401Y-99298061D01*
X135914996Y-99298061D01*
X135914996Y-99501939D01*
X135954770Y-99701898D01*
X136032791Y-99890256D01*
X136146059Y-100059774D01*
X136290222Y-100203937D01*
X136459740Y-100317205D01*
X136648098Y-100395226D01*
X136848057Y-100435000D01*
X137051935Y-100435000D01*
X137251894Y-100395226D01*
X137440252Y-100317205D01*
X137609770Y-100203937D01*
X137674998Y-100138709D01*
X137740226Y-100203937D01*
X137909744Y-100317205D01*
X138098102Y-100395226D01*
X138298061Y-100435000D01*
X138501939Y-100435000D01*
X138701898Y-100395226D01*
X138890256Y-100317205D01*
X139059774Y-100203937D01*
X139203937Y-100059774D01*
X139317205Y-99890256D01*
X139395226Y-99701898D01*
X139435000Y-99501939D01*
X139435000Y-99298061D01*
X139395226Y-99098102D01*
X139317205Y-98909744D01*
X139203937Y-98740226D01*
X139059774Y-98596063D01*
X138890256Y-98482795D01*
X138701898Y-98404774D01*
X138501939Y-98365000D01*
X138298061Y-98365000D01*
X138098102Y-98404774D01*
X137991566Y-98448903D01*
X138029687Y-98257252D01*
X138029687Y-98053374D01*
X137989913Y-97853415D01*
X137911892Y-97665057D01*
X137798624Y-97495539D01*
X137654461Y-97351376D01*
X137484943Y-97238108D01*
X137296585Y-97160087D01*
X137096626Y-97120313D01*
X136892748Y-97120313D01*
X136692789Y-97160087D01*
X136504431Y-97238108D01*
X136334913Y-97351376D01*
X136190750Y-97495539D01*
X136077482Y-97665057D01*
X135999461Y-97853415D01*
X135959687Y-98053374D01*
X135959687Y-98257252D01*
X135999461Y-98457211D01*
X136077482Y-98645569D01*
X136143394Y-98744214D01*
X136032791Y-98909744D01*
X135954770Y-99098102D01*
X135914996Y-99298061D01*
X125103401Y-99298061D01*
X125106470Y-99290654D01*
X125146244Y-99090695D01*
X125146244Y-98886817D01*
X125106470Y-98686858D01*
X125028449Y-98498500D01*
X124915181Y-98328982D01*
X124771018Y-98184819D01*
X124601500Y-98071551D01*
X124413142Y-97993530D01*
X124213183Y-97953756D01*
X124009305Y-97953756D01*
X123809346Y-97993530D01*
X123620988Y-98071551D01*
X123451470Y-98184819D01*
X123307307Y-98328982D01*
X123194039Y-98498500D01*
X123116018Y-98686858D01*
X123076244Y-98886817D01*
X123076244Y-99090695D01*
X123116018Y-99290654D01*
X123194039Y-99479012D01*
X123307307Y-99648530D01*
X123451470Y-99792693D01*
X123557014Y-99863215D01*
X123509744Y-99882795D01*
X123340226Y-99996063D01*
X123196063Y-100140226D01*
X123082795Y-100309744D01*
X123004774Y-100498102D01*
X122965000Y-100698061D01*
X121939768Y-100698061D01*
X121946632Y-100693475D01*
X122153475Y-100486632D01*
X122315990Y-100243411D01*
X122427932Y-99973158D01*
X122485000Y-99686260D01*
X122485000Y-99393740D01*
X122427932Y-99106842D01*
X122315990Y-98836589D01*
X122153475Y-98593368D01*
X121946632Y-98386525D01*
X121772240Y-98270000D01*
X121946632Y-98153475D01*
X122153475Y-97946632D01*
X122315990Y-97703411D01*
X122318206Y-97698061D01*
X125065000Y-97698061D01*
X125065000Y-97901939D01*
X125104774Y-98101898D01*
X125182795Y-98290256D01*
X125296063Y-98459774D01*
X125440226Y-98603937D01*
X125609744Y-98717205D01*
X125798102Y-98795226D01*
X125998061Y-98835000D01*
X126201939Y-98835000D01*
X126401898Y-98795226D01*
X126590256Y-98717205D01*
X126759774Y-98603937D01*
X126903937Y-98459774D01*
X127017205Y-98290256D01*
X127023875Y-98274154D01*
X127029862Y-98274154D01*
X127229821Y-98234380D01*
X127418179Y-98156359D01*
X127587697Y-98043091D01*
X127731860Y-97898928D01*
X127845128Y-97729410D01*
X127923149Y-97541052D01*
X127962923Y-97341093D01*
X127962923Y-97137215D01*
X127923149Y-96937256D01*
X127845128Y-96748898D01*
X127731860Y-96579380D01*
X127587697Y-96435217D01*
X127418179Y-96321949D01*
X127229821Y-96243928D01*
X127029862Y-96204154D01*
X126825984Y-96204154D01*
X126626025Y-96243928D01*
X126437667Y-96321949D01*
X126268149Y-96435217D01*
X126123986Y-96579380D01*
X126010718Y-96748898D01*
X126004048Y-96765000D01*
X125998061Y-96765000D01*
X125798102Y-96804774D01*
X125609744Y-96882795D01*
X125440226Y-96996063D01*
X125296063Y-97140226D01*
X125182795Y-97309744D01*
X125104774Y-97498102D01*
X125065000Y-97698061D01*
X122318206Y-97698061D01*
X122427932Y-97433158D01*
X122485000Y-97146260D01*
X122485000Y-96853740D01*
X122427932Y-96566842D01*
X122315990Y-96296589D01*
X122153475Y-96053368D01*
X121946632Y-95846525D01*
X121772240Y-95730000D01*
X121946632Y-95613475D01*
X122153475Y-95406632D01*
X122226019Y-95298061D01*
X131165008Y-95298061D01*
X131165008Y-95501939D01*
X131204782Y-95701898D01*
X131282803Y-95890256D01*
X131396071Y-96059774D01*
X131540234Y-96203937D01*
X131709752Y-96317205D01*
X131898110Y-96395226D01*
X132098069Y-96435000D01*
X132301947Y-96435000D01*
X132501906Y-96395226D01*
X132690264Y-96317205D01*
X132859782Y-96203937D01*
X133000034Y-96063685D01*
X133106204Y-96222581D01*
X133250367Y-96366744D01*
X133419885Y-96480012D01*
X133608243Y-96558033D01*
X133808202Y-96597807D01*
X134012080Y-96597807D01*
X134212039Y-96558033D01*
X134400397Y-96480012D01*
X134523027Y-96398073D01*
X137465000Y-96398073D01*
X137465000Y-96601951D01*
X137504774Y-96801910D01*
X137582795Y-96990268D01*
X137696063Y-97159786D01*
X137840226Y-97303949D01*
X138009744Y-97417217D01*
X138198102Y-97495238D01*
X138339138Y-97523292D01*
X138354774Y-97601898D01*
X138432795Y-97790256D01*
X138546063Y-97959774D01*
X138690226Y-98103937D01*
X138859744Y-98217205D01*
X139048102Y-98295226D01*
X139248061Y-98335000D01*
X139451939Y-98335000D01*
X139651898Y-98295226D01*
X139840256Y-98217205D01*
X140009774Y-98103937D01*
X140153937Y-97959774D01*
X140267205Y-97790256D01*
X140345226Y-97601898D01*
X140385000Y-97401939D01*
X140385000Y-97198061D01*
X140345226Y-96998102D01*
X140267205Y-96809744D01*
X140153937Y-96640226D01*
X140009774Y-96496063D01*
X139840256Y-96382795D01*
X139651898Y-96304774D01*
X139510862Y-96276720D01*
X139495226Y-96198114D01*
X139417205Y-96009756D01*
X139303937Y-95840238D01*
X139159774Y-95696075D01*
X138990256Y-95582807D01*
X138801898Y-95504786D01*
X138601939Y-95465012D01*
X138398061Y-95465012D01*
X138198102Y-95504786D01*
X138009744Y-95582807D01*
X137840226Y-95696075D01*
X137696063Y-95840238D01*
X137582795Y-96009756D01*
X137504774Y-96198114D01*
X137465000Y-96398073D01*
X134523027Y-96398073D01*
X134569915Y-96366744D01*
X134714078Y-96222581D01*
X134827346Y-96053063D01*
X134905367Y-95864705D01*
X134945141Y-95664746D01*
X134945141Y-95460868D01*
X134917610Y-95322458D01*
X135026356Y-95344089D01*
X135230234Y-95344089D01*
X135430193Y-95304315D01*
X135488754Y-95280058D01*
X140299814Y-95280058D01*
X140299814Y-95483936D01*
X140339588Y-95683895D01*
X140417609Y-95872253D01*
X140530877Y-96041771D01*
X140675040Y-96185934D01*
X140844558Y-96299202D01*
X141032916Y-96377223D01*
X141232875Y-96416997D01*
X141436753Y-96416997D01*
X141636712Y-96377223D01*
X141825070Y-96299202D01*
X141994588Y-96185934D01*
X142138751Y-96041771D01*
X142252019Y-95872253D01*
X142330040Y-95683895D01*
X142369814Y-95483936D01*
X142369814Y-95396027D01*
X142388043Y-95414256D01*
X142557561Y-95527524D01*
X142745919Y-95605545D01*
X142945878Y-95645319D01*
X143149756Y-95645319D01*
X143349715Y-95605545D01*
X143538073Y-95527524D01*
X143707591Y-95414256D01*
X143851754Y-95270093D01*
X143965022Y-95100575D01*
X144043043Y-94912217D01*
X144082817Y-94712258D01*
X144082817Y-94508380D01*
X144043043Y-94308421D01*
X143965022Y-94120063D01*
X143851754Y-93950545D01*
X143707591Y-93806382D01*
X143538073Y-93693114D01*
X143349715Y-93615093D01*
X143161031Y-93577562D01*
X143145226Y-93498102D01*
X143067205Y-93309744D01*
X142953937Y-93140226D01*
X142809774Y-92996063D01*
X142640256Y-92882795D01*
X142451898Y-92804774D01*
X142333112Y-92781146D01*
X142345226Y-92751900D01*
X142385000Y-92551941D01*
X142385000Y-92348063D01*
X142345226Y-92148104D01*
X142267205Y-91959746D01*
X142153937Y-91790228D01*
X142009774Y-91646065D01*
X141840256Y-91532797D01*
X141651898Y-91454776D01*
X141451939Y-91415002D01*
X141248061Y-91415002D01*
X141048102Y-91454776D01*
X140859744Y-91532797D01*
X140690226Y-91646065D01*
X140546063Y-91790228D01*
X140432795Y-91959746D01*
X140354774Y-92148104D01*
X140315000Y-92348063D01*
X140315000Y-92551941D01*
X140354774Y-92751900D01*
X140432795Y-92940258D01*
X140546063Y-93109776D01*
X140690226Y-93253939D01*
X140859744Y-93367207D01*
X141048102Y-93445228D01*
X141166888Y-93468856D01*
X141154774Y-93498102D01*
X141115000Y-93698061D01*
X141115000Y-93901939D01*
X141154774Y-94101898D01*
X141232795Y-94290256D01*
X141270708Y-94346997D01*
X141232875Y-94346997D01*
X141032916Y-94386771D01*
X140844558Y-94464792D01*
X140675040Y-94578060D01*
X140530877Y-94722223D01*
X140417609Y-94891741D01*
X140339588Y-95080099D01*
X140299814Y-95280058D01*
X135488754Y-95280058D01*
X135618551Y-95226294D01*
X135788069Y-95113026D01*
X135932232Y-94968863D01*
X136045500Y-94799345D01*
X136123521Y-94610987D01*
X136163295Y-94411028D01*
X136163295Y-94207150D01*
X136123521Y-94007191D01*
X136045500Y-93818833D01*
X135932232Y-93649315D01*
X135788069Y-93505152D01*
X135618551Y-93391884D01*
X135430193Y-93313863D01*
X135230234Y-93274089D01*
X135026356Y-93274089D01*
X134826397Y-93313863D01*
X134638039Y-93391884D01*
X134468521Y-93505152D01*
X134324358Y-93649315D01*
X134211090Y-93818833D01*
X134133069Y-94007191D01*
X134093295Y-94207150D01*
X134093295Y-94411028D01*
X134120826Y-94549438D01*
X134012080Y-94527807D01*
X133808202Y-94527807D01*
X133608243Y-94567581D01*
X133419885Y-94645602D01*
X133250367Y-94758870D01*
X133110115Y-94899122D01*
X133003945Y-94740226D01*
X132859782Y-94596063D01*
X132690264Y-94482795D01*
X132501906Y-94404774D01*
X132301947Y-94365000D01*
X132098069Y-94365000D01*
X131898110Y-94404774D01*
X131709752Y-94482795D01*
X131540234Y-94596063D01*
X131396071Y-94740226D01*
X131282803Y-94909744D01*
X131204782Y-95098102D01*
X131165008Y-95298061D01*
X122226019Y-95298061D01*
X122315990Y-95163411D01*
X122427932Y-94893158D01*
X122485000Y-94606260D01*
X122485000Y-94313740D01*
X122427932Y-94026842D01*
X122315990Y-93756589D01*
X122303610Y-93738061D01*
X123575002Y-93738061D01*
X123575002Y-93941939D01*
X123614776Y-94141898D01*
X123692797Y-94330256D01*
X123806065Y-94499774D01*
X123950228Y-94643937D01*
X124119746Y-94757205D01*
X124308104Y-94835226D01*
X124508063Y-94875000D01*
X124711941Y-94875000D01*
X124911900Y-94835226D01*
X125100258Y-94757205D01*
X125269776Y-94643937D01*
X125413939Y-94499774D01*
X125527207Y-94330256D01*
X125605228Y-94141898D01*
X125645002Y-93941939D01*
X125645002Y-93738061D01*
X125605228Y-93538102D01*
X125527207Y-93349744D01*
X125413939Y-93180226D01*
X125364478Y-93130765D01*
X125443355Y-93078061D01*
X126555000Y-93078061D01*
X126555000Y-93281939D01*
X126594774Y-93481898D01*
X126672795Y-93670256D01*
X126786063Y-93839774D01*
X126930226Y-93983937D01*
X127099744Y-94097205D01*
X127288102Y-94175226D01*
X127488061Y-94215000D01*
X127691939Y-94215000D01*
X127891898Y-94175226D01*
X128080256Y-94097205D01*
X128249774Y-93983937D01*
X128393937Y-93839774D01*
X128507205Y-93670256D01*
X128585226Y-93481898D01*
X128625000Y-93281939D01*
X128625000Y-93078061D01*
X128585226Y-92878102D01*
X128507205Y-92689744D01*
X128393937Y-92520226D01*
X128249774Y-92376063D01*
X128080256Y-92262795D01*
X127891898Y-92184774D01*
X127691939Y-92145000D01*
X127488061Y-92145000D01*
X127288102Y-92184774D01*
X127099744Y-92262795D01*
X126930226Y-92376063D01*
X126786063Y-92520226D01*
X126672795Y-92689744D01*
X126594774Y-92878102D01*
X126555000Y-93078061D01*
X125443355Y-93078061D01*
X125527605Y-93021768D01*
X125671768Y-92877605D01*
X125785036Y-92708087D01*
X125863057Y-92519729D01*
X125902831Y-92319770D01*
X125902831Y-92115892D01*
X125863057Y-91915933D01*
X125800007Y-91763718D01*
X125840226Y-91803937D01*
X126009744Y-91917205D01*
X126198102Y-91995226D01*
X126398061Y-92035000D01*
X126601939Y-92035000D01*
X126801898Y-91995226D01*
X126990256Y-91917205D01*
X127159774Y-91803937D01*
X127300000Y-91663711D01*
X127390226Y-91753937D01*
X127559744Y-91867205D01*
X127748102Y-91945226D01*
X127948061Y-91985000D01*
X128151939Y-91985000D01*
X128351898Y-91945226D01*
X128540256Y-91867205D01*
X128709774Y-91753937D01*
X128751944Y-91711767D01*
X128909744Y-91817205D01*
X129098102Y-91895226D01*
X129298061Y-91935000D01*
X129501939Y-91935000D01*
X129701898Y-91895226D01*
X129890256Y-91817205D01*
X130059774Y-91703937D01*
X130203937Y-91559774D01*
X130317205Y-91390256D01*
X130376072Y-91248138D01*
X131465000Y-91248138D01*
X131465000Y-91452016D01*
X131504774Y-91651975D01*
X131582795Y-91840333D01*
X131696063Y-92009851D01*
X131840226Y-92154014D01*
X132009744Y-92267282D01*
X132198102Y-92345303D01*
X132398061Y-92385077D01*
X132601939Y-92385077D01*
X132801898Y-92345303D01*
X132990256Y-92267282D01*
X133159774Y-92154014D01*
X133303937Y-92009851D01*
X133417205Y-91840333D01*
X133495226Y-91651975D01*
X133535000Y-91452016D01*
X133535000Y-91248138D01*
X133495226Y-91048179D01*
X133417205Y-90859821D01*
X133303937Y-90690303D01*
X133159774Y-90546140D01*
X132990256Y-90432872D01*
X132801898Y-90354851D01*
X132601939Y-90315077D01*
X132398061Y-90315077D01*
X132198102Y-90354851D01*
X132009744Y-90432872D01*
X131840226Y-90546140D01*
X131696063Y-90690303D01*
X131582795Y-90859821D01*
X131504774Y-91048179D01*
X131465000Y-91248138D01*
X130376072Y-91248138D01*
X130395226Y-91201898D01*
X130435000Y-91001939D01*
X130435000Y-90798061D01*
X130395226Y-90598102D01*
X130317205Y-90409744D01*
X130203937Y-90240226D01*
X130059774Y-90096063D01*
X129890256Y-89982795D01*
X129701898Y-89904774D01*
X129501939Y-89865000D01*
X129298061Y-89865000D01*
X129098102Y-89904774D01*
X128909744Y-89982795D01*
X128740226Y-90096063D01*
X128698056Y-90138233D01*
X128540256Y-90032795D01*
X128351898Y-89954774D01*
X128151939Y-89915000D01*
X127948061Y-89915000D01*
X127748102Y-89954774D01*
X127559744Y-90032795D01*
X127390226Y-90146063D01*
X127250000Y-90286289D01*
X127159774Y-90196063D01*
X126990256Y-90082795D01*
X126801898Y-90004774D01*
X126601939Y-89965000D01*
X126398061Y-89965000D01*
X126198102Y-90004774D01*
X126009744Y-90082795D01*
X125840226Y-90196063D01*
X125696063Y-90340226D01*
X125582795Y-90509744D01*
X125504774Y-90698102D01*
X125465000Y-90898061D01*
X125465000Y-91101939D01*
X125504774Y-91301898D01*
X125567824Y-91454113D01*
X125527605Y-91413894D01*
X125358087Y-91300626D01*
X125169729Y-91222605D01*
X124969770Y-91182831D01*
X124765892Y-91182831D01*
X124565933Y-91222605D01*
X124377575Y-91300626D01*
X124208057Y-91413894D01*
X124063894Y-91558057D01*
X123950626Y-91727575D01*
X123872605Y-91915933D01*
X123832831Y-92115892D01*
X123832831Y-92319770D01*
X123872605Y-92519729D01*
X123950626Y-92708087D01*
X124063894Y-92877605D01*
X124113355Y-92927066D01*
X123950228Y-93036063D01*
X123806065Y-93180226D01*
X123692797Y-93349744D01*
X123614776Y-93538102D01*
X123575002Y-93738061D01*
X122303610Y-93738061D01*
X122153475Y-93513368D01*
X121946632Y-93306525D01*
X121772240Y-93190000D01*
X121946632Y-93073475D01*
X122153475Y-92866632D01*
X122315990Y-92623411D01*
X122427932Y-92353158D01*
X122485000Y-92066260D01*
X122485000Y-91773740D01*
X122427932Y-91486842D01*
X122315990Y-91216589D01*
X122153475Y-90973368D01*
X121946632Y-90766525D01*
X121772240Y-90650000D01*
X121946632Y-90533475D01*
X122153475Y-90326632D01*
X122315990Y-90083411D01*
X122427932Y-89813158D01*
X122485000Y-89526260D01*
X122485000Y-89233740D01*
X122439182Y-89003399D01*
X122598061Y-89035002D01*
X122801939Y-89035002D01*
X123001898Y-88995228D01*
X123190256Y-88917207D01*
X123359774Y-88803939D01*
X123503937Y-88659776D01*
X123617205Y-88490258D01*
X123695226Y-88301900D01*
X123735000Y-88101941D01*
X123735000Y-87898063D01*
X123695226Y-87698104D01*
X123617205Y-87509746D01*
X123503937Y-87340228D01*
X123401655Y-87237946D01*
X124530857Y-87237946D01*
X124530857Y-87441824D01*
X124570631Y-87641783D01*
X124648652Y-87830141D01*
X124761920Y-87999659D01*
X124906083Y-88143822D01*
X124947232Y-88171317D01*
X124947232Y-88305635D01*
X124987006Y-88505594D01*
X125065027Y-88693952D01*
X125178295Y-88863470D01*
X125322458Y-89007633D01*
X125491976Y-89120901D01*
X125680334Y-89198922D01*
X125880293Y-89238696D01*
X126084171Y-89238696D01*
X126284130Y-89198922D01*
X126472488Y-89120901D01*
X126642006Y-89007633D01*
X126786169Y-88863470D01*
X126821035Y-88811288D01*
X129115000Y-88811288D01*
X129115000Y-89015166D01*
X129154774Y-89215125D01*
X129232795Y-89403483D01*
X129346063Y-89573001D01*
X129490226Y-89717164D01*
X129659744Y-89830432D01*
X129848102Y-89908453D01*
X130048061Y-89948227D01*
X130251939Y-89948227D01*
X130451898Y-89908453D01*
X130595256Y-89849072D01*
X130598102Y-89850251D01*
X130798061Y-89890025D01*
X131001939Y-89890025D01*
X131201898Y-89850251D01*
X131390256Y-89772230D01*
X131559774Y-89658962D01*
X131703937Y-89514799D01*
X131817205Y-89345281D01*
X131878185Y-89198061D01*
X135815000Y-89198061D01*
X135815000Y-89401939D01*
X135854774Y-89601898D01*
X135932795Y-89790256D01*
X136046063Y-89959774D01*
X136190226Y-90103937D01*
X136359744Y-90217205D01*
X136548102Y-90295226D01*
X136748061Y-90335000D01*
X136951939Y-90335000D01*
X137151898Y-90295226D01*
X137340256Y-90217205D01*
X137509774Y-90103937D01*
X137653937Y-89959774D01*
X137767205Y-89790256D01*
X137845226Y-89601898D01*
X137885000Y-89401939D01*
X137885000Y-89303753D01*
X138048102Y-89371313D01*
X138248061Y-89411087D01*
X138451939Y-89411087D01*
X138651898Y-89371313D01*
X138840256Y-89293292D01*
X139009774Y-89180024D01*
X139153937Y-89035861D01*
X139267205Y-88866343D01*
X139345226Y-88677985D01*
X139385000Y-88478026D01*
X139385000Y-88274148D01*
X139345226Y-88074189D01*
X139267205Y-87885831D01*
X139164086Y-87731502D01*
X140098807Y-87731502D01*
X140098807Y-87935380D01*
X140138581Y-88135339D01*
X140216602Y-88323697D01*
X140329870Y-88493215D01*
X140474033Y-88637378D01*
X140643551Y-88750646D01*
X140788162Y-88810546D01*
X140802590Y-88883079D01*
X140880611Y-89071437D01*
X140993879Y-89240955D01*
X141138042Y-89385118D01*
X141307560Y-89498386D01*
X141495918Y-89576407D01*
X141695877Y-89616181D01*
X141899755Y-89616181D01*
X142099714Y-89576407D01*
X142288072Y-89498386D01*
X142457590Y-89385118D01*
X142515000Y-89327708D01*
X142515000Y-89351939D01*
X142532828Y-89441565D01*
X142466418Y-89454775D01*
X142278060Y-89532796D01*
X142108542Y-89646064D01*
X141964379Y-89790227D01*
X141851111Y-89959745D01*
X141773090Y-90148103D01*
X141733316Y-90348062D01*
X141733316Y-90551940D01*
X141773090Y-90751899D01*
X141851111Y-90940257D01*
X141964379Y-91109775D01*
X142108542Y-91253938D01*
X142278060Y-91367206D01*
X142466418Y-91445227D01*
X142666377Y-91485001D01*
X142870255Y-91485001D01*
X143070214Y-91445227D01*
X143258572Y-91367206D01*
X143428090Y-91253938D01*
X143572253Y-91109775D01*
X143685521Y-90940257D01*
X143763542Y-90751899D01*
X143803316Y-90551940D01*
X143803316Y-90348062D01*
X143785488Y-90258436D01*
X143851898Y-90245226D01*
X144040256Y-90167205D01*
X144209774Y-90053937D01*
X144353937Y-89909774D01*
X144467205Y-89740256D01*
X144545226Y-89551898D01*
X144585000Y-89351939D01*
X144585000Y-89148061D01*
X144545226Y-88948102D01*
X144467205Y-88759744D01*
X144353937Y-88590226D01*
X144209774Y-88446063D01*
X144040256Y-88332795D01*
X143851898Y-88254774D01*
X143651939Y-88215000D01*
X143448061Y-88215000D01*
X143248102Y-88254774D01*
X143059744Y-88332795D01*
X142890226Y-88446063D01*
X142832816Y-88503473D01*
X142832816Y-88479242D01*
X142793042Y-88279283D01*
X142715021Y-88090925D01*
X142601753Y-87921407D01*
X142457590Y-87777244D01*
X142288072Y-87663976D01*
X142143461Y-87604076D01*
X142129033Y-87531543D01*
X142051012Y-87343185D01*
X141937744Y-87173667D01*
X141793581Y-87029504D01*
X141624063Y-86916236D01*
X141435705Y-86838215D01*
X141235746Y-86798441D01*
X141031868Y-86798441D01*
X140831909Y-86838215D01*
X140643551Y-86916236D01*
X140474033Y-87029504D01*
X140329870Y-87173667D01*
X140216602Y-87343185D01*
X140138581Y-87531543D01*
X140098807Y-87731502D01*
X139164086Y-87731502D01*
X139153937Y-87716313D01*
X139009774Y-87572150D01*
X138840256Y-87458882D01*
X138651898Y-87380861D01*
X138451939Y-87341087D01*
X138248061Y-87341087D01*
X138048102Y-87380861D01*
X137859744Y-87458882D01*
X137690226Y-87572150D01*
X137546063Y-87716313D01*
X137432795Y-87885831D01*
X137354774Y-88074189D01*
X137315000Y-88274148D01*
X137315000Y-88372334D01*
X137151898Y-88304774D01*
X136951939Y-88265000D01*
X136748061Y-88265000D01*
X136548102Y-88304774D01*
X136359744Y-88382795D01*
X136190226Y-88496063D01*
X136046063Y-88640226D01*
X135932795Y-88809744D01*
X135854774Y-88998102D01*
X135815000Y-89198061D01*
X131878185Y-89198061D01*
X131895226Y-89156923D01*
X131935000Y-88956964D01*
X131935000Y-88753086D01*
X131895226Y-88553127D01*
X131817205Y-88364769D01*
X131703937Y-88195251D01*
X131559774Y-88051088D01*
X131390256Y-87937820D01*
X131201898Y-87859799D01*
X131001939Y-87820025D01*
X130798061Y-87820025D01*
X130598102Y-87859799D01*
X130454744Y-87919180D01*
X130451898Y-87918001D01*
X130251939Y-87878227D01*
X130048061Y-87878227D01*
X129848102Y-87918001D01*
X129659744Y-87996022D01*
X129490226Y-88109290D01*
X129346063Y-88253453D01*
X129232795Y-88422971D01*
X129154774Y-88611329D01*
X129115000Y-88811288D01*
X126821035Y-88811288D01*
X126899437Y-88693952D01*
X126977458Y-88505594D01*
X127017232Y-88305635D01*
X127017232Y-88101757D01*
X126977458Y-87901798D01*
X126899437Y-87713440D01*
X126786169Y-87543922D01*
X126642006Y-87399759D01*
X126600857Y-87372264D01*
X126600857Y-87237946D01*
X126561083Y-87037987D01*
X126483062Y-86849629D01*
X126369794Y-86680111D01*
X126225631Y-86535948D01*
X126056113Y-86422680D01*
X125867755Y-86344659D01*
X125667796Y-86304885D01*
X125463918Y-86304885D01*
X125263959Y-86344659D01*
X125075601Y-86422680D01*
X124906083Y-86535948D01*
X124761920Y-86680111D01*
X124648652Y-86849629D01*
X124570631Y-87037987D01*
X124530857Y-87237946D01*
X123401655Y-87237946D01*
X123359774Y-87196065D01*
X123190256Y-87082797D01*
X123001898Y-87004776D01*
X122801939Y-86965002D01*
X122598061Y-86965002D01*
X122484745Y-86987542D01*
X122485000Y-86986260D01*
X122485000Y-86693740D01*
X122474839Y-86642659D01*
X122537256Y-86616805D01*
X122706774Y-86503537D01*
X122850937Y-86359374D01*
X122964205Y-86189856D01*
X123042226Y-86001498D01*
X123082000Y-85801539D01*
X123082000Y-85597661D01*
X123042226Y-85397702D01*
X122964205Y-85209344D01*
X122850937Y-85039826D01*
X122706774Y-84895663D01*
X122560702Y-84798061D01*
X129465000Y-84798061D01*
X129465000Y-85001939D01*
X129504774Y-85201898D01*
X129582795Y-85390256D01*
X129696063Y-85559774D01*
X129840226Y-85703937D01*
X130009744Y-85817205D01*
X130198102Y-85895226D01*
X130398061Y-85935000D01*
X130601939Y-85935000D01*
X130801898Y-85895226D01*
X130990256Y-85817205D01*
X131159774Y-85703937D01*
X131303937Y-85559774D01*
X131417205Y-85390256D01*
X131495226Y-85201898D01*
X131535000Y-85001939D01*
X131535000Y-84898061D01*
X135765000Y-84898061D01*
X135765000Y-85101939D01*
X135804774Y-85301898D01*
X135882795Y-85490256D01*
X135996063Y-85659774D01*
X136140226Y-85803937D01*
X136309744Y-85917205D01*
X136498102Y-85995226D01*
X136698061Y-86035000D01*
X136901939Y-86035000D01*
X137101898Y-85995226D01*
X137290256Y-85917205D01*
X137459774Y-85803937D01*
X137603937Y-85659774D01*
X137717205Y-85490256D01*
X137763875Y-85377586D01*
X137890226Y-85503937D01*
X138059744Y-85617205D01*
X138248102Y-85695226D01*
X138265000Y-85698587D01*
X138265000Y-85701939D01*
X138304774Y-85901898D01*
X138382795Y-86090256D01*
X138496063Y-86259774D01*
X138640226Y-86403937D01*
X138809744Y-86517205D01*
X138998102Y-86595226D01*
X139198061Y-86635000D01*
X139401939Y-86635000D01*
X139601898Y-86595226D01*
X139790256Y-86517205D01*
X139959774Y-86403937D01*
X140103937Y-86259774D01*
X140217205Y-86090256D01*
X140295226Y-85901898D01*
X140335000Y-85701939D01*
X140335000Y-85598061D01*
X140465000Y-85598061D01*
X140465000Y-85801939D01*
X140504774Y-86001898D01*
X140582795Y-86190256D01*
X140696063Y-86359774D01*
X140840226Y-86503937D01*
X141009744Y-86617205D01*
X141198102Y-86695226D01*
X141398061Y-86735000D01*
X141601939Y-86735000D01*
X141801898Y-86695226D01*
X141990256Y-86617205D01*
X142029535Y-86590960D01*
X141994123Y-86768989D01*
X141994123Y-86972867D01*
X142033897Y-87172826D01*
X142111918Y-87361184D01*
X142225186Y-87530702D01*
X142369349Y-87674865D01*
X142538867Y-87788133D01*
X142727225Y-87866154D01*
X142927184Y-87905928D01*
X143131062Y-87905928D01*
X143331021Y-87866154D01*
X143519379Y-87788133D01*
X143688897Y-87674865D01*
X143833060Y-87530702D01*
X143946328Y-87361184D01*
X144024349Y-87172826D01*
X144064123Y-86972867D01*
X144064123Y-86768989D01*
X144024349Y-86569030D01*
X143946328Y-86380672D01*
X143833060Y-86211154D01*
X143688897Y-86066991D01*
X143519379Y-85953723D01*
X143331021Y-85875702D01*
X143131062Y-85835928D01*
X142927184Y-85835928D01*
X142727225Y-85875702D01*
X142538867Y-85953723D01*
X142499588Y-85979968D01*
X142535000Y-85801939D01*
X142535000Y-85598061D01*
X142495226Y-85398102D01*
X142417205Y-85209744D01*
X142303937Y-85040226D01*
X142159774Y-84896063D01*
X141990256Y-84782795D01*
X141801898Y-84704774D01*
X141601939Y-84665000D01*
X141398061Y-84665000D01*
X141198102Y-84704774D01*
X141009744Y-84782795D01*
X140840226Y-84896063D01*
X140696063Y-85040226D01*
X140582795Y-85209744D01*
X140504774Y-85398102D01*
X140465000Y-85598061D01*
X140335000Y-85598061D01*
X140335000Y-85498061D01*
X140295226Y-85298102D01*
X140217205Y-85109744D01*
X140103937Y-84940226D01*
X139959774Y-84796063D01*
X139790256Y-84682795D01*
X139601898Y-84604774D01*
X139585000Y-84601413D01*
X139585000Y-84598061D01*
X139545226Y-84398102D01*
X139545210Y-84398061D01*
X142165000Y-84398061D01*
X142165000Y-84601939D01*
X142204774Y-84801898D01*
X142282795Y-84990256D01*
X142396063Y-85159774D01*
X142540226Y-85303937D01*
X142709744Y-85417205D01*
X142898102Y-85495226D01*
X143098061Y-85535000D01*
X143301939Y-85535000D01*
X143501898Y-85495226D01*
X143690256Y-85417205D01*
X143859774Y-85303937D01*
X144003937Y-85159774D01*
X144117205Y-84990256D01*
X144195226Y-84801898D01*
X144235000Y-84601939D01*
X144235000Y-84398061D01*
X144195226Y-84198102D01*
X144117205Y-84009744D01*
X144003937Y-83840226D01*
X143859774Y-83696063D01*
X143690256Y-83582795D01*
X143501898Y-83504774D01*
X143301939Y-83465000D01*
X143098061Y-83465000D01*
X142898102Y-83504774D01*
X142709744Y-83582795D01*
X142540226Y-83696063D01*
X142396063Y-83840226D01*
X142282795Y-84009744D01*
X142204774Y-84198102D01*
X142165000Y-84398061D01*
X139545210Y-84398061D01*
X139467205Y-84209744D01*
X139353937Y-84040226D01*
X139209774Y-83896063D01*
X139040256Y-83782795D01*
X138851898Y-83704774D01*
X138651939Y-83665000D01*
X138540093Y-83665000D01*
X138517205Y-83609744D01*
X138477285Y-83550000D01*
X138517205Y-83490256D01*
X138595226Y-83301898D01*
X138635000Y-83101939D01*
X138635000Y-82898711D01*
X138640226Y-82903937D01*
X138809744Y-83017205D01*
X138998102Y-83095226D01*
X139065000Y-83108533D01*
X139065000Y-83301939D01*
X139104774Y-83501898D01*
X139182795Y-83690256D01*
X139296063Y-83859774D01*
X139440226Y-84003937D01*
X139609744Y-84117205D01*
X139798102Y-84195226D01*
X139998061Y-84235000D01*
X140201939Y-84235000D01*
X140401898Y-84195226D01*
X140590256Y-84117205D01*
X140759774Y-84003937D01*
X140903937Y-83859774D01*
X141017205Y-83690256D01*
X141095226Y-83501898D01*
X141135000Y-83301939D01*
X141135000Y-83098061D01*
X141095226Y-82898102D01*
X141017205Y-82709744D01*
X140903937Y-82540226D01*
X140759774Y-82396063D01*
X140590256Y-82282795D01*
X140401898Y-82204774D01*
X140335000Y-82191467D01*
X140335000Y-81998061D01*
X140295226Y-81798102D01*
X140217205Y-81609744D01*
X140103937Y-81440226D01*
X139959774Y-81296063D01*
X139790256Y-81182795D01*
X139601898Y-81104774D01*
X139401939Y-81065000D01*
X139198061Y-81065000D01*
X138998102Y-81104774D01*
X138809744Y-81182795D01*
X138640226Y-81296063D01*
X138496063Y-81440226D01*
X138382795Y-81609744D01*
X138304774Y-81798102D01*
X138265000Y-81998061D01*
X138265000Y-82201289D01*
X138259774Y-82196063D01*
X138090256Y-82082795D01*
X137901898Y-82004774D01*
X137701939Y-81965000D01*
X137498061Y-81965000D01*
X137298102Y-82004774D01*
X137109744Y-82082795D01*
X136940226Y-82196063D01*
X136796063Y-82340226D01*
X136682795Y-82509744D01*
X136604774Y-82698102D01*
X136565000Y-82898061D01*
X136565000Y-83101939D01*
X136604774Y-83301898D01*
X136682795Y-83490256D01*
X136722715Y-83550000D01*
X136682795Y-83609744D01*
X136604774Y-83798102D01*
X136566366Y-83991196D01*
X136498102Y-84004774D01*
X136309744Y-84082795D01*
X136140226Y-84196063D01*
X135996063Y-84340226D01*
X135882795Y-84509744D01*
X135804774Y-84698102D01*
X135765000Y-84898061D01*
X131535000Y-84898061D01*
X131535000Y-84798061D01*
X131495226Y-84598102D01*
X131417205Y-84409744D01*
X131303937Y-84240226D01*
X131159774Y-84096063D01*
X130990256Y-83982795D01*
X130801898Y-83904774D01*
X130601939Y-83865000D01*
X130398061Y-83865000D01*
X130198102Y-83904774D01*
X130009744Y-83982795D01*
X129840226Y-84096063D01*
X129696063Y-84240226D01*
X129582795Y-84409744D01*
X129504774Y-84598102D01*
X129465000Y-84798061D01*
X122560702Y-84798061D01*
X122537256Y-84782395D01*
X122426534Y-84736532D01*
X122427932Y-84733158D01*
X122485000Y-84446260D01*
X122485000Y-84153740D01*
X122427932Y-83866842D01*
X122315990Y-83596589D01*
X122153475Y-83353368D01*
X121946632Y-83146525D01*
X121772240Y-83030000D01*
X121946632Y-82913475D01*
X122153475Y-82706632D01*
X122315990Y-82463411D01*
X122427932Y-82193158D01*
X122466739Y-81998061D01*
X127565000Y-81998061D01*
X127565000Y-82201939D01*
X127604774Y-82401898D01*
X127682795Y-82590256D01*
X127796063Y-82759774D01*
X127940226Y-82903937D01*
X128109744Y-83017205D01*
X128298102Y-83095226D01*
X128498061Y-83135000D01*
X128701939Y-83135000D01*
X128901898Y-83095226D01*
X129090256Y-83017205D01*
X129259774Y-82903937D01*
X129403937Y-82759774D01*
X129517205Y-82590256D01*
X129595226Y-82401898D01*
X129635000Y-82201939D01*
X129635000Y-81998061D01*
X129595226Y-81798102D01*
X129517205Y-81609744D01*
X129403937Y-81440226D01*
X129259774Y-81296063D01*
X129187934Y-81248061D01*
X133065000Y-81248061D01*
X133065000Y-81451939D01*
X133104774Y-81651898D01*
X133182795Y-81840256D01*
X133296063Y-82009774D01*
X133440226Y-82153937D01*
X133609744Y-82267205D01*
X133798102Y-82345226D01*
X133998061Y-82385000D01*
X134201939Y-82385000D01*
X134401898Y-82345226D01*
X134590256Y-82267205D01*
X134759774Y-82153937D01*
X134903937Y-82009774D01*
X135017205Y-81840256D01*
X135095226Y-81651898D01*
X135135000Y-81451939D01*
X135135000Y-81248061D01*
X135095226Y-81048102D01*
X135017205Y-80859744D01*
X134903937Y-80690226D01*
X134759774Y-80546063D01*
X134590256Y-80432795D01*
X134401898Y-80354774D01*
X134201939Y-80315000D01*
X133998061Y-80315000D01*
X133798102Y-80354774D01*
X133609744Y-80432795D01*
X133440226Y-80546063D01*
X133296063Y-80690226D01*
X133182795Y-80859744D01*
X133104774Y-81048102D01*
X133065000Y-81248061D01*
X129187934Y-81248061D01*
X129090256Y-81182795D01*
X128901898Y-81104774D01*
X128701939Y-81065000D01*
X128498061Y-81065000D01*
X128298102Y-81104774D01*
X128109744Y-81182795D01*
X127940226Y-81296063D01*
X127796063Y-81440226D01*
X127682795Y-81609744D01*
X127604774Y-81798102D01*
X127565000Y-81998061D01*
X122466739Y-81998061D01*
X122485000Y-81906260D01*
X122485000Y-81613740D01*
X122427932Y-81326842D01*
X122315990Y-81056589D01*
X122153475Y-80813368D01*
X121946632Y-80606525D01*
X121772240Y-80490000D01*
X121946632Y-80373475D01*
X122153475Y-80166632D01*
X122315990Y-79923411D01*
X122427932Y-79653158D01*
X122485000Y-79366260D01*
X122485000Y-79073740D01*
X122427932Y-78786842D01*
X122315990Y-78516589D01*
X122153475Y-78273368D01*
X121946632Y-78066525D01*
X121844169Y-77998061D01*
X125365000Y-77998061D01*
X125365000Y-78201939D01*
X125404774Y-78401898D01*
X125482795Y-78590256D01*
X125589532Y-78750000D01*
X125482795Y-78909744D01*
X125404774Y-79098102D01*
X125365000Y-79298061D01*
X125365000Y-79501939D01*
X125404774Y-79701898D01*
X125482795Y-79890256D01*
X125596063Y-80059774D01*
X125740226Y-80203937D01*
X125884445Y-80300301D01*
X125865000Y-80398061D01*
X125865000Y-80601939D01*
X125904774Y-80801898D01*
X125982795Y-80990256D01*
X126096063Y-81159774D01*
X126240226Y-81303937D01*
X126409744Y-81417205D01*
X126598102Y-81495226D01*
X126798061Y-81535000D01*
X127001939Y-81535000D01*
X127201898Y-81495226D01*
X127390256Y-81417205D01*
X127559774Y-81303937D01*
X127703937Y-81159774D01*
X127817205Y-80990256D01*
X127895226Y-80801898D01*
X127935000Y-80601939D01*
X127935000Y-80398061D01*
X127895226Y-80198102D01*
X127817205Y-80009744D01*
X127703937Y-79840226D01*
X127559774Y-79696063D01*
X127415555Y-79599699D01*
X127430799Y-79523059D01*
X140165000Y-79523059D01*
X140165000Y-79726937D01*
X140204774Y-79926896D01*
X140282795Y-80115254D01*
X140396063Y-80284772D01*
X140540226Y-80428935D01*
X140709744Y-80542203D01*
X140898102Y-80620224D01*
X141098061Y-80659998D01*
X141301939Y-80659998D01*
X141501898Y-80620224D01*
X141690256Y-80542203D01*
X141859774Y-80428935D01*
X142003937Y-80284772D01*
X142117205Y-80115254D01*
X142195226Y-79926896D01*
X142235000Y-79726937D01*
X142235000Y-79523059D01*
X142195226Y-79323100D01*
X142117205Y-79134742D01*
X142003937Y-78965224D01*
X141859774Y-78821061D01*
X141690256Y-78707793D01*
X141501898Y-78629772D01*
X141301939Y-78589998D01*
X141098061Y-78589998D01*
X140898102Y-78629772D01*
X140709744Y-78707793D01*
X140540226Y-78821061D01*
X140396063Y-78965224D01*
X140282795Y-79134742D01*
X140204774Y-79323100D01*
X140165000Y-79523059D01*
X127430799Y-79523059D01*
X127435000Y-79501939D01*
X127435000Y-79298061D01*
X127395226Y-79098102D01*
X127317205Y-78909744D01*
X127210468Y-78750000D01*
X127317205Y-78590256D01*
X127395226Y-78401898D01*
X127435000Y-78201939D01*
X127435000Y-77998061D01*
X127410792Y-77876358D01*
X127491896Y-77860226D01*
X127680254Y-77782205D01*
X127849772Y-77668937D01*
X127993935Y-77524774D01*
X128107203Y-77355256D01*
X128185224Y-77166898D01*
X128224998Y-76966939D01*
X128224998Y-76898061D01*
X135765000Y-76898061D01*
X135765000Y-77101939D01*
X135804774Y-77301898D01*
X135882795Y-77490256D01*
X135996063Y-77659774D01*
X136140226Y-77803937D01*
X136309744Y-77917205D01*
X136498102Y-77995226D01*
X136698061Y-78035000D01*
X136901939Y-78035000D01*
X137101898Y-77995226D01*
X137290256Y-77917205D01*
X137459774Y-77803937D01*
X137603937Y-77659774D01*
X137611763Y-77648061D01*
X138365000Y-77648061D01*
X138365000Y-77851939D01*
X138404774Y-78051898D01*
X138482795Y-78240256D01*
X138596063Y-78409774D01*
X138740226Y-78553937D01*
X138909744Y-78667205D01*
X139098102Y-78745226D01*
X139298061Y-78785000D01*
X139501939Y-78785000D01*
X139701898Y-78745226D01*
X139890256Y-78667205D01*
X140059774Y-78553937D01*
X140203937Y-78409774D01*
X140317205Y-78240256D01*
X140395226Y-78051898D01*
X140398587Y-78035000D01*
X140501939Y-78035000D01*
X140701898Y-77995226D01*
X140890256Y-77917205D01*
X141059774Y-77803937D01*
X141203937Y-77659774D01*
X141317205Y-77490256D01*
X141395226Y-77301898D01*
X141435000Y-77101939D01*
X141435000Y-76898061D01*
X141395226Y-76698102D01*
X141317205Y-76509744D01*
X141203937Y-76340226D01*
X141059774Y-76196063D01*
X140890256Y-76082795D01*
X140701898Y-76004774D01*
X140501939Y-75965000D01*
X140298061Y-75965000D01*
X140098102Y-76004774D01*
X139909744Y-76082795D01*
X139740226Y-76196063D01*
X139596063Y-76340226D01*
X139482795Y-76509744D01*
X139404774Y-76698102D01*
X139401413Y-76715000D01*
X139298061Y-76715000D01*
X139098102Y-76754774D01*
X138909744Y-76832795D01*
X138740226Y-76946063D01*
X138596063Y-77090226D01*
X138482795Y-77259744D01*
X138404774Y-77448102D01*
X138365000Y-77648061D01*
X137611763Y-77648061D01*
X137717205Y-77490256D01*
X137795226Y-77301898D01*
X137835000Y-77101939D01*
X137835000Y-76898061D01*
X137795226Y-76698102D01*
X137763977Y-76622660D01*
X137901898Y-76595226D01*
X138090256Y-76517205D01*
X138259774Y-76403937D01*
X138403937Y-76259774D01*
X138517205Y-76090256D01*
X138595226Y-75901898D01*
X138635000Y-75701939D01*
X138635000Y-75498061D01*
X138595226Y-75298102D01*
X138595210Y-75298061D01*
X142965000Y-75298061D01*
X142965000Y-75501939D01*
X143004774Y-75701898D01*
X143082795Y-75890256D01*
X143196063Y-76059774D01*
X143340226Y-76203937D01*
X143509744Y-76317205D01*
X143698102Y-76395226D01*
X143898061Y-76435000D01*
X144101939Y-76435000D01*
X144301898Y-76395226D01*
X144490256Y-76317205D01*
X144659774Y-76203937D01*
X144803937Y-76059774D01*
X144917205Y-75890256D01*
X144995226Y-75701898D01*
X145035000Y-75501939D01*
X145035000Y-75298061D01*
X144995226Y-75098102D01*
X144917205Y-74909744D01*
X144803937Y-74740226D01*
X144659774Y-74596063D01*
X144490256Y-74482795D01*
X144301898Y-74404774D01*
X144101939Y-74365000D01*
X143898061Y-74365000D01*
X143698102Y-74404774D01*
X143509744Y-74482795D01*
X143340226Y-74596063D01*
X143196063Y-74740226D01*
X143082795Y-74909744D01*
X143004774Y-75098102D01*
X142965000Y-75298061D01*
X138595210Y-75298061D01*
X138517205Y-75109744D01*
X138403937Y-74940226D01*
X138259774Y-74796063D01*
X138090256Y-74682795D01*
X137901898Y-74604774D01*
X137701939Y-74565000D01*
X137498061Y-74565000D01*
X137298102Y-74604774D01*
X137109744Y-74682795D01*
X136940226Y-74796063D01*
X136796063Y-74940226D01*
X136682795Y-75109744D01*
X136604774Y-75298102D01*
X136565000Y-75498061D01*
X136565000Y-75701939D01*
X136604774Y-75901898D01*
X136636023Y-75977340D01*
X136498102Y-76004774D01*
X136309744Y-76082795D01*
X136140226Y-76196063D01*
X135996063Y-76340226D01*
X135882795Y-76509744D01*
X135804774Y-76698102D01*
X135765000Y-76898061D01*
X128224998Y-76898061D01*
X128224998Y-76763061D01*
X128185224Y-76563102D01*
X128107203Y-76374744D01*
X127993935Y-76205226D01*
X127849772Y-76061063D01*
X127680254Y-75947795D01*
X127491896Y-75869774D01*
X127291937Y-75830000D01*
X127088059Y-75830000D01*
X126888100Y-75869774D01*
X126699742Y-75947795D01*
X126530224Y-76061063D01*
X126386061Y-76205226D01*
X126272793Y-76374744D01*
X126194772Y-76563102D01*
X126154998Y-76763061D01*
X126154998Y-76966939D01*
X126179206Y-77088642D01*
X126098102Y-77104774D01*
X125909744Y-77182795D01*
X125740226Y-77296063D01*
X125596063Y-77440226D01*
X125482795Y-77609744D01*
X125404774Y-77798102D01*
X125365000Y-77998061D01*
X121844169Y-77998061D01*
X121772240Y-77950000D01*
X121946632Y-77833475D01*
X122153475Y-77626632D01*
X122315990Y-77383411D01*
X122427932Y-77113158D01*
X122485000Y-76826260D01*
X122485000Y-76533740D01*
X122427932Y-76246842D01*
X122315990Y-75976589D01*
X122153475Y-75733368D01*
X121946632Y-75526525D01*
X121772240Y-75410000D01*
X121946632Y-75293475D01*
X122153475Y-75086632D01*
X122315990Y-74843411D01*
X122427932Y-74573158D01*
X122485000Y-74286260D01*
X122485000Y-74198061D01*
X126765000Y-74198061D01*
X126765000Y-74401939D01*
X126804774Y-74601898D01*
X126882795Y-74790256D01*
X126996063Y-74959774D01*
X127140226Y-75103937D01*
X127309744Y-75217205D01*
X127498102Y-75295226D01*
X127698061Y-75335000D01*
X127901939Y-75335000D01*
X128101898Y-75295226D01*
X128122840Y-75286551D01*
X128240226Y-75403937D01*
X128409744Y-75517205D01*
X128564998Y-75581514D01*
X128564998Y-75701939D01*
X128604772Y-75901898D01*
X128682793Y-76090256D01*
X128796061Y-76259774D01*
X128940224Y-76403937D01*
X129109742Y-76517205D01*
X129298100Y-76595226D01*
X129498059Y-76635000D01*
X129701937Y-76635000D01*
X129901896Y-76595226D01*
X130090254Y-76517205D01*
X130259772Y-76403937D01*
X130403935Y-76259774D01*
X130517203Y-76090256D01*
X130595224Y-75901898D01*
X130634998Y-75701939D01*
X130634998Y-75498061D01*
X130595224Y-75298102D01*
X130517203Y-75109744D01*
X130403935Y-74940226D01*
X130259772Y-74796063D01*
X130090254Y-74682795D01*
X129935000Y-74618486D01*
X129935000Y-74498061D01*
X129895226Y-74298102D01*
X129817205Y-74109744D01*
X129703937Y-73940226D01*
X129563711Y-73800000D01*
X129603937Y-73759774D01*
X129717205Y-73590256D01*
X129755393Y-73498061D01*
X133765000Y-73498061D01*
X133765000Y-73701939D01*
X133804774Y-73901898D01*
X133882795Y-74090256D01*
X133996063Y-74259774D01*
X134140226Y-74403937D01*
X134309744Y-74517205D01*
X134498102Y-74595226D01*
X134698061Y-74635000D01*
X134901939Y-74635000D01*
X135101898Y-74595226D01*
X135290256Y-74517205D01*
X135459774Y-74403937D01*
X135603937Y-74259774D01*
X135717205Y-74090256D01*
X135744506Y-74024347D01*
X135798061Y-74035000D01*
X136001939Y-74035000D01*
X136201898Y-73995226D01*
X136390256Y-73917205D01*
X136559774Y-73803937D01*
X136703937Y-73659774D01*
X136817205Y-73490256D01*
X136895226Y-73301898D01*
X136935000Y-73101939D01*
X136935000Y-72898061D01*
X142765000Y-72898061D01*
X142765000Y-73101939D01*
X142804774Y-73301898D01*
X142882795Y-73490256D01*
X142996063Y-73659774D01*
X143140226Y-73803937D01*
X143309744Y-73917205D01*
X143498102Y-73995226D01*
X143698061Y-74035000D01*
X143901939Y-74035000D01*
X144101898Y-73995226D01*
X144290256Y-73917205D01*
X144459774Y-73803937D01*
X144603937Y-73659774D01*
X144717205Y-73490256D01*
X144795226Y-73301898D01*
X144835000Y-73101939D01*
X144835000Y-72898061D01*
X144795226Y-72698102D01*
X144717205Y-72509744D01*
X144603937Y-72340226D01*
X144459774Y-72196063D01*
X144290256Y-72082795D01*
X144101898Y-72004774D01*
X143901939Y-71965000D01*
X143698061Y-71965000D01*
X143498102Y-72004774D01*
X143309744Y-72082795D01*
X143140226Y-72196063D01*
X142996063Y-72340226D01*
X142882795Y-72509744D01*
X142804774Y-72698102D01*
X142765000Y-72898061D01*
X136935000Y-72898061D01*
X136895226Y-72698102D01*
X136817205Y-72509744D01*
X136703937Y-72340226D01*
X136559774Y-72196063D01*
X136390256Y-72082795D01*
X136201898Y-72004774D01*
X136001939Y-71965000D01*
X135798061Y-71965000D01*
X135598102Y-72004774D01*
X135409744Y-72082795D01*
X135240226Y-72196063D01*
X135096063Y-72340226D01*
X134982795Y-72509744D01*
X134955494Y-72575653D01*
X134901939Y-72565000D01*
X134698061Y-72565000D01*
X134498102Y-72604774D01*
X134309744Y-72682795D01*
X134140226Y-72796063D01*
X133996063Y-72940226D01*
X133882795Y-73109744D01*
X133804774Y-73298102D01*
X133765000Y-73498061D01*
X129755393Y-73498061D01*
X129795226Y-73401898D01*
X129835000Y-73201939D01*
X129835000Y-72998061D01*
X129795226Y-72798102D01*
X129717205Y-72609744D01*
X129603937Y-72440226D01*
X129459774Y-72296063D01*
X129290256Y-72182795D01*
X129101898Y-72104774D01*
X128901939Y-72065000D01*
X128698061Y-72065000D01*
X128498102Y-72104774D01*
X128309744Y-72182795D01*
X128140226Y-72296063D01*
X127996063Y-72440226D01*
X127882795Y-72609744D01*
X127804774Y-72798102D01*
X127765000Y-72998061D01*
X127765000Y-73201939D01*
X127777544Y-73265000D01*
X127698061Y-73265000D01*
X127498102Y-73304774D01*
X127309744Y-73382795D01*
X127140226Y-73496063D01*
X126996063Y-73640226D01*
X126882795Y-73809744D01*
X126804774Y-73998102D01*
X126765000Y-74198061D01*
X122485000Y-74198061D01*
X122485000Y-73993740D01*
X122427932Y-73706842D01*
X122315990Y-73436589D01*
X122153475Y-73193368D01*
X121946632Y-72986525D01*
X121772240Y-72870000D01*
X121946632Y-72753475D01*
X122153475Y-72546632D01*
X122315990Y-72303411D01*
X122427932Y-72033158D01*
X122485000Y-71746260D01*
X122485000Y-71453740D01*
X122427932Y-71166842D01*
X122315990Y-70896589D01*
X122153475Y-70653368D01*
X122048168Y-70548061D01*
X122865000Y-70548061D01*
X122865000Y-70751939D01*
X122904774Y-70951898D01*
X122982795Y-71140256D01*
X123096063Y-71309774D01*
X123240226Y-71453937D01*
X123409744Y-71567205D01*
X123598102Y-71645226D01*
X123798061Y-71685000D01*
X124001939Y-71685000D01*
X124201898Y-71645226D01*
X124390256Y-71567205D01*
X124559774Y-71453937D01*
X124703937Y-71309774D01*
X124817205Y-71140256D01*
X124895226Y-70951898D01*
X124935000Y-70751939D01*
X124935000Y-70548061D01*
X124895226Y-70348102D01*
X124817205Y-70159744D01*
X124703937Y-69990226D01*
X124559774Y-69846063D01*
X124390256Y-69732795D01*
X124201898Y-69654774D01*
X124001939Y-69615000D01*
X123798061Y-69615000D01*
X123598102Y-69654774D01*
X123409744Y-69732795D01*
X123240226Y-69846063D01*
X123096063Y-69990226D01*
X122982795Y-70159744D01*
X122904774Y-70348102D01*
X122865000Y-70548061D01*
X122048168Y-70548061D01*
X122021620Y-70521513D01*
X122094180Y-70499502D01*
X122204494Y-70440537D01*
X122301185Y-70361185D01*
X122380537Y-70264494D01*
X122439502Y-70154180D01*
X122475812Y-70034482D01*
X122488072Y-69910000D01*
X122488072Y-68210000D01*
X122479897Y-68127000D01*
X127834226Y-68127000D01*
X127818485Y-68165000D01*
%TA.AperFunction,Conductor*%
D17*
G36*
X127818485Y-68165000D02*
G01*
X127698061Y-68165000D01*
X127498102Y-68204774D01*
X127309744Y-68282795D01*
X127140226Y-68396063D01*
X126996063Y-68540226D01*
X126882795Y-68709744D01*
X126804774Y-68898102D01*
X126765000Y-69098061D01*
X126765000Y-69301413D01*
X126748102Y-69304774D01*
X126559744Y-69382795D01*
X126390226Y-69496063D01*
X126246063Y-69640226D01*
X126206124Y-69699999D01*
X126047628Y-69699999D01*
X125847669Y-69739773D01*
X125659311Y-69817794D01*
X125489793Y-69931062D01*
X125345630Y-70075225D01*
X125232362Y-70244743D01*
X125154341Y-70433101D01*
X125114567Y-70633060D01*
X125114567Y-70836938D01*
X125154341Y-71036897D01*
X125232362Y-71225255D01*
X125345630Y-71394773D01*
X125489793Y-71538936D01*
X125659311Y-71652204D01*
X125847669Y-71730225D01*
X126047628Y-71769999D01*
X126251506Y-71769999D01*
X126451465Y-71730225D01*
X126639823Y-71652204D01*
X126809341Y-71538936D01*
X126953504Y-71394773D01*
X126993443Y-71335000D01*
X127151939Y-71335000D01*
X127351898Y-71295226D01*
X127540256Y-71217205D01*
X127709774Y-71103937D01*
X127853937Y-70959774D01*
X127861763Y-70948061D01*
X128665000Y-70948061D01*
X128665000Y-71151939D01*
X128704774Y-71351898D01*
X128782795Y-71540256D01*
X128896063Y-71709774D01*
X129040226Y-71853937D01*
X129209744Y-71967205D01*
X129398102Y-72045226D01*
X129598061Y-72085000D01*
X129801939Y-72085000D01*
X130001898Y-72045226D01*
X130190256Y-71967205D01*
X130359774Y-71853937D01*
X130503937Y-71709774D01*
X130511763Y-71698061D01*
X132065000Y-71698061D01*
X132065000Y-71901939D01*
X132104774Y-72101898D01*
X132182795Y-72290256D01*
X132296063Y-72459774D01*
X132440226Y-72603937D01*
X132609744Y-72717205D01*
X132798102Y-72795226D01*
X132998061Y-72835000D01*
X133201939Y-72835000D01*
X133401898Y-72795226D01*
X133590256Y-72717205D01*
X133759774Y-72603937D01*
X133903937Y-72459774D01*
X134017205Y-72290256D01*
X134095226Y-72101898D01*
X134135000Y-71901939D01*
X134135000Y-71698061D01*
X137565000Y-71698061D01*
X137565000Y-71901939D01*
X137604774Y-72101898D01*
X137682795Y-72290256D01*
X137796063Y-72459774D01*
X137940226Y-72603937D01*
X138109744Y-72717205D01*
X138298102Y-72795226D01*
X138498061Y-72835000D01*
X138701939Y-72835000D01*
X138901898Y-72795226D01*
X139090256Y-72717205D01*
X139259774Y-72603937D01*
X139403937Y-72459774D01*
X139517205Y-72290256D01*
X139595226Y-72101898D01*
X139602569Y-72064984D01*
X139701898Y-72045226D01*
X139890256Y-71967205D01*
X140059774Y-71853937D01*
X140203937Y-71709774D01*
X140317205Y-71540256D01*
X140395226Y-71351898D01*
X140435000Y-71151939D01*
X140435000Y-70948061D01*
X140395226Y-70748102D01*
X140317205Y-70559744D01*
X140203937Y-70390226D01*
X140059774Y-70246063D01*
X139890256Y-70132795D01*
X139871437Y-70125000D01*
X139890256Y-70117205D01*
X140059774Y-70003937D01*
X140203937Y-69859774D01*
X140317205Y-69690256D01*
X140395226Y-69501898D01*
X140435000Y-69301939D01*
X140435000Y-69098061D01*
X140395226Y-68898102D01*
X140317205Y-68709744D01*
X140203937Y-68540226D01*
X140059774Y-68396063D01*
X139890256Y-68282795D01*
X139701898Y-68204774D01*
X139501939Y-68165000D01*
X139298061Y-68165000D01*
X139098102Y-68204774D01*
X138909744Y-68282795D01*
X138740226Y-68396063D01*
X138596063Y-68540226D01*
X138482795Y-68709744D01*
X138404774Y-68898102D01*
X138365000Y-69098061D01*
X138365000Y-69301939D01*
X138404774Y-69501898D01*
X138482795Y-69690256D01*
X138596063Y-69859774D01*
X138740226Y-70003937D01*
X138909744Y-70117205D01*
X138928563Y-70125000D01*
X138909744Y-70132795D01*
X138740226Y-70246063D01*
X138596063Y-70390226D01*
X138482795Y-70559744D01*
X138404774Y-70748102D01*
X138397431Y-70785016D01*
X138298102Y-70804774D01*
X138109744Y-70882795D01*
X137940226Y-70996063D01*
X137796063Y-71140226D01*
X137682795Y-71309744D01*
X137604774Y-71498102D01*
X137565000Y-71698061D01*
X134135000Y-71698061D01*
X134095226Y-71498102D01*
X134017205Y-71309744D01*
X133903937Y-71140226D01*
X133759774Y-70996063D01*
X133590256Y-70882795D01*
X133401898Y-70804774D01*
X133201939Y-70765000D01*
X132998061Y-70765000D01*
X132798102Y-70804774D01*
X132609744Y-70882795D01*
X132440226Y-70996063D01*
X132296063Y-71140226D01*
X132182795Y-71309744D01*
X132104774Y-71498102D01*
X132065000Y-71698061D01*
X130511763Y-71698061D01*
X130617205Y-71540256D01*
X130695226Y-71351898D01*
X130735000Y-71151939D01*
X130735000Y-70948061D01*
X130695226Y-70748102D01*
X130617205Y-70559744D01*
X130503937Y-70390226D01*
X130359774Y-70246063D01*
X130287934Y-70198061D01*
X133765000Y-70198061D01*
X133765000Y-70401939D01*
X133804774Y-70601898D01*
X133882795Y-70790256D01*
X133996063Y-70959774D01*
X134140226Y-71103937D01*
X134309744Y-71217205D01*
X134498102Y-71295226D01*
X134698061Y-71335000D01*
X134901939Y-71335000D01*
X135101898Y-71295226D01*
X135290256Y-71217205D01*
X135459774Y-71103937D01*
X135603937Y-70959774D01*
X135717205Y-70790256D01*
X135795226Y-70601898D01*
X135835000Y-70401939D01*
X135835000Y-70198061D01*
X135795226Y-69998102D01*
X135717205Y-69809744D01*
X135603937Y-69640226D01*
X135459774Y-69496063D01*
X135290256Y-69382795D01*
X135101898Y-69304774D01*
X134901939Y-69265000D01*
X134698061Y-69265000D01*
X134498102Y-69304774D01*
X134309744Y-69382795D01*
X134140226Y-69496063D01*
X133996063Y-69640226D01*
X133882795Y-69809744D01*
X133804774Y-69998102D01*
X133765000Y-70198061D01*
X130287934Y-70198061D01*
X130190256Y-70132795D01*
X130001898Y-70054774D01*
X129801939Y-70015000D01*
X129598061Y-70015000D01*
X129398102Y-70054774D01*
X129209744Y-70132795D01*
X129040226Y-70246063D01*
X128896063Y-70390226D01*
X128782795Y-70559744D01*
X128704774Y-70748102D01*
X128665000Y-70948061D01*
X127861763Y-70948061D01*
X127967205Y-70790256D01*
X128045226Y-70601898D01*
X128085000Y-70401939D01*
X128085000Y-70198587D01*
X128101898Y-70195226D01*
X128290256Y-70117205D01*
X128459774Y-70003937D01*
X128603937Y-69859774D01*
X128717205Y-69690256D01*
X128781515Y-69535000D01*
X128901939Y-69535000D01*
X129101898Y-69495226D01*
X129290256Y-69417205D01*
X129459774Y-69303937D01*
X129603937Y-69159774D01*
X129717205Y-68990256D01*
X129795226Y-68801898D01*
X129835000Y-68601939D01*
X129835000Y-68398061D01*
X129795226Y-68198102D01*
X129765774Y-68127000D01*
X144920103Y-68127000D01*
X144911928Y-68210000D01*
X144911928Y-68701846D01*
X144803937Y-68540226D01*
X144659774Y-68396063D01*
X144490256Y-68282795D01*
X144301898Y-68204774D01*
X144101939Y-68165000D01*
X143898061Y-68165000D01*
X143698102Y-68204774D01*
X143509744Y-68282795D01*
X143340226Y-68396063D01*
X143196063Y-68540226D01*
X143082795Y-68709744D01*
X143004774Y-68898102D01*
X142965000Y-69098061D01*
X142965000Y-69301939D01*
X143004774Y-69501898D01*
X143034103Y-69572705D01*
X143009744Y-69582795D01*
X142840226Y-69696063D01*
X142696063Y-69840226D01*
X142582795Y-70009744D01*
X142504774Y-70198102D01*
X142465000Y-70398061D01*
X142465000Y-70601939D01*
X142504774Y-70801898D01*
X142582795Y-70990256D01*
X142696063Y-71159774D01*
X142840226Y-71303937D01*
X143009744Y-71417205D01*
X143198102Y-71495226D01*
X143398061Y-71535000D01*
X143601939Y-71535000D01*
X143801898Y-71495226D01*
X143990256Y-71417205D01*
X144159774Y-71303937D01*
X144303937Y-71159774D01*
X144417205Y-70990256D01*
X144495226Y-70801898D01*
X144535000Y-70601939D01*
X144535000Y-70398061D01*
X144495226Y-70198102D01*
X144465897Y-70127295D01*
X144490256Y-70117205D01*
X144659774Y-70003937D01*
X144803937Y-69859774D01*
X144911928Y-69698154D01*
X144911928Y-69910000D01*
X144924188Y-70034482D01*
X144960498Y-70154180D01*
X145019463Y-70264494D01*
X145098815Y-70361185D01*
X145195506Y-70440537D01*
X145305820Y-70499502D01*
X145378380Y-70521513D01*
X145246525Y-70653368D01*
X145084010Y-70896589D01*
X144972068Y-71166842D01*
X144915000Y-71453740D01*
X144915000Y-71746260D01*
X144972068Y-72033158D01*
X145084010Y-72303411D01*
X145246525Y-72546632D01*
X145453368Y-72753475D01*
X145627760Y-72870000D01*
X145453368Y-72986525D01*
X145246525Y-73193368D01*
X145084010Y-73436589D01*
X144972068Y-73706842D01*
X144915000Y-73993740D01*
X144915000Y-74286260D01*
X144972068Y-74573158D01*
X145084010Y-74843411D01*
X145246525Y-75086632D01*
X145453368Y-75293475D01*
X145627760Y-75410000D01*
X145453368Y-75526525D01*
X145246525Y-75733368D01*
X145084010Y-75976589D01*
X144972068Y-76246842D01*
X144915000Y-76533740D01*
X144915000Y-76826260D01*
X144972068Y-77113158D01*
X145084010Y-77383411D01*
X145246525Y-77626632D01*
X145453368Y-77833475D01*
X145627760Y-77950000D01*
X145453368Y-78066525D01*
X145246525Y-78273368D01*
X145142633Y-78428854D01*
X145195220Y-78301898D01*
X145234994Y-78101939D01*
X145234994Y-77898061D01*
X145195220Y-77698102D01*
X145117199Y-77509744D01*
X145003931Y-77340226D01*
X144859768Y-77196063D01*
X144690250Y-77082795D01*
X144501892Y-77004774D01*
X144301933Y-76965000D01*
X144098055Y-76965000D01*
X143898096Y-77004774D01*
X143709738Y-77082795D01*
X143540220Y-77196063D01*
X143405269Y-77331014D01*
X143368466Y-77323693D01*
X143164588Y-77323693D01*
X142964629Y-77363467D01*
X142776271Y-77441488D01*
X142606753Y-77554756D01*
X142462590Y-77698919D01*
X142349322Y-77868437D01*
X142271301Y-78056795D01*
X142231527Y-78256754D01*
X142231527Y-78460632D01*
X142271301Y-78660591D01*
X142349322Y-78848949D01*
X142462590Y-79018467D01*
X142606753Y-79162630D01*
X142776271Y-79275898D01*
X142964629Y-79353919D01*
X143164588Y-79393693D01*
X143368466Y-79393693D01*
X143568425Y-79353919D01*
X143756783Y-79275898D01*
X143926301Y-79162630D01*
X144061252Y-79027679D01*
X144098055Y-79035000D01*
X144301933Y-79035000D01*
X144501892Y-78995226D01*
X144690250Y-78917205D01*
X144859768Y-78803937D01*
X145003931Y-78659774D01*
X145058577Y-78577991D01*
X144972068Y-78786842D01*
X144915000Y-79073740D01*
X144915000Y-79366260D01*
X144972068Y-79653158D01*
X145084010Y-79923411D01*
X145246525Y-80166632D01*
X145453368Y-80373475D01*
X145627760Y-80490000D01*
X145453368Y-80606525D01*
X145246525Y-80813368D01*
X145084010Y-81056589D01*
X144972068Y-81326842D01*
X144915000Y-81613740D01*
X144915000Y-81906260D01*
X144972068Y-82193158D01*
X145084010Y-82463411D01*
X145246525Y-82706632D01*
X145453368Y-82913475D01*
X145627760Y-83030000D01*
X145453368Y-83146525D01*
X145246525Y-83353368D01*
X145084010Y-83596589D01*
X144972068Y-83866842D01*
X144915000Y-84153740D01*
X144915000Y-84446260D01*
X144972068Y-84733158D01*
X145084010Y-85003411D01*
X145246525Y-85246632D01*
X145453368Y-85453475D01*
X145627760Y-85570000D01*
X145453368Y-85686525D01*
X145246525Y-85893368D01*
X145084010Y-86136589D01*
X144972068Y-86406842D01*
X144915000Y-86693740D01*
X144915000Y-86986260D01*
X144972068Y-87273158D01*
X145084010Y-87543411D01*
X145246525Y-87786632D01*
X145453368Y-87993475D01*
X145627760Y-88110000D01*
X145453368Y-88226525D01*
X145246525Y-88433368D01*
X145084010Y-88676589D01*
X144972068Y-88946842D01*
X144915000Y-89233740D01*
X144915000Y-89526260D01*
X144972068Y-89813158D01*
X145084010Y-90083411D01*
X145246525Y-90326632D01*
X145257712Y-90337819D01*
X145235573Y-90342223D01*
X145047215Y-90420244D01*
X144877697Y-90533512D01*
X144733534Y-90677675D01*
X144620266Y-90847193D01*
X144542245Y-91035551D01*
X144502471Y-91235510D01*
X144502471Y-91439388D01*
X144542245Y-91639347D01*
X144620266Y-91827705D01*
X144733534Y-91997223D01*
X144877697Y-92141386D01*
X144937952Y-92181647D01*
X144972068Y-92353158D01*
X145084010Y-92623411D01*
X145246525Y-92866632D01*
X145453368Y-93073475D01*
X145627760Y-93190000D01*
X145453368Y-93306525D01*
X145246525Y-93513368D01*
X145084010Y-93756589D01*
X144972068Y-94026842D01*
X144915000Y-94313740D01*
X144915000Y-94606260D01*
X144972068Y-94893158D01*
X145084010Y-95163411D01*
X145246525Y-95406632D01*
X145453368Y-95613475D01*
X145627760Y-95730000D01*
X145471114Y-95834667D01*
X145462638Y-95829004D01*
X145274280Y-95750983D01*
X145074321Y-95711209D01*
X144870443Y-95711209D01*
X144670484Y-95750983D01*
X144482126Y-95829004D01*
X144312608Y-95942272D01*
X144168445Y-96086435D01*
X144055177Y-96255953D01*
X143977156Y-96444311D01*
X143937382Y-96644270D01*
X143937382Y-96848148D01*
X143977156Y-97048107D01*
X144055177Y-97236465D01*
X144168445Y-97405983D01*
X144312608Y-97550146D01*
X144482126Y-97663414D01*
X144670484Y-97741435D01*
X144870443Y-97781209D01*
X145074321Y-97781209D01*
X145128758Y-97770381D01*
X145246525Y-97946632D01*
X145453368Y-98153475D01*
X145627760Y-98270000D01*
X145453368Y-98386525D01*
X145246525Y-98593368D01*
X145084010Y-98836589D01*
X144972068Y-99106842D01*
X144915000Y-99393740D01*
X144915000Y-99686260D01*
X144972068Y-99973158D01*
X145084010Y-100243411D01*
X145246525Y-100486632D01*
X145453368Y-100693475D01*
X145627760Y-100810000D01*
X145453368Y-100926525D01*
X145246525Y-101133368D01*
X145084010Y-101376589D01*
X144972068Y-101646842D01*
X144915000Y-101933740D01*
X144915000Y-102226260D01*
X144972068Y-102513158D01*
X145084010Y-102783411D01*
X145246525Y-103026632D01*
X145453368Y-103233475D01*
X145627760Y-103350000D01*
X145453368Y-103466525D01*
X145246525Y-103673368D01*
X145084010Y-103916589D01*
X144972068Y-104186842D01*
X144915000Y-104473740D01*
X144915000Y-104766260D01*
X144972068Y-105053158D01*
X145084010Y-105323411D01*
X145246525Y-105566632D01*
X145453368Y-105773475D01*
X145627760Y-105890000D01*
X145453368Y-106006525D01*
X145246525Y-106213368D01*
X145084010Y-106456589D01*
X144972068Y-106726842D01*
X144915000Y-107013740D01*
X144915000Y-107306260D01*
X144972068Y-107593158D01*
X145084010Y-107863411D01*
X145246525Y-108106632D01*
X145453368Y-108313475D01*
X145627760Y-108430000D01*
X145453368Y-108546525D01*
X145246525Y-108753368D01*
X145084010Y-108996589D01*
X144972068Y-109266842D01*
X144915000Y-109553740D01*
X144915000Y-109846260D01*
X144972068Y-110133158D01*
X145084010Y-110403411D01*
X145246525Y-110646632D01*
X145453368Y-110853475D01*
X145627760Y-110970000D01*
X145453368Y-111086525D01*
X145246525Y-111293368D01*
X145084010Y-111536589D01*
X144972068Y-111806842D01*
X144915000Y-112093740D01*
X144915000Y-112386260D01*
X144972068Y-112673158D01*
X145084010Y-112943411D01*
X145246525Y-113186632D01*
X145453368Y-113393475D01*
X145696589Y-113555990D01*
X145966842Y-113667932D01*
X146253740Y-113725000D01*
X146546260Y-113725000D01*
X146833158Y-113667932D01*
X147103411Y-113555990D01*
X147346632Y-113393475D01*
X147540000Y-113200107D01*
X147540000Y-116010856D01*
X147358363Y-115739017D01*
X147060983Y-115441637D01*
X146711302Y-115207988D01*
X146322756Y-115047047D01*
X145910279Y-114965000D01*
X145489721Y-114965000D01*
X145077244Y-115047047D01*
X144688698Y-115207988D01*
X144339017Y-115441637D01*
X144041637Y-115739017D01*
X143807988Y-116088698D01*
X143647047Y-116477244D01*
X143565000Y-116889721D01*
X143565000Y-117310279D01*
X143647047Y-117722756D01*
X143807988Y-118111302D01*
X144041637Y-118460983D01*
X144339017Y-118758363D01*
X144610856Y-118940000D01*
X142882244Y-118940000D01*
X142894407Y-118899904D01*
X142913000Y-118711122D01*
X142913000Y-117684877D01*
X142894407Y-117496096D01*
X142820929Y-117253873D01*
X142701608Y-117030638D01*
X142541028Y-116834972D01*
X142345361Y-116674392D01*
X142122126Y-116555071D01*
X141879903Y-116481593D01*
X141628000Y-116456783D01*
X141376096Y-116481593D01*
X141133873Y-116555071D01*
X140910638Y-116674392D01*
X140714972Y-116834972D01*
X140554392Y-117030639D01*
X140435071Y-117253874D01*
X140361593Y-117496097D01*
X140343000Y-117684878D01*
X140343000Y-118711123D01*
X140361593Y-118899904D01*
X140373756Y-118940000D01*
X135643244Y-118940000D01*
X135655407Y-118899904D01*
X135674000Y-118711122D01*
X135674000Y-117684877D01*
X135655407Y-117496096D01*
X135581929Y-117253873D01*
X135462608Y-117030638D01*
X135302028Y-116834972D01*
X135106361Y-116674392D01*
X134883126Y-116555071D01*
X134640903Y-116481593D01*
X134389000Y-116456783D01*
X134137096Y-116481593D01*
X133894873Y-116555071D01*
X133671638Y-116674392D01*
X133475972Y-116834972D01*
X133315392Y-117030639D01*
X133196071Y-117253874D01*
X133122593Y-117496097D01*
X133104000Y-117684878D01*
X133104000Y-118711123D01*
X133122593Y-118899904D01*
X133134756Y-118940000D01*
X122789144Y-118940000D01*
X123060983Y-118758363D01*
X123358363Y-118460983D01*
X123592012Y-118111302D01*
X123752953Y-117722756D01*
X123835000Y-117310279D01*
X123835000Y-116889721D01*
X123752953Y-116477244D01*
X123592012Y-116088698D01*
X123358363Y-115739017D01*
X123060983Y-115441637D01*
X122711302Y-115207988D01*
X122322756Y-115047047D01*
X121910279Y-114965000D01*
X121489721Y-114965000D01*
X121077244Y-115047047D01*
X120688698Y-115207988D01*
X120339017Y-115441637D01*
X120041637Y-115739017D01*
X119860000Y-116010856D01*
X119860000Y-114698061D01*
X133065000Y-114698061D01*
X133065000Y-114901939D01*
X133104774Y-115101898D01*
X133182795Y-115290256D01*
X133296063Y-115459774D01*
X133440226Y-115603937D01*
X133609744Y-115717205D01*
X133798102Y-115795226D01*
X133998061Y-115835000D01*
X134201939Y-115835000D01*
X134384611Y-115798665D01*
X134396460Y-115858236D01*
X134489557Y-116082992D01*
X134624713Y-116285267D01*
X134796733Y-116457287D01*
X134999008Y-116592443D01*
X135223764Y-116685540D01*
X135462363Y-116733000D01*
X135705637Y-116733000D01*
X135944236Y-116685540D01*
X136168992Y-116592443D01*
X136371267Y-116457287D01*
X136543287Y-116285267D01*
X136678443Y-116082992D01*
X136771540Y-115858236D01*
X136819000Y-115619637D01*
X136819000Y-115376363D01*
X136771540Y-115137764D01*
X136678443Y-114913008D01*
X136543287Y-114710733D01*
X136371267Y-114538713D01*
X136168992Y-114403557D01*
X135944236Y-114310460D01*
X135705637Y-114263000D01*
X135462363Y-114263000D01*
X135223764Y-114310460D01*
X135047708Y-114383385D01*
X135017205Y-114309744D01*
X134903937Y-114140226D01*
X134759774Y-113996063D01*
X134590256Y-113882795D01*
X134401898Y-113804774D01*
X134201939Y-113765000D01*
X133998061Y-113765000D01*
X133798102Y-113804774D01*
X133609744Y-113882795D01*
X133440226Y-113996063D01*
X133296063Y-114140226D01*
X133182795Y-114309744D01*
X133104774Y-114498102D01*
X133065000Y-114698061D01*
X119860000Y-114698061D01*
X119860000Y-113200107D01*
X120053368Y-113393475D01*
X120296589Y-113555990D01*
X120566842Y-113667932D01*
X120853740Y-113725000D01*
X121146260Y-113725000D01*
X121433158Y-113667932D01*
X121703411Y-113555990D01*
X121946632Y-113393475D01*
X122153475Y-113186632D01*
X122279474Y-112998061D01*
X135165000Y-112998061D01*
X135165000Y-113201939D01*
X135204774Y-113401898D01*
X135282795Y-113590256D01*
X135396063Y-113759774D01*
X135540226Y-113903937D01*
X135709744Y-114017205D01*
X135898102Y-114095226D01*
X136098061Y-114135000D01*
X136301939Y-114135000D01*
X136501898Y-114095226D01*
X136690256Y-114017205D01*
X136859774Y-113903937D01*
X137003937Y-113759774D01*
X137045172Y-113698061D01*
X139065000Y-113698061D01*
X139065000Y-113901939D01*
X139104774Y-114101898D01*
X139182795Y-114290256D01*
X139296063Y-114459774D01*
X139440226Y-114603937D01*
X139524919Y-114660527D01*
X139474713Y-114710733D01*
X139339557Y-114913008D01*
X139246460Y-115137764D01*
X139199000Y-115376363D01*
X139199000Y-115619637D01*
X139246460Y-115858236D01*
X139339557Y-116082992D01*
X139474713Y-116285267D01*
X139646733Y-116457287D01*
X139849008Y-116592443D01*
X140073764Y-116685540D01*
X140312363Y-116733000D01*
X140555637Y-116733000D01*
X140794236Y-116685540D01*
X141018992Y-116592443D01*
X141221267Y-116457287D01*
X141393287Y-116285267D01*
X141528443Y-116082992D01*
X141621540Y-115858236D01*
X141669000Y-115619637D01*
X141669000Y-115376363D01*
X141621540Y-115137764D01*
X141528443Y-114913008D01*
X141393287Y-114710733D01*
X141221267Y-114538713D01*
X141018992Y-114403557D01*
X140958298Y-114378417D01*
X141017205Y-114290256D01*
X141095226Y-114101898D01*
X141135000Y-113901939D01*
X141135000Y-113698061D01*
X141095226Y-113498102D01*
X141017205Y-113309744D01*
X140903937Y-113140226D01*
X140759774Y-112996063D01*
X140590256Y-112882795D01*
X140401898Y-112804774D01*
X140201939Y-112765000D01*
X139998061Y-112765000D01*
X139798102Y-112804774D01*
X139609744Y-112882795D01*
X139440226Y-112996063D01*
X139296063Y-113140226D01*
X139182795Y-113309744D01*
X139104774Y-113498102D01*
X139065000Y-113698061D01*
X137045172Y-113698061D01*
X137117205Y-113590256D01*
X137195226Y-113401898D01*
X137235000Y-113201939D01*
X137235000Y-112998061D01*
X137195226Y-112798102D01*
X137117205Y-112609744D01*
X137003937Y-112440226D01*
X136859774Y-112296063D01*
X136690256Y-112182795D01*
X136501898Y-112104774D01*
X136301939Y-112065000D01*
X136098061Y-112065000D01*
X135898102Y-112104774D01*
X135709744Y-112182795D01*
X135540226Y-112296063D01*
X135396063Y-112440226D01*
X135282795Y-112609744D01*
X135204774Y-112798102D01*
X135165000Y-112998061D01*
X122279474Y-112998061D01*
X122315990Y-112943411D01*
X122427932Y-112673158D01*
X122485000Y-112386260D01*
X122485000Y-112093740D01*
X122427932Y-111806842D01*
X122315990Y-111536589D01*
X122153475Y-111293368D01*
X121946632Y-111086525D01*
X121814237Y-110998061D01*
X123315000Y-110998061D01*
X123315000Y-111201939D01*
X123354774Y-111401898D01*
X123432795Y-111590256D01*
X123546063Y-111759774D01*
X123690226Y-111903937D01*
X123859744Y-112017205D01*
X124048102Y-112095226D01*
X124248061Y-112135000D01*
X124451939Y-112135000D01*
X124651898Y-112095226D01*
X124840256Y-112017205D01*
X125009774Y-111903937D01*
X125153937Y-111759774D01*
X125225185Y-111653143D01*
X125254774Y-111801898D01*
X125332795Y-111990256D01*
X125446063Y-112159774D01*
X125590226Y-112303937D01*
X125759744Y-112417205D01*
X125948102Y-112495226D01*
X126148061Y-112535000D01*
X126351939Y-112535000D01*
X126551898Y-112495226D01*
X126740256Y-112417205D01*
X126909774Y-112303937D01*
X127053937Y-112159774D01*
X127167205Y-111990256D01*
X127245226Y-111801898D01*
X127267151Y-111691673D01*
X127346063Y-111809774D01*
X127490226Y-111953937D01*
X127659744Y-112067205D01*
X127848102Y-112145226D01*
X128048061Y-112185000D01*
X128251939Y-112185000D01*
X128451898Y-112145226D01*
X128640256Y-112067205D01*
X128809774Y-111953937D01*
X128953937Y-111809774D01*
X129067205Y-111640256D01*
X129145226Y-111451898D01*
X129155934Y-111398061D01*
X142465000Y-111398061D01*
X142465000Y-111601939D01*
X142504774Y-111801898D01*
X142582795Y-111990256D01*
X142696063Y-112159774D01*
X142840226Y-112303937D01*
X143009744Y-112417205D01*
X143198102Y-112495226D01*
X143398061Y-112535000D01*
X143601939Y-112535000D01*
X143801898Y-112495226D01*
X143990256Y-112417205D01*
X144159774Y-112303937D01*
X144303937Y-112159774D01*
X144417205Y-111990256D01*
X144495226Y-111801898D01*
X144535000Y-111601939D01*
X144535000Y-111398061D01*
X144495226Y-111198102D01*
X144417205Y-111009744D01*
X144303937Y-110840226D01*
X144159774Y-110696063D01*
X143990256Y-110582795D01*
X143801898Y-110504774D01*
X143601939Y-110465000D01*
X143398061Y-110465000D01*
X143198102Y-110504774D01*
X143009744Y-110582795D01*
X142840226Y-110696063D01*
X142696063Y-110840226D01*
X142582795Y-111009744D01*
X142504774Y-111198102D01*
X142465000Y-111398061D01*
X129155934Y-111398061D01*
X129185000Y-111251939D01*
X129185000Y-111048061D01*
X129145226Y-110848102D01*
X129067205Y-110659744D01*
X128953937Y-110490226D01*
X128809774Y-110346063D01*
X128640256Y-110232795D01*
X128451898Y-110154774D01*
X128251939Y-110115000D01*
X128048061Y-110115000D01*
X127848102Y-110154774D01*
X127659744Y-110232795D01*
X127490226Y-110346063D01*
X127346063Y-110490226D01*
X127248272Y-110636581D01*
X127285000Y-110451935D01*
X127285000Y-110248057D01*
X127245226Y-110048098D01*
X127167205Y-109859740D01*
X127053937Y-109690222D01*
X126909774Y-109546059D01*
X126740256Y-109432791D01*
X126551898Y-109354770D01*
X126351939Y-109314996D01*
X126148061Y-109314996D01*
X125948102Y-109354770D01*
X125759744Y-109432791D01*
X125590226Y-109546059D01*
X125446063Y-109690222D01*
X125332795Y-109859740D01*
X125254774Y-110048098D01*
X125215000Y-110248057D01*
X125215000Y-110451935D01*
X125237567Y-110565387D01*
X125153937Y-110440226D01*
X125009774Y-110296063D01*
X124840256Y-110182795D01*
X124651898Y-110104774D01*
X124451939Y-110065000D01*
X124248061Y-110065000D01*
X124048102Y-110104774D01*
X123859744Y-110182795D01*
X123690226Y-110296063D01*
X123546063Y-110440226D01*
X123432795Y-110609744D01*
X123354774Y-110798102D01*
X123315000Y-110998061D01*
X121814237Y-110998061D01*
X121772240Y-110970000D01*
X121946632Y-110853475D01*
X122153475Y-110646632D01*
X122315990Y-110403411D01*
X122427932Y-110133158D01*
X122485000Y-109846260D01*
X122485000Y-109553740D01*
X122427932Y-109266842D01*
X122315990Y-108996589D01*
X122283565Y-108948061D01*
X129665000Y-108948061D01*
X129665000Y-109151939D01*
X129704774Y-109351898D01*
X129782795Y-109540256D01*
X129896063Y-109709774D01*
X130040226Y-109853937D01*
X130209744Y-109967205D01*
X130398102Y-110045226D01*
X130598061Y-110085000D01*
X130801939Y-110085000D01*
X131001898Y-110045226D01*
X131190256Y-109967205D01*
X131359774Y-109853937D01*
X131503937Y-109709774D01*
X131617205Y-109540256D01*
X131695226Y-109351898D01*
X131735000Y-109151939D01*
X131735000Y-108948061D01*
X131695226Y-108748102D01*
X131617205Y-108559744D01*
X131503937Y-108390226D01*
X131359774Y-108246063D01*
X131190256Y-108132795D01*
X131001898Y-108054774D01*
X130801939Y-108015000D01*
X130598061Y-108015000D01*
X130398102Y-108054774D01*
X130209744Y-108132795D01*
X130040226Y-108246063D01*
X129896063Y-108390226D01*
X129782795Y-108559744D01*
X129704774Y-108748102D01*
X129665000Y-108948061D01*
X122283565Y-108948061D01*
X122153475Y-108753368D01*
X121946632Y-108546525D01*
X121772240Y-108430000D01*
X121946632Y-108313475D01*
X122153475Y-108106632D01*
X122315990Y-107863411D01*
X122427932Y-107593158D01*
X122485000Y-107306260D01*
X122485000Y-107013740D01*
X122427932Y-106726842D01*
X122315990Y-106456589D01*
X122153475Y-106213368D01*
X121946632Y-106006525D01*
X121764466Y-105884805D01*
X121881355Y-105815178D01*
X122097588Y-105620269D01*
X122271641Y-105386920D01*
X122337780Y-105248061D01*
X123815000Y-105248061D01*
X123815000Y-105451939D01*
X123854774Y-105651898D01*
X123932795Y-105840256D01*
X124046063Y-106009774D01*
X124190226Y-106153937D01*
X124359744Y-106267205D01*
X124548102Y-106345226D01*
X124748061Y-106385000D01*
X124951939Y-106385000D01*
X125151898Y-106345226D01*
X125340256Y-106267205D01*
X125509774Y-106153937D01*
X125653937Y-106009774D01*
X125767205Y-105840256D01*
X125845226Y-105651898D01*
X125885000Y-105451939D01*
X125885000Y-105248061D01*
X125845226Y-105048102D01*
X125845210Y-105048061D01*
X126465000Y-105048061D01*
X126465000Y-105251939D01*
X126504774Y-105451898D01*
X126582795Y-105640256D01*
X126696063Y-105809774D01*
X126840226Y-105953937D01*
X127009744Y-106067205D01*
X127198102Y-106145226D01*
X127398061Y-106185000D01*
X127601939Y-106185000D01*
X127801898Y-106145226D01*
X127990256Y-106067205D01*
X128159774Y-105953937D01*
X128303937Y-105809774D01*
X128417205Y-105640256D01*
X128495226Y-105451898D01*
X128535000Y-105251939D01*
X128535000Y-105048061D01*
X128505164Y-104898061D01*
X131165000Y-104898061D01*
X131165000Y-105101939D01*
X131204774Y-105301898D01*
X131282795Y-105490256D01*
X131396063Y-105659774D01*
X131540226Y-105803937D01*
X131709744Y-105917205D01*
X131898102Y-105995226D01*
X132098061Y-106035000D01*
X132301939Y-106035000D01*
X132501898Y-105995226D01*
X132690256Y-105917205D01*
X132859774Y-105803937D01*
X133003937Y-105659774D01*
X133117205Y-105490256D01*
X133195226Y-105301898D01*
X133235000Y-105101939D01*
X133235000Y-104898061D01*
X133195226Y-104698102D01*
X133117205Y-104509744D01*
X133003937Y-104340226D01*
X132859774Y-104196063D01*
X132690256Y-104082795D01*
X132501898Y-104004774D01*
X132301939Y-103965000D01*
X132098061Y-103965000D01*
X131898102Y-104004774D01*
X131709744Y-104082795D01*
X131540226Y-104196063D01*
X131396063Y-104340226D01*
X131282795Y-104509744D01*
X131204774Y-104698102D01*
X131165000Y-104898061D01*
X128505164Y-104898061D01*
X128495226Y-104848102D01*
X128417205Y-104659744D01*
X128303937Y-104490226D01*
X128159774Y-104346063D01*
X127990256Y-104232795D01*
X127801898Y-104154774D01*
X127601939Y-104115000D01*
X127398061Y-104115000D01*
X127198102Y-104154774D01*
X127009744Y-104232795D01*
X126840226Y-104346063D01*
X126696063Y-104490226D01*
X126582795Y-104659744D01*
X126504774Y-104848102D01*
X126465000Y-105048061D01*
X125845210Y-105048061D01*
X125767205Y-104859744D01*
X125653937Y-104690226D01*
X125509774Y-104546063D01*
X125340256Y-104432795D01*
X125151898Y-104354774D01*
X124951939Y-104315000D01*
X124748061Y-104315000D01*
X124548102Y-104354774D01*
X124359744Y-104432795D01*
X124190226Y-104546063D01*
X124046063Y-104690226D01*
X123932795Y-104859744D01*
X123854774Y-105048102D01*
X123815000Y-105248061D01*
X122337780Y-105248061D01*
X122396825Y-105124099D01*
X122441476Y-104976890D01*
X122320155Y-104747000D01*
X121127000Y-104747000D01*
X121127000Y-104767000D01*
X120873000Y-104767000D01*
X120873000Y-104747000D01*
X120853000Y-104747000D01*
X120853000Y-104493000D01*
X120873000Y-104493000D01*
X120873000Y-104473000D01*
X121127000Y-104473000D01*
X121127000Y-104493000D01*
X122320155Y-104493000D01*
X122441476Y-104263110D01*
X122396825Y-104115901D01*
X122271641Y-103853080D01*
X122156014Y-103698061D01*
X141115000Y-103698061D01*
X141115000Y-103901939D01*
X141154774Y-104101898D01*
X141232795Y-104290256D01*
X141346063Y-104459774D01*
X141490226Y-104603937D01*
X141659744Y-104717205D01*
X141848102Y-104795226D01*
X141903167Y-104806179D01*
X141865000Y-104998061D01*
X141865000Y-105201939D01*
X141904774Y-105401898D01*
X141982795Y-105590256D01*
X142096063Y-105759774D01*
X142240226Y-105903937D01*
X142409744Y-106017205D01*
X142598102Y-106095226D01*
X142798061Y-106135000D01*
X143001939Y-106135000D01*
X143201898Y-106095226D01*
X143390256Y-106017205D01*
X143559774Y-105903937D01*
X143703937Y-105759774D01*
X143817205Y-105590256D01*
X143895226Y-105401898D01*
X143935000Y-105201939D01*
X143935000Y-104998061D01*
X143895226Y-104798102D01*
X143817205Y-104609744D01*
X143703937Y-104440226D01*
X143559774Y-104296063D01*
X143390256Y-104182795D01*
X143201898Y-104104774D01*
X143146833Y-104093821D01*
X143185000Y-103901939D01*
X143185000Y-103698061D01*
X143145226Y-103498102D01*
X143067205Y-103309744D01*
X142953937Y-103140226D01*
X142809774Y-102996063D01*
X142640256Y-102882795D01*
X142451898Y-102804774D01*
X142251939Y-102765000D01*
X142048061Y-102765000D01*
X141848102Y-102804774D01*
X141659744Y-102882795D01*
X141490226Y-102996063D01*
X141346063Y-103140226D01*
X141232795Y-103309744D01*
X141154774Y-103498102D01*
X141115000Y-103698061D01*
X122156014Y-103698061D01*
X122097588Y-103619731D01*
X121881355Y-103424822D01*
X121764466Y-103355195D01*
X121946632Y-103233475D01*
X122153475Y-103026632D01*
X122315990Y-102783411D01*
X122427932Y-102513158D01*
X122485000Y-102226260D01*
X122485000Y-101933740D01*
X122427932Y-101646842D01*
X122315990Y-101376589D01*
X122153475Y-101133368D01*
X121946632Y-100926525D01*
X121772240Y-100810000D01*
X121939768Y-100698061D01*
X122965000Y-100698061D01*
X122965000Y-100901939D01*
X123004774Y-101101898D01*
X123082795Y-101290256D01*
X123196063Y-101459774D01*
X123340226Y-101603937D01*
X123509744Y-101717205D01*
X123698102Y-101795226D01*
X123898061Y-101835000D01*
X124101939Y-101835000D01*
X124301898Y-101795226D01*
X124490256Y-101717205D01*
X124659774Y-101603937D01*
X124803937Y-101459774D01*
X124917205Y-101290256D01*
X124995226Y-101101898D01*
X125035000Y-100901939D01*
X125035000Y-100748061D01*
X128065000Y-100748061D01*
X128065000Y-100951939D01*
X128104774Y-101151898D01*
X128182795Y-101340256D01*
X128296063Y-101509774D01*
X128440226Y-101653937D01*
X128609744Y-101767205D01*
X128798102Y-101845226D01*
X128998061Y-101885000D01*
X129201939Y-101885000D01*
X129401898Y-101845226D01*
X129590256Y-101767205D01*
X129759774Y-101653937D01*
X129903937Y-101509774D01*
X129980892Y-101394603D01*
X130040226Y-101453937D01*
X130209744Y-101567205D01*
X130398102Y-101645226D01*
X130598061Y-101685000D01*
X130801939Y-101685000D01*
X131001898Y-101645226D01*
X131190256Y-101567205D01*
X131359774Y-101453937D01*
X131475000Y-101338711D01*
X131540226Y-101403937D01*
X131709744Y-101517205D01*
X131898102Y-101595226D01*
X132098061Y-101635000D01*
X132301939Y-101635000D01*
X132501898Y-101595226D01*
X132690256Y-101517205D01*
X132859774Y-101403937D01*
X133003937Y-101259774D01*
X133117205Y-101090256D01*
X133195226Y-100901898D01*
X133235000Y-100701939D01*
X133235000Y-100698059D01*
X142965000Y-100698059D01*
X142965000Y-100901937D01*
X143004774Y-101101896D01*
X143082795Y-101290254D01*
X143196063Y-101459772D01*
X143340226Y-101603935D01*
X143509744Y-101717203D01*
X143698102Y-101795224D01*
X143898061Y-101834998D01*
X144101939Y-101834998D01*
X144301898Y-101795224D01*
X144490256Y-101717203D01*
X144659774Y-101603935D01*
X144803937Y-101459772D01*
X144917205Y-101290254D01*
X144995226Y-101101896D01*
X145035000Y-100901937D01*
X145035000Y-100698059D01*
X144995226Y-100498100D01*
X144917205Y-100309742D01*
X144803937Y-100140224D01*
X144659774Y-99996061D01*
X144490256Y-99882793D01*
X144301898Y-99804772D01*
X144101939Y-99764998D01*
X143898061Y-99764998D01*
X143698102Y-99804772D01*
X143509744Y-99882793D01*
X143340226Y-99996061D01*
X143196063Y-100140224D01*
X143082795Y-100309742D01*
X143004774Y-100498100D01*
X142965000Y-100698059D01*
X133235000Y-100698059D01*
X133235000Y-100498061D01*
X133195226Y-100298102D01*
X133117205Y-100109744D01*
X133003937Y-99940226D01*
X132859774Y-99796063D01*
X132690256Y-99682795D01*
X132501898Y-99604774D01*
X132301939Y-99565000D01*
X132098061Y-99565000D01*
X131898102Y-99604774D01*
X131709744Y-99682795D01*
X131540226Y-99796063D01*
X131425000Y-99911289D01*
X131359774Y-99846063D01*
X131190256Y-99732795D01*
X131001898Y-99654774D01*
X130801939Y-99615000D01*
X130598061Y-99615000D01*
X130398102Y-99654774D01*
X130209744Y-99732795D01*
X130040226Y-99846063D01*
X129896063Y-99990226D01*
X129819108Y-100105397D01*
X129759774Y-100046063D01*
X129590256Y-99932795D01*
X129401898Y-99854774D01*
X129201939Y-99815000D01*
X128998061Y-99815000D01*
X128798102Y-99854774D01*
X128609744Y-99932795D01*
X128440226Y-100046063D01*
X128296063Y-100190226D01*
X128182795Y-100359744D01*
X128104774Y-100548102D01*
X128065000Y-100748061D01*
X125035000Y-100748061D01*
X125035000Y-100698061D01*
X124995226Y-100498102D01*
X124917205Y-100309744D01*
X124803937Y-100140226D01*
X124659774Y-99996063D01*
X124554230Y-99925541D01*
X124601500Y-99905961D01*
X124771018Y-99792693D01*
X124915181Y-99648530D01*
X125028449Y-99479012D01*
X125103401Y-99298061D01*
X135914996Y-99298061D01*
X135914996Y-99501939D01*
X135954770Y-99701898D01*
X136032791Y-99890256D01*
X136146059Y-100059774D01*
X136290222Y-100203937D01*
X136459740Y-100317205D01*
X136648098Y-100395226D01*
X136848057Y-100435000D01*
X137051935Y-100435000D01*
X137251894Y-100395226D01*
X137440252Y-100317205D01*
X137609770Y-100203937D01*
X137674998Y-100138709D01*
X137740226Y-100203937D01*
X137909744Y-100317205D01*
X138098102Y-100395226D01*
X138298061Y-100435000D01*
X138501939Y-100435000D01*
X138701898Y-100395226D01*
X138890256Y-100317205D01*
X139059774Y-100203937D01*
X139203937Y-100059774D01*
X139317205Y-99890256D01*
X139395226Y-99701898D01*
X139435000Y-99501939D01*
X139435000Y-99298061D01*
X139395226Y-99098102D01*
X139317205Y-98909744D01*
X139203937Y-98740226D01*
X139059774Y-98596063D01*
X138890256Y-98482795D01*
X138701898Y-98404774D01*
X138501939Y-98365000D01*
X138298061Y-98365000D01*
X138098102Y-98404774D01*
X137991566Y-98448903D01*
X138029687Y-98257252D01*
X138029687Y-98053374D01*
X137989913Y-97853415D01*
X137911892Y-97665057D01*
X137798624Y-97495539D01*
X137654461Y-97351376D01*
X137484943Y-97238108D01*
X137296585Y-97160087D01*
X137096626Y-97120313D01*
X136892748Y-97120313D01*
X136692789Y-97160087D01*
X136504431Y-97238108D01*
X136334913Y-97351376D01*
X136190750Y-97495539D01*
X136077482Y-97665057D01*
X135999461Y-97853415D01*
X135959687Y-98053374D01*
X135959687Y-98257252D01*
X135999461Y-98457211D01*
X136077482Y-98645569D01*
X136143394Y-98744214D01*
X136032791Y-98909744D01*
X135954770Y-99098102D01*
X135914996Y-99298061D01*
X125103401Y-99298061D01*
X125106470Y-99290654D01*
X125146244Y-99090695D01*
X125146244Y-98886817D01*
X125106470Y-98686858D01*
X125028449Y-98498500D01*
X124915181Y-98328982D01*
X124771018Y-98184819D01*
X124601500Y-98071551D01*
X124413142Y-97993530D01*
X124213183Y-97953756D01*
X124009305Y-97953756D01*
X123809346Y-97993530D01*
X123620988Y-98071551D01*
X123451470Y-98184819D01*
X123307307Y-98328982D01*
X123194039Y-98498500D01*
X123116018Y-98686858D01*
X123076244Y-98886817D01*
X123076244Y-99090695D01*
X123116018Y-99290654D01*
X123194039Y-99479012D01*
X123307307Y-99648530D01*
X123451470Y-99792693D01*
X123557014Y-99863215D01*
X123509744Y-99882795D01*
X123340226Y-99996063D01*
X123196063Y-100140226D01*
X123082795Y-100309744D01*
X123004774Y-100498102D01*
X122965000Y-100698061D01*
X121939768Y-100698061D01*
X121946632Y-100693475D01*
X122153475Y-100486632D01*
X122315990Y-100243411D01*
X122427932Y-99973158D01*
X122485000Y-99686260D01*
X122485000Y-99393740D01*
X122427932Y-99106842D01*
X122315990Y-98836589D01*
X122153475Y-98593368D01*
X121946632Y-98386525D01*
X121772240Y-98270000D01*
X121946632Y-98153475D01*
X122153475Y-97946632D01*
X122315990Y-97703411D01*
X122318206Y-97698061D01*
X125065000Y-97698061D01*
X125065000Y-97901939D01*
X125104774Y-98101898D01*
X125182795Y-98290256D01*
X125296063Y-98459774D01*
X125440226Y-98603937D01*
X125609744Y-98717205D01*
X125798102Y-98795226D01*
X125998061Y-98835000D01*
X126201939Y-98835000D01*
X126401898Y-98795226D01*
X126590256Y-98717205D01*
X126759774Y-98603937D01*
X126903937Y-98459774D01*
X127017205Y-98290256D01*
X127023875Y-98274154D01*
X127029862Y-98274154D01*
X127229821Y-98234380D01*
X127418179Y-98156359D01*
X127587697Y-98043091D01*
X127731860Y-97898928D01*
X127845128Y-97729410D01*
X127923149Y-97541052D01*
X127962923Y-97341093D01*
X127962923Y-97137215D01*
X127923149Y-96937256D01*
X127845128Y-96748898D01*
X127731860Y-96579380D01*
X127587697Y-96435217D01*
X127418179Y-96321949D01*
X127229821Y-96243928D01*
X127029862Y-96204154D01*
X126825984Y-96204154D01*
X126626025Y-96243928D01*
X126437667Y-96321949D01*
X126268149Y-96435217D01*
X126123986Y-96579380D01*
X126010718Y-96748898D01*
X126004048Y-96765000D01*
X125998061Y-96765000D01*
X125798102Y-96804774D01*
X125609744Y-96882795D01*
X125440226Y-96996063D01*
X125296063Y-97140226D01*
X125182795Y-97309744D01*
X125104774Y-97498102D01*
X125065000Y-97698061D01*
X122318206Y-97698061D01*
X122427932Y-97433158D01*
X122485000Y-97146260D01*
X122485000Y-96853740D01*
X122427932Y-96566842D01*
X122315990Y-96296589D01*
X122153475Y-96053368D01*
X121946632Y-95846525D01*
X121772240Y-95730000D01*
X121946632Y-95613475D01*
X122153475Y-95406632D01*
X122226019Y-95298061D01*
X131165008Y-95298061D01*
X131165008Y-95501939D01*
X131204782Y-95701898D01*
X131282803Y-95890256D01*
X131396071Y-96059774D01*
X131540234Y-96203937D01*
X131709752Y-96317205D01*
X131898110Y-96395226D01*
X132098069Y-96435000D01*
X132301947Y-96435000D01*
X132501906Y-96395226D01*
X132690264Y-96317205D01*
X132859782Y-96203937D01*
X133000034Y-96063685D01*
X133106204Y-96222581D01*
X133250367Y-96366744D01*
X133419885Y-96480012D01*
X133608243Y-96558033D01*
X133808202Y-96597807D01*
X134012080Y-96597807D01*
X134212039Y-96558033D01*
X134400397Y-96480012D01*
X134523027Y-96398073D01*
X137465000Y-96398073D01*
X137465000Y-96601951D01*
X137504774Y-96801910D01*
X137582795Y-96990268D01*
X137696063Y-97159786D01*
X137840226Y-97303949D01*
X138009744Y-97417217D01*
X138198102Y-97495238D01*
X138339138Y-97523292D01*
X138354774Y-97601898D01*
X138432795Y-97790256D01*
X138546063Y-97959774D01*
X138690226Y-98103937D01*
X138859744Y-98217205D01*
X139048102Y-98295226D01*
X139248061Y-98335000D01*
X139451939Y-98335000D01*
X139651898Y-98295226D01*
X139840256Y-98217205D01*
X140009774Y-98103937D01*
X140153937Y-97959774D01*
X140267205Y-97790256D01*
X140345226Y-97601898D01*
X140385000Y-97401939D01*
X140385000Y-97198061D01*
X140345226Y-96998102D01*
X140267205Y-96809744D01*
X140153937Y-96640226D01*
X140009774Y-96496063D01*
X139840256Y-96382795D01*
X139651898Y-96304774D01*
X139510862Y-96276720D01*
X139495226Y-96198114D01*
X139417205Y-96009756D01*
X139303937Y-95840238D01*
X139159774Y-95696075D01*
X138990256Y-95582807D01*
X138801898Y-95504786D01*
X138601939Y-95465012D01*
X138398061Y-95465012D01*
X138198102Y-95504786D01*
X138009744Y-95582807D01*
X137840226Y-95696075D01*
X137696063Y-95840238D01*
X137582795Y-96009756D01*
X137504774Y-96198114D01*
X137465000Y-96398073D01*
X134523027Y-96398073D01*
X134569915Y-96366744D01*
X134714078Y-96222581D01*
X134827346Y-96053063D01*
X134905367Y-95864705D01*
X134945141Y-95664746D01*
X134945141Y-95460868D01*
X134917610Y-95322458D01*
X135026356Y-95344089D01*
X135230234Y-95344089D01*
X135430193Y-95304315D01*
X135488754Y-95280058D01*
X140299814Y-95280058D01*
X140299814Y-95483936D01*
X140339588Y-95683895D01*
X140417609Y-95872253D01*
X140530877Y-96041771D01*
X140675040Y-96185934D01*
X140844558Y-96299202D01*
X141032916Y-96377223D01*
X141232875Y-96416997D01*
X141436753Y-96416997D01*
X141636712Y-96377223D01*
X141825070Y-96299202D01*
X141994588Y-96185934D01*
X142138751Y-96041771D01*
X142252019Y-95872253D01*
X142330040Y-95683895D01*
X142369814Y-95483936D01*
X142369814Y-95396027D01*
X142388043Y-95414256D01*
X142557561Y-95527524D01*
X142745919Y-95605545D01*
X142945878Y-95645319D01*
X143149756Y-95645319D01*
X143349715Y-95605545D01*
X143538073Y-95527524D01*
X143707591Y-95414256D01*
X143851754Y-95270093D01*
X143965022Y-95100575D01*
X144043043Y-94912217D01*
X144082817Y-94712258D01*
X144082817Y-94508380D01*
X144043043Y-94308421D01*
X143965022Y-94120063D01*
X143851754Y-93950545D01*
X143707591Y-93806382D01*
X143538073Y-93693114D01*
X143349715Y-93615093D01*
X143161031Y-93577562D01*
X143145226Y-93498102D01*
X143067205Y-93309744D01*
X142953937Y-93140226D01*
X142809774Y-92996063D01*
X142640256Y-92882795D01*
X142451898Y-92804774D01*
X142333112Y-92781146D01*
X142345226Y-92751900D01*
X142385000Y-92551941D01*
X142385000Y-92348063D01*
X142345226Y-92148104D01*
X142267205Y-91959746D01*
X142153937Y-91790228D01*
X142009774Y-91646065D01*
X141840256Y-91532797D01*
X141651898Y-91454776D01*
X141451939Y-91415002D01*
X141248061Y-91415002D01*
X141048102Y-91454776D01*
X140859744Y-91532797D01*
X140690226Y-91646065D01*
X140546063Y-91790228D01*
X140432795Y-91959746D01*
X140354774Y-92148104D01*
X140315000Y-92348063D01*
X140315000Y-92551941D01*
X140354774Y-92751900D01*
X140432795Y-92940258D01*
X140546063Y-93109776D01*
X140690226Y-93253939D01*
X140859744Y-93367207D01*
X141048102Y-93445228D01*
X141166888Y-93468856D01*
X141154774Y-93498102D01*
X141115000Y-93698061D01*
X141115000Y-93901939D01*
X141154774Y-94101898D01*
X141232795Y-94290256D01*
X141270708Y-94346997D01*
X141232875Y-94346997D01*
X141032916Y-94386771D01*
X140844558Y-94464792D01*
X140675040Y-94578060D01*
X140530877Y-94722223D01*
X140417609Y-94891741D01*
X140339588Y-95080099D01*
X140299814Y-95280058D01*
X135488754Y-95280058D01*
X135618551Y-95226294D01*
X135788069Y-95113026D01*
X135932232Y-94968863D01*
X136045500Y-94799345D01*
X136123521Y-94610987D01*
X136163295Y-94411028D01*
X136163295Y-94207150D01*
X136123521Y-94007191D01*
X136045500Y-93818833D01*
X135932232Y-93649315D01*
X135788069Y-93505152D01*
X135618551Y-93391884D01*
X135430193Y-93313863D01*
X135230234Y-93274089D01*
X135026356Y-93274089D01*
X134826397Y-93313863D01*
X134638039Y-93391884D01*
X134468521Y-93505152D01*
X134324358Y-93649315D01*
X134211090Y-93818833D01*
X134133069Y-94007191D01*
X134093295Y-94207150D01*
X134093295Y-94411028D01*
X134120826Y-94549438D01*
X134012080Y-94527807D01*
X133808202Y-94527807D01*
X133608243Y-94567581D01*
X133419885Y-94645602D01*
X133250367Y-94758870D01*
X133110115Y-94899122D01*
X133003945Y-94740226D01*
X132859782Y-94596063D01*
X132690264Y-94482795D01*
X132501906Y-94404774D01*
X132301947Y-94365000D01*
X132098069Y-94365000D01*
X131898110Y-94404774D01*
X131709752Y-94482795D01*
X131540234Y-94596063D01*
X131396071Y-94740226D01*
X131282803Y-94909744D01*
X131204782Y-95098102D01*
X131165008Y-95298061D01*
X122226019Y-95298061D01*
X122315990Y-95163411D01*
X122427932Y-94893158D01*
X122485000Y-94606260D01*
X122485000Y-94313740D01*
X122427932Y-94026842D01*
X122315990Y-93756589D01*
X122303610Y-93738061D01*
X123575002Y-93738061D01*
X123575002Y-93941939D01*
X123614776Y-94141898D01*
X123692797Y-94330256D01*
X123806065Y-94499774D01*
X123950228Y-94643937D01*
X124119746Y-94757205D01*
X124308104Y-94835226D01*
X124508063Y-94875000D01*
X124711941Y-94875000D01*
X124911900Y-94835226D01*
X125100258Y-94757205D01*
X125269776Y-94643937D01*
X125413939Y-94499774D01*
X125527207Y-94330256D01*
X125605228Y-94141898D01*
X125645002Y-93941939D01*
X125645002Y-93738061D01*
X125605228Y-93538102D01*
X125527207Y-93349744D01*
X125413939Y-93180226D01*
X125364478Y-93130765D01*
X125443355Y-93078061D01*
X126555000Y-93078061D01*
X126555000Y-93281939D01*
X126594774Y-93481898D01*
X126672795Y-93670256D01*
X126786063Y-93839774D01*
X126930226Y-93983937D01*
X127099744Y-94097205D01*
X127288102Y-94175226D01*
X127488061Y-94215000D01*
X127691939Y-94215000D01*
X127891898Y-94175226D01*
X128080256Y-94097205D01*
X128249774Y-93983937D01*
X128393937Y-93839774D01*
X128507205Y-93670256D01*
X128585226Y-93481898D01*
X128625000Y-93281939D01*
X128625000Y-93078061D01*
X128585226Y-92878102D01*
X128507205Y-92689744D01*
X128393937Y-92520226D01*
X128249774Y-92376063D01*
X128080256Y-92262795D01*
X127891898Y-92184774D01*
X127691939Y-92145000D01*
X127488061Y-92145000D01*
X127288102Y-92184774D01*
X127099744Y-92262795D01*
X126930226Y-92376063D01*
X126786063Y-92520226D01*
X126672795Y-92689744D01*
X126594774Y-92878102D01*
X126555000Y-93078061D01*
X125443355Y-93078061D01*
X125527605Y-93021768D01*
X125671768Y-92877605D01*
X125785036Y-92708087D01*
X125863057Y-92519729D01*
X125902831Y-92319770D01*
X125902831Y-92115892D01*
X125863057Y-91915933D01*
X125800007Y-91763718D01*
X125840226Y-91803937D01*
X126009744Y-91917205D01*
X126198102Y-91995226D01*
X126398061Y-92035000D01*
X126601939Y-92035000D01*
X126801898Y-91995226D01*
X126990256Y-91917205D01*
X127159774Y-91803937D01*
X127300000Y-91663711D01*
X127390226Y-91753937D01*
X127559744Y-91867205D01*
X127748102Y-91945226D01*
X127948061Y-91985000D01*
X128151939Y-91985000D01*
X128351898Y-91945226D01*
X128540256Y-91867205D01*
X128709774Y-91753937D01*
X128751944Y-91711767D01*
X128909744Y-91817205D01*
X129098102Y-91895226D01*
X129298061Y-91935000D01*
X129501939Y-91935000D01*
X129701898Y-91895226D01*
X129890256Y-91817205D01*
X130059774Y-91703937D01*
X130203937Y-91559774D01*
X130317205Y-91390256D01*
X130376072Y-91248138D01*
X131465000Y-91248138D01*
X131465000Y-91452016D01*
X131504774Y-91651975D01*
X131582795Y-91840333D01*
X131696063Y-92009851D01*
X131840226Y-92154014D01*
X132009744Y-92267282D01*
X132198102Y-92345303D01*
X132398061Y-92385077D01*
X132601939Y-92385077D01*
X132801898Y-92345303D01*
X132990256Y-92267282D01*
X133159774Y-92154014D01*
X133303937Y-92009851D01*
X133417205Y-91840333D01*
X133495226Y-91651975D01*
X133535000Y-91452016D01*
X133535000Y-91248138D01*
X133495226Y-91048179D01*
X133417205Y-90859821D01*
X133303937Y-90690303D01*
X133159774Y-90546140D01*
X132990256Y-90432872D01*
X132801898Y-90354851D01*
X132601939Y-90315077D01*
X132398061Y-90315077D01*
X132198102Y-90354851D01*
X132009744Y-90432872D01*
X131840226Y-90546140D01*
X131696063Y-90690303D01*
X131582795Y-90859821D01*
X131504774Y-91048179D01*
X131465000Y-91248138D01*
X130376072Y-91248138D01*
X130395226Y-91201898D01*
X130435000Y-91001939D01*
X130435000Y-90798061D01*
X130395226Y-90598102D01*
X130317205Y-90409744D01*
X130203937Y-90240226D01*
X130059774Y-90096063D01*
X129890256Y-89982795D01*
X129701898Y-89904774D01*
X129501939Y-89865000D01*
X129298061Y-89865000D01*
X129098102Y-89904774D01*
X128909744Y-89982795D01*
X128740226Y-90096063D01*
X128698056Y-90138233D01*
X128540256Y-90032795D01*
X128351898Y-89954774D01*
X128151939Y-89915000D01*
X127948061Y-89915000D01*
X127748102Y-89954774D01*
X127559744Y-90032795D01*
X127390226Y-90146063D01*
X127250000Y-90286289D01*
X127159774Y-90196063D01*
X126990256Y-90082795D01*
X126801898Y-90004774D01*
X126601939Y-89965000D01*
X126398061Y-89965000D01*
X126198102Y-90004774D01*
X126009744Y-90082795D01*
X125840226Y-90196063D01*
X125696063Y-90340226D01*
X125582795Y-90509744D01*
X125504774Y-90698102D01*
X125465000Y-90898061D01*
X125465000Y-91101939D01*
X125504774Y-91301898D01*
X125567824Y-91454113D01*
X125527605Y-91413894D01*
X125358087Y-91300626D01*
X125169729Y-91222605D01*
X124969770Y-91182831D01*
X124765892Y-91182831D01*
X124565933Y-91222605D01*
X124377575Y-91300626D01*
X124208057Y-91413894D01*
X124063894Y-91558057D01*
X123950626Y-91727575D01*
X123872605Y-91915933D01*
X123832831Y-92115892D01*
X123832831Y-92319770D01*
X123872605Y-92519729D01*
X123950626Y-92708087D01*
X124063894Y-92877605D01*
X124113355Y-92927066D01*
X123950228Y-93036063D01*
X123806065Y-93180226D01*
X123692797Y-93349744D01*
X123614776Y-93538102D01*
X123575002Y-93738061D01*
X122303610Y-93738061D01*
X122153475Y-93513368D01*
X121946632Y-93306525D01*
X121772240Y-93190000D01*
X121946632Y-93073475D01*
X122153475Y-92866632D01*
X122315990Y-92623411D01*
X122427932Y-92353158D01*
X122485000Y-92066260D01*
X122485000Y-91773740D01*
X122427932Y-91486842D01*
X122315990Y-91216589D01*
X122153475Y-90973368D01*
X121946632Y-90766525D01*
X121772240Y-90650000D01*
X121946632Y-90533475D01*
X122153475Y-90326632D01*
X122315990Y-90083411D01*
X122427932Y-89813158D01*
X122485000Y-89526260D01*
X122485000Y-89233740D01*
X122439182Y-89003399D01*
X122598061Y-89035002D01*
X122801939Y-89035002D01*
X123001898Y-88995228D01*
X123190256Y-88917207D01*
X123359774Y-88803939D01*
X123503937Y-88659776D01*
X123617205Y-88490258D01*
X123695226Y-88301900D01*
X123735000Y-88101941D01*
X123735000Y-87898063D01*
X123695226Y-87698104D01*
X123617205Y-87509746D01*
X123503937Y-87340228D01*
X123401655Y-87237946D01*
X124530857Y-87237946D01*
X124530857Y-87441824D01*
X124570631Y-87641783D01*
X124648652Y-87830141D01*
X124761920Y-87999659D01*
X124906083Y-88143822D01*
X124947232Y-88171317D01*
X124947232Y-88305635D01*
X124987006Y-88505594D01*
X125065027Y-88693952D01*
X125178295Y-88863470D01*
X125322458Y-89007633D01*
X125491976Y-89120901D01*
X125680334Y-89198922D01*
X125880293Y-89238696D01*
X126084171Y-89238696D01*
X126284130Y-89198922D01*
X126472488Y-89120901D01*
X126642006Y-89007633D01*
X126786169Y-88863470D01*
X126821035Y-88811288D01*
X129115000Y-88811288D01*
X129115000Y-89015166D01*
X129154774Y-89215125D01*
X129232795Y-89403483D01*
X129346063Y-89573001D01*
X129490226Y-89717164D01*
X129659744Y-89830432D01*
X129848102Y-89908453D01*
X130048061Y-89948227D01*
X130251939Y-89948227D01*
X130451898Y-89908453D01*
X130595256Y-89849072D01*
X130598102Y-89850251D01*
X130798061Y-89890025D01*
X131001939Y-89890025D01*
X131201898Y-89850251D01*
X131390256Y-89772230D01*
X131559774Y-89658962D01*
X131703937Y-89514799D01*
X131817205Y-89345281D01*
X131878185Y-89198061D01*
X135815000Y-89198061D01*
X135815000Y-89401939D01*
X135854774Y-89601898D01*
X135932795Y-89790256D01*
X136046063Y-89959774D01*
X136190226Y-90103937D01*
X136359744Y-90217205D01*
X136548102Y-90295226D01*
X136748061Y-90335000D01*
X136951939Y-90335000D01*
X137151898Y-90295226D01*
X137340256Y-90217205D01*
X137509774Y-90103937D01*
X137653937Y-89959774D01*
X137767205Y-89790256D01*
X137845226Y-89601898D01*
X137885000Y-89401939D01*
X137885000Y-89303753D01*
X138048102Y-89371313D01*
X138248061Y-89411087D01*
X138451939Y-89411087D01*
X138651898Y-89371313D01*
X138840256Y-89293292D01*
X139009774Y-89180024D01*
X139153937Y-89035861D01*
X139267205Y-88866343D01*
X139345226Y-88677985D01*
X139385000Y-88478026D01*
X139385000Y-88274148D01*
X139345226Y-88074189D01*
X139267205Y-87885831D01*
X139164086Y-87731502D01*
X140098807Y-87731502D01*
X140098807Y-87935380D01*
X140138581Y-88135339D01*
X140216602Y-88323697D01*
X140329870Y-88493215D01*
X140474033Y-88637378D01*
X140643551Y-88750646D01*
X140788162Y-88810546D01*
X140802590Y-88883079D01*
X140880611Y-89071437D01*
X140993879Y-89240955D01*
X141138042Y-89385118D01*
X141307560Y-89498386D01*
X141495918Y-89576407D01*
X141695877Y-89616181D01*
X141899755Y-89616181D01*
X142099714Y-89576407D01*
X142288072Y-89498386D01*
X142457590Y-89385118D01*
X142515000Y-89327708D01*
X142515000Y-89351939D01*
X142532828Y-89441565D01*
X142466418Y-89454775D01*
X142278060Y-89532796D01*
X142108542Y-89646064D01*
X141964379Y-89790227D01*
X141851111Y-89959745D01*
X141773090Y-90148103D01*
X141733316Y-90348062D01*
X141733316Y-90551940D01*
X141773090Y-90751899D01*
X141851111Y-90940257D01*
X141964379Y-91109775D01*
X142108542Y-91253938D01*
X142278060Y-91367206D01*
X142466418Y-91445227D01*
X142666377Y-91485001D01*
X142870255Y-91485001D01*
X143070214Y-91445227D01*
X143258572Y-91367206D01*
X143428090Y-91253938D01*
X143572253Y-91109775D01*
X143685521Y-90940257D01*
X143763542Y-90751899D01*
X143803316Y-90551940D01*
X143803316Y-90348062D01*
X143785488Y-90258436D01*
X143851898Y-90245226D01*
X144040256Y-90167205D01*
X144209774Y-90053937D01*
X144353937Y-89909774D01*
X144467205Y-89740256D01*
X144545226Y-89551898D01*
X144585000Y-89351939D01*
X144585000Y-89148061D01*
X144545226Y-88948102D01*
X144467205Y-88759744D01*
X144353937Y-88590226D01*
X144209774Y-88446063D01*
X144040256Y-88332795D01*
X143851898Y-88254774D01*
X143651939Y-88215000D01*
X143448061Y-88215000D01*
X143248102Y-88254774D01*
X143059744Y-88332795D01*
X142890226Y-88446063D01*
X142832816Y-88503473D01*
X142832816Y-88479242D01*
X142793042Y-88279283D01*
X142715021Y-88090925D01*
X142601753Y-87921407D01*
X142457590Y-87777244D01*
X142288072Y-87663976D01*
X142143461Y-87604076D01*
X142129033Y-87531543D01*
X142051012Y-87343185D01*
X141937744Y-87173667D01*
X141793581Y-87029504D01*
X141624063Y-86916236D01*
X141435705Y-86838215D01*
X141235746Y-86798441D01*
X141031868Y-86798441D01*
X140831909Y-86838215D01*
X140643551Y-86916236D01*
X140474033Y-87029504D01*
X140329870Y-87173667D01*
X140216602Y-87343185D01*
X140138581Y-87531543D01*
X140098807Y-87731502D01*
X139164086Y-87731502D01*
X139153937Y-87716313D01*
X139009774Y-87572150D01*
X138840256Y-87458882D01*
X138651898Y-87380861D01*
X138451939Y-87341087D01*
X138248061Y-87341087D01*
X138048102Y-87380861D01*
X137859744Y-87458882D01*
X137690226Y-87572150D01*
X137546063Y-87716313D01*
X137432795Y-87885831D01*
X137354774Y-88074189D01*
X137315000Y-88274148D01*
X137315000Y-88372334D01*
X137151898Y-88304774D01*
X136951939Y-88265000D01*
X136748061Y-88265000D01*
X136548102Y-88304774D01*
X136359744Y-88382795D01*
X136190226Y-88496063D01*
X136046063Y-88640226D01*
X135932795Y-88809744D01*
X135854774Y-88998102D01*
X135815000Y-89198061D01*
X131878185Y-89198061D01*
X131895226Y-89156923D01*
X131935000Y-88956964D01*
X131935000Y-88753086D01*
X131895226Y-88553127D01*
X131817205Y-88364769D01*
X131703937Y-88195251D01*
X131559774Y-88051088D01*
X131390256Y-87937820D01*
X131201898Y-87859799D01*
X131001939Y-87820025D01*
X130798061Y-87820025D01*
X130598102Y-87859799D01*
X130454744Y-87919180D01*
X130451898Y-87918001D01*
X130251939Y-87878227D01*
X130048061Y-87878227D01*
X129848102Y-87918001D01*
X129659744Y-87996022D01*
X129490226Y-88109290D01*
X129346063Y-88253453D01*
X129232795Y-88422971D01*
X129154774Y-88611329D01*
X129115000Y-88811288D01*
X126821035Y-88811288D01*
X126899437Y-88693952D01*
X126977458Y-88505594D01*
X127017232Y-88305635D01*
X127017232Y-88101757D01*
X126977458Y-87901798D01*
X126899437Y-87713440D01*
X126786169Y-87543922D01*
X126642006Y-87399759D01*
X126600857Y-87372264D01*
X126600857Y-87237946D01*
X126561083Y-87037987D01*
X126483062Y-86849629D01*
X126369794Y-86680111D01*
X126225631Y-86535948D01*
X126056113Y-86422680D01*
X125867755Y-86344659D01*
X125667796Y-86304885D01*
X125463918Y-86304885D01*
X125263959Y-86344659D01*
X125075601Y-86422680D01*
X124906083Y-86535948D01*
X124761920Y-86680111D01*
X124648652Y-86849629D01*
X124570631Y-87037987D01*
X124530857Y-87237946D01*
X123401655Y-87237946D01*
X123359774Y-87196065D01*
X123190256Y-87082797D01*
X123001898Y-87004776D01*
X122801939Y-86965002D01*
X122598061Y-86965002D01*
X122484745Y-86987542D01*
X122485000Y-86986260D01*
X122485000Y-86693740D01*
X122474839Y-86642659D01*
X122537256Y-86616805D01*
X122706774Y-86503537D01*
X122850937Y-86359374D01*
X122964205Y-86189856D01*
X123042226Y-86001498D01*
X123082000Y-85801539D01*
X123082000Y-85597661D01*
X123042226Y-85397702D01*
X122964205Y-85209344D01*
X122850937Y-85039826D01*
X122706774Y-84895663D01*
X122560702Y-84798061D01*
X129465000Y-84798061D01*
X129465000Y-85001939D01*
X129504774Y-85201898D01*
X129582795Y-85390256D01*
X129696063Y-85559774D01*
X129840226Y-85703937D01*
X130009744Y-85817205D01*
X130198102Y-85895226D01*
X130398061Y-85935000D01*
X130601939Y-85935000D01*
X130801898Y-85895226D01*
X130990256Y-85817205D01*
X131159774Y-85703937D01*
X131303937Y-85559774D01*
X131417205Y-85390256D01*
X131495226Y-85201898D01*
X131535000Y-85001939D01*
X131535000Y-84898061D01*
X135765000Y-84898061D01*
X135765000Y-85101939D01*
X135804774Y-85301898D01*
X135882795Y-85490256D01*
X135996063Y-85659774D01*
X136140226Y-85803937D01*
X136309744Y-85917205D01*
X136498102Y-85995226D01*
X136698061Y-86035000D01*
X136901939Y-86035000D01*
X137101898Y-85995226D01*
X137290256Y-85917205D01*
X137459774Y-85803937D01*
X137603937Y-85659774D01*
X137717205Y-85490256D01*
X137763875Y-85377586D01*
X137890226Y-85503937D01*
X138059744Y-85617205D01*
X138248102Y-85695226D01*
X138265000Y-85698587D01*
X138265000Y-85701939D01*
X138304774Y-85901898D01*
X138382795Y-86090256D01*
X138496063Y-86259774D01*
X138640226Y-86403937D01*
X138809744Y-86517205D01*
X138998102Y-86595226D01*
X139198061Y-86635000D01*
X139401939Y-86635000D01*
X139601898Y-86595226D01*
X139790256Y-86517205D01*
X139959774Y-86403937D01*
X140103937Y-86259774D01*
X140217205Y-86090256D01*
X140295226Y-85901898D01*
X140335000Y-85701939D01*
X140335000Y-85598061D01*
X140465000Y-85598061D01*
X140465000Y-85801939D01*
X140504774Y-86001898D01*
X140582795Y-86190256D01*
X140696063Y-86359774D01*
X140840226Y-86503937D01*
X141009744Y-86617205D01*
X141198102Y-86695226D01*
X141398061Y-86735000D01*
X141601939Y-86735000D01*
X141801898Y-86695226D01*
X141990256Y-86617205D01*
X142029535Y-86590960D01*
X141994123Y-86768989D01*
X141994123Y-86972867D01*
X142033897Y-87172826D01*
X142111918Y-87361184D01*
X142225186Y-87530702D01*
X142369349Y-87674865D01*
X142538867Y-87788133D01*
X142727225Y-87866154D01*
X142927184Y-87905928D01*
X143131062Y-87905928D01*
X143331021Y-87866154D01*
X143519379Y-87788133D01*
X143688897Y-87674865D01*
X143833060Y-87530702D01*
X143946328Y-87361184D01*
X144024349Y-87172826D01*
X144064123Y-86972867D01*
X144064123Y-86768989D01*
X144024349Y-86569030D01*
X143946328Y-86380672D01*
X143833060Y-86211154D01*
X143688897Y-86066991D01*
X143519379Y-85953723D01*
X143331021Y-85875702D01*
X143131062Y-85835928D01*
X142927184Y-85835928D01*
X142727225Y-85875702D01*
X142538867Y-85953723D01*
X142499588Y-85979968D01*
X142535000Y-85801939D01*
X142535000Y-85598061D01*
X142495226Y-85398102D01*
X142417205Y-85209744D01*
X142303937Y-85040226D01*
X142159774Y-84896063D01*
X141990256Y-84782795D01*
X141801898Y-84704774D01*
X141601939Y-84665000D01*
X141398061Y-84665000D01*
X141198102Y-84704774D01*
X141009744Y-84782795D01*
X140840226Y-84896063D01*
X140696063Y-85040226D01*
X140582795Y-85209744D01*
X140504774Y-85398102D01*
X140465000Y-85598061D01*
X140335000Y-85598061D01*
X140335000Y-85498061D01*
X140295226Y-85298102D01*
X140217205Y-85109744D01*
X140103937Y-84940226D01*
X139959774Y-84796063D01*
X139790256Y-84682795D01*
X139601898Y-84604774D01*
X139585000Y-84601413D01*
X139585000Y-84598061D01*
X139545226Y-84398102D01*
X139545210Y-84398061D01*
X142165000Y-84398061D01*
X142165000Y-84601939D01*
X142204774Y-84801898D01*
X142282795Y-84990256D01*
X142396063Y-85159774D01*
X142540226Y-85303937D01*
X142709744Y-85417205D01*
X142898102Y-85495226D01*
X143098061Y-85535000D01*
X143301939Y-85535000D01*
X143501898Y-85495226D01*
X143690256Y-85417205D01*
X143859774Y-85303937D01*
X144003937Y-85159774D01*
X144117205Y-84990256D01*
X144195226Y-84801898D01*
X144235000Y-84601939D01*
X144235000Y-84398061D01*
X144195226Y-84198102D01*
X144117205Y-84009744D01*
X144003937Y-83840226D01*
X143859774Y-83696063D01*
X143690256Y-83582795D01*
X143501898Y-83504774D01*
X143301939Y-83465000D01*
X143098061Y-83465000D01*
X142898102Y-83504774D01*
X142709744Y-83582795D01*
X142540226Y-83696063D01*
X142396063Y-83840226D01*
X142282795Y-84009744D01*
X142204774Y-84198102D01*
X142165000Y-84398061D01*
X139545210Y-84398061D01*
X139467205Y-84209744D01*
X139353937Y-84040226D01*
X139209774Y-83896063D01*
X139040256Y-83782795D01*
X138851898Y-83704774D01*
X138651939Y-83665000D01*
X138540093Y-83665000D01*
X138517205Y-83609744D01*
X138477285Y-83550000D01*
X138517205Y-83490256D01*
X138595226Y-83301898D01*
X138635000Y-83101939D01*
X138635000Y-82898711D01*
X138640226Y-82903937D01*
X138809744Y-83017205D01*
X138998102Y-83095226D01*
X139065000Y-83108533D01*
X139065000Y-83301939D01*
X139104774Y-83501898D01*
X139182795Y-83690256D01*
X139296063Y-83859774D01*
X139440226Y-84003937D01*
X139609744Y-84117205D01*
X139798102Y-84195226D01*
X139998061Y-84235000D01*
X140201939Y-84235000D01*
X140401898Y-84195226D01*
X140590256Y-84117205D01*
X140759774Y-84003937D01*
X140903937Y-83859774D01*
X141017205Y-83690256D01*
X141095226Y-83501898D01*
X141135000Y-83301939D01*
X141135000Y-83098061D01*
X141095226Y-82898102D01*
X141017205Y-82709744D01*
X140903937Y-82540226D01*
X140759774Y-82396063D01*
X140590256Y-82282795D01*
X140401898Y-82204774D01*
X140335000Y-82191467D01*
X140335000Y-81998061D01*
X140295226Y-81798102D01*
X140217205Y-81609744D01*
X140103937Y-81440226D01*
X139959774Y-81296063D01*
X139790256Y-81182795D01*
X139601898Y-81104774D01*
X139401939Y-81065000D01*
X139198061Y-81065000D01*
X138998102Y-81104774D01*
X138809744Y-81182795D01*
X138640226Y-81296063D01*
X138496063Y-81440226D01*
X138382795Y-81609744D01*
X138304774Y-81798102D01*
X138265000Y-81998061D01*
X138265000Y-82201289D01*
X138259774Y-82196063D01*
X138090256Y-82082795D01*
X137901898Y-82004774D01*
X137701939Y-81965000D01*
X137498061Y-81965000D01*
X137298102Y-82004774D01*
X137109744Y-82082795D01*
X136940226Y-82196063D01*
X136796063Y-82340226D01*
X136682795Y-82509744D01*
X136604774Y-82698102D01*
X136565000Y-82898061D01*
X136565000Y-83101939D01*
X136604774Y-83301898D01*
X136682795Y-83490256D01*
X136722715Y-83550000D01*
X136682795Y-83609744D01*
X136604774Y-83798102D01*
X136566366Y-83991196D01*
X136498102Y-84004774D01*
X136309744Y-84082795D01*
X136140226Y-84196063D01*
X135996063Y-84340226D01*
X135882795Y-84509744D01*
X135804774Y-84698102D01*
X135765000Y-84898061D01*
X131535000Y-84898061D01*
X131535000Y-84798061D01*
X131495226Y-84598102D01*
X131417205Y-84409744D01*
X131303937Y-84240226D01*
X131159774Y-84096063D01*
X130990256Y-83982795D01*
X130801898Y-83904774D01*
X130601939Y-83865000D01*
X130398061Y-83865000D01*
X130198102Y-83904774D01*
X130009744Y-83982795D01*
X129840226Y-84096063D01*
X129696063Y-84240226D01*
X129582795Y-84409744D01*
X129504774Y-84598102D01*
X129465000Y-84798061D01*
X122560702Y-84798061D01*
X122537256Y-84782395D01*
X122426534Y-84736532D01*
X122427932Y-84733158D01*
X122485000Y-84446260D01*
X122485000Y-84153740D01*
X122427932Y-83866842D01*
X122315990Y-83596589D01*
X122153475Y-83353368D01*
X121946632Y-83146525D01*
X121772240Y-83030000D01*
X121946632Y-82913475D01*
X122153475Y-82706632D01*
X122315990Y-82463411D01*
X122427932Y-82193158D01*
X122466739Y-81998061D01*
X127565000Y-81998061D01*
X127565000Y-82201939D01*
X127604774Y-82401898D01*
X127682795Y-82590256D01*
X127796063Y-82759774D01*
X127940226Y-82903937D01*
X128109744Y-83017205D01*
X128298102Y-83095226D01*
X128498061Y-83135000D01*
X128701939Y-83135000D01*
X128901898Y-83095226D01*
X129090256Y-83017205D01*
X129259774Y-82903937D01*
X129403937Y-82759774D01*
X129517205Y-82590256D01*
X129595226Y-82401898D01*
X129635000Y-82201939D01*
X129635000Y-81998061D01*
X129595226Y-81798102D01*
X129517205Y-81609744D01*
X129403937Y-81440226D01*
X129259774Y-81296063D01*
X129187934Y-81248061D01*
X133065000Y-81248061D01*
X133065000Y-81451939D01*
X133104774Y-81651898D01*
X133182795Y-81840256D01*
X133296063Y-82009774D01*
X133440226Y-82153937D01*
X133609744Y-82267205D01*
X133798102Y-82345226D01*
X133998061Y-82385000D01*
X134201939Y-82385000D01*
X134401898Y-82345226D01*
X134590256Y-82267205D01*
X134759774Y-82153937D01*
X134903937Y-82009774D01*
X135017205Y-81840256D01*
X135095226Y-81651898D01*
X135135000Y-81451939D01*
X135135000Y-81248061D01*
X135095226Y-81048102D01*
X135017205Y-80859744D01*
X134903937Y-80690226D01*
X134759774Y-80546063D01*
X134590256Y-80432795D01*
X134401898Y-80354774D01*
X134201939Y-80315000D01*
X133998061Y-80315000D01*
X133798102Y-80354774D01*
X133609744Y-80432795D01*
X133440226Y-80546063D01*
X133296063Y-80690226D01*
X133182795Y-80859744D01*
X133104774Y-81048102D01*
X133065000Y-81248061D01*
X129187934Y-81248061D01*
X129090256Y-81182795D01*
X128901898Y-81104774D01*
X128701939Y-81065000D01*
X128498061Y-81065000D01*
X128298102Y-81104774D01*
X128109744Y-81182795D01*
X127940226Y-81296063D01*
X127796063Y-81440226D01*
X127682795Y-81609744D01*
X127604774Y-81798102D01*
X127565000Y-81998061D01*
X122466739Y-81998061D01*
X122485000Y-81906260D01*
X122485000Y-81613740D01*
X122427932Y-81326842D01*
X122315990Y-81056589D01*
X122153475Y-80813368D01*
X121946632Y-80606525D01*
X121772240Y-80490000D01*
X121946632Y-80373475D01*
X122153475Y-80166632D01*
X122315990Y-79923411D01*
X122427932Y-79653158D01*
X122485000Y-79366260D01*
X122485000Y-79073740D01*
X122427932Y-78786842D01*
X122315990Y-78516589D01*
X122153475Y-78273368D01*
X121946632Y-78066525D01*
X121844169Y-77998061D01*
X125365000Y-77998061D01*
X125365000Y-78201939D01*
X125404774Y-78401898D01*
X125482795Y-78590256D01*
X125589532Y-78750000D01*
X125482795Y-78909744D01*
X125404774Y-79098102D01*
X125365000Y-79298061D01*
X125365000Y-79501939D01*
X125404774Y-79701898D01*
X125482795Y-79890256D01*
X125596063Y-80059774D01*
X125740226Y-80203937D01*
X125884445Y-80300301D01*
X125865000Y-80398061D01*
X125865000Y-80601939D01*
X125904774Y-80801898D01*
X125982795Y-80990256D01*
X126096063Y-81159774D01*
X126240226Y-81303937D01*
X126409744Y-81417205D01*
X126598102Y-81495226D01*
X126798061Y-81535000D01*
X127001939Y-81535000D01*
X127201898Y-81495226D01*
X127390256Y-81417205D01*
X127559774Y-81303937D01*
X127703937Y-81159774D01*
X127817205Y-80990256D01*
X127895226Y-80801898D01*
X127935000Y-80601939D01*
X127935000Y-80398061D01*
X127895226Y-80198102D01*
X127817205Y-80009744D01*
X127703937Y-79840226D01*
X127559774Y-79696063D01*
X127415555Y-79599699D01*
X127430799Y-79523059D01*
X140165000Y-79523059D01*
X140165000Y-79726937D01*
X140204774Y-79926896D01*
X140282795Y-80115254D01*
X140396063Y-80284772D01*
X140540226Y-80428935D01*
X140709744Y-80542203D01*
X140898102Y-80620224D01*
X141098061Y-80659998D01*
X141301939Y-80659998D01*
X141501898Y-80620224D01*
X141690256Y-80542203D01*
X141859774Y-80428935D01*
X142003937Y-80284772D01*
X142117205Y-80115254D01*
X142195226Y-79926896D01*
X142235000Y-79726937D01*
X142235000Y-79523059D01*
X142195226Y-79323100D01*
X142117205Y-79134742D01*
X142003937Y-78965224D01*
X141859774Y-78821061D01*
X141690256Y-78707793D01*
X141501898Y-78629772D01*
X141301939Y-78589998D01*
X141098061Y-78589998D01*
X140898102Y-78629772D01*
X140709744Y-78707793D01*
X140540226Y-78821061D01*
X140396063Y-78965224D01*
X140282795Y-79134742D01*
X140204774Y-79323100D01*
X140165000Y-79523059D01*
X127430799Y-79523059D01*
X127435000Y-79501939D01*
X127435000Y-79298061D01*
X127395226Y-79098102D01*
X127317205Y-78909744D01*
X127210468Y-78750000D01*
X127317205Y-78590256D01*
X127395226Y-78401898D01*
X127435000Y-78201939D01*
X127435000Y-77998061D01*
X127410792Y-77876358D01*
X127491896Y-77860226D01*
X127680254Y-77782205D01*
X127849772Y-77668937D01*
X127993935Y-77524774D01*
X128107203Y-77355256D01*
X128185224Y-77166898D01*
X128224998Y-76966939D01*
X128224998Y-76898061D01*
X135765000Y-76898061D01*
X135765000Y-77101939D01*
X135804774Y-77301898D01*
X135882795Y-77490256D01*
X135996063Y-77659774D01*
X136140226Y-77803937D01*
X136309744Y-77917205D01*
X136498102Y-77995226D01*
X136698061Y-78035000D01*
X136901939Y-78035000D01*
X137101898Y-77995226D01*
X137290256Y-77917205D01*
X137459774Y-77803937D01*
X137603937Y-77659774D01*
X137611763Y-77648061D01*
X138365000Y-77648061D01*
X138365000Y-77851939D01*
X138404774Y-78051898D01*
X138482795Y-78240256D01*
X138596063Y-78409774D01*
X138740226Y-78553937D01*
X138909744Y-78667205D01*
X139098102Y-78745226D01*
X139298061Y-78785000D01*
X139501939Y-78785000D01*
X139701898Y-78745226D01*
X139890256Y-78667205D01*
X140059774Y-78553937D01*
X140203937Y-78409774D01*
X140317205Y-78240256D01*
X140395226Y-78051898D01*
X140398587Y-78035000D01*
X140501939Y-78035000D01*
X140701898Y-77995226D01*
X140890256Y-77917205D01*
X141059774Y-77803937D01*
X141203937Y-77659774D01*
X141317205Y-77490256D01*
X141395226Y-77301898D01*
X141435000Y-77101939D01*
X141435000Y-76898061D01*
X141395226Y-76698102D01*
X141317205Y-76509744D01*
X141203937Y-76340226D01*
X141059774Y-76196063D01*
X140890256Y-76082795D01*
X140701898Y-76004774D01*
X140501939Y-75965000D01*
X140298061Y-75965000D01*
X140098102Y-76004774D01*
X139909744Y-76082795D01*
X139740226Y-76196063D01*
X139596063Y-76340226D01*
X139482795Y-76509744D01*
X139404774Y-76698102D01*
X139401413Y-76715000D01*
X139298061Y-76715000D01*
X139098102Y-76754774D01*
X138909744Y-76832795D01*
X138740226Y-76946063D01*
X138596063Y-77090226D01*
X138482795Y-77259744D01*
X138404774Y-77448102D01*
X138365000Y-77648061D01*
X137611763Y-77648061D01*
X137717205Y-77490256D01*
X137795226Y-77301898D01*
X137835000Y-77101939D01*
X137835000Y-76898061D01*
X137795226Y-76698102D01*
X137763977Y-76622660D01*
X137901898Y-76595226D01*
X138090256Y-76517205D01*
X138259774Y-76403937D01*
X138403937Y-76259774D01*
X138517205Y-76090256D01*
X138595226Y-75901898D01*
X138635000Y-75701939D01*
X138635000Y-75498061D01*
X138595226Y-75298102D01*
X138595210Y-75298061D01*
X142965000Y-75298061D01*
X142965000Y-75501939D01*
X143004774Y-75701898D01*
X143082795Y-75890256D01*
X143196063Y-76059774D01*
X143340226Y-76203937D01*
X143509744Y-76317205D01*
X143698102Y-76395226D01*
X143898061Y-76435000D01*
X144101939Y-76435000D01*
X144301898Y-76395226D01*
X144490256Y-76317205D01*
X144659774Y-76203937D01*
X144803937Y-76059774D01*
X144917205Y-75890256D01*
X144995226Y-75701898D01*
X145035000Y-75501939D01*
X145035000Y-75298061D01*
X144995226Y-75098102D01*
X144917205Y-74909744D01*
X144803937Y-74740226D01*
X144659774Y-74596063D01*
X144490256Y-74482795D01*
X144301898Y-74404774D01*
X144101939Y-74365000D01*
X143898061Y-74365000D01*
X143698102Y-74404774D01*
X143509744Y-74482795D01*
X143340226Y-74596063D01*
X143196063Y-74740226D01*
X143082795Y-74909744D01*
X143004774Y-75098102D01*
X142965000Y-75298061D01*
X138595210Y-75298061D01*
X138517205Y-75109744D01*
X138403937Y-74940226D01*
X138259774Y-74796063D01*
X138090256Y-74682795D01*
X137901898Y-74604774D01*
X137701939Y-74565000D01*
X137498061Y-74565000D01*
X137298102Y-74604774D01*
X137109744Y-74682795D01*
X136940226Y-74796063D01*
X136796063Y-74940226D01*
X136682795Y-75109744D01*
X136604774Y-75298102D01*
X136565000Y-75498061D01*
X136565000Y-75701939D01*
X136604774Y-75901898D01*
X136636023Y-75977340D01*
X136498102Y-76004774D01*
X136309744Y-76082795D01*
X136140226Y-76196063D01*
X135996063Y-76340226D01*
X135882795Y-76509744D01*
X135804774Y-76698102D01*
X135765000Y-76898061D01*
X128224998Y-76898061D01*
X128224998Y-76763061D01*
X128185224Y-76563102D01*
X128107203Y-76374744D01*
X127993935Y-76205226D01*
X127849772Y-76061063D01*
X127680254Y-75947795D01*
X127491896Y-75869774D01*
X127291937Y-75830000D01*
X127088059Y-75830000D01*
X126888100Y-75869774D01*
X126699742Y-75947795D01*
X126530224Y-76061063D01*
X126386061Y-76205226D01*
X126272793Y-76374744D01*
X126194772Y-76563102D01*
X126154998Y-76763061D01*
X126154998Y-76966939D01*
X126179206Y-77088642D01*
X126098102Y-77104774D01*
X125909744Y-77182795D01*
X125740226Y-77296063D01*
X125596063Y-77440226D01*
X125482795Y-77609744D01*
X125404774Y-77798102D01*
X125365000Y-77998061D01*
X121844169Y-77998061D01*
X121772240Y-77950000D01*
X121946632Y-77833475D01*
X122153475Y-77626632D01*
X122315990Y-77383411D01*
X122427932Y-77113158D01*
X122485000Y-76826260D01*
X122485000Y-76533740D01*
X122427932Y-76246842D01*
X122315990Y-75976589D01*
X122153475Y-75733368D01*
X121946632Y-75526525D01*
X121772240Y-75410000D01*
X121946632Y-75293475D01*
X122153475Y-75086632D01*
X122315990Y-74843411D01*
X122427932Y-74573158D01*
X122485000Y-74286260D01*
X122485000Y-74198061D01*
X126765000Y-74198061D01*
X126765000Y-74401939D01*
X126804774Y-74601898D01*
X126882795Y-74790256D01*
X126996063Y-74959774D01*
X127140226Y-75103937D01*
X127309744Y-75217205D01*
X127498102Y-75295226D01*
X127698061Y-75335000D01*
X127901939Y-75335000D01*
X128101898Y-75295226D01*
X128122840Y-75286551D01*
X128240226Y-75403937D01*
X128409744Y-75517205D01*
X128564998Y-75581514D01*
X128564998Y-75701939D01*
X128604772Y-75901898D01*
X128682793Y-76090256D01*
X128796061Y-76259774D01*
X128940224Y-76403937D01*
X129109742Y-76517205D01*
X129298100Y-76595226D01*
X129498059Y-76635000D01*
X129701937Y-76635000D01*
X129901896Y-76595226D01*
X130090254Y-76517205D01*
X130259772Y-76403937D01*
X130403935Y-76259774D01*
X130517203Y-76090256D01*
X130595224Y-75901898D01*
X130634998Y-75701939D01*
X130634998Y-75498061D01*
X130595224Y-75298102D01*
X130517203Y-75109744D01*
X130403935Y-74940226D01*
X130259772Y-74796063D01*
X130090254Y-74682795D01*
X129935000Y-74618486D01*
X129935000Y-74498061D01*
X129895226Y-74298102D01*
X129817205Y-74109744D01*
X129703937Y-73940226D01*
X129563711Y-73800000D01*
X129603937Y-73759774D01*
X129717205Y-73590256D01*
X129755393Y-73498061D01*
X133765000Y-73498061D01*
X133765000Y-73701939D01*
X133804774Y-73901898D01*
X133882795Y-74090256D01*
X133996063Y-74259774D01*
X134140226Y-74403937D01*
X134309744Y-74517205D01*
X134498102Y-74595226D01*
X134698061Y-74635000D01*
X134901939Y-74635000D01*
X135101898Y-74595226D01*
X135290256Y-74517205D01*
X135459774Y-74403937D01*
X135603937Y-74259774D01*
X135717205Y-74090256D01*
X135744506Y-74024347D01*
X135798061Y-74035000D01*
X136001939Y-74035000D01*
X136201898Y-73995226D01*
X136390256Y-73917205D01*
X136559774Y-73803937D01*
X136703937Y-73659774D01*
X136817205Y-73490256D01*
X136895226Y-73301898D01*
X136935000Y-73101939D01*
X136935000Y-72898061D01*
X142765000Y-72898061D01*
X142765000Y-73101939D01*
X142804774Y-73301898D01*
X142882795Y-73490256D01*
X142996063Y-73659774D01*
X143140226Y-73803937D01*
X143309744Y-73917205D01*
X143498102Y-73995226D01*
X143698061Y-74035000D01*
X143901939Y-74035000D01*
X144101898Y-73995226D01*
X144290256Y-73917205D01*
X144459774Y-73803937D01*
X144603937Y-73659774D01*
X144717205Y-73490256D01*
X144795226Y-73301898D01*
X144835000Y-73101939D01*
X144835000Y-72898061D01*
X144795226Y-72698102D01*
X144717205Y-72509744D01*
X144603937Y-72340226D01*
X144459774Y-72196063D01*
X144290256Y-72082795D01*
X144101898Y-72004774D01*
X143901939Y-71965000D01*
X143698061Y-71965000D01*
X143498102Y-72004774D01*
X143309744Y-72082795D01*
X143140226Y-72196063D01*
X142996063Y-72340226D01*
X142882795Y-72509744D01*
X142804774Y-72698102D01*
X142765000Y-72898061D01*
X136935000Y-72898061D01*
X136895226Y-72698102D01*
X136817205Y-72509744D01*
X136703937Y-72340226D01*
X136559774Y-72196063D01*
X136390256Y-72082795D01*
X136201898Y-72004774D01*
X136001939Y-71965000D01*
X135798061Y-71965000D01*
X135598102Y-72004774D01*
X135409744Y-72082795D01*
X135240226Y-72196063D01*
X135096063Y-72340226D01*
X134982795Y-72509744D01*
X134955494Y-72575653D01*
X134901939Y-72565000D01*
X134698061Y-72565000D01*
X134498102Y-72604774D01*
X134309744Y-72682795D01*
X134140226Y-72796063D01*
X133996063Y-72940226D01*
X133882795Y-73109744D01*
X133804774Y-73298102D01*
X133765000Y-73498061D01*
X129755393Y-73498061D01*
X129795226Y-73401898D01*
X129835000Y-73201939D01*
X129835000Y-72998061D01*
X129795226Y-72798102D01*
X129717205Y-72609744D01*
X129603937Y-72440226D01*
X129459774Y-72296063D01*
X129290256Y-72182795D01*
X129101898Y-72104774D01*
X128901939Y-72065000D01*
X128698061Y-72065000D01*
X128498102Y-72104774D01*
X128309744Y-72182795D01*
X128140226Y-72296063D01*
X127996063Y-72440226D01*
X127882795Y-72609744D01*
X127804774Y-72798102D01*
X127765000Y-72998061D01*
X127765000Y-73201939D01*
X127777544Y-73265000D01*
X127698061Y-73265000D01*
X127498102Y-73304774D01*
X127309744Y-73382795D01*
X127140226Y-73496063D01*
X126996063Y-73640226D01*
X126882795Y-73809744D01*
X126804774Y-73998102D01*
X126765000Y-74198061D01*
X122485000Y-74198061D01*
X122485000Y-73993740D01*
X122427932Y-73706842D01*
X122315990Y-73436589D01*
X122153475Y-73193368D01*
X121946632Y-72986525D01*
X121772240Y-72870000D01*
X121946632Y-72753475D01*
X122153475Y-72546632D01*
X122315990Y-72303411D01*
X122427932Y-72033158D01*
X122485000Y-71746260D01*
X122485000Y-71453740D01*
X122427932Y-71166842D01*
X122315990Y-70896589D01*
X122153475Y-70653368D01*
X122048168Y-70548061D01*
X122865000Y-70548061D01*
X122865000Y-70751939D01*
X122904774Y-70951898D01*
X122982795Y-71140256D01*
X123096063Y-71309774D01*
X123240226Y-71453937D01*
X123409744Y-71567205D01*
X123598102Y-71645226D01*
X123798061Y-71685000D01*
X124001939Y-71685000D01*
X124201898Y-71645226D01*
X124390256Y-71567205D01*
X124559774Y-71453937D01*
X124703937Y-71309774D01*
X124817205Y-71140256D01*
X124895226Y-70951898D01*
X124935000Y-70751939D01*
X124935000Y-70548061D01*
X124895226Y-70348102D01*
X124817205Y-70159744D01*
X124703937Y-69990226D01*
X124559774Y-69846063D01*
X124390256Y-69732795D01*
X124201898Y-69654774D01*
X124001939Y-69615000D01*
X123798061Y-69615000D01*
X123598102Y-69654774D01*
X123409744Y-69732795D01*
X123240226Y-69846063D01*
X123096063Y-69990226D01*
X122982795Y-70159744D01*
X122904774Y-70348102D01*
X122865000Y-70548061D01*
X122048168Y-70548061D01*
X122021620Y-70521513D01*
X122094180Y-70499502D01*
X122204494Y-70440537D01*
X122301185Y-70361185D01*
X122380537Y-70264494D01*
X122439502Y-70154180D01*
X122475812Y-70034482D01*
X122488072Y-69910000D01*
X122488072Y-68210000D01*
X122479897Y-68127000D01*
X127834226Y-68127000D01*
X127818485Y-68165000D01*
G37*
%TD.AperFunction*%
%TD*%
M02*
