%TF.GenerationSoftware,KiCad,Pcbnew,(5.1.7-0-10_14)*%
%TF.CreationDate,2020-11-02T01:13:28+09:00*%
%TF.ProjectId,mini-esp32,6d696e69-2d65-4737-9033-322e6b696361,rev?*%
%TF.SameCoordinates,Original*%
%TF.FileFunction,Copper,L4,Bot*%
%TF.FilePolarity,Positive*%
%FSLAX46Y46*%
G04 Gerber Fmt 4.6, Leading zero omitted, Abs format (unit mm)*
G04 Created by KiCad (PCBNEW (5.1.7-0-10_14)) date 2020-11-02 01:13:28*
%MOMM*%
%LPD*%
G01*
G04 APERTURE LIST*
%TA.AperFunction,ComponentPad*%
%ADD10C,1.200000*%
%TD*%
%TA.AperFunction,ComponentPad*%
%ADD11C,2.640000*%
%TD*%
%TA.AperFunction,ComponentPad*%
%ADD12O,1.700000X1.700000*%
%TD*%
%TA.AperFunction,ComponentPad*%
%ADD13R,1.700000X1.700000*%
%TD*%
%TA.AperFunction,ViaPad*%
%ADD14C,0.800000*%
%TD*%
%TA.AperFunction,Conductor*%
%ADD15C,0.750000*%
%TD*%
%TA.AperFunction,Conductor*%
%ADD16C,0.300000*%
%TD*%
G04 APERTURE END LIST*
D10*
%TO.P,J2,MH4*%
%TO.N,N/C*%
X135575000Y-114020000D03*
%TO.P,J2,MH3*%
X140425000Y-114020000D03*
D11*
%TO.P,J2,MH2*%
X134375000Y-116700000D03*
%TO.P,J2,MH1*%
X141625000Y-116700000D03*
%TD*%
D12*
%TO.P,J5,18*%
%TO.N,VBUS*%
X121000000Y-112240000D03*
%TO.P,J5,17*%
%TO.N,VDD*%
X121000000Y-109700000D03*
%TO.P,J5,16*%
%TO.N,Net-(J5-Pad16)*%
X121000000Y-107160000D03*
%TO.P,J5,15*%
%TO.N,GND*%
X121000000Y-104620000D03*
%TO.P,J5,14*%
%TO.N,+BATT*%
X121000000Y-102080000D03*
%TO.P,J5,13*%
%TO.N,EN*%
X121000000Y-99540000D03*
%TO.P,J5,12*%
%TO.N,Net-(J5-Pad12)*%
X121000000Y-97000000D03*
%TO.P,J5,11*%
%TO.N,Net-(J5-Pad11)*%
X121000000Y-94460000D03*
%TO.P,J5,10*%
%TO.N,IO2*%
X121000000Y-91920000D03*
%TO.P,J5,9*%
%TO.N,IO5*%
X121000000Y-89380000D03*
%TO.P,J5,8*%
%TO.N,IO13*%
X121000000Y-86840000D03*
%TO.P,J5,7*%
%TO.N,IO33*%
X121000000Y-84300000D03*
%TO.P,J5,6*%
%TO.N,IO32*%
X121000000Y-81760000D03*
%TO.P,J5,5*%
%TO.N,IO27*%
X121000000Y-79220000D03*
%TO.P,J5,4*%
%TO.N,IO26_DAC2*%
X121000000Y-76680000D03*
%TO.P,J5,3*%
%TO.N,IO25_DAC1*%
X121000000Y-74140000D03*
%TO.P,J5,2*%
%TO.N,TXD0*%
X121000000Y-71600000D03*
D13*
%TO.P,J5,1*%
%TO.N,RXD0*%
X121000000Y-69060000D03*
%TD*%
%TO.P,J6,1*%
%TO.N,I36*%
X146400000Y-69060000D03*
D12*
%TO.P,J6,2*%
%TO.N,I39*%
X146400000Y-71600000D03*
%TO.P,J6,3*%
%TO.N,I34*%
X146400000Y-74140000D03*
%TO.P,J6,4*%
%TO.N,I35*%
X146400000Y-76680000D03*
%TO.P,J6,5*%
%TO.N,IO15*%
X146400000Y-79220000D03*
%TO.P,J6,6*%
%TO.N,Net-(J6-Pad6)*%
X146400000Y-81760000D03*
%TO.P,J6,7*%
%TO.N,GPIO0*%
X146400000Y-84300000D03*
%TO.P,J6,8*%
%TO.N,IO18*%
X146400000Y-86840000D03*
%TO.P,J6,9*%
%TO.N,IO23*%
X146400000Y-89380000D03*
%TO.P,J6,10*%
%TO.N,IO19*%
X146400000Y-91920000D03*
%TO.P,J6,11*%
%TO.N,IO21*%
X146400000Y-94460000D03*
%TO.P,J6,12*%
%TO.N,IO22*%
X146400000Y-97000000D03*
%TO.P,J6,13*%
%TO.N,IO14*%
X146400000Y-99540000D03*
%TO.P,J6,14*%
%TO.N,IO12*%
X146400000Y-102080000D03*
%TO.P,J6,15*%
%TO.N,IO4*%
X146400000Y-104620000D03*
%TO.P,J6,16*%
%TO.N,IO16*%
X146400000Y-107160000D03*
%TO.P,J6,17*%
%TO.N,IO17*%
X146400000Y-109700000D03*
%TO.P,J6,18*%
%TO.N,RESET*%
X146400000Y-112240000D03*
%TD*%
D14*
%TO.N,GND*%
X132700000Y-78500000D03*
X132700000Y-77100000D03*
X132700000Y-75700000D03*
X131000000Y-75700000D03*
X131000000Y-77100000D03*
X131000000Y-78500000D03*
X134400000Y-78500000D03*
X134400000Y-77100000D03*
X134400000Y-75700000D03*
X131800000Y-96400000D03*
X135100000Y-99200000D03*
X139300000Y-99300000D03*
X129000000Y-106900000D03*
X126000000Y-106900000D03*
X123700000Y-106800000D03*
X123600000Y-103100000D03*
X126200000Y-103100000D03*
X136300000Y-90600000D03*
X125500000Y-89100000D03*
X124900000Y-90000000D03*
X123500000Y-90100000D03*
X128000000Y-85400000D03*
X126500000Y-69200000D03*
X140900000Y-69300000D03*
X127000000Y-117600000D03*
X139300000Y-115100000D03*
X138000000Y-93000000D03*
X136900000Y-93000000D03*
X132800000Y-111600000D03*
X134300000Y-107500000D03*
X135600000Y-111000000D03*
X123800000Y-96500000D03*
X124900000Y-95100000D03*
%TO.N,Net-(C2-Pad1)*%
X131500000Y-105850000D03*
X131500000Y-99500000D03*
%TO.N,VDD*%
X141900000Y-101600000D03*
X126500000Y-70500000D03*
X123900000Y-70500000D03*
X127500000Y-89000000D03*
X130100000Y-93400000D03*
X141000000Y-94281998D03*
X136961108Y-105238892D03*
%TO.N,+BATT*%
X128400000Y-105000000D03*
X128900000Y-111600000D03*
X127400000Y-100100000D03*
%TO.N,RESET*%
X141700000Y-88000000D03*
X140600000Y-86400000D03*
X141800000Y-98600000D03*
%TO.N,VBUS*%
X130500000Y-112200000D03*
X125400000Y-112200000D03*
%TO.N,IO21*%
X140900000Y-75600000D03*
%TO.N,IO17*%
X141350000Y-82000000D03*
X144200000Y-99213680D03*
X141000000Y-103500000D03*
%TO.N,IO16*%
X141350000Y-83200000D03*
X143450000Y-100000000D03*
X141000000Y-102300000D03*
%TO.N,DTR*%
X140472295Y-90383365D03*
X137800000Y-90400000D03*
%TO.N,RTS*%
X141830331Y-97569669D03*
X139900000Y-105300000D03*
%TO.N,CH340GND*%
X135300000Y-90600000D03*
X135800000Y-95500000D03*
%TO.N,TXD0*%
X137100000Y-98000000D03*
X135800000Y-83500000D03*
X138462170Y-77937830D03*
X138500000Y-75800000D03*
%TO.N,RXD0*%
X139252831Y-70347169D03*
X139292169Y-72507831D03*
X135900000Y-97900000D03*
X135092892Y-82792892D03*
X137500000Y-77200000D03*
%TO.N,I35*%
X123800000Y-97500000D03*
X126197887Y-96669036D03*
X128099989Y-91300000D03*
X130500000Y-89324999D03*
X130400000Y-81900000D03*
X143800000Y-78200000D03*
X136600000Y-79100000D03*
%TO.N,I36*%
X138300000Y-68200000D03*
X133000000Y-72535000D03*
%TO.N,I39*%
X143900000Y-68950000D03*
X133912170Y-73387830D03*
%TO.N,I34*%
X143900000Y-70300000D03*
X129599998Y-74537829D03*
%TO.N,IO32*%
X123007168Y-82892832D03*
X128000000Y-82900000D03*
%TO.N,IO33*%
X123000000Y-83900000D03*
X127200000Y-83900000D03*
%TO.N,IO14*%
X126800000Y-86400000D03*
X140800000Y-106300000D03*
%TO.N,IO12*%
X126700000Y-87500000D03*
X141500000Y-107500000D03*
%TO.N,IO13*%
X124900000Y-87000000D03*
X129200000Y-85200000D03*
%TO.N,IO15*%
X138100000Y-85400000D03*
X143800002Y-81536331D03*
%TO.N,IO4*%
X141350000Y-84500000D03*
%TO.N,IO5*%
X123300000Y-87590000D03*
X129100000Y-82000000D03*
X139700000Y-80700000D03*
X143400000Y-80600000D03*
%TO.N,IO18*%
X143558955Y-79501707D03*
%TO.N,IO19*%
X140900000Y-78100000D03*
%TO.N,IO22*%
X143800000Y-71800000D03*
%TO.N,IO23*%
X140405375Y-71050000D03*
%TD*%
D15*
%TO.N,Net-(C2-Pad1)*%
X131500000Y-105850000D02*
X131500000Y-99500000D01*
%TO.N,+BATT*%
X128000001Y-110700001D02*
X128900000Y-111600000D01*
X128000001Y-105399999D02*
X128000001Y-110700001D01*
X128400000Y-105000000D02*
X128000001Y-105399999D01*
X125420000Y-102080000D02*
X127400000Y-100100000D01*
X121000000Y-102080000D02*
X125420000Y-102080000D01*
X127400000Y-104000000D02*
X128400000Y-105000000D01*
X127400000Y-100100000D02*
X127400000Y-104000000D01*
D16*
%TO.N,RESET*%
X141700000Y-87500000D02*
X140600000Y-86400000D01*
X141700000Y-88000000D02*
X141700000Y-87500000D01*
X145199999Y-109489997D02*
X145199999Y-111039999D01*
X140249999Y-104539997D02*
X145199999Y-109489997D01*
X145199999Y-111039999D02*
X146400000Y-112240000D01*
X140249999Y-100150001D02*
X140249999Y-104539997D01*
X141800000Y-98600000D02*
X140249999Y-100150001D01*
D15*
%TO.N,VBUS*%
X125799999Y-112599999D02*
X125400000Y-112200000D01*
X130100001Y-112599999D02*
X125799999Y-112599999D01*
X130500000Y-112200000D02*
X130100001Y-112599999D01*
D16*
%TO.N,IO17*%
X144200000Y-84850000D02*
X144200000Y-99213680D01*
X141350000Y-82000000D02*
X144200000Y-84850000D01*
X146400000Y-108900000D02*
X146400000Y-109700000D01*
X141000000Y-103500000D02*
X146400000Y-108900000D01*
%TO.N,IO16*%
X143450000Y-85300000D02*
X143450000Y-100000000D01*
X141350000Y-83200000D02*
X143450000Y-85300000D01*
X145860000Y-107160000D02*
X146400000Y-107160000D01*
X141000000Y-102300000D02*
X145860000Y-107160000D01*
%TO.N,DTR*%
X137816635Y-90383365D02*
X137800000Y-90400000D01*
X140472295Y-90383365D02*
X137816635Y-90383365D01*
%TO.N,RTS*%
X141264646Y-97569669D02*
X141830331Y-97569669D01*
X141049999Y-97784316D02*
X141264646Y-97569669D01*
X141049999Y-98642881D02*
X141049999Y-97784316D01*
X139746440Y-105146440D02*
X139746440Y-99946440D01*
X139746440Y-99946440D02*
X141049999Y-98642881D01*
X139900000Y-105300000D02*
X139746440Y-105146440D01*
%TO.N,CH340GND*%
X135300000Y-95000000D02*
X135800000Y-95500000D01*
X135300000Y-90600000D02*
X135300000Y-95000000D01*
%TO.N,TXD0*%
X134549999Y-95449999D02*
X134549999Y-84750001D01*
X134549999Y-84750001D02*
X135800000Y-83500000D01*
X137100000Y-98000000D02*
X134549999Y-95449999D01*
X138462170Y-75837830D02*
X138500000Y-75800000D01*
X138462170Y-77937830D02*
X138462170Y-75837830D01*
%TO.N,RXD0*%
X139252831Y-72468493D02*
X139292169Y-72507831D01*
X139252831Y-70347169D02*
X139252831Y-72468493D01*
X134049989Y-83835795D02*
X135092892Y-82792892D01*
X134049989Y-96049989D02*
X134049989Y-83835795D01*
X135900000Y-97900000D02*
X134049989Y-96049989D01*
X137500000Y-74300000D02*
X139292169Y-72507831D01*
X137500000Y-77200000D02*
X137500000Y-74300000D01*
%TO.N,I35*%
X126197887Y-93202102D02*
X128099989Y-91300000D01*
X126197887Y-96669036D02*
X126197887Y-93202102D01*
X130500000Y-82000000D02*
X130400000Y-81900000D01*
X130500000Y-89324999D02*
X130500000Y-82000000D01*
X142900000Y-79100000D02*
X136600000Y-79100000D01*
X143800000Y-78200000D02*
X142900000Y-79100000D01*
%TO.N,I36*%
X137335000Y-68200000D02*
X133000000Y-72535000D01*
X138300000Y-68200000D02*
X137335000Y-68200000D01*
%TO.N,I39*%
X138350000Y-68950000D02*
X133912170Y-73387830D01*
X143499999Y-68549999D02*
X140550000Y-68549999D01*
X140550000Y-68549999D02*
X140149999Y-68950000D01*
X140149999Y-68950000D02*
X138350000Y-68950000D01*
X143900000Y-68950000D02*
X143499999Y-68549999D01*
%TO.N,I34*%
X138812834Y-69597168D02*
X133872173Y-74537829D01*
X133872173Y-74537829D02*
X129599998Y-74537829D01*
X140315664Y-70300000D02*
X139612832Y-69597168D01*
X139612832Y-69597168D02*
X138812834Y-69597168D01*
X143900000Y-70300000D02*
X140315664Y-70300000D01*
%TO.N,IO32*%
X127992832Y-82892832D02*
X128000000Y-82900000D01*
X123007168Y-82892832D02*
X127992832Y-82892832D01*
%TO.N,IO33*%
X123000000Y-83900000D02*
X127200000Y-83900000D01*
%TO.N,IO14*%
X139789998Y-106300000D02*
X129349999Y-95860001D01*
X129349999Y-88949999D02*
X126800000Y-86400000D01*
X129349999Y-95860001D02*
X129349999Y-88949999D01*
X140800000Y-106300000D02*
X139789998Y-106300000D01*
%TO.N,IO12*%
X127110002Y-87500000D02*
X126700000Y-87500000D01*
X128849989Y-89239987D02*
X127110002Y-87500000D01*
X130749999Y-99149999D02*
X128849989Y-97249989D01*
X130749999Y-106210001D02*
X130749999Y-99149999D01*
X131139999Y-106600001D02*
X130749999Y-106210001D01*
X134510003Y-106600001D02*
X131139999Y-106600001D01*
X128849989Y-97249989D02*
X128849989Y-89239987D01*
X135410002Y-107500000D02*
X134510003Y-106600001D01*
X141500000Y-107500000D02*
X135410002Y-107500000D01*
%TO.N,IO13*%
X128649999Y-84649999D02*
X129200000Y-85200000D01*
X127250001Y-84649999D02*
X128649999Y-84649999D01*
X124900000Y-87000000D02*
X127250001Y-84649999D01*
%TO.N,IO15*%
X141996333Y-81536331D02*
X143800002Y-81536331D01*
X140989999Y-81249999D02*
X141710001Y-81249999D01*
X138100000Y-84139998D02*
X140989999Y-81249999D01*
X141710001Y-81249999D02*
X141996333Y-81536331D01*
X138100000Y-85400000D02*
X138100000Y-84139998D01*
%TO.N,IO4*%
X139849999Y-86000001D02*
X139849999Y-88651067D01*
X139849999Y-88651067D02*
X142700000Y-91501068D01*
X141350000Y-84500000D02*
X139849999Y-86000001D01*
X145620000Y-104620000D02*
X146400000Y-104620000D01*
X142700000Y-101700000D02*
X145620000Y-104620000D01*
X142700000Y-91501068D02*
X142700000Y-101700000D01*
%TO.N,IO5*%
X122789998Y-82000000D02*
X129100000Y-82000000D01*
X122249999Y-82539999D02*
X122789998Y-82000000D01*
X122249999Y-86539999D02*
X122249999Y-82539999D01*
X123300000Y-87590000D02*
X122249999Y-86539999D01*
X143300000Y-80700000D02*
X143400000Y-80600000D01*
X139700000Y-80700000D02*
X143300000Y-80700000D01*
%TO.N,IO22*%
X144700010Y-95300010D02*
X144700010Y-72700010D01*
X146400000Y-97000000D02*
X144700010Y-95300010D01*
X144700010Y-72700010D02*
X143800000Y-71800000D01*
%TD*%
M02*
