%TF.GenerationSoftware,KiCad,Pcbnew,(5.1.7-0-10_14)*%
%TF.CreationDate,2020-11-14T19:54:13+09:00*%
%TF.ProjectId,mini-esp32,6d696e69-2d65-4737-9033-322e6b696361,rev?*%
%TF.SameCoordinates,Original*%
%TF.FileFunction,Legend,Top*%
%TF.FilePolarity,Positive*%
%FSLAX46Y46*%
G04 Gerber Fmt 4.6, Leading zero omitted, Abs format (unit mm)*
G04 Created by KiCad (PCBNEW (5.1.7-0-10_14)) date 2020-11-14 19:54:13*
%MOMM*%
%LPD*%
G01*
G04 APERTURE LIST*
%ADD10C,0.150000*%
%ADD11C,0.100000*%
%ADD12C,0.120000*%
%ADD13C,0.254000*%
G04 APERTURE END LIST*
D10*
X122350000Y-91950000D02*
X122950000Y-91950000D01*
X129954761Y-65661904D02*
X129954761Y-66233333D01*
X129916666Y-66347619D01*
X129840476Y-66423809D01*
X129726190Y-66461904D01*
X129650000Y-66461904D01*
X130716666Y-66461904D02*
X130335714Y-66461904D01*
X130335714Y-65661904D01*
X131440476Y-66385714D02*
X131402380Y-66423809D01*
X131288095Y-66461904D01*
X131211904Y-66461904D01*
X131097619Y-66423809D01*
X131021428Y-66347619D01*
X130983333Y-66271428D01*
X130945238Y-66119047D01*
X130945238Y-66004761D01*
X130983333Y-65852380D01*
X131021428Y-65776190D01*
X131097619Y-65700000D01*
X131211904Y-65661904D01*
X131288095Y-65661904D01*
X131402380Y-65700000D01*
X131440476Y-65738095D01*
X132011904Y-65661904D02*
X132011904Y-66233333D01*
X131973809Y-66347619D01*
X131897619Y-66423809D01*
X131783333Y-66461904D01*
X131707142Y-66461904D01*
X132773809Y-66461904D02*
X132392857Y-66461904D01*
X132392857Y-65661904D01*
X133497619Y-66385714D02*
X133459523Y-66423809D01*
X133345238Y-66461904D01*
X133269047Y-66461904D01*
X133154761Y-66423809D01*
X133078571Y-66347619D01*
X133040476Y-66271428D01*
X133002380Y-66119047D01*
X133002380Y-66004761D01*
X133040476Y-65852380D01*
X133078571Y-65776190D01*
X133154761Y-65700000D01*
X133269047Y-65661904D01*
X133345238Y-65661904D01*
X133459523Y-65700000D01*
X133497619Y-65738095D01*
X134069047Y-65661904D02*
X134069047Y-66233333D01*
X134030952Y-66347619D01*
X133954761Y-66423809D01*
X133840476Y-66461904D01*
X133764285Y-66461904D01*
X134830952Y-66461904D02*
X134450000Y-66461904D01*
X134450000Y-65661904D01*
X135554761Y-66385714D02*
X135516666Y-66423809D01*
X135402380Y-66461904D01*
X135326190Y-66461904D01*
X135211904Y-66423809D01*
X135135714Y-66347619D01*
X135097619Y-66271428D01*
X135059523Y-66119047D01*
X135059523Y-66004761D01*
X135097619Y-65852380D01*
X135135714Y-65776190D01*
X135211904Y-65700000D01*
X135326190Y-65661904D01*
X135402380Y-65661904D01*
X135516666Y-65700000D01*
X135554761Y-65738095D01*
X136126190Y-65661904D02*
X136126190Y-66233333D01*
X136088095Y-66347619D01*
X136011904Y-66423809D01*
X135897619Y-66461904D01*
X135821428Y-66461904D01*
X136888095Y-66461904D02*
X136507142Y-66461904D01*
X136507142Y-65661904D01*
X137611904Y-66385714D02*
X137573809Y-66423809D01*
X137459523Y-66461904D01*
X137383333Y-66461904D01*
X137269047Y-66423809D01*
X137192857Y-66347619D01*
X137154761Y-66271428D01*
X137116666Y-66119047D01*
X137116666Y-66004761D01*
X137154761Y-65852380D01*
X137192857Y-65776190D01*
X137269047Y-65700000D01*
X137383333Y-65661904D01*
X137459523Y-65661904D01*
X137573809Y-65700000D01*
X137611904Y-65738095D01*
X132538095Y-94161904D02*
X132271428Y-93780952D01*
X132080952Y-94161904D02*
X132080952Y-93361904D01*
X132385714Y-93361904D01*
X132461904Y-93400000D01*
X132500000Y-93438095D01*
X132538095Y-93514285D01*
X132538095Y-93628571D01*
X132500000Y-93704761D01*
X132461904Y-93742857D01*
X132385714Y-93780952D01*
X132080952Y-93780952D01*
X132880952Y-93742857D02*
X133147619Y-93742857D01*
X133261904Y-94161904D02*
X132880952Y-94161904D01*
X132880952Y-93361904D01*
X133261904Y-93361904D01*
X133566666Y-94123809D02*
X133680952Y-94161904D01*
X133871428Y-94161904D01*
X133947619Y-94123809D01*
X133985714Y-94085714D01*
X134023809Y-94009523D01*
X134023809Y-93933333D01*
X133985714Y-93857142D01*
X133947619Y-93819047D01*
X133871428Y-93780952D01*
X133719047Y-93742857D01*
X133642857Y-93704761D01*
X133604761Y-93666666D01*
X133566666Y-93590476D01*
X133566666Y-93514285D01*
X133604761Y-93438095D01*
X133642857Y-93400000D01*
X133719047Y-93361904D01*
X133909523Y-93361904D01*
X134023809Y-93400000D01*
X134366666Y-93742857D02*
X134633333Y-93742857D01*
X134747619Y-94161904D02*
X134366666Y-94161904D01*
X134366666Y-93361904D01*
X134747619Y-93361904D01*
X134976190Y-93361904D02*
X135433333Y-93361904D01*
X135204761Y-94161904D02*
X135204761Y-93361904D01*
X123664285Y-96478571D02*
X123626190Y-96440476D01*
X123588095Y-96326190D01*
X123588095Y-96250000D01*
X123626190Y-96135714D01*
X123702380Y-96059523D01*
X123778571Y-96021428D01*
X123930952Y-95983333D01*
X124045238Y-95983333D01*
X124197619Y-96021428D01*
X124273809Y-96059523D01*
X124350000Y-96135714D01*
X124388095Y-96250000D01*
X124388095Y-96326190D01*
X124350000Y-96440476D01*
X124311904Y-96478571D01*
X123588095Y-96821428D02*
X124388095Y-96821428D01*
X124007142Y-96821428D02*
X124007142Y-97278571D01*
X123588095Y-97278571D02*
X124388095Y-97278571D01*
X124350000Y-98078571D02*
X124388095Y-98002380D01*
X124388095Y-97888095D01*
X124350000Y-97773809D01*
X124273809Y-97697619D01*
X124197619Y-97659523D01*
X124045238Y-97621428D01*
X123930952Y-97621428D01*
X123778571Y-97659523D01*
X123702380Y-97697619D01*
X123626190Y-97773809D01*
X123588095Y-97888095D01*
X123588095Y-97964285D01*
X123626190Y-98078571D01*
X123664285Y-98116666D01*
X123930952Y-98116666D01*
X123930952Y-97964285D01*
X125900000Y-92711904D02*
X125900000Y-91911904D01*
X126433333Y-91911904D02*
X126585714Y-91911904D01*
X126661904Y-91950000D01*
X126738095Y-92026190D01*
X126776190Y-92178571D01*
X126776190Y-92445238D01*
X126738095Y-92597619D01*
X126661904Y-92673809D01*
X126585714Y-92711904D01*
X126433333Y-92711904D01*
X126357142Y-92673809D01*
X126280952Y-92597619D01*
X126242857Y-92445238D01*
X126242857Y-92178571D01*
X126280952Y-92026190D01*
X126357142Y-91950000D01*
X126433333Y-91911904D01*
X127080952Y-91988095D02*
X127119047Y-91950000D01*
X127195238Y-91911904D01*
X127385714Y-91911904D01*
X127461904Y-91950000D01*
X127500000Y-91988095D01*
X127538095Y-92064285D01*
X127538095Y-92140476D01*
X127500000Y-92254761D01*
X127042857Y-92711904D01*
X127538095Y-92711904D01*
X144087904Y-69735619D02*
X144087904Y-69240380D01*
X144392666Y-69507047D01*
X144392666Y-69392761D01*
X144430761Y-69316571D01*
X144468857Y-69278476D01*
X144545047Y-69240380D01*
X144735523Y-69240380D01*
X144811714Y-69278476D01*
X144849809Y-69316571D01*
X144887904Y-69392761D01*
X144887904Y-69621333D01*
X144849809Y-69697523D01*
X144811714Y-69735619D01*
X144087904Y-68554666D02*
X144087904Y-68707047D01*
X144126000Y-68783238D01*
X144164095Y-68821333D01*
X144278380Y-68897523D01*
X144430761Y-68935619D01*
X144735523Y-68935619D01*
X144811714Y-68897523D01*
X144849809Y-68859428D01*
X144887904Y-68783238D01*
X144887904Y-68630857D01*
X144849809Y-68554666D01*
X144811714Y-68516571D01*
X144735523Y-68478476D01*
X144545047Y-68478476D01*
X144468857Y-68516571D01*
X144430761Y-68554666D01*
X144392666Y-68630857D01*
X144392666Y-68783238D01*
X144430761Y-68859428D01*
X144468857Y-68897523D01*
X144545047Y-68935619D01*
X144087904Y-72275619D02*
X144087904Y-71780380D01*
X144392666Y-72047047D01*
X144392666Y-71932761D01*
X144430761Y-71856571D01*
X144468857Y-71818476D01*
X144545047Y-71780380D01*
X144735523Y-71780380D01*
X144811714Y-71818476D01*
X144849809Y-71856571D01*
X144887904Y-71932761D01*
X144887904Y-72161333D01*
X144849809Y-72237523D01*
X144811714Y-72275619D01*
X144887904Y-71399428D02*
X144887904Y-71247047D01*
X144849809Y-71170857D01*
X144811714Y-71132761D01*
X144697428Y-71056571D01*
X144545047Y-71018476D01*
X144240285Y-71018476D01*
X144164095Y-71056571D01*
X144126000Y-71094666D01*
X144087904Y-71170857D01*
X144087904Y-71323238D01*
X144126000Y-71399428D01*
X144164095Y-71437523D01*
X144240285Y-71475619D01*
X144430761Y-71475619D01*
X144506952Y-71437523D01*
X144545047Y-71399428D01*
X144583142Y-71323238D01*
X144583142Y-71170857D01*
X144545047Y-71094666D01*
X144506952Y-71056571D01*
X144430761Y-71018476D01*
X144087904Y-74815619D02*
X144087904Y-74320380D01*
X144392666Y-74587047D01*
X144392666Y-74472761D01*
X144430761Y-74396571D01*
X144468857Y-74358476D01*
X144545047Y-74320380D01*
X144735523Y-74320380D01*
X144811714Y-74358476D01*
X144849809Y-74396571D01*
X144887904Y-74472761D01*
X144887904Y-74701333D01*
X144849809Y-74777523D01*
X144811714Y-74815619D01*
X144354571Y-73634666D02*
X144887904Y-73634666D01*
X144049809Y-73825142D02*
X144621238Y-74015619D01*
X144621238Y-73520380D01*
X144087904Y-77355619D02*
X144087904Y-76860380D01*
X144392666Y-77127047D01*
X144392666Y-77012761D01*
X144430761Y-76936571D01*
X144468857Y-76898476D01*
X144545047Y-76860380D01*
X144735523Y-76860380D01*
X144811714Y-76898476D01*
X144849809Y-76936571D01*
X144887904Y-77012761D01*
X144887904Y-77241333D01*
X144849809Y-77317523D01*
X144811714Y-77355619D01*
X144087904Y-76136571D02*
X144087904Y-76517523D01*
X144468857Y-76555619D01*
X144430761Y-76517523D01*
X144392666Y-76441333D01*
X144392666Y-76250857D01*
X144430761Y-76174666D01*
X144468857Y-76136571D01*
X144545047Y-76098476D01*
X144735523Y-76098476D01*
X144811714Y-76136571D01*
X144849809Y-76174666D01*
X144887904Y-76250857D01*
X144887904Y-76441333D01*
X144849809Y-76517523D01*
X144811714Y-76555619D01*
X144887904Y-79400380D02*
X144887904Y-79857523D01*
X144887904Y-79628952D02*
X144087904Y-79628952D01*
X144202190Y-79705142D01*
X144278380Y-79781333D01*
X144316476Y-79857523D01*
X144087904Y-78676571D02*
X144087904Y-79057523D01*
X144468857Y-79095619D01*
X144430761Y-79057523D01*
X144392666Y-78981333D01*
X144392666Y-78790857D01*
X144430761Y-78714666D01*
X144468857Y-78676571D01*
X144545047Y-78638476D01*
X144735523Y-78638476D01*
X144811714Y-78676571D01*
X144849809Y-78714666D01*
X144887904Y-78790857D01*
X144887904Y-78981333D01*
X144849809Y-79057523D01*
X144811714Y-79095619D01*
X144087904Y-84366095D02*
X144087904Y-84289904D01*
X144126000Y-84213714D01*
X144164095Y-84175619D01*
X144240285Y-84137523D01*
X144392666Y-84099428D01*
X144583142Y-84099428D01*
X144735523Y-84137523D01*
X144811714Y-84175619D01*
X144849809Y-84213714D01*
X144887904Y-84289904D01*
X144887904Y-84366095D01*
X144849809Y-84442285D01*
X144811714Y-84480380D01*
X144735523Y-84518476D01*
X144583142Y-84556571D01*
X144392666Y-84556571D01*
X144240285Y-84518476D01*
X144164095Y-84480380D01*
X144126000Y-84442285D01*
X144087904Y-84366095D01*
X144887904Y-87020380D02*
X144887904Y-87477523D01*
X144887904Y-87248952D02*
X144087904Y-87248952D01*
X144202190Y-87325142D01*
X144278380Y-87401333D01*
X144316476Y-87477523D01*
X144430761Y-86563238D02*
X144392666Y-86639428D01*
X144354571Y-86677523D01*
X144278380Y-86715619D01*
X144240285Y-86715619D01*
X144164095Y-86677523D01*
X144126000Y-86639428D01*
X144087904Y-86563238D01*
X144087904Y-86410857D01*
X144126000Y-86334666D01*
X144164095Y-86296571D01*
X144240285Y-86258476D01*
X144278380Y-86258476D01*
X144354571Y-86296571D01*
X144392666Y-86334666D01*
X144430761Y-86410857D01*
X144430761Y-86563238D01*
X144468857Y-86639428D01*
X144506952Y-86677523D01*
X144583142Y-86715619D01*
X144735523Y-86715619D01*
X144811714Y-86677523D01*
X144849809Y-86639428D01*
X144887904Y-86563238D01*
X144887904Y-86410857D01*
X144849809Y-86334666D01*
X144811714Y-86296571D01*
X144735523Y-86258476D01*
X144583142Y-86258476D01*
X144506952Y-86296571D01*
X144468857Y-86334666D01*
X144430761Y-86410857D01*
X144164095Y-90017523D02*
X144126000Y-89979428D01*
X144087904Y-89903238D01*
X144087904Y-89712761D01*
X144126000Y-89636571D01*
X144164095Y-89598476D01*
X144240285Y-89560380D01*
X144316476Y-89560380D01*
X144430761Y-89598476D01*
X144887904Y-90055619D01*
X144887904Y-89560380D01*
X144087904Y-89293714D02*
X144087904Y-88798476D01*
X144392666Y-89065142D01*
X144392666Y-88950857D01*
X144430761Y-88874666D01*
X144468857Y-88836571D01*
X144545047Y-88798476D01*
X144735523Y-88798476D01*
X144811714Y-88836571D01*
X144849809Y-88874666D01*
X144887904Y-88950857D01*
X144887904Y-89179428D01*
X144849809Y-89255619D01*
X144811714Y-89293714D01*
X144887904Y-92100380D02*
X144887904Y-92557523D01*
X144887904Y-92328952D02*
X144087904Y-92328952D01*
X144202190Y-92405142D01*
X144278380Y-92481333D01*
X144316476Y-92557523D01*
X144887904Y-91719428D02*
X144887904Y-91567047D01*
X144849809Y-91490857D01*
X144811714Y-91452761D01*
X144697428Y-91376571D01*
X144545047Y-91338476D01*
X144240285Y-91338476D01*
X144164095Y-91376571D01*
X144126000Y-91414666D01*
X144087904Y-91490857D01*
X144087904Y-91643238D01*
X144126000Y-91719428D01*
X144164095Y-91757523D01*
X144240285Y-91795619D01*
X144430761Y-91795619D01*
X144506952Y-91757523D01*
X144545047Y-91719428D01*
X144583142Y-91643238D01*
X144583142Y-91490857D01*
X144545047Y-91414666D01*
X144506952Y-91376571D01*
X144430761Y-91338476D01*
X144164095Y-95097523D02*
X144126000Y-95059428D01*
X144087904Y-94983238D01*
X144087904Y-94792761D01*
X144126000Y-94716571D01*
X144164095Y-94678476D01*
X144240285Y-94640380D01*
X144316476Y-94640380D01*
X144430761Y-94678476D01*
X144887904Y-95135619D01*
X144887904Y-94640380D01*
X144887904Y-93878476D02*
X144887904Y-94335619D01*
X144887904Y-94107047D02*
X144087904Y-94107047D01*
X144202190Y-94183238D01*
X144278380Y-94259428D01*
X144316476Y-94335619D01*
X144164095Y-97637523D02*
X144126000Y-97599428D01*
X144087904Y-97523238D01*
X144087904Y-97332761D01*
X144126000Y-97256571D01*
X144164095Y-97218476D01*
X144240285Y-97180380D01*
X144316476Y-97180380D01*
X144430761Y-97218476D01*
X144887904Y-97675619D01*
X144887904Y-97180380D01*
X144164095Y-96875619D02*
X144126000Y-96837523D01*
X144087904Y-96761333D01*
X144087904Y-96570857D01*
X144126000Y-96494666D01*
X144164095Y-96456571D01*
X144240285Y-96418476D01*
X144316476Y-96418476D01*
X144430761Y-96456571D01*
X144887904Y-96913714D01*
X144887904Y-96418476D01*
X144887904Y-99720380D02*
X144887904Y-100177523D01*
X144887904Y-99948952D02*
X144087904Y-99948952D01*
X144202190Y-100025142D01*
X144278380Y-100101333D01*
X144316476Y-100177523D01*
X144354571Y-99034666D02*
X144887904Y-99034666D01*
X144049809Y-99225142D02*
X144621238Y-99415619D01*
X144621238Y-98920380D01*
X144887904Y-102260380D02*
X144887904Y-102717523D01*
X144887904Y-102488952D02*
X144087904Y-102488952D01*
X144202190Y-102565142D01*
X144278380Y-102641333D01*
X144316476Y-102717523D01*
X144164095Y-101955619D02*
X144126000Y-101917523D01*
X144087904Y-101841333D01*
X144087904Y-101650857D01*
X144126000Y-101574666D01*
X144164095Y-101536571D01*
X144240285Y-101498476D01*
X144316476Y-101498476D01*
X144430761Y-101536571D01*
X144887904Y-101993714D01*
X144887904Y-101498476D01*
X144354571Y-104495619D02*
X144887904Y-104495619D01*
X144049809Y-104686095D02*
X144621238Y-104876571D01*
X144621238Y-104381333D01*
X144887904Y-107340380D02*
X144887904Y-107797523D01*
X144887904Y-107568952D02*
X144087904Y-107568952D01*
X144202190Y-107645142D01*
X144278380Y-107721333D01*
X144316476Y-107797523D01*
X144087904Y-106654666D02*
X144087904Y-106807047D01*
X144126000Y-106883238D01*
X144164095Y-106921333D01*
X144278380Y-106997523D01*
X144430761Y-107035619D01*
X144735523Y-107035619D01*
X144811714Y-106997523D01*
X144849809Y-106959428D01*
X144887904Y-106883238D01*
X144887904Y-106730857D01*
X144849809Y-106654666D01*
X144811714Y-106616571D01*
X144735523Y-106578476D01*
X144545047Y-106578476D01*
X144468857Y-106616571D01*
X144430761Y-106654666D01*
X144392666Y-106730857D01*
X144392666Y-106883238D01*
X144430761Y-106959428D01*
X144468857Y-106997523D01*
X144545047Y-107035619D01*
X144887904Y-109880380D02*
X144887904Y-110337523D01*
X144887904Y-110108952D02*
X144087904Y-110108952D01*
X144202190Y-110185142D01*
X144278380Y-110261333D01*
X144316476Y-110337523D01*
X144087904Y-109613714D02*
X144087904Y-109080380D01*
X144887904Y-109423238D01*
X144887904Y-112706095D02*
X144506952Y-112972761D01*
X144887904Y-113163238D02*
X144087904Y-113163238D01*
X144087904Y-112858476D01*
X144126000Y-112782285D01*
X144164095Y-112744190D01*
X144240285Y-112706095D01*
X144354571Y-112706095D01*
X144430761Y-112744190D01*
X144468857Y-112782285D01*
X144506952Y-112858476D01*
X144506952Y-113163238D01*
X144849809Y-112401333D02*
X144887904Y-112287047D01*
X144887904Y-112096571D01*
X144849809Y-112020380D01*
X144811714Y-111982285D01*
X144735523Y-111944190D01*
X144659333Y-111944190D01*
X144583142Y-111982285D01*
X144545047Y-112020380D01*
X144506952Y-112096571D01*
X144468857Y-112248952D01*
X144430761Y-112325142D01*
X144392666Y-112363238D01*
X144316476Y-112401333D01*
X144240285Y-112401333D01*
X144164095Y-112363238D01*
X144126000Y-112325142D01*
X144087904Y-112248952D01*
X144087904Y-112058476D01*
X144126000Y-111944190D01*
X144087904Y-111715619D02*
X144087904Y-111258476D01*
X144887904Y-111487047D02*
X144087904Y-111487047D01*
X123338095Y-112115619D02*
X123338095Y-111734666D01*
X122957142Y-111696571D01*
X122995238Y-111734666D01*
X123033333Y-111810857D01*
X123033333Y-112001333D01*
X122995238Y-112077523D01*
X122957142Y-112115619D01*
X122880952Y-112153714D01*
X122690476Y-112153714D01*
X122614285Y-112115619D01*
X122576190Y-112077523D01*
X122538095Y-112001333D01*
X122538095Y-111810857D01*
X122576190Y-111734666D01*
X122614285Y-111696571D01*
X123338095Y-112382285D02*
X122538095Y-112648952D01*
X123338095Y-112915619D01*
X123338095Y-108737523D02*
X123338095Y-109232761D01*
X123033333Y-108966095D01*
X123033333Y-109080380D01*
X122995238Y-109156571D01*
X122957142Y-109194666D01*
X122880952Y-109232761D01*
X122690476Y-109232761D01*
X122614285Y-109194666D01*
X122576190Y-109156571D01*
X122538095Y-109080380D01*
X122538095Y-108851809D01*
X122576190Y-108775619D01*
X122614285Y-108737523D01*
X123338095Y-109461333D02*
X122538095Y-109728000D01*
X123338095Y-109994666D01*
X123338095Y-110185142D02*
X123338095Y-110680380D01*
X123033333Y-110413714D01*
X123033333Y-110528000D01*
X122995238Y-110604190D01*
X122957142Y-110642285D01*
X122880952Y-110680380D01*
X122690476Y-110680380D01*
X122614285Y-110642285D01*
X122576190Y-110604190D01*
X122538095Y-110528000D01*
X122538095Y-110299428D01*
X122576190Y-110223238D01*
X122614285Y-110185142D01*
X123300000Y-103940476D02*
X123338095Y-103864285D01*
X123338095Y-103750000D01*
X123300000Y-103635714D01*
X123223809Y-103559523D01*
X123147619Y-103521428D01*
X122995238Y-103483333D01*
X122880952Y-103483333D01*
X122728571Y-103521428D01*
X122652380Y-103559523D01*
X122576190Y-103635714D01*
X122538095Y-103750000D01*
X122538095Y-103826190D01*
X122576190Y-103940476D01*
X122614285Y-103978571D01*
X122880952Y-103978571D01*
X122880952Y-103826190D01*
X122538095Y-104321428D02*
X123338095Y-104321428D01*
X122538095Y-104778571D01*
X123338095Y-104778571D01*
X122538095Y-105159523D02*
X123338095Y-105159523D01*
X123338095Y-105350000D01*
X123300000Y-105464285D01*
X123223809Y-105540476D01*
X123147619Y-105578571D01*
X122995238Y-105616666D01*
X122880952Y-105616666D01*
X122728571Y-105578571D01*
X122652380Y-105540476D01*
X122576190Y-105464285D01*
X122538095Y-105350000D01*
X122538095Y-105159523D01*
X122957142Y-101459523D02*
X122919047Y-101573809D01*
X122880952Y-101611904D01*
X122804761Y-101650000D01*
X122690476Y-101650000D01*
X122614285Y-101611904D01*
X122576190Y-101573809D01*
X122538095Y-101497619D01*
X122538095Y-101192857D01*
X123338095Y-101192857D01*
X123338095Y-101459523D01*
X123300000Y-101535714D01*
X123261904Y-101573809D01*
X123185714Y-101611904D01*
X123109523Y-101611904D01*
X123033333Y-101573809D01*
X122995238Y-101535714D01*
X122957142Y-101459523D01*
X122957142Y-101192857D01*
X122766666Y-101954761D02*
X122766666Y-102335714D01*
X122538095Y-101878571D02*
X123338095Y-102145238D01*
X122538095Y-102411904D01*
X123338095Y-102564285D02*
X123338095Y-103021428D01*
X122538095Y-102792857D02*
X123338095Y-102792857D01*
X122957142Y-98959523D02*
X122957142Y-99226190D01*
X122538095Y-99340476D02*
X122538095Y-98959523D01*
X123338095Y-98959523D01*
X123338095Y-99340476D01*
X122538095Y-99683333D02*
X123338095Y-99683333D01*
X122538095Y-100140476D01*
X123338095Y-100140476D01*
X123338095Y-89590476D02*
X123338095Y-89209523D01*
X122957142Y-89171428D01*
X122995238Y-89209523D01*
X123033333Y-89285714D01*
X123033333Y-89476190D01*
X122995238Y-89552380D01*
X122957142Y-89590476D01*
X122880952Y-89628571D01*
X122690476Y-89628571D01*
X122614285Y-89590476D01*
X122576190Y-89552380D01*
X122538095Y-89476190D01*
X122538095Y-89285714D01*
X122576190Y-89209523D01*
X122614285Y-89171428D01*
X122538095Y-86588619D02*
X122538095Y-86131476D01*
X122538095Y-86360047D02*
X123338095Y-86360047D01*
X123223809Y-86283857D01*
X123147619Y-86207666D01*
X123109523Y-86131476D01*
X123338095Y-86855285D02*
X123338095Y-87350523D01*
X123033333Y-87083857D01*
X123033333Y-87198142D01*
X122995238Y-87274333D01*
X122957142Y-87312428D01*
X122880952Y-87350523D01*
X122690476Y-87350523D01*
X122614285Y-87312428D01*
X122576190Y-87274333D01*
X122538095Y-87198142D01*
X122538095Y-86969571D01*
X122576190Y-86893380D01*
X122614285Y-86855285D01*
X123338095Y-84061380D02*
X123338095Y-84556619D01*
X123033333Y-84289952D01*
X123033333Y-84404238D01*
X122995238Y-84480428D01*
X122957142Y-84518523D01*
X122880952Y-84556619D01*
X122690476Y-84556619D01*
X122614285Y-84518523D01*
X122576190Y-84480428D01*
X122538095Y-84404238D01*
X122538095Y-84175666D01*
X122576190Y-84099476D01*
X122614285Y-84061380D01*
X123338095Y-84823285D02*
X123338095Y-85318523D01*
X123033333Y-85051857D01*
X123033333Y-85166142D01*
X122995238Y-85242333D01*
X122957142Y-85280428D01*
X122880952Y-85318523D01*
X122690476Y-85318523D01*
X122614285Y-85280428D01*
X122576190Y-85242333D01*
X122538095Y-85166142D01*
X122538095Y-84937571D01*
X122576190Y-84861380D01*
X122614285Y-84823285D01*
X123338095Y-81140380D02*
X123338095Y-81635619D01*
X123033333Y-81368952D01*
X123033333Y-81483238D01*
X122995238Y-81559428D01*
X122957142Y-81597523D01*
X122880952Y-81635619D01*
X122690476Y-81635619D01*
X122614285Y-81597523D01*
X122576190Y-81559428D01*
X122538095Y-81483238D01*
X122538095Y-81254666D01*
X122576190Y-81178476D01*
X122614285Y-81140380D01*
X123261904Y-81940380D02*
X123300000Y-81978476D01*
X123338095Y-82054666D01*
X123338095Y-82245142D01*
X123300000Y-82321333D01*
X123261904Y-82359428D01*
X123185714Y-82397523D01*
X123109523Y-82397523D01*
X122995238Y-82359428D01*
X122538095Y-81902285D01*
X122538095Y-82397523D01*
X123261904Y-78638476D02*
X123300000Y-78676571D01*
X123338095Y-78752761D01*
X123338095Y-78943238D01*
X123300000Y-79019428D01*
X123261904Y-79057523D01*
X123185714Y-79095619D01*
X123109523Y-79095619D01*
X122995238Y-79057523D01*
X122538095Y-78600380D01*
X122538095Y-79095619D01*
X123338095Y-79362285D02*
X123338095Y-79895619D01*
X122538095Y-79552761D01*
X123261904Y-76090476D02*
X123300000Y-76128571D01*
X123338095Y-76204761D01*
X123338095Y-76395238D01*
X123300000Y-76471428D01*
X123261904Y-76509523D01*
X123185714Y-76547619D01*
X123109523Y-76547619D01*
X122995238Y-76509523D01*
X122538095Y-76052380D01*
X122538095Y-76547619D01*
X123338095Y-77233333D02*
X123338095Y-77080952D01*
X123300000Y-77004761D01*
X123261904Y-76966666D01*
X123147619Y-76890476D01*
X122995238Y-76852380D01*
X122690476Y-76852380D01*
X122614285Y-76890476D01*
X122576190Y-76928571D01*
X122538095Y-77004761D01*
X122538095Y-77157142D01*
X122576190Y-77233333D01*
X122614285Y-77271428D01*
X122690476Y-77309523D01*
X122880952Y-77309523D01*
X122957142Y-77271428D01*
X122995238Y-77233333D01*
X123033333Y-77157142D01*
X123033333Y-77004761D01*
X122995238Y-76928571D01*
X122957142Y-76890476D01*
X122880952Y-76852380D01*
X123261904Y-73558476D02*
X123300000Y-73596571D01*
X123338095Y-73672761D01*
X123338095Y-73863238D01*
X123300000Y-73939428D01*
X123261904Y-73977523D01*
X123185714Y-74015619D01*
X123109523Y-74015619D01*
X122995238Y-73977523D01*
X122538095Y-73520380D01*
X122538095Y-74015619D01*
X123338095Y-74739428D02*
X123338095Y-74358476D01*
X122957142Y-74320380D01*
X122995238Y-74358476D01*
X123033333Y-74434666D01*
X123033333Y-74625142D01*
X122995238Y-74701333D01*
X122957142Y-74739428D01*
X122880952Y-74777523D01*
X122690476Y-74777523D01*
X122614285Y-74739428D01*
X122576190Y-74701333D01*
X122538095Y-74625142D01*
X122538095Y-74434666D01*
X122576190Y-74358476D01*
X122614285Y-74320380D01*
X123338095Y-70590476D02*
X123338095Y-71047619D01*
X122538095Y-70819047D02*
X123338095Y-70819047D01*
X123338095Y-71238095D02*
X122538095Y-71771428D01*
X123338095Y-71771428D02*
X122538095Y-71238095D01*
X122538095Y-72076190D02*
X123338095Y-72076190D01*
X123338095Y-72266666D01*
X123300000Y-72380952D01*
X123223809Y-72457142D01*
X123147619Y-72495238D01*
X122995238Y-72533333D01*
X122880952Y-72533333D01*
X122728571Y-72495238D01*
X122652380Y-72457142D01*
X122576190Y-72380952D01*
X122538095Y-72266666D01*
X122538095Y-72076190D01*
X122538095Y-68554666D02*
X122919047Y-68288000D01*
X122538095Y-68097523D02*
X123338095Y-68097523D01*
X123338095Y-68402285D01*
X123300000Y-68478476D01*
X123261904Y-68516571D01*
X123185714Y-68554666D01*
X123071428Y-68554666D01*
X122995238Y-68516571D01*
X122957142Y-68478476D01*
X122919047Y-68402285D01*
X122919047Y-68097523D01*
X123338095Y-68821333D02*
X122538095Y-69354666D01*
X123338095Y-69354666D02*
X122538095Y-68821333D01*
X122538095Y-69659428D02*
X123338095Y-69659428D01*
X123338095Y-69849904D01*
X123300000Y-69964190D01*
X123223809Y-70040380D01*
X123147619Y-70078476D01*
X122995238Y-70116571D01*
X122880952Y-70116571D01*
X122728571Y-70078476D01*
X122652380Y-70040380D01*
X122576190Y-69964190D01*
X122538095Y-69849904D01*
X122538095Y-69659428D01*
D11*
G36*
X148336000Y-119634000D02*
G01*
X143510000Y-119634000D01*
X143510000Y-114808000D01*
X148336000Y-114808000D01*
X148336000Y-119634000D01*
G37*
X148336000Y-119634000D02*
X143510000Y-119634000D01*
X143510000Y-114808000D01*
X148336000Y-114808000D01*
X148336000Y-119634000D01*
D12*
%TO.C,R3*%
X127690000Y-92246359D02*
X127690000Y-92553641D01*
X128450000Y-92246359D02*
X128450000Y-92553641D01*
%TO.C,C3*%
X128907836Y-89140000D02*
X128692164Y-89140000D01*
X128907836Y-89860000D02*
X128692164Y-89860000D01*
%TO.C,U1*%
X124580000Y-86600000D02*
X124580000Y-87380000D01*
X124580000Y-87380000D02*
X125580000Y-87380000D01*
X142820000Y-86600000D02*
X142820000Y-87380000D01*
X142820000Y-87380000D02*
X141820000Y-87380000D01*
X124580000Y-61635000D02*
X142820000Y-61635000D01*
X142820000Y-61635000D02*
X142820000Y-68055000D01*
X124580000Y-61635000D02*
X124580000Y-68055000D01*
X124580000Y-68055000D02*
X124200000Y-68055000D01*
D13*
%TO.C,J2*%
X134005000Y-119448000D02*
X134005000Y-120254000D01*
X134005000Y-114514000D02*
X134005000Y-116959000D01*
X142005000Y-119448000D02*
X142005000Y-120274000D01*
X142005000Y-114524000D02*
X142005000Y-116959000D01*
X139751000Y-114514000D02*
X142005000Y-114514000D01*
X134005000Y-114514000D02*
X136238000Y-114514000D01*
X142005000Y-120274000D02*
X134005000Y-120274000D01*
X141395000Y-119564000D02*
X134625000Y-119564000D01*
X141985000Y-120154000D02*
X141395000Y-119564000D01*
X141985000Y-120274000D02*
X141985000Y-120154000D01*
X134035000Y-120154000D02*
X134625000Y-119564000D01*
X134035000Y-120254000D02*
X134035000Y-120154000D01*
D12*
%TO.C,C1*%
X126959420Y-94910000D02*
X127240580Y-94910000D01*
X126959420Y-93890000D02*
X127240580Y-93890000D01*
%TO.C,C2*%
X129400000Y-92272164D02*
X129400000Y-92487836D01*
X128680000Y-92272164D02*
X128680000Y-92487836D01*
%TO.C,C4*%
X126011252Y-89735000D02*
X125488748Y-89735000D01*
X126011252Y-88265000D02*
X125488748Y-88265000D01*
%TO.C,C5*%
X124790000Y-101190580D02*
X124790000Y-100909420D01*
X125810000Y-101190580D02*
X125810000Y-100909420D01*
%TO.C,C6*%
X123810000Y-88092164D02*
X123810000Y-88307836D01*
X123090000Y-88092164D02*
X123090000Y-88307836D01*
%TO.C,C7*%
X138537836Y-93366000D02*
X138322164Y-93366000D01*
X138537836Y-94086000D02*
X138322164Y-94086000D01*
%TO.C,C8*%
X136505836Y-94086000D02*
X136290164Y-94086000D01*
X136505836Y-93366000D02*
X136290164Y-93366000D01*
%TO.C,C9*%
X136127836Y-108960000D02*
X135912164Y-108960000D01*
X136127836Y-108240000D02*
X135912164Y-108240000D01*
%TO.C,C10*%
X136127836Y-109190000D02*
X135912164Y-109190000D01*
X136127836Y-109910000D02*
X135912164Y-109910000D01*
%TO.C,D1*%
X133200000Y-103950000D02*
X131200000Y-103950000D01*
X131200000Y-103950000D02*
X131200000Y-107850000D01*
X133200000Y-103950000D02*
X133200000Y-107850000D01*
%TO.C,D2*%
X126035000Y-98535000D02*
X126035000Y-96250000D01*
X124565000Y-98535000D02*
X126035000Y-98535000D01*
X124565000Y-96250000D02*
X124565000Y-98535000D01*
%TO.C,D3*%
X122975000Y-92960000D02*
X125260000Y-92960000D01*
X122975000Y-91490000D02*
X122975000Y-92960000D01*
X125260000Y-91490000D02*
X122975000Y-91490000D01*
%TO.C,FB1*%
X134700378Y-111840000D02*
X135499622Y-111840000D01*
X134700378Y-112960000D02*
X135499622Y-112960000D01*
%TO.C,J1*%
X124515000Y-119360000D02*
X124515000Y-118510000D01*
X132685000Y-119360000D02*
X124515000Y-119360000D01*
X132685000Y-118510000D02*
X132685000Y-119360000D01*
X124515000Y-114140000D02*
X126840000Y-114140000D01*
X124515000Y-114990000D02*
X124515000Y-114140000D01*
X130360000Y-114140000D02*
X130360000Y-111750000D01*
X132685000Y-114140000D02*
X130360000Y-114140000D01*
X132685000Y-114990000D02*
X132685000Y-114140000D01*
%TO.C,Q1*%
X131670000Y-102760000D02*
X132600000Y-102760000D01*
X134830000Y-102760000D02*
X133900000Y-102760000D01*
X134830000Y-102760000D02*
X134830000Y-100600000D01*
X131670000Y-102760000D02*
X131670000Y-101300000D01*
%TO.C,Q4*%
X136880000Y-89615000D02*
X136880000Y-91075000D01*
X133720000Y-89615000D02*
X133720000Y-91775000D01*
X133720000Y-89615000D02*
X134650000Y-89615000D01*
X136880000Y-89615000D02*
X135950000Y-89615000D01*
%TO.C,R1*%
X135846359Y-111280000D02*
X136153641Y-111280000D01*
X135846359Y-110520000D02*
X136153641Y-110520000D01*
%TO.C,R2*%
X131472936Y-110910000D02*
X132927064Y-110910000D01*
X131472936Y-109090000D02*
X132927064Y-109090000D01*
%TO.C,R4*%
X123227500Y-100737258D02*
X123227500Y-100262742D01*
X124272500Y-100737258D02*
X124272500Y-100262742D01*
%TO.C,R5*%
X124480000Y-94503641D02*
X124480000Y-94196359D01*
X123720000Y-94503641D02*
X123720000Y-94196359D01*
%TO.C,R6*%
X124720000Y-94196359D02*
X124720000Y-94503641D01*
X125480000Y-94196359D02*
X125480000Y-94503641D01*
%TO.C,R7*%
X140676359Y-92320000D02*
X140983641Y-92320000D01*
X140676359Y-93080000D02*
X140983641Y-93080000D01*
%TO.C,R8*%
X142899641Y-93090000D02*
X142592359Y-93090000D01*
X142899641Y-92330000D02*
X142592359Y-92330000D01*
%TO.C,R10*%
X140615641Y-93346000D02*
X140308359Y-93346000D01*
X140615641Y-94106000D02*
X140308359Y-94106000D01*
%TO.C,R11*%
X124212742Y-90227500D02*
X124687258Y-90227500D01*
X124212742Y-91272500D02*
X124687258Y-91272500D01*
%TO.C,R14*%
X134561359Y-92295000D02*
X134868641Y-92295000D01*
X134561359Y-93055000D02*
X134868641Y-93055000D01*
%TO.C,SW1*%
X138950000Y-94982000D02*
X138500000Y-94532000D01*
X135550000Y-94982000D02*
X136000000Y-94532000D01*
X135550000Y-99582000D02*
X136000000Y-100032000D01*
X138950000Y-99582000D02*
X138500000Y-100032000D01*
X134500000Y-98282000D02*
X134500000Y-96282000D01*
X138500000Y-94532000D02*
X136000000Y-94532000D01*
X140000000Y-98282000D02*
X140000000Y-96282000D01*
X138500000Y-100032000D02*
X136000000Y-100032000D01*
%TO.C,U2*%
X133110000Y-91630000D02*
X133110000Y-89870000D01*
X130040000Y-89870000D02*
X130040000Y-92300000D01*
%TO.C,U3*%
X131360000Y-98850000D02*
X131360000Y-95400000D01*
X131360000Y-98850000D02*
X131360000Y-100800000D01*
X126240000Y-98850000D02*
X126240000Y-96900000D01*
X126240000Y-98850000D02*
X126240000Y-100800000D01*
%TO.C,U4*%
X140700000Y-110760000D02*
X142650000Y-110760000D01*
X140700000Y-110760000D02*
X138750000Y-110760000D01*
X140700000Y-100640000D02*
X142650000Y-100640000D01*
X140700000Y-100640000D02*
X137250000Y-100640000D01*
%TO.C,Y1*%
X133550000Y-108000000D02*
X136850000Y-108000000D01*
X136850000Y-108000000D02*
X136850000Y-104000000D01*
%TO.C,Q2*%
X140505001Y-89640000D02*
X139575001Y-89640000D01*
X137345001Y-89640000D02*
X138275001Y-89640000D01*
X137345001Y-89640000D02*
X137345001Y-91800000D01*
X140505001Y-89640000D02*
X140505001Y-91100000D01*
%TO.C,Q3*%
X144130000Y-89640000D02*
X144130000Y-91100000D01*
X140970000Y-89640000D02*
X140970000Y-91800000D01*
X140970000Y-89640000D02*
X141900000Y-89640000D01*
X144130000Y-89640000D02*
X143200000Y-89640000D01*
%TO.C,J5*%
X119670000Y-70330000D02*
X122330000Y-70330000D01*
X119670000Y-70330000D02*
X119670000Y-113570000D01*
X119670000Y-113570000D02*
X122330000Y-113570000D01*
X122330000Y-70330000D02*
X122330000Y-113570000D01*
X122330000Y-67730000D02*
X122330000Y-69060000D01*
X121000000Y-67730000D02*
X122330000Y-67730000D01*
%TO.C,J6*%
X146400000Y-67730000D02*
X147730000Y-67730000D01*
X147730000Y-67730000D02*
X147730000Y-69060000D01*
X147730000Y-70330000D02*
X147730000Y-113570000D01*
X145070000Y-113570000D02*
X147730000Y-113570000D01*
X145070000Y-70330000D02*
X145070000Y-113570000D01*
X145070000Y-70330000D02*
X147730000Y-70330000D01*
%TO.C,C11*%
X124427836Y-106440000D02*
X124212164Y-106440000D01*
X124427836Y-107160000D02*
X124212164Y-107160000D01*
%TO.C,Q5*%
X126830000Y-103590000D02*
X126830000Y-105050000D01*
X123670000Y-103590000D02*
X123670000Y-105750000D01*
X123670000Y-103590000D02*
X124600000Y-103590000D01*
X126830000Y-103590000D02*
X125900000Y-103590000D01*
%TO.C,Q6*%
X130430000Y-103990000D02*
X129500000Y-103990000D01*
X127270000Y-103990000D02*
X128200000Y-103990000D01*
X127270000Y-103990000D02*
X127270000Y-106150000D01*
X130430000Y-103990000D02*
X130430000Y-105450000D01*
%TO.C,R15*%
X128530000Y-110353641D02*
X128530000Y-110046359D01*
X127770000Y-110353641D02*
X127770000Y-110046359D01*
%TO.C,U5*%
X123690000Y-108350000D02*
X123690000Y-110800000D01*
X126910000Y-110150000D02*
X126910000Y-108350000D01*
%TO.C,R9*%
X132772500Y-97537258D02*
X132772500Y-97062742D01*
X131727500Y-97537258D02*
X131727500Y-97062742D01*
%TO.C,R12*%
X126016359Y-107190000D02*
X126323641Y-107190000D01*
X126016359Y-106430000D02*
X126323641Y-106430000D01*
%TO.C,J2*%
D10*
X137666666Y-117352380D02*
X137666666Y-118066666D01*
X137619047Y-118209523D01*
X137523809Y-118304761D01*
X137380952Y-118352380D01*
X137285714Y-118352380D01*
X138095238Y-117447619D02*
X138142857Y-117400000D01*
X138238095Y-117352380D01*
X138476190Y-117352380D01*
X138571428Y-117400000D01*
X138619047Y-117447619D01*
X138666666Y-117542857D01*
X138666666Y-117638095D01*
X138619047Y-117780952D01*
X138047619Y-118352380D01*
X138666666Y-118352380D01*
%TO.C,J1*%
X128266666Y-119902380D02*
X128266666Y-120616666D01*
X128219047Y-120759523D01*
X128123809Y-120854761D01*
X127980952Y-120902380D01*
X127885714Y-120902380D01*
X129266666Y-120902380D02*
X128695238Y-120902380D01*
X128980952Y-120902380D02*
X128980952Y-119902380D01*
X128885714Y-120045238D01*
X128790476Y-120140476D01*
X128695238Y-120188095D01*
%TO.C,R9*%
X131272380Y-97466666D02*
X130796190Y-97800000D01*
X131272380Y-98038095D02*
X130272380Y-98038095D01*
X130272380Y-97657142D01*
X130320000Y-97561904D01*
X130367619Y-97514285D01*
X130462857Y-97466666D01*
X130605714Y-97466666D01*
X130700952Y-97514285D01*
X130748571Y-97561904D01*
X130796190Y-97657142D01*
X130796190Y-98038095D01*
X131272380Y-96990476D02*
X131272380Y-96800000D01*
X131224761Y-96704761D01*
X131177142Y-96657142D01*
X131034285Y-96561904D01*
X130843809Y-96514285D01*
X130462857Y-96514285D01*
X130367619Y-96561904D01*
X130320000Y-96609523D01*
X130272380Y-96704761D01*
X130272380Y-96895238D01*
X130320000Y-96990476D01*
X130367619Y-97038095D01*
X130462857Y-97085714D01*
X130700952Y-97085714D01*
X130796190Y-97038095D01*
X130843809Y-96990476D01*
X130891428Y-96895238D01*
X130891428Y-96704761D01*
X130843809Y-96609523D01*
X130796190Y-96561904D01*
X130700952Y-96514285D01*
%TO.C,R12*%
X125527142Y-106092380D02*
X125193809Y-105616190D01*
X124955714Y-106092380D02*
X124955714Y-105092380D01*
X125336666Y-105092380D01*
X125431904Y-105140000D01*
X125479523Y-105187619D01*
X125527142Y-105282857D01*
X125527142Y-105425714D01*
X125479523Y-105520952D01*
X125431904Y-105568571D01*
X125336666Y-105616190D01*
X124955714Y-105616190D01*
X126479523Y-106092380D02*
X125908095Y-106092380D01*
X126193809Y-106092380D02*
X126193809Y-105092380D01*
X126098571Y-105235238D01*
X126003333Y-105330476D01*
X125908095Y-105378095D01*
X126860476Y-105187619D02*
X126908095Y-105140000D01*
X127003333Y-105092380D01*
X127241428Y-105092380D01*
X127336666Y-105140000D01*
X127384285Y-105187619D01*
X127431904Y-105282857D01*
X127431904Y-105378095D01*
X127384285Y-105520952D01*
X126812857Y-106092380D01*
X127431904Y-106092380D01*
%TD*%
M02*
