%TF.GenerationSoftware,KiCad,Pcbnew,(5.1.7-0-10_14)*%
%TF.CreationDate,2020-11-04T22:45:55+09:00*%
%TF.ProjectId,mini-esp32,6d696e69-2d65-4737-9033-322e6b696361,rev?*%
%TF.SameCoordinates,Original*%
%TF.FileFunction,Copper,L1,Top*%
%TF.FilePolarity,Positive*%
%FSLAX46Y46*%
G04 Gerber Fmt 4.6, Leading zero omitted, Abs format (unit mm)*
G04 Created by KiCad (PCBNEW (5.1.7-0-10_14)) date 2020-11-04 22:45:55*
%MOMM*%
%LPD*%
G01*
G04 APERTURE LIST*
%TA.AperFunction,SMDPad,CuDef*%
%ADD10R,5.000000X5.000000*%
%TD*%
%TA.AperFunction,SMDPad,CuDef*%
%ADD11R,2.000000X0.900000*%
%TD*%
%TA.AperFunction,SMDPad,CuDef*%
%ADD12R,0.900000X2.000000*%
%TD*%
%TA.AperFunction,SMDPad,CuDef*%
%ADD13R,0.400000X2.000000*%
%TD*%
%TA.AperFunction,SMDPad,CuDef*%
%ADD14R,1.600000X1.200000*%
%TD*%
%TA.AperFunction,ComponentPad*%
%ADD15O,1.300000X2.200000*%
%TD*%
%TA.AperFunction,ComponentPad*%
%ADD16C,1.200000*%
%TD*%
%TA.AperFunction,SMDPad,CuDef*%
%ADD17R,1.200000X0.900000*%
%TD*%
%TA.AperFunction,SMDPad,CuDef*%
%ADD18R,0.800000X0.900000*%
%TD*%
%TA.AperFunction,SMDPad,CuDef*%
%ADD19R,1.700000X1.000000*%
%TD*%
%TA.AperFunction,SMDPad,CuDef*%
%ADD20R,1.220000X0.650000*%
%TD*%
%TA.AperFunction,SMDPad,CuDef*%
%ADD21R,1.200000X1.400000*%
%TD*%
%TA.AperFunction,ComponentPad*%
%ADD22O,1.700000X1.700000*%
%TD*%
%TA.AperFunction,ComponentPad*%
%ADD23R,1.700000X1.700000*%
%TD*%
%TA.AperFunction,ViaPad*%
%ADD24C,1.600000*%
%TD*%
%TA.AperFunction,ViaPad*%
%ADD25C,0.800000*%
%TD*%
%TA.AperFunction,Conductor*%
%ADD26C,0.500000*%
%TD*%
%TA.AperFunction,Conductor*%
%ADD27C,0.300000*%
%TD*%
%TA.AperFunction,Conductor*%
%ADD28C,0.261112*%
%TD*%
G04 APERTURE END LIST*
D10*
%TO.P,U1,39*%
%TO.N,GND*%
X132700000Y-76745000D03*
D11*
%TO.P,U1,1*%
X125200000Y-69245000D03*
%TO.P,U1,2*%
%TO.N,VDD*%
X125200000Y-70515000D03*
%TO.P,U1,3*%
%TO.N,RESET*%
X125200000Y-71785000D03*
%TO.P,U1,4*%
%TO.N,I36*%
X125200000Y-73055000D03*
%TO.P,U1,5*%
%TO.N,I39*%
X125200000Y-74325000D03*
%TO.P,U1,6*%
%TO.N,I34*%
X125200000Y-75595000D03*
%TO.P,U1,7*%
%TO.N,I35*%
X125200000Y-76865000D03*
%TO.P,U1,8*%
%TO.N,IO32*%
X125200000Y-78135000D03*
%TO.P,U1,9*%
%TO.N,IO33*%
X125200000Y-79405000D03*
%TO.P,U1,10*%
%TO.N,IO25_DAC1*%
X125200000Y-80675000D03*
%TO.P,U1,11*%
%TO.N,IO26_DAC2*%
X125200000Y-81945000D03*
%TO.P,U1,12*%
%TO.N,IO27*%
X125200000Y-83215000D03*
%TO.P,U1,13*%
%TO.N,IO14*%
X125200000Y-84485000D03*
%TO.P,U1,14*%
%TO.N,IO12*%
X125200000Y-85755000D03*
D12*
%TO.P,U1,15*%
%TO.N,GND*%
X127985000Y-86755000D03*
%TO.P,U1,16*%
%TO.N,IO13*%
X129255000Y-86755000D03*
%TO.P,U1,17*%
%TO.N,Net-(U1-Pad17)*%
X130525000Y-86755000D03*
%TO.P,U1,18*%
%TO.N,Net-(U1-Pad18)*%
X131795000Y-86755000D03*
%TO.P,U1,19*%
%TO.N,Net-(U1-Pad19)*%
X133065000Y-86755000D03*
%TO.P,U1,20*%
%TO.N,Net-(U1-Pad20)*%
X134335000Y-86755000D03*
%TO.P,U1,21*%
%TO.N,Net-(U1-Pad21)*%
X135605000Y-86755000D03*
%TO.P,U1,22*%
%TO.N,Net-(U1-Pad22)*%
X136875000Y-86755000D03*
%TO.P,U1,23*%
%TO.N,IO15*%
X138145000Y-86755000D03*
%TO.P,U1,24*%
%TO.N,IO2*%
X139415000Y-86755000D03*
D11*
%TO.P,U1,25*%
%TO.N,GPIO0*%
X142200000Y-85755000D03*
%TO.P,U1,26*%
%TO.N,IO4*%
X142200000Y-84485000D03*
%TO.P,U1,27*%
%TO.N,IO16*%
X142200000Y-83215000D03*
%TO.P,U1,28*%
%TO.N,IO17*%
X142200000Y-81945000D03*
%TO.P,U1,29*%
%TO.N,IO5*%
X142200000Y-80675000D03*
%TO.P,U1,30*%
%TO.N,IO18*%
X142200000Y-79405000D03*
%TO.P,U1,31*%
%TO.N,IO19*%
X142200000Y-78135000D03*
%TO.P,U1,32*%
%TO.N,Net-(U1-Pad32)*%
X142200000Y-76865000D03*
%TO.P,U1,33*%
%TO.N,IO21*%
X142200000Y-75595000D03*
%TO.P,U1,34*%
%TO.N,RXD0*%
X142200000Y-74325000D03*
%TO.P,U1,35*%
%TO.N,TXD0*%
X142200000Y-73055000D03*
%TO.P,U1,36*%
%TO.N,IO22*%
X142200000Y-71785000D03*
%TO.P,U1,37*%
%TO.N,IO23*%
X142200000Y-70515000D03*
%TO.P,U1,38*%
%TO.N,GND*%
X142200000Y-69245000D03*
%TD*%
D13*
%TO.P,J2,5*%
%TO.N,GND*%
X139299000Y-114713000D03*
%TO.P,J2,4*%
%TO.N,Net-(J2-Pad4)*%
X138649000Y-114713000D03*
%TO.P,J2,3*%
%TO.N,UD+*%
X137999000Y-114713000D03*
%TO.P,J2,2*%
%TO.N,UD-*%
X137349000Y-114713000D03*
%TO.P,J2,1*%
%TO.N,VBUS*%
X136699000Y-114713000D03*
D14*
%TO.P,J2,0*%
%TO.N,N/C*%
X139605000Y-119025000D03*
X136326000Y-119009000D03*
D15*
X141628000Y-118198000D03*
X134389000Y-118198000D03*
D16*
X135584000Y-115498000D03*
X140434000Y-115498000D03*
%TD*%
%TO.P,C1,2*%
%TO.N,GND*%
%TA.AperFunction,SMDPad,CuDef*%
G36*
G01*
X127125000Y-100450000D02*
X127125000Y-99950000D01*
G75*
G02*
X127350000Y-99725000I225000J0D01*
G01*
X127800000Y-99725000D01*
G75*
G02*
X128025000Y-99950000I0J-225000D01*
G01*
X128025000Y-100450000D01*
G75*
G02*
X127800000Y-100675000I-225000J0D01*
G01*
X127350000Y-100675000D01*
G75*
G02*
X127125000Y-100450000I0J225000D01*
G01*
G37*
%TD.AperFunction*%
%TO.P,C1,1*%
%TO.N,Net-(C1-Pad1)*%
%TA.AperFunction,SMDPad,CuDef*%
G36*
G01*
X125575000Y-100450000D02*
X125575000Y-99950000D01*
G75*
G02*
X125800000Y-99725000I225000J0D01*
G01*
X126250000Y-99725000D01*
G75*
G02*
X126475000Y-99950000I0J-225000D01*
G01*
X126475000Y-100450000D01*
G75*
G02*
X126250000Y-100675000I-225000J0D01*
G01*
X125800000Y-100675000D01*
G75*
G02*
X125575000Y-100450000I0J225000D01*
G01*
G37*
%TD.AperFunction*%
%TD*%
%TO.P,C2,1*%
%TO.N,Net-(C2-Pad1)*%
%TA.AperFunction,SMDPad,CuDef*%
G36*
G01*
X125130000Y-93870000D02*
X125470000Y-93870000D01*
G75*
G02*
X125610000Y-94010000I0J-140000D01*
G01*
X125610000Y-94290000D01*
G75*
G02*
X125470000Y-94430000I-140000J0D01*
G01*
X125130000Y-94430000D01*
G75*
G02*
X124990000Y-94290000I0J140000D01*
G01*
X124990000Y-94010000D01*
G75*
G02*
X125130000Y-93870000I140000J0D01*
G01*
G37*
%TD.AperFunction*%
%TO.P,C2,2*%
%TO.N,GND*%
%TA.AperFunction,SMDPad,CuDef*%
G36*
G01*
X125130000Y-94830000D02*
X125470000Y-94830000D01*
G75*
G02*
X125610000Y-94970000I0J-140000D01*
G01*
X125610000Y-95250000D01*
G75*
G02*
X125470000Y-95390000I-140000J0D01*
G01*
X125130000Y-95390000D01*
G75*
G02*
X124990000Y-95250000I0J140000D01*
G01*
X124990000Y-94970000D01*
G75*
G02*
X125130000Y-94830000I140000J0D01*
G01*
G37*
%TD.AperFunction*%
%TD*%
%TO.P,C3,2*%
%TO.N,GND*%
%TA.AperFunction,SMDPad,CuDef*%
G36*
G01*
X130800000Y-91670000D02*
X130800000Y-91330000D01*
G75*
G02*
X130940000Y-91190000I140000J0D01*
G01*
X131220000Y-91190000D01*
G75*
G02*
X131360000Y-91330000I0J-140000D01*
G01*
X131360000Y-91670000D01*
G75*
G02*
X131220000Y-91810000I-140000J0D01*
G01*
X130940000Y-91810000D01*
G75*
G02*
X130800000Y-91670000I0J140000D01*
G01*
G37*
%TD.AperFunction*%
%TO.P,C3,1*%
%TO.N,VDD*%
%TA.AperFunction,SMDPad,CuDef*%
G36*
G01*
X129840000Y-91670000D02*
X129840000Y-91330000D01*
G75*
G02*
X129980000Y-91190000I140000J0D01*
G01*
X130260000Y-91190000D01*
G75*
G02*
X130400000Y-91330000I0J-140000D01*
G01*
X130400000Y-91670000D01*
G75*
G02*
X130260000Y-91810000I-140000J0D01*
G01*
X129980000Y-91810000D01*
G75*
G02*
X129840000Y-91670000I0J140000D01*
G01*
G37*
%TD.AperFunction*%
%TD*%
%TO.P,C4,1*%
%TO.N,VDD*%
%TA.AperFunction,SMDPad,CuDef*%
G36*
G01*
X127200000Y-88525000D02*
X127200000Y-89475000D01*
G75*
G02*
X126950000Y-89725000I-250000J0D01*
G01*
X126450000Y-89725000D01*
G75*
G02*
X126200000Y-89475000I0J250000D01*
G01*
X126200000Y-88525000D01*
G75*
G02*
X126450000Y-88275000I250000J0D01*
G01*
X126950000Y-88275000D01*
G75*
G02*
X127200000Y-88525000I0J-250000D01*
G01*
G37*
%TD.AperFunction*%
%TO.P,C4,2*%
%TO.N,GND*%
%TA.AperFunction,SMDPad,CuDef*%
G36*
G01*
X125300000Y-88525000D02*
X125300000Y-89475000D01*
G75*
G02*
X125050000Y-89725000I-250000J0D01*
G01*
X124550000Y-89725000D01*
G75*
G02*
X124300000Y-89475000I0J250000D01*
G01*
X124300000Y-88525000D01*
G75*
G02*
X124550000Y-88275000I250000J0D01*
G01*
X125050000Y-88275000D01*
G75*
G02*
X125300000Y-88525000I0J-250000D01*
G01*
G37*
%TD.AperFunction*%
%TD*%
%TO.P,C5,1*%
%TO.N,+BATT*%
%TA.AperFunction,SMDPad,CuDef*%
G36*
G01*
X126625000Y-109150000D02*
X126625000Y-109650000D01*
G75*
G02*
X126400000Y-109875000I-225000J0D01*
G01*
X125950000Y-109875000D01*
G75*
G02*
X125725000Y-109650000I0J225000D01*
G01*
X125725000Y-109150000D01*
G75*
G02*
X125950000Y-108925000I225000J0D01*
G01*
X126400000Y-108925000D01*
G75*
G02*
X126625000Y-109150000I0J-225000D01*
G01*
G37*
%TD.AperFunction*%
%TO.P,C5,2*%
%TO.N,GND*%
%TA.AperFunction,SMDPad,CuDef*%
G36*
G01*
X125075000Y-109150000D02*
X125075000Y-109650000D01*
G75*
G02*
X124850000Y-109875000I-225000J0D01*
G01*
X124400000Y-109875000D01*
G75*
G02*
X124175000Y-109650000I0J225000D01*
G01*
X124175000Y-109150000D01*
G75*
G02*
X124400000Y-108925000I225000J0D01*
G01*
X124850000Y-108925000D01*
G75*
G02*
X125075000Y-109150000I0J-225000D01*
G01*
G37*
%TD.AperFunction*%
%TD*%
%TO.P,C6,1*%
%TO.N,VDD*%
%TA.AperFunction,SMDPad,CuDef*%
G36*
G01*
X123330000Y-88240000D02*
X123670000Y-88240000D01*
G75*
G02*
X123810000Y-88380000I0J-140000D01*
G01*
X123810000Y-88660000D01*
G75*
G02*
X123670000Y-88800000I-140000J0D01*
G01*
X123330000Y-88800000D01*
G75*
G02*
X123190000Y-88660000I0J140000D01*
G01*
X123190000Y-88380000D01*
G75*
G02*
X123330000Y-88240000I140000J0D01*
G01*
G37*
%TD.AperFunction*%
%TO.P,C6,2*%
%TO.N,GND*%
%TA.AperFunction,SMDPad,CuDef*%
G36*
G01*
X123330000Y-89200000D02*
X123670000Y-89200000D01*
G75*
G02*
X123810000Y-89340000I0J-140000D01*
G01*
X123810000Y-89620000D01*
G75*
G02*
X123670000Y-89760000I-140000J0D01*
G01*
X123330000Y-89760000D01*
G75*
G02*
X123190000Y-89620000I0J140000D01*
G01*
X123190000Y-89340000D01*
G75*
G02*
X123330000Y-89200000I140000J0D01*
G01*
G37*
%TD.AperFunction*%
%TD*%
%TO.P,C7,2*%
%TO.N,GND*%
%TA.AperFunction,SMDPad,CuDef*%
G36*
G01*
X138230000Y-93556000D02*
X138230000Y-93896000D01*
G75*
G02*
X138090000Y-94036000I-140000J0D01*
G01*
X137810000Y-94036000D01*
G75*
G02*
X137670000Y-93896000I0J140000D01*
G01*
X137670000Y-93556000D01*
G75*
G02*
X137810000Y-93416000I140000J0D01*
G01*
X138090000Y-93416000D01*
G75*
G02*
X138230000Y-93556000I0J-140000D01*
G01*
G37*
%TD.AperFunction*%
%TO.P,C7,1*%
%TO.N,RESET*%
%TA.AperFunction,SMDPad,CuDef*%
G36*
G01*
X139190000Y-93556000D02*
X139190000Y-93896000D01*
G75*
G02*
X139050000Y-94036000I-140000J0D01*
G01*
X138770000Y-94036000D01*
G75*
G02*
X138630000Y-93896000I0J140000D01*
G01*
X138630000Y-93556000D01*
G75*
G02*
X138770000Y-93416000I140000J0D01*
G01*
X139050000Y-93416000D01*
G75*
G02*
X139190000Y-93556000I0J-140000D01*
G01*
G37*
%TD.AperFunction*%
%TD*%
%TO.P,C8,1*%
%TO.N,GND*%
%TA.AperFunction,SMDPad,CuDef*%
G36*
G01*
X137158000Y-93556000D02*
X137158000Y-93896000D01*
G75*
G02*
X137018000Y-94036000I-140000J0D01*
G01*
X136738000Y-94036000D01*
G75*
G02*
X136598000Y-93896000I0J140000D01*
G01*
X136598000Y-93556000D01*
G75*
G02*
X136738000Y-93416000I140000J0D01*
G01*
X137018000Y-93416000D01*
G75*
G02*
X137158000Y-93556000I0J-140000D01*
G01*
G37*
%TD.AperFunction*%
%TO.P,C8,2*%
%TO.N,RESET*%
%TA.AperFunction,SMDPad,CuDef*%
G36*
G01*
X136198000Y-93556000D02*
X136198000Y-93896000D01*
G75*
G02*
X136058000Y-94036000I-140000J0D01*
G01*
X135778000Y-94036000D01*
G75*
G02*
X135638000Y-93896000I0J140000D01*
G01*
X135638000Y-93556000D01*
G75*
G02*
X135778000Y-93416000I140000J0D01*
G01*
X136058000Y-93416000D01*
G75*
G02*
X136198000Y-93556000I0J-140000D01*
G01*
G37*
%TD.AperFunction*%
%TD*%
%TO.P,C9,1*%
%TO.N,Net-(C9-Pad1)*%
%TA.AperFunction,SMDPad,CuDef*%
G36*
G01*
X136780000Y-108430000D02*
X136780000Y-108770000D01*
G75*
G02*
X136640000Y-108910000I-140000J0D01*
G01*
X136360000Y-108910000D01*
G75*
G02*
X136220000Y-108770000I0J140000D01*
G01*
X136220000Y-108430000D01*
G75*
G02*
X136360000Y-108290000I140000J0D01*
G01*
X136640000Y-108290000D01*
G75*
G02*
X136780000Y-108430000I0J-140000D01*
G01*
G37*
%TD.AperFunction*%
%TO.P,C9,2*%
%TO.N,GND*%
%TA.AperFunction,SMDPad,CuDef*%
G36*
G01*
X135820000Y-108430000D02*
X135820000Y-108770000D01*
G75*
G02*
X135680000Y-108910000I-140000J0D01*
G01*
X135400000Y-108910000D01*
G75*
G02*
X135260000Y-108770000I0J140000D01*
G01*
X135260000Y-108430000D01*
G75*
G02*
X135400000Y-108290000I140000J0D01*
G01*
X135680000Y-108290000D01*
G75*
G02*
X135820000Y-108430000I0J-140000D01*
G01*
G37*
%TD.AperFunction*%
%TD*%
%TO.P,C10,2*%
%TO.N,GND*%
%TA.AperFunction,SMDPad,CuDef*%
G36*
G01*
X135820000Y-109380000D02*
X135820000Y-109720000D01*
G75*
G02*
X135680000Y-109860000I-140000J0D01*
G01*
X135400000Y-109860000D01*
G75*
G02*
X135260000Y-109720000I0J140000D01*
G01*
X135260000Y-109380000D01*
G75*
G02*
X135400000Y-109240000I140000J0D01*
G01*
X135680000Y-109240000D01*
G75*
G02*
X135820000Y-109380000I0J-140000D01*
G01*
G37*
%TD.AperFunction*%
%TO.P,C10,1*%
%TO.N,Net-(C10-Pad1)*%
%TA.AperFunction,SMDPad,CuDef*%
G36*
G01*
X136780000Y-109380000D02*
X136780000Y-109720000D01*
G75*
G02*
X136640000Y-109860000I-140000J0D01*
G01*
X136360000Y-109860000D01*
G75*
G02*
X136220000Y-109720000I0J140000D01*
G01*
X136220000Y-109380000D01*
G75*
G02*
X136360000Y-109240000I140000J0D01*
G01*
X136640000Y-109240000D01*
G75*
G02*
X136780000Y-109380000I0J-140000D01*
G01*
G37*
%TD.AperFunction*%
%TD*%
D17*
%TO.P,D1,1*%
%TO.N,Net-(C2-Pad1)*%
X132200000Y-104550000D03*
%TO.P,D1,2*%
%TO.N,Net-(D1-Pad2)*%
X132200000Y-107850000D03*
%TD*%
%TO.P,D2,2*%
%TO.N,Net-(C1-Pad1)*%
%TA.AperFunction,SMDPad,CuDef*%
G36*
G01*
X124856250Y-103112500D02*
X124343750Y-103112500D01*
G75*
G02*
X124125000Y-102893750I0J218750D01*
G01*
X124125000Y-102456250D01*
G75*
G02*
X124343750Y-102237500I218750J0D01*
G01*
X124856250Y-102237500D01*
G75*
G02*
X125075000Y-102456250I0J-218750D01*
G01*
X125075000Y-102893750D01*
G75*
G02*
X124856250Y-103112500I-218750J0D01*
G01*
G37*
%TD.AperFunction*%
%TO.P,D2,1*%
%TO.N,Net-(D2-Pad1)*%
%TA.AperFunction,SMDPad,CuDef*%
G36*
G01*
X124856250Y-104687500D02*
X124343750Y-104687500D01*
G75*
G02*
X124125000Y-104468750I0J218750D01*
G01*
X124125000Y-104031250D01*
G75*
G02*
X124343750Y-103812500I218750J0D01*
G01*
X124856250Y-103812500D01*
G75*
G02*
X125075000Y-104031250I0J-218750D01*
G01*
X125075000Y-104468750D01*
G75*
G02*
X124856250Y-104687500I-218750J0D01*
G01*
G37*
%TD.AperFunction*%
%TD*%
%TO.P,D3,2*%
%TO.N,IO2*%
%TA.AperFunction,SMDPad,CuDef*%
G36*
G01*
X124810000Y-93220250D02*
X124810000Y-92707750D01*
G75*
G02*
X125028750Y-92489000I218750J0D01*
G01*
X125466250Y-92489000D01*
G75*
G02*
X125685000Y-92707750I0J-218750D01*
G01*
X125685000Y-93220250D01*
G75*
G02*
X125466250Y-93439000I-218750J0D01*
G01*
X125028750Y-93439000D01*
G75*
G02*
X124810000Y-93220250I0J218750D01*
G01*
G37*
%TD.AperFunction*%
%TO.P,D3,1*%
%TO.N,Net-(D3-Pad1)*%
%TA.AperFunction,SMDPad,CuDef*%
G36*
G01*
X123235000Y-93220250D02*
X123235000Y-92707750D01*
G75*
G02*
X123453750Y-92489000I218750J0D01*
G01*
X123891250Y-92489000D01*
G75*
G02*
X124110000Y-92707750I0J-218750D01*
G01*
X124110000Y-93220250D01*
G75*
G02*
X123891250Y-93439000I-218750J0D01*
G01*
X123453750Y-93439000D01*
G75*
G02*
X123235000Y-93220250I0J218750D01*
G01*
G37*
%TD.AperFunction*%
%TD*%
%TO.P,FB1,1*%
%TO.N,Net-(D1-Pad2)*%
%TA.AperFunction,SMDPad,CuDef*%
G36*
G01*
X133600000Y-112781250D02*
X133600000Y-112018750D01*
G75*
G02*
X133818750Y-111800000I218750J0D01*
G01*
X134256250Y-111800000D01*
G75*
G02*
X134475000Y-112018750I0J-218750D01*
G01*
X134475000Y-112781250D01*
G75*
G02*
X134256250Y-113000000I-218750J0D01*
G01*
X133818750Y-113000000D01*
G75*
G02*
X133600000Y-112781250I0J218750D01*
G01*
G37*
%TD.AperFunction*%
%TO.P,FB1,2*%
%TO.N,VBUS*%
%TA.AperFunction,SMDPad,CuDef*%
G36*
G01*
X135725000Y-112781250D02*
X135725000Y-112018750D01*
G75*
G02*
X135943750Y-111800000I218750J0D01*
G01*
X136381250Y-111800000D01*
G75*
G02*
X136600000Y-112018750I0J-218750D01*
G01*
X136600000Y-112781250D01*
G75*
G02*
X136381250Y-113000000I-218750J0D01*
G01*
X135943750Y-113000000D01*
G75*
G02*
X135725000Y-112781250I0J218750D01*
G01*
G37*
%TD.AperFunction*%
%TD*%
%TO.P,J1,MP*%
%TO.N,N/C*%
%TA.AperFunction,SMDPad,CuDef*%
G36*
G01*
X126000000Y-115500000D02*
X126000000Y-118000000D01*
G75*
G02*
X125750000Y-118250000I-250000J0D01*
G01*
X124650000Y-118250000D01*
G75*
G02*
X124400000Y-118000000I0J250000D01*
G01*
X124400000Y-115500000D01*
G75*
G02*
X124650000Y-115250000I250000J0D01*
G01*
X125750000Y-115250000D01*
G75*
G02*
X126000000Y-115500000I0J-250000D01*
G01*
G37*
%TD.AperFunction*%
%TA.AperFunction,SMDPad,CuDef*%
G36*
G01*
X132800000Y-115500000D02*
X132800000Y-118000000D01*
G75*
G02*
X132550000Y-118250000I-250000J0D01*
G01*
X131450000Y-118250000D01*
G75*
G02*
X131200000Y-118000000I0J250000D01*
G01*
X131200000Y-115500000D01*
G75*
G02*
X131450000Y-115250000I250000J0D01*
G01*
X132550000Y-115250000D01*
G75*
G02*
X132800000Y-115500000I0J-250000D01*
G01*
G37*
%TD.AperFunction*%
%TO.P,J1,2*%
%TO.N,GND*%
%TA.AperFunction,SMDPad,CuDef*%
G36*
G01*
X128100000Y-112000000D02*
X128100000Y-117000000D01*
G75*
G02*
X127850000Y-117250000I-250000J0D01*
G01*
X127350000Y-117250000D01*
G75*
G02*
X127100000Y-117000000I0J250000D01*
G01*
X127100000Y-112000000D01*
G75*
G02*
X127350000Y-111750000I250000J0D01*
G01*
X127850000Y-111750000D01*
G75*
G02*
X128100000Y-112000000I0J-250000D01*
G01*
G37*
%TD.AperFunction*%
%TO.P,J1,1*%
%TO.N,+BATT*%
%TA.AperFunction,SMDPad,CuDef*%
G36*
G01*
X130100000Y-112000000D02*
X130100000Y-117000000D01*
G75*
G02*
X129850000Y-117250000I-250000J0D01*
G01*
X129350000Y-117250000D01*
G75*
G02*
X129100000Y-117000000I0J250000D01*
G01*
X129100000Y-112000000D01*
G75*
G02*
X129350000Y-111750000I250000J0D01*
G01*
X129850000Y-111750000D01*
G75*
G02*
X130100000Y-112000000I0J-250000D01*
G01*
G37*
%TD.AperFunction*%
%TD*%
D18*
%TO.P,Q1,1*%
%TO.N,Net-(D1-Pad2)*%
X133750000Y-101000000D03*
%TO.P,Q1,2*%
%TO.N,Net-(C2-Pad1)*%
X131850000Y-101000000D03*
%TO.P,Q1,3*%
%TO.N,+BATT*%
X132800000Y-103000000D03*
%TD*%
%TO.P,Q4,3*%
%TO.N,CH340GND*%
X135300000Y-89375000D03*
%TO.P,Q4,2*%
%TO.N,GND*%
X136250000Y-91375000D03*
%TO.P,Q4,1*%
%TO.N,Net-(Q4-Pad1)*%
X134350000Y-91375000D03*
%TD*%
%TO.P,R1,2*%
%TO.N,GND*%
%TA.AperFunction,SMDPad,CuDef*%
G36*
G01*
X136240000Y-111085000D02*
X136240000Y-110715000D01*
G75*
G02*
X136375000Y-110580000I135000J0D01*
G01*
X136645000Y-110580000D01*
G75*
G02*
X136780000Y-110715000I0J-135000D01*
G01*
X136780000Y-111085000D01*
G75*
G02*
X136645000Y-111220000I-135000J0D01*
G01*
X136375000Y-111220000D01*
G75*
G02*
X136240000Y-111085000I0J135000D01*
G01*
G37*
%TD.AperFunction*%
%TO.P,R1,1*%
%TO.N,VBUS*%
%TA.AperFunction,SMDPad,CuDef*%
G36*
G01*
X135220000Y-111085000D02*
X135220000Y-110715000D01*
G75*
G02*
X135355000Y-110580000I135000J0D01*
G01*
X135625000Y-110580000D01*
G75*
G02*
X135760000Y-110715000I0J-135000D01*
G01*
X135760000Y-111085000D01*
G75*
G02*
X135625000Y-111220000I-135000J0D01*
G01*
X135355000Y-111220000D01*
G75*
G02*
X135220000Y-111085000I0J135000D01*
G01*
G37*
%TD.AperFunction*%
%TD*%
%TO.P,R2,2*%
%TO.N,VBUS*%
%TA.AperFunction,SMDPad,CuDef*%
G36*
G01*
X133100000Y-110625003D02*
X133100000Y-109374997D01*
G75*
G02*
X133349997Y-109125000I249997J0D01*
G01*
X133975003Y-109125000D01*
G75*
G02*
X134225000Y-109374997I0J-249997D01*
G01*
X134225000Y-110625003D01*
G75*
G02*
X133975003Y-110875000I-249997J0D01*
G01*
X133349997Y-110875000D01*
G75*
G02*
X133100000Y-110625003I0J249997D01*
G01*
G37*
%TD.AperFunction*%
%TO.P,R2,1*%
%TO.N,Net-(C1-Pad1)*%
%TA.AperFunction,SMDPad,CuDef*%
G36*
G01*
X130175000Y-110625003D02*
X130175000Y-109374997D01*
G75*
G02*
X130424997Y-109125000I249997J0D01*
G01*
X131050003Y-109125000D01*
G75*
G02*
X131300000Y-109374997I0J-249997D01*
G01*
X131300000Y-110625003D01*
G75*
G02*
X131050003Y-110875000I-249997J0D01*
G01*
X130424997Y-110875000D01*
G75*
G02*
X130175000Y-110625003I0J249997D01*
G01*
G37*
%TD.AperFunction*%
%TD*%
%TO.P,R3,1*%
%TO.N,Net-(C2-Pad1)*%
%TA.AperFunction,SMDPad,CuDef*%
G36*
G01*
X124020000Y-96385000D02*
X124020000Y-96015000D01*
G75*
G02*
X124155000Y-95880000I135000J0D01*
G01*
X124425000Y-95880000D01*
G75*
G02*
X124560000Y-96015000I0J-135000D01*
G01*
X124560000Y-96385000D01*
G75*
G02*
X124425000Y-96520000I-135000J0D01*
G01*
X124155000Y-96520000D01*
G75*
G02*
X124020000Y-96385000I0J135000D01*
G01*
G37*
%TD.AperFunction*%
%TO.P,R3,2*%
%TO.N,EN*%
%TA.AperFunction,SMDPad,CuDef*%
G36*
G01*
X125040000Y-96385000D02*
X125040000Y-96015000D01*
G75*
G02*
X125175000Y-95880000I135000J0D01*
G01*
X125445000Y-95880000D01*
G75*
G02*
X125580000Y-96015000I0J-135000D01*
G01*
X125580000Y-96385000D01*
G75*
G02*
X125445000Y-96520000I-135000J0D01*
G01*
X125175000Y-96520000D01*
G75*
G02*
X125040000Y-96385000I0J135000D01*
G01*
G37*
%TD.AperFunction*%
%TD*%
%TO.P,R4,1*%
%TO.N,Net-(R4-Pad1)*%
%TA.AperFunction,SMDPad,CuDef*%
G36*
G01*
X124875000Y-107825000D02*
X124325000Y-107825000D01*
G75*
G02*
X124125000Y-107625000I0J200000D01*
G01*
X124125000Y-107225000D01*
G75*
G02*
X124325000Y-107025000I200000J0D01*
G01*
X124875000Y-107025000D01*
G75*
G02*
X125075000Y-107225000I0J-200000D01*
G01*
X125075000Y-107625000D01*
G75*
G02*
X124875000Y-107825000I-200000J0D01*
G01*
G37*
%TD.AperFunction*%
%TO.P,R4,2*%
%TO.N,Net-(D2-Pad1)*%
%TA.AperFunction,SMDPad,CuDef*%
G36*
G01*
X124875000Y-106175000D02*
X124325000Y-106175000D01*
G75*
G02*
X124125000Y-105975000I0J200000D01*
G01*
X124125000Y-105575000D01*
G75*
G02*
X124325000Y-105375000I200000J0D01*
G01*
X124875000Y-105375000D01*
G75*
G02*
X125075000Y-105575000I0J-200000D01*
G01*
X125075000Y-105975000D01*
G75*
G02*
X124875000Y-106175000I-200000J0D01*
G01*
G37*
%TD.AperFunction*%
%TD*%
%TO.P,R5,2*%
%TO.N,I35*%
%TA.AperFunction,SMDPad,CuDef*%
G36*
G01*
X123685000Y-100060000D02*
X123315000Y-100060000D01*
G75*
G02*
X123180000Y-99925000I0J135000D01*
G01*
X123180000Y-99655000D01*
G75*
G02*
X123315000Y-99520000I135000J0D01*
G01*
X123685000Y-99520000D01*
G75*
G02*
X123820000Y-99655000I0J-135000D01*
G01*
X123820000Y-99925000D01*
G75*
G02*
X123685000Y-100060000I-135000J0D01*
G01*
G37*
%TD.AperFunction*%
%TO.P,R5,1*%
%TO.N,+BATT*%
%TA.AperFunction,SMDPad,CuDef*%
G36*
G01*
X123685000Y-101080000D02*
X123315000Y-101080000D01*
G75*
G02*
X123180000Y-100945000I0J135000D01*
G01*
X123180000Y-100675000D01*
G75*
G02*
X123315000Y-100540000I135000J0D01*
G01*
X123685000Y-100540000D01*
G75*
G02*
X123820000Y-100675000I0J-135000D01*
G01*
X123820000Y-100945000D01*
G75*
G02*
X123685000Y-101080000I-135000J0D01*
G01*
G37*
%TD.AperFunction*%
%TD*%
%TO.P,R6,2*%
%TO.N,GND*%
%TA.AperFunction,SMDPad,CuDef*%
G36*
G01*
X124315000Y-100540000D02*
X124685000Y-100540000D01*
G75*
G02*
X124820000Y-100675000I0J-135000D01*
G01*
X124820000Y-100945000D01*
G75*
G02*
X124685000Y-101080000I-135000J0D01*
G01*
X124315000Y-101080000D01*
G75*
G02*
X124180000Y-100945000I0J135000D01*
G01*
X124180000Y-100675000D01*
G75*
G02*
X124315000Y-100540000I135000J0D01*
G01*
G37*
%TD.AperFunction*%
%TO.P,R6,1*%
%TO.N,I35*%
%TA.AperFunction,SMDPad,CuDef*%
G36*
G01*
X124315000Y-99520000D02*
X124685000Y-99520000D01*
G75*
G02*
X124820000Y-99655000I0J-135000D01*
G01*
X124820000Y-99925000D01*
G75*
G02*
X124685000Y-100060000I-135000J0D01*
G01*
X124315000Y-100060000D01*
G75*
G02*
X124180000Y-99925000I0J135000D01*
G01*
X124180000Y-99655000D01*
G75*
G02*
X124315000Y-99520000I135000J0D01*
G01*
G37*
%TD.AperFunction*%
%TD*%
%TO.P,R7,1*%
%TO.N,Net-(Q2-Pad2)*%
%TA.AperFunction,SMDPad,CuDef*%
G36*
G01*
X140050000Y-92885000D02*
X140050000Y-92515000D01*
G75*
G02*
X140185000Y-92380000I135000J0D01*
G01*
X140455000Y-92380000D01*
G75*
G02*
X140590000Y-92515000I0J-135000D01*
G01*
X140590000Y-92885000D01*
G75*
G02*
X140455000Y-93020000I-135000J0D01*
G01*
X140185000Y-93020000D01*
G75*
G02*
X140050000Y-92885000I0J135000D01*
G01*
G37*
%TD.AperFunction*%
%TO.P,R7,2*%
%TO.N,RTS*%
%TA.AperFunction,SMDPad,CuDef*%
G36*
G01*
X141070000Y-92885000D02*
X141070000Y-92515000D01*
G75*
G02*
X141205000Y-92380000I135000J0D01*
G01*
X141475000Y-92380000D01*
G75*
G02*
X141610000Y-92515000I0J-135000D01*
G01*
X141610000Y-92885000D01*
G75*
G02*
X141475000Y-93020000I-135000J0D01*
G01*
X141205000Y-93020000D01*
G75*
G02*
X141070000Y-92885000I0J135000D01*
G01*
G37*
%TD.AperFunction*%
%TD*%
%TO.P,R8,1*%
%TO.N,Net-(Q3-Pad2)*%
%TA.AperFunction,SMDPad,CuDef*%
G36*
G01*
X143526000Y-92525000D02*
X143526000Y-92895000D01*
G75*
G02*
X143391000Y-93030000I-135000J0D01*
G01*
X143121000Y-93030000D01*
G75*
G02*
X142986000Y-92895000I0J135000D01*
G01*
X142986000Y-92525000D01*
G75*
G02*
X143121000Y-92390000I135000J0D01*
G01*
X143391000Y-92390000D01*
G75*
G02*
X143526000Y-92525000I0J-135000D01*
G01*
G37*
%TD.AperFunction*%
%TO.P,R8,2*%
%TO.N,DTR*%
%TA.AperFunction,SMDPad,CuDef*%
G36*
G01*
X142506000Y-92525000D02*
X142506000Y-92895000D01*
G75*
G02*
X142371000Y-93030000I-135000J0D01*
G01*
X142101000Y-93030000D01*
G75*
G02*
X141966000Y-92895000I0J135000D01*
G01*
X141966000Y-92525000D01*
G75*
G02*
X142101000Y-92390000I135000J0D01*
G01*
X142371000Y-92390000D01*
G75*
G02*
X142506000Y-92525000I0J-135000D01*
G01*
G37*
%TD.AperFunction*%
%TD*%
%TO.P,R9,2*%
%TO.N,Net-(R9-Pad2)*%
%TA.AperFunction,SMDPad,CuDef*%
G36*
G01*
X129160000Y-100415000D02*
X129160000Y-100785000D01*
G75*
G02*
X129025000Y-100920000I-135000J0D01*
G01*
X128755000Y-100920000D01*
G75*
G02*
X128620000Y-100785000I0J135000D01*
G01*
X128620000Y-100415000D01*
G75*
G02*
X128755000Y-100280000I135000J0D01*
G01*
X129025000Y-100280000D01*
G75*
G02*
X129160000Y-100415000I0J-135000D01*
G01*
G37*
%TD.AperFunction*%
%TO.P,R9,1*%
%TO.N,GND*%
%TA.AperFunction,SMDPad,CuDef*%
G36*
G01*
X130180000Y-100415000D02*
X130180000Y-100785000D01*
G75*
G02*
X130045000Y-100920000I-135000J0D01*
G01*
X129775000Y-100920000D01*
G75*
G02*
X129640000Y-100785000I0J135000D01*
G01*
X129640000Y-100415000D01*
G75*
G02*
X129775000Y-100280000I135000J0D01*
G01*
X130045000Y-100280000D01*
G75*
G02*
X130180000Y-100415000I0J-135000D01*
G01*
G37*
%TD.AperFunction*%
%TD*%
%TO.P,R10,2*%
%TO.N,RESET*%
%TA.AperFunction,SMDPad,CuDef*%
G36*
G01*
X140222000Y-93541000D02*
X140222000Y-93911000D01*
G75*
G02*
X140087000Y-94046000I-135000J0D01*
G01*
X139817000Y-94046000D01*
G75*
G02*
X139682000Y-93911000I0J135000D01*
G01*
X139682000Y-93541000D01*
G75*
G02*
X139817000Y-93406000I135000J0D01*
G01*
X140087000Y-93406000D01*
G75*
G02*
X140222000Y-93541000I0J-135000D01*
G01*
G37*
%TD.AperFunction*%
%TO.P,R10,1*%
%TO.N,VDD*%
%TA.AperFunction,SMDPad,CuDef*%
G36*
G01*
X141242000Y-93541000D02*
X141242000Y-93911000D01*
G75*
G02*
X141107000Y-94046000I-135000J0D01*
G01*
X140837000Y-94046000D01*
G75*
G02*
X140702000Y-93911000I0J135000D01*
G01*
X140702000Y-93541000D01*
G75*
G02*
X140837000Y-93406000I135000J0D01*
G01*
X141107000Y-93406000D01*
G75*
G02*
X141242000Y-93541000I0J-135000D01*
G01*
G37*
%TD.AperFunction*%
%TD*%
%TO.P,R11,1*%
%TO.N,GND*%
%TA.AperFunction,SMDPad,CuDef*%
G36*
G01*
X123235000Y-91461000D02*
X123235000Y-90911000D01*
G75*
G02*
X123435000Y-90711000I200000J0D01*
G01*
X123835000Y-90711000D01*
G75*
G02*
X124035000Y-90911000I0J-200000D01*
G01*
X124035000Y-91461000D01*
G75*
G02*
X123835000Y-91661000I-200000J0D01*
G01*
X123435000Y-91661000D01*
G75*
G02*
X123235000Y-91461000I0J200000D01*
G01*
G37*
%TD.AperFunction*%
%TO.P,R11,2*%
%TO.N,Net-(D3-Pad1)*%
%TA.AperFunction,SMDPad,CuDef*%
G36*
G01*
X124885000Y-91461000D02*
X124885000Y-90911000D01*
G75*
G02*
X125085000Y-90711000I200000J0D01*
G01*
X125485000Y-90711000D01*
G75*
G02*
X125685000Y-90911000I0J-200000D01*
G01*
X125685000Y-91461000D01*
G75*
G02*
X125485000Y-91661000I-200000J0D01*
G01*
X125085000Y-91661000D01*
G75*
G02*
X124885000Y-91461000I0J200000D01*
G01*
G37*
%TD.AperFunction*%
%TD*%
%TO.P,R12,2*%
%TO.N,TXD0*%
%TA.AperFunction,SMDPad,CuDef*%
G36*
G01*
X136685000Y-101660000D02*
X136315000Y-101660000D01*
G75*
G02*
X136180000Y-101525000I0J135000D01*
G01*
X136180000Y-101255000D01*
G75*
G02*
X136315000Y-101120000I135000J0D01*
G01*
X136685000Y-101120000D01*
G75*
G02*
X136820000Y-101255000I0J-135000D01*
G01*
X136820000Y-101525000D01*
G75*
G02*
X136685000Y-101660000I-135000J0D01*
G01*
G37*
%TD.AperFunction*%
%TO.P,R12,1*%
%TO.N,Net-(R12-Pad1)*%
%TA.AperFunction,SMDPad,CuDef*%
G36*
G01*
X136685000Y-102680000D02*
X136315000Y-102680000D01*
G75*
G02*
X136180000Y-102545000I0J135000D01*
G01*
X136180000Y-102275000D01*
G75*
G02*
X136315000Y-102140000I135000J0D01*
G01*
X136685000Y-102140000D01*
G75*
G02*
X136820000Y-102275000I0J-135000D01*
G01*
X136820000Y-102545000D01*
G75*
G02*
X136685000Y-102680000I-135000J0D01*
G01*
G37*
%TD.AperFunction*%
%TD*%
%TO.P,R13,1*%
%TO.N,RXD0*%
%TA.AperFunction,SMDPad,CuDef*%
G36*
G01*
X135315000Y-101120000D02*
X135685000Y-101120000D01*
G75*
G02*
X135820000Y-101255000I0J-135000D01*
G01*
X135820000Y-101525000D01*
G75*
G02*
X135685000Y-101660000I-135000J0D01*
G01*
X135315000Y-101660000D01*
G75*
G02*
X135180000Y-101525000I0J135000D01*
G01*
X135180000Y-101255000D01*
G75*
G02*
X135315000Y-101120000I135000J0D01*
G01*
G37*
%TD.AperFunction*%
%TO.P,R13,2*%
%TO.N,Net-(R13-Pad2)*%
%TA.AperFunction,SMDPad,CuDef*%
G36*
G01*
X135315000Y-102140000D02*
X135685000Y-102140000D01*
G75*
G02*
X135820000Y-102275000I0J-135000D01*
G01*
X135820000Y-102545000D01*
G75*
G02*
X135685000Y-102680000I-135000J0D01*
G01*
X135315000Y-102680000D01*
G75*
G02*
X135180000Y-102545000I0J135000D01*
G01*
X135180000Y-102275000D01*
G75*
G02*
X135315000Y-102140000I135000J0D01*
G01*
G37*
%TD.AperFunction*%
%TD*%
%TO.P,R14,1*%
%TO.N,Net-(Q4-Pad1)*%
%TA.AperFunction,SMDPad,CuDef*%
G36*
G01*
X133935000Y-92860000D02*
X133935000Y-92490000D01*
G75*
G02*
X134070000Y-92355000I135000J0D01*
G01*
X134340000Y-92355000D01*
G75*
G02*
X134475000Y-92490000I0J-135000D01*
G01*
X134475000Y-92860000D01*
G75*
G02*
X134340000Y-92995000I-135000J0D01*
G01*
X134070000Y-92995000D01*
G75*
G02*
X133935000Y-92860000I0J135000D01*
G01*
G37*
%TD.AperFunction*%
%TO.P,R14,2*%
%TO.N,VBUS*%
%TA.AperFunction,SMDPad,CuDef*%
G36*
G01*
X134955000Y-92860000D02*
X134955000Y-92490000D01*
G75*
G02*
X135090000Y-92355000I135000J0D01*
G01*
X135360000Y-92355000D01*
G75*
G02*
X135495000Y-92490000I0J-135000D01*
G01*
X135495000Y-92860000D01*
G75*
G02*
X135360000Y-92995000I-135000J0D01*
G01*
X135090000Y-92995000D01*
G75*
G02*
X134955000Y-92860000I0J135000D01*
G01*
G37*
%TD.AperFunction*%
%TD*%
D19*
%TO.P,SW1,1*%
%TO.N,GND*%
X140310000Y-99182000D03*
X134010000Y-99182000D03*
%TO.P,SW1,2*%
%TO.N,RESET*%
X140310000Y-95382000D03*
X134010000Y-95382000D03*
%TD*%
D20*
%TO.P,U2,1*%
%TO.N,Net-(C2-Pad1)*%
X127890000Y-93250000D03*
%TO.P,U2,2*%
%TO.N,GND*%
X127890000Y-94200000D03*
%TO.P,U2,3*%
%TO.N,EN*%
X127890000Y-95150000D03*
%TO.P,U2,4*%
%TO.N,Net-(U2-Pad4)*%
X130510000Y-95150000D03*
%TO.P,U2,5*%
%TO.N,VDD*%
X130510000Y-93250000D03*
%TD*%
%TO.P,U3,8*%
%TO.N,Net-(C1-Pad1)*%
%TA.AperFunction,SMDPad,CuDef*%
G36*
G01*
X129955000Y-106600000D02*
X130255000Y-106600000D01*
G75*
G02*
X130405000Y-106750000I0J-150000D01*
G01*
X130405000Y-108100000D01*
G75*
G02*
X130255000Y-108250000I-150000J0D01*
G01*
X129955000Y-108250000D01*
G75*
G02*
X129805000Y-108100000I0J150000D01*
G01*
X129805000Y-106750000D01*
G75*
G02*
X129955000Y-106600000I150000J0D01*
G01*
G37*
%TD.AperFunction*%
%TO.P,U3,7*%
%TO.N,Net-(R4-Pad1)*%
%TA.AperFunction,SMDPad,CuDef*%
G36*
G01*
X128685000Y-106600000D02*
X128985000Y-106600000D01*
G75*
G02*
X129135000Y-106750000I0J-150000D01*
G01*
X129135000Y-108100000D01*
G75*
G02*
X128985000Y-108250000I-150000J0D01*
G01*
X128685000Y-108250000D01*
G75*
G02*
X128535000Y-108100000I0J150000D01*
G01*
X128535000Y-106750000D01*
G75*
G02*
X128685000Y-106600000I150000J0D01*
G01*
G37*
%TD.AperFunction*%
%TO.P,U3,6*%
%TO.N,Net-(U3-Pad6)*%
%TA.AperFunction,SMDPad,CuDef*%
G36*
G01*
X127415000Y-106600000D02*
X127715000Y-106600000D01*
G75*
G02*
X127865000Y-106750000I0J-150000D01*
G01*
X127865000Y-108100000D01*
G75*
G02*
X127715000Y-108250000I-150000J0D01*
G01*
X127415000Y-108250000D01*
G75*
G02*
X127265000Y-108100000I0J150000D01*
G01*
X127265000Y-106750000D01*
G75*
G02*
X127415000Y-106600000I150000J0D01*
G01*
G37*
%TD.AperFunction*%
%TO.P,U3,5*%
%TO.N,+BATT*%
%TA.AperFunction,SMDPad,CuDef*%
G36*
G01*
X126145000Y-106600000D02*
X126445000Y-106600000D01*
G75*
G02*
X126595000Y-106750000I0J-150000D01*
G01*
X126595000Y-108100000D01*
G75*
G02*
X126445000Y-108250000I-150000J0D01*
G01*
X126145000Y-108250000D01*
G75*
G02*
X125995000Y-108100000I0J150000D01*
G01*
X125995000Y-106750000D01*
G75*
G02*
X126145000Y-106600000I150000J0D01*
G01*
G37*
%TD.AperFunction*%
%TO.P,U3,4*%
%TO.N,Net-(C1-Pad1)*%
%TA.AperFunction,SMDPad,CuDef*%
G36*
G01*
X126145000Y-101350000D02*
X126445000Y-101350000D01*
G75*
G02*
X126595000Y-101500000I0J-150000D01*
G01*
X126595000Y-102850000D01*
G75*
G02*
X126445000Y-103000000I-150000J0D01*
G01*
X126145000Y-103000000D01*
G75*
G02*
X125995000Y-102850000I0J150000D01*
G01*
X125995000Y-101500000D01*
G75*
G02*
X126145000Y-101350000I150000J0D01*
G01*
G37*
%TD.AperFunction*%
%TO.P,U3,3*%
%TO.N,GND*%
%TA.AperFunction,SMDPad,CuDef*%
G36*
G01*
X127415000Y-101350000D02*
X127715000Y-101350000D01*
G75*
G02*
X127865000Y-101500000I0J-150000D01*
G01*
X127865000Y-102850000D01*
G75*
G02*
X127715000Y-103000000I-150000J0D01*
G01*
X127415000Y-103000000D01*
G75*
G02*
X127265000Y-102850000I0J150000D01*
G01*
X127265000Y-101500000D01*
G75*
G02*
X127415000Y-101350000I150000J0D01*
G01*
G37*
%TD.AperFunction*%
%TO.P,U3,2*%
%TO.N,Net-(R9-Pad2)*%
%TA.AperFunction,SMDPad,CuDef*%
G36*
G01*
X128685000Y-101350000D02*
X128985000Y-101350000D01*
G75*
G02*
X129135000Y-101500000I0J-150000D01*
G01*
X129135000Y-102850000D01*
G75*
G02*
X128985000Y-103000000I-150000J0D01*
G01*
X128685000Y-103000000D01*
G75*
G02*
X128535000Y-102850000I0J150000D01*
G01*
X128535000Y-101500000D01*
G75*
G02*
X128685000Y-101350000I150000J0D01*
G01*
G37*
%TD.AperFunction*%
%TO.P,U3,1*%
%TO.N,GND*%
%TA.AperFunction,SMDPad,CuDef*%
G36*
G01*
X129955000Y-101350000D02*
X130255000Y-101350000D01*
G75*
G02*
X130405000Y-101500000I0J-150000D01*
G01*
X130405000Y-102850000D01*
G75*
G02*
X130255000Y-103000000I-150000J0D01*
G01*
X129955000Y-103000000D01*
G75*
G02*
X129805000Y-102850000I0J150000D01*
G01*
X129805000Y-101500000D01*
G75*
G02*
X129955000Y-101350000I150000J0D01*
G01*
G37*
%TD.AperFunction*%
%TD*%
%TO.P,U4,1*%
%TO.N,CH340GND*%
%TA.AperFunction,SMDPad,CuDef*%
G36*
G01*
X137250000Y-101405000D02*
X137250000Y-101105000D01*
G75*
G02*
X137400000Y-100955000I150000J0D01*
G01*
X139050000Y-100955000D01*
G75*
G02*
X139200000Y-101105000I0J-150000D01*
G01*
X139200000Y-101405000D01*
G75*
G02*
X139050000Y-101555000I-150000J0D01*
G01*
X137400000Y-101555000D01*
G75*
G02*
X137250000Y-101405000I0J150000D01*
G01*
G37*
%TD.AperFunction*%
%TO.P,U4,2*%
%TO.N,Net-(R12-Pad1)*%
%TA.AperFunction,SMDPad,CuDef*%
G36*
G01*
X137250000Y-102675000D02*
X137250000Y-102375000D01*
G75*
G02*
X137400000Y-102225000I150000J0D01*
G01*
X139050000Y-102225000D01*
G75*
G02*
X139200000Y-102375000I0J-150000D01*
G01*
X139200000Y-102675000D01*
G75*
G02*
X139050000Y-102825000I-150000J0D01*
G01*
X137400000Y-102825000D01*
G75*
G02*
X137250000Y-102675000I0J150000D01*
G01*
G37*
%TD.AperFunction*%
%TO.P,U4,3*%
%TO.N,Net-(R13-Pad2)*%
%TA.AperFunction,SMDPad,CuDef*%
G36*
G01*
X137250000Y-103945000D02*
X137250000Y-103645000D01*
G75*
G02*
X137400000Y-103495000I150000J0D01*
G01*
X139050000Y-103495000D01*
G75*
G02*
X139200000Y-103645000I0J-150000D01*
G01*
X139200000Y-103945000D01*
G75*
G02*
X139050000Y-104095000I-150000J0D01*
G01*
X137400000Y-104095000D01*
G75*
G02*
X137250000Y-103945000I0J150000D01*
G01*
G37*
%TD.AperFunction*%
%TO.P,U4,4*%
%TO.N,VDD*%
%TA.AperFunction,SMDPad,CuDef*%
G36*
G01*
X137250000Y-105215000D02*
X137250000Y-104915000D01*
G75*
G02*
X137400000Y-104765000I150000J0D01*
G01*
X139050000Y-104765000D01*
G75*
G02*
X139200000Y-104915000I0J-150000D01*
G01*
X139200000Y-105215000D01*
G75*
G02*
X139050000Y-105365000I-150000J0D01*
G01*
X137400000Y-105365000D01*
G75*
G02*
X137250000Y-105215000I0J150000D01*
G01*
G37*
%TD.AperFunction*%
%TO.P,U4,5*%
%TO.N,UD+*%
%TA.AperFunction,SMDPad,CuDef*%
G36*
G01*
X137250000Y-106485000D02*
X137250000Y-106185000D01*
G75*
G02*
X137400000Y-106035000I150000J0D01*
G01*
X139050000Y-106035000D01*
G75*
G02*
X139200000Y-106185000I0J-150000D01*
G01*
X139200000Y-106485000D01*
G75*
G02*
X139050000Y-106635000I-150000J0D01*
G01*
X137400000Y-106635000D01*
G75*
G02*
X137250000Y-106485000I0J150000D01*
G01*
G37*
%TD.AperFunction*%
%TO.P,U4,6*%
%TO.N,UD-*%
%TA.AperFunction,SMDPad,CuDef*%
G36*
G01*
X137250000Y-107755000D02*
X137250000Y-107455000D01*
G75*
G02*
X137400000Y-107305000I150000J0D01*
G01*
X139050000Y-107305000D01*
G75*
G02*
X139200000Y-107455000I0J-150000D01*
G01*
X139200000Y-107755000D01*
G75*
G02*
X139050000Y-107905000I-150000J0D01*
G01*
X137400000Y-107905000D01*
G75*
G02*
X137250000Y-107755000I0J150000D01*
G01*
G37*
%TD.AperFunction*%
%TO.P,U4,7*%
%TO.N,Net-(C9-Pad1)*%
%TA.AperFunction,SMDPad,CuDef*%
G36*
G01*
X137250000Y-109025000D02*
X137250000Y-108725000D01*
G75*
G02*
X137400000Y-108575000I150000J0D01*
G01*
X139050000Y-108575000D01*
G75*
G02*
X139200000Y-108725000I0J-150000D01*
G01*
X139200000Y-109025000D01*
G75*
G02*
X139050000Y-109175000I-150000J0D01*
G01*
X137400000Y-109175000D01*
G75*
G02*
X137250000Y-109025000I0J150000D01*
G01*
G37*
%TD.AperFunction*%
%TO.P,U4,8*%
%TO.N,Net-(C10-Pad1)*%
%TA.AperFunction,SMDPad,CuDef*%
G36*
G01*
X137250000Y-110295000D02*
X137250000Y-109995000D01*
G75*
G02*
X137400000Y-109845000I150000J0D01*
G01*
X139050000Y-109845000D01*
G75*
G02*
X139200000Y-109995000I0J-150000D01*
G01*
X139200000Y-110295000D01*
G75*
G02*
X139050000Y-110445000I-150000J0D01*
G01*
X137400000Y-110445000D01*
G75*
G02*
X137250000Y-110295000I0J150000D01*
G01*
G37*
%TD.AperFunction*%
%TO.P,U4,9*%
%TO.N,Net-(U4-Pad9)*%
%TA.AperFunction,SMDPad,CuDef*%
G36*
G01*
X142200000Y-110295000D02*
X142200000Y-109995000D01*
G75*
G02*
X142350000Y-109845000I150000J0D01*
G01*
X144000000Y-109845000D01*
G75*
G02*
X144150000Y-109995000I0J-150000D01*
G01*
X144150000Y-110295000D01*
G75*
G02*
X144000000Y-110445000I-150000J0D01*
G01*
X142350000Y-110445000D01*
G75*
G02*
X142200000Y-110295000I0J150000D01*
G01*
G37*
%TD.AperFunction*%
%TO.P,U4,10*%
%TO.N,Net-(U4-Pad10)*%
%TA.AperFunction,SMDPad,CuDef*%
G36*
G01*
X142200000Y-109025000D02*
X142200000Y-108725000D01*
G75*
G02*
X142350000Y-108575000I150000J0D01*
G01*
X144000000Y-108575000D01*
G75*
G02*
X144150000Y-108725000I0J-150000D01*
G01*
X144150000Y-109025000D01*
G75*
G02*
X144000000Y-109175000I-150000J0D01*
G01*
X142350000Y-109175000D01*
G75*
G02*
X142200000Y-109025000I0J150000D01*
G01*
G37*
%TD.AperFunction*%
%TO.P,U4,11*%
%TO.N,Net-(U4-Pad11)*%
%TA.AperFunction,SMDPad,CuDef*%
G36*
G01*
X142200000Y-107755000D02*
X142200000Y-107455000D01*
G75*
G02*
X142350000Y-107305000I150000J0D01*
G01*
X144000000Y-107305000D01*
G75*
G02*
X144150000Y-107455000I0J-150000D01*
G01*
X144150000Y-107755000D01*
G75*
G02*
X144000000Y-107905000I-150000J0D01*
G01*
X142350000Y-107905000D01*
G75*
G02*
X142200000Y-107755000I0J150000D01*
G01*
G37*
%TD.AperFunction*%
%TO.P,U4,12*%
%TO.N,Net-(U4-Pad12)*%
%TA.AperFunction,SMDPad,CuDef*%
G36*
G01*
X142200000Y-106485000D02*
X142200000Y-106185000D01*
G75*
G02*
X142350000Y-106035000I150000J0D01*
G01*
X144000000Y-106035000D01*
G75*
G02*
X144150000Y-106185000I0J-150000D01*
G01*
X144150000Y-106485000D01*
G75*
G02*
X144000000Y-106635000I-150000J0D01*
G01*
X142350000Y-106635000D01*
G75*
G02*
X142200000Y-106485000I0J150000D01*
G01*
G37*
%TD.AperFunction*%
%TO.P,U4,13*%
%TO.N,DTR*%
%TA.AperFunction,SMDPad,CuDef*%
G36*
G01*
X142200000Y-105215000D02*
X142200000Y-104915000D01*
G75*
G02*
X142350000Y-104765000I150000J0D01*
G01*
X144000000Y-104765000D01*
G75*
G02*
X144150000Y-104915000I0J-150000D01*
G01*
X144150000Y-105215000D01*
G75*
G02*
X144000000Y-105365000I-150000J0D01*
G01*
X142350000Y-105365000D01*
G75*
G02*
X142200000Y-105215000I0J150000D01*
G01*
G37*
%TD.AperFunction*%
%TO.P,U4,14*%
%TO.N,RTS*%
%TA.AperFunction,SMDPad,CuDef*%
G36*
G01*
X142200000Y-103945000D02*
X142200000Y-103645000D01*
G75*
G02*
X142350000Y-103495000I150000J0D01*
G01*
X144000000Y-103495000D01*
G75*
G02*
X144150000Y-103645000I0J-150000D01*
G01*
X144150000Y-103945000D01*
G75*
G02*
X144000000Y-104095000I-150000J0D01*
G01*
X142350000Y-104095000D01*
G75*
G02*
X142200000Y-103945000I0J150000D01*
G01*
G37*
%TD.AperFunction*%
%TO.P,U4,15*%
%TO.N,Net-(U4-Pad15)*%
%TA.AperFunction,SMDPad,CuDef*%
G36*
G01*
X142200000Y-102675000D02*
X142200000Y-102375000D01*
G75*
G02*
X142350000Y-102225000I150000J0D01*
G01*
X144000000Y-102225000D01*
G75*
G02*
X144150000Y-102375000I0J-150000D01*
G01*
X144150000Y-102675000D01*
G75*
G02*
X144000000Y-102825000I-150000J0D01*
G01*
X142350000Y-102825000D01*
G75*
G02*
X142200000Y-102675000I0J150000D01*
G01*
G37*
%TD.AperFunction*%
%TO.P,U4,16*%
%TO.N,VDD*%
%TA.AperFunction,SMDPad,CuDef*%
G36*
G01*
X142200000Y-101405000D02*
X142200000Y-101105000D01*
G75*
G02*
X142350000Y-100955000I150000J0D01*
G01*
X144000000Y-100955000D01*
G75*
G02*
X144150000Y-101105000I0J-150000D01*
G01*
X144150000Y-101405000D01*
G75*
G02*
X144000000Y-101555000I-150000J0D01*
G01*
X142350000Y-101555000D01*
G75*
G02*
X142200000Y-101405000I0J150000D01*
G01*
G37*
%TD.AperFunction*%
%TD*%
D21*
%TO.P,Y1,1*%
%TO.N,Net-(C9-Pad1)*%
X136050000Y-107100000D03*
%TO.P,Y1,2*%
%TO.N,GND*%
X136050000Y-104900000D03*
%TO.P,Y1,3*%
%TO.N,Net-(C10-Pad1)*%
X134350000Y-104900000D03*
%TO.P,Y1,4*%
%TO.N,GND*%
X134350000Y-107100000D03*
%TD*%
D18*
%TO.P,Q2,1*%
%TO.N,DTR*%
X137975001Y-91400000D03*
%TO.P,Q2,2*%
%TO.N,Net-(Q2-Pad2)*%
X139875001Y-91400000D03*
%TO.P,Q2,3*%
%TO.N,GPIO0*%
X138925001Y-89400000D03*
%TD*%
%TO.P,Q3,3*%
%TO.N,RESET*%
X142550000Y-89400000D03*
%TO.P,Q3,2*%
%TO.N,Net-(Q3-Pad2)*%
X143500000Y-91400000D03*
%TO.P,Q3,1*%
%TO.N,RTS*%
X141600000Y-91400000D03*
%TD*%
D22*
%TO.P,J5,18*%
%TO.N,VBUS*%
X121000000Y-112240000D03*
%TO.P,J5,17*%
%TO.N,VDD*%
X121000000Y-109700000D03*
%TO.P,J5,16*%
%TO.N,Net-(J5-Pad16)*%
X121000000Y-107160000D03*
%TO.P,J5,15*%
%TO.N,GND*%
X121000000Y-104620000D03*
%TO.P,J5,14*%
%TO.N,+BATT*%
X121000000Y-102080000D03*
%TO.P,J5,13*%
%TO.N,EN*%
X121000000Y-99540000D03*
%TO.P,J5,12*%
%TO.N,Net-(J5-Pad12)*%
X121000000Y-97000000D03*
%TO.P,J5,11*%
%TO.N,Net-(J5-Pad11)*%
X121000000Y-94460000D03*
%TO.P,J5,10*%
%TO.N,IO2*%
X121000000Y-91920000D03*
%TO.P,J5,9*%
%TO.N,IO5*%
X121000000Y-89380000D03*
%TO.P,J5,8*%
%TO.N,IO13*%
X121000000Y-86840000D03*
%TO.P,J5,7*%
%TO.N,IO33*%
X121000000Y-84300000D03*
%TO.P,J5,6*%
%TO.N,IO32*%
X121000000Y-81760000D03*
%TO.P,J5,5*%
%TO.N,IO27*%
X121000000Y-79220000D03*
%TO.P,J5,4*%
%TO.N,IO26_DAC2*%
X121000000Y-76680000D03*
%TO.P,J5,3*%
%TO.N,IO25_DAC1*%
X121000000Y-74140000D03*
%TO.P,J5,2*%
%TO.N,TXD0*%
X121000000Y-71600000D03*
D23*
%TO.P,J5,1*%
%TO.N,RXD0*%
X121000000Y-69060000D03*
%TD*%
%TO.P,J6,1*%
%TO.N,I36*%
X146400000Y-69060000D03*
D22*
%TO.P,J6,2*%
%TO.N,I39*%
X146400000Y-71600000D03*
%TO.P,J6,3*%
%TO.N,I34*%
X146400000Y-74140000D03*
%TO.P,J6,4*%
%TO.N,I35*%
X146400000Y-76680000D03*
%TO.P,J6,5*%
%TO.N,IO15*%
X146400000Y-79220000D03*
%TO.P,J6,6*%
%TO.N,Net-(J6-Pad6)*%
X146400000Y-81760000D03*
%TO.P,J6,7*%
%TO.N,GPIO0*%
X146400000Y-84300000D03*
%TO.P,J6,8*%
%TO.N,IO18*%
X146400000Y-86840000D03*
%TO.P,J6,9*%
%TO.N,IO23*%
X146400000Y-89380000D03*
%TO.P,J6,10*%
%TO.N,IO19*%
X146400000Y-91920000D03*
%TO.P,J6,11*%
%TO.N,IO21*%
X146400000Y-94460000D03*
%TO.P,J6,12*%
%TO.N,IO22*%
X146400000Y-97000000D03*
%TO.P,J6,13*%
%TO.N,IO14*%
X146400000Y-99540000D03*
%TO.P,J6,14*%
%TO.N,IO12*%
X146400000Y-102080000D03*
%TO.P,J6,15*%
%TO.N,IO4*%
X146400000Y-104620000D03*
%TO.P,J6,16*%
%TO.N,IO16*%
X146400000Y-107160000D03*
%TO.P,J6,17*%
%TO.N,IO17*%
X146400000Y-109700000D03*
%TO.P,J6,18*%
%TO.N,RESET*%
X146400000Y-112240000D03*
%TD*%
D24*
%TO.N,GND*%
X132700000Y-76700000D03*
D25*
X124900000Y-108800000D03*
X139350000Y-112600000D03*
X138800000Y-113100000D03*
X135000000Y-108300000D03*
X134884312Y-106200001D03*
X135526916Y-105764833D03*
X124500000Y-101400000D03*
X128100000Y-99500000D03*
X130100000Y-103200000D03*
X130300000Y-100100000D03*
X139350000Y-98600000D03*
X133200000Y-98500000D03*
X139250000Y-92700000D03*
X124700000Y-87900000D03*
X125500000Y-89300000D03*
X129350000Y-84850000D03*
X124184207Y-89285786D03*
X140200000Y-69950000D03*
X124000000Y-68700000D03*
X126400000Y-68700000D03*
X129200000Y-95000000D03*
X125900000Y-95400000D03*
X135550000Y-90700000D03*
X122900000Y-91250000D03*
X127600000Y-103300000D03*
X131700000Y-91500000D03*
X128000000Y-111700000D03*
X127200000Y-111700000D03*
X137200000Y-111200000D03*
%TO.N,Net-(C2-Pad1)*%
X132200000Y-105000000D03*
X132200000Y-100600000D03*
X132200000Y-94400000D03*
%TO.N,VDD*%
X130000000Y-90800000D03*
X129600000Y-91800000D03*
X144649999Y-101400000D03*
X139350000Y-105100000D03*
X144972382Y-96746209D03*
X125558943Y-87346058D03*
X123500000Y-87900000D03*
X125900000Y-88200000D03*
X123900000Y-70650000D03*
X126149567Y-70734999D03*
%TO.N,RESET*%
X141400000Y-95400000D03*
X141400000Y-89400000D03*
X133050000Y-95100000D03*
X133100000Y-71800000D03*
%TO.N,Net-(D3-Pad1)*%
X124300000Y-93600000D03*
X124709224Y-91386100D03*
%TO.N,VBUS*%
X135550000Y-92600000D03*
X136200000Y-113100000D03*
%TO.N,IO21*%
X137600000Y-83000000D03*
X137600000Y-75600000D03*
%TO.N,IO17*%
X134100000Y-81350000D03*
X134100000Y-114800000D03*
%TO.N,IO16*%
X140100000Y-113800000D03*
X140100000Y-83200000D03*
%TO.N,GPIO0*%
X141400000Y-88399997D03*
X141500000Y-85700000D03*
%TO.N,DTR*%
X142900000Y-105100000D03*
X142900000Y-94586320D03*
%TO.N,RTS*%
X142150000Y-103800000D03*
X142150000Y-93800000D03*
%TO.N,CH340GND*%
X136700000Y-98100000D03*
X136700000Y-89500000D03*
%TO.N,TXD0*%
X135900000Y-98800000D03*
X135900000Y-73000000D03*
X128900000Y-74600000D03*
%TO.N,RXD0*%
X127050000Y-70300000D03*
X134800000Y-73600000D03*
X134800000Y-70300000D03*
X135000000Y-100300000D03*
%TO.N,IO2*%
X128600000Y-92000000D03*
X128600000Y-82100000D03*
X139300000Y-82100000D03*
X139300000Y-85600000D03*
%TO.N,I35*%
X144000000Y-76000000D03*
X139400000Y-77750000D03*
X127000000Y-98500000D03*
X127189998Y-76865000D03*
%TO.N,I36*%
X128800000Y-68500000D03*
X128800000Y-73100000D03*
%TO.N,I39*%
X144000000Y-69200000D03*
X139400000Y-69200000D03*
X127800000Y-69200000D03*
X127800000Y-74300000D03*
%TO.N,I34*%
X144000000Y-74100000D03*
X139400000Y-71050000D03*
X129700000Y-71050000D03*
X129599998Y-75600000D03*
%TO.N,IO32*%
X126400000Y-78100000D03*
%TO.N,IO33*%
X126400000Y-79400000D03*
%TO.N,IO14*%
X138500000Y-96500000D03*
X138350000Y-88376087D03*
%TO.N,IO12*%
X137600000Y-97300000D03*
X137600000Y-84100000D03*
%TO.N,IO13*%
X130500000Y-84900000D03*
X130500000Y-89400000D03*
X126500000Y-91000000D03*
%TO.N,IO15*%
X144000000Y-77000000D03*
X140400000Y-77000000D03*
X136800000Y-77000000D03*
X136800000Y-85000000D03*
%TO.N,IO4*%
X143500000Y-111500000D03*
X143200000Y-84500000D03*
%TO.N,IO5*%
X127900000Y-80500000D03*
X127850000Y-90100000D03*
%TO.N,IO18*%
X143000000Y-86900000D03*
X141200000Y-79624998D03*
%TO.N,IO19*%
X145500011Y-91300000D03*
X143500000Y-78200000D03*
%TO.N,IO22*%
X138550000Y-84700000D03*
X138600000Y-71800000D03*
%TO.N,IO23*%
X143500000Y-70500000D03*
%TD*%
D26*
%TO.N,Net-(C1-Pad1)*%
X126295000Y-100470000D02*
X126025000Y-100200000D01*
X126295000Y-102175000D02*
X126295000Y-100470000D01*
D27*
X125100000Y-102175000D02*
X124600000Y-102675000D01*
X126295000Y-102175000D02*
X125100000Y-102175000D01*
D26*
X130105000Y-107021456D02*
X130105000Y-107425000D01*
X126295000Y-103211456D02*
X130105000Y-107021456D01*
X126295000Y-102175000D02*
X126295000Y-103211456D01*
X130105000Y-107425000D02*
X130105000Y-108767500D01*
X130105000Y-109367500D02*
X130105000Y-108767500D01*
X130737500Y-110000000D02*
X130105000Y-109367500D01*
%TO.N,GND*%
X127134960Y-94200000D02*
X127890000Y-94200000D01*
X126224960Y-95110000D02*
X127134960Y-94200000D01*
X125300000Y-95110000D02*
X126224960Y-95110000D01*
X124625000Y-109075000D02*
X124900000Y-108800000D01*
X124625000Y-109400000D02*
X124625000Y-109075000D01*
D27*
X139350000Y-112600000D02*
X139299000Y-112651000D01*
X139299000Y-112651000D02*
X139299000Y-114713000D01*
X139299000Y-113315429D02*
X139299000Y-114713000D01*
X138800000Y-113100000D02*
X139299000Y-113315429D01*
X135540000Y-108840000D02*
X135000000Y-108300000D01*
X135540000Y-109500000D02*
X135540000Y-108840000D01*
X134350000Y-107650000D02*
X135000000Y-108300000D01*
X134350000Y-107100000D02*
X134350000Y-107650000D01*
X134350000Y-106734313D02*
X134884312Y-106200001D01*
X134350000Y-107100000D02*
X134350000Y-106734313D01*
X136050000Y-105241749D02*
X135526916Y-105764833D01*
X136050000Y-104900000D02*
X136050000Y-105241749D01*
X135319480Y-105764833D02*
X134884312Y-106200001D01*
X135526916Y-105764833D02*
X135319480Y-105764833D01*
X124500000Y-100810000D02*
X124500000Y-101400000D01*
D26*
X127575000Y-100025000D02*
X128100000Y-99500000D01*
X127575000Y-100200000D02*
X127575000Y-100025000D01*
D27*
X130105000Y-102175000D02*
X130105000Y-102005000D01*
X130105000Y-103195000D02*
X130100000Y-103200000D01*
X130105000Y-102175000D02*
X130105000Y-103195000D01*
X129910000Y-100490000D02*
X130300000Y-100100000D01*
X129910000Y-100600000D02*
X129910000Y-100490000D01*
X139932000Y-99182000D02*
X139350000Y-98600000D01*
X140310000Y-99182000D02*
X139932000Y-99182000D01*
X133882000Y-99182000D02*
X133200000Y-98500000D01*
X134010000Y-99182000D02*
X133882000Y-99182000D01*
X137904000Y-92700000D02*
X139250000Y-92700000D01*
X136878000Y-93726000D02*
X137904000Y-92700000D01*
X137950000Y-93726000D02*
X136878000Y-93726000D01*
X138666000Y-92700000D02*
X139250000Y-92700000D01*
X137950000Y-93416000D02*
X138666000Y-92700000D01*
X137950000Y-93726000D02*
X137950000Y-93416000D01*
D26*
X124800000Y-88000000D02*
X124700000Y-87900000D01*
X124800000Y-89000000D02*
X124800000Y-88000000D01*
X125200000Y-89000000D02*
X125500000Y-89300000D01*
X124800000Y-89000000D02*
X125200000Y-89000000D01*
X128899998Y-84850000D02*
X129350000Y-84850000D01*
X127985000Y-85764998D02*
X128899998Y-84850000D01*
X127985000Y-86755000D02*
X127985000Y-85764998D01*
D27*
X123989993Y-89480000D02*
X124184207Y-89285786D01*
X123500000Y-89480000D02*
X123989993Y-89480000D01*
X124469993Y-89000000D02*
X124184207Y-89285786D01*
X124800000Y-89000000D02*
X124469993Y-89000000D01*
D26*
X140905000Y-69245000D02*
X140200000Y-69950000D01*
X142200000Y-69245000D02*
X140905000Y-69245000D01*
X124545000Y-69245000D02*
X124000000Y-68700000D01*
X125200000Y-69245000D02*
X124545000Y-69245000D01*
X125855000Y-69245000D02*
X126400000Y-68700000D01*
X125200000Y-69245000D02*
X125855000Y-69245000D01*
X129200000Y-94754960D02*
X129200000Y-95000000D01*
X128645040Y-94200000D02*
X129200000Y-94754960D01*
X127890000Y-94200000D02*
X128645040Y-94200000D01*
X125510000Y-95110000D02*
X125900000Y-95500000D01*
X125300000Y-95110000D02*
X125510000Y-95110000D01*
D27*
X136225000Y-91375000D02*
X135550000Y-90700000D01*
X136250000Y-91375000D02*
X136225000Y-91375000D01*
X122964000Y-91186000D02*
X122900000Y-91250000D01*
X123635000Y-91186000D02*
X122964000Y-91186000D01*
D26*
X127565000Y-103265000D02*
X127600000Y-103300000D01*
X127565000Y-102175000D02*
X127565000Y-103265000D01*
X131080000Y-91500000D02*
X131700000Y-91500000D01*
X127600000Y-112100000D02*
X128000000Y-111700000D01*
X127600000Y-114500000D02*
X127600000Y-112100000D01*
X127600000Y-112100000D02*
X127200000Y-111700000D01*
D27*
X136900000Y-110900000D02*
X137200000Y-111200000D01*
X136510000Y-110900000D02*
X136900000Y-110900000D01*
D26*
%TO.N,Net-(C2-Pad1)*%
X132200000Y-104550000D02*
X132200000Y-105000000D01*
X132200000Y-100650000D02*
X131850000Y-101000000D01*
X132200000Y-100600000D02*
X132200000Y-100650000D01*
X129460003Y-94025001D02*
X128685002Y-93250000D01*
X131130003Y-94025001D02*
X129460003Y-94025001D01*
X128685002Y-93250000D02*
X127890000Y-93250000D01*
X131505002Y-94400000D02*
X131130003Y-94025001D01*
X132200000Y-94400000D02*
X131505002Y-94400000D01*
X127094998Y-93250000D02*
X127890000Y-93250000D01*
X126194998Y-94150000D02*
X127094998Y-93250000D01*
X125300000Y-94150000D02*
X126194998Y-94150000D01*
D27*
X125257020Y-94150000D02*
X125300000Y-94150000D01*
X124290000Y-95117020D02*
X125257020Y-94150000D01*
X124290000Y-96200000D02*
X124290000Y-95117020D01*
D26*
%TO.N,VDD*%
X130120000Y-92860000D02*
X130510000Y-93250000D01*
X130120000Y-91500000D02*
X130120000Y-92860000D01*
X130120000Y-90920000D02*
X130000000Y-90800000D01*
X130120000Y-91500000D02*
X130120000Y-90920000D01*
X129900000Y-91500000D02*
X129600000Y-91800000D01*
X130120000Y-91500000D02*
X129900000Y-91500000D01*
X144504999Y-101255000D02*
X144649999Y-101400000D01*
X143175000Y-101255000D02*
X144504999Y-101255000D01*
X139315000Y-105065000D02*
X139350000Y-105100000D01*
X138225000Y-105065000D02*
X139315000Y-105065000D01*
D27*
X143562494Y-95336321D02*
X144972382Y-96746209D01*
X142582321Y-95336321D02*
X143562494Y-95336321D01*
X140972000Y-93726000D02*
X142582321Y-95336321D01*
D26*
X126700000Y-88487115D02*
X125558943Y-87346058D01*
X126700000Y-89000000D02*
X126700000Y-88487115D01*
X123500000Y-88520000D02*
X123500000Y-87900000D01*
X126700000Y-89000000D02*
X125900000Y-88200000D01*
X124035000Y-70515000D02*
X123900000Y-70650000D01*
X125200000Y-70515000D02*
X124035000Y-70515000D01*
X125929568Y-70515000D02*
X126149567Y-70734999D01*
X125200000Y-70515000D02*
X125929568Y-70515000D01*
%TO.N,+BATT*%
X126175000Y-109400000D02*
X127800000Y-109400000D01*
X126175000Y-107545000D02*
X126295000Y-107425000D01*
X126175000Y-109400000D02*
X126175000Y-107545000D01*
X131339958Y-108674990D02*
X131274990Y-108674990D01*
X131274990Y-108674990D02*
X131000000Y-108400000D01*
X131750010Y-109085042D02*
X131339958Y-108674990D01*
X131889998Y-103000000D02*
X132800000Y-103000000D01*
X131000000Y-103889998D02*
X131889998Y-103000000D01*
X131000000Y-108400000D02*
X131000000Y-103889998D01*
X124120400Y-110325010D02*
X123674990Y-109879600D01*
X125249990Y-110325010D02*
X124120400Y-110325010D01*
X126175000Y-109400000D02*
X125249990Y-110325010D01*
X123674990Y-109879600D02*
X123674990Y-103174990D01*
X122580000Y-102080000D02*
X121000000Y-102080000D01*
X123674990Y-103174990D02*
X122580000Y-102080000D01*
D27*
X123600000Y-103100000D02*
X123674990Y-103174990D01*
X122580000Y-101730000D02*
X123500000Y-100810000D01*
X122580000Y-102080000D02*
X122580000Y-101730000D01*
D26*
X129600000Y-113064968D02*
X129600000Y-114500000D01*
X131750010Y-110914958D02*
X129600000Y-113064968D01*
X131750010Y-109085042D02*
X131750010Y-110914958D01*
X129600000Y-114500000D02*
X129600000Y-110400000D01*
X128600000Y-109400000D02*
X127800000Y-109400000D01*
X129600000Y-110400000D02*
X128600000Y-109400000D01*
D27*
%TO.N,RESET*%
X138910000Y-93726000D02*
X139952000Y-93726000D01*
X139952000Y-95024000D02*
X140310000Y-95382000D01*
X139952000Y-93726000D02*
X139952000Y-95024000D01*
X135666000Y-93726000D02*
X134010000Y-95382000D01*
X135918000Y-93726000D02*
X135666000Y-93726000D01*
X141382000Y-95382000D02*
X141400000Y-95400000D01*
X140310000Y-95382000D02*
X141382000Y-95382000D01*
X141400000Y-89400000D02*
X142550000Y-89400000D01*
X134010000Y-95382000D02*
X140310000Y-95382000D01*
X133332000Y-95382000D02*
X133050000Y-95100000D01*
X134010000Y-95382000D02*
X133332000Y-95382000D01*
X125215000Y-71800000D02*
X125200000Y-71785000D01*
X133100000Y-71800000D02*
X125215000Y-71800000D01*
X146360000Y-112200000D02*
X146400000Y-112240000D01*
X145840000Y-112800000D02*
X146400000Y-112240000D01*
%TO.N,Net-(C9-Pad1)*%
X137950000Y-108600000D02*
X136500000Y-108600000D01*
X138225000Y-108875000D02*
X137950000Y-108600000D01*
X136500000Y-107550000D02*
X136500000Y-108600000D01*
X136050000Y-107100000D02*
X136500000Y-107550000D01*
%TO.N,Net-(C10-Pad1)*%
X136500000Y-109860000D02*
X136500000Y-109550000D01*
X134909990Y-109922970D02*
X135197030Y-110210010D01*
X136149990Y-110210010D02*
X136500000Y-109860000D01*
X134909990Y-109461444D02*
X134909990Y-109922970D01*
X135197030Y-110210010D02*
X136149990Y-110210010D01*
X133399999Y-107951453D02*
X134909990Y-109461444D01*
X133399999Y-105850001D02*
X133399999Y-107951453D01*
X134350000Y-104900000D02*
X133399999Y-105850001D01*
X137095000Y-110145000D02*
X136500000Y-109550000D01*
X138225000Y-110145000D02*
X137095000Y-110145000D01*
%TO.N,Net-(D1-Pad2)*%
X133399999Y-103880003D02*
X133750000Y-103530002D01*
X133750000Y-103530002D02*
X133750000Y-101000000D01*
X133399999Y-104900001D02*
X133399999Y-103880003D01*
X132200000Y-106100000D02*
X133399999Y-104900001D01*
X132200000Y-107850000D02*
X132200000Y-106100000D01*
D26*
X132200000Y-108545069D02*
X132450020Y-108795089D01*
X132200000Y-107850000D02*
X132200000Y-108545069D01*
X132450020Y-110812520D02*
X132450020Y-108795089D01*
X134037500Y-112400000D02*
X132450020Y-110812520D01*
D27*
%TO.N,Net-(D2-Pad1)*%
X124600000Y-104250000D02*
X124600000Y-105775000D01*
%TO.N,Net-(D3-Pad1)*%
X123672500Y-92972500D02*
X124300000Y-93600000D01*
X123672500Y-92964000D02*
X123672500Y-92972500D01*
X125084900Y-91386100D02*
X125285000Y-91186000D01*
X124709224Y-91386100D02*
X125084900Y-91386100D01*
%TO.N,VBUS*%
X135475000Y-92675000D02*
X135550000Y-92600000D01*
X135225000Y-92675000D02*
X135475000Y-92675000D01*
D26*
X126450010Y-117089976D02*
X126450010Y-115210044D01*
X127060044Y-117700010D02*
X126450010Y-117089976D01*
X130139956Y-117700010D02*
X127060044Y-117700010D01*
X126450010Y-115210044D02*
X123479966Y-112240000D01*
X130749990Y-117089976D02*
X130139956Y-117700010D01*
X130749990Y-115210044D02*
X130749990Y-117089976D01*
X132825010Y-114799990D02*
X131160044Y-114799990D01*
X123479966Y-112240000D02*
X121000000Y-112240000D01*
X131160044Y-114799990D02*
X130749990Y-115210044D01*
X136699000Y-112936500D02*
X136162500Y-112400000D01*
X136699000Y-114713000D02*
X136699000Y-112936500D01*
X134612501Y-113949999D02*
X136162500Y-112400000D01*
X133675001Y-113949999D02*
X134612501Y-113949999D01*
X132825010Y-114799990D02*
X133675001Y-113949999D01*
X134562500Y-110900000D02*
X133662500Y-110000000D01*
X135490000Y-110900000D02*
X134562500Y-110900000D01*
X135490000Y-111727500D02*
X136162500Y-112400000D01*
X135490000Y-110900000D02*
X135490000Y-111727500D01*
X136363500Y-112936500D02*
X136200000Y-113100000D01*
X136699000Y-112936500D02*
X136363500Y-112936500D01*
D28*
%TO.N,UD-*%
X138627844Y-107202156D02*
X139873836Y-107202156D01*
X138225000Y-107605000D02*
X138627844Y-107202156D01*
X139873836Y-107202156D02*
X140367844Y-107696164D01*
X140367844Y-107696164D02*
X140367844Y-109703836D01*
X137349000Y-113212999D02*
X137349000Y-114713000D01*
X137441844Y-113120155D02*
X137349000Y-113212999D01*
X137441844Y-112629836D02*
X137441844Y-113120155D01*
X140367844Y-109703836D02*
X137441844Y-112629836D01*
%TO.N,UD+*%
X138627844Y-106737844D02*
X140066164Y-106737844D01*
X138225000Y-106335000D02*
X138627844Y-106737844D01*
X140066164Y-106737844D02*
X140832156Y-107503836D01*
X140832156Y-107503836D02*
X140832156Y-109896164D01*
X137999000Y-113212999D02*
X137999000Y-114713000D01*
X137906156Y-113120155D02*
X137999000Y-113212999D01*
X137906156Y-112822164D02*
X137906156Y-113120155D01*
X140832156Y-109896164D02*
X137906156Y-112822164D01*
D27*
%TO.N,EN*%
X126840000Y-96200000D02*
X127890000Y-95150000D01*
X125310000Y-96200000D02*
X126840000Y-96200000D01*
X121849999Y-98690001D02*
X124609999Y-98690001D01*
X121000000Y-99540000D02*
X121849999Y-98690001D01*
X125310000Y-97990000D02*
X125310000Y-96200000D01*
X124609999Y-98690001D02*
X125310000Y-97990000D01*
%TO.N,IO21*%
X142195000Y-75600000D02*
X142200000Y-75595000D01*
X137600000Y-75600000D02*
X142195000Y-75600000D01*
X140899990Y-86899990D02*
X140715011Y-86715011D01*
X140715011Y-86715011D02*
X140715011Y-85197889D01*
X141717115Y-86899990D02*
X140899990Y-86899990D01*
X142802114Y-87984989D02*
X141717115Y-86899990D01*
X140715011Y-85197889D02*
X138517122Y-83000000D01*
X144750011Y-92810011D02*
X144750011Y-89412889D01*
X143322111Y-87984989D02*
X142802114Y-87984989D01*
X144750011Y-89412889D02*
X143322111Y-87984989D01*
X138517122Y-83000000D02*
X137600000Y-83000000D01*
X146400000Y-94460000D02*
X144750011Y-92810011D01*
%TO.N,IO17*%
X146400000Y-110400000D02*
X146400000Y-109700000D01*
X139660001Y-81349999D02*
X140255002Y-81945000D01*
X140255002Y-81945000D02*
X142200000Y-81945000D01*
X134100000Y-81350000D02*
X139660001Y-81349999D01*
X146400000Y-110463998D02*
X146400000Y-109700000D01*
X145199999Y-111663999D02*
X146400000Y-110463998D01*
X145199999Y-112138003D02*
X145199999Y-111663999D01*
X140890001Y-116448001D02*
X145199999Y-112138003D01*
X134100000Y-115420002D02*
X135127999Y-116448001D01*
X135127999Y-116448001D02*
X140890001Y-116448001D01*
X134100000Y-114800000D02*
X134100000Y-115420002D01*
%TO.N,IO16*%
X145199999Y-108360001D02*
X145199999Y-110699999D01*
X146400000Y-107160000D02*
X145199999Y-108360001D01*
X142215000Y-83200000D02*
X142200000Y-83215000D01*
X145199999Y-110900001D02*
X144300020Y-111799980D01*
X145199999Y-110699999D02*
X145199999Y-110900001D01*
X142300000Y-113800000D02*
X140100000Y-113800000D01*
X145199999Y-110900001D02*
X142300000Y-113800000D01*
X142185000Y-83200000D02*
X142200000Y-83215000D01*
X140100000Y-83200000D02*
X142185000Y-83200000D01*
%TO.N,Net-(Q2-Pad2)*%
X140320000Y-91844999D02*
X139875001Y-91400000D01*
X140320000Y-92700000D02*
X140320000Y-91844999D01*
%TO.N,GPIO0*%
X144945000Y-85755000D02*
X146400000Y-84300000D01*
X142200000Y-85755000D02*
X144945000Y-85755000D01*
X139925004Y-88399997D02*
X141400000Y-88399997D01*
X138925001Y-89400000D02*
X139925004Y-88399997D01*
X141405000Y-85755000D02*
X141350000Y-85700000D01*
X142200000Y-85755000D02*
X141405000Y-85755000D01*
%TO.N,DTR*%
X137975001Y-91400000D02*
X137900000Y-91400000D01*
X142280001Y-90599999D02*
X142350001Y-90669999D01*
X138700001Y-90599999D02*
X142280001Y-90599999D01*
X142350001Y-92595999D02*
X142236000Y-92710000D01*
X142350001Y-90669999D02*
X142350001Y-92595999D01*
X137900000Y-91400000D02*
X138700001Y-90599999D01*
X142935000Y-105065000D02*
X142900000Y-105100000D01*
X143175000Y-105065000D02*
X142935000Y-105065000D01*
X142900000Y-93374000D02*
X142236000Y-92710000D01*
X142900000Y-94586320D02*
X142900000Y-93374000D01*
%TO.N,RTS*%
X141340000Y-91660000D02*
X141600000Y-91400000D01*
X141340000Y-92700000D02*
X141340000Y-91660000D01*
X142150000Y-93800000D02*
X141340000Y-92990000D01*
X141340000Y-92990000D02*
X141340000Y-92700000D01*
X143175000Y-103795000D02*
X142155000Y-103795000D01*
X142155000Y-103795000D02*
X142150000Y-103800000D01*
%TO.N,Net-(Q3-Pad2)*%
X143256000Y-91644000D02*
X143500000Y-91400000D01*
X143256000Y-92710000D02*
X143256000Y-91644000D01*
D26*
%TO.N,CH340GND*%
X138225000Y-99625000D02*
X136700000Y-98100000D01*
X138225000Y-101255000D02*
X138225000Y-99625000D01*
X135425000Y-89500000D02*
X135300000Y-89375000D01*
X136700000Y-89500000D02*
X135425000Y-89500000D01*
D27*
%TO.N,Net-(Q4-Pad1)*%
X134205000Y-91520000D02*
X134350000Y-91375000D01*
X134205000Y-92675000D02*
X134205000Y-91520000D01*
%TO.N,Net-(R4-Pad1)*%
X125775010Y-106249990D02*
X124600000Y-107425000D01*
X128484990Y-106249990D02*
X125775010Y-106249990D01*
X128835000Y-106600000D02*
X128484990Y-106249990D01*
X128835000Y-107425000D02*
X128835000Y-106600000D01*
%TO.N,Net-(R9-Pad2)*%
X128835000Y-100655000D02*
X128890000Y-100600000D01*
X128835000Y-102175000D02*
X128835000Y-100655000D01*
%TO.N,TXD0*%
X136500000Y-101390000D02*
X136500000Y-101300000D01*
X136500000Y-99400000D02*
X135900000Y-98800000D01*
X136500000Y-101390000D02*
X136500000Y-99400000D01*
X142145000Y-73000000D02*
X142200000Y-73055000D01*
X135900000Y-73000000D02*
X142145000Y-73000000D01*
X135500001Y-72600001D02*
X130899999Y-72600001D01*
X130899999Y-72600001D02*
X128900000Y-74600000D01*
X135900000Y-73000000D02*
X135500001Y-72600001D01*
%TO.N,Net-(R12-Pad1)*%
X138110000Y-102410000D02*
X138225000Y-102525000D01*
X136500000Y-102410000D02*
X138110000Y-102410000D01*
%TO.N,RXD0*%
X140900000Y-74325000D02*
X142200000Y-74325000D01*
X135150001Y-73750001D02*
X140325001Y-73750001D01*
X140325001Y-73750001D02*
X140900000Y-74325000D01*
X134800000Y-73600000D02*
X135150001Y-73750001D01*
X134800000Y-70300000D02*
X127050000Y-70300000D01*
X135500000Y-100800000D02*
X135500000Y-101390000D01*
X135000000Y-100300000D02*
X135500000Y-100800000D01*
%TO.N,Net-(R13-Pad2)*%
X136615000Y-103795000D02*
X138225000Y-103795000D01*
X135500000Y-102680000D02*
X136615000Y-103795000D01*
X135500000Y-102410000D02*
X135500000Y-102680000D01*
%TO.N,IO2*%
X124294510Y-92011010D02*
X121091010Y-92011010D01*
X121091010Y-92011010D02*
X121000000Y-91920000D01*
X125247500Y-92964000D02*
X124294510Y-92011010D01*
X126211500Y-92000000D02*
X128600000Y-92000000D01*
X125247500Y-92964000D02*
X126211500Y-92000000D01*
X128600000Y-82100000D02*
X139300000Y-82100000D01*
X139300000Y-86640000D02*
X139415000Y-86755000D01*
X139300000Y-85600000D02*
X139300000Y-86640000D01*
%TO.N,I35*%
X123500000Y-99790000D02*
X124500000Y-99790000D01*
X145720000Y-76000000D02*
X144000000Y-76000000D01*
X146400000Y-76680000D02*
X145720000Y-76000000D01*
X127189998Y-76865000D02*
X125200000Y-76865000D01*
X137554999Y-79595001D02*
X129919999Y-79595001D01*
X129919999Y-79595001D02*
X127189998Y-76865000D01*
X139400000Y-77750000D02*
X137554999Y-79595001D01*
X125790000Y-98500000D02*
X127000000Y-98500000D01*
X124500000Y-99790000D02*
X125790000Y-98500000D01*
%TO.N,I36*%
X128855001Y-68444999D02*
X128800000Y-68500000D01*
X145784999Y-68444999D02*
X128855001Y-68444999D01*
X146400000Y-69060000D02*
X145784999Y-68444999D01*
X125245000Y-73100000D02*
X125200000Y-73055000D01*
X128800000Y-73100000D02*
X125245000Y-73100000D01*
%TO.N,I39*%
X146400000Y-71600000D02*
X144000000Y-69200000D01*
X129160001Y-69250001D02*
X127850001Y-69250001D01*
X127850001Y-69250001D02*
X127800000Y-69200000D01*
X129210002Y-69200000D02*
X129160001Y-69250001D01*
X139400000Y-69200000D02*
X129210002Y-69200000D01*
X125225000Y-74300000D02*
X125200000Y-74325000D01*
X127800000Y-74300000D02*
X125225000Y-74300000D01*
%TO.N,I34*%
X144040000Y-74140000D02*
X144000000Y-74100000D01*
X146400000Y-74140000D02*
X144040000Y-74140000D01*
X139400000Y-71050000D02*
X129700000Y-71050000D01*
X125205000Y-75600000D02*
X125200000Y-75595000D01*
X129599998Y-75600000D02*
X125205000Y-75600000D01*
%TO.N,IO32*%
X126365000Y-78135000D02*
X126400000Y-78100000D01*
X125200000Y-78135000D02*
X126365000Y-78135000D01*
%TO.N,IO33*%
X126395000Y-79405000D02*
X126400000Y-79400000D01*
X125200000Y-79405000D02*
X126395000Y-79405000D01*
%TO.N,IO25_DAC1*%
X123900000Y-80675000D02*
X123600000Y-80375000D01*
X125200000Y-80675000D02*
X123900000Y-80675000D01*
X123600000Y-80375000D02*
X123600000Y-74900000D01*
X122840000Y-74140000D02*
X121000000Y-74140000D01*
X123600000Y-74900000D02*
X122840000Y-74140000D01*
%TO.N,IO26_DAC2*%
X124462880Y-81945000D02*
X123100000Y-80582120D01*
X125200000Y-81945000D02*
X124462880Y-81945000D01*
X123100000Y-80582120D02*
X123100000Y-77300000D01*
X122480000Y-76680000D02*
X121000000Y-76680000D01*
X123100000Y-77300000D02*
X122480000Y-76680000D01*
%TO.N,IO27*%
X124389998Y-83215000D02*
X122599990Y-81424992D01*
X125200000Y-83215000D02*
X124389998Y-83215000D01*
X122599990Y-81424992D02*
X122599990Y-79699990D01*
X122120000Y-79220000D02*
X121000000Y-79220000D01*
X122599990Y-79699990D02*
X122120000Y-79220000D01*
%TO.N,IO14*%
X143360000Y-96500000D02*
X138500000Y-96500000D01*
X146400000Y-99540000D02*
X143360000Y-96500000D01*
X123849999Y-85024999D02*
X124389998Y-84485000D01*
X123849999Y-86485001D02*
X123849999Y-85024999D01*
X123919999Y-86555001D02*
X123849999Y-86485001D01*
X125828547Y-86555001D02*
X123919999Y-86555001D01*
X127649633Y-88376087D02*
X125828547Y-86555001D01*
X124389998Y-84485000D02*
X125200000Y-84485000D01*
X138350000Y-88376087D02*
X127649633Y-88376087D01*
%TO.N,IO12*%
X141620000Y-97300000D02*
X137600000Y-97300000D01*
X146400000Y-102080000D02*
X141620000Y-97300000D01*
X128559998Y-84100000D02*
X126904998Y-85755000D01*
X126904998Y-85755000D02*
X125200000Y-85755000D01*
X137600000Y-84100000D02*
X128559998Y-84100000D01*
%TO.N,IO13*%
X129255000Y-86055002D02*
X130410002Y-84900000D01*
X130410002Y-84900000D02*
X130500000Y-84900000D01*
X129255000Y-86755000D02*
X129255000Y-86055002D01*
X128060002Y-91000000D02*
X126500000Y-91000000D01*
X129660002Y-89400000D02*
X128060002Y-91000000D01*
X130500000Y-89400000D02*
X129660002Y-89400000D01*
%TO.N,IO15*%
X144180000Y-77000000D02*
X144000000Y-77000000D01*
X146400000Y-79220000D02*
X144180000Y-77000000D01*
X140400000Y-77000000D02*
X136800000Y-77000000D01*
X138145000Y-85779315D02*
X138145000Y-86755000D01*
X137365685Y-85000000D02*
X138145000Y-85779315D01*
X136800000Y-85000000D02*
X137365685Y-85000000D01*
%TO.N,IO4*%
X146400000Y-104620000D02*
X145920000Y-104620000D01*
X143502124Y-111500000D02*
X143500000Y-111500000D01*
X144500010Y-110502114D02*
X143502124Y-111500000D01*
X144500010Y-106519990D02*
X144500010Y-110502114D01*
X146400000Y-104620000D02*
X144500010Y-106519990D01*
X142215000Y-84500000D02*
X142200000Y-84485000D01*
X143200000Y-84500000D02*
X142215000Y-84500000D01*
%TO.N,IO5*%
X142025000Y-80500000D02*
X127900000Y-80500000D01*
X142200000Y-80675000D02*
X142025000Y-80500000D01*
X123872970Y-90110010D02*
X121730010Y-90110010D01*
X121730010Y-90110010D02*
X121000000Y-89380000D01*
X123882980Y-90100000D02*
X123872970Y-90110010D01*
X127850000Y-90100000D02*
X123882980Y-90100000D01*
%TO.N,IO18*%
X143060000Y-86840000D02*
X143000000Y-86900000D01*
X146400000Y-86840000D02*
X143060000Y-86840000D01*
X141980002Y-79624998D02*
X142200000Y-79405000D01*
X141200000Y-79624998D02*
X141980002Y-79624998D01*
%TO.N,IO19*%
X146120011Y-91920000D02*
X145500011Y-91300000D01*
X146400000Y-91920000D02*
X146120011Y-91920000D01*
X142265000Y-78200000D02*
X142200000Y-78135000D01*
X143500000Y-78200000D02*
X142265000Y-78200000D01*
%TO.N,IO22*%
X144250001Y-94850001D02*
X144250001Y-89619999D01*
X146400000Y-97000000D02*
X144250001Y-94850001D01*
X140600000Y-87400000D02*
X140215001Y-87015001D01*
X139510002Y-84700000D02*
X138550000Y-84700000D01*
X140215001Y-85404999D02*
X139510002Y-84700000D01*
X140215001Y-87015001D02*
X140215001Y-85404999D01*
X142185000Y-71800000D02*
X142200000Y-71785000D01*
X138600000Y-71800000D02*
X142185000Y-71800000D01*
X141510005Y-87400000D02*
X140600000Y-87400000D01*
X142595004Y-88484999D02*
X141510005Y-87400000D01*
X143115001Y-88484999D02*
X142595004Y-88484999D01*
X144250001Y-89619999D02*
X143115001Y-88484999D01*
%TO.N,IO23*%
X142215000Y-70500000D02*
X142200000Y-70515000D01*
X143500000Y-70500000D02*
X142215000Y-70500000D01*
%TD*%
M02*
