%TF.GenerationSoftware,KiCad,Pcbnew,(5.1.8-0-10_14)*%
%TF.CreationDate,2020-11-25T23:02:11+09:00*%
%TF.ProjectId,mini-esp32,6d696e69-2d65-4737-9033-322e6b696361,rev?*%
%TF.SameCoordinates,Original*%
%TF.FileFunction,Copper,L3,Inr*%
%TF.FilePolarity,Positive*%
%FSLAX46Y46*%
G04 Gerber Fmt 4.6, Leading zero omitted, Abs format (unit mm)*
G04 Created by KiCad (PCBNEW (5.1.8-0-10_14)) date 2020-11-25 23:02:11*
%MOMM*%
%LPD*%
G01*
G04 APERTURE LIST*
%TA.AperFunction,ComponentPad*%
%ADD10O,1.300000X2.200000*%
%TD*%
%TA.AperFunction,ComponentPad*%
%ADD11C,1.200000*%
%TD*%
%TA.AperFunction,ComponentPad*%
%ADD12O,1.700000X1.700000*%
%TD*%
%TA.AperFunction,ComponentPad*%
%ADD13R,1.700000X1.700000*%
%TD*%
%TA.AperFunction,ViaPad*%
%ADD14C,1.600000*%
%TD*%
%TA.AperFunction,ViaPad*%
%ADD15C,0.800000*%
%TD*%
%TA.AperFunction,Conductor*%
%ADD16C,0.254000*%
%TD*%
%TA.AperFunction,Conductor*%
%ADD17C,0.100000*%
%TD*%
G04 APERTURE END LIST*
D10*
%TO.N,N/C*%
%TO.C,J2*%
X141628000Y-118198000D03*
X134389000Y-118198000D03*
D11*
X135584000Y-115498000D03*
X140434000Y-115498000D03*
%TD*%
D12*
%TO.N,VBUS*%
%TO.C,J5*%
X121000000Y-112240000D03*
%TO.N,VDD*%
X121000000Y-109700000D03*
%TO.N,Net-(J5-Pad16)*%
X121000000Y-107160000D03*
%TO.N,GND*%
X121000000Y-104620000D03*
%TO.N,+BATT*%
X121000000Y-102080000D03*
%TO.N,EN*%
X121000000Y-99540000D03*
%TO.N,Net-(J5-Pad12)*%
X121000000Y-97000000D03*
%TO.N,Net-(J5-Pad11)*%
X121000000Y-94460000D03*
%TO.N,IO2*%
X121000000Y-91920000D03*
%TO.N,IO5*%
X121000000Y-89380000D03*
%TO.N,IO13*%
X121000000Y-86840000D03*
%TO.N,IO33*%
X121000000Y-84300000D03*
%TO.N,IO32*%
X121000000Y-81760000D03*
%TO.N,IO27*%
X121000000Y-79220000D03*
%TO.N,IO26_DAC2*%
X121000000Y-76680000D03*
%TO.N,IO25_DAC1*%
X121000000Y-74140000D03*
%TO.N,TXD0*%
X121000000Y-71600000D03*
D13*
%TO.N,RXD0*%
X121000000Y-69060000D03*
%TD*%
%TO.N,I36*%
%TO.C,J6*%
X146400000Y-69060000D03*
D12*
%TO.N,I39*%
X146400000Y-71600000D03*
%TO.N,I34*%
X146400000Y-74140000D03*
%TO.N,I35*%
X146400000Y-76680000D03*
%TO.N,IO15*%
X146400000Y-79220000D03*
%TO.N,Net-(J6-Pad6)*%
X146400000Y-81760000D03*
%TO.N,GPIO0*%
X146400000Y-84300000D03*
%TO.N,IO18*%
X146400000Y-86840000D03*
%TO.N,IO23*%
X146400000Y-89380000D03*
%TO.N,IO19*%
X146400000Y-91920000D03*
%TO.N,IO21*%
X146400000Y-94460000D03*
%TO.N,IO22*%
X146400000Y-97000000D03*
%TO.N,IO14*%
X146400000Y-99540000D03*
%TO.N,IO12*%
X146400000Y-102080000D03*
%TO.N,IO4*%
X146400000Y-104620000D03*
%TO.N,IO16*%
X146400000Y-107160000D03*
%TO.N,IO17*%
X146400000Y-109700000D03*
%TO.N,RESET*%
X146400000Y-112240000D03*
%TD*%
D14*
%TO.N,GND*%
X132700000Y-76700000D03*
D15*
X139350000Y-112600000D03*
X138800000Y-113100000D03*
X129350000Y-84850000D03*
X140200000Y-69950000D03*
X124000000Y-68700000D03*
X126400000Y-68700000D03*
X122900000Y-91250000D03*
X128200000Y-95050000D03*
X125500000Y-99750000D03*
X127850000Y-89150000D03*
X139350000Y-98600000D03*
X125100000Y-95149988D03*
X138889366Y-94696544D03*
X129621783Y-92910010D03*
X138600000Y-100600000D03*
X131643693Y-90483510D03*
X130799984Y-90680000D03*
X130400000Y-97200000D03*
X131200000Y-97200000D03*
X133050000Y-97800000D03*
X128009135Y-97322738D03*
X128800008Y-97700008D03*
X123450022Y-96900000D03*
X124199996Y-89000004D03*
X124800012Y-88200022D03*
X128100000Y-111600000D03*
X127200000Y-111600000D03*
X128100000Y-112500000D03*
X127200000Y-112500000D03*
X124280796Y-103796939D03*
X134000000Y-98400008D03*
X131350000Y-98600000D03*
X137950021Y-111200000D03*
X135300000Y-106600000D03*
X134500000Y-108200000D03*
X135500000Y-104100000D03*
X134500000Y-110700000D03*
%TO.N,VDD*%
X144972382Y-96746209D03*
X123900000Y-70650000D03*
X126149567Y-70734999D03*
X130150000Y-88913227D03*
X125982232Y-88203696D03*
X125565857Y-87339885D03*
X122700000Y-88000002D03*
X130900000Y-88855025D03*
%TO.N,RESET*%
X133100000Y-71800000D03*
X141797816Y-88581181D03*
X141334814Y-95381997D03*
X134000000Y-96200000D03*
%TO.N,Net-(D2-Pad1)*%
X126100000Y-97800000D03*
X123746147Y-99306822D03*
%TO.N,VBUS*%
X135128295Y-94309089D03*
X136793910Y-113166766D03*
%TO.N,EN*%
X127590000Y-93180000D03*
X132500000Y-91350077D03*
X123100000Y-105900000D03*
%TO.N,IO21*%
X137600000Y-83000000D03*
X137600000Y-75600000D03*
%TO.N,IO17*%
X134100000Y-81350000D03*
X134100000Y-114800000D03*
%TO.N,IO16*%
X140100000Y-113800000D03*
X140100000Y-83200000D03*
%TO.N,GPIO0*%
X141500000Y-85700000D03*
X141133807Y-87833441D03*
%TO.N,DTR*%
X142900000Y-105100000D03*
X143047817Y-94610319D03*
X142768316Y-90450001D03*
%TO.N,RTS*%
X142150000Y-103800000D03*
X142150000Y-93800000D03*
X141350000Y-92450002D03*
X143550000Y-89250000D03*
%TO.N,Net-(R4-Pad1)*%
X124000000Y-100800000D03*
X129100000Y-100850000D03*
%TO.N,TXD0*%
X128900000Y-74600000D03*
X135900000Y-73000000D03*
X137003238Y-98146762D03*
%TO.N,RXD0*%
X127050000Y-70300000D03*
X134800000Y-73600000D03*
X134800000Y-70300000D03*
X137112310Y-99316510D03*
%TO.N,IO2*%
X128600000Y-82100000D03*
X139300000Y-82100000D03*
X139300000Y-85600000D03*
X124867831Y-92217831D03*
X128050000Y-90950000D03*
%TO.N,I35*%
X139400000Y-77750000D03*
X127189998Y-76865000D03*
X124610002Y-93840000D03*
X144000000Y-75400000D03*
X123551496Y-95901315D03*
%TO.N,I36*%
X128800000Y-68500000D03*
X128800000Y-73100000D03*
%TO.N,I39*%
X144000000Y-69200000D03*
X139400000Y-69200000D03*
X127800000Y-69200000D03*
X127800000Y-74300000D03*
%TO.N,I34*%
X139400000Y-71050000D03*
X129700000Y-71050000D03*
X129599998Y-75600000D03*
X143800000Y-73000000D03*
%TO.N,IO32*%
X126400000Y-78100000D03*
%TO.N,IO33*%
X126400000Y-79400000D03*
%TO.N,IO14*%
X138350000Y-88376087D03*
X138500000Y-96500012D03*
%TO.N,IO12*%
X137600000Y-84100000D03*
X139350000Y-97300000D03*
%TO.N,IO13*%
X130500000Y-84900000D03*
X126500000Y-91000000D03*
X129400000Y-90900000D03*
%TO.N,IO15*%
X140400000Y-77000000D03*
X136800000Y-77000000D03*
X136800000Y-85000000D03*
X144199994Y-78000000D03*
%TO.N,IO4*%
X143500000Y-111500000D03*
X143200000Y-84500000D03*
%TO.N,IO5*%
X126900000Y-80500000D03*
X122047000Y-85699600D03*
%TO.N,IO18*%
X141200000Y-79624998D03*
X143029123Y-86870928D03*
%TO.N,IO19*%
X145537471Y-91337449D03*
X143266527Y-78358693D03*
%TO.N,IO22*%
X138550000Y-84700000D03*
X138600000Y-71800000D03*
%TO.N,IO23*%
X143500000Y-70500000D03*
%TO.N,CH340_VCC*%
X136850000Y-89300000D03*
X138400000Y-99400000D03*
X144000000Y-100799998D03*
%TO.N,VCC*%
X132300000Y-100300000D03*
X132200000Y-93600000D03*
%TD*%
D16*
%TO.N,VDD*%
X123082795Y-68209744D02*
X123004774Y-68398102D01*
X122965000Y-68598061D01*
X122965000Y-68801939D01*
X123004774Y-69001898D01*
X123082795Y-69190256D01*
X123196063Y-69359774D01*
X123340226Y-69503937D01*
X123509744Y-69617205D01*
X123698102Y-69695226D01*
X123898061Y-69735000D01*
X124101939Y-69735000D01*
X124301898Y-69695226D01*
X124490256Y-69617205D01*
X124659774Y-69503937D01*
X124803937Y-69359774D01*
X124917205Y-69190256D01*
X124995226Y-69001898D01*
X125035000Y-68801939D01*
X125035000Y-68598061D01*
X124995226Y-68398102D01*
X124917205Y-68209744D01*
X124861917Y-68127000D01*
X125538083Y-68127000D01*
X125482795Y-68209744D01*
X125404774Y-68398102D01*
X125365000Y-68598061D01*
X125365000Y-68801939D01*
X125404774Y-69001898D01*
X125482795Y-69190256D01*
X125596063Y-69359774D01*
X125740226Y-69503937D01*
X125909744Y-69617205D01*
X126098102Y-69695226D01*
X126196266Y-69714752D01*
X126132795Y-69809744D01*
X126054774Y-69998102D01*
X126015000Y-70198061D01*
X126015000Y-70401939D01*
X126054774Y-70601898D01*
X126132795Y-70790256D01*
X126246063Y-70959774D01*
X126390226Y-71103937D01*
X126559744Y-71217205D01*
X126748102Y-71295226D01*
X126948061Y-71335000D01*
X127151939Y-71335000D01*
X127351898Y-71295226D01*
X127540256Y-71217205D01*
X127709774Y-71103937D01*
X127853937Y-70959774D01*
X127861763Y-70948061D01*
X128665000Y-70948061D01*
X128665000Y-71151939D01*
X128704774Y-71351898D01*
X128782795Y-71540256D01*
X128896063Y-71709774D01*
X129040226Y-71853937D01*
X129209744Y-71967205D01*
X129398102Y-72045226D01*
X129598061Y-72085000D01*
X129801939Y-72085000D01*
X130001898Y-72045226D01*
X130190256Y-71967205D01*
X130359774Y-71853937D01*
X130503937Y-71709774D01*
X130511763Y-71698061D01*
X132065000Y-71698061D01*
X132065000Y-71901939D01*
X132104774Y-72101898D01*
X132182795Y-72290256D01*
X132296063Y-72459774D01*
X132440226Y-72603937D01*
X132609744Y-72717205D01*
X132798102Y-72795226D01*
X132998061Y-72835000D01*
X133201939Y-72835000D01*
X133401898Y-72795226D01*
X133590256Y-72717205D01*
X133759774Y-72603937D01*
X133903937Y-72459774D01*
X134017205Y-72290256D01*
X134095226Y-72101898D01*
X134135000Y-71901939D01*
X134135000Y-71698061D01*
X137565000Y-71698061D01*
X137565000Y-71901939D01*
X137604774Y-72101898D01*
X137682795Y-72290256D01*
X137796063Y-72459774D01*
X137940226Y-72603937D01*
X138109744Y-72717205D01*
X138298102Y-72795226D01*
X138498061Y-72835000D01*
X138701939Y-72835000D01*
X138901898Y-72795226D01*
X139090256Y-72717205D01*
X139259774Y-72603937D01*
X139403937Y-72459774D01*
X139517205Y-72290256D01*
X139595226Y-72101898D01*
X139602569Y-72064984D01*
X139701898Y-72045226D01*
X139890256Y-71967205D01*
X140059774Y-71853937D01*
X140203937Y-71709774D01*
X140317205Y-71540256D01*
X140395226Y-71351898D01*
X140435000Y-71151939D01*
X140435000Y-70958533D01*
X140501898Y-70945226D01*
X140690256Y-70867205D01*
X140859774Y-70753937D01*
X141003937Y-70609774D01*
X141117205Y-70440256D01*
X141195226Y-70251898D01*
X141235000Y-70051939D01*
X141235000Y-69848061D01*
X141195226Y-69648102D01*
X141117205Y-69459744D01*
X141003937Y-69290226D01*
X140859774Y-69146063D01*
X140690256Y-69032795D01*
X140501898Y-68954774D01*
X140402569Y-68935016D01*
X140395226Y-68898102D01*
X140317205Y-68709744D01*
X140203937Y-68540226D01*
X140059774Y-68396063D01*
X139890256Y-68282795D01*
X139701898Y-68204774D01*
X139501939Y-68165000D01*
X139298061Y-68165000D01*
X139098102Y-68204774D01*
X138909744Y-68282795D01*
X138740226Y-68396063D01*
X138596063Y-68540226D01*
X138482795Y-68709744D01*
X138404774Y-68898102D01*
X138365000Y-69098061D01*
X138365000Y-69301939D01*
X138404774Y-69501898D01*
X138482795Y-69690256D01*
X138596063Y-69859774D01*
X138740226Y-70003937D01*
X138909744Y-70117205D01*
X138928563Y-70125000D01*
X138909744Y-70132795D01*
X138740226Y-70246063D01*
X138596063Y-70390226D01*
X138482795Y-70559744D01*
X138404774Y-70748102D01*
X138397431Y-70785016D01*
X138298102Y-70804774D01*
X138109744Y-70882795D01*
X137940226Y-70996063D01*
X137796063Y-71140226D01*
X137682795Y-71309744D01*
X137604774Y-71498102D01*
X137565000Y-71698061D01*
X134135000Y-71698061D01*
X134095226Y-71498102D01*
X134017205Y-71309744D01*
X133903937Y-71140226D01*
X133759774Y-70996063D01*
X133590256Y-70882795D01*
X133401898Y-70804774D01*
X133201939Y-70765000D01*
X132998061Y-70765000D01*
X132798102Y-70804774D01*
X132609744Y-70882795D01*
X132440226Y-70996063D01*
X132296063Y-71140226D01*
X132182795Y-71309744D01*
X132104774Y-71498102D01*
X132065000Y-71698061D01*
X130511763Y-71698061D01*
X130617205Y-71540256D01*
X130695226Y-71351898D01*
X130735000Y-71151939D01*
X130735000Y-70948061D01*
X130695226Y-70748102D01*
X130617205Y-70559744D01*
X130503937Y-70390226D01*
X130359774Y-70246063D01*
X130287934Y-70198061D01*
X133765000Y-70198061D01*
X133765000Y-70401939D01*
X133804774Y-70601898D01*
X133882795Y-70790256D01*
X133996063Y-70959774D01*
X134140226Y-71103937D01*
X134309744Y-71217205D01*
X134498102Y-71295226D01*
X134698061Y-71335000D01*
X134901939Y-71335000D01*
X135101898Y-71295226D01*
X135290256Y-71217205D01*
X135459774Y-71103937D01*
X135603937Y-70959774D01*
X135717205Y-70790256D01*
X135795226Y-70601898D01*
X135835000Y-70401939D01*
X135835000Y-70198061D01*
X135795226Y-69998102D01*
X135717205Y-69809744D01*
X135603937Y-69640226D01*
X135459774Y-69496063D01*
X135290256Y-69382795D01*
X135101898Y-69304774D01*
X134901939Y-69265000D01*
X134698061Y-69265000D01*
X134498102Y-69304774D01*
X134309744Y-69382795D01*
X134140226Y-69496063D01*
X133996063Y-69640226D01*
X133882795Y-69809744D01*
X133804774Y-69998102D01*
X133765000Y-70198061D01*
X130287934Y-70198061D01*
X130190256Y-70132795D01*
X130001898Y-70054774D01*
X129801939Y-70015000D01*
X129598061Y-70015000D01*
X129398102Y-70054774D01*
X129209744Y-70132795D01*
X129040226Y-70246063D01*
X128896063Y-70390226D01*
X128782795Y-70559744D01*
X128704774Y-70748102D01*
X128665000Y-70948061D01*
X127861763Y-70948061D01*
X127967205Y-70790256D01*
X128045226Y-70601898D01*
X128085000Y-70401939D01*
X128085000Y-70198587D01*
X128101898Y-70195226D01*
X128290256Y-70117205D01*
X128459774Y-70003937D01*
X128603937Y-69859774D01*
X128717205Y-69690256D01*
X128781515Y-69535000D01*
X128901939Y-69535000D01*
X129101898Y-69495226D01*
X129290256Y-69417205D01*
X129459774Y-69303937D01*
X129603937Y-69159774D01*
X129717205Y-68990256D01*
X129795226Y-68801898D01*
X129835000Y-68601939D01*
X129835000Y-68398061D01*
X129795226Y-68198102D01*
X129765774Y-68127000D01*
X144920103Y-68127000D01*
X144911928Y-68210000D01*
X144911928Y-68701846D01*
X144803937Y-68540226D01*
X144659774Y-68396063D01*
X144490256Y-68282795D01*
X144301898Y-68204774D01*
X144101939Y-68165000D01*
X143898061Y-68165000D01*
X143698102Y-68204774D01*
X143509744Y-68282795D01*
X143340226Y-68396063D01*
X143196063Y-68540226D01*
X143082795Y-68709744D01*
X143004774Y-68898102D01*
X142965000Y-69098061D01*
X142965000Y-69301939D01*
X143004774Y-69501898D01*
X143034103Y-69572705D01*
X143009744Y-69582795D01*
X142840226Y-69696063D01*
X142696063Y-69840226D01*
X142582795Y-70009744D01*
X142504774Y-70198102D01*
X142465000Y-70398061D01*
X142465000Y-70601939D01*
X142504774Y-70801898D01*
X142582795Y-70990256D01*
X142696063Y-71159774D01*
X142840226Y-71303937D01*
X143009744Y-71417205D01*
X143198102Y-71495226D01*
X143398061Y-71535000D01*
X143601939Y-71535000D01*
X143801898Y-71495226D01*
X143990256Y-71417205D01*
X144159774Y-71303937D01*
X144303937Y-71159774D01*
X144417205Y-70990256D01*
X144495226Y-70801898D01*
X144535000Y-70601939D01*
X144535000Y-70398061D01*
X144495226Y-70198102D01*
X144465897Y-70127295D01*
X144490256Y-70117205D01*
X144659774Y-70003937D01*
X144803937Y-69859774D01*
X144911928Y-69698154D01*
X144911928Y-69910000D01*
X144924188Y-70034482D01*
X144960498Y-70154180D01*
X145019463Y-70264494D01*
X145098815Y-70361185D01*
X145195506Y-70440537D01*
X145305820Y-70499502D01*
X145378380Y-70521513D01*
X145246525Y-70653368D01*
X145084010Y-70896589D01*
X144972068Y-71166842D01*
X144915000Y-71453740D01*
X144915000Y-71746260D01*
X144972068Y-72033158D01*
X145084010Y-72303411D01*
X145246525Y-72546632D01*
X145453368Y-72753475D01*
X145627760Y-72870000D01*
X145453368Y-72986525D01*
X145246525Y-73193368D01*
X145084010Y-73436589D01*
X144972068Y-73706842D01*
X144915000Y-73993740D01*
X144915000Y-74286260D01*
X144972068Y-74573158D01*
X145084010Y-74843411D01*
X145246525Y-75086632D01*
X145453368Y-75293475D01*
X145627760Y-75410000D01*
X145453368Y-75526525D01*
X145246525Y-75733368D01*
X145084010Y-75976589D01*
X144972068Y-76246842D01*
X144915000Y-76533740D01*
X144915000Y-76826260D01*
X144972068Y-77113158D01*
X145084010Y-77383411D01*
X145246525Y-77626632D01*
X145453368Y-77833475D01*
X145627760Y-77950000D01*
X145453368Y-78066525D01*
X145246525Y-78273368D01*
X145142633Y-78428854D01*
X145195220Y-78301898D01*
X145234994Y-78101939D01*
X145234994Y-77898061D01*
X145195220Y-77698102D01*
X145117199Y-77509744D01*
X145003931Y-77340226D01*
X144859768Y-77196063D01*
X144690250Y-77082795D01*
X144501892Y-77004774D01*
X144301933Y-76965000D01*
X144098055Y-76965000D01*
X143898096Y-77004774D01*
X143709738Y-77082795D01*
X143540220Y-77196063D01*
X143405269Y-77331014D01*
X143368466Y-77323693D01*
X143164588Y-77323693D01*
X142964629Y-77363467D01*
X142776271Y-77441488D01*
X142606753Y-77554756D01*
X142462590Y-77698919D01*
X142349322Y-77868437D01*
X142271301Y-78056795D01*
X142231527Y-78256754D01*
X142231527Y-78460632D01*
X142271301Y-78660591D01*
X142349322Y-78848949D01*
X142462590Y-79018467D01*
X142606753Y-79162630D01*
X142776271Y-79275898D01*
X142964629Y-79353919D01*
X143164588Y-79393693D01*
X143368466Y-79393693D01*
X143568425Y-79353919D01*
X143756783Y-79275898D01*
X143926301Y-79162630D01*
X144061252Y-79027679D01*
X144098055Y-79035000D01*
X144301933Y-79035000D01*
X144501892Y-78995226D01*
X144690250Y-78917205D01*
X144859768Y-78803937D01*
X145003931Y-78659774D01*
X145058577Y-78577991D01*
X144972068Y-78786842D01*
X144915000Y-79073740D01*
X144915000Y-79366260D01*
X144972068Y-79653158D01*
X145084010Y-79923411D01*
X145246525Y-80166632D01*
X145453368Y-80373475D01*
X145627760Y-80490000D01*
X145453368Y-80606525D01*
X145246525Y-80813368D01*
X145084010Y-81056589D01*
X144972068Y-81326842D01*
X144915000Y-81613740D01*
X144915000Y-81906260D01*
X144972068Y-82193158D01*
X145084010Y-82463411D01*
X145246525Y-82706632D01*
X145453368Y-82913475D01*
X145627760Y-83030000D01*
X145453368Y-83146525D01*
X145246525Y-83353368D01*
X145084010Y-83596589D01*
X144972068Y-83866842D01*
X144915000Y-84153740D01*
X144915000Y-84446260D01*
X144972068Y-84733158D01*
X145084010Y-85003411D01*
X145246525Y-85246632D01*
X145453368Y-85453475D01*
X145627760Y-85570000D01*
X145453368Y-85686525D01*
X145246525Y-85893368D01*
X145084010Y-86136589D01*
X144972068Y-86406842D01*
X144915000Y-86693740D01*
X144915000Y-86986260D01*
X144972068Y-87273158D01*
X145084010Y-87543411D01*
X145246525Y-87786632D01*
X145453368Y-87993475D01*
X145627760Y-88110000D01*
X145453368Y-88226525D01*
X145246525Y-88433368D01*
X145084010Y-88676589D01*
X144972068Y-88946842D01*
X144915000Y-89233740D01*
X144915000Y-89526260D01*
X144972068Y-89813158D01*
X145084010Y-90083411D01*
X145246525Y-90326632D01*
X145257712Y-90337819D01*
X145235573Y-90342223D01*
X145047215Y-90420244D01*
X144877697Y-90533512D01*
X144733534Y-90677675D01*
X144620266Y-90847193D01*
X144542245Y-91035551D01*
X144502471Y-91235510D01*
X144502471Y-91439388D01*
X144542245Y-91639347D01*
X144620266Y-91827705D01*
X144733534Y-91997223D01*
X144877697Y-92141386D01*
X144937952Y-92181647D01*
X144972068Y-92353158D01*
X145084010Y-92623411D01*
X145246525Y-92866632D01*
X145453368Y-93073475D01*
X145627760Y-93190000D01*
X145453368Y-93306525D01*
X145246525Y-93513368D01*
X145084010Y-93756589D01*
X144972068Y-94026842D01*
X144915000Y-94313740D01*
X144915000Y-94606260D01*
X144972068Y-94893158D01*
X145084010Y-95163411D01*
X145246525Y-95406632D01*
X145453368Y-95613475D01*
X145627760Y-95730000D01*
X145453368Y-95846525D01*
X145246525Y-96053368D01*
X145084010Y-96296589D01*
X144972068Y-96566842D01*
X144915000Y-96853740D01*
X144915000Y-97146260D01*
X144972068Y-97433158D01*
X145084010Y-97703411D01*
X145246525Y-97946632D01*
X145453368Y-98153475D01*
X145627760Y-98270000D01*
X145453368Y-98386525D01*
X145246525Y-98593368D01*
X145084010Y-98836589D01*
X144972068Y-99106842D01*
X144915000Y-99393740D01*
X144915000Y-99686260D01*
X144972068Y-99973158D01*
X145084010Y-100243411D01*
X145246525Y-100486632D01*
X145453368Y-100693475D01*
X145627760Y-100810000D01*
X145453368Y-100926525D01*
X145246525Y-101133368D01*
X145084010Y-101376589D01*
X144972068Y-101646842D01*
X144915000Y-101933740D01*
X144915000Y-102226260D01*
X144972068Y-102513158D01*
X145084010Y-102783411D01*
X145246525Y-103026632D01*
X145453368Y-103233475D01*
X145627760Y-103350000D01*
X145453368Y-103466525D01*
X145246525Y-103673368D01*
X145084010Y-103916589D01*
X144972068Y-104186842D01*
X144915000Y-104473740D01*
X144915000Y-104766260D01*
X144972068Y-105053158D01*
X145084010Y-105323411D01*
X145246525Y-105566632D01*
X145453368Y-105773475D01*
X145627760Y-105890000D01*
X145453368Y-106006525D01*
X145246525Y-106213368D01*
X145084010Y-106456589D01*
X144972068Y-106726842D01*
X144915000Y-107013740D01*
X144915000Y-107306260D01*
X144972068Y-107593158D01*
X145084010Y-107863411D01*
X145246525Y-108106632D01*
X145453368Y-108313475D01*
X145627760Y-108430000D01*
X145453368Y-108546525D01*
X145246525Y-108753368D01*
X145084010Y-108996589D01*
X144972068Y-109266842D01*
X144915000Y-109553740D01*
X144915000Y-109846260D01*
X144972068Y-110133158D01*
X145084010Y-110403411D01*
X145246525Y-110646632D01*
X145453368Y-110853475D01*
X145627760Y-110970000D01*
X145453368Y-111086525D01*
X145246525Y-111293368D01*
X145084010Y-111536589D01*
X144972068Y-111806842D01*
X144915000Y-112093740D01*
X144915000Y-112386260D01*
X144972068Y-112673158D01*
X145084010Y-112943411D01*
X145246525Y-113186632D01*
X145453368Y-113393475D01*
X145696589Y-113555990D01*
X145966842Y-113667932D01*
X146253740Y-113725000D01*
X146546260Y-113725000D01*
X146833158Y-113667932D01*
X147103411Y-113555990D01*
X147346632Y-113393475D01*
X147540000Y-113200107D01*
X147540000Y-116010856D01*
X147358363Y-115739017D01*
X147060983Y-115441637D01*
X146711302Y-115207988D01*
X146322756Y-115047047D01*
X145910279Y-114965000D01*
X145489721Y-114965000D01*
X145077244Y-115047047D01*
X144688698Y-115207988D01*
X144339017Y-115441637D01*
X144041637Y-115739017D01*
X143807988Y-116088698D01*
X143647047Y-116477244D01*
X143565000Y-116889721D01*
X143565000Y-117310279D01*
X143647047Y-117722756D01*
X143807988Y-118111302D01*
X144041637Y-118460983D01*
X144339017Y-118758363D01*
X144610856Y-118940000D01*
X142882244Y-118940000D01*
X142894407Y-118899904D01*
X142913000Y-118711122D01*
X142913000Y-117684877D01*
X142894407Y-117496096D01*
X142820929Y-117253873D01*
X142701608Y-117030638D01*
X142541028Y-116834972D01*
X142345361Y-116674392D01*
X142122126Y-116555071D01*
X141879903Y-116481593D01*
X141628000Y-116456783D01*
X141376096Y-116481593D01*
X141133873Y-116555071D01*
X140910638Y-116674392D01*
X140714972Y-116834972D01*
X140554392Y-117030639D01*
X140435071Y-117253874D01*
X140361593Y-117496097D01*
X140343000Y-117684878D01*
X140343000Y-118711123D01*
X140361593Y-118899904D01*
X140373756Y-118940000D01*
X135643244Y-118940000D01*
X135655407Y-118899904D01*
X135674000Y-118711122D01*
X135674000Y-117684877D01*
X135655407Y-117496096D01*
X135581929Y-117253873D01*
X135462608Y-117030638D01*
X135302028Y-116834972D01*
X135106361Y-116674392D01*
X134883126Y-116555071D01*
X134640903Y-116481593D01*
X134389000Y-116456783D01*
X134137096Y-116481593D01*
X133894873Y-116555071D01*
X133671638Y-116674392D01*
X133475972Y-116834972D01*
X133315392Y-117030639D01*
X133196071Y-117253874D01*
X133122593Y-117496097D01*
X133104000Y-117684878D01*
X133104000Y-118711123D01*
X133122593Y-118899904D01*
X133134756Y-118940000D01*
X122789144Y-118940000D01*
X123060983Y-118758363D01*
X123358363Y-118460983D01*
X123592012Y-118111302D01*
X123752953Y-117722756D01*
X123835000Y-117310279D01*
X123835000Y-116889721D01*
X123752953Y-116477244D01*
X123592012Y-116088698D01*
X123358363Y-115739017D01*
X123060983Y-115441637D01*
X122711302Y-115207988D01*
X122322756Y-115047047D01*
X121910279Y-114965000D01*
X121489721Y-114965000D01*
X121077244Y-115047047D01*
X120688698Y-115207988D01*
X120339017Y-115441637D01*
X120041637Y-115739017D01*
X119860000Y-116010856D01*
X119860000Y-114698061D01*
X133065000Y-114698061D01*
X133065000Y-114901939D01*
X133104774Y-115101898D01*
X133182795Y-115290256D01*
X133296063Y-115459774D01*
X133440226Y-115603937D01*
X133609744Y-115717205D01*
X133798102Y-115795226D01*
X133998061Y-115835000D01*
X134201939Y-115835000D01*
X134384611Y-115798665D01*
X134396460Y-115858236D01*
X134489557Y-116082992D01*
X134624713Y-116285267D01*
X134796733Y-116457287D01*
X134999008Y-116592443D01*
X135223764Y-116685540D01*
X135462363Y-116733000D01*
X135705637Y-116733000D01*
X135944236Y-116685540D01*
X136168992Y-116592443D01*
X136371267Y-116457287D01*
X136543287Y-116285267D01*
X136678443Y-116082992D01*
X136771540Y-115858236D01*
X136819000Y-115619637D01*
X136819000Y-115376363D01*
X136771540Y-115137764D01*
X136678443Y-114913008D01*
X136543287Y-114710733D01*
X136371267Y-114538713D01*
X136168992Y-114403557D01*
X135944236Y-114310460D01*
X135705637Y-114263000D01*
X135462363Y-114263000D01*
X135223764Y-114310460D01*
X135047708Y-114383385D01*
X135017205Y-114309744D01*
X134903937Y-114140226D01*
X134759774Y-113996063D01*
X134590256Y-113882795D01*
X134401898Y-113804774D01*
X134201939Y-113765000D01*
X133998061Y-113765000D01*
X133798102Y-113804774D01*
X133609744Y-113882795D01*
X133440226Y-113996063D01*
X133296063Y-114140226D01*
X133182795Y-114309744D01*
X133104774Y-114498102D01*
X133065000Y-114698061D01*
X119860000Y-114698061D01*
X119860000Y-113200107D01*
X120053368Y-113393475D01*
X120296589Y-113555990D01*
X120566842Y-113667932D01*
X120853740Y-113725000D01*
X121146260Y-113725000D01*
X121433158Y-113667932D01*
X121703411Y-113555990D01*
X121946632Y-113393475D01*
X122153475Y-113186632D01*
X122315990Y-112943411D01*
X122427932Y-112673158D01*
X122485000Y-112386260D01*
X122485000Y-112093740D01*
X122427932Y-111806842D01*
X122315990Y-111536589D01*
X122290247Y-111498061D01*
X126165000Y-111498061D01*
X126165000Y-111701939D01*
X126204774Y-111901898D01*
X126266120Y-112050000D01*
X126204774Y-112198102D01*
X126165000Y-112398061D01*
X126165000Y-112601939D01*
X126204774Y-112801898D01*
X126282795Y-112990256D01*
X126396063Y-113159774D01*
X126540226Y-113303937D01*
X126709744Y-113417205D01*
X126898102Y-113495226D01*
X127098061Y-113535000D01*
X127301939Y-113535000D01*
X127501898Y-113495226D01*
X127650000Y-113433880D01*
X127798102Y-113495226D01*
X127998061Y-113535000D01*
X128201939Y-113535000D01*
X128401898Y-113495226D01*
X128590256Y-113417205D01*
X128759774Y-113303937D01*
X128903937Y-113159774D01*
X128967378Y-113064827D01*
X135758910Y-113064827D01*
X135758910Y-113268705D01*
X135798684Y-113468664D01*
X135876705Y-113657022D01*
X135989973Y-113826540D01*
X136134136Y-113970703D01*
X136303654Y-114083971D01*
X136492012Y-114161992D01*
X136691971Y-114201766D01*
X136895849Y-114201766D01*
X137095808Y-114161992D01*
X137284166Y-114083971D01*
X137453684Y-113970703D01*
X137597847Y-113826540D01*
X137711115Y-113657022D01*
X137789136Y-113468664D01*
X137803595Y-113395972D01*
X137804774Y-113401898D01*
X137882795Y-113590256D01*
X137996063Y-113759774D01*
X138140226Y-113903937D01*
X138309744Y-114017205D01*
X138498102Y-114095226D01*
X138698061Y-114135000D01*
X138901939Y-114135000D01*
X139101898Y-114095226D01*
X139103329Y-114094633D01*
X139104774Y-114101898D01*
X139182795Y-114290256D01*
X139296063Y-114459774D01*
X139440226Y-114603937D01*
X139524919Y-114660527D01*
X139474713Y-114710733D01*
X139339557Y-114913008D01*
X139246460Y-115137764D01*
X139199000Y-115376363D01*
X139199000Y-115619637D01*
X139246460Y-115858236D01*
X139339557Y-116082992D01*
X139474713Y-116285267D01*
X139646733Y-116457287D01*
X139849008Y-116592443D01*
X140073764Y-116685540D01*
X140312363Y-116733000D01*
X140555637Y-116733000D01*
X140794236Y-116685540D01*
X141018992Y-116592443D01*
X141221267Y-116457287D01*
X141393287Y-116285267D01*
X141528443Y-116082992D01*
X141621540Y-115858236D01*
X141669000Y-115619637D01*
X141669000Y-115376363D01*
X141621540Y-115137764D01*
X141528443Y-114913008D01*
X141393287Y-114710733D01*
X141221267Y-114538713D01*
X141018992Y-114403557D01*
X140958298Y-114378417D01*
X141017205Y-114290256D01*
X141095226Y-114101898D01*
X141135000Y-113901939D01*
X141135000Y-113698061D01*
X141095226Y-113498102D01*
X141017205Y-113309744D01*
X140903937Y-113140226D01*
X140759774Y-112996063D01*
X140590256Y-112882795D01*
X140401898Y-112804774D01*
X140365967Y-112797627D01*
X140385000Y-112701939D01*
X140385000Y-112498061D01*
X140345226Y-112298102D01*
X140267205Y-112109744D01*
X140153937Y-111940226D01*
X140009774Y-111796063D01*
X139840256Y-111682795D01*
X139651898Y-111604774D01*
X139451939Y-111565000D01*
X139248061Y-111565000D01*
X139048102Y-111604774D01*
X138872506Y-111677509D01*
X138945247Y-111501898D01*
X138965901Y-111398061D01*
X142465000Y-111398061D01*
X142465000Y-111601939D01*
X142504774Y-111801898D01*
X142582795Y-111990256D01*
X142696063Y-112159774D01*
X142840226Y-112303937D01*
X143009744Y-112417205D01*
X143198102Y-112495226D01*
X143398061Y-112535000D01*
X143601939Y-112535000D01*
X143801898Y-112495226D01*
X143990256Y-112417205D01*
X144159774Y-112303937D01*
X144303937Y-112159774D01*
X144417205Y-111990256D01*
X144495226Y-111801898D01*
X144535000Y-111601939D01*
X144535000Y-111398061D01*
X144495226Y-111198102D01*
X144417205Y-111009744D01*
X144303937Y-110840226D01*
X144159774Y-110696063D01*
X143990256Y-110582795D01*
X143801898Y-110504774D01*
X143601939Y-110465000D01*
X143398061Y-110465000D01*
X143198102Y-110504774D01*
X143009744Y-110582795D01*
X142840226Y-110696063D01*
X142696063Y-110840226D01*
X142582795Y-111009744D01*
X142504774Y-111198102D01*
X142465000Y-111398061D01*
X138965901Y-111398061D01*
X138985021Y-111301939D01*
X138985021Y-111098061D01*
X138945247Y-110898102D01*
X138867226Y-110709744D01*
X138753958Y-110540226D01*
X138609795Y-110396063D01*
X138440277Y-110282795D01*
X138251919Y-110204774D01*
X138051960Y-110165000D01*
X137848082Y-110165000D01*
X137648123Y-110204774D01*
X137459765Y-110282795D01*
X137290247Y-110396063D01*
X137146084Y-110540226D01*
X137032816Y-110709744D01*
X136954795Y-110898102D01*
X136915021Y-111098061D01*
X136915021Y-111301939D01*
X136954795Y-111501898D01*
X137032816Y-111690256D01*
X137146084Y-111859774D01*
X137290247Y-112003937D01*
X137459765Y-112117205D01*
X137648123Y-112195226D01*
X137848082Y-112235000D01*
X138051960Y-112235000D01*
X138251919Y-112195226D01*
X138427515Y-112122491D01*
X138421754Y-112136398D01*
X138309744Y-112182795D01*
X138140226Y-112296063D01*
X137996063Y-112440226D01*
X137882795Y-112609744D01*
X137804774Y-112798102D01*
X137790315Y-112870794D01*
X137789136Y-112864868D01*
X137711115Y-112676510D01*
X137597847Y-112506992D01*
X137453684Y-112362829D01*
X137284166Y-112249561D01*
X137095808Y-112171540D01*
X136895849Y-112131766D01*
X136691971Y-112131766D01*
X136492012Y-112171540D01*
X136303654Y-112249561D01*
X136134136Y-112362829D01*
X135989973Y-112506992D01*
X135876705Y-112676510D01*
X135798684Y-112864868D01*
X135758910Y-113064827D01*
X128967378Y-113064827D01*
X129017205Y-112990256D01*
X129095226Y-112801898D01*
X129135000Y-112601939D01*
X129135000Y-112398061D01*
X129095226Y-112198102D01*
X129033880Y-112050000D01*
X129095226Y-111901898D01*
X129135000Y-111701939D01*
X129135000Y-111498061D01*
X129095226Y-111298102D01*
X129017205Y-111109744D01*
X128903937Y-110940226D01*
X128759774Y-110796063D01*
X128590256Y-110682795D01*
X128401898Y-110604774D01*
X128368150Y-110598061D01*
X133465000Y-110598061D01*
X133465000Y-110801939D01*
X133504774Y-111001898D01*
X133582795Y-111190256D01*
X133696063Y-111359774D01*
X133840226Y-111503937D01*
X134009744Y-111617205D01*
X134198102Y-111695226D01*
X134398061Y-111735000D01*
X134601939Y-111735000D01*
X134801898Y-111695226D01*
X134990256Y-111617205D01*
X135159774Y-111503937D01*
X135303937Y-111359774D01*
X135417205Y-111190256D01*
X135495226Y-111001898D01*
X135535000Y-110801939D01*
X135535000Y-110598061D01*
X135495226Y-110398102D01*
X135417205Y-110209744D01*
X135303937Y-110040226D01*
X135159774Y-109896063D01*
X134990256Y-109782795D01*
X134801898Y-109704774D01*
X134601939Y-109665000D01*
X134398061Y-109665000D01*
X134198102Y-109704774D01*
X134009744Y-109782795D01*
X133840226Y-109896063D01*
X133696063Y-110040226D01*
X133582795Y-110209744D01*
X133504774Y-110398102D01*
X133465000Y-110598061D01*
X128368150Y-110598061D01*
X128201939Y-110565000D01*
X127998061Y-110565000D01*
X127798102Y-110604774D01*
X127650000Y-110666120D01*
X127501898Y-110604774D01*
X127301939Y-110565000D01*
X127098061Y-110565000D01*
X126898102Y-110604774D01*
X126709744Y-110682795D01*
X126540226Y-110796063D01*
X126396063Y-110940226D01*
X126282795Y-111109744D01*
X126204774Y-111298102D01*
X126165000Y-111498061D01*
X122290247Y-111498061D01*
X122153475Y-111293368D01*
X121946632Y-111086525D01*
X121764466Y-110964805D01*
X121881355Y-110895178D01*
X122097588Y-110700269D01*
X122271641Y-110466920D01*
X122396825Y-110204099D01*
X122441476Y-110056890D01*
X122320155Y-109827000D01*
X121127000Y-109827000D01*
X121127000Y-109847000D01*
X120873000Y-109847000D01*
X120873000Y-109827000D01*
X120853000Y-109827000D01*
X120853000Y-109573000D01*
X120873000Y-109573000D01*
X120873000Y-109553000D01*
X121127000Y-109553000D01*
X121127000Y-109573000D01*
X122320155Y-109573000D01*
X122441476Y-109343110D01*
X122396825Y-109195901D01*
X122271641Y-108933080D01*
X122097588Y-108699731D01*
X121881355Y-108504822D01*
X121764466Y-108435195D01*
X121946632Y-108313475D01*
X122153475Y-108106632D01*
X122159201Y-108098061D01*
X133465000Y-108098061D01*
X133465000Y-108301939D01*
X133504774Y-108501898D01*
X133582795Y-108690256D01*
X133696063Y-108859774D01*
X133840226Y-109003937D01*
X134009744Y-109117205D01*
X134198102Y-109195226D01*
X134398061Y-109235000D01*
X134601939Y-109235000D01*
X134801898Y-109195226D01*
X134990256Y-109117205D01*
X135159774Y-109003937D01*
X135303937Y-108859774D01*
X135417205Y-108690256D01*
X135495226Y-108501898D01*
X135535000Y-108301939D01*
X135535000Y-108098061D01*
X135495226Y-107898102D01*
X135417205Y-107709744D01*
X135367263Y-107635000D01*
X135401939Y-107635000D01*
X135601898Y-107595226D01*
X135790256Y-107517205D01*
X135959774Y-107403937D01*
X136103937Y-107259774D01*
X136217205Y-107090256D01*
X136295226Y-106901898D01*
X136335000Y-106701939D01*
X136335000Y-106498061D01*
X136295226Y-106298102D01*
X136217205Y-106109744D01*
X136103937Y-105940226D01*
X135959774Y-105796063D01*
X135790256Y-105682795D01*
X135601898Y-105604774D01*
X135401939Y-105565000D01*
X135198061Y-105565000D01*
X134998102Y-105604774D01*
X134809744Y-105682795D01*
X134640226Y-105796063D01*
X134496063Y-105940226D01*
X134382795Y-106109744D01*
X134304774Y-106298102D01*
X134265000Y-106498061D01*
X134265000Y-106701939D01*
X134304774Y-106901898D01*
X134382795Y-107090256D01*
X134432737Y-107165000D01*
X134398061Y-107165000D01*
X134198102Y-107204774D01*
X134009744Y-107282795D01*
X133840226Y-107396063D01*
X133696063Y-107540226D01*
X133582795Y-107709744D01*
X133504774Y-107898102D01*
X133465000Y-108098061D01*
X122159201Y-108098061D01*
X122315990Y-107863411D01*
X122427932Y-107593158D01*
X122485000Y-107306260D01*
X122485000Y-107013740D01*
X122427932Y-106726842D01*
X122403043Y-106666754D01*
X122440226Y-106703937D01*
X122609744Y-106817205D01*
X122798102Y-106895226D01*
X122998061Y-106935000D01*
X123201939Y-106935000D01*
X123401898Y-106895226D01*
X123590256Y-106817205D01*
X123759774Y-106703937D01*
X123903937Y-106559774D01*
X124017205Y-106390256D01*
X124095226Y-106201898D01*
X124135000Y-106001939D01*
X124135000Y-105798061D01*
X124095226Y-105598102D01*
X124017205Y-105409744D01*
X123903937Y-105240226D01*
X123759774Y-105096063D01*
X123590256Y-104982795D01*
X123401898Y-104904774D01*
X123201939Y-104865000D01*
X122998061Y-104865000D01*
X122798102Y-104904774D01*
X122609744Y-104982795D01*
X122440226Y-105096063D01*
X122388901Y-105147388D01*
X122427932Y-105053158D01*
X122485000Y-104766260D01*
X122485000Y-104473740D01*
X122427932Y-104186842D01*
X122315990Y-103916589D01*
X122167930Y-103695000D01*
X123245796Y-103695000D01*
X123245796Y-103898878D01*
X123285570Y-104098837D01*
X123363591Y-104287195D01*
X123476859Y-104456713D01*
X123621022Y-104600876D01*
X123790540Y-104714144D01*
X123978898Y-104792165D01*
X124178857Y-104831939D01*
X124382735Y-104831939D01*
X124582694Y-104792165D01*
X124771052Y-104714144D01*
X124940570Y-104600876D01*
X125084733Y-104456713D01*
X125198001Y-104287195D01*
X125276022Y-104098837D01*
X125296067Y-103998061D01*
X134465000Y-103998061D01*
X134465000Y-104201939D01*
X134504774Y-104401898D01*
X134582795Y-104590256D01*
X134696063Y-104759774D01*
X134840226Y-104903937D01*
X135009744Y-105017205D01*
X135198102Y-105095226D01*
X135398061Y-105135000D01*
X135601939Y-105135000D01*
X135801898Y-105095226D01*
X135990256Y-105017205D01*
X136159774Y-104903937D01*
X136303937Y-104759774D01*
X136417205Y-104590256D01*
X136495226Y-104401898D01*
X136535000Y-104201939D01*
X136535000Y-103998061D01*
X136495226Y-103798102D01*
X136453788Y-103698061D01*
X141115000Y-103698061D01*
X141115000Y-103901939D01*
X141154774Y-104101898D01*
X141232795Y-104290256D01*
X141346063Y-104459774D01*
X141490226Y-104603937D01*
X141659744Y-104717205D01*
X141848102Y-104795226D01*
X141903167Y-104806179D01*
X141865000Y-104998061D01*
X141865000Y-105201939D01*
X141904774Y-105401898D01*
X141982795Y-105590256D01*
X142096063Y-105759774D01*
X142240226Y-105903937D01*
X142409744Y-106017205D01*
X142598102Y-106095226D01*
X142798061Y-106135000D01*
X143001939Y-106135000D01*
X143201898Y-106095226D01*
X143390256Y-106017205D01*
X143559774Y-105903937D01*
X143703937Y-105759774D01*
X143817205Y-105590256D01*
X143895226Y-105401898D01*
X143935000Y-105201939D01*
X143935000Y-104998061D01*
X143895226Y-104798102D01*
X143817205Y-104609744D01*
X143703937Y-104440226D01*
X143559774Y-104296063D01*
X143390256Y-104182795D01*
X143201898Y-104104774D01*
X143146833Y-104093821D01*
X143185000Y-103901939D01*
X143185000Y-103698061D01*
X143145226Y-103498102D01*
X143067205Y-103309744D01*
X142953937Y-103140226D01*
X142809774Y-102996063D01*
X142640256Y-102882795D01*
X142451898Y-102804774D01*
X142251939Y-102765000D01*
X142048061Y-102765000D01*
X141848102Y-102804774D01*
X141659744Y-102882795D01*
X141490226Y-102996063D01*
X141346063Y-103140226D01*
X141232795Y-103309744D01*
X141154774Y-103498102D01*
X141115000Y-103698061D01*
X136453788Y-103698061D01*
X136417205Y-103609744D01*
X136303937Y-103440226D01*
X136159774Y-103296063D01*
X135990256Y-103182795D01*
X135801898Y-103104774D01*
X135601939Y-103065000D01*
X135398061Y-103065000D01*
X135198102Y-103104774D01*
X135009744Y-103182795D01*
X134840226Y-103296063D01*
X134696063Y-103440226D01*
X134582795Y-103609744D01*
X134504774Y-103798102D01*
X134465000Y-103998061D01*
X125296067Y-103998061D01*
X125315796Y-103898878D01*
X125315796Y-103695000D01*
X125276022Y-103495041D01*
X125198001Y-103306683D01*
X125084733Y-103137165D01*
X124940570Y-102993002D01*
X124771052Y-102879734D01*
X124582694Y-102801713D01*
X124382735Y-102761939D01*
X124178857Y-102761939D01*
X123978898Y-102801713D01*
X123790540Y-102879734D01*
X123621022Y-102993002D01*
X123476859Y-103137165D01*
X123363591Y-103306683D01*
X123285570Y-103495041D01*
X123245796Y-103695000D01*
X122167930Y-103695000D01*
X122153475Y-103673368D01*
X121946632Y-103466525D01*
X121772240Y-103350000D01*
X121946632Y-103233475D01*
X122153475Y-103026632D01*
X122315990Y-102783411D01*
X122427932Y-102513158D01*
X122485000Y-102226260D01*
X122485000Y-101933740D01*
X122427932Y-101646842D01*
X122315990Y-101376589D01*
X122153475Y-101133368D01*
X121946632Y-100926525D01*
X121772240Y-100810000D01*
X121946632Y-100693475D01*
X122153475Y-100486632D01*
X122315990Y-100243411D01*
X122427932Y-99973158D01*
X122485000Y-99686260D01*
X122485000Y-99393740D01*
X122447434Y-99204883D01*
X122711147Y-99204883D01*
X122711147Y-99408761D01*
X122750921Y-99608720D01*
X122828942Y-99797078D01*
X122942210Y-99966596D01*
X123086373Y-100110759D01*
X123175818Y-100170524D01*
X123082795Y-100309744D01*
X123004774Y-100498102D01*
X122965000Y-100698061D01*
X122965000Y-100901939D01*
X123004774Y-101101898D01*
X123082795Y-101290256D01*
X123196063Y-101459774D01*
X123340226Y-101603937D01*
X123509744Y-101717205D01*
X123698102Y-101795226D01*
X123898061Y-101835000D01*
X124101939Y-101835000D01*
X124301898Y-101795226D01*
X124490256Y-101717205D01*
X124659774Y-101603937D01*
X124803937Y-101459774D01*
X124917205Y-101290256D01*
X124995226Y-101101898D01*
X125035000Y-100901939D01*
X125035000Y-100698061D01*
X125030579Y-100675835D01*
X125198102Y-100745226D01*
X125398061Y-100785000D01*
X125601939Y-100785000D01*
X125787645Y-100748061D01*
X128065000Y-100748061D01*
X128065000Y-100951939D01*
X128104774Y-101151898D01*
X128182795Y-101340256D01*
X128296063Y-101509774D01*
X128440226Y-101653937D01*
X128609744Y-101767205D01*
X128798102Y-101845226D01*
X128998061Y-101885000D01*
X129201939Y-101885000D01*
X129401898Y-101845226D01*
X129590256Y-101767205D01*
X129759774Y-101653937D01*
X129903937Y-101509774D01*
X130017205Y-101340256D01*
X130095226Y-101151898D01*
X130135000Y-100951939D01*
X130135000Y-100748061D01*
X130095226Y-100548102D01*
X130017205Y-100359744D01*
X129903937Y-100190226D01*
X129759774Y-100046063D01*
X129590256Y-99932795D01*
X129401898Y-99854774D01*
X129201939Y-99815000D01*
X128998061Y-99815000D01*
X128798102Y-99854774D01*
X128609744Y-99932795D01*
X128440226Y-100046063D01*
X128296063Y-100190226D01*
X128182795Y-100359744D01*
X128104774Y-100548102D01*
X128065000Y-100748061D01*
X125787645Y-100748061D01*
X125801898Y-100745226D01*
X125990256Y-100667205D01*
X126159774Y-100553937D01*
X126303937Y-100409774D01*
X126417205Y-100240256D01*
X126495226Y-100051898D01*
X126535000Y-99851939D01*
X126535000Y-99648061D01*
X126495226Y-99448102D01*
X126417205Y-99259744D01*
X126303937Y-99090226D01*
X126159774Y-98946063D01*
X125991646Y-98833724D01*
X125998061Y-98835000D01*
X126201939Y-98835000D01*
X126401898Y-98795226D01*
X126590256Y-98717205D01*
X126759774Y-98603937D01*
X126903937Y-98459774D01*
X127017205Y-98290256D01*
X127095226Y-98101898D01*
X127135000Y-97901939D01*
X127135000Y-97877453D01*
X127205198Y-97982512D01*
X127349361Y-98126675D01*
X127518879Y-98239943D01*
X127707237Y-98317964D01*
X127907196Y-98357738D01*
X127994705Y-98357738D01*
X127996071Y-98359782D01*
X128140234Y-98503945D01*
X128309752Y-98617213D01*
X128498110Y-98695234D01*
X128698069Y-98735008D01*
X128901947Y-98735008D01*
X129101906Y-98695234D01*
X129290264Y-98617213D01*
X129459782Y-98503945D01*
X129603945Y-98359782D01*
X129717213Y-98190264D01*
X129782651Y-98032284D01*
X129909744Y-98117205D01*
X130098102Y-98195226D01*
X130298061Y-98235000D01*
X130380912Y-98235000D01*
X130354774Y-98298102D01*
X130315000Y-98498061D01*
X130315000Y-98701939D01*
X130354774Y-98901898D01*
X130432795Y-99090256D01*
X130546063Y-99259774D01*
X130690226Y-99403937D01*
X130859744Y-99517205D01*
X131048102Y-99595226D01*
X131248061Y-99635000D01*
X131451939Y-99635000D01*
X131513543Y-99622746D01*
X131496063Y-99640226D01*
X131382795Y-99809744D01*
X131304774Y-99998102D01*
X131265000Y-100198061D01*
X131265000Y-100401939D01*
X131304774Y-100601898D01*
X131382795Y-100790256D01*
X131496063Y-100959774D01*
X131640226Y-101103937D01*
X131809744Y-101217205D01*
X131998102Y-101295226D01*
X132198061Y-101335000D01*
X132401939Y-101335000D01*
X132601898Y-101295226D01*
X132790256Y-101217205D01*
X132959774Y-101103937D01*
X133103937Y-100959774D01*
X133217205Y-100790256D01*
X133295226Y-100601898D01*
X133335000Y-100401939D01*
X133335000Y-100198061D01*
X133295226Y-99998102D01*
X133217205Y-99809744D01*
X133103937Y-99640226D01*
X132959774Y-99496063D01*
X132790256Y-99382795D01*
X132601898Y-99304774D01*
X132401939Y-99265000D01*
X132198061Y-99265000D01*
X132136457Y-99277254D01*
X132153937Y-99259774D01*
X132267205Y-99090256D01*
X132345226Y-98901898D01*
X132385000Y-98701939D01*
X132385000Y-98598711D01*
X132390226Y-98603937D01*
X132559744Y-98717205D01*
X132748102Y-98795226D01*
X132948061Y-98835000D01*
X133059904Y-98835000D01*
X133082795Y-98890264D01*
X133196063Y-99059782D01*
X133340226Y-99203945D01*
X133509744Y-99317213D01*
X133698102Y-99395234D01*
X133898061Y-99435008D01*
X134101939Y-99435008D01*
X134301898Y-99395234D01*
X134490256Y-99317213D01*
X134659774Y-99203945D01*
X134803937Y-99059782D01*
X134917205Y-98890264D01*
X134995226Y-98701906D01*
X135035000Y-98501947D01*
X135035000Y-98298069D01*
X134995226Y-98098110D01*
X134973154Y-98044823D01*
X135968238Y-98044823D01*
X135968238Y-98248701D01*
X136008012Y-98448660D01*
X136086033Y-98637018D01*
X136199301Y-98806536D01*
X136204684Y-98811919D01*
X136195105Y-98826254D01*
X136117084Y-99014612D01*
X136077310Y-99214571D01*
X136077310Y-99418449D01*
X136117084Y-99618408D01*
X136195105Y-99806766D01*
X136308373Y-99976284D01*
X136452536Y-100120447D01*
X136622054Y-100233715D01*
X136810412Y-100311736D01*
X137010371Y-100351510D01*
X137214249Y-100351510D01*
X137414208Y-100311736D01*
X137602566Y-100233715D01*
X137642495Y-100207035D01*
X137604774Y-100298102D01*
X137565000Y-100498061D01*
X137565000Y-100701939D01*
X137604774Y-100901898D01*
X137682795Y-101090256D01*
X137796063Y-101259774D01*
X137940226Y-101403937D01*
X138109744Y-101517205D01*
X138298102Y-101595226D01*
X138498061Y-101635000D01*
X138701939Y-101635000D01*
X138901898Y-101595226D01*
X139090256Y-101517205D01*
X139259774Y-101403937D01*
X139403937Y-101259774D01*
X139517205Y-101090256D01*
X139595226Y-100901898D01*
X139635000Y-100701939D01*
X139635000Y-100698059D01*
X142965000Y-100698059D01*
X142965000Y-100901937D01*
X143004774Y-101101896D01*
X143082795Y-101290254D01*
X143196063Y-101459772D01*
X143340226Y-101603935D01*
X143509744Y-101717203D01*
X143698102Y-101795224D01*
X143898061Y-101834998D01*
X144101939Y-101834998D01*
X144301898Y-101795224D01*
X144490256Y-101717203D01*
X144659774Y-101603935D01*
X144803937Y-101459772D01*
X144917205Y-101290254D01*
X144995226Y-101101896D01*
X145035000Y-100901937D01*
X145035000Y-100698059D01*
X144995226Y-100498100D01*
X144917205Y-100309742D01*
X144803937Y-100140224D01*
X144659774Y-99996061D01*
X144490256Y-99882793D01*
X144301898Y-99804772D01*
X144101939Y-99764998D01*
X143898061Y-99764998D01*
X143698102Y-99804772D01*
X143509744Y-99882793D01*
X143340226Y-99996061D01*
X143196063Y-100140224D01*
X143082795Y-100309742D01*
X143004774Y-100498100D01*
X142965000Y-100698059D01*
X139635000Y-100698059D01*
X139635000Y-100498061D01*
X139595226Y-100298102D01*
X139517205Y-100109744D01*
X139403937Y-99940226D01*
X139327972Y-99864261D01*
X139395226Y-99701898D01*
X139408533Y-99635000D01*
X139451939Y-99635000D01*
X139651898Y-99595226D01*
X139840256Y-99517205D01*
X140009774Y-99403937D01*
X140153937Y-99259774D01*
X140267205Y-99090256D01*
X140345226Y-98901898D01*
X140385000Y-98701939D01*
X140385000Y-98498061D01*
X140345226Y-98298102D01*
X140267205Y-98109744D01*
X140160468Y-97950000D01*
X140267205Y-97790256D01*
X140345226Y-97601898D01*
X140385000Y-97401939D01*
X140385000Y-97198061D01*
X140345226Y-96998102D01*
X140267205Y-96809744D01*
X140153937Y-96640226D01*
X140009774Y-96496063D01*
X139840256Y-96382795D01*
X139651898Y-96304774D01*
X139510862Y-96276720D01*
X139495226Y-96198114D01*
X139417205Y-96009756D01*
X139303937Y-95840238D01*
X139161408Y-95697709D01*
X139191264Y-95691770D01*
X139379622Y-95613749D01*
X139549140Y-95500481D01*
X139693303Y-95356318D01*
X139744258Y-95280058D01*
X140299814Y-95280058D01*
X140299814Y-95483936D01*
X140339588Y-95683895D01*
X140417609Y-95872253D01*
X140530877Y-96041771D01*
X140675040Y-96185934D01*
X140844558Y-96299202D01*
X141032916Y-96377223D01*
X141232875Y-96416997D01*
X141436753Y-96416997D01*
X141636712Y-96377223D01*
X141825070Y-96299202D01*
X141994588Y-96185934D01*
X142138751Y-96041771D01*
X142252019Y-95872253D01*
X142330040Y-95683895D01*
X142369814Y-95483936D01*
X142369814Y-95396027D01*
X142388043Y-95414256D01*
X142557561Y-95527524D01*
X142745919Y-95605545D01*
X142945878Y-95645319D01*
X143149756Y-95645319D01*
X143349715Y-95605545D01*
X143538073Y-95527524D01*
X143707591Y-95414256D01*
X143851754Y-95270093D01*
X143965022Y-95100575D01*
X144043043Y-94912217D01*
X144082817Y-94712258D01*
X144082817Y-94508380D01*
X144043043Y-94308421D01*
X143965022Y-94120063D01*
X143851754Y-93950545D01*
X143707591Y-93806382D01*
X143538073Y-93693114D01*
X143349715Y-93615093D01*
X143161031Y-93577562D01*
X143145226Y-93498102D01*
X143067205Y-93309744D01*
X142953937Y-93140226D01*
X142809774Y-92996063D01*
X142640256Y-92882795D01*
X142451898Y-92804774D01*
X142333112Y-92781146D01*
X142345226Y-92751900D01*
X142385000Y-92551941D01*
X142385000Y-92348063D01*
X142345226Y-92148104D01*
X142267205Y-91959746D01*
X142153937Y-91790228D01*
X142009774Y-91646065D01*
X141840256Y-91532797D01*
X141651898Y-91454776D01*
X141451939Y-91415002D01*
X141248061Y-91415002D01*
X141048102Y-91454776D01*
X140859744Y-91532797D01*
X140690226Y-91646065D01*
X140546063Y-91790228D01*
X140432795Y-91959746D01*
X140354774Y-92148104D01*
X140315000Y-92348063D01*
X140315000Y-92551941D01*
X140354774Y-92751900D01*
X140432795Y-92940258D01*
X140546063Y-93109776D01*
X140690226Y-93253939D01*
X140859744Y-93367207D01*
X141048102Y-93445228D01*
X141166888Y-93468856D01*
X141154774Y-93498102D01*
X141115000Y-93698061D01*
X141115000Y-93901939D01*
X141154774Y-94101898D01*
X141232795Y-94290256D01*
X141270708Y-94346997D01*
X141232875Y-94346997D01*
X141032916Y-94386771D01*
X140844558Y-94464792D01*
X140675040Y-94578060D01*
X140530877Y-94722223D01*
X140417609Y-94891741D01*
X140339588Y-95080099D01*
X140299814Y-95280058D01*
X139744258Y-95280058D01*
X139806571Y-95186800D01*
X139884592Y-94998442D01*
X139924366Y-94798483D01*
X139924366Y-94594605D01*
X139884592Y-94394646D01*
X139806571Y-94206288D01*
X139693303Y-94036770D01*
X139549140Y-93892607D01*
X139379622Y-93779339D01*
X139191264Y-93701318D01*
X138991305Y-93661544D01*
X138787427Y-93661544D01*
X138587468Y-93701318D01*
X138399110Y-93779339D01*
X138229592Y-93892607D01*
X138085429Y-94036770D01*
X137972161Y-94206288D01*
X137894140Y-94394646D01*
X137854366Y-94594605D01*
X137854366Y-94798483D01*
X137894140Y-94998442D01*
X137972161Y-95186800D01*
X138085429Y-95356318D01*
X138227958Y-95498847D01*
X138198102Y-95504786D01*
X138009744Y-95582807D01*
X137840226Y-95696075D01*
X137696063Y-95840238D01*
X137582795Y-96009756D01*
X137504774Y-96198114D01*
X137465000Y-96398073D01*
X137465000Y-96601951D01*
X137504774Y-96801910D01*
X137582795Y-96990268D01*
X137696063Y-97159786D01*
X137840226Y-97303949D01*
X138009744Y-97417217D01*
X138198102Y-97495238D01*
X138339138Y-97523292D01*
X138354774Y-97601898D01*
X138432795Y-97790256D01*
X138539532Y-97950000D01*
X138432795Y-98109744D01*
X138354774Y-98298102D01*
X138341467Y-98365000D01*
X138298061Y-98365000D01*
X138098102Y-98404774D01*
X137999031Y-98445811D01*
X138038238Y-98248701D01*
X138038238Y-98044823D01*
X137998464Y-97844864D01*
X137920443Y-97656506D01*
X137807175Y-97486988D01*
X137663012Y-97342825D01*
X137493494Y-97229557D01*
X137305136Y-97151536D01*
X137105177Y-97111762D01*
X136901299Y-97111762D01*
X136701340Y-97151536D01*
X136512982Y-97229557D01*
X136343464Y-97342825D01*
X136199301Y-97486988D01*
X136086033Y-97656506D01*
X136008012Y-97844864D01*
X135968238Y-98044823D01*
X134973154Y-98044823D01*
X134917205Y-97909752D01*
X134803937Y-97740234D01*
X134659774Y-97596071D01*
X134490256Y-97482803D01*
X134301898Y-97404782D01*
X134101939Y-97365008D01*
X133990096Y-97365008D01*
X133967205Y-97309744D01*
X133917263Y-97235000D01*
X134101939Y-97235000D01*
X134301898Y-97195226D01*
X134490256Y-97117205D01*
X134659774Y-97003937D01*
X134803937Y-96859774D01*
X134917205Y-96690256D01*
X134995226Y-96501898D01*
X135035000Y-96301939D01*
X135035000Y-96098061D01*
X134995226Y-95898102D01*
X134917205Y-95709744D01*
X134803937Y-95540226D01*
X134659774Y-95396063D01*
X134490256Y-95282795D01*
X134301898Y-95204774D01*
X134101939Y-95165000D01*
X133898061Y-95165000D01*
X133698102Y-95204774D01*
X133509744Y-95282795D01*
X133340226Y-95396063D01*
X133196063Y-95540226D01*
X133082795Y-95709744D01*
X133004774Y-95898102D01*
X132965000Y-96098061D01*
X132965000Y-96301939D01*
X133004774Y-96501898D01*
X133082795Y-96690256D01*
X133132737Y-96765000D01*
X132948061Y-96765000D01*
X132748102Y-96804774D01*
X132559744Y-96882795D01*
X132390226Y-96996063D01*
X132246063Y-97140226D01*
X132235000Y-97156783D01*
X132235000Y-97098061D01*
X132195226Y-96898102D01*
X132117205Y-96709744D01*
X132003937Y-96540226D01*
X131859774Y-96396063D01*
X131690256Y-96282795D01*
X131501898Y-96204774D01*
X131301939Y-96165000D01*
X131098061Y-96165000D01*
X130898102Y-96204774D01*
X130800000Y-96245409D01*
X130701898Y-96204774D01*
X130501939Y-96165000D01*
X130298061Y-96165000D01*
X130098102Y-96204774D01*
X129909744Y-96282795D01*
X129740226Y-96396063D01*
X129596063Y-96540226D01*
X129482795Y-96709744D01*
X129417357Y-96867724D01*
X129290264Y-96782803D01*
X129101906Y-96704782D01*
X128901947Y-96665008D01*
X128814438Y-96665008D01*
X128813072Y-96662964D01*
X128668909Y-96518801D01*
X128499391Y-96405533D01*
X128311033Y-96327512D01*
X128111074Y-96287738D01*
X127907196Y-96287738D01*
X127707237Y-96327512D01*
X127518879Y-96405533D01*
X127349361Y-96518801D01*
X127205198Y-96662964D01*
X127091930Y-96832482D01*
X127013909Y-97020840D01*
X126974135Y-97220799D01*
X126974135Y-97245285D01*
X126903937Y-97140226D01*
X126759774Y-96996063D01*
X126590256Y-96882795D01*
X126401898Y-96804774D01*
X126201939Y-96765000D01*
X125998061Y-96765000D01*
X125798102Y-96804774D01*
X125609744Y-96882795D01*
X125440226Y-96996063D01*
X125296063Y-97140226D01*
X125182795Y-97309744D01*
X125104774Y-97498102D01*
X125065000Y-97698061D01*
X125065000Y-97901939D01*
X125104774Y-98101898D01*
X125182795Y-98290256D01*
X125296063Y-98459774D01*
X125440226Y-98603937D01*
X125608354Y-98716276D01*
X125601939Y-98715000D01*
X125398061Y-98715000D01*
X125198102Y-98754774D01*
X125009744Y-98832795D01*
X124840226Y-98946063D01*
X124748008Y-99038281D01*
X124741373Y-99004924D01*
X124663352Y-98816566D01*
X124550084Y-98647048D01*
X124405921Y-98502885D01*
X124236403Y-98389617D01*
X124048045Y-98311596D01*
X123848086Y-98271822D01*
X123644208Y-98271822D01*
X123444249Y-98311596D01*
X123255891Y-98389617D01*
X123086373Y-98502885D01*
X122942210Y-98647048D01*
X122828942Y-98816566D01*
X122750921Y-99004924D01*
X122711147Y-99204883D01*
X122447434Y-99204883D01*
X122427932Y-99106842D01*
X122315990Y-98836589D01*
X122153475Y-98593368D01*
X121946632Y-98386525D01*
X121772240Y-98270000D01*
X121946632Y-98153475D01*
X122153475Y-97946632D01*
X122315990Y-97703411D01*
X122427932Y-97433158D01*
X122467724Y-97233110D01*
X122532817Y-97390256D01*
X122646085Y-97559774D01*
X122790248Y-97703937D01*
X122959766Y-97817205D01*
X123148124Y-97895226D01*
X123348083Y-97935000D01*
X123551961Y-97935000D01*
X123751920Y-97895226D01*
X123940278Y-97817205D01*
X124109796Y-97703937D01*
X124253959Y-97559774D01*
X124367227Y-97390256D01*
X124445248Y-97201898D01*
X124485022Y-97001939D01*
X124485022Y-96798061D01*
X124445248Y-96598102D01*
X124401413Y-96492275D01*
X124468701Y-96391571D01*
X124546722Y-96203213D01*
X124577997Y-96045981D01*
X124609744Y-96067193D01*
X124798102Y-96145214D01*
X124998061Y-96184988D01*
X125201939Y-96184988D01*
X125401898Y-96145214D01*
X125590256Y-96067193D01*
X125759774Y-95953925D01*
X125903937Y-95809762D01*
X126017205Y-95640244D01*
X126095226Y-95451886D01*
X126135000Y-95251927D01*
X126135000Y-95048049D01*
X126095226Y-94848090D01*
X126017205Y-94659732D01*
X125903937Y-94490214D01*
X125759774Y-94346051D01*
X125590256Y-94232783D01*
X125570903Y-94224766D01*
X125605228Y-94141898D01*
X125645002Y-93941939D01*
X125645002Y-93738061D01*
X125605228Y-93538102D01*
X125527207Y-93349744D01*
X125413939Y-93180226D01*
X125364478Y-93130765D01*
X125527605Y-93021768D01*
X125671768Y-92877605D01*
X125785036Y-92708087D01*
X125863057Y-92519729D01*
X125902831Y-92319770D01*
X125902831Y-92115892D01*
X125863057Y-91915933D01*
X125800007Y-91763718D01*
X125840226Y-91803937D01*
X126009744Y-91917205D01*
X126198102Y-91995226D01*
X126398061Y-92035000D01*
X126601939Y-92035000D01*
X126801898Y-91995226D01*
X126990256Y-91917205D01*
X127159774Y-91803937D01*
X127300000Y-91663711D01*
X127390226Y-91753937D01*
X127559744Y-91867205D01*
X127748102Y-91945226D01*
X127948061Y-91985000D01*
X128151939Y-91985000D01*
X128351898Y-91945226D01*
X128540256Y-91867205D01*
X128709774Y-91753937D01*
X128751944Y-91711767D01*
X128909744Y-91817205D01*
X129098102Y-91895226D01*
X129279833Y-91931374D01*
X129131527Y-91992805D01*
X128962009Y-92106073D01*
X128817846Y-92250236D01*
X128704578Y-92419754D01*
X128626557Y-92608112D01*
X128586783Y-92808071D01*
X128586783Y-92885930D01*
X128585226Y-92878102D01*
X128507205Y-92689744D01*
X128393937Y-92520226D01*
X128249774Y-92376063D01*
X128080256Y-92262795D01*
X127891898Y-92184774D01*
X127691939Y-92145000D01*
X127488061Y-92145000D01*
X127288102Y-92184774D01*
X127099744Y-92262795D01*
X126930226Y-92376063D01*
X126786063Y-92520226D01*
X126672795Y-92689744D01*
X126594774Y-92878102D01*
X126555000Y-93078061D01*
X126555000Y-93281939D01*
X126594774Y-93481898D01*
X126672795Y-93670256D01*
X126786063Y-93839774D01*
X126930226Y-93983937D01*
X127099744Y-94097205D01*
X127288102Y-94175226D01*
X127488061Y-94215000D01*
X127586715Y-94215000D01*
X127540226Y-94246063D01*
X127396063Y-94390226D01*
X127282795Y-94559744D01*
X127204774Y-94748102D01*
X127165000Y-94948061D01*
X127165000Y-95151939D01*
X127204774Y-95351898D01*
X127282795Y-95540256D01*
X127396063Y-95709774D01*
X127540226Y-95853937D01*
X127709744Y-95967205D01*
X127898102Y-96045226D01*
X128098061Y-96085000D01*
X128301939Y-96085000D01*
X128501898Y-96045226D01*
X128690256Y-95967205D01*
X128859774Y-95853937D01*
X129003937Y-95709774D01*
X129117205Y-95540256D01*
X129195226Y-95351898D01*
X129235000Y-95151939D01*
X129235000Y-94948061D01*
X129195226Y-94748102D01*
X129117205Y-94559744D01*
X129003937Y-94390226D01*
X128859774Y-94246063D01*
X128690256Y-94132795D01*
X128501898Y-94054774D01*
X128301939Y-94015000D01*
X128203285Y-94015000D01*
X128249774Y-93983937D01*
X128393937Y-93839774D01*
X128507205Y-93670256D01*
X128585226Y-93481898D01*
X128625000Y-93281939D01*
X128625000Y-93204080D01*
X128626557Y-93211908D01*
X128704578Y-93400266D01*
X128817846Y-93569784D01*
X128962009Y-93713947D01*
X129131527Y-93827215D01*
X129319885Y-93905236D01*
X129519844Y-93945010D01*
X129723722Y-93945010D01*
X129923681Y-93905236D01*
X130112039Y-93827215D01*
X130281557Y-93713947D01*
X130425720Y-93569784D01*
X130473643Y-93498061D01*
X131165000Y-93498061D01*
X131165000Y-93701939D01*
X131204774Y-93901898D01*
X131282795Y-94090256D01*
X131396063Y-94259774D01*
X131540226Y-94403937D01*
X131709744Y-94517205D01*
X131898102Y-94595226D01*
X132098061Y-94635000D01*
X132301939Y-94635000D01*
X132501898Y-94595226D01*
X132690256Y-94517205D01*
X132859774Y-94403937D01*
X133003937Y-94259774D01*
X133039099Y-94207150D01*
X134093295Y-94207150D01*
X134093295Y-94411028D01*
X134133069Y-94610987D01*
X134211090Y-94799345D01*
X134324358Y-94968863D01*
X134468521Y-95113026D01*
X134638039Y-95226294D01*
X134826397Y-95304315D01*
X135026356Y-95344089D01*
X135230234Y-95344089D01*
X135430193Y-95304315D01*
X135618551Y-95226294D01*
X135788069Y-95113026D01*
X135932232Y-94968863D01*
X136045500Y-94799345D01*
X136123521Y-94610987D01*
X136163295Y-94411028D01*
X136163295Y-94207150D01*
X136123521Y-94007191D01*
X136045500Y-93818833D01*
X135932232Y-93649315D01*
X135788069Y-93505152D01*
X135618551Y-93391884D01*
X135430193Y-93313863D01*
X135230234Y-93274089D01*
X135026356Y-93274089D01*
X134826397Y-93313863D01*
X134638039Y-93391884D01*
X134468521Y-93505152D01*
X134324358Y-93649315D01*
X134211090Y-93818833D01*
X134133069Y-94007191D01*
X134093295Y-94207150D01*
X133039099Y-94207150D01*
X133117205Y-94090256D01*
X133195226Y-93901898D01*
X133235000Y-93701939D01*
X133235000Y-93498061D01*
X133195226Y-93298102D01*
X133117205Y-93109744D01*
X133003937Y-92940226D01*
X132859774Y-92796063D01*
X132690256Y-92682795D01*
X132501898Y-92604774D01*
X132301939Y-92565000D01*
X132098061Y-92565000D01*
X131898102Y-92604774D01*
X131709744Y-92682795D01*
X131540226Y-92796063D01*
X131396063Y-92940226D01*
X131282795Y-93109744D01*
X131204774Y-93298102D01*
X131165000Y-93498061D01*
X130473643Y-93498061D01*
X130538988Y-93400266D01*
X130617009Y-93211908D01*
X130656783Y-93011949D01*
X130656783Y-92808071D01*
X130617009Y-92608112D01*
X130538988Y-92419754D01*
X130425720Y-92250236D01*
X130281557Y-92106073D01*
X130112039Y-91992805D01*
X129923681Y-91914784D01*
X129741950Y-91878636D01*
X129890256Y-91817205D01*
X130059774Y-91703937D01*
X130203937Y-91559774D01*
X130219299Y-91536783D01*
X130309728Y-91597205D01*
X130498086Y-91675226D01*
X130698045Y-91715000D01*
X130901923Y-91715000D01*
X131101882Y-91675226D01*
X131290240Y-91597205D01*
X131438695Y-91498011D01*
X131475609Y-91505353D01*
X131504774Y-91651975D01*
X131582795Y-91840333D01*
X131696063Y-92009851D01*
X131840226Y-92154014D01*
X132009744Y-92267282D01*
X132198102Y-92345303D01*
X132398061Y-92385077D01*
X132601939Y-92385077D01*
X132801898Y-92345303D01*
X132990256Y-92267282D01*
X133159774Y-92154014D01*
X133303937Y-92009851D01*
X133417205Y-91840333D01*
X133495226Y-91651975D01*
X133535000Y-91452016D01*
X133535000Y-91248138D01*
X133495226Y-91048179D01*
X133417205Y-90859821D01*
X133303937Y-90690303D01*
X133159774Y-90546140D01*
X132990256Y-90432872D01*
X132801898Y-90354851D01*
X132668084Y-90328234D01*
X132638919Y-90181612D01*
X132560898Y-89993254D01*
X132447630Y-89823736D01*
X132303467Y-89679573D01*
X132133949Y-89566305D01*
X131945591Y-89488284D01*
X131745632Y-89448510D01*
X131541754Y-89448510D01*
X131341795Y-89488284D01*
X131153437Y-89566305D01*
X131004982Y-89665499D01*
X130901923Y-89645000D01*
X130698045Y-89645000D01*
X130498086Y-89684774D01*
X130309728Y-89762795D01*
X130140210Y-89876063D01*
X129996047Y-90020226D01*
X129980685Y-90043217D01*
X129890256Y-89982795D01*
X129701898Y-89904774D01*
X129501939Y-89865000D01*
X129298061Y-89865000D01*
X129098102Y-89904774D01*
X128909744Y-89982795D01*
X128740226Y-90096063D01*
X128698056Y-90138233D01*
X128540256Y-90032795D01*
X128448584Y-89994823D01*
X128509774Y-89953937D01*
X128653937Y-89809774D01*
X128767205Y-89640256D01*
X128845226Y-89451898D01*
X128885000Y-89251939D01*
X128885000Y-89198061D01*
X135815000Y-89198061D01*
X135815000Y-89401939D01*
X135854774Y-89601898D01*
X135932795Y-89790256D01*
X136046063Y-89959774D01*
X136190226Y-90103937D01*
X136359744Y-90217205D01*
X136548102Y-90295226D01*
X136748061Y-90335000D01*
X136951939Y-90335000D01*
X137151898Y-90295226D01*
X137340256Y-90217205D01*
X137509774Y-90103937D01*
X137653937Y-89959774D01*
X137767205Y-89790256D01*
X137845226Y-89601898D01*
X137885000Y-89401939D01*
X137885000Y-89303753D01*
X138048102Y-89371313D01*
X138248061Y-89411087D01*
X138451939Y-89411087D01*
X138651898Y-89371313D01*
X138840256Y-89293292D01*
X139009774Y-89180024D01*
X139153937Y-89035861D01*
X139267205Y-88866343D01*
X139345226Y-88677985D01*
X139385000Y-88478026D01*
X139385000Y-88274148D01*
X139345226Y-88074189D01*
X139267205Y-87885831D01*
X139164086Y-87731502D01*
X140098807Y-87731502D01*
X140098807Y-87935380D01*
X140138581Y-88135339D01*
X140216602Y-88323697D01*
X140329870Y-88493215D01*
X140474033Y-88637378D01*
X140643551Y-88750646D01*
X140788162Y-88810546D01*
X140802590Y-88883079D01*
X140880611Y-89071437D01*
X140993879Y-89240955D01*
X141138042Y-89385118D01*
X141307560Y-89498386D01*
X141495918Y-89576407D01*
X141695877Y-89616181D01*
X141899755Y-89616181D01*
X142099714Y-89576407D01*
X142288072Y-89498386D01*
X142457590Y-89385118D01*
X142515000Y-89327708D01*
X142515000Y-89351939D01*
X142532828Y-89441565D01*
X142466418Y-89454775D01*
X142278060Y-89532796D01*
X142108542Y-89646064D01*
X141964379Y-89790227D01*
X141851111Y-89959745D01*
X141773090Y-90148103D01*
X141733316Y-90348062D01*
X141733316Y-90551940D01*
X141773090Y-90751899D01*
X141851111Y-90940257D01*
X141964379Y-91109775D01*
X142108542Y-91253938D01*
X142278060Y-91367206D01*
X142466418Y-91445227D01*
X142666377Y-91485001D01*
X142870255Y-91485001D01*
X143070214Y-91445227D01*
X143258572Y-91367206D01*
X143428090Y-91253938D01*
X143572253Y-91109775D01*
X143685521Y-90940257D01*
X143763542Y-90751899D01*
X143803316Y-90551940D01*
X143803316Y-90348062D01*
X143785488Y-90258436D01*
X143851898Y-90245226D01*
X144040256Y-90167205D01*
X144209774Y-90053937D01*
X144353937Y-89909774D01*
X144467205Y-89740256D01*
X144545226Y-89551898D01*
X144585000Y-89351939D01*
X144585000Y-89148061D01*
X144545226Y-88948102D01*
X144467205Y-88759744D01*
X144353937Y-88590226D01*
X144209774Y-88446063D01*
X144040256Y-88332795D01*
X143851898Y-88254774D01*
X143651939Y-88215000D01*
X143448061Y-88215000D01*
X143248102Y-88254774D01*
X143059744Y-88332795D01*
X142890226Y-88446063D01*
X142832816Y-88503473D01*
X142832816Y-88479242D01*
X142793042Y-88279283D01*
X142715021Y-88090925D01*
X142601753Y-87921407D01*
X142457590Y-87777244D01*
X142288072Y-87663976D01*
X142143461Y-87604076D01*
X142129033Y-87531543D01*
X142051012Y-87343185D01*
X141937744Y-87173667D01*
X141793581Y-87029504D01*
X141624063Y-86916236D01*
X141435705Y-86838215D01*
X141235746Y-86798441D01*
X141031868Y-86798441D01*
X140831909Y-86838215D01*
X140643551Y-86916236D01*
X140474033Y-87029504D01*
X140329870Y-87173667D01*
X140216602Y-87343185D01*
X140138581Y-87531543D01*
X140098807Y-87731502D01*
X139164086Y-87731502D01*
X139153937Y-87716313D01*
X139009774Y-87572150D01*
X138840256Y-87458882D01*
X138651898Y-87380861D01*
X138451939Y-87341087D01*
X138248061Y-87341087D01*
X138048102Y-87380861D01*
X137859744Y-87458882D01*
X137690226Y-87572150D01*
X137546063Y-87716313D01*
X137432795Y-87885831D01*
X137354774Y-88074189D01*
X137315000Y-88274148D01*
X137315000Y-88372334D01*
X137151898Y-88304774D01*
X136951939Y-88265000D01*
X136748061Y-88265000D01*
X136548102Y-88304774D01*
X136359744Y-88382795D01*
X136190226Y-88496063D01*
X136046063Y-88640226D01*
X135932795Y-88809744D01*
X135854774Y-88998102D01*
X135815000Y-89198061D01*
X128885000Y-89198061D01*
X128885000Y-89048061D01*
X128845226Y-88848102D01*
X128767205Y-88659744D01*
X128653937Y-88490226D01*
X128509774Y-88346063D01*
X128340256Y-88232795D01*
X128151898Y-88154774D01*
X127951939Y-88115000D01*
X127748061Y-88115000D01*
X127548102Y-88154774D01*
X127359744Y-88232795D01*
X127190226Y-88346063D01*
X127046063Y-88490226D01*
X126932795Y-88659744D01*
X126854774Y-88848102D01*
X126815000Y-89048061D01*
X126815000Y-89251939D01*
X126854774Y-89451898D01*
X126932795Y-89640256D01*
X127046063Y-89809774D01*
X127190226Y-89953937D01*
X127359744Y-90067205D01*
X127451416Y-90105177D01*
X127390226Y-90146063D01*
X127250000Y-90286289D01*
X127159774Y-90196063D01*
X126990256Y-90082795D01*
X126801898Y-90004774D01*
X126601939Y-89965000D01*
X126398061Y-89965000D01*
X126198102Y-90004774D01*
X126009744Y-90082795D01*
X125840226Y-90196063D01*
X125696063Y-90340226D01*
X125582795Y-90509744D01*
X125504774Y-90698102D01*
X125465000Y-90898061D01*
X125465000Y-91101939D01*
X125504774Y-91301898D01*
X125567824Y-91454113D01*
X125527605Y-91413894D01*
X125358087Y-91300626D01*
X125169729Y-91222605D01*
X124969770Y-91182831D01*
X124765892Y-91182831D01*
X124565933Y-91222605D01*
X124377575Y-91300626D01*
X124208057Y-91413894D01*
X124063894Y-91558057D01*
X123950626Y-91727575D01*
X123872605Y-91915933D01*
X123832831Y-92115892D01*
X123832831Y-92319770D01*
X123872605Y-92519729D01*
X123950626Y-92708087D01*
X124063894Y-92877605D01*
X124113355Y-92927066D01*
X123950228Y-93036063D01*
X123806065Y-93180226D01*
X123692797Y-93349744D01*
X123614776Y-93538102D01*
X123575002Y-93738061D01*
X123575002Y-93941939D01*
X123614776Y-94141898D01*
X123692797Y-94330256D01*
X123806065Y-94499774D01*
X123950228Y-94643937D01*
X124119746Y-94757205D01*
X124139099Y-94765222D01*
X124104774Y-94848090D01*
X124073499Y-95005322D01*
X124041752Y-94984110D01*
X123853394Y-94906089D01*
X123653435Y-94866315D01*
X123449557Y-94866315D01*
X123249598Y-94906089D01*
X123061240Y-94984110D01*
X122891722Y-95097378D01*
X122747559Y-95241541D01*
X122634291Y-95411059D01*
X122556270Y-95599417D01*
X122516496Y-95799376D01*
X122516496Y-96003254D01*
X122556270Y-96203213D01*
X122600105Y-96309040D01*
X122532817Y-96409744D01*
X122454796Y-96598102D01*
X122444473Y-96649999D01*
X122427932Y-96566842D01*
X122315990Y-96296589D01*
X122153475Y-96053368D01*
X121946632Y-95846525D01*
X121772240Y-95730000D01*
X121946632Y-95613475D01*
X122153475Y-95406632D01*
X122315990Y-95163411D01*
X122427932Y-94893158D01*
X122485000Y-94606260D01*
X122485000Y-94313740D01*
X122427932Y-94026842D01*
X122315990Y-93756589D01*
X122153475Y-93513368D01*
X121946632Y-93306525D01*
X121772240Y-93190000D01*
X121946632Y-93073475D01*
X122153475Y-92866632D01*
X122315990Y-92623411D01*
X122427932Y-92353158D01*
X122460721Y-92188320D01*
X122598102Y-92245226D01*
X122798061Y-92285000D01*
X123001939Y-92285000D01*
X123201898Y-92245226D01*
X123390256Y-92167205D01*
X123559774Y-92053937D01*
X123703937Y-91909774D01*
X123817205Y-91740256D01*
X123895226Y-91551898D01*
X123935000Y-91351939D01*
X123935000Y-91148061D01*
X123895226Y-90948102D01*
X123817205Y-90759744D01*
X123703937Y-90590226D01*
X123559774Y-90446063D01*
X123390256Y-90332795D01*
X123201898Y-90254774D01*
X123001939Y-90215000D01*
X122798061Y-90215000D01*
X122598102Y-90254774D01*
X122409744Y-90332795D01*
X122240226Y-90446063D01*
X122096063Y-90590226D01*
X121982795Y-90759744D01*
X121970217Y-90790110D01*
X121946632Y-90766525D01*
X121772240Y-90650000D01*
X121946632Y-90533475D01*
X122153475Y-90326632D01*
X122315990Y-90083411D01*
X122427932Y-89813158D01*
X122485000Y-89526260D01*
X122485000Y-89233740D01*
X122427932Y-88946842D01*
X122407728Y-88898065D01*
X123164996Y-88898065D01*
X123164996Y-89101943D01*
X123204770Y-89301902D01*
X123282791Y-89490260D01*
X123396059Y-89659778D01*
X123540222Y-89803941D01*
X123709740Y-89917209D01*
X123898098Y-89995230D01*
X124098057Y-90035004D01*
X124301935Y-90035004D01*
X124501894Y-89995230D01*
X124690252Y-89917209D01*
X124859770Y-89803941D01*
X125003933Y-89659778D01*
X125117201Y-89490260D01*
X125195222Y-89301902D01*
X125226720Y-89143550D01*
X125290268Y-89117227D01*
X125459786Y-89003959D01*
X125603949Y-88859796D01*
X125717217Y-88690278D01*
X125795238Y-88501920D01*
X125835012Y-88301961D01*
X125835012Y-88098083D01*
X125795238Y-87898124D01*
X125717217Y-87709766D01*
X125603949Y-87540248D01*
X125459786Y-87396085D01*
X125290268Y-87282817D01*
X125101910Y-87204796D01*
X124901951Y-87165022D01*
X124698073Y-87165022D01*
X124498114Y-87204796D01*
X124309756Y-87282817D01*
X124140238Y-87396085D01*
X123996075Y-87540248D01*
X123882807Y-87709766D01*
X123804786Y-87898124D01*
X123773288Y-88056476D01*
X123709740Y-88082799D01*
X123540222Y-88196067D01*
X123396059Y-88340230D01*
X123282791Y-88509748D01*
X123204770Y-88698106D01*
X123164996Y-88898065D01*
X122407728Y-88898065D01*
X122315990Y-88676589D01*
X122153475Y-88433368D01*
X121946632Y-88226525D01*
X121772240Y-88110000D01*
X121946632Y-87993475D01*
X122153475Y-87786632D01*
X122315990Y-87543411D01*
X122427932Y-87273158D01*
X122485000Y-86986260D01*
X122485000Y-86693740D01*
X122474839Y-86642659D01*
X122537256Y-86616805D01*
X122706774Y-86503537D01*
X122850937Y-86359374D01*
X122964205Y-86189856D01*
X123042226Y-86001498D01*
X123082000Y-85801539D01*
X123082000Y-85597661D01*
X123042226Y-85397702D01*
X122964205Y-85209344D01*
X122850937Y-85039826D01*
X122706774Y-84895663D01*
X122537256Y-84782395D01*
X122454368Y-84748061D01*
X128315000Y-84748061D01*
X128315000Y-84951939D01*
X128354774Y-85151898D01*
X128432795Y-85340256D01*
X128546063Y-85509774D01*
X128690226Y-85653937D01*
X128859744Y-85767205D01*
X129048102Y-85845226D01*
X129248061Y-85885000D01*
X129451939Y-85885000D01*
X129651898Y-85845226D01*
X129840256Y-85767205D01*
X129887585Y-85735581D01*
X130009744Y-85817205D01*
X130198102Y-85895226D01*
X130398061Y-85935000D01*
X130601939Y-85935000D01*
X130801898Y-85895226D01*
X130990256Y-85817205D01*
X131159774Y-85703937D01*
X131303937Y-85559774D01*
X131417205Y-85390256D01*
X131495226Y-85201898D01*
X131535000Y-85001939D01*
X131535000Y-84898061D01*
X135765000Y-84898061D01*
X135765000Y-85101939D01*
X135804774Y-85301898D01*
X135882795Y-85490256D01*
X135996063Y-85659774D01*
X136140226Y-85803937D01*
X136309744Y-85917205D01*
X136498102Y-85995226D01*
X136698061Y-86035000D01*
X136901939Y-86035000D01*
X137101898Y-85995226D01*
X137290256Y-85917205D01*
X137459774Y-85803937D01*
X137603937Y-85659774D01*
X137717205Y-85490256D01*
X137763875Y-85377586D01*
X137890226Y-85503937D01*
X138059744Y-85617205D01*
X138248102Y-85695226D01*
X138265000Y-85698587D01*
X138265000Y-85701939D01*
X138304774Y-85901898D01*
X138382795Y-86090256D01*
X138496063Y-86259774D01*
X138640226Y-86403937D01*
X138809744Y-86517205D01*
X138998102Y-86595226D01*
X139198061Y-86635000D01*
X139401939Y-86635000D01*
X139601898Y-86595226D01*
X139790256Y-86517205D01*
X139959774Y-86403937D01*
X140103937Y-86259774D01*
X140217205Y-86090256D01*
X140295226Y-85901898D01*
X140335000Y-85701939D01*
X140335000Y-85598061D01*
X140465000Y-85598061D01*
X140465000Y-85801939D01*
X140504774Y-86001898D01*
X140582795Y-86190256D01*
X140696063Y-86359774D01*
X140840226Y-86503937D01*
X141009744Y-86617205D01*
X141198102Y-86695226D01*
X141398061Y-86735000D01*
X141601939Y-86735000D01*
X141801898Y-86695226D01*
X141990256Y-86617205D01*
X142029535Y-86590960D01*
X141994123Y-86768989D01*
X141994123Y-86972867D01*
X142033897Y-87172826D01*
X142111918Y-87361184D01*
X142225186Y-87530702D01*
X142369349Y-87674865D01*
X142538867Y-87788133D01*
X142727225Y-87866154D01*
X142927184Y-87905928D01*
X143131062Y-87905928D01*
X143331021Y-87866154D01*
X143519379Y-87788133D01*
X143688897Y-87674865D01*
X143833060Y-87530702D01*
X143946328Y-87361184D01*
X144024349Y-87172826D01*
X144064123Y-86972867D01*
X144064123Y-86768989D01*
X144024349Y-86569030D01*
X143946328Y-86380672D01*
X143833060Y-86211154D01*
X143688897Y-86066991D01*
X143519379Y-85953723D01*
X143331021Y-85875702D01*
X143131062Y-85835928D01*
X142927184Y-85835928D01*
X142727225Y-85875702D01*
X142538867Y-85953723D01*
X142499588Y-85979968D01*
X142535000Y-85801939D01*
X142535000Y-85598061D01*
X142495226Y-85398102D01*
X142417205Y-85209744D01*
X142303937Y-85040226D01*
X142159774Y-84896063D01*
X141990256Y-84782795D01*
X141801898Y-84704774D01*
X141601939Y-84665000D01*
X141398061Y-84665000D01*
X141198102Y-84704774D01*
X141009744Y-84782795D01*
X140840226Y-84896063D01*
X140696063Y-85040226D01*
X140582795Y-85209744D01*
X140504774Y-85398102D01*
X140465000Y-85598061D01*
X140335000Y-85598061D01*
X140335000Y-85498061D01*
X140295226Y-85298102D01*
X140217205Y-85109744D01*
X140103937Y-84940226D01*
X139959774Y-84796063D01*
X139790256Y-84682795D01*
X139601898Y-84604774D01*
X139585000Y-84601413D01*
X139585000Y-84598061D01*
X139545226Y-84398102D01*
X139545210Y-84398061D01*
X142165000Y-84398061D01*
X142165000Y-84601939D01*
X142204774Y-84801898D01*
X142282795Y-84990256D01*
X142396063Y-85159774D01*
X142540226Y-85303937D01*
X142709744Y-85417205D01*
X142898102Y-85495226D01*
X143098061Y-85535000D01*
X143301939Y-85535000D01*
X143501898Y-85495226D01*
X143690256Y-85417205D01*
X143859774Y-85303937D01*
X144003937Y-85159774D01*
X144117205Y-84990256D01*
X144195226Y-84801898D01*
X144235000Y-84601939D01*
X144235000Y-84398061D01*
X144195226Y-84198102D01*
X144117205Y-84009744D01*
X144003937Y-83840226D01*
X143859774Y-83696063D01*
X143690256Y-83582795D01*
X143501898Y-83504774D01*
X143301939Y-83465000D01*
X143098061Y-83465000D01*
X142898102Y-83504774D01*
X142709744Y-83582795D01*
X142540226Y-83696063D01*
X142396063Y-83840226D01*
X142282795Y-84009744D01*
X142204774Y-84198102D01*
X142165000Y-84398061D01*
X139545210Y-84398061D01*
X139467205Y-84209744D01*
X139353937Y-84040226D01*
X139209774Y-83896063D01*
X139040256Y-83782795D01*
X138851898Y-83704774D01*
X138651939Y-83665000D01*
X138540093Y-83665000D01*
X138517205Y-83609744D01*
X138477285Y-83550000D01*
X138517205Y-83490256D01*
X138595226Y-83301898D01*
X138635000Y-83101939D01*
X138635000Y-82898711D01*
X138640226Y-82903937D01*
X138809744Y-83017205D01*
X138998102Y-83095226D01*
X139065000Y-83108533D01*
X139065000Y-83301939D01*
X139104774Y-83501898D01*
X139182795Y-83690256D01*
X139296063Y-83859774D01*
X139440226Y-84003937D01*
X139609744Y-84117205D01*
X139798102Y-84195226D01*
X139998061Y-84235000D01*
X140201939Y-84235000D01*
X140401898Y-84195226D01*
X140590256Y-84117205D01*
X140759774Y-84003937D01*
X140903937Y-83859774D01*
X141017205Y-83690256D01*
X141095226Y-83501898D01*
X141135000Y-83301939D01*
X141135000Y-83098061D01*
X141095226Y-82898102D01*
X141017205Y-82709744D01*
X140903937Y-82540226D01*
X140759774Y-82396063D01*
X140590256Y-82282795D01*
X140401898Y-82204774D01*
X140335000Y-82191467D01*
X140335000Y-81998061D01*
X140295226Y-81798102D01*
X140217205Y-81609744D01*
X140103937Y-81440226D01*
X139959774Y-81296063D01*
X139790256Y-81182795D01*
X139601898Y-81104774D01*
X139401939Y-81065000D01*
X139198061Y-81065000D01*
X138998102Y-81104774D01*
X138809744Y-81182795D01*
X138640226Y-81296063D01*
X138496063Y-81440226D01*
X138382795Y-81609744D01*
X138304774Y-81798102D01*
X138265000Y-81998061D01*
X138265000Y-82201289D01*
X138259774Y-82196063D01*
X138090256Y-82082795D01*
X137901898Y-82004774D01*
X137701939Y-81965000D01*
X137498061Y-81965000D01*
X137298102Y-82004774D01*
X137109744Y-82082795D01*
X136940226Y-82196063D01*
X136796063Y-82340226D01*
X136682795Y-82509744D01*
X136604774Y-82698102D01*
X136565000Y-82898061D01*
X136565000Y-83101939D01*
X136604774Y-83301898D01*
X136682795Y-83490256D01*
X136722715Y-83550000D01*
X136682795Y-83609744D01*
X136604774Y-83798102D01*
X136566366Y-83991196D01*
X136498102Y-84004774D01*
X136309744Y-84082795D01*
X136140226Y-84196063D01*
X135996063Y-84340226D01*
X135882795Y-84509744D01*
X135804774Y-84698102D01*
X135765000Y-84898061D01*
X131535000Y-84898061D01*
X131535000Y-84798061D01*
X131495226Y-84598102D01*
X131417205Y-84409744D01*
X131303937Y-84240226D01*
X131159774Y-84096063D01*
X130990256Y-83982795D01*
X130801898Y-83904774D01*
X130601939Y-83865000D01*
X130398061Y-83865000D01*
X130198102Y-83904774D01*
X130009744Y-83982795D01*
X129962415Y-84014419D01*
X129840256Y-83932795D01*
X129651898Y-83854774D01*
X129451939Y-83815000D01*
X129248061Y-83815000D01*
X129048102Y-83854774D01*
X128859744Y-83932795D01*
X128690226Y-84046063D01*
X128546063Y-84190226D01*
X128432795Y-84359744D01*
X128354774Y-84548102D01*
X128315000Y-84748061D01*
X122454368Y-84748061D01*
X122426534Y-84736532D01*
X122427932Y-84733158D01*
X122485000Y-84446260D01*
X122485000Y-84153740D01*
X122427932Y-83866842D01*
X122315990Y-83596589D01*
X122153475Y-83353368D01*
X121946632Y-83146525D01*
X121772240Y-83030000D01*
X121946632Y-82913475D01*
X122153475Y-82706632D01*
X122315990Y-82463411D01*
X122427932Y-82193158D01*
X122466739Y-81998061D01*
X127565000Y-81998061D01*
X127565000Y-82201939D01*
X127604774Y-82401898D01*
X127682795Y-82590256D01*
X127796063Y-82759774D01*
X127940226Y-82903937D01*
X128109744Y-83017205D01*
X128298102Y-83095226D01*
X128498061Y-83135000D01*
X128701939Y-83135000D01*
X128901898Y-83095226D01*
X129090256Y-83017205D01*
X129259774Y-82903937D01*
X129403937Y-82759774D01*
X129517205Y-82590256D01*
X129595226Y-82401898D01*
X129635000Y-82201939D01*
X129635000Y-81998061D01*
X129595226Y-81798102D01*
X129517205Y-81609744D01*
X129403937Y-81440226D01*
X129259774Y-81296063D01*
X129187934Y-81248061D01*
X133065000Y-81248061D01*
X133065000Y-81451939D01*
X133104774Y-81651898D01*
X133182795Y-81840256D01*
X133296063Y-82009774D01*
X133440226Y-82153937D01*
X133609744Y-82267205D01*
X133798102Y-82345226D01*
X133998061Y-82385000D01*
X134201939Y-82385000D01*
X134401898Y-82345226D01*
X134590256Y-82267205D01*
X134759774Y-82153937D01*
X134903937Y-82009774D01*
X135017205Y-81840256D01*
X135095226Y-81651898D01*
X135135000Y-81451939D01*
X135135000Y-81248061D01*
X135095226Y-81048102D01*
X135017205Y-80859744D01*
X134903937Y-80690226D01*
X134759774Y-80546063D01*
X134590256Y-80432795D01*
X134401898Y-80354774D01*
X134201939Y-80315000D01*
X133998061Y-80315000D01*
X133798102Y-80354774D01*
X133609744Y-80432795D01*
X133440226Y-80546063D01*
X133296063Y-80690226D01*
X133182795Y-80859744D01*
X133104774Y-81048102D01*
X133065000Y-81248061D01*
X129187934Y-81248061D01*
X129090256Y-81182795D01*
X128901898Y-81104774D01*
X128701939Y-81065000D01*
X128498061Y-81065000D01*
X128298102Y-81104774D01*
X128109744Y-81182795D01*
X127940226Y-81296063D01*
X127796063Y-81440226D01*
X127682795Y-81609744D01*
X127604774Y-81798102D01*
X127565000Y-81998061D01*
X122466739Y-81998061D01*
X122485000Y-81906260D01*
X122485000Y-81613740D01*
X122427932Y-81326842D01*
X122315990Y-81056589D01*
X122153475Y-80813368D01*
X121946632Y-80606525D01*
X121772240Y-80490000D01*
X121946632Y-80373475D01*
X122153475Y-80166632D01*
X122315990Y-79923411D01*
X122427932Y-79653158D01*
X122485000Y-79366260D01*
X122485000Y-79073740D01*
X122427932Y-78786842D01*
X122315990Y-78516589D01*
X122153475Y-78273368D01*
X121946632Y-78066525D01*
X121844169Y-77998061D01*
X125365000Y-77998061D01*
X125365000Y-78201939D01*
X125404774Y-78401898D01*
X125482795Y-78590256D01*
X125589532Y-78750000D01*
X125482795Y-78909744D01*
X125404774Y-79098102D01*
X125365000Y-79298061D01*
X125365000Y-79501939D01*
X125404774Y-79701898D01*
X125482795Y-79890256D01*
X125596063Y-80059774D01*
X125740226Y-80203937D01*
X125884445Y-80300301D01*
X125865000Y-80398061D01*
X125865000Y-80601939D01*
X125904774Y-80801898D01*
X125982795Y-80990256D01*
X126096063Y-81159774D01*
X126240226Y-81303937D01*
X126409744Y-81417205D01*
X126598102Y-81495226D01*
X126798061Y-81535000D01*
X127001939Y-81535000D01*
X127201898Y-81495226D01*
X127390256Y-81417205D01*
X127559774Y-81303937D01*
X127703937Y-81159774D01*
X127817205Y-80990256D01*
X127895226Y-80801898D01*
X127935000Y-80601939D01*
X127935000Y-80398061D01*
X127895226Y-80198102D01*
X127817205Y-80009744D01*
X127703937Y-79840226D01*
X127559774Y-79696063D01*
X127415555Y-79599699D01*
X127430799Y-79523059D01*
X140165000Y-79523059D01*
X140165000Y-79726937D01*
X140204774Y-79926896D01*
X140282795Y-80115254D01*
X140396063Y-80284772D01*
X140540226Y-80428935D01*
X140709744Y-80542203D01*
X140898102Y-80620224D01*
X141098061Y-80659998D01*
X141301939Y-80659998D01*
X141501898Y-80620224D01*
X141690256Y-80542203D01*
X141859774Y-80428935D01*
X142003937Y-80284772D01*
X142117205Y-80115254D01*
X142195226Y-79926896D01*
X142235000Y-79726937D01*
X142235000Y-79523059D01*
X142195226Y-79323100D01*
X142117205Y-79134742D01*
X142003937Y-78965224D01*
X141859774Y-78821061D01*
X141690256Y-78707793D01*
X141501898Y-78629772D01*
X141301939Y-78589998D01*
X141098061Y-78589998D01*
X140898102Y-78629772D01*
X140709744Y-78707793D01*
X140540226Y-78821061D01*
X140396063Y-78965224D01*
X140282795Y-79134742D01*
X140204774Y-79323100D01*
X140165000Y-79523059D01*
X127430799Y-79523059D01*
X127435000Y-79501939D01*
X127435000Y-79298061D01*
X127395226Y-79098102D01*
X127317205Y-78909744D01*
X127210468Y-78750000D01*
X127317205Y-78590256D01*
X127395226Y-78401898D01*
X127435000Y-78201939D01*
X127435000Y-77998061D01*
X127410792Y-77876358D01*
X127491896Y-77860226D01*
X127680254Y-77782205D01*
X127849772Y-77668937D01*
X127993935Y-77524774D01*
X128107203Y-77355256D01*
X128185224Y-77166898D01*
X128224998Y-76966939D01*
X128224998Y-76763061D01*
X128185224Y-76563102D01*
X128107203Y-76374744D01*
X127993935Y-76205226D01*
X127849772Y-76061063D01*
X127680254Y-75947795D01*
X127491896Y-75869774D01*
X127291937Y-75830000D01*
X127088059Y-75830000D01*
X126888100Y-75869774D01*
X126699742Y-75947795D01*
X126530224Y-76061063D01*
X126386061Y-76205226D01*
X126272793Y-76374744D01*
X126194772Y-76563102D01*
X126154998Y-76763061D01*
X126154998Y-76966939D01*
X126179206Y-77088642D01*
X126098102Y-77104774D01*
X125909744Y-77182795D01*
X125740226Y-77296063D01*
X125596063Y-77440226D01*
X125482795Y-77609744D01*
X125404774Y-77798102D01*
X125365000Y-77998061D01*
X121844169Y-77998061D01*
X121772240Y-77950000D01*
X121946632Y-77833475D01*
X122153475Y-77626632D01*
X122315990Y-77383411D01*
X122427932Y-77113158D01*
X122485000Y-76826260D01*
X122485000Y-76533740D01*
X122427932Y-76246842D01*
X122315990Y-75976589D01*
X122153475Y-75733368D01*
X121946632Y-75526525D01*
X121772240Y-75410000D01*
X121946632Y-75293475D01*
X122153475Y-75086632D01*
X122315990Y-74843411D01*
X122427932Y-74573158D01*
X122485000Y-74286260D01*
X122485000Y-74198061D01*
X126765000Y-74198061D01*
X126765000Y-74401939D01*
X126804774Y-74601898D01*
X126882795Y-74790256D01*
X126996063Y-74959774D01*
X127140226Y-75103937D01*
X127309744Y-75217205D01*
X127498102Y-75295226D01*
X127698061Y-75335000D01*
X127901939Y-75335000D01*
X128101898Y-75295226D01*
X128122840Y-75286551D01*
X128240226Y-75403937D01*
X128409744Y-75517205D01*
X128564998Y-75581514D01*
X128564998Y-75701939D01*
X128604772Y-75901898D01*
X128682793Y-76090256D01*
X128796061Y-76259774D01*
X128940224Y-76403937D01*
X129109742Y-76517205D01*
X129298100Y-76595226D01*
X129498059Y-76635000D01*
X129701937Y-76635000D01*
X129901896Y-76595226D01*
X129990161Y-76558665D01*
X131265000Y-76558665D01*
X131265000Y-76841335D01*
X131320147Y-77118574D01*
X131428320Y-77379727D01*
X131585363Y-77614759D01*
X131785241Y-77814637D01*
X132020273Y-77971680D01*
X132281426Y-78079853D01*
X132558665Y-78135000D01*
X132841335Y-78135000D01*
X133118574Y-78079853D01*
X133379727Y-77971680D01*
X133614759Y-77814637D01*
X133814637Y-77614759D01*
X133971680Y-77379727D01*
X134079853Y-77118574D01*
X134123716Y-76898061D01*
X135765000Y-76898061D01*
X135765000Y-77101939D01*
X135804774Y-77301898D01*
X135882795Y-77490256D01*
X135996063Y-77659774D01*
X136140226Y-77803937D01*
X136309744Y-77917205D01*
X136498102Y-77995226D01*
X136698061Y-78035000D01*
X136901939Y-78035000D01*
X137101898Y-77995226D01*
X137290256Y-77917205D01*
X137459774Y-77803937D01*
X137603937Y-77659774D01*
X137611763Y-77648061D01*
X138365000Y-77648061D01*
X138365000Y-77851939D01*
X138404774Y-78051898D01*
X138482795Y-78240256D01*
X138596063Y-78409774D01*
X138740226Y-78553937D01*
X138909744Y-78667205D01*
X139098102Y-78745226D01*
X139298061Y-78785000D01*
X139501939Y-78785000D01*
X139701898Y-78745226D01*
X139890256Y-78667205D01*
X140059774Y-78553937D01*
X140203937Y-78409774D01*
X140317205Y-78240256D01*
X140395226Y-78051898D01*
X140398587Y-78035000D01*
X140501939Y-78035000D01*
X140701898Y-77995226D01*
X140890256Y-77917205D01*
X141059774Y-77803937D01*
X141203937Y-77659774D01*
X141317205Y-77490256D01*
X141395226Y-77301898D01*
X141435000Y-77101939D01*
X141435000Y-76898061D01*
X141395226Y-76698102D01*
X141317205Y-76509744D01*
X141203937Y-76340226D01*
X141059774Y-76196063D01*
X140890256Y-76082795D01*
X140701898Y-76004774D01*
X140501939Y-75965000D01*
X140298061Y-75965000D01*
X140098102Y-76004774D01*
X139909744Y-76082795D01*
X139740226Y-76196063D01*
X139596063Y-76340226D01*
X139482795Y-76509744D01*
X139404774Y-76698102D01*
X139401413Y-76715000D01*
X139298061Y-76715000D01*
X139098102Y-76754774D01*
X138909744Y-76832795D01*
X138740226Y-76946063D01*
X138596063Y-77090226D01*
X138482795Y-77259744D01*
X138404774Y-77448102D01*
X138365000Y-77648061D01*
X137611763Y-77648061D01*
X137717205Y-77490256D01*
X137795226Y-77301898D01*
X137835000Y-77101939D01*
X137835000Y-76898061D01*
X137795226Y-76698102D01*
X137763977Y-76622660D01*
X137901898Y-76595226D01*
X138090256Y-76517205D01*
X138259774Y-76403937D01*
X138403937Y-76259774D01*
X138517205Y-76090256D01*
X138595226Y-75901898D01*
X138635000Y-75701939D01*
X138635000Y-75498061D01*
X138595226Y-75298102D01*
X138595210Y-75298061D01*
X142965000Y-75298061D01*
X142965000Y-75501939D01*
X143004774Y-75701898D01*
X143082795Y-75890256D01*
X143196063Y-76059774D01*
X143340226Y-76203937D01*
X143509744Y-76317205D01*
X143698102Y-76395226D01*
X143898061Y-76435000D01*
X144101939Y-76435000D01*
X144301898Y-76395226D01*
X144490256Y-76317205D01*
X144659774Y-76203937D01*
X144803937Y-76059774D01*
X144917205Y-75890256D01*
X144995226Y-75701898D01*
X145035000Y-75501939D01*
X145035000Y-75298061D01*
X144995226Y-75098102D01*
X144917205Y-74909744D01*
X144803937Y-74740226D01*
X144659774Y-74596063D01*
X144490256Y-74482795D01*
X144301898Y-74404774D01*
X144101939Y-74365000D01*
X143898061Y-74365000D01*
X143698102Y-74404774D01*
X143509744Y-74482795D01*
X143340226Y-74596063D01*
X143196063Y-74740226D01*
X143082795Y-74909744D01*
X143004774Y-75098102D01*
X142965000Y-75298061D01*
X138595210Y-75298061D01*
X138517205Y-75109744D01*
X138403937Y-74940226D01*
X138259774Y-74796063D01*
X138090256Y-74682795D01*
X137901898Y-74604774D01*
X137701939Y-74565000D01*
X137498061Y-74565000D01*
X137298102Y-74604774D01*
X137109744Y-74682795D01*
X136940226Y-74796063D01*
X136796063Y-74940226D01*
X136682795Y-75109744D01*
X136604774Y-75298102D01*
X136565000Y-75498061D01*
X136565000Y-75701939D01*
X136604774Y-75901898D01*
X136636023Y-75977340D01*
X136498102Y-76004774D01*
X136309744Y-76082795D01*
X136140226Y-76196063D01*
X135996063Y-76340226D01*
X135882795Y-76509744D01*
X135804774Y-76698102D01*
X135765000Y-76898061D01*
X134123716Y-76898061D01*
X134135000Y-76841335D01*
X134135000Y-76558665D01*
X134079853Y-76281426D01*
X133971680Y-76020273D01*
X133814637Y-75785241D01*
X133614759Y-75585363D01*
X133379727Y-75428320D01*
X133118574Y-75320147D01*
X132841335Y-75265000D01*
X132558665Y-75265000D01*
X132281426Y-75320147D01*
X132020273Y-75428320D01*
X131785241Y-75585363D01*
X131585363Y-75785241D01*
X131428320Y-76020273D01*
X131320147Y-76281426D01*
X131265000Y-76558665D01*
X129990161Y-76558665D01*
X130090254Y-76517205D01*
X130259772Y-76403937D01*
X130403935Y-76259774D01*
X130517203Y-76090256D01*
X130595224Y-75901898D01*
X130634998Y-75701939D01*
X130634998Y-75498061D01*
X130595224Y-75298102D01*
X130517203Y-75109744D01*
X130403935Y-74940226D01*
X130259772Y-74796063D01*
X130090254Y-74682795D01*
X129935000Y-74618486D01*
X129935000Y-74498061D01*
X129895226Y-74298102D01*
X129817205Y-74109744D01*
X129703937Y-73940226D01*
X129563711Y-73800000D01*
X129603937Y-73759774D01*
X129717205Y-73590256D01*
X129755393Y-73498061D01*
X133765000Y-73498061D01*
X133765000Y-73701939D01*
X133804774Y-73901898D01*
X133882795Y-74090256D01*
X133996063Y-74259774D01*
X134140226Y-74403937D01*
X134309744Y-74517205D01*
X134498102Y-74595226D01*
X134698061Y-74635000D01*
X134901939Y-74635000D01*
X135101898Y-74595226D01*
X135290256Y-74517205D01*
X135459774Y-74403937D01*
X135603937Y-74259774D01*
X135717205Y-74090256D01*
X135744506Y-74024347D01*
X135798061Y-74035000D01*
X136001939Y-74035000D01*
X136201898Y-73995226D01*
X136390256Y-73917205D01*
X136559774Y-73803937D01*
X136703937Y-73659774D01*
X136817205Y-73490256D01*
X136895226Y-73301898D01*
X136935000Y-73101939D01*
X136935000Y-72898061D01*
X142765000Y-72898061D01*
X142765000Y-73101939D01*
X142804774Y-73301898D01*
X142882795Y-73490256D01*
X142996063Y-73659774D01*
X143140226Y-73803937D01*
X143309744Y-73917205D01*
X143498102Y-73995226D01*
X143698061Y-74035000D01*
X143901939Y-74035000D01*
X144101898Y-73995226D01*
X144290256Y-73917205D01*
X144459774Y-73803937D01*
X144603937Y-73659774D01*
X144717205Y-73490256D01*
X144795226Y-73301898D01*
X144835000Y-73101939D01*
X144835000Y-72898061D01*
X144795226Y-72698102D01*
X144717205Y-72509744D01*
X144603937Y-72340226D01*
X144459774Y-72196063D01*
X144290256Y-72082795D01*
X144101898Y-72004774D01*
X143901939Y-71965000D01*
X143698061Y-71965000D01*
X143498102Y-72004774D01*
X143309744Y-72082795D01*
X143140226Y-72196063D01*
X142996063Y-72340226D01*
X142882795Y-72509744D01*
X142804774Y-72698102D01*
X142765000Y-72898061D01*
X136935000Y-72898061D01*
X136895226Y-72698102D01*
X136817205Y-72509744D01*
X136703937Y-72340226D01*
X136559774Y-72196063D01*
X136390256Y-72082795D01*
X136201898Y-72004774D01*
X136001939Y-71965000D01*
X135798061Y-71965000D01*
X135598102Y-72004774D01*
X135409744Y-72082795D01*
X135240226Y-72196063D01*
X135096063Y-72340226D01*
X134982795Y-72509744D01*
X134955494Y-72575653D01*
X134901939Y-72565000D01*
X134698061Y-72565000D01*
X134498102Y-72604774D01*
X134309744Y-72682795D01*
X134140226Y-72796063D01*
X133996063Y-72940226D01*
X133882795Y-73109744D01*
X133804774Y-73298102D01*
X133765000Y-73498061D01*
X129755393Y-73498061D01*
X129795226Y-73401898D01*
X129835000Y-73201939D01*
X129835000Y-72998061D01*
X129795226Y-72798102D01*
X129717205Y-72609744D01*
X129603937Y-72440226D01*
X129459774Y-72296063D01*
X129290256Y-72182795D01*
X129101898Y-72104774D01*
X128901939Y-72065000D01*
X128698061Y-72065000D01*
X128498102Y-72104774D01*
X128309744Y-72182795D01*
X128140226Y-72296063D01*
X127996063Y-72440226D01*
X127882795Y-72609744D01*
X127804774Y-72798102D01*
X127765000Y-72998061D01*
X127765000Y-73201939D01*
X127777544Y-73265000D01*
X127698061Y-73265000D01*
X127498102Y-73304774D01*
X127309744Y-73382795D01*
X127140226Y-73496063D01*
X126996063Y-73640226D01*
X126882795Y-73809744D01*
X126804774Y-73998102D01*
X126765000Y-74198061D01*
X122485000Y-74198061D01*
X122485000Y-73993740D01*
X122427932Y-73706842D01*
X122315990Y-73436589D01*
X122153475Y-73193368D01*
X121946632Y-72986525D01*
X121772240Y-72870000D01*
X121946632Y-72753475D01*
X122153475Y-72546632D01*
X122315990Y-72303411D01*
X122427932Y-72033158D01*
X122485000Y-71746260D01*
X122485000Y-71453740D01*
X122427932Y-71166842D01*
X122315990Y-70896589D01*
X122153475Y-70653368D01*
X122021620Y-70521513D01*
X122094180Y-70499502D01*
X122204494Y-70440537D01*
X122301185Y-70361185D01*
X122380537Y-70264494D01*
X122439502Y-70154180D01*
X122475812Y-70034482D01*
X122488072Y-69910000D01*
X122488072Y-68210000D01*
X122479897Y-68127000D01*
X123138083Y-68127000D01*
X123082795Y-68209744D01*
%TA.AperFunction,Conductor*%
D17*
G36*
X123082795Y-68209744D02*
G01*
X123004774Y-68398102D01*
X122965000Y-68598061D01*
X122965000Y-68801939D01*
X123004774Y-69001898D01*
X123082795Y-69190256D01*
X123196063Y-69359774D01*
X123340226Y-69503937D01*
X123509744Y-69617205D01*
X123698102Y-69695226D01*
X123898061Y-69735000D01*
X124101939Y-69735000D01*
X124301898Y-69695226D01*
X124490256Y-69617205D01*
X124659774Y-69503937D01*
X124803937Y-69359774D01*
X124917205Y-69190256D01*
X124995226Y-69001898D01*
X125035000Y-68801939D01*
X125035000Y-68598061D01*
X124995226Y-68398102D01*
X124917205Y-68209744D01*
X124861917Y-68127000D01*
X125538083Y-68127000D01*
X125482795Y-68209744D01*
X125404774Y-68398102D01*
X125365000Y-68598061D01*
X125365000Y-68801939D01*
X125404774Y-69001898D01*
X125482795Y-69190256D01*
X125596063Y-69359774D01*
X125740226Y-69503937D01*
X125909744Y-69617205D01*
X126098102Y-69695226D01*
X126196266Y-69714752D01*
X126132795Y-69809744D01*
X126054774Y-69998102D01*
X126015000Y-70198061D01*
X126015000Y-70401939D01*
X126054774Y-70601898D01*
X126132795Y-70790256D01*
X126246063Y-70959774D01*
X126390226Y-71103937D01*
X126559744Y-71217205D01*
X126748102Y-71295226D01*
X126948061Y-71335000D01*
X127151939Y-71335000D01*
X127351898Y-71295226D01*
X127540256Y-71217205D01*
X127709774Y-71103937D01*
X127853937Y-70959774D01*
X127861763Y-70948061D01*
X128665000Y-70948061D01*
X128665000Y-71151939D01*
X128704774Y-71351898D01*
X128782795Y-71540256D01*
X128896063Y-71709774D01*
X129040226Y-71853937D01*
X129209744Y-71967205D01*
X129398102Y-72045226D01*
X129598061Y-72085000D01*
X129801939Y-72085000D01*
X130001898Y-72045226D01*
X130190256Y-71967205D01*
X130359774Y-71853937D01*
X130503937Y-71709774D01*
X130511763Y-71698061D01*
X132065000Y-71698061D01*
X132065000Y-71901939D01*
X132104774Y-72101898D01*
X132182795Y-72290256D01*
X132296063Y-72459774D01*
X132440226Y-72603937D01*
X132609744Y-72717205D01*
X132798102Y-72795226D01*
X132998061Y-72835000D01*
X133201939Y-72835000D01*
X133401898Y-72795226D01*
X133590256Y-72717205D01*
X133759774Y-72603937D01*
X133903937Y-72459774D01*
X134017205Y-72290256D01*
X134095226Y-72101898D01*
X134135000Y-71901939D01*
X134135000Y-71698061D01*
X137565000Y-71698061D01*
X137565000Y-71901939D01*
X137604774Y-72101898D01*
X137682795Y-72290256D01*
X137796063Y-72459774D01*
X137940226Y-72603937D01*
X138109744Y-72717205D01*
X138298102Y-72795226D01*
X138498061Y-72835000D01*
X138701939Y-72835000D01*
X138901898Y-72795226D01*
X139090256Y-72717205D01*
X139259774Y-72603937D01*
X139403937Y-72459774D01*
X139517205Y-72290256D01*
X139595226Y-72101898D01*
X139602569Y-72064984D01*
X139701898Y-72045226D01*
X139890256Y-71967205D01*
X140059774Y-71853937D01*
X140203937Y-71709774D01*
X140317205Y-71540256D01*
X140395226Y-71351898D01*
X140435000Y-71151939D01*
X140435000Y-70958533D01*
X140501898Y-70945226D01*
X140690256Y-70867205D01*
X140859774Y-70753937D01*
X141003937Y-70609774D01*
X141117205Y-70440256D01*
X141195226Y-70251898D01*
X141235000Y-70051939D01*
X141235000Y-69848061D01*
X141195226Y-69648102D01*
X141117205Y-69459744D01*
X141003937Y-69290226D01*
X140859774Y-69146063D01*
X140690256Y-69032795D01*
X140501898Y-68954774D01*
X140402569Y-68935016D01*
X140395226Y-68898102D01*
X140317205Y-68709744D01*
X140203937Y-68540226D01*
X140059774Y-68396063D01*
X139890256Y-68282795D01*
X139701898Y-68204774D01*
X139501939Y-68165000D01*
X139298061Y-68165000D01*
X139098102Y-68204774D01*
X138909744Y-68282795D01*
X138740226Y-68396063D01*
X138596063Y-68540226D01*
X138482795Y-68709744D01*
X138404774Y-68898102D01*
X138365000Y-69098061D01*
X138365000Y-69301939D01*
X138404774Y-69501898D01*
X138482795Y-69690256D01*
X138596063Y-69859774D01*
X138740226Y-70003937D01*
X138909744Y-70117205D01*
X138928563Y-70125000D01*
X138909744Y-70132795D01*
X138740226Y-70246063D01*
X138596063Y-70390226D01*
X138482795Y-70559744D01*
X138404774Y-70748102D01*
X138397431Y-70785016D01*
X138298102Y-70804774D01*
X138109744Y-70882795D01*
X137940226Y-70996063D01*
X137796063Y-71140226D01*
X137682795Y-71309744D01*
X137604774Y-71498102D01*
X137565000Y-71698061D01*
X134135000Y-71698061D01*
X134095226Y-71498102D01*
X134017205Y-71309744D01*
X133903937Y-71140226D01*
X133759774Y-70996063D01*
X133590256Y-70882795D01*
X133401898Y-70804774D01*
X133201939Y-70765000D01*
X132998061Y-70765000D01*
X132798102Y-70804774D01*
X132609744Y-70882795D01*
X132440226Y-70996063D01*
X132296063Y-71140226D01*
X132182795Y-71309744D01*
X132104774Y-71498102D01*
X132065000Y-71698061D01*
X130511763Y-71698061D01*
X130617205Y-71540256D01*
X130695226Y-71351898D01*
X130735000Y-71151939D01*
X130735000Y-70948061D01*
X130695226Y-70748102D01*
X130617205Y-70559744D01*
X130503937Y-70390226D01*
X130359774Y-70246063D01*
X130287934Y-70198061D01*
X133765000Y-70198061D01*
X133765000Y-70401939D01*
X133804774Y-70601898D01*
X133882795Y-70790256D01*
X133996063Y-70959774D01*
X134140226Y-71103937D01*
X134309744Y-71217205D01*
X134498102Y-71295226D01*
X134698061Y-71335000D01*
X134901939Y-71335000D01*
X135101898Y-71295226D01*
X135290256Y-71217205D01*
X135459774Y-71103937D01*
X135603937Y-70959774D01*
X135717205Y-70790256D01*
X135795226Y-70601898D01*
X135835000Y-70401939D01*
X135835000Y-70198061D01*
X135795226Y-69998102D01*
X135717205Y-69809744D01*
X135603937Y-69640226D01*
X135459774Y-69496063D01*
X135290256Y-69382795D01*
X135101898Y-69304774D01*
X134901939Y-69265000D01*
X134698061Y-69265000D01*
X134498102Y-69304774D01*
X134309744Y-69382795D01*
X134140226Y-69496063D01*
X133996063Y-69640226D01*
X133882795Y-69809744D01*
X133804774Y-69998102D01*
X133765000Y-70198061D01*
X130287934Y-70198061D01*
X130190256Y-70132795D01*
X130001898Y-70054774D01*
X129801939Y-70015000D01*
X129598061Y-70015000D01*
X129398102Y-70054774D01*
X129209744Y-70132795D01*
X129040226Y-70246063D01*
X128896063Y-70390226D01*
X128782795Y-70559744D01*
X128704774Y-70748102D01*
X128665000Y-70948061D01*
X127861763Y-70948061D01*
X127967205Y-70790256D01*
X128045226Y-70601898D01*
X128085000Y-70401939D01*
X128085000Y-70198587D01*
X128101898Y-70195226D01*
X128290256Y-70117205D01*
X128459774Y-70003937D01*
X128603937Y-69859774D01*
X128717205Y-69690256D01*
X128781515Y-69535000D01*
X128901939Y-69535000D01*
X129101898Y-69495226D01*
X129290256Y-69417205D01*
X129459774Y-69303937D01*
X129603937Y-69159774D01*
X129717205Y-68990256D01*
X129795226Y-68801898D01*
X129835000Y-68601939D01*
X129835000Y-68398061D01*
X129795226Y-68198102D01*
X129765774Y-68127000D01*
X144920103Y-68127000D01*
X144911928Y-68210000D01*
X144911928Y-68701846D01*
X144803937Y-68540226D01*
X144659774Y-68396063D01*
X144490256Y-68282795D01*
X144301898Y-68204774D01*
X144101939Y-68165000D01*
X143898061Y-68165000D01*
X143698102Y-68204774D01*
X143509744Y-68282795D01*
X143340226Y-68396063D01*
X143196063Y-68540226D01*
X143082795Y-68709744D01*
X143004774Y-68898102D01*
X142965000Y-69098061D01*
X142965000Y-69301939D01*
X143004774Y-69501898D01*
X143034103Y-69572705D01*
X143009744Y-69582795D01*
X142840226Y-69696063D01*
X142696063Y-69840226D01*
X142582795Y-70009744D01*
X142504774Y-70198102D01*
X142465000Y-70398061D01*
X142465000Y-70601939D01*
X142504774Y-70801898D01*
X142582795Y-70990256D01*
X142696063Y-71159774D01*
X142840226Y-71303937D01*
X143009744Y-71417205D01*
X143198102Y-71495226D01*
X143398061Y-71535000D01*
X143601939Y-71535000D01*
X143801898Y-71495226D01*
X143990256Y-71417205D01*
X144159774Y-71303937D01*
X144303937Y-71159774D01*
X144417205Y-70990256D01*
X144495226Y-70801898D01*
X144535000Y-70601939D01*
X144535000Y-70398061D01*
X144495226Y-70198102D01*
X144465897Y-70127295D01*
X144490256Y-70117205D01*
X144659774Y-70003937D01*
X144803937Y-69859774D01*
X144911928Y-69698154D01*
X144911928Y-69910000D01*
X144924188Y-70034482D01*
X144960498Y-70154180D01*
X145019463Y-70264494D01*
X145098815Y-70361185D01*
X145195506Y-70440537D01*
X145305820Y-70499502D01*
X145378380Y-70521513D01*
X145246525Y-70653368D01*
X145084010Y-70896589D01*
X144972068Y-71166842D01*
X144915000Y-71453740D01*
X144915000Y-71746260D01*
X144972068Y-72033158D01*
X145084010Y-72303411D01*
X145246525Y-72546632D01*
X145453368Y-72753475D01*
X145627760Y-72870000D01*
X145453368Y-72986525D01*
X145246525Y-73193368D01*
X145084010Y-73436589D01*
X144972068Y-73706842D01*
X144915000Y-73993740D01*
X144915000Y-74286260D01*
X144972068Y-74573158D01*
X145084010Y-74843411D01*
X145246525Y-75086632D01*
X145453368Y-75293475D01*
X145627760Y-75410000D01*
X145453368Y-75526525D01*
X145246525Y-75733368D01*
X145084010Y-75976589D01*
X144972068Y-76246842D01*
X144915000Y-76533740D01*
X144915000Y-76826260D01*
X144972068Y-77113158D01*
X145084010Y-77383411D01*
X145246525Y-77626632D01*
X145453368Y-77833475D01*
X145627760Y-77950000D01*
X145453368Y-78066525D01*
X145246525Y-78273368D01*
X145142633Y-78428854D01*
X145195220Y-78301898D01*
X145234994Y-78101939D01*
X145234994Y-77898061D01*
X145195220Y-77698102D01*
X145117199Y-77509744D01*
X145003931Y-77340226D01*
X144859768Y-77196063D01*
X144690250Y-77082795D01*
X144501892Y-77004774D01*
X144301933Y-76965000D01*
X144098055Y-76965000D01*
X143898096Y-77004774D01*
X143709738Y-77082795D01*
X143540220Y-77196063D01*
X143405269Y-77331014D01*
X143368466Y-77323693D01*
X143164588Y-77323693D01*
X142964629Y-77363467D01*
X142776271Y-77441488D01*
X142606753Y-77554756D01*
X142462590Y-77698919D01*
X142349322Y-77868437D01*
X142271301Y-78056795D01*
X142231527Y-78256754D01*
X142231527Y-78460632D01*
X142271301Y-78660591D01*
X142349322Y-78848949D01*
X142462590Y-79018467D01*
X142606753Y-79162630D01*
X142776271Y-79275898D01*
X142964629Y-79353919D01*
X143164588Y-79393693D01*
X143368466Y-79393693D01*
X143568425Y-79353919D01*
X143756783Y-79275898D01*
X143926301Y-79162630D01*
X144061252Y-79027679D01*
X144098055Y-79035000D01*
X144301933Y-79035000D01*
X144501892Y-78995226D01*
X144690250Y-78917205D01*
X144859768Y-78803937D01*
X145003931Y-78659774D01*
X145058577Y-78577991D01*
X144972068Y-78786842D01*
X144915000Y-79073740D01*
X144915000Y-79366260D01*
X144972068Y-79653158D01*
X145084010Y-79923411D01*
X145246525Y-80166632D01*
X145453368Y-80373475D01*
X145627760Y-80490000D01*
X145453368Y-80606525D01*
X145246525Y-80813368D01*
X145084010Y-81056589D01*
X144972068Y-81326842D01*
X144915000Y-81613740D01*
X144915000Y-81906260D01*
X144972068Y-82193158D01*
X145084010Y-82463411D01*
X145246525Y-82706632D01*
X145453368Y-82913475D01*
X145627760Y-83030000D01*
X145453368Y-83146525D01*
X145246525Y-83353368D01*
X145084010Y-83596589D01*
X144972068Y-83866842D01*
X144915000Y-84153740D01*
X144915000Y-84446260D01*
X144972068Y-84733158D01*
X145084010Y-85003411D01*
X145246525Y-85246632D01*
X145453368Y-85453475D01*
X145627760Y-85570000D01*
X145453368Y-85686525D01*
X145246525Y-85893368D01*
X145084010Y-86136589D01*
X144972068Y-86406842D01*
X144915000Y-86693740D01*
X144915000Y-86986260D01*
X144972068Y-87273158D01*
X145084010Y-87543411D01*
X145246525Y-87786632D01*
X145453368Y-87993475D01*
X145627760Y-88110000D01*
X145453368Y-88226525D01*
X145246525Y-88433368D01*
X145084010Y-88676589D01*
X144972068Y-88946842D01*
X144915000Y-89233740D01*
X144915000Y-89526260D01*
X144972068Y-89813158D01*
X145084010Y-90083411D01*
X145246525Y-90326632D01*
X145257712Y-90337819D01*
X145235573Y-90342223D01*
X145047215Y-90420244D01*
X144877697Y-90533512D01*
X144733534Y-90677675D01*
X144620266Y-90847193D01*
X144542245Y-91035551D01*
X144502471Y-91235510D01*
X144502471Y-91439388D01*
X144542245Y-91639347D01*
X144620266Y-91827705D01*
X144733534Y-91997223D01*
X144877697Y-92141386D01*
X144937952Y-92181647D01*
X144972068Y-92353158D01*
X145084010Y-92623411D01*
X145246525Y-92866632D01*
X145453368Y-93073475D01*
X145627760Y-93190000D01*
X145453368Y-93306525D01*
X145246525Y-93513368D01*
X145084010Y-93756589D01*
X144972068Y-94026842D01*
X144915000Y-94313740D01*
X144915000Y-94606260D01*
X144972068Y-94893158D01*
X145084010Y-95163411D01*
X145246525Y-95406632D01*
X145453368Y-95613475D01*
X145627760Y-95730000D01*
X145453368Y-95846525D01*
X145246525Y-96053368D01*
X145084010Y-96296589D01*
X144972068Y-96566842D01*
X144915000Y-96853740D01*
X144915000Y-97146260D01*
X144972068Y-97433158D01*
X145084010Y-97703411D01*
X145246525Y-97946632D01*
X145453368Y-98153475D01*
X145627760Y-98270000D01*
X145453368Y-98386525D01*
X145246525Y-98593368D01*
X145084010Y-98836589D01*
X144972068Y-99106842D01*
X144915000Y-99393740D01*
X144915000Y-99686260D01*
X144972068Y-99973158D01*
X145084010Y-100243411D01*
X145246525Y-100486632D01*
X145453368Y-100693475D01*
X145627760Y-100810000D01*
X145453368Y-100926525D01*
X145246525Y-101133368D01*
X145084010Y-101376589D01*
X144972068Y-101646842D01*
X144915000Y-101933740D01*
X144915000Y-102226260D01*
X144972068Y-102513158D01*
X145084010Y-102783411D01*
X145246525Y-103026632D01*
X145453368Y-103233475D01*
X145627760Y-103350000D01*
X145453368Y-103466525D01*
X145246525Y-103673368D01*
X145084010Y-103916589D01*
X144972068Y-104186842D01*
X144915000Y-104473740D01*
X144915000Y-104766260D01*
X144972068Y-105053158D01*
X145084010Y-105323411D01*
X145246525Y-105566632D01*
X145453368Y-105773475D01*
X145627760Y-105890000D01*
X145453368Y-106006525D01*
X145246525Y-106213368D01*
X145084010Y-106456589D01*
X144972068Y-106726842D01*
X144915000Y-107013740D01*
X144915000Y-107306260D01*
X144972068Y-107593158D01*
X145084010Y-107863411D01*
X145246525Y-108106632D01*
X145453368Y-108313475D01*
X145627760Y-108430000D01*
X145453368Y-108546525D01*
X145246525Y-108753368D01*
X145084010Y-108996589D01*
X144972068Y-109266842D01*
X144915000Y-109553740D01*
X144915000Y-109846260D01*
X144972068Y-110133158D01*
X145084010Y-110403411D01*
X145246525Y-110646632D01*
X145453368Y-110853475D01*
X145627760Y-110970000D01*
X145453368Y-111086525D01*
X145246525Y-111293368D01*
X145084010Y-111536589D01*
X144972068Y-111806842D01*
X144915000Y-112093740D01*
X144915000Y-112386260D01*
X144972068Y-112673158D01*
X145084010Y-112943411D01*
X145246525Y-113186632D01*
X145453368Y-113393475D01*
X145696589Y-113555990D01*
X145966842Y-113667932D01*
X146253740Y-113725000D01*
X146546260Y-113725000D01*
X146833158Y-113667932D01*
X147103411Y-113555990D01*
X147346632Y-113393475D01*
X147540000Y-113200107D01*
X147540000Y-116010856D01*
X147358363Y-115739017D01*
X147060983Y-115441637D01*
X146711302Y-115207988D01*
X146322756Y-115047047D01*
X145910279Y-114965000D01*
X145489721Y-114965000D01*
X145077244Y-115047047D01*
X144688698Y-115207988D01*
X144339017Y-115441637D01*
X144041637Y-115739017D01*
X143807988Y-116088698D01*
X143647047Y-116477244D01*
X143565000Y-116889721D01*
X143565000Y-117310279D01*
X143647047Y-117722756D01*
X143807988Y-118111302D01*
X144041637Y-118460983D01*
X144339017Y-118758363D01*
X144610856Y-118940000D01*
X142882244Y-118940000D01*
X142894407Y-118899904D01*
X142913000Y-118711122D01*
X142913000Y-117684877D01*
X142894407Y-117496096D01*
X142820929Y-117253873D01*
X142701608Y-117030638D01*
X142541028Y-116834972D01*
X142345361Y-116674392D01*
X142122126Y-116555071D01*
X141879903Y-116481593D01*
X141628000Y-116456783D01*
X141376096Y-116481593D01*
X141133873Y-116555071D01*
X140910638Y-116674392D01*
X140714972Y-116834972D01*
X140554392Y-117030639D01*
X140435071Y-117253874D01*
X140361593Y-117496097D01*
X140343000Y-117684878D01*
X140343000Y-118711123D01*
X140361593Y-118899904D01*
X140373756Y-118940000D01*
X135643244Y-118940000D01*
X135655407Y-118899904D01*
X135674000Y-118711122D01*
X135674000Y-117684877D01*
X135655407Y-117496096D01*
X135581929Y-117253873D01*
X135462608Y-117030638D01*
X135302028Y-116834972D01*
X135106361Y-116674392D01*
X134883126Y-116555071D01*
X134640903Y-116481593D01*
X134389000Y-116456783D01*
X134137096Y-116481593D01*
X133894873Y-116555071D01*
X133671638Y-116674392D01*
X133475972Y-116834972D01*
X133315392Y-117030639D01*
X133196071Y-117253874D01*
X133122593Y-117496097D01*
X133104000Y-117684878D01*
X133104000Y-118711123D01*
X133122593Y-118899904D01*
X133134756Y-118940000D01*
X122789144Y-118940000D01*
X123060983Y-118758363D01*
X123358363Y-118460983D01*
X123592012Y-118111302D01*
X123752953Y-117722756D01*
X123835000Y-117310279D01*
X123835000Y-116889721D01*
X123752953Y-116477244D01*
X123592012Y-116088698D01*
X123358363Y-115739017D01*
X123060983Y-115441637D01*
X122711302Y-115207988D01*
X122322756Y-115047047D01*
X121910279Y-114965000D01*
X121489721Y-114965000D01*
X121077244Y-115047047D01*
X120688698Y-115207988D01*
X120339017Y-115441637D01*
X120041637Y-115739017D01*
X119860000Y-116010856D01*
X119860000Y-114698061D01*
X133065000Y-114698061D01*
X133065000Y-114901939D01*
X133104774Y-115101898D01*
X133182795Y-115290256D01*
X133296063Y-115459774D01*
X133440226Y-115603937D01*
X133609744Y-115717205D01*
X133798102Y-115795226D01*
X133998061Y-115835000D01*
X134201939Y-115835000D01*
X134384611Y-115798665D01*
X134396460Y-115858236D01*
X134489557Y-116082992D01*
X134624713Y-116285267D01*
X134796733Y-116457287D01*
X134999008Y-116592443D01*
X135223764Y-116685540D01*
X135462363Y-116733000D01*
X135705637Y-116733000D01*
X135944236Y-116685540D01*
X136168992Y-116592443D01*
X136371267Y-116457287D01*
X136543287Y-116285267D01*
X136678443Y-116082992D01*
X136771540Y-115858236D01*
X136819000Y-115619637D01*
X136819000Y-115376363D01*
X136771540Y-115137764D01*
X136678443Y-114913008D01*
X136543287Y-114710733D01*
X136371267Y-114538713D01*
X136168992Y-114403557D01*
X135944236Y-114310460D01*
X135705637Y-114263000D01*
X135462363Y-114263000D01*
X135223764Y-114310460D01*
X135047708Y-114383385D01*
X135017205Y-114309744D01*
X134903937Y-114140226D01*
X134759774Y-113996063D01*
X134590256Y-113882795D01*
X134401898Y-113804774D01*
X134201939Y-113765000D01*
X133998061Y-113765000D01*
X133798102Y-113804774D01*
X133609744Y-113882795D01*
X133440226Y-113996063D01*
X133296063Y-114140226D01*
X133182795Y-114309744D01*
X133104774Y-114498102D01*
X133065000Y-114698061D01*
X119860000Y-114698061D01*
X119860000Y-113200107D01*
X120053368Y-113393475D01*
X120296589Y-113555990D01*
X120566842Y-113667932D01*
X120853740Y-113725000D01*
X121146260Y-113725000D01*
X121433158Y-113667932D01*
X121703411Y-113555990D01*
X121946632Y-113393475D01*
X122153475Y-113186632D01*
X122315990Y-112943411D01*
X122427932Y-112673158D01*
X122485000Y-112386260D01*
X122485000Y-112093740D01*
X122427932Y-111806842D01*
X122315990Y-111536589D01*
X122290247Y-111498061D01*
X126165000Y-111498061D01*
X126165000Y-111701939D01*
X126204774Y-111901898D01*
X126266120Y-112050000D01*
X126204774Y-112198102D01*
X126165000Y-112398061D01*
X126165000Y-112601939D01*
X126204774Y-112801898D01*
X126282795Y-112990256D01*
X126396063Y-113159774D01*
X126540226Y-113303937D01*
X126709744Y-113417205D01*
X126898102Y-113495226D01*
X127098061Y-113535000D01*
X127301939Y-113535000D01*
X127501898Y-113495226D01*
X127650000Y-113433880D01*
X127798102Y-113495226D01*
X127998061Y-113535000D01*
X128201939Y-113535000D01*
X128401898Y-113495226D01*
X128590256Y-113417205D01*
X128759774Y-113303937D01*
X128903937Y-113159774D01*
X128967378Y-113064827D01*
X135758910Y-113064827D01*
X135758910Y-113268705D01*
X135798684Y-113468664D01*
X135876705Y-113657022D01*
X135989973Y-113826540D01*
X136134136Y-113970703D01*
X136303654Y-114083971D01*
X136492012Y-114161992D01*
X136691971Y-114201766D01*
X136895849Y-114201766D01*
X137095808Y-114161992D01*
X137284166Y-114083971D01*
X137453684Y-113970703D01*
X137597847Y-113826540D01*
X137711115Y-113657022D01*
X137789136Y-113468664D01*
X137803595Y-113395972D01*
X137804774Y-113401898D01*
X137882795Y-113590256D01*
X137996063Y-113759774D01*
X138140226Y-113903937D01*
X138309744Y-114017205D01*
X138498102Y-114095226D01*
X138698061Y-114135000D01*
X138901939Y-114135000D01*
X139101898Y-114095226D01*
X139103329Y-114094633D01*
X139104774Y-114101898D01*
X139182795Y-114290256D01*
X139296063Y-114459774D01*
X139440226Y-114603937D01*
X139524919Y-114660527D01*
X139474713Y-114710733D01*
X139339557Y-114913008D01*
X139246460Y-115137764D01*
X139199000Y-115376363D01*
X139199000Y-115619637D01*
X139246460Y-115858236D01*
X139339557Y-116082992D01*
X139474713Y-116285267D01*
X139646733Y-116457287D01*
X139849008Y-116592443D01*
X140073764Y-116685540D01*
X140312363Y-116733000D01*
X140555637Y-116733000D01*
X140794236Y-116685540D01*
X141018992Y-116592443D01*
X141221267Y-116457287D01*
X141393287Y-116285267D01*
X141528443Y-116082992D01*
X141621540Y-115858236D01*
X141669000Y-115619637D01*
X141669000Y-115376363D01*
X141621540Y-115137764D01*
X141528443Y-114913008D01*
X141393287Y-114710733D01*
X141221267Y-114538713D01*
X141018992Y-114403557D01*
X140958298Y-114378417D01*
X141017205Y-114290256D01*
X141095226Y-114101898D01*
X141135000Y-113901939D01*
X141135000Y-113698061D01*
X141095226Y-113498102D01*
X141017205Y-113309744D01*
X140903937Y-113140226D01*
X140759774Y-112996063D01*
X140590256Y-112882795D01*
X140401898Y-112804774D01*
X140365967Y-112797627D01*
X140385000Y-112701939D01*
X140385000Y-112498061D01*
X140345226Y-112298102D01*
X140267205Y-112109744D01*
X140153937Y-111940226D01*
X140009774Y-111796063D01*
X139840256Y-111682795D01*
X139651898Y-111604774D01*
X139451939Y-111565000D01*
X139248061Y-111565000D01*
X139048102Y-111604774D01*
X138872506Y-111677509D01*
X138945247Y-111501898D01*
X138965901Y-111398061D01*
X142465000Y-111398061D01*
X142465000Y-111601939D01*
X142504774Y-111801898D01*
X142582795Y-111990256D01*
X142696063Y-112159774D01*
X142840226Y-112303937D01*
X143009744Y-112417205D01*
X143198102Y-112495226D01*
X143398061Y-112535000D01*
X143601939Y-112535000D01*
X143801898Y-112495226D01*
X143990256Y-112417205D01*
X144159774Y-112303937D01*
X144303937Y-112159774D01*
X144417205Y-111990256D01*
X144495226Y-111801898D01*
X144535000Y-111601939D01*
X144535000Y-111398061D01*
X144495226Y-111198102D01*
X144417205Y-111009744D01*
X144303937Y-110840226D01*
X144159774Y-110696063D01*
X143990256Y-110582795D01*
X143801898Y-110504774D01*
X143601939Y-110465000D01*
X143398061Y-110465000D01*
X143198102Y-110504774D01*
X143009744Y-110582795D01*
X142840226Y-110696063D01*
X142696063Y-110840226D01*
X142582795Y-111009744D01*
X142504774Y-111198102D01*
X142465000Y-111398061D01*
X138965901Y-111398061D01*
X138985021Y-111301939D01*
X138985021Y-111098061D01*
X138945247Y-110898102D01*
X138867226Y-110709744D01*
X138753958Y-110540226D01*
X138609795Y-110396063D01*
X138440277Y-110282795D01*
X138251919Y-110204774D01*
X138051960Y-110165000D01*
X137848082Y-110165000D01*
X137648123Y-110204774D01*
X137459765Y-110282795D01*
X137290247Y-110396063D01*
X137146084Y-110540226D01*
X137032816Y-110709744D01*
X136954795Y-110898102D01*
X136915021Y-111098061D01*
X136915021Y-111301939D01*
X136954795Y-111501898D01*
X137032816Y-111690256D01*
X137146084Y-111859774D01*
X137290247Y-112003937D01*
X137459765Y-112117205D01*
X137648123Y-112195226D01*
X137848082Y-112235000D01*
X138051960Y-112235000D01*
X138251919Y-112195226D01*
X138427515Y-112122491D01*
X138421754Y-112136398D01*
X138309744Y-112182795D01*
X138140226Y-112296063D01*
X137996063Y-112440226D01*
X137882795Y-112609744D01*
X137804774Y-112798102D01*
X137790315Y-112870794D01*
X137789136Y-112864868D01*
X137711115Y-112676510D01*
X137597847Y-112506992D01*
X137453684Y-112362829D01*
X137284166Y-112249561D01*
X137095808Y-112171540D01*
X136895849Y-112131766D01*
X136691971Y-112131766D01*
X136492012Y-112171540D01*
X136303654Y-112249561D01*
X136134136Y-112362829D01*
X135989973Y-112506992D01*
X135876705Y-112676510D01*
X135798684Y-112864868D01*
X135758910Y-113064827D01*
X128967378Y-113064827D01*
X129017205Y-112990256D01*
X129095226Y-112801898D01*
X129135000Y-112601939D01*
X129135000Y-112398061D01*
X129095226Y-112198102D01*
X129033880Y-112050000D01*
X129095226Y-111901898D01*
X129135000Y-111701939D01*
X129135000Y-111498061D01*
X129095226Y-111298102D01*
X129017205Y-111109744D01*
X128903937Y-110940226D01*
X128759774Y-110796063D01*
X128590256Y-110682795D01*
X128401898Y-110604774D01*
X128368150Y-110598061D01*
X133465000Y-110598061D01*
X133465000Y-110801939D01*
X133504774Y-111001898D01*
X133582795Y-111190256D01*
X133696063Y-111359774D01*
X133840226Y-111503937D01*
X134009744Y-111617205D01*
X134198102Y-111695226D01*
X134398061Y-111735000D01*
X134601939Y-111735000D01*
X134801898Y-111695226D01*
X134990256Y-111617205D01*
X135159774Y-111503937D01*
X135303937Y-111359774D01*
X135417205Y-111190256D01*
X135495226Y-111001898D01*
X135535000Y-110801939D01*
X135535000Y-110598061D01*
X135495226Y-110398102D01*
X135417205Y-110209744D01*
X135303937Y-110040226D01*
X135159774Y-109896063D01*
X134990256Y-109782795D01*
X134801898Y-109704774D01*
X134601939Y-109665000D01*
X134398061Y-109665000D01*
X134198102Y-109704774D01*
X134009744Y-109782795D01*
X133840226Y-109896063D01*
X133696063Y-110040226D01*
X133582795Y-110209744D01*
X133504774Y-110398102D01*
X133465000Y-110598061D01*
X128368150Y-110598061D01*
X128201939Y-110565000D01*
X127998061Y-110565000D01*
X127798102Y-110604774D01*
X127650000Y-110666120D01*
X127501898Y-110604774D01*
X127301939Y-110565000D01*
X127098061Y-110565000D01*
X126898102Y-110604774D01*
X126709744Y-110682795D01*
X126540226Y-110796063D01*
X126396063Y-110940226D01*
X126282795Y-111109744D01*
X126204774Y-111298102D01*
X126165000Y-111498061D01*
X122290247Y-111498061D01*
X122153475Y-111293368D01*
X121946632Y-111086525D01*
X121764466Y-110964805D01*
X121881355Y-110895178D01*
X122097588Y-110700269D01*
X122271641Y-110466920D01*
X122396825Y-110204099D01*
X122441476Y-110056890D01*
X122320155Y-109827000D01*
X121127000Y-109827000D01*
X121127000Y-109847000D01*
X120873000Y-109847000D01*
X120873000Y-109827000D01*
X120853000Y-109827000D01*
X120853000Y-109573000D01*
X120873000Y-109573000D01*
X120873000Y-109553000D01*
X121127000Y-109553000D01*
X121127000Y-109573000D01*
X122320155Y-109573000D01*
X122441476Y-109343110D01*
X122396825Y-109195901D01*
X122271641Y-108933080D01*
X122097588Y-108699731D01*
X121881355Y-108504822D01*
X121764466Y-108435195D01*
X121946632Y-108313475D01*
X122153475Y-108106632D01*
X122159201Y-108098061D01*
X133465000Y-108098061D01*
X133465000Y-108301939D01*
X133504774Y-108501898D01*
X133582795Y-108690256D01*
X133696063Y-108859774D01*
X133840226Y-109003937D01*
X134009744Y-109117205D01*
X134198102Y-109195226D01*
X134398061Y-109235000D01*
X134601939Y-109235000D01*
X134801898Y-109195226D01*
X134990256Y-109117205D01*
X135159774Y-109003937D01*
X135303937Y-108859774D01*
X135417205Y-108690256D01*
X135495226Y-108501898D01*
X135535000Y-108301939D01*
X135535000Y-108098061D01*
X135495226Y-107898102D01*
X135417205Y-107709744D01*
X135367263Y-107635000D01*
X135401939Y-107635000D01*
X135601898Y-107595226D01*
X135790256Y-107517205D01*
X135959774Y-107403937D01*
X136103937Y-107259774D01*
X136217205Y-107090256D01*
X136295226Y-106901898D01*
X136335000Y-106701939D01*
X136335000Y-106498061D01*
X136295226Y-106298102D01*
X136217205Y-106109744D01*
X136103937Y-105940226D01*
X135959774Y-105796063D01*
X135790256Y-105682795D01*
X135601898Y-105604774D01*
X135401939Y-105565000D01*
X135198061Y-105565000D01*
X134998102Y-105604774D01*
X134809744Y-105682795D01*
X134640226Y-105796063D01*
X134496063Y-105940226D01*
X134382795Y-106109744D01*
X134304774Y-106298102D01*
X134265000Y-106498061D01*
X134265000Y-106701939D01*
X134304774Y-106901898D01*
X134382795Y-107090256D01*
X134432737Y-107165000D01*
X134398061Y-107165000D01*
X134198102Y-107204774D01*
X134009744Y-107282795D01*
X133840226Y-107396063D01*
X133696063Y-107540226D01*
X133582795Y-107709744D01*
X133504774Y-107898102D01*
X133465000Y-108098061D01*
X122159201Y-108098061D01*
X122315990Y-107863411D01*
X122427932Y-107593158D01*
X122485000Y-107306260D01*
X122485000Y-107013740D01*
X122427932Y-106726842D01*
X122403043Y-106666754D01*
X122440226Y-106703937D01*
X122609744Y-106817205D01*
X122798102Y-106895226D01*
X122998061Y-106935000D01*
X123201939Y-106935000D01*
X123401898Y-106895226D01*
X123590256Y-106817205D01*
X123759774Y-106703937D01*
X123903937Y-106559774D01*
X124017205Y-106390256D01*
X124095226Y-106201898D01*
X124135000Y-106001939D01*
X124135000Y-105798061D01*
X124095226Y-105598102D01*
X124017205Y-105409744D01*
X123903937Y-105240226D01*
X123759774Y-105096063D01*
X123590256Y-104982795D01*
X123401898Y-104904774D01*
X123201939Y-104865000D01*
X122998061Y-104865000D01*
X122798102Y-104904774D01*
X122609744Y-104982795D01*
X122440226Y-105096063D01*
X122388901Y-105147388D01*
X122427932Y-105053158D01*
X122485000Y-104766260D01*
X122485000Y-104473740D01*
X122427932Y-104186842D01*
X122315990Y-103916589D01*
X122167930Y-103695000D01*
X123245796Y-103695000D01*
X123245796Y-103898878D01*
X123285570Y-104098837D01*
X123363591Y-104287195D01*
X123476859Y-104456713D01*
X123621022Y-104600876D01*
X123790540Y-104714144D01*
X123978898Y-104792165D01*
X124178857Y-104831939D01*
X124382735Y-104831939D01*
X124582694Y-104792165D01*
X124771052Y-104714144D01*
X124940570Y-104600876D01*
X125084733Y-104456713D01*
X125198001Y-104287195D01*
X125276022Y-104098837D01*
X125296067Y-103998061D01*
X134465000Y-103998061D01*
X134465000Y-104201939D01*
X134504774Y-104401898D01*
X134582795Y-104590256D01*
X134696063Y-104759774D01*
X134840226Y-104903937D01*
X135009744Y-105017205D01*
X135198102Y-105095226D01*
X135398061Y-105135000D01*
X135601939Y-105135000D01*
X135801898Y-105095226D01*
X135990256Y-105017205D01*
X136159774Y-104903937D01*
X136303937Y-104759774D01*
X136417205Y-104590256D01*
X136495226Y-104401898D01*
X136535000Y-104201939D01*
X136535000Y-103998061D01*
X136495226Y-103798102D01*
X136453788Y-103698061D01*
X141115000Y-103698061D01*
X141115000Y-103901939D01*
X141154774Y-104101898D01*
X141232795Y-104290256D01*
X141346063Y-104459774D01*
X141490226Y-104603937D01*
X141659744Y-104717205D01*
X141848102Y-104795226D01*
X141903167Y-104806179D01*
X141865000Y-104998061D01*
X141865000Y-105201939D01*
X141904774Y-105401898D01*
X141982795Y-105590256D01*
X142096063Y-105759774D01*
X142240226Y-105903937D01*
X142409744Y-106017205D01*
X142598102Y-106095226D01*
X142798061Y-106135000D01*
X143001939Y-106135000D01*
X143201898Y-106095226D01*
X143390256Y-106017205D01*
X143559774Y-105903937D01*
X143703937Y-105759774D01*
X143817205Y-105590256D01*
X143895226Y-105401898D01*
X143935000Y-105201939D01*
X143935000Y-104998061D01*
X143895226Y-104798102D01*
X143817205Y-104609744D01*
X143703937Y-104440226D01*
X143559774Y-104296063D01*
X143390256Y-104182795D01*
X143201898Y-104104774D01*
X143146833Y-104093821D01*
X143185000Y-103901939D01*
X143185000Y-103698061D01*
X143145226Y-103498102D01*
X143067205Y-103309744D01*
X142953937Y-103140226D01*
X142809774Y-102996063D01*
X142640256Y-102882795D01*
X142451898Y-102804774D01*
X142251939Y-102765000D01*
X142048061Y-102765000D01*
X141848102Y-102804774D01*
X141659744Y-102882795D01*
X141490226Y-102996063D01*
X141346063Y-103140226D01*
X141232795Y-103309744D01*
X141154774Y-103498102D01*
X141115000Y-103698061D01*
X136453788Y-103698061D01*
X136417205Y-103609744D01*
X136303937Y-103440226D01*
X136159774Y-103296063D01*
X135990256Y-103182795D01*
X135801898Y-103104774D01*
X135601939Y-103065000D01*
X135398061Y-103065000D01*
X135198102Y-103104774D01*
X135009744Y-103182795D01*
X134840226Y-103296063D01*
X134696063Y-103440226D01*
X134582795Y-103609744D01*
X134504774Y-103798102D01*
X134465000Y-103998061D01*
X125296067Y-103998061D01*
X125315796Y-103898878D01*
X125315796Y-103695000D01*
X125276022Y-103495041D01*
X125198001Y-103306683D01*
X125084733Y-103137165D01*
X124940570Y-102993002D01*
X124771052Y-102879734D01*
X124582694Y-102801713D01*
X124382735Y-102761939D01*
X124178857Y-102761939D01*
X123978898Y-102801713D01*
X123790540Y-102879734D01*
X123621022Y-102993002D01*
X123476859Y-103137165D01*
X123363591Y-103306683D01*
X123285570Y-103495041D01*
X123245796Y-103695000D01*
X122167930Y-103695000D01*
X122153475Y-103673368D01*
X121946632Y-103466525D01*
X121772240Y-103350000D01*
X121946632Y-103233475D01*
X122153475Y-103026632D01*
X122315990Y-102783411D01*
X122427932Y-102513158D01*
X122485000Y-102226260D01*
X122485000Y-101933740D01*
X122427932Y-101646842D01*
X122315990Y-101376589D01*
X122153475Y-101133368D01*
X121946632Y-100926525D01*
X121772240Y-100810000D01*
X121946632Y-100693475D01*
X122153475Y-100486632D01*
X122315990Y-100243411D01*
X122427932Y-99973158D01*
X122485000Y-99686260D01*
X122485000Y-99393740D01*
X122447434Y-99204883D01*
X122711147Y-99204883D01*
X122711147Y-99408761D01*
X122750921Y-99608720D01*
X122828942Y-99797078D01*
X122942210Y-99966596D01*
X123086373Y-100110759D01*
X123175818Y-100170524D01*
X123082795Y-100309744D01*
X123004774Y-100498102D01*
X122965000Y-100698061D01*
X122965000Y-100901939D01*
X123004774Y-101101898D01*
X123082795Y-101290256D01*
X123196063Y-101459774D01*
X123340226Y-101603937D01*
X123509744Y-101717205D01*
X123698102Y-101795226D01*
X123898061Y-101835000D01*
X124101939Y-101835000D01*
X124301898Y-101795226D01*
X124490256Y-101717205D01*
X124659774Y-101603937D01*
X124803937Y-101459774D01*
X124917205Y-101290256D01*
X124995226Y-101101898D01*
X125035000Y-100901939D01*
X125035000Y-100698061D01*
X125030579Y-100675835D01*
X125198102Y-100745226D01*
X125398061Y-100785000D01*
X125601939Y-100785000D01*
X125787645Y-100748061D01*
X128065000Y-100748061D01*
X128065000Y-100951939D01*
X128104774Y-101151898D01*
X128182795Y-101340256D01*
X128296063Y-101509774D01*
X128440226Y-101653937D01*
X128609744Y-101767205D01*
X128798102Y-101845226D01*
X128998061Y-101885000D01*
X129201939Y-101885000D01*
X129401898Y-101845226D01*
X129590256Y-101767205D01*
X129759774Y-101653937D01*
X129903937Y-101509774D01*
X130017205Y-101340256D01*
X130095226Y-101151898D01*
X130135000Y-100951939D01*
X130135000Y-100748061D01*
X130095226Y-100548102D01*
X130017205Y-100359744D01*
X129903937Y-100190226D01*
X129759774Y-100046063D01*
X129590256Y-99932795D01*
X129401898Y-99854774D01*
X129201939Y-99815000D01*
X128998061Y-99815000D01*
X128798102Y-99854774D01*
X128609744Y-99932795D01*
X128440226Y-100046063D01*
X128296063Y-100190226D01*
X128182795Y-100359744D01*
X128104774Y-100548102D01*
X128065000Y-100748061D01*
X125787645Y-100748061D01*
X125801898Y-100745226D01*
X125990256Y-100667205D01*
X126159774Y-100553937D01*
X126303937Y-100409774D01*
X126417205Y-100240256D01*
X126495226Y-100051898D01*
X126535000Y-99851939D01*
X126535000Y-99648061D01*
X126495226Y-99448102D01*
X126417205Y-99259744D01*
X126303937Y-99090226D01*
X126159774Y-98946063D01*
X125991646Y-98833724D01*
X125998061Y-98835000D01*
X126201939Y-98835000D01*
X126401898Y-98795226D01*
X126590256Y-98717205D01*
X126759774Y-98603937D01*
X126903937Y-98459774D01*
X127017205Y-98290256D01*
X127095226Y-98101898D01*
X127135000Y-97901939D01*
X127135000Y-97877453D01*
X127205198Y-97982512D01*
X127349361Y-98126675D01*
X127518879Y-98239943D01*
X127707237Y-98317964D01*
X127907196Y-98357738D01*
X127994705Y-98357738D01*
X127996071Y-98359782D01*
X128140234Y-98503945D01*
X128309752Y-98617213D01*
X128498110Y-98695234D01*
X128698069Y-98735008D01*
X128901947Y-98735008D01*
X129101906Y-98695234D01*
X129290264Y-98617213D01*
X129459782Y-98503945D01*
X129603945Y-98359782D01*
X129717213Y-98190264D01*
X129782651Y-98032284D01*
X129909744Y-98117205D01*
X130098102Y-98195226D01*
X130298061Y-98235000D01*
X130380912Y-98235000D01*
X130354774Y-98298102D01*
X130315000Y-98498061D01*
X130315000Y-98701939D01*
X130354774Y-98901898D01*
X130432795Y-99090256D01*
X130546063Y-99259774D01*
X130690226Y-99403937D01*
X130859744Y-99517205D01*
X131048102Y-99595226D01*
X131248061Y-99635000D01*
X131451939Y-99635000D01*
X131513543Y-99622746D01*
X131496063Y-99640226D01*
X131382795Y-99809744D01*
X131304774Y-99998102D01*
X131265000Y-100198061D01*
X131265000Y-100401939D01*
X131304774Y-100601898D01*
X131382795Y-100790256D01*
X131496063Y-100959774D01*
X131640226Y-101103937D01*
X131809744Y-101217205D01*
X131998102Y-101295226D01*
X132198061Y-101335000D01*
X132401939Y-101335000D01*
X132601898Y-101295226D01*
X132790256Y-101217205D01*
X132959774Y-101103937D01*
X133103937Y-100959774D01*
X133217205Y-100790256D01*
X133295226Y-100601898D01*
X133335000Y-100401939D01*
X133335000Y-100198061D01*
X133295226Y-99998102D01*
X133217205Y-99809744D01*
X133103937Y-99640226D01*
X132959774Y-99496063D01*
X132790256Y-99382795D01*
X132601898Y-99304774D01*
X132401939Y-99265000D01*
X132198061Y-99265000D01*
X132136457Y-99277254D01*
X132153937Y-99259774D01*
X132267205Y-99090256D01*
X132345226Y-98901898D01*
X132385000Y-98701939D01*
X132385000Y-98598711D01*
X132390226Y-98603937D01*
X132559744Y-98717205D01*
X132748102Y-98795226D01*
X132948061Y-98835000D01*
X133059904Y-98835000D01*
X133082795Y-98890264D01*
X133196063Y-99059782D01*
X133340226Y-99203945D01*
X133509744Y-99317213D01*
X133698102Y-99395234D01*
X133898061Y-99435008D01*
X134101939Y-99435008D01*
X134301898Y-99395234D01*
X134490256Y-99317213D01*
X134659774Y-99203945D01*
X134803937Y-99059782D01*
X134917205Y-98890264D01*
X134995226Y-98701906D01*
X135035000Y-98501947D01*
X135035000Y-98298069D01*
X134995226Y-98098110D01*
X134973154Y-98044823D01*
X135968238Y-98044823D01*
X135968238Y-98248701D01*
X136008012Y-98448660D01*
X136086033Y-98637018D01*
X136199301Y-98806536D01*
X136204684Y-98811919D01*
X136195105Y-98826254D01*
X136117084Y-99014612D01*
X136077310Y-99214571D01*
X136077310Y-99418449D01*
X136117084Y-99618408D01*
X136195105Y-99806766D01*
X136308373Y-99976284D01*
X136452536Y-100120447D01*
X136622054Y-100233715D01*
X136810412Y-100311736D01*
X137010371Y-100351510D01*
X137214249Y-100351510D01*
X137414208Y-100311736D01*
X137602566Y-100233715D01*
X137642495Y-100207035D01*
X137604774Y-100298102D01*
X137565000Y-100498061D01*
X137565000Y-100701939D01*
X137604774Y-100901898D01*
X137682795Y-101090256D01*
X137796063Y-101259774D01*
X137940226Y-101403937D01*
X138109744Y-101517205D01*
X138298102Y-101595226D01*
X138498061Y-101635000D01*
X138701939Y-101635000D01*
X138901898Y-101595226D01*
X139090256Y-101517205D01*
X139259774Y-101403937D01*
X139403937Y-101259774D01*
X139517205Y-101090256D01*
X139595226Y-100901898D01*
X139635000Y-100701939D01*
X139635000Y-100698059D01*
X142965000Y-100698059D01*
X142965000Y-100901937D01*
X143004774Y-101101896D01*
X143082795Y-101290254D01*
X143196063Y-101459772D01*
X143340226Y-101603935D01*
X143509744Y-101717203D01*
X143698102Y-101795224D01*
X143898061Y-101834998D01*
X144101939Y-101834998D01*
X144301898Y-101795224D01*
X144490256Y-101717203D01*
X144659774Y-101603935D01*
X144803937Y-101459772D01*
X144917205Y-101290254D01*
X144995226Y-101101896D01*
X145035000Y-100901937D01*
X145035000Y-100698059D01*
X144995226Y-100498100D01*
X144917205Y-100309742D01*
X144803937Y-100140224D01*
X144659774Y-99996061D01*
X144490256Y-99882793D01*
X144301898Y-99804772D01*
X144101939Y-99764998D01*
X143898061Y-99764998D01*
X143698102Y-99804772D01*
X143509744Y-99882793D01*
X143340226Y-99996061D01*
X143196063Y-100140224D01*
X143082795Y-100309742D01*
X143004774Y-100498100D01*
X142965000Y-100698059D01*
X139635000Y-100698059D01*
X139635000Y-100498061D01*
X139595226Y-100298102D01*
X139517205Y-100109744D01*
X139403937Y-99940226D01*
X139327972Y-99864261D01*
X139395226Y-99701898D01*
X139408533Y-99635000D01*
X139451939Y-99635000D01*
X139651898Y-99595226D01*
X139840256Y-99517205D01*
X140009774Y-99403937D01*
X140153937Y-99259774D01*
X140267205Y-99090256D01*
X140345226Y-98901898D01*
X140385000Y-98701939D01*
X140385000Y-98498061D01*
X140345226Y-98298102D01*
X140267205Y-98109744D01*
X140160468Y-97950000D01*
X140267205Y-97790256D01*
X140345226Y-97601898D01*
X140385000Y-97401939D01*
X140385000Y-97198061D01*
X140345226Y-96998102D01*
X140267205Y-96809744D01*
X140153937Y-96640226D01*
X140009774Y-96496063D01*
X139840256Y-96382795D01*
X139651898Y-96304774D01*
X139510862Y-96276720D01*
X139495226Y-96198114D01*
X139417205Y-96009756D01*
X139303937Y-95840238D01*
X139161408Y-95697709D01*
X139191264Y-95691770D01*
X139379622Y-95613749D01*
X139549140Y-95500481D01*
X139693303Y-95356318D01*
X139744258Y-95280058D01*
X140299814Y-95280058D01*
X140299814Y-95483936D01*
X140339588Y-95683895D01*
X140417609Y-95872253D01*
X140530877Y-96041771D01*
X140675040Y-96185934D01*
X140844558Y-96299202D01*
X141032916Y-96377223D01*
X141232875Y-96416997D01*
X141436753Y-96416997D01*
X141636712Y-96377223D01*
X141825070Y-96299202D01*
X141994588Y-96185934D01*
X142138751Y-96041771D01*
X142252019Y-95872253D01*
X142330040Y-95683895D01*
X142369814Y-95483936D01*
X142369814Y-95396027D01*
X142388043Y-95414256D01*
X142557561Y-95527524D01*
X142745919Y-95605545D01*
X142945878Y-95645319D01*
X143149756Y-95645319D01*
X143349715Y-95605545D01*
X143538073Y-95527524D01*
X143707591Y-95414256D01*
X143851754Y-95270093D01*
X143965022Y-95100575D01*
X144043043Y-94912217D01*
X144082817Y-94712258D01*
X144082817Y-94508380D01*
X144043043Y-94308421D01*
X143965022Y-94120063D01*
X143851754Y-93950545D01*
X143707591Y-93806382D01*
X143538073Y-93693114D01*
X143349715Y-93615093D01*
X143161031Y-93577562D01*
X143145226Y-93498102D01*
X143067205Y-93309744D01*
X142953937Y-93140226D01*
X142809774Y-92996063D01*
X142640256Y-92882795D01*
X142451898Y-92804774D01*
X142333112Y-92781146D01*
X142345226Y-92751900D01*
X142385000Y-92551941D01*
X142385000Y-92348063D01*
X142345226Y-92148104D01*
X142267205Y-91959746D01*
X142153937Y-91790228D01*
X142009774Y-91646065D01*
X141840256Y-91532797D01*
X141651898Y-91454776D01*
X141451939Y-91415002D01*
X141248061Y-91415002D01*
X141048102Y-91454776D01*
X140859744Y-91532797D01*
X140690226Y-91646065D01*
X140546063Y-91790228D01*
X140432795Y-91959746D01*
X140354774Y-92148104D01*
X140315000Y-92348063D01*
X140315000Y-92551941D01*
X140354774Y-92751900D01*
X140432795Y-92940258D01*
X140546063Y-93109776D01*
X140690226Y-93253939D01*
X140859744Y-93367207D01*
X141048102Y-93445228D01*
X141166888Y-93468856D01*
X141154774Y-93498102D01*
X141115000Y-93698061D01*
X141115000Y-93901939D01*
X141154774Y-94101898D01*
X141232795Y-94290256D01*
X141270708Y-94346997D01*
X141232875Y-94346997D01*
X141032916Y-94386771D01*
X140844558Y-94464792D01*
X140675040Y-94578060D01*
X140530877Y-94722223D01*
X140417609Y-94891741D01*
X140339588Y-95080099D01*
X140299814Y-95280058D01*
X139744258Y-95280058D01*
X139806571Y-95186800D01*
X139884592Y-94998442D01*
X139924366Y-94798483D01*
X139924366Y-94594605D01*
X139884592Y-94394646D01*
X139806571Y-94206288D01*
X139693303Y-94036770D01*
X139549140Y-93892607D01*
X139379622Y-93779339D01*
X139191264Y-93701318D01*
X138991305Y-93661544D01*
X138787427Y-93661544D01*
X138587468Y-93701318D01*
X138399110Y-93779339D01*
X138229592Y-93892607D01*
X138085429Y-94036770D01*
X137972161Y-94206288D01*
X137894140Y-94394646D01*
X137854366Y-94594605D01*
X137854366Y-94798483D01*
X137894140Y-94998442D01*
X137972161Y-95186800D01*
X138085429Y-95356318D01*
X138227958Y-95498847D01*
X138198102Y-95504786D01*
X138009744Y-95582807D01*
X137840226Y-95696075D01*
X137696063Y-95840238D01*
X137582795Y-96009756D01*
X137504774Y-96198114D01*
X137465000Y-96398073D01*
X137465000Y-96601951D01*
X137504774Y-96801910D01*
X137582795Y-96990268D01*
X137696063Y-97159786D01*
X137840226Y-97303949D01*
X138009744Y-97417217D01*
X138198102Y-97495238D01*
X138339138Y-97523292D01*
X138354774Y-97601898D01*
X138432795Y-97790256D01*
X138539532Y-97950000D01*
X138432795Y-98109744D01*
X138354774Y-98298102D01*
X138341467Y-98365000D01*
X138298061Y-98365000D01*
X138098102Y-98404774D01*
X137999031Y-98445811D01*
X138038238Y-98248701D01*
X138038238Y-98044823D01*
X137998464Y-97844864D01*
X137920443Y-97656506D01*
X137807175Y-97486988D01*
X137663012Y-97342825D01*
X137493494Y-97229557D01*
X137305136Y-97151536D01*
X137105177Y-97111762D01*
X136901299Y-97111762D01*
X136701340Y-97151536D01*
X136512982Y-97229557D01*
X136343464Y-97342825D01*
X136199301Y-97486988D01*
X136086033Y-97656506D01*
X136008012Y-97844864D01*
X135968238Y-98044823D01*
X134973154Y-98044823D01*
X134917205Y-97909752D01*
X134803937Y-97740234D01*
X134659774Y-97596071D01*
X134490256Y-97482803D01*
X134301898Y-97404782D01*
X134101939Y-97365008D01*
X133990096Y-97365008D01*
X133967205Y-97309744D01*
X133917263Y-97235000D01*
X134101939Y-97235000D01*
X134301898Y-97195226D01*
X134490256Y-97117205D01*
X134659774Y-97003937D01*
X134803937Y-96859774D01*
X134917205Y-96690256D01*
X134995226Y-96501898D01*
X135035000Y-96301939D01*
X135035000Y-96098061D01*
X134995226Y-95898102D01*
X134917205Y-95709744D01*
X134803937Y-95540226D01*
X134659774Y-95396063D01*
X134490256Y-95282795D01*
X134301898Y-95204774D01*
X134101939Y-95165000D01*
X133898061Y-95165000D01*
X133698102Y-95204774D01*
X133509744Y-95282795D01*
X133340226Y-95396063D01*
X133196063Y-95540226D01*
X133082795Y-95709744D01*
X133004774Y-95898102D01*
X132965000Y-96098061D01*
X132965000Y-96301939D01*
X133004774Y-96501898D01*
X133082795Y-96690256D01*
X133132737Y-96765000D01*
X132948061Y-96765000D01*
X132748102Y-96804774D01*
X132559744Y-96882795D01*
X132390226Y-96996063D01*
X132246063Y-97140226D01*
X132235000Y-97156783D01*
X132235000Y-97098061D01*
X132195226Y-96898102D01*
X132117205Y-96709744D01*
X132003937Y-96540226D01*
X131859774Y-96396063D01*
X131690256Y-96282795D01*
X131501898Y-96204774D01*
X131301939Y-96165000D01*
X131098061Y-96165000D01*
X130898102Y-96204774D01*
X130800000Y-96245409D01*
X130701898Y-96204774D01*
X130501939Y-96165000D01*
X130298061Y-96165000D01*
X130098102Y-96204774D01*
X129909744Y-96282795D01*
X129740226Y-96396063D01*
X129596063Y-96540226D01*
X129482795Y-96709744D01*
X129417357Y-96867724D01*
X129290264Y-96782803D01*
X129101906Y-96704782D01*
X128901947Y-96665008D01*
X128814438Y-96665008D01*
X128813072Y-96662964D01*
X128668909Y-96518801D01*
X128499391Y-96405533D01*
X128311033Y-96327512D01*
X128111074Y-96287738D01*
X127907196Y-96287738D01*
X127707237Y-96327512D01*
X127518879Y-96405533D01*
X127349361Y-96518801D01*
X127205198Y-96662964D01*
X127091930Y-96832482D01*
X127013909Y-97020840D01*
X126974135Y-97220799D01*
X126974135Y-97245285D01*
X126903937Y-97140226D01*
X126759774Y-96996063D01*
X126590256Y-96882795D01*
X126401898Y-96804774D01*
X126201939Y-96765000D01*
X125998061Y-96765000D01*
X125798102Y-96804774D01*
X125609744Y-96882795D01*
X125440226Y-96996063D01*
X125296063Y-97140226D01*
X125182795Y-97309744D01*
X125104774Y-97498102D01*
X125065000Y-97698061D01*
X125065000Y-97901939D01*
X125104774Y-98101898D01*
X125182795Y-98290256D01*
X125296063Y-98459774D01*
X125440226Y-98603937D01*
X125608354Y-98716276D01*
X125601939Y-98715000D01*
X125398061Y-98715000D01*
X125198102Y-98754774D01*
X125009744Y-98832795D01*
X124840226Y-98946063D01*
X124748008Y-99038281D01*
X124741373Y-99004924D01*
X124663352Y-98816566D01*
X124550084Y-98647048D01*
X124405921Y-98502885D01*
X124236403Y-98389617D01*
X124048045Y-98311596D01*
X123848086Y-98271822D01*
X123644208Y-98271822D01*
X123444249Y-98311596D01*
X123255891Y-98389617D01*
X123086373Y-98502885D01*
X122942210Y-98647048D01*
X122828942Y-98816566D01*
X122750921Y-99004924D01*
X122711147Y-99204883D01*
X122447434Y-99204883D01*
X122427932Y-99106842D01*
X122315990Y-98836589D01*
X122153475Y-98593368D01*
X121946632Y-98386525D01*
X121772240Y-98270000D01*
X121946632Y-98153475D01*
X122153475Y-97946632D01*
X122315990Y-97703411D01*
X122427932Y-97433158D01*
X122467724Y-97233110D01*
X122532817Y-97390256D01*
X122646085Y-97559774D01*
X122790248Y-97703937D01*
X122959766Y-97817205D01*
X123148124Y-97895226D01*
X123348083Y-97935000D01*
X123551961Y-97935000D01*
X123751920Y-97895226D01*
X123940278Y-97817205D01*
X124109796Y-97703937D01*
X124253959Y-97559774D01*
X124367227Y-97390256D01*
X124445248Y-97201898D01*
X124485022Y-97001939D01*
X124485022Y-96798061D01*
X124445248Y-96598102D01*
X124401413Y-96492275D01*
X124468701Y-96391571D01*
X124546722Y-96203213D01*
X124577997Y-96045981D01*
X124609744Y-96067193D01*
X124798102Y-96145214D01*
X124998061Y-96184988D01*
X125201939Y-96184988D01*
X125401898Y-96145214D01*
X125590256Y-96067193D01*
X125759774Y-95953925D01*
X125903937Y-95809762D01*
X126017205Y-95640244D01*
X126095226Y-95451886D01*
X126135000Y-95251927D01*
X126135000Y-95048049D01*
X126095226Y-94848090D01*
X126017205Y-94659732D01*
X125903937Y-94490214D01*
X125759774Y-94346051D01*
X125590256Y-94232783D01*
X125570903Y-94224766D01*
X125605228Y-94141898D01*
X125645002Y-93941939D01*
X125645002Y-93738061D01*
X125605228Y-93538102D01*
X125527207Y-93349744D01*
X125413939Y-93180226D01*
X125364478Y-93130765D01*
X125527605Y-93021768D01*
X125671768Y-92877605D01*
X125785036Y-92708087D01*
X125863057Y-92519729D01*
X125902831Y-92319770D01*
X125902831Y-92115892D01*
X125863057Y-91915933D01*
X125800007Y-91763718D01*
X125840226Y-91803937D01*
X126009744Y-91917205D01*
X126198102Y-91995226D01*
X126398061Y-92035000D01*
X126601939Y-92035000D01*
X126801898Y-91995226D01*
X126990256Y-91917205D01*
X127159774Y-91803937D01*
X127300000Y-91663711D01*
X127390226Y-91753937D01*
X127559744Y-91867205D01*
X127748102Y-91945226D01*
X127948061Y-91985000D01*
X128151939Y-91985000D01*
X128351898Y-91945226D01*
X128540256Y-91867205D01*
X128709774Y-91753937D01*
X128751944Y-91711767D01*
X128909744Y-91817205D01*
X129098102Y-91895226D01*
X129279833Y-91931374D01*
X129131527Y-91992805D01*
X128962009Y-92106073D01*
X128817846Y-92250236D01*
X128704578Y-92419754D01*
X128626557Y-92608112D01*
X128586783Y-92808071D01*
X128586783Y-92885930D01*
X128585226Y-92878102D01*
X128507205Y-92689744D01*
X128393937Y-92520226D01*
X128249774Y-92376063D01*
X128080256Y-92262795D01*
X127891898Y-92184774D01*
X127691939Y-92145000D01*
X127488061Y-92145000D01*
X127288102Y-92184774D01*
X127099744Y-92262795D01*
X126930226Y-92376063D01*
X126786063Y-92520226D01*
X126672795Y-92689744D01*
X126594774Y-92878102D01*
X126555000Y-93078061D01*
X126555000Y-93281939D01*
X126594774Y-93481898D01*
X126672795Y-93670256D01*
X126786063Y-93839774D01*
X126930226Y-93983937D01*
X127099744Y-94097205D01*
X127288102Y-94175226D01*
X127488061Y-94215000D01*
X127586715Y-94215000D01*
X127540226Y-94246063D01*
X127396063Y-94390226D01*
X127282795Y-94559744D01*
X127204774Y-94748102D01*
X127165000Y-94948061D01*
X127165000Y-95151939D01*
X127204774Y-95351898D01*
X127282795Y-95540256D01*
X127396063Y-95709774D01*
X127540226Y-95853937D01*
X127709744Y-95967205D01*
X127898102Y-96045226D01*
X128098061Y-96085000D01*
X128301939Y-96085000D01*
X128501898Y-96045226D01*
X128690256Y-95967205D01*
X128859774Y-95853937D01*
X129003937Y-95709774D01*
X129117205Y-95540256D01*
X129195226Y-95351898D01*
X129235000Y-95151939D01*
X129235000Y-94948061D01*
X129195226Y-94748102D01*
X129117205Y-94559744D01*
X129003937Y-94390226D01*
X128859774Y-94246063D01*
X128690256Y-94132795D01*
X128501898Y-94054774D01*
X128301939Y-94015000D01*
X128203285Y-94015000D01*
X128249774Y-93983937D01*
X128393937Y-93839774D01*
X128507205Y-93670256D01*
X128585226Y-93481898D01*
X128625000Y-93281939D01*
X128625000Y-93204080D01*
X128626557Y-93211908D01*
X128704578Y-93400266D01*
X128817846Y-93569784D01*
X128962009Y-93713947D01*
X129131527Y-93827215D01*
X129319885Y-93905236D01*
X129519844Y-93945010D01*
X129723722Y-93945010D01*
X129923681Y-93905236D01*
X130112039Y-93827215D01*
X130281557Y-93713947D01*
X130425720Y-93569784D01*
X130473643Y-93498061D01*
X131165000Y-93498061D01*
X131165000Y-93701939D01*
X131204774Y-93901898D01*
X131282795Y-94090256D01*
X131396063Y-94259774D01*
X131540226Y-94403937D01*
X131709744Y-94517205D01*
X131898102Y-94595226D01*
X132098061Y-94635000D01*
X132301939Y-94635000D01*
X132501898Y-94595226D01*
X132690256Y-94517205D01*
X132859774Y-94403937D01*
X133003937Y-94259774D01*
X133039099Y-94207150D01*
X134093295Y-94207150D01*
X134093295Y-94411028D01*
X134133069Y-94610987D01*
X134211090Y-94799345D01*
X134324358Y-94968863D01*
X134468521Y-95113026D01*
X134638039Y-95226294D01*
X134826397Y-95304315D01*
X135026356Y-95344089D01*
X135230234Y-95344089D01*
X135430193Y-95304315D01*
X135618551Y-95226294D01*
X135788069Y-95113026D01*
X135932232Y-94968863D01*
X136045500Y-94799345D01*
X136123521Y-94610987D01*
X136163295Y-94411028D01*
X136163295Y-94207150D01*
X136123521Y-94007191D01*
X136045500Y-93818833D01*
X135932232Y-93649315D01*
X135788069Y-93505152D01*
X135618551Y-93391884D01*
X135430193Y-93313863D01*
X135230234Y-93274089D01*
X135026356Y-93274089D01*
X134826397Y-93313863D01*
X134638039Y-93391884D01*
X134468521Y-93505152D01*
X134324358Y-93649315D01*
X134211090Y-93818833D01*
X134133069Y-94007191D01*
X134093295Y-94207150D01*
X133039099Y-94207150D01*
X133117205Y-94090256D01*
X133195226Y-93901898D01*
X133235000Y-93701939D01*
X133235000Y-93498061D01*
X133195226Y-93298102D01*
X133117205Y-93109744D01*
X133003937Y-92940226D01*
X132859774Y-92796063D01*
X132690256Y-92682795D01*
X132501898Y-92604774D01*
X132301939Y-92565000D01*
X132098061Y-92565000D01*
X131898102Y-92604774D01*
X131709744Y-92682795D01*
X131540226Y-92796063D01*
X131396063Y-92940226D01*
X131282795Y-93109744D01*
X131204774Y-93298102D01*
X131165000Y-93498061D01*
X130473643Y-93498061D01*
X130538988Y-93400266D01*
X130617009Y-93211908D01*
X130656783Y-93011949D01*
X130656783Y-92808071D01*
X130617009Y-92608112D01*
X130538988Y-92419754D01*
X130425720Y-92250236D01*
X130281557Y-92106073D01*
X130112039Y-91992805D01*
X129923681Y-91914784D01*
X129741950Y-91878636D01*
X129890256Y-91817205D01*
X130059774Y-91703937D01*
X130203937Y-91559774D01*
X130219299Y-91536783D01*
X130309728Y-91597205D01*
X130498086Y-91675226D01*
X130698045Y-91715000D01*
X130901923Y-91715000D01*
X131101882Y-91675226D01*
X131290240Y-91597205D01*
X131438695Y-91498011D01*
X131475609Y-91505353D01*
X131504774Y-91651975D01*
X131582795Y-91840333D01*
X131696063Y-92009851D01*
X131840226Y-92154014D01*
X132009744Y-92267282D01*
X132198102Y-92345303D01*
X132398061Y-92385077D01*
X132601939Y-92385077D01*
X132801898Y-92345303D01*
X132990256Y-92267282D01*
X133159774Y-92154014D01*
X133303937Y-92009851D01*
X133417205Y-91840333D01*
X133495226Y-91651975D01*
X133535000Y-91452016D01*
X133535000Y-91248138D01*
X133495226Y-91048179D01*
X133417205Y-90859821D01*
X133303937Y-90690303D01*
X133159774Y-90546140D01*
X132990256Y-90432872D01*
X132801898Y-90354851D01*
X132668084Y-90328234D01*
X132638919Y-90181612D01*
X132560898Y-89993254D01*
X132447630Y-89823736D01*
X132303467Y-89679573D01*
X132133949Y-89566305D01*
X131945591Y-89488284D01*
X131745632Y-89448510D01*
X131541754Y-89448510D01*
X131341795Y-89488284D01*
X131153437Y-89566305D01*
X131004982Y-89665499D01*
X130901923Y-89645000D01*
X130698045Y-89645000D01*
X130498086Y-89684774D01*
X130309728Y-89762795D01*
X130140210Y-89876063D01*
X129996047Y-90020226D01*
X129980685Y-90043217D01*
X129890256Y-89982795D01*
X129701898Y-89904774D01*
X129501939Y-89865000D01*
X129298061Y-89865000D01*
X129098102Y-89904774D01*
X128909744Y-89982795D01*
X128740226Y-90096063D01*
X128698056Y-90138233D01*
X128540256Y-90032795D01*
X128448584Y-89994823D01*
X128509774Y-89953937D01*
X128653937Y-89809774D01*
X128767205Y-89640256D01*
X128845226Y-89451898D01*
X128885000Y-89251939D01*
X128885000Y-89198061D01*
X135815000Y-89198061D01*
X135815000Y-89401939D01*
X135854774Y-89601898D01*
X135932795Y-89790256D01*
X136046063Y-89959774D01*
X136190226Y-90103937D01*
X136359744Y-90217205D01*
X136548102Y-90295226D01*
X136748061Y-90335000D01*
X136951939Y-90335000D01*
X137151898Y-90295226D01*
X137340256Y-90217205D01*
X137509774Y-90103937D01*
X137653937Y-89959774D01*
X137767205Y-89790256D01*
X137845226Y-89601898D01*
X137885000Y-89401939D01*
X137885000Y-89303753D01*
X138048102Y-89371313D01*
X138248061Y-89411087D01*
X138451939Y-89411087D01*
X138651898Y-89371313D01*
X138840256Y-89293292D01*
X139009774Y-89180024D01*
X139153937Y-89035861D01*
X139267205Y-88866343D01*
X139345226Y-88677985D01*
X139385000Y-88478026D01*
X139385000Y-88274148D01*
X139345226Y-88074189D01*
X139267205Y-87885831D01*
X139164086Y-87731502D01*
X140098807Y-87731502D01*
X140098807Y-87935380D01*
X140138581Y-88135339D01*
X140216602Y-88323697D01*
X140329870Y-88493215D01*
X140474033Y-88637378D01*
X140643551Y-88750646D01*
X140788162Y-88810546D01*
X140802590Y-88883079D01*
X140880611Y-89071437D01*
X140993879Y-89240955D01*
X141138042Y-89385118D01*
X141307560Y-89498386D01*
X141495918Y-89576407D01*
X141695877Y-89616181D01*
X141899755Y-89616181D01*
X142099714Y-89576407D01*
X142288072Y-89498386D01*
X142457590Y-89385118D01*
X142515000Y-89327708D01*
X142515000Y-89351939D01*
X142532828Y-89441565D01*
X142466418Y-89454775D01*
X142278060Y-89532796D01*
X142108542Y-89646064D01*
X141964379Y-89790227D01*
X141851111Y-89959745D01*
X141773090Y-90148103D01*
X141733316Y-90348062D01*
X141733316Y-90551940D01*
X141773090Y-90751899D01*
X141851111Y-90940257D01*
X141964379Y-91109775D01*
X142108542Y-91253938D01*
X142278060Y-91367206D01*
X142466418Y-91445227D01*
X142666377Y-91485001D01*
X142870255Y-91485001D01*
X143070214Y-91445227D01*
X143258572Y-91367206D01*
X143428090Y-91253938D01*
X143572253Y-91109775D01*
X143685521Y-90940257D01*
X143763542Y-90751899D01*
X143803316Y-90551940D01*
X143803316Y-90348062D01*
X143785488Y-90258436D01*
X143851898Y-90245226D01*
X144040256Y-90167205D01*
X144209774Y-90053937D01*
X144353937Y-89909774D01*
X144467205Y-89740256D01*
X144545226Y-89551898D01*
X144585000Y-89351939D01*
X144585000Y-89148061D01*
X144545226Y-88948102D01*
X144467205Y-88759744D01*
X144353937Y-88590226D01*
X144209774Y-88446063D01*
X144040256Y-88332795D01*
X143851898Y-88254774D01*
X143651939Y-88215000D01*
X143448061Y-88215000D01*
X143248102Y-88254774D01*
X143059744Y-88332795D01*
X142890226Y-88446063D01*
X142832816Y-88503473D01*
X142832816Y-88479242D01*
X142793042Y-88279283D01*
X142715021Y-88090925D01*
X142601753Y-87921407D01*
X142457590Y-87777244D01*
X142288072Y-87663976D01*
X142143461Y-87604076D01*
X142129033Y-87531543D01*
X142051012Y-87343185D01*
X141937744Y-87173667D01*
X141793581Y-87029504D01*
X141624063Y-86916236D01*
X141435705Y-86838215D01*
X141235746Y-86798441D01*
X141031868Y-86798441D01*
X140831909Y-86838215D01*
X140643551Y-86916236D01*
X140474033Y-87029504D01*
X140329870Y-87173667D01*
X140216602Y-87343185D01*
X140138581Y-87531543D01*
X140098807Y-87731502D01*
X139164086Y-87731502D01*
X139153937Y-87716313D01*
X139009774Y-87572150D01*
X138840256Y-87458882D01*
X138651898Y-87380861D01*
X138451939Y-87341087D01*
X138248061Y-87341087D01*
X138048102Y-87380861D01*
X137859744Y-87458882D01*
X137690226Y-87572150D01*
X137546063Y-87716313D01*
X137432795Y-87885831D01*
X137354774Y-88074189D01*
X137315000Y-88274148D01*
X137315000Y-88372334D01*
X137151898Y-88304774D01*
X136951939Y-88265000D01*
X136748061Y-88265000D01*
X136548102Y-88304774D01*
X136359744Y-88382795D01*
X136190226Y-88496063D01*
X136046063Y-88640226D01*
X135932795Y-88809744D01*
X135854774Y-88998102D01*
X135815000Y-89198061D01*
X128885000Y-89198061D01*
X128885000Y-89048061D01*
X128845226Y-88848102D01*
X128767205Y-88659744D01*
X128653937Y-88490226D01*
X128509774Y-88346063D01*
X128340256Y-88232795D01*
X128151898Y-88154774D01*
X127951939Y-88115000D01*
X127748061Y-88115000D01*
X127548102Y-88154774D01*
X127359744Y-88232795D01*
X127190226Y-88346063D01*
X127046063Y-88490226D01*
X126932795Y-88659744D01*
X126854774Y-88848102D01*
X126815000Y-89048061D01*
X126815000Y-89251939D01*
X126854774Y-89451898D01*
X126932795Y-89640256D01*
X127046063Y-89809774D01*
X127190226Y-89953937D01*
X127359744Y-90067205D01*
X127451416Y-90105177D01*
X127390226Y-90146063D01*
X127250000Y-90286289D01*
X127159774Y-90196063D01*
X126990256Y-90082795D01*
X126801898Y-90004774D01*
X126601939Y-89965000D01*
X126398061Y-89965000D01*
X126198102Y-90004774D01*
X126009744Y-90082795D01*
X125840226Y-90196063D01*
X125696063Y-90340226D01*
X125582795Y-90509744D01*
X125504774Y-90698102D01*
X125465000Y-90898061D01*
X125465000Y-91101939D01*
X125504774Y-91301898D01*
X125567824Y-91454113D01*
X125527605Y-91413894D01*
X125358087Y-91300626D01*
X125169729Y-91222605D01*
X124969770Y-91182831D01*
X124765892Y-91182831D01*
X124565933Y-91222605D01*
X124377575Y-91300626D01*
X124208057Y-91413894D01*
X124063894Y-91558057D01*
X123950626Y-91727575D01*
X123872605Y-91915933D01*
X123832831Y-92115892D01*
X123832831Y-92319770D01*
X123872605Y-92519729D01*
X123950626Y-92708087D01*
X124063894Y-92877605D01*
X124113355Y-92927066D01*
X123950228Y-93036063D01*
X123806065Y-93180226D01*
X123692797Y-93349744D01*
X123614776Y-93538102D01*
X123575002Y-93738061D01*
X123575002Y-93941939D01*
X123614776Y-94141898D01*
X123692797Y-94330256D01*
X123806065Y-94499774D01*
X123950228Y-94643937D01*
X124119746Y-94757205D01*
X124139099Y-94765222D01*
X124104774Y-94848090D01*
X124073499Y-95005322D01*
X124041752Y-94984110D01*
X123853394Y-94906089D01*
X123653435Y-94866315D01*
X123449557Y-94866315D01*
X123249598Y-94906089D01*
X123061240Y-94984110D01*
X122891722Y-95097378D01*
X122747559Y-95241541D01*
X122634291Y-95411059D01*
X122556270Y-95599417D01*
X122516496Y-95799376D01*
X122516496Y-96003254D01*
X122556270Y-96203213D01*
X122600105Y-96309040D01*
X122532817Y-96409744D01*
X122454796Y-96598102D01*
X122444473Y-96649999D01*
X122427932Y-96566842D01*
X122315990Y-96296589D01*
X122153475Y-96053368D01*
X121946632Y-95846525D01*
X121772240Y-95730000D01*
X121946632Y-95613475D01*
X122153475Y-95406632D01*
X122315990Y-95163411D01*
X122427932Y-94893158D01*
X122485000Y-94606260D01*
X122485000Y-94313740D01*
X122427932Y-94026842D01*
X122315990Y-93756589D01*
X122153475Y-93513368D01*
X121946632Y-93306525D01*
X121772240Y-93190000D01*
X121946632Y-93073475D01*
X122153475Y-92866632D01*
X122315990Y-92623411D01*
X122427932Y-92353158D01*
X122460721Y-92188320D01*
X122598102Y-92245226D01*
X122798061Y-92285000D01*
X123001939Y-92285000D01*
X123201898Y-92245226D01*
X123390256Y-92167205D01*
X123559774Y-92053937D01*
X123703937Y-91909774D01*
X123817205Y-91740256D01*
X123895226Y-91551898D01*
X123935000Y-91351939D01*
X123935000Y-91148061D01*
X123895226Y-90948102D01*
X123817205Y-90759744D01*
X123703937Y-90590226D01*
X123559774Y-90446063D01*
X123390256Y-90332795D01*
X123201898Y-90254774D01*
X123001939Y-90215000D01*
X122798061Y-90215000D01*
X122598102Y-90254774D01*
X122409744Y-90332795D01*
X122240226Y-90446063D01*
X122096063Y-90590226D01*
X121982795Y-90759744D01*
X121970217Y-90790110D01*
X121946632Y-90766525D01*
X121772240Y-90650000D01*
X121946632Y-90533475D01*
X122153475Y-90326632D01*
X122315990Y-90083411D01*
X122427932Y-89813158D01*
X122485000Y-89526260D01*
X122485000Y-89233740D01*
X122427932Y-88946842D01*
X122407728Y-88898065D01*
X123164996Y-88898065D01*
X123164996Y-89101943D01*
X123204770Y-89301902D01*
X123282791Y-89490260D01*
X123396059Y-89659778D01*
X123540222Y-89803941D01*
X123709740Y-89917209D01*
X123898098Y-89995230D01*
X124098057Y-90035004D01*
X124301935Y-90035004D01*
X124501894Y-89995230D01*
X124690252Y-89917209D01*
X124859770Y-89803941D01*
X125003933Y-89659778D01*
X125117201Y-89490260D01*
X125195222Y-89301902D01*
X125226720Y-89143550D01*
X125290268Y-89117227D01*
X125459786Y-89003959D01*
X125603949Y-88859796D01*
X125717217Y-88690278D01*
X125795238Y-88501920D01*
X125835012Y-88301961D01*
X125835012Y-88098083D01*
X125795238Y-87898124D01*
X125717217Y-87709766D01*
X125603949Y-87540248D01*
X125459786Y-87396085D01*
X125290268Y-87282817D01*
X125101910Y-87204796D01*
X124901951Y-87165022D01*
X124698073Y-87165022D01*
X124498114Y-87204796D01*
X124309756Y-87282817D01*
X124140238Y-87396085D01*
X123996075Y-87540248D01*
X123882807Y-87709766D01*
X123804786Y-87898124D01*
X123773288Y-88056476D01*
X123709740Y-88082799D01*
X123540222Y-88196067D01*
X123396059Y-88340230D01*
X123282791Y-88509748D01*
X123204770Y-88698106D01*
X123164996Y-88898065D01*
X122407728Y-88898065D01*
X122315990Y-88676589D01*
X122153475Y-88433368D01*
X121946632Y-88226525D01*
X121772240Y-88110000D01*
X121946632Y-87993475D01*
X122153475Y-87786632D01*
X122315990Y-87543411D01*
X122427932Y-87273158D01*
X122485000Y-86986260D01*
X122485000Y-86693740D01*
X122474839Y-86642659D01*
X122537256Y-86616805D01*
X122706774Y-86503537D01*
X122850937Y-86359374D01*
X122964205Y-86189856D01*
X123042226Y-86001498D01*
X123082000Y-85801539D01*
X123082000Y-85597661D01*
X123042226Y-85397702D01*
X122964205Y-85209344D01*
X122850937Y-85039826D01*
X122706774Y-84895663D01*
X122537256Y-84782395D01*
X122454368Y-84748061D01*
X128315000Y-84748061D01*
X128315000Y-84951939D01*
X128354774Y-85151898D01*
X128432795Y-85340256D01*
X128546063Y-85509774D01*
X128690226Y-85653937D01*
X128859744Y-85767205D01*
X129048102Y-85845226D01*
X129248061Y-85885000D01*
X129451939Y-85885000D01*
X129651898Y-85845226D01*
X129840256Y-85767205D01*
X129887585Y-85735581D01*
X130009744Y-85817205D01*
X130198102Y-85895226D01*
X130398061Y-85935000D01*
X130601939Y-85935000D01*
X130801898Y-85895226D01*
X130990256Y-85817205D01*
X131159774Y-85703937D01*
X131303937Y-85559774D01*
X131417205Y-85390256D01*
X131495226Y-85201898D01*
X131535000Y-85001939D01*
X131535000Y-84898061D01*
X135765000Y-84898061D01*
X135765000Y-85101939D01*
X135804774Y-85301898D01*
X135882795Y-85490256D01*
X135996063Y-85659774D01*
X136140226Y-85803937D01*
X136309744Y-85917205D01*
X136498102Y-85995226D01*
X136698061Y-86035000D01*
X136901939Y-86035000D01*
X137101898Y-85995226D01*
X137290256Y-85917205D01*
X137459774Y-85803937D01*
X137603937Y-85659774D01*
X137717205Y-85490256D01*
X137763875Y-85377586D01*
X137890226Y-85503937D01*
X138059744Y-85617205D01*
X138248102Y-85695226D01*
X138265000Y-85698587D01*
X138265000Y-85701939D01*
X138304774Y-85901898D01*
X138382795Y-86090256D01*
X138496063Y-86259774D01*
X138640226Y-86403937D01*
X138809744Y-86517205D01*
X138998102Y-86595226D01*
X139198061Y-86635000D01*
X139401939Y-86635000D01*
X139601898Y-86595226D01*
X139790256Y-86517205D01*
X139959774Y-86403937D01*
X140103937Y-86259774D01*
X140217205Y-86090256D01*
X140295226Y-85901898D01*
X140335000Y-85701939D01*
X140335000Y-85598061D01*
X140465000Y-85598061D01*
X140465000Y-85801939D01*
X140504774Y-86001898D01*
X140582795Y-86190256D01*
X140696063Y-86359774D01*
X140840226Y-86503937D01*
X141009744Y-86617205D01*
X141198102Y-86695226D01*
X141398061Y-86735000D01*
X141601939Y-86735000D01*
X141801898Y-86695226D01*
X141990256Y-86617205D01*
X142029535Y-86590960D01*
X141994123Y-86768989D01*
X141994123Y-86972867D01*
X142033897Y-87172826D01*
X142111918Y-87361184D01*
X142225186Y-87530702D01*
X142369349Y-87674865D01*
X142538867Y-87788133D01*
X142727225Y-87866154D01*
X142927184Y-87905928D01*
X143131062Y-87905928D01*
X143331021Y-87866154D01*
X143519379Y-87788133D01*
X143688897Y-87674865D01*
X143833060Y-87530702D01*
X143946328Y-87361184D01*
X144024349Y-87172826D01*
X144064123Y-86972867D01*
X144064123Y-86768989D01*
X144024349Y-86569030D01*
X143946328Y-86380672D01*
X143833060Y-86211154D01*
X143688897Y-86066991D01*
X143519379Y-85953723D01*
X143331021Y-85875702D01*
X143131062Y-85835928D01*
X142927184Y-85835928D01*
X142727225Y-85875702D01*
X142538867Y-85953723D01*
X142499588Y-85979968D01*
X142535000Y-85801939D01*
X142535000Y-85598061D01*
X142495226Y-85398102D01*
X142417205Y-85209744D01*
X142303937Y-85040226D01*
X142159774Y-84896063D01*
X141990256Y-84782795D01*
X141801898Y-84704774D01*
X141601939Y-84665000D01*
X141398061Y-84665000D01*
X141198102Y-84704774D01*
X141009744Y-84782795D01*
X140840226Y-84896063D01*
X140696063Y-85040226D01*
X140582795Y-85209744D01*
X140504774Y-85398102D01*
X140465000Y-85598061D01*
X140335000Y-85598061D01*
X140335000Y-85498061D01*
X140295226Y-85298102D01*
X140217205Y-85109744D01*
X140103937Y-84940226D01*
X139959774Y-84796063D01*
X139790256Y-84682795D01*
X139601898Y-84604774D01*
X139585000Y-84601413D01*
X139585000Y-84598061D01*
X139545226Y-84398102D01*
X139545210Y-84398061D01*
X142165000Y-84398061D01*
X142165000Y-84601939D01*
X142204774Y-84801898D01*
X142282795Y-84990256D01*
X142396063Y-85159774D01*
X142540226Y-85303937D01*
X142709744Y-85417205D01*
X142898102Y-85495226D01*
X143098061Y-85535000D01*
X143301939Y-85535000D01*
X143501898Y-85495226D01*
X143690256Y-85417205D01*
X143859774Y-85303937D01*
X144003937Y-85159774D01*
X144117205Y-84990256D01*
X144195226Y-84801898D01*
X144235000Y-84601939D01*
X144235000Y-84398061D01*
X144195226Y-84198102D01*
X144117205Y-84009744D01*
X144003937Y-83840226D01*
X143859774Y-83696063D01*
X143690256Y-83582795D01*
X143501898Y-83504774D01*
X143301939Y-83465000D01*
X143098061Y-83465000D01*
X142898102Y-83504774D01*
X142709744Y-83582795D01*
X142540226Y-83696063D01*
X142396063Y-83840226D01*
X142282795Y-84009744D01*
X142204774Y-84198102D01*
X142165000Y-84398061D01*
X139545210Y-84398061D01*
X139467205Y-84209744D01*
X139353937Y-84040226D01*
X139209774Y-83896063D01*
X139040256Y-83782795D01*
X138851898Y-83704774D01*
X138651939Y-83665000D01*
X138540093Y-83665000D01*
X138517205Y-83609744D01*
X138477285Y-83550000D01*
X138517205Y-83490256D01*
X138595226Y-83301898D01*
X138635000Y-83101939D01*
X138635000Y-82898711D01*
X138640226Y-82903937D01*
X138809744Y-83017205D01*
X138998102Y-83095226D01*
X139065000Y-83108533D01*
X139065000Y-83301939D01*
X139104774Y-83501898D01*
X139182795Y-83690256D01*
X139296063Y-83859774D01*
X139440226Y-84003937D01*
X139609744Y-84117205D01*
X139798102Y-84195226D01*
X139998061Y-84235000D01*
X140201939Y-84235000D01*
X140401898Y-84195226D01*
X140590256Y-84117205D01*
X140759774Y-84003937D01*
X140903937Y-83859774D01*
X141017205Y-83690256D01*
X141095226Y-83501898D01*
X141135000Y-83301939D01*
X141135000Y-83098061D01*
X141095226Y-82898102D01*
X141017205Y-82709744D01*
X140903937Y-82540226D01*
X140759774Y-82396063D01*
X140590256Y-82282795D01*
X140401898Y-82204774D01*
X140335000Y-82191467D01*
X140335000Y-81998061D01*
X140295226Y-81798102D01*
X140217205Y-81609744D01*
X140103937Y-81440226D01*
X139959774Y-81296063D01*
X139790256Y-81182795D01*
X139601898Y-81104774D01*
X139401939Y-81065000D01*
X139198061Y-81065000D01*
X138998102Y-81104774D01*
X138809744Y-81182795D01*
X138640226Y-81296063D01*
X138496063Y-81440226D01*
X138382795Y-81609744D01*
X138304774Y-81798102D01*
X138265000Y-81998061D01*
X138265000Y-82201289D01*
X138259774Y-82196063D01*
X138090256Y-82082795D01*
X137901898Y-82004774D01*
X137701939Y-81965000D01*
X137498061Y-81965000D01*
X137298102Y-82004774D01*
X137109744Y-82082795D01*
X136940226Y-82196063D01*
X136796063Y-82340226D01*
X136682795Y-82509744D01*
X136604774Y-82698102D01*
X136565000Y-82898061D01*
X136565000Y-83101939D01*
X136604774Y-83301898D01*
X136682795Y-83490256D01*
X136722715Y-83550000D01*
X136682795Y-83609744D01*
X136604774Y-83798102D01*
X136566366Y-83991196D01*
X136498102Y-84004774D01*
X136309744Y-84082795D01*
X136140226Y-84196063D01*
X135996063Y-84340226D01*
X135882795Y-84509744D01*
X135804774Y-84698102D01*
X135765000Y-84898061D01*
X131535000Y-84898061D01*
X131535000Y-84798061D01*
X131495226Y-84598102D01*
X131417205Y-84409744D01*
X131303937Y-84240226D01*
X131159774Y-84096063D01*
X130990256Y-83982795D01*
X130801898Y-83904774D01*
X130601939Y-83865000D01*
X130398061Y-83865000D01*
X130198102Y-83904774D01*
X130009744Y-83982795D01*
X129962415Y-84014419D01*
X129840256Y-83932795D01*
X129651898Y-83854774D01*
X129451939Y-83815000D01*
X129248061Y-83815000D01*
X129048102Y-83854774D01*
X128859744Y-83932795D01*
X128690226Y-84046063D01*
X128546063Y-84190226D01*
X128432795Y-84359744D01*
X128354774Y-84548102D01*
X128315000Y-84748061D01*
X122454368Y-84748061D01*
X122426534Y-84736532D01*
X122427932Y-84733158D01*
X122485000Y-84446260D01*
X122485000Y-84153740D01*
X122427932Y-83866842D01*
X122315990Y-83596589D01*
X122153475Y-83353368D01*
X121946632Y-83146525D01*
X121772240Y-83030000D01*
X121946632Y-82913475D01*
X122153475Y-82706632D01*
X122315990Y-82463411D01*
X122427932Y-82193158D01*
X122466739Y-81998061D01*
X127565000Y-81998061D01*
X127565000Y-82201939D01*
X127604774Y-82401898D01*
X127682795Y-82590256D01*
X127796063Y-82759774D01*
X127940226Y-82903937D01*
X128109744Y-83017205D01*
X128298102Y-83095226D01*
X128498061Y-83135000D01*
X128701939Y-83135000D01*
X128901898Y-83095226D01*
X129090256Y-83017205D01*
X129259774Y-82903937D01*
X129403937Y-82759774D01*
X129517205Y-82590256D01*
X129595226Y-82401898D01*
X129635000Y-82201939D01*
X129635000Y-81998061D01*
X129595226Y-81798102D01*
X129517205Y-81609744D01*
X129403937Y-81440226D01*
X129259774Y-81296063D01*
X129187934Y-81248061D01*
X133065000Y-81248061D01*
X133065000Y-81451939D01*
X133104774Y-81651898D01*
X133182795Y-81840256D01*
X133296063Y-82009774D01*
X133440226Y-82153937D01*
X133609744Y-82267205D01*
X133798102Y-82345226D01*
X133998061Y-82385000D01*
X134201939Y-82385000D01*
X134401898Y-82345226D01*
X134590256Y-82267205D01*
X134759774Y-82153937D01*
X134903937Y-82009774D01*
X135017205Y-81840256D01*
X135095226Y-81651898D01*
X135135000Y-81451939D01*
X135135000Y-81248061D01*
X135095226Y-81048102D01*
X135017205Y-80859744D01*
X134903937Y-80690226D01*
X134759774Y-80546063D01*
X134590256Y-80432795D01*
X134401898Y-80354774D01*
X134201939Y-80315000D01*
X133998061Y-80315000D01*
X133798102Y-80354774D01*
X133609744Y-80432795D01*
X133440226Y-80546063D01*
X133296063Y-80690226D01*
X133182795Y-80859744D01*
X133104774Y-81048102D01*
X133065000Y-81248061D01*
X129187934Y-81248061D01*
X129090256Y-81182795D01*
X128901898Y-81104774D01*
X128701939Y-81065000D01*
X128498061Y-81065000D01*
X128298102Y-81104774D01*
X128109744Y-81182795D01*
X127940226Y-81296063D01*
X127796063Y-81440226D01*
X127682795Y-81609744D01*
X127604774Y-81798102D01*
X127565000Y-81998061D01*
X122466739Y-81998061D01*
X122485000Y-81906260D01*
X122485000Y-81613740D01*
X122427932Y-81326842D01*
X122315990Y-81056589D01*
X122153475Y-80813368D01*
X121946632Y-80606525D01*
X121772240Y-80490000D01*
X121946632Y-80373475D01*
X122153475Y-80166632D01*
X122315990Y-79923411D01*
X122427932Y-79653158D01*
X122485000Y-79366260D01*
X122485000Y-79073740D01*
X122427932Y-78786842D01*
X122315990Y-78516589D01*
X122153475Y-78273368D01*
X121946632Y-78066525D01*
X121844169Y-77998061D01*
X125365000Y-77998061D01*
X125365000Y-78201939D01*
X125404774Y-78401898D01*
X125482795Y-78590256D01*
X125589532Y-78750000D01*
X125482795Y-78909744D01*
X125404774Y-79098102D01*
X125365000Y-79298061D01*
X125365000Y-79501939D01*
X125404774Y-79701898D01*
X125482795Y-79890256D01*
X125596063Y-80059774D01*
X125740226Y-80203937D01*
X125884445Y-80300301D01*
X125865000Y-80398061D01*
X125865000Y-80601939D01*
X125904774Y-80801898D01*
X125982795Y-80990256D01*
X126096063Y-81159774D01*
X126240226Y-81303937D01*
X126409744Y-81417205D01*
X126598102Y-81495226D01*
X126798061Y-81535000D01*
X127001939Y-81535000D01*
X127201898Y-81495226D01*
X127390256Y-81417205D01*
X127559774Y-81303937D01*
X127703937Y-81159774D01*
X127817205Y-80990256D01*
X127895226Y-80801898D01*
X127935000Y-80601939D01*
X127935000Y-80398061D01*
X127895226Y-80198102D01*
X127817205Y-80009744D01*
X127703937Y-79840226D01*
X127559774Y-79696063D01*
X127415555Y-79599699D01*
X127430799Y-79523059D01*
X140165000Y-79523059D01*
X140165000Y-79726937D01*
X140204774Y-79926896D01*
X140282795Y-80115254D01*
X140396063Y-80284772D01*
X140540226Y-80428935D01*
X140709744Y-80542203D01*
X140898102Y-80620224D01*
X141098061Y-80659998D01*
X141301939Y-80659998D01*
X141501898Y-80620224D01*
X141690256Y-80542203D01*
X141859774Y-80428935D01*
X142003937Y-80284772D01*
X142117205Y-80115254D01*
X142195226Y-79926896D01*
X142235000Y-79726937D01*
X142235000Y-79523059D01*
X142195226Y-79323100D01*
X142117205Y-79134742D01*
X142003937Y-78965224D01*
X141859774Y-78821061D01*
X141690256Y-78707793D01*
X141501898Y-78629772D01*
X141301939Y-78589998D01*
X141098061Y-78589998D01*
X140898102Y-78629772D01*
X140709744Y-78707793D01*
X140540226Y-78821061D01*
X140396063Y-78965224D01*
X140282795Y-79134742D01*
X140204774Y-79323100D01*
X140165000Y-79523059D01*
X127430799Y-79523059D01*
X127435000Y-79501939D01*
X127435000Y-79298061D01*
X127395226Y-79098102D01*
X127317205Y-78909744D01*
X127210468Y-78750000D01*
X127317205Y-78590256D01*
X127395226Y-78401898D01*
X127435000Y-78201939D01*
X127435000Y-77998061D01*
X127410792Y-77876358D01*
X127491896Y-77860226D01*
X127680254Y-77782205D01*
X127849772Y-77668937D01*
X127993935Y-77524774D01*
X128107203Y-77355256D01*
X128185224Y-77166898D01*
X128224998Y-76966939D01*
X128224998Y-76763061D01*
X128185224Y-76563102D01*
X128107203Y-76374744D01*
X127993935Y-76205226D01*
X127849772Y-76061063D01*
X127680254Y-75947795D01*
X127491896Y-75869774D01*
X127291937Y-75830000D01*
X127088059Y-75830000D01*
X126888100Y-75869774D01*
X126699742Y-75947795D01*
X126530224Y-76061063D01*
X126386061Y-76205226D01*
X126272793Y-76374744D01*
X126194772Y-76563102D01*
X126154998Y-76763061D01*
X126154998Y-76966939D01*
X126179206Y-77088642D01*
X126098102Y-77104774D01*
X125909744Y-77182795D01*
X125740226Y-77296063D01*
X125596063Y-77440226D01*
X125482795Y-77609744D01*
X125404774Y-77798102D01*
X125365000Y-77998061D01*
X121844169Y-77998061D01*
X121772240Y-77950000D01*
X121946632Y-77833475D01*
X122153475Y-77626632D01*
X122315990Y-77383411D01*
X122427932Y-77113158D01*
X122485000Y-76826260D01*
X122485000Y-76533740D01*
X122427932Y-76246842D01*
X122315990Y-75976589D01*
X122153475Y-75733368D01*
X121946632Y-75526525D01*
X121772240Y-75410000D01*
X121946632Y-75293475D01*
X122153475Y-75086632D01*
X122315990Y-74843411D01*
X122427932Y-74573158D01*
X122485000Y-74286260D01*
X122485000Y-74198061D01*
X126765000Y-74198061D01*
X126765000Y-74401939D01*
X126804774Y-74601898D01*
X126882795Y-74790256D01*
X126996063Y-74959774D01*
X127140226Y-75103937D01*
X127309744Y-75217205D01*
X127498102Y-75295226D01*
X127698061Y-75335000D01*
X127901939Y-75335000D01*
X128101898Y-75295226D01*
X128122840Y-75286551D01*
X128240226Y-75403937D01*
X128409744Y-75517205D01*
X128564998Y-75581514D01*
X128564998Y-75701939D01*
X128604772Y-75901898D01*
X128682793Y-76090256D01*
X128796061Y-76259774D01*
X128940224Y-76403937D01*
X129109742Y-76517205D01*
X129298100Y-76595226D01*
X129498059Y-76635000D01*
X129701937Y-76635000D01*
X129901896Y-76595226D01*
X129990161Y-76558665D01*
X131265000Y-76558665D01*
X131265000Y-76841335D01*
X131320147Y-77118574D01*
X131428320Y-77379727D01*
X131585363Y-77614759D01*
X131785241Y-77814637D01*
X132020273Y-77971680D01*
X132281426Y-78079853D01*
X132558665Y-78135000D01*
X132841335Y-78135000D01*
X133118574Y-78079853D01*
X133379727Y-77971680D01*
X133614759Y-77814637D01*
X133814637Y-77614759D01*
X133971680Y-77379727D01*
X134079853Y-77118574D01*
X134123716Y-76898061D01*
X135765000Y-76898061D01*
X135765000Y-77101939D01*
X135804774Y-77301898D01*
X135882795Y-77490256D01*
X135996063Y-77659774D01*
X136140226Y-77803937D01*
X136309744Y-77917205D01*
X136498102Y-77995226D01*
X136698061Y-78035000D01*
X136901939Y-78035000D01*
X137101898Y-77995226D01*
X137290256Y-77917205D01*
X137459774Y-77803937D01*
X137603937Y-77659774D01*
X137611763Y-77648061D01*
X138365000Y-77648061D01*
X138365000Y-77851939D01*
X138404774Y-78051898D01*
X138482795Y-78240256D01*
X138596063Y-78409774D01*
X138740226Y-78553937D01*
X138909744Y-78667205D01*
X139098102Y-78745226D01*
X139298061Y-78785000D01*
X139501939Y-78785000D01*
X139701898Y-78745226D01*
X139890256Y-78667205D01*
X140059774Y-78553937D01*
X140203937Y-78409774D01*
X140317205Y-78240256D01*
X140395226Y-78051898D01*
X140398587Y-78035000D01*
X140501939Y-78035000D01*
X140701898Y-77995226D01*
X140890256Y-77917205D01*
X141059774Y-77803937D01*
X141203937Y-77659774D01*
X141317205Y-77490256D01*
X141395226Y-77301898D01*
X141435000Y-77101939D01*
X141435000Y-76898061D01*
X141395226Y-76698102D01*
X141317205Y-76509744D01*
X141203937Y-76340226D01*
X141059774Y-76196063D01*
X140890256Y-76082795D01*
X140701898Y-76004774D01*
X140501939Y-75965000D01*
X140298061Y-75965000D01*
X140098102Y-76004774D01*
X139909744Y-76082795D01*
X139740226Y-76196063D01*
X139596063Y-76340226D01*
X139482795Y-76509744D01*
X139404774Y-76698102D01*
X139401413Y-76715000D01*
X139298061Y-76715000D01*
X139098102Y-76754774D01*
X138909744Y-76832795D01*
X138740226Y-76946063D01*
X138596063Y-77090226D01*
X138482795Y-77259744D01*
X138404774Y-77448102D01*
X138365000Y-77648061D01*
X137611763Y-77648061D01*
X137717205Y-77490256D01*
X137795226Y-77301898D01*
X137835000Y-77101939D01*
X137835000Y-76898061D01*
X137795226Y-76698102D01*
X137763977Y-76622660D01*
X137901898Y-76595226D01*
X138090256Y-76517205D01*
X138259774Y-76403937D01*
X138403937Y-76259774D01*
X138517205Y-76090256D01*
X138595226Y-75901898D01*
X138635000Y-75701939D01*
X138635000Y-75498061D01*
X138595226Y-75298102D01*
X138595210Y-75298061D01*
X142965000Y-75298061D01*
X142965000Y-75501939D01*
X143004774Y-75701898D01*
X143082795Y-75890256D01*
X143196063Y-76059774D01*
X143340226Y-76203937D01*
X143509744Y-76317205D01*
X143698102Y-76395226D01*
X143898061Y-76435000D01*
X144101939Y-76435000D01*
X144301898Y-76395226D01*
X144490256Y-76317205D01*
X144659774Y-76203937D01*
X144803937Y-76059774D01*
X144917205Y-75890256D01*
X144995226Y-75701898D01*
X145035000Y-75501939D01*
X145035000Y-75298061D01*
X144995226Y-75098102D01*
X144917205Y-74909744D01*
X144803937Y-74740226D01*
X144659774Y-74596063D01*
X144490256Y-74482795D01*
X144301898Y-74404774D01*
X144101939Y-74365000D01*
X143898061Y-74365000D01*
X143698102Y-74404774D01*
X143509744Y-74482795D01*
X143340226Y-74596063D01*
X143196063Y-74740226D01*
X143082795Y-74909744D01*
X143004774Y-75098102D01*
X142965000Y-75298061D01*
X138595210Y-75298061D01*
X138517205Y-75109744D01*
X138403937Y-74940226D01*
X138259774Y-74796063D01*
X138090256Y-74682795D01*
X137901898Y-74604774D01*
X137701939Y-74565000D01*
X137498061Y-74565000D01*
X137298102Y-74604774D01*
X137109744Y-74682795D01*
X136940226Y-74796063D01*
X136796063Y-74940226D01*
X136682795Y-75109744D01*
X136604774Y-75298102D01*
X136565000Y-75498061D01*
X136565000Y-75701939D01*
X136604774Y-75901898D01*
X136636023Y-75977340D01*
X136498102Y-76004774D01*
X136309744Y-76082795D01*
X136140226Y-76196063D01*
X135996063Y-76340226D01*
X135882795Y-76509744D01*
X135804774Y-76698102D01*
X135765000Y-76898061D01*
X134123716Y-76898061D01*
X134135000Y-76841335D01*
X134135000Y-76558665D01*
X134079853Y-76281426D01*
X133971680Y-76020273D01*
X133814637Y-75785241D01*
X133614759Y-75585363D01*
X133379727Y-75428320D01*
X133118574Y-75320147D01*
X132841335Y-75265000D01*
X132558665Y-75265000D01*
X132281426Y-75320147D01*
X132020273Y-75428320D01*
X131785241Y-75585363D01*
X131585363Y-75785241D01*
X131428320Y-76020273D01*
X131320147Y-76281426D01*
X131265000Y-76558665D01*
X129990161Y-76558665D01*
X130090254Y-76517205D01*
X130259772Y-76403937D01*
X130403935Y-76259774D01*
X130517203Y-76090256D01*
X130595224Y-75901898D01*
X130634998Y-75701939D01*
X130634998Y-75498061D01*
X130595224Y-75298102D01*
X130517203Y-75109744D01*
X130403935Y-74940226D01*
X130259772Y-74796063D01*
X130090254Y-74682795D01*
X129935000Y-74618486D01*
X129935000Y-74498061D01*
X129895226Y-74298102D01*
X129817205Y-74109744D01*
X129703937Y-73940226D01*
X129563711Y-73800000D01*
X129603937Y-73759774D01*
X129717205Y-73590256D01*
X129755393Y-73498061D01*
X133765000Y-73498061D01*
X133765000Y-73701939D01*
X133804774Y-73901898D01*
X133882795Y-74090256D01*
X133996063Y-74259774D01*
X134140226Y-74403937D01*
X134309744Y-74517205D01*
X134498102Y-74595226D01*
X134698061Y-74635000D01*
X134901939Y-74635000D01*
X135101898Y-74595226D01*
X135290256Y-74517205D01*
X135459774Y-74403937D01*
X135603937Y-74259774D01*
X135717205Y-74090256D01*
X135744506Y-74024347D01*
X135798061Y-74035000D01*
X136001939Y-74035000D01*
X136201898Y-73995226D01*
X136390256Y-73917205D01*
X136559774Y-73803937D01*
X136703937Y-73659774D01*
X136817205Y-73490256D01*
X136895226Y-73301898D01*
X136935000Y-73101939D01*
X136935000Y-72898061D01*
X142765000Y-72898061D01*
X142765000Y-73101939D01*
X142804774Y-73301898D01*
X142882795Y-73490256D01*
X142996063Y-73659774D01*
X143140226Y-73803937D01*
X143309744Y-73917205D01*
X143498102Y-73995226D01*
X143698061Y-74035000D01*
X143901939Y-74035000D01*
X144101898Y-73995226D01*
X144290256Y-73917205D01*
X144459774Y-73803937D01*
X144603937Y-73659774D01*
X144717205Y-73490256D01*
X144795226Y-73301898D01*
X144835000Y-73101939D01*
X144835000Y-72898061D01*
X144795226Y-72698102D01*
X144717205Y-72509744D01*
X144603937Y-72340226D01*
X144459774Y-72196063D01*
X144290256Y-72082795D01*
X144101898Y-72004774D01*
X143901939Y-71965000D01*
X143698061Y-71965000D01*
X143498102Y-72004774D01*
X143309744Y-72082795D01*
X143140226Y-72196063D01*
X142996063Y-72340226D01*
X142882795Y-72509744D01*
X142804774Y-72698102D01*
X142765000Y-72898061D01*
X136935000Y-72898061D01*
X136895226Y-72698102D01*
X136817205Y-72509744D01*
X136703937Y-72340226D01*
X136559774Y-72196063D01*
X136390256Y-72082795D01*
X136201898Y-72004774D01*
X136001939Y-71965000D01*
X135798061Y-71965000D01*
X135598102Y-72004774D01*
X135409744Y-72082795D01*
X135240226Y-72196063D01*
X135096063Y-72340226D01*
X134982795Y-72509744D01*
X134955494Y-72575653D01*
X134901939Y-72565000D01*
X134698061Y-72565000D01*
X134498102Y-72604774D01*
X134309744Y-72682795D01*
X134140226Y-72796063D01*
X133996063Y-72940226D01*
X133882795Y-73109744D01*
X133804774Y-73298102D01*
X133765000Y-73498061D01*
X129755393Y-73498061D01*
X129795226Y-73401898D01*
X129835000Y-73201939D01*
X129835000Y-72998061D01*
X129795226Y-72798102D01*
X129717205Y-72609744D01*
X129603937Y-72440226D01*
X129459774Y-72296063D01*
X129290256Y-72182795D01*
X129101898Y-72104774D01*
X128901939Y-72065000D01*
X128698061Y-72065000D01*
X128498102Y-72104774D01*
X128309744Y-72182795D01*
X128140226Y-72296063D01*
X127996063Y-72440226D01*
X127882795Y-72609744D01*
X127804774Y-72798102D01*
X127765000Y-72998061D01*
X127765000Y-73201939D01*
X127777544Y-73265000D01*
X127698061Y-73265000D01*
X127498102Y-73304774D01*
X127309744Y-73382795D01*
X127140226Y-73496063D01*
X126996063Y-73640226D01*
X126882795Y-73809744D01*
X126804774Y-73998102D01*
X126765000Y-74198061D01*
X122485000Y-74198061D01*
X122485000Y-73993740D01*
X122427932Y-73706842D01*
X122315990Y-73436589D01*
X122153475Y-73193368D01*
X121946632Y-72986525D01*
X121772240Y-72870000D01*
X121946632Y-72753475D01*
X122153475Y-72546632D01*
X122315990Y-72303411D01*
X122427932Y-72033158D01*
X122485000Y-71746260D01*
X122485000Y-71453740D01*
X122427932Y-71166842D01*
X122315990Y-70896589D01*
X122153475Y-70653368D01*
X122021620Y-70521513D01*
X122094180Y-70499502D01*
X122204494Y-70440537D01*
X122301185Y-70361185D01*
X122380537Y-70264494D01*
X122439502Y-70154180D01*
X122475812Y-70034482D01*
X122488072Y-69910000D01*
X122488072Y-68210000D01*
X122479897Y-68127000D01*
X123138083Y-68127000D01*
X123082795Y-68209744D01*
G37*
%TD.AperFunction*%
%TD*%
M02*
