%TF.GenerationSoftware,KiCad,Pcbnew,(5.1.7-0-10_14)*%
%TF.CreationDate,2020-11-17T22:17:43+09:00*%
%TF.ProjectId,mini-esp32,6d696e69-2d65-4737-9033-322e6b696361,rev?*%
%TF.SameCoordinates,Original*%
%TF.FileFunction,Legend,Bot*%
%TF.FilePolarity,Positive*%
%FSLAX46Y46*%
G04 Gerber Fmt 4.6, Leading zero omitted, Abs format (unit mm)*
G04 Created by KiCad (PCBNEW (5.1.7-0-10_14)) date 2020-11-17 22:17:43*
%MOMM*%
%LPD*%
G01*
G04 APERTURE LIST*
%ADD10C,0.150000*%
%ADD11C,0.750000*%
G04 APERTURE END LIST*
D10*
X143376704Y-111880695D02*
X143110038Y-112261647D01*
X142919561Y-111880695D02*
X142919561Y-112680695D01*
X143224323Y-112680695D01*
X143300514Y-112642600D01*
X143338609Y-112604504D01*
X143376704Y-112528314D01*
X143376704Y-112414028D01*
X143338609Y-112337838D01*
X143300514Y-112299742D01*
X143224323Y-112261647D01*
X142919561Y-112261647D01*
X143681466Y-111918790D02*
X143795752Y-111880695D01*
X143986228Y-111880695D01*
X144062419Y-111918790D01*
X144100514Y-111956885D01*
X144138609Y-112033076D01*
X144138609Y-112109266D01*
X144100514Y-112185457D01*
X144062419Y-112223552D01*
X143986228Y-112261647D01*
X143833847Y-112299742D01*
X143757657Y-112337838D01*
X143719561Y-112375933D01*
X143681466Y-112452123D01*
X143681466Y-112528314D01*
X143719561Y-112604504D01*
X143757657Y-112642600D01*
X143833847Y-112680695D01*
X144024323Y-112680695D01*
X144138609Y-112642600D01*
X144367180Y-112680695D02*
X144824323Y-112680695D01*
X144595752Y-111880695D02*
X144595752Y-112680695D01*
X144068819Y-109340695D02*
X143611676Y-109340695D01*
X143840247Y-109340695D02*
X143840247Y-110140695D01*
X143764057Y-110026409D01*
X143687866Y-109950219D01*
X143611676Y-109912123D01*
X144335485Y-110140695D02*
X144868819Y-110140695D01*
X144525961Y-109340695D01*
X144119619Y-106800695D02*
X143662476Y-106800695D01*
X143891047Y-106800695D02*
X143891047Y-107600695D01*
X143814857Y-107486409D01*
X143738666Y-107410219D01*
X143662476Y-107372123D01*
X144805333Y-107600695D02*
X144652952Y-107600695D01*
X144576761Y-107562600D01*
X144538666Y-107524504D01*
X144462476Y-107410219D01*
X144424380Y-107257838D01*
X144424380Y-106953076D01*
X144462476Y-106876885D01*
X144500571Y-106838790D01*
X144576761Y-106800695D01*
X144729142Y-106800695D01*
X144805333Y-106838790D01*
X144843428Y-106876885D01*
X144881523Y-106953076D01*
X144881523Y-107143552D01*
X144843428Y-107219742D01*
X144805333Y-107257838D01*
X144729142Y-107295933D01*
X144576761Y-107295933D01*
X144500571Y-107257838D01*
X144462476Y-107219742D01*
X144424380Y-107143552D01*
X144779980Y-104819428D02*
X144779980Y-104286095D01*
X144589504Y-105124190D02*
X144399028Y-104552761D01*
X144894266Y-104552761D01*
X144145019Y-101746095D02*
X143687876Y-101746095D01*
X143916447Y-101746095D02*
X143916447Y-102546095D01*
X143840257Y-102431809D01*
X143764066Y-102355619D01*
X143687876Y-102317523D01*
X144449780Y-102469904D02*
X144487876Y-102508000D01*
X144564066Y-102546095D01*
X144754542Y-102546095D01*
X144830733Y-102508000D01*
X144868828Y-102469904D01*
X144906923Y-102393714D01*
X144906923Y-102317523D01*
X144868828Y-102203238D01*
X144411685Y-101746095D01*
X144906923Y-101746095D01*
X144119619Y-99180695D02*
X143662476Y-99180695D01*
X143891047Y-99180695D02*
X143891047Y-99980695D01*
X143814857Y-99866409D01*
X143738666Y-99790219D01*
X143662476Y-99752123D01*
X144805333Y-99714028D02*
X144805333Y-99180695D01*
X144614857Y-100018790D02*
X144424380Y-99447361D01*
X144919619Y-99447361D01*
X143662476Y-97389904D02*
X143700571Y-97428000D01*
X143776761Y-97466095D01*
X143967238Y-97466095D01*
X144043428Y-97428000D01*
X144081523Y-97389904D01*
X144119619Y-97313714D01*
X144119619Y-97237523D01*
X144081523Y-97123238D01*
X143624380Y-96666095D01*
X144119619Y-96666095D01*
X144424380Y-97389904D02*
X144462476Y-97428000D01*
X144538666Y-97466095D01*
X144729142Y-97466095D01*
X144805333Y-97428000D01*
X144843428Y-97389904D01*
X144881523Y-97313714D01*
X144881523Y-97237523D01*
X144843428Y-97123238D01*
X144386285Y-96666095D01*
X144881523Y-96666095D01*
X143687876Y-94849904D02*
X143725971Y-94888000D01*
X143802161Y-94926095D01*
X143992638Y-94926095D01*
X144068828Y-94888000D01*
X144106923Y-94849904D01*
X144145019Y-94773714D01*
X144145019Y-94697523D01*
X144106923Y-94583238D01*
X143649780Y-94126095D01*
X144145019Y-94126095D01*
X144906923Y-94126095D02*
X144449780Y-94126095D01*
X144678352Y-94126095D02*
X144678352Y-94926095D01*
X144602161Y-94811809D01*
X144525971Y-94735619D01*
X144449780Y-94697523D01*
X144119619Y-91586095D02*
X143662476Y-91586095D01*
X143891047Y-91586095D02*
X143891047Y-92386095D01*
X143814857Y-92271809D01*
X143738666Y-92195619D01*
X143662476Y-92157523D01*
X144500571Y-91586095D02*
X144652952Y-91586095D01*
X144729142Y-91624190D01*
X144767238Y-91662285D01*
X144843428Y-91776571D01*
X144881523Y-91928952D01*
X144881523Y-92233714D01*
X144843428Y-92309904D01*
X144805333Y-92348000D01*
X144729142Y-92386095D01*
X144576761Y-92386095D01*
X144500571Y-92348000D01*
X144462476Y-92309904D01*
X144424380Y-92233714D01*
X144424380Y-92043238D01*
X144462476Y-91967047D01*
X144500571Y-91928952D01*
X144576761Y-91890857D01*
X144729142Y-91890857D01*
X144805333Y-91928952D01*
X144843428Y-91967047D01*
X144881523Y-92043238D01*
X143637076Y-89795304D02*
X143675171Y-89833400D01*
X143751361Y-89871495D01*
X143941838Y-89871495D01*
X144018028Y-89833400D01*
X144056123Y-89795304D01*
X144094219Y-89719114D01*
X144094219Y-89642923D01*
X144056123Y-89528638D01*
X143598980Y-89071495D01*
X144094219Y-89071495D01*
X144360885Y-89871495D02*
X144856123Y-89871495D01*
X144589457Y-89566733D01*
X144703742Y-89566733D01*
X144779933Y-89528638D01*
X144818028Y-89490542D01*
X144856123Y-89414352D01*
X144856123Y-89223876D01*
X144818028Y-89147685D01*
X144779933Y-89109590D01*
X144703742Y-89071495D01*
X144475171Y-89071495D01*
X144398980Y-89109590D01*
X144360885Y-89147685D01*
X144094219Y-86480695D02*
X143637076Y-86480695D01*
X143865647Y-86480695D02*
X143865647Y-87280695D01*
X143789457Y-87166409D01*
X143713266Y-87090219D01*
X143637076Y-87052123D01*
X144551361Y-86937838D02*
X144475171Y-86975933D01*
X144437076Y-87014028D01*
X144398980Y-87090219D01*
X144398980Y-87128314D01*
X144437076Y-87204504D01*
X144475171Y-87242600D01*
X144551361Y-87280695D01*
X144703742Y-87280695D01*
X144779933Y-87242600D01*
X144818028Y-87204504D01*
X144856123Y-87128314D01*
X144856123Y-87090219D01*
X144818028Y-87014028D01*
X144779933Y-86975933D01*
X144703742Y-86937838D01*
X144551361Y-86937838D01*
X144475171Y-86899742D01*
X144437076Y-86861647D01*
X144398980Y-86785457D01*
X144398980Y-86633076D01*
X144437076Y-86556885D01*
X144475171Y-86518790D01*
X144551361Y-86480695D01*
X144703742Y-86480695D01*
X144779933Y-86518790D01*
X144818028Y-86556885D01*
X144856123Y-86633076D01*
X144856123Y-86785457D01*
X144818028Y-86861647D01*
X144779933Y-86899742D01*
X144703742Y-86937838D01*
X144589504Y-84766095D02*
X144665695Y-84766095D01*
X144741885Y-84728000D01*
X144779980Y-84689904D01*
X144818076Y-84613714D01*
X144856171Y-84461333D01*
X144856171Y-84270857D01*
X144818076Y-84118476D01*
X144779980Y-84042285D01*
X144741885Y-84004190D01*
X144665695Y-83966095D01*
X144589504Y-83966095D01*
X144513314Y-84004190D01*
X144475219Y-84042285D01*
X144437123Y-84118476D01*
X144399028Y-84270857D01*
X144399028Y-84461333D01*
X144437123Y-84613714D01*
X144475219Y-84689904D01*
X144513314Y-84728000D01*
X144589504Y-84766095D01*
X144119619Y-78860695D02*
X143662476Y-78860695D01*
X143891047Y-78860695D02*
X143891047Y-79660695D01*
X143814857Y-79546409D01*
X143738666Y-79470219D01*
X143662476Y-79432123D01*
X144843428Y-79660695D02*
X144462476Y-79660695D01*
X144424380Y-79279742D01*
X144462476Y-79317838D01*
X144538666Y-79355933D01*
X144729142Y-79355933D01*
X144805333Y-79317838D01*
X144843428Y-79279742D01*
X144881523Y-79203552D01*
X144881523Y-79013076D01*
X144843428Y-78936885D01*
X144805333Y-78898790D01*
X144729142Y-78860695D01*
X144538666Y-78860695D01*
X144462476Y-78898790D01*
X144424380Y-78936885D01*
X143573580Y-77146095D02*
X144068819Y-77146095D01*
X143802152Y-76841333D01*
X143916438Y-76841333D01*
X143992628Y-76803238D01*
X144030723Y-76765142D01*
X144068819Y-76688952D01*
X144068819Y-76498476D01*
X144030723Y-76422285D01*
X143992628Y-76384190D01*
X143916438Y-76346095D01*
X143687866Y-76346095D01*
X143611676Y-76384190D01*
X143573580Y-76422285D01*
X144792628Y-77146095D02*
X144411676Y-77146095D01*
X144373580Y-76765142D01*
X144411676Y-76803238D01*
X144487866Y-76841333D01*
X144678342Y-76841333D01*
X144754533Y-76803238D01*
X144792628Y-76765142D01*
X144830723Y-76688952D01*
X144830723Y-76498476D01*
X144792628Y-76422285D01*
X144754533Y-76384190D01*
X144678342Y-76346095D01*
X144487866Y-76346095D01*
X144411676Y-76384190D01*
X144373580Y-76422285D01*
X143548180Y-74606095D02*
X144043419Y-74606095D01*
X143776752Y-74301333D01*
X143891038Y-74301333D01*
X143967228Y-74263238D01*
X144005323Y-74225142D01*
X144043419Y-74148952D01*
X144043419Y-73958476D01*
X144005323Y-73882285D01*
X143967228Y-73844190D01*
X143891038Y-73806095D01*
X143662466Y-73806095D01*
X143586276Y-73844190D01*
X143548180Y-73882285D01*
X144729133Y-74339428D02*
X144729133Y-73806095D01*
X144538657Y-74644190D02*
X144348180Y-74072761D01*
X144843419Y-74072761D01*
X143598980Y-72066095D02*
X144094219Y-72066095D01*
X143827552Y-71761333D01*
X143941838Y-71761333D01*
X144018028Y-71723238D01*
X144056123Y-71685142D01*
X144094219Y-71608952D01*
X144094219Y-71418476D01*
X144056123Y-71342285D01*
X144018028Y-71304190D01*
X143941838Y-71266095D01*
X143713266Y-71266095D01*
X143637076Y-71304190D01*
X143598980Y-71342285D01*
X144475171Y-71266095D02*
X144627552Y-71266095D01*
X144703742Y-71304190D01*
X144741838Y-71342285D01*
X144818028Y-71456571D01*
X144856123Y-71608952D01*
X144856123Y-71913714D01*
X144818028Y-71989904D01*
X144779933Y-72028000D01*
X144703742Y-72066095D01*
X144551361Y-72066095D01*
X144475171Y-72028000D01*
X144437076Y-71989904D01*
X144398980Y-71913714D01*
X144398980Y-71723238D01*
X144437076Y-71647047D01*
X144475171Y-71608952D01*
X144551361Y-71570857D01*
X144703742Y-71570857D01*
X144779933Y-71608952D01*
X144818028Y-71647047D01*
X144856123Y-71723238D01*
X143598980Y-69500695D02*
X144094219Y-69500695D01*
X143827552Y-69195933D01*
X143941838Y-69195933D01*
X144018028Y-69157838D01*
X144056123Y-69119742D01*
X144094219Y-69043552D01*
X144094219Y-68853076D01*
X144056123Y-68776885D01*
X144018028Y-68738790D01*
X143941838Y-68700695D01*
X143713266Y-68700695D01*
X143637076Y-68738790D01*
X143598980Y-68776885D01*
X144779933Y-69500695D02*
X144627552Y-69500695D01*
X144551361Y-69462600D01*
X144513266Y-69424504D01*
X144437076Y-69310219D01*
X144398980Y-69157838D01*
X144398980Y-68853076D01*
X144437076Y-68776885D01*
X144475171Y-68738790D01*
X144551361Y-68700695D01*
X144703742Y-68700695D01*
X144779933Y-68738790D01*
X144818028Y-68776885D01*
X144856123Y-68853076D01*
X144856123Y-69043552D01*
X144818028Y-69119742D01*
X144779933Y-69157838D01*
X144703742Y-69195933D01*
X144551361Y-69195933D01*
X144475171Y-69157838D01*
X144437076Y-69119742D01*
X144398980Y-69043552D01*
X122961466Y-68675295D02*
X122694800Y-69056247D01*
X122504323Y-68675295D02*
X122504323Y-69475295D01*
X122809085Y-69475295D01*
X122885276Y-69437200D01*
X122923371Y-69399104D01*
X122961466Y-69322914D01*
X122961466Y-69208628D01*
X122923371Y-69132438D01*
X122885276Y-69094342D01*
X122809085Y-69056247D01*
X122504323Y-69056247D01*
X123228133Y-69475295D02*
X123761466Y-68675295D01*
X123761466Y-69475295D02*
X123228133Y-68675295D01*
X124066228Y-68675295D02*
X124066228Y-69475295D01*
X124256704Y-69475295D01*
X124370990Y-69437200D01*
X124447180Y-69361009D01*
X124485276Y-69284819D01*
X124523371Y-69132438D01*
X124523371Y-69018152D01*
X124485276Y-68865771D01*
X124447180Y-68789580D01*
X124370990Y-68713390D01*
X124256704Y-68675295D01*
X124066228Y-68675295D01*
X122434476Y-72015295D02*
X122891619Y-72015295D01*
X122663047Y-71215295D02*
X122663047Y-72015295D01*
X123082095Y-72015295D02*
X123615428Y-71215295D01*
X123615428Y-72015295D02*
X123082095Y-71215295D01*
X123920190Y-71215295D02*
X123920190Y-72015295D01*
X124110666Y-72015295D01*
X124224952Y-71977200D01*
X124301142Y-71901009D01*
X124339238Y-71824819D01*
X124377333Y-71672438D01*
X124377333Y-71558152D01*
X124339238Y-71405771D01*
X124301142Y-71329580D01*
X124224952Y-71253390D01*
X124110666Y-71215295D01*
X123920190Y-71215295D01*
X122529676Y-74479104D02*
X122567771Y-74517200D01*
X122643961Y-74555295D01*
X122834438Y-74555295D01*
X122910628Y-74517200D01*
X122948723Y-74479104D01*
X122986819Y-74402914D01*
X122986819Y-74326723D01*
X122948723Y-74212438D01*
X122491580Y-73755295D01*
X122986819Y-73755295D01*
X123710628Y-74555295D02*
X123329676Y-74555295D01*
X123291580Y-74174342D01*
X123329676Y-74212438D01*
X123405866Y-74250533D01*
X123596342Y-74250533D01*
X123672533Y-74212438D01*
X123710628Y-74174342D01*
X123748723Y-74098152D01*
X123748723Y-73907676D01*
X123710628Y-73831485D01*
X123672533Y-73793390D01*
X123596342Y-73755295D01*
X123405866Y-73755295D01*
X123329676Y-73793390D01*
X123291580Y-73831485D01*
X122529676Y-77019104D02*
X122567771Y-77057200D01*
X122643961Y-77095295D01*
X122834438Y-77095295D01*
X122910628Y-77057200D01*
X122948723Y-77019104D01*
X122986819Y-76942914D01*
X122986819Y-76866723D01*
X122948723Y-76752438D01*
X122491580Y-76295295D01*
X122986819Y-76295295D01*
X123672533Y-77095295D02*
X123520152Y-77095295D01*
X123443961Y-77057200D01*
X123405866Y-77019104D01*
X123329676Y-76904819D01*
X123291580Y-76752438D01*
X123291580Y-76447676D01*
X123329676Y-76371485D01*
X123367771Y-76333390D01*
X123443961Y-76295295D01*
X123596342Y-76295295D01*
X123672533Y-76333390D01*
X123710628Y-76371485D01*
X123748723Y-76447676D01*
X123748723Y-76638152D01*
X123710628Y-76714342D01*
X123672533Y-76752438D01*
X123596342Y-76790533D01*
X123443961Y-76790533D01*
X123367771Y-76752438D01*
X123329676Y-76714342D01*
X123291580Y-76638152D01*
X122504276Y-79584504D02*
X122542371Y-79622600D01*
X122618561Y-79660695D01*
X122809038Y-79660695D01*
X122885228Y-79622600D01*
X122923323Y-79584504D01*
X122961419Y-79508314D01*
X122961419Y-79432123D01*
X122923323Y-79317838D01*
X122466180Y-78860695D01*
X122961419Y-78860695D01*
X123228085Y-79660695D02*
X123761419Y-79660695D01*
X123418561Y-78860695D01*
X122516980Y-82200695D02*
X123012219Y-82200695D01*
X122745552Y-81895933D01*
X122859838Y-81895933D01*
X122936028Y-81857838D01*
X122974123Y-81819742D01*
X123012219Y-81743552D01*
X123012219Y-81553076D01*
X122974123Y-81476885D01*
X122936028Y-81438790D01*
X122859838Y-81400695D01*
X122631266Y-81400695D01*
X122555076Y-81438790D01*
X122516980Y-81476885D01*
X123316980Y-82124504D02*
X123355076Y-82162600D01*
X123431266Y-82200695D01*
X123621742Y-82200695D01*
X123697933Y-82162600D01*
X123736028Y-82124504D01*
X123774123Y-82048314D01*
X123774123Y-81972123D01*
X123736028Y-81857838D01*
X123278885Y-81400695D01*
X123774123Y-81400695D01*
X122491580Y-84740695D02*
X122986819Y-84740695D01*
X122720152Y-84435933D01*
X122834438Y-84435933D01*
X122910628Y-84397838D01*
X122948723Y-84359742D01*
X122986819Y-84283552D01*
X122986819Y-84093076D01*
X122948723Y-84016885D01*
X122910628Y-83978790D01*
X122834438Y-83940695D01*
X122605866Y-83940695D01*
X122529676Y-83978790D01*
X122491580Y-84016885D01*
X123253485Y-84740695D02*
X123748723Y-84740695D01*
X123482057Y-84435933D01*
X123596342Y-84435933D01*
X123672533Y-84397838D01*
X123710628Y-84359742D01*
X123748723Y-84283552D01*
X123748723Y-84093076D01*
X123710628Y-84016885D01*
X123672533Y-83978790D01*
X123596342Y-83940695D01*
X123367771Y-83940695D01*
X123291580Y-83978790D01*
X123253485Y-84016885D01*
X122961419Y-86479095D02*
X122504276Y-86479095D01*
X122732847Y-86479095D02*
X122732847Y-87279095D01*
X122656657Y-87164809D01*
X122580466Y-87088619D01*
X122504276Y-87050523D01*
X123228085Y-87279095D02*
X123723323Y-87279095D01*
X123456657Y-86974333D01*
X123570942Y-86974333D01*
X123647133Y-86936238D01*
X123685228Y-86898142D01*
X123723323Y-86821952D01*
X123723323Y-86631476D01*
X123685228Y-86555285D01*
X123647133Y-86517190D01*
X123570942Y-86479095D01*
X123342371Y-86479095D01*
X123266180Y-86517190D01*
X123228085Y-86555285D01*
X122948676Y-89820695D02*
X122567723Y-89820695D01*
X122529628Y-89439742D01*
X122567723Y-89477838D01*
X122643914Y-89515933D01*
X122834390Y-89515933D01*
X122910580Y-89477838D01*
X122948676Y-89439742D01*
X122986771Y-89363552D01*
X122986771Y-89173076D01*
X122948676Y-89096885D01*
X122910580Y-89058790D01*
X122834390Y-89020695D01*
X122643914Y-89020695D01*
X122567723Y-89058790D01*
X122529628Y-89096885D01*
X122574123Y-99625142D02*
X122840790Y-99625142D01*
X122955076Y-99206095D02*
X122574123Y-99206095D01*
X122574123Y-100006095D01*
X122955076Y-100006095D01*
X123297933Y-99206095D02*
X123297933Y-100006095D01*
X123755076Y-99206095D01*
X123755076Y-100006095D01*
X122802723Y-102139742D02*
X122917009Y-102101647D01*
X122955104Y-102063552D01*
X122993200Y-101987361D01*
X122993200Y-101873076D01*
X122955104Y-101796885D01*
X122917009Y-101758790D01*
X122840819Y-101720695D01*
X122536057Y-101720695D01*
X122536057Y-102520695D01*
X122802723Y-102520695D01*
X122878914Y-102482600D01*
X122917009Y-102444504D01*
X122955104Y-102368314D01*
X122955104Y-102292123D01*
X122917009Y-102215933D01*
X122878914Y-102177838D01*
X122802723Y-102139742D01*
X122536057Y-102139742D01*
X123297961Y-101949266D02*
X123678914Y-101949266D01*
X123221771Y-101720695D02*
X123488438Y-102520695D01*
X123755104Y-101720695D01*
X123907485Y-102520695D02*
X124364628Y-102520695D01*
X124136057Y-101720695D02*
X124136057Y-102520695D01*
X122986876Y-105022600D02*
X122910685Y-105060695D01*
X122796400Y-105060695D01*
X122682114Y-105022600D01*
X122605923Y-104946409D01*
X122567828Y-104870219D01*
X122529733Y-104717838D01*
X122529733Y-104603552D01*
X122567828Y-104451171D01*
X122605923Y-104374980D01*
X122682114Y-104298790D01*
X122796400Y-104260695D01*
X122872590Y-104260695D01*
X122986876Y-104298790D01*
X123024971Y-104336885D01*
X123024971Y-104603552D01*
X122872590Y-104603552D01*
X123367828Y-104260695D02*
X123367828Y-105060695D01*
X123824971Y-104260695D01*
X123824971Y-105060695D01*
X124205923Y-104260695D02*
X124205923Y-105060695D01*
X124396400Y-105060695D01*
X124510685Y-105022600D01*
X124586876Y-104946409D01*
X124624971Y-104870219D01*
X124663066Y-104717838D01*
X124663066Y-104603552D01*
X124624971Y-104451171D01*
X124586876Y-104374980D01*
X124510685Y-104298790D01*
X124396400Y-104260695D01*
X124205923Y-104260695D01*
X122504323Y-110140695D02*
X122999561Y-110140695D01*
X122732895Y-109835933D01*
X122847180Y-109835933D01*
X122923371Y-109797838D01*
X122961466Y-109759742D01*
X122999561Y-109683552D01*
X122999561Y-109493076D01*
X122961466Y-109416885D01*
X122923371Y-109378790D01*
X122847180Y-109340695D01*
X122618609Y-109340695D01*
X122542419Y-109378790D01*
X122504323Y-109416885D01*
X123228133Y-110140695D02*
X123494800Y-109340695D01*
X123761466Y-110140695D01*
X123951942Y-110140695D02*
X124447180Y-110140695D01*
X124180514Y-109835933D01*
X124294800Y-109835933D01*
X124370990Y-109797838D01*
X124409085Y-109759742D01*
X124447180Y-109683552D01*
X124447180Y-109493076D01*
X124409085Y-109416885D01*
X124370990Y-109378790D01*
X124294800Y-109340695D01*
X124066228Y-109340695D01*
X123990038Y-109378790D01*
X123951942Y-109416885D01*
X122936019Y-112655295D02*
X122555066Y-112655295D01*
X122516971Y-112274342D01*
X122555066Y-112312438D01*
X122631257Y-112350533D01*
X122821733Y-112350533D01*
X122897923Y-112312438D01*
X122936019Y-112274342D01*
X122974114Y-112198152D01*
X122974114Y-112007676D01*
X122936019Y-111931485D01*
X122897923Y-111893390D01*
X122821733Y-111855295D01*
X122631257Y-111855295D01*
X122555066Y-111893390D01*
X122516971Y-111931485D01*
X123202685Y-112655295D02*
X123469352Y-111855295D01*
X123736019Y-112655295D01*
D11*
X131834523Y-74904761D02*
X127834523Y-74904761D01*
X130691666Y-76238095D01*
X127834523Y-77571428D01*
X131834523Y-77571428D01*
X131834523Y-79476190D02*
X129167857Y-79476190D01*
X127834523Y-79476190D02*
X128025000Y-79285714D01*
X128215476Y-79476190D01*
X128025000Y-79666666D01*
X127834523Y-79476190D01*
X128215476Y-79476190D01*
X129167857Y-81380952D02*
X131834523Y-81380952D01*
X129548809Y-81380952D02*
X129358333Y-81571428D01*
X129167857Y-81952380D01*
X129167857Y-82523809D01*
X129358333Y-82904761D01*
X129739285Y-83095238D01*
X131834523Y-83095238D01*
X131834523Y-85000000D02*
X129167857Y-85000000D01*
X127834523Y-85000000D02*
X128025000Y-84809523D01*
X128215476Y-85000000D01*
X128025000Y-85190476D01*
X127834523Y-85000000D01*
X128215476Y-85000000D01*
X129739285Y-89952380D02*
X129739285Y-91285714D01*
X131834523Y-91857142D02*
X131834523Y-89952380D01*
X127834523Y-89952380D01*
X127834523Y-91857142D01*
X131644047Y-93380952D02*
X131834523Y-93952380D01*
X131834523Y-94904761D01*
X131644047Y-95285714D01*
X131453571Y-95476190D01*
X131072619Y-95666666D01*
X130691666Y-95666666D01*
X130310714Y-95476190D01*
X130120238Y-95285714D01*
X129929761Y-94904761D01*
X129739285Y-94142857D01*
X129548809Y-93761904D01*
X129358333Y-93571428D01*
X128977380Y-93380952D01*
X128596428Y-93380952D01*
X128215476Y-93571428D01*
X128025000Y-93761904D01*
X127834523Y-94142857D01*
X127834523Y-95095238D01*
X128025000Y-95666666D01*
X131834523Y-97380952D02*
X127834523Y-97380952D01*
X127834523Y-98904761D01*
X128025000Y-99285714D01*
X128215476Y-99476190D01*
X128596428Y-99666666D01*
X129167857Y-99666666D01*
X129548809Y-99476190D01*
X129739285Y-99285714D01*
X129929761Y-98904761D01*
X129929761Y-97380952D01*
X127834523Y-101000000D02*
X127834523Y-103476190D01*
X129358333Y-102142857D01*
X129358333Y-102714285D01*
X129548809Y-103095238D01*
X129739285Y-103285714D01*
X130120238Y-103476190D01*
X131072619Y-103476190D01*
X131453571Y-103285714D01*
X131644047Y-103095238D01*
X131834523Y-102714285D01*
X131834523Y-101571428D01*
X131644047Y-101190476D01*
X131453571Y-101000000D01*
X128215476Y-105000000D02*
X128025000Y-105190476D01*
X127834523Y-105571428D01*
X127834523Y-106523809D01*
X128025000Y-106904761D01*
X128215476Y-107095238D01*
X128596428Y-107285714D01*
X128977380Y-107285714D01*
X129548809Y-107095238D01*
X131834523Y-104809523D01*
X131834523Y-107285714D01*
X134584523Y-82047619D02*
X138584523Y-83380952D01*
X134584523Y-84714285D01*
X134584523Y-85666666D02*
X134584523Y-88142857D01*
X136108333Y-86809523D01*
X136108333Y-87380952D01*
X136298809Y-87761904D01*
X136489285Y-87952380D01*
X136870238Y-88142857D01*
X137822619Y-88142857D01*
X138203571Y-87952380D01*
X138394047Y-87761904D01*
X138584523Y-87380952D01*
X138584523Y-86238095D01*
X138394047Y-85857142D01*
X138203571Y-85666666D01*
X138203571Y-89857142D02*
X138394047Y-90047619D01*
X138584523Y-89857142D01*
X138394047Y-89666666D01*
X138203571Y-89857142D01*
X138584523Y-89857142D01*
X134584523Y-92523809D02*
X134584523Y-92904761D01*
X134775000Y-93285714D01*
X134965476Y-93476190D01*
X135346428Y-93666666D01*
X136108333Y-93857142D01*
X137060714Y-93857142D01*
X137822619Y-93666666D01*
X138203571Y-93476190D01*
X138394047Y-93285714D01*
X138584523Y-92904761D01*
X138584523Y-92523809D01*
X138394047Y-92142857D01*
X138203571Y-91952380D01*
X137822619Y-91761904D01*
X137060714Y-91571428D01*
X136108333Y-91571428D01*
X135346428Y-91761904D01*
X134965476Y-91952380D01*
X134775000Y-92142857D01*
X134584523Y-92523809D01*
X138203571Y-95571428D02*
X138394047Y-95761904D01*
X138584523Y-95571428D01*
X138394047Y-95380952D01*
X138203571Y-95571428D01*
X138584523Y-95571428D01*
X138584523Y-99571428D02*
X138584523Y-97285714D01*
X138584523Y-98428571D02*
X134584523Y-98428571D01*
X135155952Y-98047619D01*
X135536904Y-97666666D01*
X135727380Y-97285714D01*
M02*
