M48
; DRILL file {KiCad (5.1.7-0-10_14)} date Tuesday, November 17, 2020 at 10:17:42 PM
; FORMAT={-:-/ absolute / inch / decimal}
; #@! TF.CreationDate,2020-11-17T22:17:42+09:00
; #@! TF.GenerationSoftware,Kicad,Pcbnew,(5.1.7-0-10_14)
; #@! TF.FileFunction,Plated,1,4,PTH
FMAT,2
INCH
T1C0.0157
T2C0.0276
T3C0.0394
%
G90
G05
T1
X4.805Y-3.374
X4.8307Y-3.4646
X4.8386Y-3.5925
X4.8602Y-3.815
X4.8642Y-3.7756
X4.8719Y-3.9097
X4.878Y-2.7815
X4.8819Y-2.7047
X4.8819Y-3.9685
X4.8898Y-3.5039
X4.8957Y-4.374
X4.9059Y-3.6945
X4.9134Y-3.4724
X4.9154Y-4.1476
X4.9161Y-3.6306
X4.9252Y-3.7461
X4.9409Y-3.9272
X4.9435Y-3.4386
X4.9599Y-3.4726
X4.9646Y-3.8504
X4.9665Y-2.7848
X4.9705Y-4.3445
X4.9705Y-4.3898
X4.9764Y-2.7047
X4.9764Y-3.0748
X4.9764Y-3.126
X4.9803Y-3.5827
X4.9961Y-3.1693
X4.9972Y-3.8283
X5.002Y-2.7677
X5.0075Y-3.0262
X5.0197Y-4.1398
X5.0232Y-3.6685
X5.0315Y-2.7244
X5.0315Y-2.9252
X5.0335Y-3.5098
X5.0397Y-3.8316
X5.0413Y-3.5807
X5.0453Y-4.376
X5.0472Y-3.7421
X5.0492Y-4.2953
X5.063Y-3.2323
X5.0709Y-2.6969
X5.0709Y-2.878
X5.0709Y-3.8465
X5.0748Y-2.937
X5.0827Y-3.9705
X5.0925Y-3.3406
X5.0945Y-3.5787
X5.1024Y-2.9764
X5.1032Y-3.6579
X5.1063Y-2.7972
X5.1102Y-4.1358
X5.124Y-3.5005
X5.1339Y-3.8268
X5.1378Y-3.3425
X5.1457Y-3.9626
X5.1457Y-4.3012
X5.1496Y-3.5701
X5.1535Y-3.4982
X5.1654Y-3.8268
X5.1654Y-4.3228
X5.1713Y-3.8819
X5.1828Y-3.5623
X5.2047Y-3.9606
X5.2047Y-4.1339
X5.2047Y-3.7559
X5.2165Y-3.5965
X5.2382Y-3.8504
X5.2402Y-2.8268
X5.248Y-4.2992
X5.248Y-4.3602
X5.2721Y-3.7623
X5.2795Y-3.9048
X5.2795Y-3.2028
X5.2795Y-4.5197
X5.3071Y-2.7677
X5.3071Y-2.8976
X5.3104Y-4.1811
X5.315Y-4.2638
X5.32Y-3.713
X5.3357Y-4.164
X5.3504Y-2.874
X5.3622Y-4.4528
X5.3858Y-3.0315
X5.3858Y-3.3465
X5.3878Y-3.5157
X5.3917Y-3.9134
X5.3935Y-3.8644
X5.4016Y-4.378
X5.4173Y-2.9764
X5.4173Y-3.2677
X5.4173Y-3.311
X5.4469Y-3.4794
X5.4488Y-3.9134
X5.4528Y-3.7992
X5.4547Y-3.3346
X5.4567Y-2.8268
X5.4567Y-3.9606
X5.4646Y-4.4528
X5.4681Y-3.7282
X5.4843Y-3.2323
X5.4843Y-3.3701
X5.4862Y-3.8307
X5.4862Y-3.8819
X5.4862Y-4.4331
X5.4882Y-2.7244
X5.4882Y-2.7972
X5.4882Y-3.061
X5.5157Y-3.2756
X5.5157Y-4.4803
X5.5197Y-2.7539
X5.5276Y-3.0315
X5.5564Y-3.458
X5.5591Y-3.1348
X5.5644Y-3.7552
X5.565Y-3.6398
X5.5709Y-3.374
X5.5826Y-3.4874
X5.5965Y-3.6929
X5.5965Y-4.0866
X5.6208Y-3.561
X5.626Y-4.1378
X5.6311Y-3.4201
X5.6318Y-3.7248
X5.6378Y-3.3268
X5.6404Y-3.085
X5.6496Y-2.7756
X5.6496Y-4.3898
X5.6516Y-3.5138
X5.6614Y-2.874
X5.6693Y-2.7244
X5.6693Y-2.9685
X5.6693Y-3.9685
X5.6772Y-3.0709
X5.7076Y-3.8089
X5.7298Y-3.596
T2
X5.338Y-4.5472
X5.5289Y-4.5472
T3
X5.2244Y-3.0197
X5.7638Y-2.7189
X5.7638Y-2.8189
X5.7638Y-2.9189
X5.7638Y-3.0189
X5.7638Y-3.1189
X5.7638Y-3.2189
X5.7638Y-3.3189
X5.7638Y-3.4189
X5.7638Y-3.5189
X5.7638Y-3.6189
X5.7638Y-3.7189
X5.7638Y-3.8189
X5.7638Y-3.9189
X5.7638Y-4.0189
X5.7638Y-4.1189
X5.7638Y-4.2189
X5.7638Y-4.3189
X5.7638Y-4.4189
X4.7638Y-2.7189
X4.7638Y-2.8189
X4.7638Y-2.9189
X4.7638Y-3.0189
X4.7638Y-3.1189
X4.7638Y-3.2189
X4.7638Y-3.3189
X4.7638Y-3.4189
X4.7638Y-3.5189
X4.7638Y-3.6189
X4.7638Y-3.7189
X4.7638Y-3.8189
X4.7638Y-3.9189
X4.7638Y-4.0189
X4.7638Y-4.1189
X4.7638Y-4.2189
X4.7638Y-4.3189
X4.7638Y-4.4189
T2
G00X5.2909Y-4.6377
M15
G01X5.2909Y-4.6692
M16
G05
G00X5.5759Y-4.6377
M15
G01X5.5759Y-4.6692
M16
G05
T0
M30
