%TF.GenerationSoftware,KiCad,Pcbnew,(5.1.7-0-10_14)*%
%TF.CreationDate,2020-11-04T22:45:55+09:00*%
%TF.ProjectId,mini-esp32,6d696e69-2d65-4737-9033-322e6b696361,rev?*%
%TF.SameCoordinates,Original*%
%TF.FileFunction,Legend,Top*%
%TF.FilePolarity,Positive*%
%FSLAX46Y46*%
G04 Gerber Fmt 4.6, Leading zero omitted, Abs format (unit mm)*
G04 Created by KiCad (PCBNEW (5.1.7-0-10_14)) date 2020-11-04 22:45:55*
%MOMM*%
%LPD*%
G01*
G04 APERTURE LIST*
%ADD10C,0.150000*%
%ADD11C,0.100000*%
%ADD12C,0.120000*%
%ADD13C,0.254000*%
G04 APERTURE END LIST*
D10*
X129204761Y-69761904D02*
X129204761Y-70333333D01*
X129166666Y-70447619D01*
X129090476Y-70523809D01*
X128976190Y-70561904D01*
X128900000Y-70561904D01*
X129966666Y-70561904D02*
X129585714Y-70561904D01*
X129585714Y-69761904D01*
X130690476Y-70485714D02*
X130652380Y-70523809D01*
X130538095Y-70561904D01*
X130461904Y-70561904D01*
X130347619Y-70523809D01*
X130271428Y-70447619D01*
X130233333Y-70371428D01*
X130195238Y-70219047D01*
X130195238Y-70104761D01*
X130233333Y-69952380D01*
X130271428Y-69876190D01*
X130347619Y-69800000D01*
X130461904Y-69761904D01*
X130538095Y-69761904D01*
X130652380Y-69800000D01*
X130690476Y-69838095D01*
X131261904Y-69761904D02*
X131261904Y-70333333D01*
X131223809Y-70447619D01*
X131147619Y-70523809D01*
X131033333Y-70561904D01*
X130957142Y-70561904D01*
X132023809Y-70561904D02*
X131642857Y-70561904D01*
X131642857Y-69761904D01*
X132747619Y-70485714D02*
X132709523Y-70523809D01*
X132595238Y-70561904D01*
X132519047Y-70561904D01*
X132404761Y-70523809D01*
X132328571Y-70447619D01*
X132290476Y-70371428D01*
X132252380Y-70219047D01*
X132252380Y-70104761D01*
X132290476Y-69952380D01*
X132328571Y-69876190D01*
X132404761Y-69800000D01*
X132519047Y-69761904D01*
X132595238Y-69761904D01*
X132709523Y-69800000D01*
X132747619Y-69838095D01*
X133319047Y-69761904D02*
X133319047Y-70333333D01*
X133280952Y-70447619D01*
X133204761Y-70523809D01*
X133090476Y-70561904D01*
X133014285Y-70561904D01*
X134080952Y-70561904D02*
X133700000Y-70561904D01*
X133700000Y-69761904D01*
X134804761Y-70485714D02*
X134766666Y-70523809D01*
X134652380Y-70561904D01*
X134576190Y-70561904D01*
X134461904Y-70523809D01*
X134385714Y-70447619D01*
X134347619Y-70371428D01*
X134309523Y-70219047D01*
X134309523Y-70104761D01*
X134347619Y-69952380D01*
X134385714Y-69876190D01*
X134461904Y-69800000D01*
X134576190Y-69761904D01*
X134652380Y-69761904D01*
X134766666Y-69800000D01*
X134804761Y-69838095D01*
X135376190Y-69761904D02*
X135376190Y-70333333D01*
X135338095Y-70447619D01*
X135261904Y-70523809D01*
X135147619Y-70561904D01*
X135071428Y-70561904D01*
X136138095Y-70561904D02*
X135757142Y-70561904D01*
X135757142Y-69761904D01*
X136861904Y-70485714D02*
X136823809Y-70523809D01*
X136709523Y-70561904D01*
X136633333Y-70561904D01*
X136519047Y-70523809D01*
X136442857Y-70447619D01*
X136404761Y-70371428D01*
X136366666Y-70219047D01*
X136366666Y-70104761D01*
X136404761Y-69952380D01*
X136442857Y-69876190D01*
X136519047Y-69800000D01*
X136633333Y-69761904D01*
X136709523Y-69761904D01*
X136823809Y-69800000D01*
X136861904Y-69838095D01*
X132538095Y-94161904D02*
X132271428Y-93780952D01*
X132080952Y-94161904D02*
X132080952Y-93361904D01*
X132385714Y-93361904D01*
X132461904Y-93400000D01*
X132500000Y-93438095D01*
X132538095Y-93514285D01*
X132538095Y-93628571D01*
X132500000Y-93704761D01*
X132461904Y-93742857D01*
X132385714Y-93780952D01*
X132080952Y-93780952D01*
X132880952Y-93742857D02*
X133147619Y-93742857D01*
X133261904Y-94161904D02*
X132880952Y-94161904D01*
X132880952Y-93361904D01*
X133261904Y-93361904D01*
X133566666Y-94123809D02*
X133680952Y-94161904D01*
X133871428Y-94161904D01*
X133947619Y-94123809D01*
X133985714Y-94085714D01*
X134023809Y-94009523D01*
X134023809Y-93933333D01*
X133985714Y-93857142D01*
X133947619Y-93819047D01*
X133871428Y-93780952D01*
X133719047Y-93742857D01*
X133642857Y-93704761D01*
X133604761Y-93666666D01*
X133566666Y-93590476D01*
X133566666Y-93514285D01*
X133604761Y-93438095D01*
X133642857Y-93400000D01*
X133719047Y-93361904D01*
X133909523Y-93361904D01*
X134023809Y-93400000D01*
X134366666Y-93742857D02*
X134633333Y-93742857D01*
X134747619Y-94161904D02*
X134366666Y-94161904D01*
X134366666Y-93361904D01*
X134747619Y-93361904D01*
X134976190Y-93361904D02*
X135433333Y-93361904D01*
X135204761Y-94161904D02*
X135204761Y-93361904D01*
X122914285Y-103028571D02*
X122876190Y-102990476D01*
X122838095Y-102876190D01*
X122838095Y-102800000D01*
X122876190Y-102685714D01*
X122952380Y-102609523D01*
X123028571Y-102571428D01*
X123180952Y-102533333D01*
X123295238Y-102533333D01*
X123447619Y-102571428D01*
X123523809Y-102609523D01*
X123600000Y-102685714D01*
X123638095Y-102800000D01*
X123638095Y-102876190D01*
X123600000Y-102990476D01*
X123561904Y-103028571D01*
X122838095Y-103371428D02*
X123638095Y-103371428D01*
X123257142Y-103371428D02*
X123257142Y-103828571D01*
X122838095Y-103828571D02*
X123638095Y-103828571D01*
X123600000Y-104628571D02*
X123638095Y-104552380D01*
X123638095Y-104438095D01*
X123600000Y-104323809D01*
X123523809Y-104247619D01*
X123447619Y-104209523D01*
X123295238Y-104171428D01*
X123180952Y-104171428D01*
X123028571Y-104209523D01*
X122952380Y-104247619D01*
X122876190Y-104323809D01*
X122838095Y-104438095D01*
X122838095Y-104514285D01*
X122876190Y-104628571D01*
X122914285Y-104666666D01*
X123180952Y-104666666D01*
X123180952Y-104514285D01*
X123500000Y-94661904D02*
X123500000Y-93861904D01*
X124033333Y-93861904D02*
X124185714Y-93861904D01*
X124261904Y-93900000D01*
X124338095Y-93976190D01*
X124376190Y-94128571D01*
X124376190Y-94395238D01*
X124338095Y-94547619D01*
X124261904Y-94623809D01*
X124185714Y-94661904D01*
X124033333Y-94661904D01*
X123957142Y-94623809D01*
X123880952Y-94547619D01*
X123842857Y-94395238D01*
X123842857Y-94128571D01*
X123880952Y-93976190D01*
X123957142Y-93900000D01*
X124033333Y-93861904D01*
X124680952Y-93938095D02*
X124719047Y-93900000D01*
X124795238Y-93861904D01*
X124985714Y-93861904D01*
X125061904Y-93900000D01*
X125100000Y-93938095D01*
X125138095Y-94014285D01*
X125138095Y-94090476D01*
X125100000Y-94204761D01*
X124642857Y-94661904D01*
X125138095Y-94661904D01*
X144087904Y-69735619D02*
X144087904Y-69240380D01*
X144392666Y-69507047D01*
X144392666Y-69392761D01*
X144430761Y-69316571D01*
X144468857Y-69278476D01*
X144545047Y-69240380D01*
X144735523Y-69240380D01*
X144811714Y-69278476D01*
X144849809Y-69316571D01*
X144887904Y-69392761D01*
X144887904Y-69621333D01*
X144849809Y-69697523D01*
X144811714Y-69735619D01*
X144087904Y-68554666D02*
X144087904Y-68707047D01*
X144126000Y-68783238D01*
X144164095Y-68821333D01*
X144278380Y-68897523D01*
X144430761Y-68935619D01*
X144735523Y-68935619D01*
X144811714Y-68897523D01*
X144849809Y-68859428D01*
X144887904Y-68783238D01*
X144887904Y-68630857D01*
X144849809Y-68554666D01*
X144811714Y-68516571D01*
X144735523Y-68478476D01*
X144545047Y-68478476D01*
X144468857Y-68516571D01*
X144430761Y-68554666D01*
X144392666Y-68630857D01*
X144392666Y-68783238D01*
X144430761Y-68859428D01*
X144468857Y-68897523D01*
X144545047Y-68935619D01*
X144087904Y-72275619D02*
X144087904Y-71780380D01*
X144392666Y-72047047D01*
X144392666Y-71932761D01*
X144430761Y-71856571D01*
X144468857Y-71818476D01*
X144545047Y-71780380D01*
X144735523Y-71780380D01*
X144811714Y-71818476D01*
X144849809Y-71856571D01*
X144887904Y-71932761D01*
X144887904Y-72161333D01*
X144849809Y-72237523D01*
X144811714Y-72275619D01*
X144887904Y-71399428D02*
X144887904Y-71247047D01*
X144849809Y-71170857D01*
X144811714Y-71132761D01*
X144697428Y-71056571D01*
X144545047Y-71018476D01*
X144240285Y-71018476D01*
X144164095Y-71056571D01*
X144126000Y-71094666D01*
X144087904Y-71170857D01*
X144087904Y-71323238D01*
X144126000Y-71399428D01*
X144164095Y-71437523D01*
X144240285Y-71475619D01*
X144430761Y-71475619D01*
X144506952Y-71437523D01*
X144545047Y-71399428D01*
X144583142Y-71323238D01*
X144583142Y-71170857D01*
X144545047Y-71094666D01*
X144506952Y-71056571D01*
X144430761Y-71018476D01*
X144087904Y-74815619D02*
X144087904Y-74320380D01*
X144392666Y-74587047D01*
X144392666Y-74472761D01*
X144430761Y-74396571D01*
X144468857Y-74358476D01*
X144545047Y-74320380D01*
X144735523Y-74320380D01*
X144811714Y-74358476D01*
X144849809Y-74396571D01*
X144887904Y-74472761D01*
X144887904Y-74701333D01*
X144849809Y-74777523D01*
X144811714Y-74815619D01*
X144354571Y-73634666D02*
X144887904Y-73634666D01*
X144049809Y-73825142D02*
X144621238Y-74015619D01*
X144621238Y-73520380D01*
X144087904Y-77355619D02*
X144087904Y-76860380D01*
X144392666Y-77127047D01*
X144392666Y-77012761D01*
X144430761Y-76936571D01*
X144468857Y-76898476D01*
X144545047Y-76860380D01*
X144735523Y-76860380D01*
X144811714Y-76898476D01*
X144849809Y-76936571D01*
X144887904Y-77012761D01*
X144887904Y-77241333D01*
X144849809Y-77317523D01*
X144811714Y-77355619D01*
X144087904Y-76136571D02*
X144087904Y-76517523D01*
X144468857Y-76555619D01*
X144430761Y-76517523D01*
X144392666Y-76441333D01*
X144392666Y-76250857D01*
X144430761Y-76174666D01*
X144468857Y-76136571D01*
X144545047Y-76098476D01*
X144735523Y-76098476D01*
X144811714Y-76136571D01*
X144849809Y-76174666D01*
X144887904Y-76250857D01*
X144887904Y-76441333D01*
X144849809Y-76517523D01*
X144811714Y-76555619D01*
X144887904Y-79400380D02*
X144887904Y-79857523D01*
X144887904Y-79628952D02*
X144087904Y-79628952D01*
X144202190Y-79705142D01*
X144278380Y-79781333D01*
X144316476Y-79857523D01*
X144087904Y-78676571D02*
X144087904Y-79057523D01*
X144468857Y-79095619D01*
X144430761Y-79057523D01*
X144392666Y-78981333D01*
X144392666Y-78790857D01*
X144430761Y-78714666D01*
X144468857Y-78676571D01*
X144545047Y-78638476D01*
X144735523Y-78638476D01*
X144811714Y-78676571D01*
X144849809Y-78714666D01*
X144887904Y-78790857D01*
X144887904Y-78981333D01*
X144849809Y-79057523D01*
X144811714Y-79095619D01*
X144087904Y-84366095D02*
X144087904Y-84289904D01*
X144126000Y-84213714D01*
X144164095Y-84175619D01*
X144240285Y-84137523D01*
X144392666Y-84099428D01*
X144583142Y-84099428D01*
X144735523Y-84137523D01*
X144811714Y-84175619D01*
X144849809Y-84213714D01*
X144887904Y-84289904D01*
X144887904Y-84366095D01*
X144849809Y-84442285D01*
X144811714Y-84480380D01*
X144735523Y-84518476D01*
X144583142Y-84556571D01*
X144392666Y-84556571D01*
X144240285Y-84518476D01*
X144164095Y-84480380D01*
X144126000Y-84442285D01*
X144087904Y-84366095D01*
X144887904Y-87020380D02*
X144887904Y-87477523D01*
X144887904Y-87248952D02*
X144087904Y-87248952D01*
X144202190Y-87325142D01*
X144278380Y-87401333D01*
X144316476Y-87477523D01*
X144430761Y-86563238D02*
X144392666Y-86639428D01*
X144354571Y-86677523D01*
X144278380Y-86715619D01*
X144240285Y-86715619D01*
X144164095Y-86677523D01*
X144126000Y-86639428D01*
X144087904Y-86563238D01*
X144087904Y-86410857D01*
X144126000Y-86334666D01*
X144164095Y-86296571D01*
X144240285Y-86258476D01*
X144278380Y-86258476D01*
X144354571Y-86296571D01*
X144392666Y-86334666D01*
X144430761Y-86410857D01*
X144430761Y-86563238D01*
X144468857Y-86639428D01*
X144506952Y-86677523D01*
X144583142Y-86715619D01*
X144735523Y-86715619D01*
X144811714Y-86677523D01*
X144849809Y-86639428D01*
X144887904Y-86563238D01*
X144887904Y-86410857D01*
X144849809Y-86334666D01*
X144811714Y-86296571D01*
X144735523Y-86258476D01*
X144583142Y-86258476D01*
X144506952Y-86296571D01*
X144468857Y-86334666D01*
X144430761Y-86410857D01*
X144164095Y-90017523D02*
X144126000Y-89979428D01*
X144087904Y-89903238D01*
X144087904Y-89712761D01*
X144126000Y-89636571D01*
X144164095Y-89598476D01*
X144240285Y-89560380D01*
X144316476Y-89560380D01*
X144430761Y-89598476D01*
X144887904Y-90055619D01*
X144887904Y-89560380D01*
X144087904Y-89293714D02*
X144087904Y-88798476D01*
X144392666Y-89065142D01*
X144392666Y-88950857D01*
X144430761Y-88874666D01*
X144468857Y-88836571D01*
X144545047Y-88798476D01*
X144735523Y-88798476D01*
X144811714Y-88836571D01*
X144849809Y-88874666D01*
X144887904Y-88950857D01*
X144887904Y-89179428D01*
X144849809Y-89255619D01*
X144811714Y-89293714D01*
X144887904Y-92100380D02*
X144887904Y-92557523D01*
X144887904Y-92328952D02*
X144087904Y-92328952D01*
X144202190Y-92405142D01*
X144278380Y-92481333D01*
X144316476Y-92557523D01*
X144887904Y-91719428D02*
X144887904Y-91567047D01*
X144849809Y-91490857D01*
X144811714Y-91452761D01*
X144697428Y-91376571D01*
X144545047Y-91338476D01*
X144240285Y-91338476D01*
X144164095Y-91376571D01*
X144126000Y-91414666D01*
X144087904Y-91490857D01*
X144087904Y-91643238D01*
X144126000Y-91719428D01*
X144164095Y-91757523D01*
X144240285Y-91795619D01*
X144430761Y-91795619D01*
X144506952Y-91757523D01*
X144545047Y-91719428D01*
X144583142Y-91643238D01*
X144583142Y-91490857D01*
X144545047Y-91414666D01*
X144506952Y-91376571D01*
X144430761Y-91338476D01*
X144164095Y-95097523D02*
X144126000Y-95059428D01*
X144087904Y-94983238D01*
X144087904Y-94792761D01*
X144126000Y-94716571D01*
X144164095Y-94678476D01*
X144240285Y-94640380D01*
X144316476Y-94640380D01*
X144430761Y-94678476D01*
X144887904Y-95135619D01*
X144887904Y-94640380D01*
X144887904Y-93878476D02*
X144887904Y-94335619D01*
X144887904Y-94107047D02*
X144087904Y-94107047D01*
X144202190Y-94183238D01*
X144278380Y-94259428D01*
X144316476Y-94335619D01*
X144164095Y-97637523D02*
X144126000Y-97599428D01*
X144087904Y-97523238D01*
X144087904Y-97332761D01*
X144126000Y-97256571D01*
X144164095Y-97218476D01*
X144240285Y-97180380D01*
X144316476Y-97180380D01*
X144430761Y-97218476D01*
X144887904Y-97675619D01*
X144887904Y-97180380D01*
X144164095Y-96875619D02*
X144126000Y-96837523D01*
X144087904Y-96761333D01*
X144087904Y-96570857D01*
X144126000Y-96494666D01*
X144164095Y-96456571D01*
X144240285Y-96418476D01*
X144316476Y-96418476D01*
X144430761Y-96456571D01*
X144887904Y-96913714D01*
X144887904Y-96418476D01*
X144887904Y-99720380D02*
X144887904Y-100177523D01*
X144887904Y-99948952D02*
X144087904Y-99948952D01*
X144202190Y-100025142D01*
X144278380Y-100101333D01*
X144316476Y-100177523D01*
X144354571Y-99034666D02*
X144887904Y-99034666D01*
X144049809Y-99225142D02*
X144621238Y-99415619D01*
X144621238Y-98920380D01*
X144887904Y-102260380D02*
X144887904Y-102717523D01*
X144887904Y-102488952D02*
X144087904Y-102488952D01*
X144202190Y-102565142D01*
X144278380Y-102641333D01*
X144316476Y-102717523D01*
X144164095Y-101955619D02*
X144126000Y-101917523D01*
X144087904Y-101841333D01*
X144087904Y-101650857D01*
X144126000Y-101574666D01*
X144164095Y-101536571D01*
X144240285Y-101498476D01*
X144316476Y-101498476D01*
X144430761Y-101536571D01*
X144887904Y-101993714D01*
X144887904Y-101498476D01*
X144354571Y-104495619D02*
X144887904Y-104495619D01*
X144049809Y-104686095D02*
X144621238Y-104876571D01*
X144621238Y-104381333D01*
X144887904Y-107340380D02*
X144887904Y-107797523D01*
X144887904Y-107568952D02*
X144087904Y-107568952D01*
X144202190Y-107645142D01*
X144278380Y-107721333D01*
X144316476Y-107797523D01*
X144087904Y-106654666D02*
X144087904Y-106807047D01*
X144126000Y-106883238D01*
X144164095Y-106921333D01*
X144278380Y-106997523D01*
X144430761Y-107035619D01*
X144735523Y-107035619D01*
X144811714Y-106997523D01*
X144849809Y-106959428D01*
X144887904Y-106883238D01*
X144887904Y-106730857D01*
X144849809Y-106654666D01*
X144811714Y-106616571D01*
X144735523Y-106578476D01*
X144545047Y-106578476D01*
X144468857Y-106616571D01*
X144430761Y-106654666D01*
X144392666Y-106730857D01*
X144392666Y-106883238D01*
X144430761Y-106959428D01*
X144468857Y-106997523D01*
X144545047Y-107035619D01*
X144887904Y-109880380D02*
X144887904Y-110337523D01*
X144887904Y-110108952D02*
X144087904Y-110108952D01*
X144202190Y-110185142D01*
X144278380Y-110261333D01*
X144316476Y-110337523D01*
X144087904Y-109613714D02*
X144087904Y-109080380D01*
X144887904Y-109423238D01*
X144887904Y-112706095D02*
X144506952Y-112972761D01*
X144887904Y-113163238D02*
X144087904Y-113163238D01*
X144087904Y-112858476D01*
X144126000Y-112782285D01*
X144164095Y-112744190D01*
X144240285Y-112706095D01*
X144354571Y-112706095D01*
X144430761Y-112744190D01*
X144468857Y-112782285D01*
X144506952Y-112858476D01*
X144506952Y-113163238D01*
X144849809Y-112401333D02*
X144887904Y-112287047D01*
X144887904Y-112096571D01*
X144849809Y-112020380D01*
X144811714Y-111982285D01*
X144735523Y-111944190D01*
X144659333Y-111944190D01*
X144583142Y-111982285D01*
X144545047Y-112020380D01*
X144506952Y-112096571D01*
X144468857Y-112248952D01*
X144430761Y-112325142D01*
X144392666Y-112363238D01*
X144316476Y-112401333D01*
X144240285Y-112401333D01*
X144164095Y-112363238D01*
X144126000Y-112325142D01*
X144087904Y-112248952D01*
X144087904Y-112058476D01*
X144126000Y-111944190D01*
X144087904Y-111715619D02*
X144087904Y-111258476D01*
X144887904Y-111487047D02*
X144087904Y-111487047D01*
X123338095Y-112115619D02*
X123338095Y-111734666D01*
X122957142Y-111696571D01*
X122995238Y-111734666D01*
X123033333Y-111810857D01*
X123033333Y-112001333D01*
X122995238Y-112077523D01*
X122957142Y-112115619D01*
X122880952Y-112153714D01*
X122690476Y-112153714D01*
X122614285Y-112115619D01*
X122576190Y-112077523D01*
X122538095Y-112001333D01*
X122538095Y-111810857D01*
X122576190Y-111734666D01*
X122614285Y-111696571D01*
X123338095Y-112382285D02*
X122538095Y-112648952D01*
X123338095Y-112915619D01*
X123338095Y-108737523D02*
X123338095Y-109232761D01*
X123033333Y-108966095D01*
X123033333Y-109080380D01*
X122995238Y-109156571D01*
X122957142Y-109194666D01*
X122880952Y-109232761D01*
X122690476Y-109232761D01*
X122614285Y-109194666D01*
X122576190Y-109156571D01*
X122538095Y-109080380D01*
X122538095Y-108851809D01*
X122576190Y-108775619D01*
X122614285Y-108737523D01*
X123338095Y-109461333D02*
X122538095Y-109728000D01*
X123338095Y-109994666D01*
X123338095Y-110185142D02*
X123338095Y-110680380D01*
X123033333Y-110413714D01*
X123033333Y-110528000D01*
X122995238Y-110604190D01*
X122957142Y-110642285D01*
X122880952Y-110680380D01*
X122690476Y-110680380D01*
X122614285Y-110642285D01*
X122576190Y-110604190D01*
X122538095Y-110528000D01*
X122538095Y-110299428D01*
X122576190Y-110223238D01*
X122614285Y-110185142D01*
X129500000Y-101361523D02*
X129461904Y-101437714D01*
X129461904Y-101552000D01*
X129500000Y-101666285D01*
X129576190Y-101742476D01*
X129652380Y-101780571D01*
X129804761Y-101818666D01*
X129919047Y-101818666D01*
X130071428Y-101780571D01*
X130147619Y-101742476D01*
X130223809Y-101666285D01*
X130261904Y-101552000D01*
X130261904Y-101475809D01*
X130223809Y-101361523D01*
X130185714Y-101323428D01*
X129919047Y-101323428D01*
X129919047Y-101475809D01*
X130261904Y-100980571D02*
X129461904Y-100980571D01*
X130261904Y-100523428D01*
X129461904Y-100523428D01*
X130261904Y-100142476D02*
X129461904Y-100142476D01*
X129461904Y-99952000D01*
X129500000Y-99837714D01*
X129576190Y-99761523D01*
X129652380Y-99723428D01*
X129804761Y-99685333D01*
X129919047Y-99685333D01*
X130071428Y-99723428D01*
X130147619Y-99761523D01*
X130223809Y-99837714D01*
X130261904Y-99952000D01*
X130261904Y-100142476D01*
X129842857Y-103882476D02*
X129880952Y-103768190D01*
X129919047Y-103730095D01*
X129995238Y-103692000D01*
X130109523Y-103692000D01*
X130185714Y-103730095D01*
X130223809Y-103768190D01*
X130261904Y-103844380D01*
X130261904Y-104149142D01*
X129461904Y-104149142D01*
X129461904Y-103882476D01*
X129500000Y-103806285D01*
X129538095Y-103768190D01*
X129614285Y-103730095D01*
X129690476Y-103730095D01*
X129766666Y-103768190D01*
X129804761Y-103806285D01*
X129842857Y-103882476D01*
X129842857Y-104149142D01*
X130033333Y-103387238D02*
X130033333Y-103006285D01*
X130261904Y-103463428D02*
X129461904Y-103196761D01*
X130261904Y-102930095D01*
X129461904Y-102777714D02*
X129461904Y-102320571D01*
X130261904Y-102549142D02*
X129461904Y-102549142D01*
X129842857Y-106422476D02*
X129842857Y-106155809D01*
X130261904Y-106041523D02*
X130261904Y-106422476D01*
X129461904Y-106422476D01*
X129461904Y-106041523D01*
X130261904Y-105698666D02*
X129461904Y-105698666D01*
X130261904Y-105241523D01*
X129461904Y-105241523D01*
X123261904Y-91719428D02*
X123300000Y-91757523D01*
X123338095Y-91833714D01*
X123338095Y-92024190D01*
X123300000Y-92100380D01*
X123261904Y-92138476D01*
X123185714Y-92176571D01*
X123109523Y-92176571D01*
X122995238Y-92138476D01*
X122538095Y-91681333D01*
X122538095Y-92176571D01*
X123338095Y-89598476D02*
X123338095Y-89217523D01*
X122957142Y-89179428D01*
X122995238Y-89217523D01*
X123033333Y-89293714D01*
X123033333Y-89484190D01*
X122995238Y-89560380D01*
X122957142Y-89598476D01*
X122880952Y-89636571D01*
X122690476Y-89636571D01*
X122614285Y-89598476D01*
X122576190Y-89560380D01*
X122538095Y-89484190D01*
X122538095Y-89293714D01*
X122576190Y-89217523D01*
X122614285Y-89179428D01*
X122538095Y-86588619D02*
X122538095Y-86131476D01*
X122538095Y-86360047D02*
X123338095Y-86360047D01*
X123223809Y-86283857D01*
X123147619Y-86207666D01*
X123109523Y-86131476D01*
X123338095Y-86855285D02*
X123338095Y-87350523D01*
X123033333Y-87083857D01*
X123033333Y-87198142D01*
X122995238Y-87274333D01*
X122957142Y-87312428D01*
X122880952Y-87350523D01*
X122690476Y-87350523D01*
X122614285Y-87312428D01*
X122576190Y-87274333D01*
X122538095Y-87198142D01*
X122538095Y-86969571D01*
X122576190Y-86893380D01*
X122614285Y-86855285D01*
X123338095Y-84061380D02*
X123338095Y-84556619D01*
X123033333Y-84289952D01*
X123033333Y-84404238D01*
X122995238Y-84480428D01*
X122957142Y-84518523D01*
X122880952Y-84556619D01*
X122690476Y-84556619D01*
X122614285Y-84518523D01*
X122576190Y-84480428D01*
X122538095Y-84404238D01*
X122538095Y-84175666D01*
X122576190Y-84099476D01*
X122614285Y-84061380D01*
X123338095Y-84823285D02*
X123338095Y-85318523D01*
X123033333Y-85051857D01*
X123033333Y-85166142D01*
X122995238Y-85242333D01*
X122957142Y-85280428D01*
X122880952Y-85318523D01*
X122690476Y-85318523D01*
X122614285Y-85280428D01*
X122576190Y-85242333D01*
X122538095Y-85166142D01*
X122538095Y-84937571D01*
X122576190Y-84861380D01*
X122614285Y-84823285D01*
X123338095Y-81140380D02*
X123338095Y-81635619D01*
X123033333Y-81368952D01*
X123033333Y-81483238D01*
X122995238Y-81559428D01*
X122957142Y-81597523D01*
X122880952Y-81635619D01*
X122690476Y-81635619D01*
X122614285Y-81597523D01*
X122576190Y-81559428D01*
X122538095Y-81483238D01*
X122538095Y-81254666D01*
X122576190Y-81178476D01*
X122614285Y-81140380D01*
X123261904Y-81940380D02*
X123300000Y-81978476D01*
X123338095Y-82054666D01*
X123338095Y-82245142D01*
X123300000Y-82321333D01*
X123261904Y-82359428D01*
X123185714Y-82397523D01*
X123109523Y-82397523D01*
X122995238Y-82359428D01*
X122538095Y-81902285D01*
X122538095Y-82397523D01*
X123261904Y-78638476D02*
X123300000Y-78676571D01*
X123338095Y-78752761D01*
X123338095Y-78943238D01*
X123300000Y-79019428D01*
X123261904Y-79057523D01*
X123185714Y-79095619D01*
X123109523Y-79095619D01*
X122995238Y-79057523D01*
X122538095Y-78600380D01*
X122538095Y-79095619D01*
X123338095Y-79362285D02*
X123338095Y-79895619D01*
X122538095Y-79552761D01*
X123261904Y-76090476D02*
X123300000Y-76128571D01*
X123338095Y-76204761D01*
X123338095Y-76395238D01*
X123300000Y-76471428D01*
X123261904Y-76509523D01*
X123185714Y-76547619D01*
X123109523Y-76547619D01*
X122995238Y-76509523D01*
X122538095Y-76052380D01*
X122538095Y-76547619D01*
X123338095Y-77233333D02*
X123338095Y-77080952D01*
X123300000Y-77004761D01*
X123261904Y-76966666D01*
X123147619Y-76890476D01*
X122995238Y-76852380D01*
X122690476Y-76852380D01*
X122614285Y-76890476D01*
X122576190Y-76928571D01*
X122538095Y-77004761D01*
X122538095Y-77157142D01*
X122576190Y-77233333D01*
X122614285Y-77271428D01*
X122690476Y-77309523D01*
X122880952Y-77309523D01*
X122957142Y-77271428D01*
X122995238Y-77233333D01*
X123033333Y-77157142D01*
X123033333Y-77004761D01*
X122995238Y-76928571D01*
X122957142Y-76890476D01*
X122880952Y-76852380D01*
X123261904Y-73558476D02*
X123300000Y-73596571D01*
X123338095Y-73672761D01*
X123338095Y-73863238D01*
X123300000Y-73939428D01*
X123261904Y-73977523D01*
X123185714Y-74015619D01*
X123109523Y-74015619D01*
X122995238Y-73977523D01*
X122538095Y-73520380D01*
X122538095Y-74015619D01*
X123338095Y-74739428D02*
X123338095Y-74358476D01*
X122957142Y-74320380D01*
X122995238Y-74358476D01*
X123033333Y-74434666D01*
X123033333Y-74625142D01*
X122995238Y-74701333D01*
X122957142Y-74739428D01*
X122880952Y-74777523D01*
X122690476Y-74777523D01*
X122614285Y-74739428D01*
X122576190Y-74701333D01*
X122538095Y-74625142D01*
X122538095Y-74434666D01*
X122576190Y-74358476D01*
X122614285Y-74320380D01*
X123338095Y-70590476D02*
X123338095Y-71047619D01*
X122538095Y-70819047D02*
X123338095Y-70819047D01*
X123338095Y-71238095D02*
X122538095Y-71771428D01*
X123338095Y-71771428D02*
X122538095Y-71238095D01*
X122538095Y-72076190D02*
X123338095Y-72076190D01*
X123338095Y-72266666D01*
X123300000Y-72380952D01*
X123223809Y-72457142D01*
X123147619Y-72495238D01*
X122995238Y-72533333D01*
X122880952Y-72533333D01*
X122728571Y-72495238D01*
X122652380Y-72457142D01*
X122576190Y-72380952D01*
X122538095Y-72266666D01*
X122538095Y-72076190D01*
X122538095Y-68554666D02*
X122919047Y-68288000D01*
X122538095Y-68097523D02*
X123338095Y-68097523D01*
X123338095Y-68402285D01*
X123300000Y-68478476D01*
X123261904Y-68516571D01*
X123185714Y-68554666D01*
X123071428Y-68554666D01*
X122995238Y-68516571D01*
X122957142Y-68478476D01*
X122919047Y-68402285D01*
X122919047Y-68097523D01*
X123338095Y-68821333D02*
X122538095Y-69354666D01*
X123338095Y-69354666D02*
X122538095Y-68821333D01*
X122538095Y-69659428D02*
X123338095Y-69659428D01*
X123338095Y-69849904D01*
X123300000Y-69964190D01*
X123223809Y-70040380D01*
X123147619Y-70078476D01*
X122995238Y-70116571D01*
X122880952Y-70116571D01*
X122728571Y-70078476D01*
X122652380Y-70040380D01*
X122576190Y-69964190D01*
X122538095Y-69849904D01*
X122538095Y-69659428D01*
D11*
G36*
X148336000Y-119634000D02*
G01*
X143510000Y-119634000D01*
X143510000Y-114808000D01*
X148336000Y-114808000D01*
X148336000Y-119634000D01*
G37*
X148336000Y-119634000D02*
X143510000Y-119634000D01*
X143510000Y-114808000D01*
X148336000Y-114808000D01*
X148336000Y-119634000D01*
D12*
%TO.C,U1*%
X124580000Y-86600000D02*
X124580000Y-87380000D01*
X124580000Y-87380000D02*
X125580000Y-87380000D01*
X142820000Y-86600000D02*
X142820000Y-87380000D01*
X142820000Y-87380000D02*
X141820000Y-87380000D01*
X124580000Y-61635000D02*
X142820000Y-61635000D01*
X142820000Y-61635000D02*
X142820000Y-68055000D01*
X124580000Y-61635000D02*
X124580000Y-68055000D01*
X124580000Y-68055000D02*
X124200000Y-68055000D01*
D13*
%TO.C,J2*%
X134005000Y-119448000D02*
X134005000Y-120254000D01*
X134005000Y-114514000D02*
X134005000Y-116959000D01*
X142005000Y-119448000D02*
X142005000Y-120274000D01*
X142005000Y-114524000D02*
X142005000Y-116959000D01*
X139751000Y-114514000D02*
X142005000Y-114514000D01*
X134005000Y-114514000D02*
X136238000Y-114514000D01*
X142005000Y-120274000D02*
X134005000Y-120274000D01*
X141395000Y-119564000D02*
X134625000Y-119564000D01*
X141985000Y-120154000D02*
X141395000Y-119564000D01*
X141985000Y-120274000D02*
X141985000Y-120154000D01*
X134035000Y-120154000D02*
X134625000Y-119564000D01*
X134035000Y-120254000D02*
X134035000Y-120154000D01*
D12*
%TO.C,C1*%
X126659420Y-100710000D02*
X126940580Y-100710000D01*
X126659420Y-99690000D02*
X126940580Y-99690000D01*
%TO.C,C2*%
X125660000Y-94522164D02*
X125660000Y-94737836D01*
X124940000Y-94522164D02*
X124940000Y-94737836D01*
%TO.C,C3*%
X130492164Y-91860000D02*
X130707836Y-91860000D01*
X130492164Y-91140000D02*
X130707836Y-91140000D01*
%TO.C,C4*%
X126011252Y-89735000D02*
X125488748Y-89735000D01*
X126011252Y-88265000D02*
X125488748Y-88265000D01*
%TO.C,C5*%
X125540580Y-109910000D02*
X125259420Y-109910000D01*
X125540580Y-108890000D02*
X125259420Y-108890000D01*
%TO.C,C6*%
X123860000Y-88892164D02*
X123860000Y-89107836D01*
X123140000Y-88892164D02*
X123140000Y-89107836D01*
%TO.C,C7*%
X138537836Y-93366000D02*
X138322164Y-93366000D01*
X138537836Y-94086000D02*
X138322164Y-94086000D01*
%TO.C,C8*%
X136505836Y-94086000D02*
X136290164Y-94086000D01*
X136505836Y-93366000D02*
X136290164Y-93366000D01*
%TO.C,C9*%
X136127836Y-108960000D02*
X135912164Y-108960000D01*
X136127836Y-108240000D02*
X135912164Y-108240000D01*
%TO.C,C10*%
X136127836Y-109190000D02*
X135912164Y-109190000D01*
X136127836Y-109910000D02*
X135912164Y-109910000D01*
%TO.C,D1*%
X133200000Y-103950000D02*
X131200000Y-103950000D01*
X131200000Y-103950000D02*
X131200000Y-107850000D01*
X133200000Y-103950000D02*
X133200000Y-107850000D01*
%TO.C,D2*%
X125335000Y-104947500D02*
X125335000Y-102662500D01*
X123865000Y-104947500D02*
X125335000Y-104947500D01*
X123865000Y-102662500D02*
X123865000Y-104947500D01*
%TO.C,D3*%
X122975000Y-93699000D02*
X125260000Y-93699000D01*
X122975000Y-92229000D02*
X122975000Y-93699000D01*
X125260000Y-92229000D02*
X122975000Y-92229000D01*
%TO.C,FB1*%
X134700378Y-111840000D02*
X135499622Y-111840000D01*
X134700378Y-112960000D02*
X135499622Y-112960000D01*
%TO.C,J1*%
X124515000Y-119360000D02*
X124515000Y-118510000D01*
X132685000Y-119360000D02*
X124515000Y-119360000D01*
X132685000Y-118510000D02*
X132685000Y-119360000D01*
X124515000Y-114140000D02*
X126840000Y-114140000D01*
X124515000Y-114990000D02*
X124515000Y-114140000D01*
X130360000Y-114140000D02*
X130360000Y-111750000D01*
X132685000Y-114140000D02*
X130360000Y-114140000D01*
X132685000Y-114990000D02*
X132685000Y-114140000D01*
%TO.C,Q1*%
X131220000Y-102760000D02*
X132150000Y-102760000D01*
X134380000Y-102760000D02*
X133450000Y-102760000D01*
X134380000Y-102760000D02*
X134380000Y-100600000D01*
X131220000Y-102760000D02*
X131220000Y-101300000D01*
%TO.C,Q4*%
X136880000Y-89615000D02*
X136880000Y-91075000D01*
X133720000Y-89615000D02*
X133720000Y-91775000D01*
X133720000Y-89615000D02*
X134650000Y-89615000D01*
X136880000Y-89615000D02*
X135950000Y-89615000D01*
%TO.C,R1*%
X135846359Y-111280000D02*
X136153641Y-111280000D01*
X135846359Y-110520000D02*
X136153641Y-110520000D01*
%TO.C,R2*%
X131472936Y-110910000D02*
X132927064Y-110910000D01*
X131472936Y-109090000D02*
X132927064Y-109090000D01*
%TO.C,R3*%
X124646359Y-95820000D02*
X124953641Y-95820000D01*
X124646359Y-96580000D02*
X124953641Y-96580000D01*
%TO.C,R4*%
X124077500Y-106837258D02*
X124077500Y-106362742D01*
X125122500Y-106837258D02*
X125122500Y-106362742D01*
%TO.C,R5*%
X123880000Y-100453641D02*
X123880000Y-100146359D01*
X123120000Y-100453641D02*
X123120000Y-100146359D01*
%TO.C,R6*%
X124120000Y-100146359D02*
X124120000Y-100453641D01*
X124880000Y-100146359D02*
X124880000Y-100453641D01*
%TO.C,R7*%
X140676359Y-92320000D02*
X140983641Y-92320000D01*
X140676359Y-93080000D02*
X140983641Y-93080000D01*
%TO.C,R8*%
X142899641Y-93090000D02*
X142592359Y-93090000D01*
X142899641Y-92330000D02*
X142592359Y-92330000D01*
%TO.C,R9*%
X129553641Y-100220000D02*
X129246359Y-100220000D01*
X129553641Y-100980000D02*
X129246359Y-100980000D01*
%TO.C,R10*%
X140615641Y-93346000D02*
X140308359Y-93346000D01*
X140615641Y-94106000D02*
X140308359Y-94106000D01*
%TO.C,R11*%
X124222742Y-90663500D02*
X124697258Y-90663500D01*
X124222742Y-91708500D02*
X124697258Y-91708500D01*
%TO.C,R12*%
X136880000Y-102053641D02*
X136880000Y-101746359D01*
X136120000Y-102053641D02*
X136120000Y-101746359D01*
%TO.C,R13*%
X135880000Y-101746359D02*
X135880000Y-102053641D01*
X135120000Y-101746359D02*
X135120000Y-102053641D01*
%TO.C,R14*%
X134561359Y-92295000D02*
X134868641Y-92295000D01*
X134561359Y-93055000D02*
X134868641Y-93055000D01*
%TO.C,SW1*%
X138860000Y-94982000D02*
X138410000Y-94532000D01*
X135460000Y-94982000D02*
X135910000Y-94532000D01*
X135460000Y-99582000D02*
X135910000Y-100032000D01*
X138860000Y-99582000D02*
X138410000Y-100032000D01*
X134410000Y-98282000D02*
X134410000Y-96282000D01*
X138410000Y-94532000D02*
X135910000Y-94532000D01*
X139910000Y-98282000D02*
X139910000Y-96282000D01*
X138410000Y-100032000D02*
X135910000Y-100032000D01*
%TO.C,U2*%
X128320000Y-95760000D02*
X130080000Y-95760000D01*
X130080000Y-92690000D02*
X127650000Y-92690000D01*
%TO.C,U3*%
X130760000Y-104800000D02*
X130760000Y-101350000D01*
X130760000Y-104800000D02*
X130760000Y-106750000D01*
X125640000Y-104800000D02*
X125640000Y-102850000D01*
X125640000Y-104800000D02*
X125640000Y-106750000D01*
%TO.C,U4*%
X140700000Y-110760000D02*
X142650000Y-110760000D01*
X140700000Y-110760000D02*
X138750000Y-110760000D01*
X140700000Y-100640000D02*
X142650000Y-100640000D01*
X140700000Y-100640000D02*
X137250000Y-100640000D01*
%TO.C,Y1*%
X133550000Y-108000000D02*
X136850000Y-108000000D01*
X136850000Y-108000000D02*
X136850000Y-104000000D01*
%TO.C,Q2*%
X140505001Y-89640000D02*
X139575001Y-89640000D01*
X137345001Y-89640000D02*
X138275001Y-89640000D01*
X137345001Y-89640000D02*
X137345001Y-91800000D01*
X140505001Y-89640000D02*
X140505001Y-91100000D01*
%TO.C,Q3*%
X144130000Y-89640000D02*
X144130000Y-91100000D01*
X140970000Y-89640000D02*
X140970000Y-91800000D01*
X140970000Y-89640000D02*
X141900000Y-89640000D01*
X144130000Y-89640000D02*
X143200000Y-89640000D01*
%TO.C,J5*%
X119670000Y-70330000D02*
X122330000Y-70330000D01*
X119670000Y-70330000D02*
X119670000Y-113570000D01*
X119670000Y-113570000D02*
X122330000Y-113570000D01*
X122330000Y-70330000D02*
X122330000Y-113570000D01*
X122330000Y-67730000D02*
X122330000Y-69060000D01*
X121000000Y-67730000D02*
X122330000Y-67730000D01*
%TO.C,J6*%
X146400000Y-67730000D02*
X147730000Y-67730000D01*
X147730000Y-67730000D02*
X147730000Y-69060000D01*
X147730000Y-70330000D02*
X147730000Y-113570000D01*
X145070000Y-113570000D02*
X147730000Y-113570000D01*
X145070000Y-70330000D02*
X145070000Y-113570000D01*
X145070000Y-70330000D02*
X147730000Y-70330000D01*
%TO.C,J2*%
D10*
X137666666Y-117352380D02*
X137666666Y-118066666D01*
X137619047Y-118209523D01*
X137523809Y-118304761D01*
X137380952Y-118352380D01*
X137285714Y-118352380D01*
X138095238Y-117447619D02*
X138142857Y-117400000D01*
X138238095Y-117352380D01*
X138476190Y-117352380D01*
X138571428Y-117400000D01*
X138619047Y-117447619D01*
X138666666Y-117542857D01*
X138666666Y-117638095D01*
X138619047Y-117780952D01*
X138047619Y-118352380D01*
X138666666Y-118352380D01*
%TO.C,J1*%
X128266666Y-119902380D02*
X128266666Y-120616666D01*
X128219047Y-120759523D01*
X128123809Y-120854761D01*
X127980952Y-120902380D01*
X127885714Y-120902380D01*
X129266666Y-120902380D02*
X128695238Y-120902380D01*
X128980952Y-120902380D02*
X128980952Y-119902380D01*
X128885714Y-120045238D01*
X128790476Y-120140476D01*
X128695238Y-120188095D01*
%TO.C,U2*%
X128438095Y-91202380D02*
X128438095Y-92011904D01*
X128485714Y-92107142D01*
X128533333Y-92154761D01*
X128628571Y-92202380D01*
X128819047Y-92202380D01*
X128914285Y-92154761D01*
X128961904Y-92107142D01*
X129009523Y-92011904D01*
X129009523Y-91202380D01*
X129438095Y-91297619D02*
X129485714Y-91250000D01*
X129580952Y-91202380D01*
X129819047Y-91202380D01*
X129914285Y-91250000D01*
X129961904Y-91297619D01*
X130009523Y-91392857D01*
X130009523Y-91488095D01*
X129961904Y-91630952D01*
X129390476Y-92202380D01*
X130009523Y-92202380D01*
%TO.C,U4*%
X139938095Y-99252380D02*
X139938095Y-100061904D01*
X139985714Y-100157142D01*
X140033333Y-100204761D01*
X140128571Y-100252380D01*
X140319047Y-100252380D01*
X140414285Y-100204761D01*
X140461904Y-100157142D01*
X140509523Y-100061904D01*
X140509523Y-99252380D01*
X141414285Y-99585714D02*
X141414285Y-100252380D01*
X141176190Y-99204761D02*
X140938095Y-99919047D01*
X141557142Y-99919047D01*
%TD*%
M02*
