M48
; DRILL file {KiCad (5.1.7-0-10_14)} date Wednesday, November 04, 2020 at 10:45:57 PM
; FORMAT={-:-/ absolute / inch / decimal}
; #@! TF.CreationDate,2020-11-04T22:45:57+09:00
; #@! TF.GenerationSoftware,Kicad,Pcbnew,(5.1.7-0-10_14)
; #@! TF.FileFunction,Plated,1,4,PTH
FMAT,2
INCH
T1C0.0157
T2C0.0276
T3C0.0394
%
G90
G05
T1
X4.8386Y-3.5925
X4.8622Y-3.4606
X4.878Y-2.7815
X4.8819Y-2.7047
X4.8891Y-3.5152
X4.8937Y-3.685
X4.9016Y-3.9921
X4.9094Y-3.4606
X4.9098Y-3.5979
X4.9173Y-4.2835
X4.9409Y-3.5157
X4.9433Y-3.4388
X4.9567Y-3.4724
X4.9567Y-3.7559
X4.9665Y-2.7848
X4.9764Y-2.7047
X4.9764Y-3.0748
X4.9764Y-3.126
X4.9803Y-3.5827
X5.0Y-3.878
X5.002Y-2.7677
X5.0075Y-3.0262
X5.0079Y-4.3976
X5.0236Y-4.0669
X5.0315Y-2.7244
X5.0315Y-2.9252
X5.0335Y-3.5472
X5.0354Y-3.1693
X5.0394Y-4.3976
X5.0433Y-3.9173
X5.063Y-3.2323
X5.063Y-3.622
X5.0709Y-2.6969
X5.0709Y-2.878
X5.0748Y-2.937
X5.0866Y-3.7402
X5.0925Y-3.3406
X5.1024Y-2.9764
X5.1024Y-3.6142
X5.1063Y-2.7972
X5.1181Y-3.5748
X5.122Y-4.063
X5.1299Y-3.9409
X5.1378Y-3.3425
X5.1378Y-3.5197
X5.185Y-3.6024
X5.2047Y-3.7165
X5.2047Y-3.9606
X5.2047Y-4.1339
X5.2382Y-3.7441
X5.2402Y-2.8268
X5.2441Y-3.878
X5.2795Y-3.2028
X5.2795Y-4.5197
X5.3071Y-2.7677
X5.3071Y-2.8976
X5.3104Y-4.1811
X5.315Y-3.9488
X5.315Y-4.2638
X5.3357Y-4.164
X5.3366Y-3.5709
X5.3366Y-3.6457
X5.3504Y-2.874
X5.3504Y-3.8898
X5.3622Y-4.4528
X5.3819Y-3.5236
X5.3819Y-3.8622
X5.3858Y-3.0315
X5.3858Y-3.3465
X5.4016Y-4.378
X5.4173Y-2.9764
X5.4173Y-3.2677
X5.4173Y-3.311
X5.4173Y-3.8307
X5.4469Y-3.4794
X5.4528Y-3.7992
X5.4547Y-3.3346
X5.4567Y-2.8268
X5.4646Y-4.4528
X5.4823Y-3.6496
X5.4843Y-3.2323
X5.4843Y-3.3701
X5.4862Y-3.8819
X5.4862Y-4.1378
X5.4862Y-4.4331
X5.4882Y-2.7244
X5.4882Y-2.7972
X5.4882Y-3.061
X5.5157Y-3.2756
X5.5157Y-4.4803
X5.5197Y-2.7539
X5.5276Y-3.0315
X5.5591Y-3.1348
X5.5669Y-3.4803
X5.5669Y-3.5197
X5.5669Y-3.7559
X5.5709Y-3.374
X5.5965Y-3.6929
X5.5965Y-4.0866
X5.626Y-3.7239
X5.626Y-4.1378
X5.6299Y-3.4213
X5.6378Y-3.3268
X5.6496Y-2.7756
X5.6496Y-3.0787
X5.6496Y-4.3898
X5.6693Y-2.7244
X5.6693Y-2.9173
X5.6693Y-2.9921
X5.6693Y-3.0315
X5.6949Y-3.9921
X5.7076Y-3.8089
X5.7283Y-3.5945
T2
X5.338Y-4.5472
X5.5289Y-4.5472
T3
X5.2244Y-3.0197
X4.7638Y-2.7189
X4.7638Y-2.8189
X4.7638Y-2.9189
X4.7638Y-3.0189
X4.7638Y-3.1189
X4.7638Y-3.2189
X4.7638Y-3.3189
X4.7638Y-3.4189
X4.7638Y-3.5189
X4.7638Y-3.6189
X4.7638Y-3.7189
X4.7638Y-3.8189
X4.7638Y-3.9189
X4.7638Y-4.0189
X4.7638Y-4.1189
X4.7638Y-4.2189
X4.7638Y-4.3189
X4.7638Y-4.4189
X5.7638Y-2.7189
X5.7638Y-2.8189
X5.7638Y-2.9189
X5.7638Y-3.0189
X5.7638Y-3.1189
X5.7638Y-3.2189
X5.7638Y-3.3189
X5.7638Y-3.4189
X5.7638Y-3.5189
X5.7638Y-3.6189
X5.7638Y-3.7189
X5.7638Y-3.8189
X5.7638Y-3.9189
X5.7638Y-4.0189
X5.7638Y-4.1189
X5.7638Y-4.2189
X5.7638Y-4.3189
X5.7638Y-4.4189
T2
G00X5.2909Y-4.6377
M15
G01X5.2909Y-4.6692
M16
G05
G00X5.5759Y-4.6377
M15
G01X5.5759Y-4.6692
M16
G05
T0
M30
